G04 #@! TF.GenerationSoftware,KiCad,Pcbnew,(5.1.5)-3*
G04 #@! TF.CreationDate,2020-07-05T11:54:58+02:00*
G04 #@! TF.ProjectId,FetsAndCrosses,46657473-416e-4644-9372-6f737365732e,rev?*
G04 #@! TF.SameCoordinates,Original*
G04 #@! TF.FileFunction,Soldermask,Bot*
G04 #@! TF.FilePolarity,Negative*
%FSLAX46Y46*%
G04 Gerber Fmt 4.6, Leading zero omitted, Abs format (unit mm)*
G04 Created by KiCad (PCBNEW (5.1.5)-3) date 2020-07-05 11:54:58*
%MOMM*%
%LPD*%
G04 APERTURE LIST*
%ADD10C,0.100000*%
G04 APERTURE END LIST*
D10*
G36*
X23494239Y-254621467D02*
G01*
X23808282Y-254683934D01*
X24399926Y-254929001D01*
X24932392Y-255284784D01*
X25385216Y-255737608D01*
X25740999Y-256270074D01*
X25986066Y-256861718D01*
X25986066Y-256861719D01*
X26111000Y-257489803D01*
X26111000Y-258130197D01*
X26084457Y-258263635D01*
X25986066Y-258758282D01*
X25740999Y-259349926D01*
X25385216Y-259882392D01*
X24932392Y-260335216D01*
X24399926Y-260690999D01*
X23808282Y-260936066D01*
X23494239Y-260998533D01*
X23180197Y-261061000D01*
X22539803Y-261061000D01*
X22225761Y-260998533D01*
X21911718Y-260936066D01*
X21320074Y-260690999D01*
X20787608Y-260335216D01*
X20334784Y-259882392D01*
X19979001Y-259349926D01*
X19733934Y-258758282D01*
X19635543Y-258263635D01*
X19609000Y-258130197D01*
X19609000Y-257489803D01*
X19733934Y-256861719D01*
X19733934Y-256861718D01*
X19979001Y-256270074D01*
X20334784Y-255737608D01*
X20787608Y-255284784D01*
X21320074Y-254929001D01*
X21911718Y-254683934D01*
X22225761Y-254621467D01*
X22539803Y-254559000D01*
X23180197Y-254559000D01*
X23494239Y-254621467D01*
G37*
G36*
X132441564Y-258069389D02*
G01*
X132632833Y-258148615D01*
X132632835Y-258148616D01*
X132724210Y-258209671D01*
X132804973Y-258263635D01*
X132951365Y-258410027D01*
X133066385Y-258582167D01*
X133145611Y-258773436D01*
X133186000Y-258976484D01*
X133186000Y-259183516D01*
X133145611Y-259386564D01*
X133114101Y-259462636D01*
X133066384Y-259577835D01*
X132951365Y-259749973D01*
X132804973Y-259896365D01*
X132632835Y-260011384D01*
X132632834Y-260011385D01*
X132632833Y-260011385D01*
X132441564Y-260090611D01*
X132238516Y-260131000D01*
X132031484Y-260131000D01*
X131828436Y-260090611D01*
X131637167Y-260011385D01*
X131637166Y-260011385D01*
X131637165Y-260011384D01*
X131465027Y-259896365D01*
X131318635Y-259749973D01*
X131203616Y-259577835D01*
X131155899Y-259462636D01*
X131124389Y-259386564D01*
X131084000Y-259183516D01*
X131084000Y-258976484D01*
X131124389Y-258773436D01*
X131203615Y-258582167D01*
X131318635Y-258410027D01*
X131465027Y-258263635D01*
X131545790Y-258209671D01*
X131637165Y-258148616D01*
X131637167Y-258148615D01*
X131828436Y-258069389D01*
X132031484Y-258029000D01*
X132238516Y-258029000D01*
X132441564Y-258069389D01*
G37*
G36*
X127941564Y-258069389D02*
G01*
X128132833Y-258148615D01*
X128132835Y-258148616D01*
X128224210Y-258209671D01*
X128304973Y-258263635D01*
X128451365Y-258410027D01*
X128566385Y-258582167D01*
X128645611Y-258773436D01*
X128686000Y-258976484D01*
X128686000Y-259183516D01*
X128645611Y-259386564D01*
X128614101Y-259462636D01*
X128566384Y-259577835D01*
X128451365Y-259749973D01*
X128304973Y-259896365D01*
X128132835Y-260011384D01*
X128132834Y-260011385D01*
X128132833Y-260011385D01*
X127941564Y-260090611D01*
X127738516Y-260131000D01*
X127531484Y-260131000D01*
X127328436Y-260090611D01*
X127137167Y-260011385D01*
X127137166Y-260011385D01*
X127137165Y-260011384D01*
X126965027Y-259896365D01*
X126818635Y-259749973D01*
X126703616Y-259577835D01*
X126655899Y-259462636D01*
X126624389Y-259386564D01*
X126584000Y-259183516D01*
X126584000Y-258976484D01*
X126624389Y-258773436D01*
X126703615Y-258582167D01*
X126818635Y-258410027D01*
X126965027Y-258263635D01*
X127045790Y-258209671D01*
X127137165Y-258148616D01*
X127137167Y-258148615D01*
X127328436Y-258069389D01*
X127531484Y-258029000D01*
X127738516Y-258029000D01*
X127941564Y-258069389D01*
G37*
G36*
X36016564Y-256854389D02*
G01*
X36207833Y-256933615D01*
X36207835Y-256933616D01*
X36379973Y-257048635D01*
X36526365Y-257195027D01*
X36641385Y-257367167D01*
X36720611Y-257558436D01*
X36761000Y-257761484D01*
X36761000Y-257968516D01*
X36720611Y-258171564D01*
X36683565Y-258261000D01*
X36641384Y-258362835D01*
X36526365Y-258534973D01*
X36379973Y-258681365D01*
X36207835Y-258796384D01*
X36207834Y-258796385D01*
X36207833Y-258796385D01*
X36016564Y-258875611D01*
X35813516Y-258916000D01*
X35606484Y-258916000D01*
X35403436Y-258875611D01*
X35212167Y-258796385D01*
X35212166Y-258796385D01*
X35212165Y-258796384D01*
X35040027Y-258681365D01*
X34893635Y-258534973D01*
X34778616Y-258362835D01*
X34736435Y-258261000D01*
X34699389Y-258171564D01*
X34659000Y-257968516D01*
X34659000Y-257761484D01*
X34699389Y-257558436D01*
X34778615Y-257367167D01*
X34893635Y-257195027D01*
X35040027Y-257048635D01*
X35212165Y-256933616D01*
X35212167Y-256933615D01*
X35403436Y-256854389D01*
X35606484Y-256814000D01*
X35813516Y-256814000D01*
X36016564Y-256854389D01*
G37*
G36*
X29516564Y-256854389D02*
G01*
X29707833Y-256933615D01*
X29707835Y-256933616D01*
X29879973Y-257048635D01*
X30026365Y-257195027D01*
X30141385Y-257367167D01*
X30220611Y-257558436D01*
X30261000Y-257761484D01*
X30261000Y-257968516D01*
X30220611Y-258171564D01*
X30183565Y-258261000D01*
X30141384Y-258362835D01*
X30026365Y-258534973D01*
X29879973Y-258681365D01*
X29707835Y-258796384D01*
X29707834Y-258796385D01*
X29707833Y-258796385D01*
X29516564Y-258875611D01*
X29313516Y-258916000D01*
X29106484Y-258916000D01*
X28903436Y-258875611D01*
X28712167Y-258796385D01*
X28712166Y-258796385D01*
X28712165Y-258796384D01*
X28540027Y-258681365D01*
X28393635Y-258534973D01*
X28278616Y-258362835D01*
X28236435Y-258261000D01*
X28199389Y-258171564D01*
X28159000Y-257968516D01*
X28159000Y-257761484D01*
X28199389Y-257558436D01*
X28278615Y-257367167D01*
X28393635Y-257195027D01*
X28540027Y-257048635D01*
X28712165Y-256933616D01*
X28712167Y-256933615D01*
X28903436Y-256854389D01*
X29106484Y-256814000D01*
X29313516Y-256814000D01*
X29516564Y-256854389D01*
G37*
G36*
X46811564Y-256854389D02*
G01*
X47002833Y-256933615D01*
X47002835Y-256933616D01*
X47174973Y-257048635D01*
X47321365Y-257195027D01*
X47436385Y-257367167D01*
X47515611Y-257558436D01*
X47556000Y-257761484D01*
X47556000Y-257968516D01*
X47515611Y-258171564D01*
X47478565Y-258261000D01*
X47436384Y-258362835D01*
X47321365Y-258534973D01*
X47174973Y-258681365D01*
X47002835Y-258796384D01*
X47002834Y-258796385D01*
X47002833Y-258796385D01*
X46811564Y-258875611D01*
X46608516Y-258916000D01*
X46401484Y-258916000D01*
X46198436Y-258875611D01*
X46007167Y-258796385D01*
X46007166Y-258796385D01*
X46007165Y-258796384D01*
X45835027Y-258681365D01*
X45688635Y-258534973D01*
X45573616Y-258362835D01*
X45531435Y-258261000D01*
X45494389Y-258171564D01*
X45454000Y-257968516D01*
X45454000Y-257761484D01*
X45494389Y-257558436D01*
X45573615Y-257367167D01*
X45688635Y-257195027D01*
X45835027Y-257048635D01*
X46007165Y-256933616D01*
X46007167Y-256933615D01*
X46198436Y-256854389D01*
X46401484Y-256814000D01*
X46608516Y-256814000D01*
X46811564Y-256854389D01*
G37*
G36*
X51106564Y-256854389D02*
G01*
X51297833Y-256933615D01*
X51297835Y-256933616D01*
X51469973Y-257048635D01*
X51616365Y-257195027D01*
X51731385Y-257367167D01*
X51810611Y-257558436D01*
X51851000Y-257761484D01*
X51851000Y-257968516D01*
X51810611Y-258171564D01*
X51773565Y-258261000D01*
X51731384Y-258362835D01*
X51616365Y-258534973D01*
X51469973Y-258681365D01*
X51297835Y-258796384D01*
X51297834Y-258796385D01*
X51297833Y-258796385D01*
X51106564Y-258875611D01*
X50903516Y-258916000D01*
X50696484Y-258916000D01*
X50493436Y-258875611D01*
X50302167Y-258796385D01*
X50302166Y-258796385D01*
X50302165Y-258796384D01*
X50130027Y-258681365D01*
X49983635Y-258534973D01*
X49868616Y-258362835D01*
X49826435Y-258261000D01*
X49789389Y-258171564D01*
X49749000Y-257968516D01*
X49749000Y-257761484D01*
X49789389Y-257558436D01*
X49868615Y-257367167D01*
X49983635Y-257195027D01*
X50130027Y-257048635D01*
X50302165Y-256933616D01*
X50302167Y-256933615D01*
X50493436Y-256854389D01*
X50696484Y-256814000D01*
X50903516Y-256814000D01*
X51106564Y-256854389D01*
G37*
G36*
X40311564Y-256854389D02*
G01*
X40502833Y-256933615D01*
X40502835Y-256933616D01*
X40674973Y-257048635D01*
X40821365Y-257195027D01*
X40936385Y-257367167D01*
X41015611Y-257558436D01*
X41056000Y-257761484D01*
X41056000Y-257968516D01*
X41015611Y-258171564D01*
X40978565Y-258261000D01*
X40936384Y-258362835D01*
X40821365Y-258534973D01*
X40674973Y-258681365D01*
X40502835Y-258796384D01*
X40502834Y-258796385D01*
X40502833Y-258796385D01*
X40311564Y-258875611D01*
X40108516Y-258916000D01*
X39901484Y-258916000D01*
X39698436Y-258875611D01*
X39507167Y-258796385D01*
X39507166Y-258796385D01*
X39507165Y-258796384D01*
X39335027Y-258681365D01*
X39188635Y-258534973D01*
X39073616Y-258362835D01*
X39031435Y-258261000D01*
X38994389Y-258171564D01*
X38954000Y-257968516D01*
X38954000Y-257761484D01*
X38994389Y-257558436D01*
X39073615Y-257367167D01*
X39188635Y-257195027D01*
X39335027Y-257048635D01*
X39507165Y-256933616D01*
X39507167Y-256933615D01*
X39698436Y-256854389D01*
X39901484Y-256814000D01*
X40108516Y-256814000D01*
X40311564Y-256854389D01*
G37*
G36*
X57606564Y-256854389D02*
G01*
X57797833Y-256933615D01*
X57797835Y-256933616D01*
X57969973Y-257048635D01*
X58116365Y-257195027D01*
X58231385Y-257367167D01*
X58310611Y-257558436D01*
X58351000Y-257761484D01*
X58351000Y-257968516D01*
X58310611Y-258171564D01*
X58273565Y-258261000D01*
X58231384Y-258362835D01*
X58116365Y-258534973D01*
X57969973Y-258681365D01*
X57797835Y-258796384D01*
X57797834Y-258796385D01*
X57797833Y-258796385D01*
X57606564Y-258875611D01*
X57403516Y-258916000D01*
X57196484Y-258916000D01*
X56993436Y-258875611D01*
X56802167Y-258796385D01*
X56802166Y-258796385D01*
X56802165Y-258796384D01*
X56630027Y-258681365D01*
X56483635Y-258534973D01*
X56368616Y-258362835D01*
X56326435Y-258261000D01*
X56289389Y-258171564D01*
X56249000Y-257968516D01*
X56249000Y-257761484D01*
X56289389Y-257558436D01*
X56368615Y-257367167D01*
X56483635Y-257195027D01*
X56630027Y-257048635D01*
X56802165Y-256933616D01*
X56802167Y-256933615D01*
X56993436Y-256854389D01*
X57196484Y-256814000D01*
X57403516Y-256814000D01*
X57606564Y-256854389D01*
G37*
G36*
X57606564Y-252354389D02*
G01*
X57797833Y-252433615D01*
X57797835Y-252433616D01*
X57861991Y-252476484D01*
X57969973Y-252548635D01*
X58116365Y-252695027D01*
X58231385Y-252867167D01*
X58310611Y-253058436D01*
X58351000Y-253261484D01*
X58351000Y-253468516D01*
X58310611Y-253671564D01*
X58231385Y-253862833D01*
X58231384Y-253862835D01*
X58116365Y-254034973D01*
X57969973Y-254181365D01*
X57797835Y-254296384D01*
X57797834Y-254296385D01*
X57797833Y-254296385D01*
X57606564Y-254375611D01*
X57403516Y-254416000D01*
X57196484Y-254416000D01*
X56993436Y-254375611D01*
X56802167Y-254296385D01*
X56802166Y-254296385D01*
X56802165Y-254296384D01*
X56630027Y-254181365D01*
X56483635Y-254034973D01*
X56368616Y-253862835D01*
X56368615Y-253862833D01*
X56289389Y-253671564D01*
X56249000Y-253468516D01*
X56249000Y-253261484D01*
X56289389Y-253058436D01*
X56368615Y-252867167D01*
X56483635Y-252695027D01*
X56630027Y-252548635D01*
X56738009Y-252476484D01*
X56802165Y-252433616D01*
X56802167Y-252433615D01*
X56993436Y-252354389D01*
X57196484Y-252314000D01*
X57403516Y-252314000D01*
X57606564Y-252354389D01*
G37*
G36*
X29516564Y-252354389D02*
G01*
X29707833Y-252433615D01*
X29707835Y-252433616D01*
X29771991Y-252476484D01*
X29879973Y-252548635D01*
X30026365Y-252695027D01*
X30141385Y-252867167D01*
X30220611Y-253058436D01*
X30261000Y-253261484D01*
X30261000Y-253468516D01*
X30220611Y-253671564D01*
X30141385Y-253862833D01*
X30141384Y-253862835D01*
X30026365Y-254034973D01*
X29879973Y-254181365D01*
X29707835Y-254296384D01*
X29707834Y-254296385D01*
X29707833Y-254296385D01*
X29516564Y-254375611D01*
X29313516Y-254416000D01*
X29106484Y-254416000D01*
X28903436Y-254375611D01*
X28712167Y-254296385D01*
X28712166Y-254296385D01*
X28712165Y-254296384D01*
X28540027Y-254181365D01*
X28393635Y-254034973D01*
X28278616Y-253862835D01*
X28278615Y-253862833D01*
X28199389Y-253671564D01*
X28159000Y-253468516D01*
X28159000Y-253261484D01*
X28199389Y-253058436D01*
X28278615Y-252867167D01*
X28393635Y-252695027D01*
X28540027Y-252548635D01*
X28648009Y-252476484D01*
X28712165Y-252433616D01*
X28712167Y-252433615D01*
X28903436Y-252354389D01*
X29106484Y-252314000D01*
X29313516Y-252314000D01*
X29516564Y-252354389D01*
G37*
G36*
X36016564Y-252354389D02*
G01*
X36207833Y-252433615D01*
X36207835Y-252433616D01*
X36271991Y-252476484D01*
X36379973Y-252548635D01*
X36526365Y-252695027D01*
X36641385Y-252867167D01*
X36720611Y-253058436D01*
X36761000Y-253261484D01*
X36761000Y-253468516D01*
X36720611Y-253671564D01*
X36641385Y-253862833D01*
X36641384Y-253862835D01*
X36526365Y-254034973D01*
X36379973Y-254181365D01*
X36207835Y-254296384D01*
X36207834Y-254296385D01*
X36207833Y-254296385D01*
X36016564Y-254375611D01*
X35813516Y-254416000D01*
X35606484Y-254416000D01*
X35403436Y-254375611D01*
X35212167Y-254296385D01*
X35212166Y-254296385D01*
X35212165Y-254296384D01*
X35040027Y-254181365D01*
X34893635Y-254034973D01*
X34778616Y-253862835D01*
X34778615Y-253862833D01*
X34699389Y-253671564D01*
X34659000Y-253468516D01*
X34659000Y-253261484D01*
X34699389Y-253058436D01*
X34778615Y-252867167D01*
X34893635Y-252695027D01*
X35040027Y-252548635D01*
X35148009Y-252476484D01*
X35212165Y-252433616D01*
X35212167Y-252433615D01*
X35403436Y-252354389D01*
X35606484Y-252314000D01*
X35813516Y-252314000D01*
X36016564Y-252354389D01*
G37*
G36*
X46811564Y-252354389D02*
G01*
X47002833Y-252433615D01*
X47002835Y-252433616D01*
X47066991Y-252476484D01*
X47174973Y-252548635D01*
X47321365Y-252695027D01*
X47436385Y-252867167D01*
X47515611Y-253058436D01*
X47556000Y-253261484D01*
X47556000Y-253468516D01*
X47515611Y-253671564D01*
X47436385Y-253862833D01*
X47436384Y-253862835D01*
X47321365Y-254034973D01*
X47174973Y-254181365D01*
X47002835Y-254296384D01*
X47002834Y-254296385D01*
X47002833Y-254296385D01*
X46811564Y-254375611D01*
X46608516Y-254416000D01*
X46401484Y-254416000D01*
X46198436Y-254375611D01*
X46007167Y-254296385D01*
X46007166Y-254296385D01*
X46007165Y-254296384D01*
X45835027Y-254181365D01*
X45688635Y-254034973D01*
X45573616Y-253862835D01*
X45573615Y-253862833D01*
X45494389Y-253671564D01*
X45454000Y-253468516D01*
X45454000Y-253261484D01*
X45494389Y-253058436D01*
X45573615Y-252867167D01*
X45688635Y-252695027D01*
X45835027Y-252548635D01*
X45943009Y-252476484D01*
X46007165Y-252433616D01*
X46007167Y-252433615D01*
X46198436Y-252354389D01*
X46401484Y-252314000D01*
X46608516Y-252314000D01*
X46811564Y-252354389D01*
G37*
G36*
X51106564Y-252354389D02*
G01*
X51297833Y-252433615D01*
X51297835Y-252433616D01*
X51361991Y-252476484D01*
X51469973Y-252548635D01*
X51616365Y-252695027D01*
X51731385Y-252867167D01*
X51810611Y-253058436D01*
X51851000Y-253261484D01*
X51851000Y-253468516D01*
X51810611Y-253671564D01*
X51731385Y-253862833D01*
X51731384Y-253862835D01*
X51616365Y-254034973D01*
X51469973Y-254181365D01*
X51297835Y-254296384D01*
X51297834Y-254296385D01*
X51297833Y-254296385D01*
X51106564Y-254375611D01*
X50903516Y-254416000D01*
X50696484Y-254416000D01*
X50493436Y-254375611D01*
X50302167Y-254296385D01*
X50302166Y-254296385D01*
X50302165Y-254296384D01*
X50130027Y-254181365D01*
X49983635Y-254034973D01*
X49868616Y-253862835D01*
X49868615Y-253862833D01*
X49789389Y-253671564D01*
X49749000Y-253468516D01*
X49749000Y-253261484D01*
X49789389Y-253058436D01*
X49868615Y-252867167D01*
X49983635Y-252695027D01*
X50130027Y-252548635D01*
X50238009Y-252476484D01*
X50302165Y-252433616D01*
X50302167Y-252433615D01*
X50493436Y-252354389D01*
X50696484Y-252314000D01*
X50903516Y-252314000D01*
X51106564Y-252354389D01*
G37*
G36*
X40311564Y-252354389D02*
G01*
X40502833Y-252433615D01*
X40502835Y-252433616D01*
X40566991Y-252476484D01*
X40674973Y-252548635D01*
X40821365Y-252695027D01*
X40936385Y-252867167D01*
X41015611Y-253058436D01*
X41056000Y-253261484D01*
X41056000Y-253468516D01*
X41015611Y-253671564D01*
X40936385Y-253862833D01*
X40936384Y-253862835D01*
X40821365Y-254034973D01*
X40674973Y-254181365D01*
X40502835Y-254296384D01*
X40502834Y-254296385D01*
X40502833Y-254296385D01*
X40311564Y-254375611D01*
X40108516Y-254416000D01*
X39901484Y-254416000D01*
X39698436Y-254375611D01*
X39507167Y-254296385D01*
X39507166Y-254296385D01*
X39507165Y-254296384D01*
X39335027Y-254181365D01*
X39188635Y-254034973D01*
X39073616Y-253862835D01*
X39073615Y-253862833D01*
X38994389Y-253671564D01*
X38954000Y-253468516D01*
X38954000Y-253261484D01*
X38994389Y-253058436D01*
X39073615Y-252867167D01*
X39188635Y-252695027D01*
X39335027Y-252548635D01*
X39443009Y-252476484D01*
X39507165Y-252433616D01*
X39507167Y-252433615D01*
X39698436Y-252354389D01*
X39901484Y-252314000D01*
X40108516Y-252314000D01*
X40311564Y-252354389D01*
G37*
G36*
X132441564Y-251569389D02*
G01*
X132632833Y-251648615D01*
X132632835Y-251648616D01*
X132804973Y-251763635D01*
X132951365Y-251910027D01*
X133066385Y-252082167D01*
X133145611Y-252273436D01*
X133186000Y-252476484D01*
X133186000Y-252683516D01*
X133145611Y-252886564D01*
X133074420Y-253058435D01*
X133066384Y-253077835D01*
X132951365Y-253249973D01*
X132804973Y-253396365D01*
X132632835Y-253511384D01*
X132632834Y-253511385D01*
X132632833Y-253511385D01*
X132441564Y-253590611D01*
X132238516Y-253631000D01*
X132031484Y-253631000D01*
X131828436Y-253590611D01*
X131637167Y-253511385D01*
X131637166Y-253511385D01*
X131637165Y-253511384D01*
X131465027Y-253396365D01*
X131318635Y-253249973D01*
X131203616Y-253077835D01*
X131195580Y-253058435D01*
X131124389Y-252886564D01*
X131084000Y-252683516D01*
X131084000Y-252476484D01*
X131124389Y-252273436D01*
X131203615Y-252082167D01*
X131318635Y-251910027D01*
X131465027Y-251763635D01*
X131637165Y-251648616D01*
X131637167Y-251648615D01*
X131828436Y-251569389D01*
X132031484Y-251529000D01*
X132238516Y-251529000D01*
X132441564Y-251569389D01*
G37*
G36*
X127941564Y-251569389D02*
G01*
X128132833Y-251648615D01*
X128132835Y-251648616D01*
X128304973Y-251763635D01*
X128451365Y-251910027D01*
X128566385Y-252082167D01*
X128645611Y-252273436D01*
X128686000Y-252476484D01*
X128686000Y-252683516D01*
X128645611Y-252886564D01*
X128574420Y-253058435D01*
X128566384Y-253077835D01*
X128451365Y-253249973D01*
X128304973Y-253396365D01*
X128132835Y-253511384D01*
X128132834Y-253511385D01*
X128132833Y-253511385D01*
X127941564Y-253590611D01*
X127738516Y-253631000D01*
X127531484Y-253631000D01*
X127328436Y-253590611D01*
X127137167Y-253511385D01*
X127137166Y-253511385D01*
X127137165Y-253511384D01*
X126965027Y-253396365D01*
X126818635Y-253249973D01*
X126703616Y-253077835D01*
X126695580Y-253058435D01*
X126624389Y-252886564D01*
X126584000Y-252683516D01*
X126584000Y-252476484D01*
X126624389Y-252273436D01*
X126703615Y-252082167D01*
X126818635Y-251910027D01*
X126965027Y-251763635D01*
X127137165Y-251648616D01*
X127137167Y-251648615D01*
X127328436Y-251569389D01*
X127531484Y-251529000D01*
X127738516Y-251529000D01*
X127941564Y-251569389D01*
G37*
G36*
X36016564Y-247329389D02*
G01*
X36207833Y-247408615D01*
X36207835Y-247408616D01*
X36379973Y-247523635D01*
X36526365Y-247670027D01*
X36641385Y-247842167D01*
X36720611Y-248033436D01*
X36761000Y-248236484D01*
X36761000Y-248443516D01*
X36720611Y-248646564D01*
X36641385Y-248837833D01*
X36641384Y-248837835D01*
X36526365Y-249009973D01*
X36379973Y-249156365D01*
X36207835Y-249271384D01*
X36207834Y-249271385D01*
X36207833Y-249271385D01*
X36016564Y-249350611D01*
X35813516Y-249391000D01*
X35606484Y-249391000D01*
X35403436Y-249350611D01*
X35212167Y-249271385D01*
X35212166Y-249271385D01*
X35212165Y-249271384D01*
X35040027Y-249156365D01*
X34893635Y-249009973D01*
X34778616Y-248837835D01*
X34778615Y-248837833D01*
X34699389Y-248646564D01*
X34659000Y-248443516D01*
X34659000Y-248236484D01*
X34699389Y-248033436D01*
X34778615Y-247842167D01*
X34893635Y-247670027D01*
X35040027Y-247523635D01*
X35212165Y-247408616D01*
X35212167Y-247408615D01*
X35403436Y-247329389D01*
X35606484Y-247289000D01*
X35813516Y-247289000D01*
X36016564Y-247329389D01*
G37*
G36*
X29516564Y-247329389D02*
G01*
X29707833Y-247408615D01*
X29707835Y-247408616D01*
X29879973Y-247523635D01*
X30026365Y-247670027D01*
X30141385Y-247842167D01*
X30220611Y-248033436D01*
X30261000Y-248236484D01*
X30261000Y-248443516D01*
X30220611Y-248646564D01*
X30141385Y-248837833D01*
X30141384Y-248837835D01*
X30026365Y-249009973D01*
X29879973Y-249156365D01*
X29707835Y-249271384D01*
X29707834Y-249271385D01*
X29707833Y-249271385D01*
X29516564Y-249350611D01*
X29313516Y-249391000D01*
X29106484Y-249391000D01*
X28903436Y-249350611D01*
X28712167Y-249271385D01*
X28712166Y-249271385D01*
X28712165Y-249271384D01*
X28540027Y-249156365D01*
X28393635Y-249009973D01*
X28278616Y-248837835D01*
X28278615Y-248837833D01*
X28199389Y-248646564D01*
X28159000Y-248443516D01*
X28159000Y-248236484D01*
X28199389Y-248033436D01*
X28278615Y-247842167D01*
X28393635Y-247670027D01*
X28540027Y-247523635D01*
X28712165Y-247408616D01*
X28712167Y-247408615D01*
X28903436Y-247329389D01*
X29106484Y-247289000D01*
X29313516Y-247289000D01*
X29516564Y-247329389D01*
G37*
G36*
X40311564Y-247329389D02*
G01*
X40502833Y-247408615D01*
X40502835Y-247408616D01*
X40674973Y-247523635D01*
X40821365Y-247670027D01*
X40936385Y-247842167D01*
X41015611Y-248033436D01*
X41056000Y-248236484D01*
X41056000Y-248443516D01*
X41015611Y-248646564D01*
X40936385Y-248837833D01*
X40936384Y-248837835D01*
X40821365Y-249009973D01*
X40674973Y-249156365D01*
X40502835Y-249271384D01*
X40502834Y-249271385D01*
X40502833Y-249271385D01*
X40311564Y-249350611D01*
X40108516Y-249391000D01*
X39901484Y-249391000D01*
X39698436Y-249350611D01*
X39507167Y-249271385D01*
X39507166Y-249271385D01*
X39507165Y-249271384D01*
X39335027Y-249156365D01*
X39188635Y-249009973D01*
X39073616Y-248837835D01*
X39073615Y-248837833D01*
X38994389Y-248646564D01*
X38954000Y-248443516D01*
X38954000Y-248236484D01*
X38994389Y-248033436D01*
X39073615Y-247842167D01*
X39188635Y-247670027D01*
X39335027Y-247523635D01*
X39507165Y-247408616D01*
X39507167Y-247408615D01*
X39698436Y-247329389D01*
X39901484Y-247289000D01*
X40108516Y-247289000D01*
X40311564Y-247329389D01*
G37*
G36*
X57606564Y-247329389D02*
G01*
X57797833Y-247408615D01*
X57797835Y-247408616D01*
X57969973Y-247523635D01*
X58116365Y-247670027D01*
X58231385Y-247842167D01*
X58310611Y-248033436D01*
X58351000Y-248236484D01*
X58351000Y-248443516D01*
X58310611Y-248646564D01*
X58231385Y-248837833D01*
X58231384Y-248837835D01*
X58116365Y-249009973D01*
X57969973Y-249156365D01*
X57797835Y-249271384D01*
X57797834Y-249271385D01*
X57797833Y-249271385D01*
X57606564Y-249350611D01*
X57403516Y-249391000D01*
X57196484Y-249391000D01*
X56993436Y-249350611D01*
X56802167Y-249271385D01*
X56802166Y-249271385D01*
X56802165Y-249271384D01*
X56630027Y-249156365D01*
X56483635Y-249009973D01*
X56368616Y-248837835D01*
X56368615Y-248837833D01*
X56289389Y-248646564D01*
X56249000Y-248443516D01*
X56249000Y-248236484D01*
X56289389Y-248033436D01*
X56368615Y-247842167D01*
X56483635Y-247670027D01*
X56630027Y-247523635D01*
X56802165Y-247408616D01*
X56802167Y-247408615D01*
X56993436Y-247329389D01*
X57196484Y-247289000D01*
X57403516Y-247289000D01*
X57606564Y-247329389D01*
G37*
G36*
X51106564Y-247329389D02*
G01*
X51297833Y-247408615D01*
X51297835Y-247408616D01*
X51469973Y-247523635D01*
X51616365Y-247670027D01*
X51731385Y-247842167D01*
X51810611Y-248033436D01*
X51851000Y-248236484D01*
X51851000Y-248443516D01*
X51810611Y-248646564D01*
X51731385Y-248837833D01*
X51731384Y-248837835D01*
X51616365Y-249009973D01*
X51469973Y-249156365D01*
X51297835Y-249271384D01*
X51297834Y-249271385D01*
X51297833Y-249271385D01*
X51106564Y-249350611D01*
X50903516Y-249391000D01*
X50696484Y-249391000D01*
X50493436Y-249350611D01*
X50302167Y-249271385D01*
X50302166Y-249271385D01*
X50302165Y-249271384D01*
X50130027Y-249156365D01*
X49983635Y-249009973D01*
X49868616Y-248837835D01*
X49868615Y-248837833D01*
X49789389Y-248646564D01*
X49749000Y-248443516D01*
X49749000Y-248236484D01*
X49789389Y-248033436D01*
X49868615Y-247842167D01*
X49983635Y-247670027D01*
X50130027Y-247523635D01*
X50302165Y-247408616D01*
X50302167Y-247408615D01*
X50493436Y-247329389D01*
X50696484Y-247289000D01*
X50903516Y-247289000D01*
X51106564Y-247329389D01*
G37*
G36*
X46811564Y-247329389D02*
G01*
X47002833Y-247408615D01*
X47002835Y-247408616D01*
X47174973Y-247523635D01*
X47321365Y-247670027D01*
X47436385Y-247842167D01*
X47515611Y-248033436D01*
X47556000Y-248236484D01*
X47556000Y-248443516D01*
X47515611Y-248646564D01*
X47436385Y-248837833D01*
X47436384Y-248837835D01*
X47321365Y-249009973D01*
X47174973Y-249156365D01*
X47002835Y-249271384D01*
X47002834Y-249271385D01*
X47002833Y-249271385D01*
X46811564Y-249350611D01*
X46608516Y-249391000D01*
X46401484Y-249391000D01*
X46198436Y-249350611D01*
X46007167Y-249271385D01*
X46007166Y-249271385D01*
X46007165Y-249271384D01*
X45835027Y-249156365D01*
X45688635Y-249009973D01*
X45573616Y-248837835D01*
X45573615Y-248837833D01*
X45494389Y-248646564D01*
X45454000Y-248443516D01*
X45454000Y-248236484D01*
X45494389Y-248033436D01*
X45573615Y-247842167D01*
X45688635Y-247670027D01*
X45835027Y-247523635D01*
X46007165Y-247408616D01*
X46007167Y-247408615D01*
X46198436Y-247329389D01*
X46401484Y-247289000D01*
X46608516Y-247289000D01*
X46811564Y-247329389D01*
G37*
G36*
X40311564Y-242829389D02*
G01*
X40502833Y-242908615D01*
X40502835Y-242908616D01*
X40674973Y-243023635D01*
X40821365Y-243170027D01*
X40936385Y-243342167D01*
X41015611Y-243533436D01*
X41056000Y-243736484D01*
X41056000Y-243943516D01*
X41015611Y-244146564D01*
X40936385Y-244337833D01*
X40936384Y-244337835D01*
X40821365Y-244509973D01*
X40674973Y-244656365D01*
X40502835Y-244771384D01*
X40502834Y-244771385D01*
X40502833Y-244771385D01*
X40311564Y-244850611D01*
X40108516Y-244891000D01*
X39901484Y-244891000D01*
X39698436Y-244850611D01*
X39507167Y-244771385D01*
X39507166Y-244771385D01*
X39507165Y-244771384D01*
X39335027Y-244656365D01*
X39188635Y-244509973D01*
X39073616Y-244337835D01*
X39073615Y-244337833D01*
X38994389Y-244146564D01*
X38954000Y-243943516D01*
X38954000Y-243736484D01*
X38994389Y-243533436D01*
X39073615Y-243342167D01*
X39188635Y-243170027D01*
X39335027Y-243023635D01*
X39507165Y-242908616D01*
X39507167Y-242908615D01*
X39698436Y-242829389D01*
X39901484Y-242789000D01*
X40108516Y-242789000D01*
X40311564Y-242829389D01*
G37*
G36*
X36016564Y-242829389D02*
G01*
X36207833Y-242908615D01*
X36207835Y-242908616D01*
X36379973Y-243023635D01*
X36526365Y-243170027D01*
X36641385Y-243342167D01*
X36720611Y-243533436D01*
X36761000Y-243736484D01*
X36761000Y-243943516D01*
X36720611Y-244146564D01*
X36641385Y-244337833D01*
X36641384Y-244337835D01*
X36526365Y-244509973D01*
X36379973Y-244656365D01*
X36207835Y-244771384D01*
X36207834Y-244771385D01*
X36207833Y-244771385D01*
X36016564Y-244850611D01*
X35813516Y-244891000D01*
X35606484Y-244891000D01*
X35403436Y-244850611D01*
X35212167Y-244771385D01*
X35212166Y-244771385D01*
X35212165Y-244771384D01*
X35040027Y-244656365D01*
X34893635Y-244509973D01*
X34778616Y-244337835D01*
X34778615Y-244337833D01*
X34699389Y-244146564D01*
X34659000Y-243943516D01*
X34659000Y-243736484D01*
X34699389Y-243533436D01*
X34778615Y-243342167D01*
X34893635Y-243170027D01*
X35040027Y-243023635D01*
X35212165Y-242908616D01*
X35212167Y-242908615D01*
X35403436Y-242829389D01*
X35606484Y-242789000D01*
X35813516Y-242789000D01*
X36016564Y-242829389D01*
G37*
G36*
X46811564Y-242829389D02*
G01*
X47002833Y-242908615D01*
X47002835Y-242908616D01*
X47174973Y-243023635D01*
X47321365Y-243170027D01*
X47436385Y-243342167D01*
X47515611Y-243533436D01*
X47556000Y-243736484D01*
X47556000Y-243943516D01*
X47515611Y-244146564D01*
X47436385Y-244337833D01*
X47436384Y-244337835D01*
X47321365Y-244509973D01*
X47174973Y-244656365D01*
X47002835Y-244771384D01*
X47002834Y-244771385D01*
X47002833Y-244771385D01*
X46811564Y-244850611D01*
X46608516Y-244891000D01*
X46401484Y-244891000D01*
X46198436Y-244850611D01*
X46007167Y-244771385D01*
X46007166Y-244771385D01*
X46007165Y-244771384D01*
X45835027Y-244656365D01*
X45688635Y-244509973D01*
X45573616Y-244337835D01*
X45573615Y-244337833D01*
X45494389Y-244146564D01*
X45454000Y-243943516D01*
X45454000Y-243736484D01*
X45494389Y-243533436D01*
X45573615Y-243342167D01*
X45688635Y-243170027D01*
X45835027Y-243023635D01*
X46007165Y-242908616D01*
X46007167Y-242908615D01*
X46198436Y-242829389D01*
X46401484Y-242789000D01*
X46608516Y-242789000D01*
X46811564Y-242829389D01*
G37*
G36*
X29516564Y-242829389D02*
G01*
X29707833Y-242908615D01*
X29707835Y-242908616D01*
X29879973Y-243023635D01*
X30026365Y-243170027D01*
X30141385Y-243342167D01*
X30220611Y-243533436D01*
X30261000Y-243736484D01*
X30261000Y-243943516D01*
X30220611Y-244146564D01*
X30141385Y-244337833D01*
X30141384Y-244337835D01*
X30026365Y-244509973D01*
X29879973Y-244656365D01*
X29707835Y-244771384D01*
X29707834Y-244771385D01*
X29707833Y-244771385D01*
X29516564Y-244850611D01*
X29313516Y-244891000D01*
X29106484Y-244891000D01*
X28903436Y-244850611D01*
X28712167Y-244771385D01*
X28712166Y-244771385D01*
X28712165Y-244771384D01*
X28540027Y-244656365D01*
X28393635Y-244509973D01*
X28278616Y-244337835D01*
X28278615Y-244337833D01*
X28199389Y-244146564D01*
X28159000Y-243943516D01*
X28159000Y-243736484D01*
X28199389Y-243533436D01*
X28278615Y-243342167D01*
X28393635Y-243170027D01*
X28540027Y-243023635D01*
X28712165Y-242908616D01*
X28712167Y-242908615D01*
X28903436Y-242829389D01*
X29106484Y-242789000D01*
X29313516Y-242789000D01*
X29516564Y-242829389D01*
G37*
G36*
X51106564Y-242829389D02*
G01*
X51297833Y-242908615D01*
X51297835Y-242908616D01*
X51469973Y-243023635D01*
X51616365Y-243170027D01*
X51731385Y-243342167D01*
X51810611Y-243533436D01*
X51851000Y-243736484D01*
X51851000Y-243943516D01*
X51810611Y-244146564D01*
X51731385Y-244337833D01*
X51731384Y-244337835D01*
X51616365Y-244509973D01*
X51469973Y-244656365D01*
X51297835Y-244771384D01*
X51297834Y-244771385D01*
X51297833Y-244771385D01*
X51106564Y-244850611D01*
X50903516Y-244891000D01*
X50696484Y-244891000D01*
X50493436Y-244850611D01*
X50302167Y-244771385D01*
X50302166Y-244771385D01*
X50302165Y-244771384D01*
X50130027Y-244656365D01*
X49983635Y-244509973D01*
X49868616Y-244337835D01*
X49868615Y-244337833D01*
X49789389Y-244146564D01*
X49749000Y-243943516D01*
X49749000Y-243736484D01*
X49789389Y-243533436D01*
X49868615Y-243342167D01*
X49983635Y-243170027D01*
X50130027Y-243023635D01*
X50302165Y-242908616D01*
X50302167Y-242908615D01*
X50493436Y-242829389D01*
X50696484Y-242789000D01*
X50903516Y-242789000D01*
X51106564Y-242829389D01*
G37*
G36*
X57606564Y-242829389D02*
G01*
X57797833Y-242908615D01*
X57797835Y-242908616D01*
X57969973Y-243023635D01*
X58116365Y-243170027D01*
X58231385Y-243342167D01*
X58310611Y-243533436D01*
X58351000Y-243736484D01*
X58351000Y-243943516D01*
X58310611Y-244146564D01*
X58231385Y-244337833D01*
X58231384Y-244337835D01*
X58116365Y-244509973D01*
X57969973Y-244656365D01*
X57797835Y-244771384D01*
X57797834Y-244771385D01*
X57797833Y-244771385D01*
X57606564Y-244850611D01*
X57403516Y-244891000D01*
X57196484Y-244891000D01*
X56993436Y-244850611D01*
X56802167Y-244771385D01*
X56802166Y-244771385D01*
X56802165Y-244771384D01*
X56630027Y-244656365D01*
X56483635Y-244509973D01*
X56368616Y-244337835D01*
X56368615Y-244337833D01*
X56289389Y-244146564D01*
X56249000Y-243943516D01*
X56249000Y-243736484D01*
X56289389Y-243533436D01*
X56368615Y-243342167D01*
X56483635Y-243170027D01*
X56630027Y-243023635D01*
X56802165Y-242908616D01*
X56802167Y-242908615D01*
X56993436Y-242829389D01*
X57196484Y-242789000D01*
X57403516Y-242789000D01*
X57606564Y-242829389D01*
G37*
G36*
X35866564Y-237804389D02*
G01*
X36057833Y-237883615D01*
X36057835Y-237883616D01*
X36229973Y-237998635D01*
X36376365Y-238145027D01*
X36491385Y-238317167D01*
X36570611Y-238508436D01*
X36611000Y-238711484D01*
X36611000Y-238918516D01*
X36570611Y-239121564D01*
X36491385Y-239312833D01*
X36491384Y-239312835D01*
X36376365Y-239484973D01*
X36229973Y-239631365D01*
X36057835Y-239746384D01*
X36057834Y-239746385D01*
X36057833Y-239746385D01*
X35866564Y-239825611D01*
X35663516Y-239866000D01*
X35456484Y-239866000D01*
X35253436Y-239825611D01*
X35062167Y-239746385D01*
X35062166Y-239746385D01*
X35062165Y-239746384D01*
X34890027Y-239631365D01*
X34743635Y-239484973D01*
X34628616Y-239312835D01*
X34628615Y-239312833D01*
X34549389Y-239121564D01*
X34509000Y-238918516D01*
X34509000Y-238711484D01*
X34549389Y-238508436D01*
X34628615Y-238317167D01*
X34743635Y-238145027D01*
X34890027Y-237998635D01*
X35062165Y-237883616D01*
X35062167Y-237883615D01*
X35253436Y-237804389D01*
X35456484Y-237764000D01*
X35663516Y-237764000D01*
X35866564Y-237804389D01*
G37*
G36*
X29366564Y-237804389D02*
G01*
X29557833Y-237883615D01*
X29557835Y-237883616D01*
X29729973Y-237998635D01*
X29876365Y-238145027D01*
X29991385Y-238317167D01*
X30070611Y-238508436D01*
X30111000Y-238711484D01*
X30111000Y-238918516D01*
X30070611Y-239121564D01*
X29991385Y-239312833D01*
X29991384Y-239312835D01*
X29876365Y-239484973D01*
X29729973Y-239631365D01*
X29557835Y-239746384D01*
X29557834Y-239746385D01*
X29557833Y-239746385D01*
X29366564Y-239825611D01*
X29163516Y-239866000D01*
X28956484Y-239866000D01*
X28753436Y-239825611D01*
X28562167Y-239746385D01*
X28562166Y-239746385D01*
X28562165Y-239746384D01*
X28390027Y-239631365D01*
X28243635Y-239484973D01*
X28128616Y-239312835D01*
X28128615Y-239312833D01*
X28049389Y-239121564D01*
X28009000Y-238918516D01*
X28009000Y-238711484D01*
X28049389Y-238508436D01*
X28128615Y-238317167D01*
X28243635Y-238145027D01*
X28390027Y-237998635D01*
X28562165Y-237883616D01*
X28562167Y-237883615D01*
X28753436Y-237804389D01*
X28956484Y-237764000D01*
X29163516Y-237764000D01*
X29366564Y-237804389D01*
G37*
G36*
X57606564Y-237804389D02*
G01*
X57797833Y-237883615D01*
X57797835Y-237883616D01*
X57969973Y-237998635D01*
X58116365Y-238145027D01*
X58231385Y-238317167D01*
X58310611Y-238508436D01*
X58351000Y-238711484D01*
X58351000Y-238918516D01*
X58310611Y-239121564D01*
X58231385Y-239312833D01*
X58231384Y-239312835D01*
X58116365Y-239484973D01*
X57969973Y-239631365D01*
X57797835Y-239746384D01*
X57797834Y-239746385D01*
X57797833Y-239746385D01*
X57606564Y-239825611D01*
X57403516Y-239866000D01*
X57196484Y-239866000D01*
X56993436Y-239825611D01*
X56802167Y-239746385D01*
X56802166Y-239746385D01*
X56802165Y-239746384D01*
X56630027Y-239631365D01*
X56483635Y-239484973D01*
X56368616Y-239312835D01*
X56368615Y-239312833D01*
X56289389Y-239121564D01*
X56249000Y-238918516D01*
X56249000Y-238711484D01*
X56289389Y-238508436D01*
X56368615Y-238317167D01*
X56483635Y-238145027D01*
X56630027Y-237998635D01*
X56802165Y-237883616D01*
X56802167Y-237883615D01*
X56993436Y-237804389D01*
X57196484Y-237764000D01*
X57403516Y-237764000D01*
X57606564Y-237804389D01*
G37*
G36*
X51106564Y-237804389D02*
G01*
X51297833Y-237883615D01*
X51297835Y-237883616D01*
X51469973Y-237998635D01*
X51616365Y-238145027D01*
X51731385Y-238317167D01*
X51810611Y-238508436D01*
X51851000Y-238711484D01*
X51851000Y-238918516D01*
X51810611Y-239121564D01*
X51731385Y-239312833D01*
X51731384Y-239312835D01*
X51616365Y-239484973D01*
X51469973Y-239631365D01*
X51297835Y-239746384D01*
X51297834Y-239746385D01*
X51297833Y-239746385D01*
X51106564Y-239825611D01*
X50903516Y-239866000D01*
X50696484Y-239866000D01*
X50493436Y-239825611D01*
X50302167Y-239746385D01*
X50302166Y-239746385D01*
X50302165Y-239746384D01*
X50130027Y-239631365D01*
X49983635Y-239484973D01*
X49868616Y-239312835D01*
X49868615Y-239312833D01*
X49789389Y-239121564D01*
X49749000Y-238918516D01*
X49749000Y-238711484D01*
X49789389Y-238508436D01*
X49868615Y-238317167D01*
X49983635Y-238145027D01*
X50130027Y-237998635D01*
X50302165Y-237883616D01*
X50302167Y-237883615D01*
X50493436Y-237804389D01*
X50696484Y-237764000D01*
X50903516Y-237764000D01*
X51106564Y-237804389D01*
G37*
G36*
X46811564Y-237804389D02*
G01*
X47002833Y-237883615D01*
X47002835Y-237883616D01*
X47174973Y-237998635D01*
X47321365Y-238145027D01*
X47436385Y-238317167D01*
X47515611Y-238508436D01*
X47556000Y-238711484D01*
X47556000Y-238918516D01*
X47515611Y-239121564D01*
X47436385Y-239312833D01*
X47436384Y-239312835D01*
X47321365Y-239484973D01*
X47174973Y-239631365D01*
X47002835Y-239746384D01*
X47002834Y-239746385D01*
X47002833Y-239746385D01*
X46811564Y-239825611D01*
X46608516Y-239866000D01*
X46401484Y-239866000D01*
X46198436Y-239825611D01*
X46007167Y-239746385D01*
X46007166Y-239746385D01*
X46007165Y-239746384D01*
X45835027Y-239631365D01*
X45688635Y-239484973D01*
X45573616Y-239312835D01*
X45573615Y-239312833D01*
X45494389Y-239121564D01*
X45454000Y-238918516D01*
X45454000Y-238711484D01*
X45494389Y-238508436D01*
X45573615Y-238317167D01*
X45688635Y-238145027D01*
X45835027Y-237998635D01*
X46007165Y-237883616D01*
X46007167Y-237883615D01*
X46198436Y-237804389D01*
X46401484Y-237764000D01*
X46608516Y-237764000D01*
X46811564Y-237804389D01*
G37*
G36*
X40311564Y-237804389D02*
G01*
X40502833Y-237883615D01*
X40502835Y-237883616D01*
X40674973Y-237998635D01*
X40821365Y-238145027D01*
X40936385Y-238317167D01*
X41015611Y-238508436D01*
X41056000Y-238711484D01*
X41056000Y-238918516D01*
X41015611Y-239121564D01*
X40936385Y-239312833D01*
X40936384Y-239312835D01*
X40821365Y-239484973D01*
X40674973Y-239631365D01*
X40502835Y-239746384D01*
X40502834Y-239746385D01*
X40502833Y-239746385D01*
X40311564Y-239825611D01*
X40108516Y-239866000D01*
X39901484Y-239866000D01*
X39698436Y-239825611D01*
X39507167Y-239746385D01*
X39507166Y-239746385D01*
X39507165Y-239746384D01*
X39335027Y-239631365D01*
X39188635Y-239484973D01*
X39073616Y-239312835D01*
X39073615Y-239312833D01*
X38994389Y-239121564D01*
X38954000Y-238918516D01*
X38954000Y-238711484D01*
X38994389Y-238508436D01*
X39073615Y-238317167D01*
X39188635Y-238145027D01*
X39335027Y-237998635D01*
X39507165Y-237883616D01*
X39507167Y-237883615D01*
X39698436Y-237804389D01*
X39901484Y-237764000D01*
X40108516Y-237764000D01*
X40311564Y-237804389D01*
G37*
G36*
X35866564Y-233304389D02*
G01*
X36057833Y-233383615D01*
X36057835Y-233383616D01*
X36229973Y-233498635D01*
X36376365Y-233645027D01*
X36491385Y-233817167D01*
X36570611Y-234008436D01*
X36611000Y-234211484D01*
X36611000Y-234418516D01*
X36570611Y-234621564D01*
X36491385Y-234812833D01*
X36491384Y-234812835D01*
X36376365Y-234984973D01*
X36229973Y-235131365D01*
X36057835Y-235246384D01*
X36057834Y-235246385D01*
X36057833Y-235246385D01*
X35866564Y-235325611D01*
X35663516Y-235366000D01*
X35456484Y-235366000D01*
X35253436Y-235325611D01*
X35062167Y-235246385D01*
X35062166Y-235246385D01*
X35062165Y-235246384D01*
X34890027Y-235131365D01*
X34743635Y-234984973D01*
X34628616Y-234812835D01*
X34628615Y-234812833D01*
X34549389Y-234621564D01*
X34509000Y-234418516D01*
X34509000Y-234211484D01*
X34549389Y-234008436D01*
X34628615Y-233817167D01*
X34743635Y-233645027D01*
X34890027Y-233498635D01*
X35062165Y-233383616D01*
X35062167Y-233383615D01*
X35253436Y-233304389D01*
X35456484Y-233264000D01*
X35663516Y-233264000D01*
X35866564Y-233304389D01*
G37*
G36*
X46811564Y-233304389D02*
G01*
X47002833Y-233383615D01*
X47002835Y-233383616D01*
X47174973Y-233498635D01*
X47321365Y-233645027D01*
X47436385Y-233817167D01*
X47515611Y-234008436D01*
X47556000Y-234211484D01*
X47556000Y-234418516D01*
X47515611Y-234621564D01*
X47436385Y-234812833D01*
X47436384Y-234812835D01*
X47321365Y-234984973D01*
X47174973Y-235131365D01*
X47002835Y-235246384D01*
X47002834Y-235246385D01*
X47002833Y-235246385D01*
X46811564Y-235325611D01*
X46608516Y-235366000D01*
X46401484Y-235366000D01*
X46198436Y-235325611D01*
X46007167Y-235246385D01*
X46007166Y-235246385D01*
X46007165Y-235246384D01*
X45835027Y-235131365D01*
X45688635Y-234984973D01*
X45573616Y-234812835D01*
X45573615Y-234812833D01*
X45494389Y-234621564D01*
X45454000Y-234418516D01*
X45454000Y-234211484D01*
X45494389Y-234008436D01*
X45573615Y-233817167D01*
X45688635Y-233645027D01*
X45835027Y-233498635D01*
X46007165Y-233383616D01*
X46007167Y-233383615D01*
X46198436Y-233304389D01*
X46401484Y-233264000D01*
X46608516Y-233264000D01*
X46811564Y-233304389D01*
G37*
G36*
X29366564Y-233304389D02*
G01*
X29557833Y-233383615D01*
X29557835Y-233383616D01*
X29729973Y-233498635D01*
X29876365Y-233645027D01*
X29991385Y-233817167D01*
X30070611Y-234008436D01*
X30111000Y-234211484D01*
X30111000Y-234418516D01*
X30070611Y-234621564D01*
X29991385Y-234812833D01*
X29991384Y-234812835D01*
X29876365Y-234984973D01*
X29729973Y-235131365D01*
X29557835Y-235246384D01*
X29557834Y-235246385D01*
X29557833Y-235246385D01*
X29366564Y-235325611D01*
X29163516Y-235366000D01*
X28956484Y-235366000D01*
X28753436Y-235325611D01*
X28562167Y-235246385D01*
X28562166Y-235246385D01*
X28562165Y-235246384D01*
X28390027Y-235131365D01*
X28243635Y-234984973D01*
X28128616Y-234812835D01*
X28128615Y-234812833D01*
X28049389Y-234621564D01*
X28009000Y-234418516D01*
X28009000Y-234211484D01*
X28049389Y-234008436D01*
X28128615Y-233817167D01*
X28243635Y-233645027D01*
X28390027Y-233498635D01*
X28562165Y-233383616D01*
X28562167Y-233383615D01*
X28753436Y-233304389D01*
X28956484Y-233264000D01*
X29163516Y-233264000D01*
X29366564Y-233304389D01*
G37*
G36*
X51106564Y-233304389D02*
G01*
X51297833Y-233383615D01*
X51297835Y-233383616D01*
X51469973Y-233498635D01*
X51616365Y-233645027D01*
X51731385Y-233817167D01*
X51810611Y-234008436D01*
X51851000Y-234211484D01*
X51851000Y-234418516D01*
X51810611Y-234621564D01*
X51731385Y-234812833D01*
X51731384Y-234812835D01*
X51616365Y-234984973D01*
X51469973Y-235131365D01*
X51297835Y-235246384D01*
X51297834Y-235246385D01*
X51297833Y-235246385D01*
X51106564Y-235325611D01*
X50903516Y-235366000D01*
X50696484Y-235366000D01*
X50493436Y-235325611D01*
X50302167Y-235246385D01*
X50302166Y-235246385D01*
X50302165Y-235246384D01*
X50130027Y-235131365D01*
X49983635Y-234984973D01*
X49868616Y-234812835D01*
X49868615Y-234812833D01*
X49789389Y-234621564D01*
X49749000Y-234418516D01*
X49749000Y-234211484D01*
X49789389Y-234008436D01*
X49868615Y-233817167D01*
X49983635Y-233645027D01*
X50130027Y-233498635D01*
X50302165Y-233383616D01*
X50302167Y-233383615D01*
X50493436Y-233304389D01*
X50696484Y-233264000D01*
X50903516Y-233264000D01*
X51106564Y-233304389D01*
G37*
G36*
X40311564Y-233304389D02*
G01*
X40502833Y-233383615D01*
X40502835Y-233383616D01*
X40674973Y-233498635D01*
X40821365Y-233645027D01*
X40936385Y-233817167D01*
X41015611Y-234008436D01*
X41056000Y-234211484D01*
X41056000Y-234418516D01*
X41015611Y-234621564D01*
X40936385Y-234812833D01*
X40936384Y-234812835D01*
X40821365Y-234984973D01*
X40674973Y-235131365D01*
X40502835Y-235246384D01*
X40502834Y-235246385D01*
X40502833Y-235246385D01*
X40311564Y-235325611D01*
X40108516Y-235366000D01*
X39901484Y-235366000D01*
X39698436Y-235325611D01*
X39507167Y-235246385D01*
X39507166Y-235246385D01*
X39507165Y-235246384D01*
X39335027Y-235131365D01*
X39188635Y-234984973D01*
X39073616Y-234812835D01*
X39073615Y-234812833D01*
X38994389Y-234621564D01*
X38954000Y-234418516D01*
X38954000Y-234211484D01*
X38994389Y-234008436D01*
X39073615Y-233817167D01*
X39188635Y-233645027D01*
X39335027Y-233498635D01*
X39507165Y-233383616D01*
X39507167Y-233383615D01*
X39698436Y-233304389D01*
X39901484Y-233264000D01*
X40108516Y-233264000D01*
X40311564Y-233304389D01*
G37*
G36*
X57606564Y-233304389D02*
G01*
X57797833Y-233383615D01*
X57797835Y-233383616D01*
X57969973Y-233498635D01*
X58116365Y-233645027D01*
X58231385Y-233817167D01*
X58310611Y-234008436D01*
X58351000Y-234211484D01*
X58351000Y-234418516D01*
X58310611Y-234621564D01*
X58231385Y-234812833D01*
X58231384Y-234812835D01*
X58116365Y-234984973D01*
X57969973Y-235131365D01*
X57797835Y-235246384D01*
X57797834Y-235246385D01*
X57797833Y-235246385D01*
X57606564Y-235325611D01*
X57403516Y-235366000D01*
X57196484Y-235366000D01*
X56993436Y-235325611D01*
X56802167Y-235246385D01*
X56802166Y-235246385D01*
X56802165Y-235246384D01*
X56630027Y-235131365D01*
X56483635Y-234984973D01*
X56368616Y-234812835D01*
X56368615Y-234812833D01*
X56289389Y-234621564D01*
X56249000Y-234418516D01*
X56249000Y-234211484D01*
X56289389Y-234008436D01*
X56368615Y-233817167D01*
X56483635Y-233645027D01*
X56630027Y-233498635D01*
X56802165Y-233383616D01*
X56802167Y-233383615D01*
X56993436Y-233304389D01*
X57196484Y-233264000D01*
X57403516Y-233264000D01*
X57606564Y-233304389D01*
G37*
G36*
X27201000Y-34186000D02*
G01*
X23599000Y-34186000D01*
X23599000Y-30584000D01*
X27201000Y-30584000D01*
X27201000Y-34186000D01*
G37*
G36*
X21826366Y-27600695D02*
G01*
X21983460Y-27648349D01*
X22128231Y-27725731D01*
X22255128Y-27829872D01*
X22359269Y-27956769D01*
X22436651Y-28101540D01*
X22484305Y-28258634D01*
X22501000Y-28428140D01*
X22501000Y-30341860D01*
X22484305Y-30511366D01*
X22436651Y-30668460D01*
X22359269Y-30813231D01*
X22255128Y-30940128D01*
X22128231Y-31044269D01*
X21983460Y-31121651D01*
X21826366Y-31169305D01*
X21656860Y-31186000D01*
X19743140Y-31186000D01*
X19573634Y-31169305D01*
X19416540Y-31121651D01*
X19271769Y-31044269D01*
X19144872Y-30940128D01*
X19040731Y-30813231D01*
X18963349Y-30668460D01*
X18915695Y-30511366D01*
X18899000Y-30341860D01*
X18899000Y-28428140D01*
X18915695Y-28258634D01*
X18963349Y-28101540D01*
X19040731Y-27956769D01*
X19144872Y-27829872D01*
X19271769Y-27725731D01*
X19416540Y-27648349D01*
X19573634Y-27600695D01*
X19743140Y-27584000D01*
X21656860Y-27584000D01*
X21826366Y-27600695D01*
G37*
G36*
X26626979Y-24848293D02*
G01*
X26760625Y-24888834D01*
X26883784Y-24954664D01*
X26991740Y-25043260D01*
X27080336Y-25151216D01*
X27146166Y-25274375D01*
X27186707Y-25408021D01*
X27201000Y-25553140D01*
X27201000Y-27216860D01*
X27186707Y-27361979D01*
X27146166Y-27495625D01*
X27080336Y-27618784D01*
X26991740Y-27726740D01*
X26883784Y-27815336D01*
X26760625Y-27881166D01*
X26626979Y-27921707D01*
X26481860Y-27936000D01*
X24318140Y-27936000D01*
X24173021Y-27921707D01*
X24039375Y-27881166D01*
X23916216Y-27815336D01*
X23808260Y-27726740D01*
X23719664Y-27618784D01*
X23653834Y-27495625D01*
X23613293Y-27361979D01*
X23599000Y-27216860D01*
X23599000Y-25553140D01*
X23613293Y-25408021D01*
X23653834Y-25274375D01*
X23719664Y-25151216D01*
X23808260Y-25043260D01*
X23916216Y-24954664D01*
X24039375Y-24888834D01*
X24173021Y-24848293D01*
X24318140Y-24834000D01*
X26481860Y-24834000D01*
X26626979Y-24848293D01*
G37*
G36*
X161924239Y-19036467D02*
G01*
X162238282Y-19098934D01*
X162829926Y-19344001D01*
X163362392Y-19699784D01*
X163815216Y-20152608D01*
X164170999Y-20685074D01*
X164416066Y-21276718D01*
X164416066Y-21276719D01*
X164541000Y-21904803D01*
X164541000Y-22545197D01*
X164478533Y-22859239D01*
X164416066Y-23173282D01*
X164170999Y-23764926D01*
X163815216Y-24297392D01*
X163362392Y-24750216D01*
X162829926Y-25105999D01*
X162238282Y-25351066D01*
X161951950Y-25408021D01*
X161610197Y-25476000D01*
X160969803Y-25476000D01*
X160628050Y-25408021D01*
X160341718Y-25351066D01*
X159750074Y-25105999D01*
X159217608Y-24750216D01*
X158764784Y-24297392D01*
X158409001Y-23764926D01*
X158163934Y-23173282D01*
X158101467Y-22859239D01*
X158039000Y-22545197D01*
X158039000Y-21904803D01*
X158163934Y-21276719D01*
X158163934Y-21276718D01*
X158409001Y-20685074D01*
X158764784Y-20152608D01*
X159217608Y-19699784D01*
X159750074Y-19344001D01*
X160341718Y-19098934D01*
X160655761Y-19036467D01*
X160969803Y-18974000D01*
X161610197Y-18974000D01*
X161924239Y-19036467D01*
G37*
M02*
