G04 #@! TF.GenerationSoftware,KiCad,Pcbnew,(5.1.5)-3*
G04 #@! TF.CreationDate,2020-07-05T11:54:57+02:00*
G04 #@! TF.ProjectId,FetsAndCrosses,46657473-416e-4644-9372-6f737365732e,rev?*
G04 #@! TF.SameCoordinates,Original*
G04 #@! TF.FileFunction,Legend,Bot*
G04 #@! TF.FilePolarity,Positive*
%FSLAX46Y46*%
G04 Gerber Fmt 4.6, Leading zero omitted, Abs format (unit mm)*
G04 Created by KiCad (PCBNEW (5.1.5)-3) date 2020-07-05 11:54:57*
%MOMM*%
%LPD*%
G04 APERTURE LIST*
%ADD10C,0.500000*%
%ADD11C,0.400000*%
%ADD12C,0.120000*%
%ADD13C,0.100000*%
G04 APERTURE END LIST*
D10*
X160718142Y-260556428D02*
X160241952Y-261889761D01*
X159765761Y-260556428D01*
X158622904Y-259889761D02*
X158432428Y-259889761D01*
X158241952Y-259985000D01*
X158146714Y-260080238D01*
X158051476Y-260270714D01*
X157956238Y-260651666D01*
X157956238Y-261127857D01*
X158051476Y-261508809D01*
X158146714Y-261699285D01*
X158241952Y-261794523D01*
X158432428Y-261889761D01*
X158622904Y-261889761D01*
X158813380Y-261794523D01*
X158908619Y-261699285D01*
X159003857Y-261508809D01*
X159099095Y-261127857D01*
X159099095Y-260651666D01*
X159003857Y-260270714D01*
X158908619Y-260080238D01*
X158813380Y-259985000D01*
X158622904Y-259889761D01*
X157099095Y-261699285D02*
X157003857Y-261794523D01*
X157099095Y-261889761D01*
X157194333Y-261794523D01*
X157099095Y-261699285D01*
X157099095Y-261889761D01*
X155765761Y-259889761D02*
X155575285Y-259889761D01*
X155384809Y-259985000D01*
X155289571Y-260080238D01*
X155194333Y-260270714D01*
X155099095Y-260651666D01*
X155099095Y-261127857D01*
X155194333Y-261508809D01*
X155289571Y-261699285D01*
X155384809Y-261794523D01*
X155575285Y-261889761D01*
X155765761Y-261889761D01*
X155956238Y-261794523D01*
X156051476Y-261699285D01*
X156146714Y-261508809D01*
X156241952Y-261127857D01*
X156241952Y-260651666D01*
X156146714Y-260270714D01*
X156051476Y-260080238D01*
X155956238Y-259985000D01*
X155765761Y-259889761D01*
D11*
X25265000Y-22225000D02*
G75*
G03X25265000Y-22225000I-500000J0D01*
G01*
X25764999Y-21225001D02*
G75*
G03X25764999Y-23224999I-999999J-999999D01*
G01*
X30765000Y-22225000D02*
G75*
G03X30765000Y-22225000I-1500000J0D01*
G01*
X21765000Y-22225000D02*
G75*
G03X21765000Y-22225000I-1500000J0D01*
G01*
X21765000Y-22225000D02*
X23265000Y-22225000D01*
X25265000Y-22225000D02*
X27765000Y-22225000D01*
X19265000Y-22225000D02*
X21265000Y-22225000D01*
D12*
X21265000Y-22225000D02*
X20265000Y-22225000D01*
X20265000Y-22225000D02*
X20265000Y-23225000D01*
D11*
X20265000Y-23225000D02*
X20265000Y-21225000D01*
X28265000Y-22225000D02*
X30265000Y-22225000D01*
D13*
G36*
X25265000Y-22225000D02*
G01*
X24765000Y-21725000D01*
X24265000Y-22225000D01*
X24765000Y-22725000D01*
X25265000Y-22225000D01*
G37*
X25265000Y-22225000D02*
X24765000Y-21725000D01*
X24265000Y-22225000D01*
X24765000Y-22725000D01*
X25265000Y-22225000D01*
M02*
