M48
; DRILL file {KiCad (5.1.5)-3} date 07/05/20 11:54:59
; FORMAT={-:-/ absolute / inch / decimal}
; #@! TF.CreationDate,2020-07-05T11:54:59+02:00
; #@! TF.GenerationSoftware,Kicad,Pcbnew,(5.1.5)-3
; #@! TF.FileFunction,Plated,1,4,PTH
FMAT,2
INCH
T1C0.0138
T2C0.0157
T3C0.0197
T4C0.0394
T5C0.0433
T6C0.1260
%
G90
G05
T1
X0.7197Y-2.1114
X0.725Y-1.4
X0.725Y-1.85
X0.725Y-1.9
X0.725Y-1.975
X0.725Y-3.675
X0.725Y-3.725
X0.7492Y-3.925
X0.7492Y-3.975
X0.75Y-3.05
X0.75Y-4.65
X0.75Y-6.975
X0.75Y-7.275
X0.75Y-7.75
X0.75Y-7.9
X0.75Y-8.975
X0.775Y-1.575
X0.775Y-1.75
X0.775Y-1.85
X0.775Y-1.925
X0.775Y-2.125
X0.775Y-2.2
X0.775Y-2.275
X0.775Y-3.3
X0.775Y-3.425
X0.775Y-3.675
X0.775Y-3.85
X0.775Y-4.025
X0.775Y-4.2
X0.775Y-4.425
X0.775Y-4.75
X0.775Y-5.125
X0.775Y-5.45
X0.775Y-5.925
X0.775Y-6.15
X0.775Y-6.625
X0.775Y-6.85
X0.775Y-7.55
X0.775Y-8.25
X0.775Y-9.65
X0.7787Y-2.625
X0.8Y-2.55
X0.8Y-3.5
X0.8Y-3.875
X0.8Y-4.725
X0.8Y-5.425
X0.8Y-5.525
X0.8Y-6.125
X0.8Y-6.825
X0.8Y-7.525
X0.8Y-7.7
X0.8Y-7.925
X0.8Y-8.225
X0.825Y-2.075
X0.825Y-2.425
X0.825Y-2.775
X0.825Y-3.475
X0.825Y-3.775
X0.825Y-4.825
X0.825Y-4.8545
X0.825Y-4.9
X0.825Y-5.55
X0.825Y-5.6
X0.825Y-6.225
X0.825Y-6.2545
X0.825Y-6.925
X0.825Y-7.625
X0.825Y-8.325
X0.825Y-8.3545
X0.825Y-9.325
X0.8363Y-3.4197
X0.85Y-3.675
X0.85Y-4.05
X0.85Y-8.025
X0.875Y-1.725
X0.875Y-1.9
X0.875Y-2.25
X0.875Y-2.6
X0.875Y-3.65
X0.875Y-3.825
X0.875Y-4.175
X0.875Y-4.525
X0.875Y-4.875
X0.875Y-5.225
X0.875Y-5.575
X0.875Y-5.925
X0.875Y-6.275
X0.875Y-6.625
X0.875Y-6.975
X0.875Y-7.675
X0.875Y-8.375
X0.89Y-4.0
X0.8958Y-4.5792
X0.8958Y-5.2792
X0.8958Y-5.4458
X0.8978Y-2.925
X0.9Y-1.775
X0.9Y-2.325
X0.9Y-3.3
X0.9Y-4.55
X0.9Y-4.75
X0.9Y-5.25
X0.9Y-5.325
X0.9Y-5.975
X0.9Y-6.15
X0.9Y-6.675
X0.9Y-6.85
X0.9Y-7.225
X0.9Y-7.275
X0.9Y-7.375
X0.9Y-7.55
X0.9Y-8.075
X0.9Y-8.25
X0.9Y-9.775
X0.9008Y-7.45
X0.9008Y-8.15
X0.9236Y-2.25
X0.925Y-3.45
X0.925Y-4.65
X0.925Y-4.8955
X0.925Y-4.925
X0.925Y-5.6
X0.925Y-6.825
X0.925Y-9.025
X0.9458Y-3.6708
X0.9464Y-7.3452
X0.95Y-1.5
X0.95Y-1.75
X0.95Y-1.85
X0.95Y-1.925
X0.95Y-2.275
X0.95Y-2.625
X0.95Y-2.825
X0.95Y-3.85
X0.95Y-4.2
X0.95Y-4.375
X0.95Y-4.825
X0.95Y-5.075
X0.95Y-5.175
X0.95Y-5.35
X0.95Y-5.525
X0.95Y-5.775
X0.95Y-5.95
X0.95Y-6.225
X0.95Y-6.475
X0.95Y-6.65
X0.95Y-6.925
X0.95Y-7.175
X0.95Y-7.625
X0.95Y-7.875
X0.95Y-8.05
X0.95Y-8.15
X0.95Y-8.325
X0.9542Y-4.5458
X0.965Y-4.025
X0.975Y-2.025
X0.975Y-2.375
X0.975Y-2.725
X0.975Y-3.175
X0.975Y-3.425
X0.975Y-7.275
X0.975Y-7.45
X0.975Y-8.425
X1.0Y-2.7
X1.0Y-3.7
X1.0Y-4.125
X1.0Y-4.425
X1.0Y-4.475
X1.0Y-4.875
X1.0Y-5.125
X1.0Y-5.175
X1.0Y-5.575
X1.0Y-5.825
X1.0Y-5.875
X1.0Y-6.275
X1.0Y-6.525
X1.0Y-6.575
X1.0Y-6.975
X1.0Y-7.225
X1.0Y-7.325
X1.0Y-7.675
X1.0Y-7.8
X1.0Y-7.925
X1.0Y-7.975
X1.0Y-8.375
X1.0065Y-7.2731
X1.039Y-3.7319
X1.05Y-1.55
X1.05Y-1.725
X1.05Y-1.9
X1.05Y-2.075
X1.05Y-2.25
X1.05Y-2.425
X1.05Y-2.6
X1.05Y-2.775
X1.05Y-3.2
X1.05Y-3.825
X1.05Y-4.725
X1.05Y-4.875
X1.05Y-5.425
X1.05Y-5.575
X1.05Y-6.125
X1.05Y-6.275
X1.05Y-6.825
X1.05Y-6.975
X1.05Y-7.525
X1.05Y-7.575
X1.05Y-8.225
X1.05Y-8.375
X1.0641Y-3.7163
X1.065Y-4.35
X1.065Y-5.05
X1.065Y-5.75
X1.075Y-2.8
X1.075Y-3.125
X1.075Y-4.05
X1.075Y-4.175
X1.075Y-4.425
X1.075Y-4.55
X1.075Y-4.925
X1.075Y-5.125
X1.075Y-5.25
X1.075Y-5.825
X1.075Y-6.525
X1.075Y-7.225
X1.075Y-7.925
X1.075Y-8.45
X1.0954Y-3.6462
X1.0992Y-7.3
X1.1Y-1.675
X1.1Y-2.2
X1.1Y-3.7
X1.1Y-6.85
X1.1Y-7.35
X1.125Y-1.575
X1.125Y-1.75
X1.125Y-1.925
X1.125Y-2.1
X1.125Y-2.275
X1.125Y-2.45
X1.125Y-2.625
X1.125Y-2.8
X1.125Y-3.05
X1.125Y-3.775
X1.125Y-3.85
X1.125Y-4.025
X1.125Y-4.125
X1.125Y-4.2
X1.125Y-4.3
X1.125Y-4.55
X1.125Y-4.725
X1.125Y-5.0
X1.125Y-5.25
X1.125Y-5.425
X1.125Y-5.7
X1.125Y-5.95
X1.125Y-6.125
X1.125Y-6.65
X1.125Y-6.825
X1.125Y-7.525
X1.125Y-7.8
X1.125Y-8.05
X1.125Y-8.225
X1.125Y-8.6
X1.1292Y-3.6792
X1.1295Y-7.35
X1.15Y-2.55
X1.15Y-4.225
X1.15Y-4.925
X1.15Y-5.525
X1.15Y-7.025
X1.1524Y-3.1866
X1.165Y-6.025
X1.1661Y-5.3261
X1.1661Y-7.8911
X1.175Y-1.975
X1.175Y-2.025
X1.175Y-2.725
X1.175Y-2.95
X1.175Y-3.35
X1.175Y-4.475
X1.175Y-4.875
X1.175Y-5.175
X1.175Y-5.875
X1.175Y-6.275
X1.175Y-6.575
X1.175Y-6.7
X1.175Y-6.975
X1.175Y-7.275
X1.175Y-7.4
X1.175Y-7.675
X1.175Y-7.975
X1.175Y-8.1
X1.175Y-8.375
X1.2Y-3.375
X1.2Y-3.675
X1.215Y-4.6
X1.225Y-1.55
X1.225Y-1.725
X1.225Y-1.9
X1.225Y-2.25
X1.225Y-2.325
X1.225Y-2.6
X1.225Y-2.8
X1.225Y-2.9
X1.225Y-3.0
X1.225Y-3.125
X1.225Y-3.2
X1.225Y-3.875
X1.225Y-4.7
X1.225Y-5.4
X1.225Y-6.1
X1.225Y-6.8
X1.225Y-7.5
X1.225Y-8.2
X1.25Y-1.375
X1.25Y-4.1
X1.25Y-7.325
X1.275Y-1.65
X1.275Y-1.775
X1.275Y-2.65
X1.275Y-3.125
X1.275Y-3.525
X1.275Y-3.95
X1.275Y-4.05
X1.275Y-4.925
X1.275Y-6.15
X1.275Y-10.075
X1.2917Y-2.8333
X1.2967Y-8.0453
X1.3Y-1.5
X1.3Y-1.75
X1.3Y-1.925
X1.3Y-2.025
X1.3Y-2.2
X1.3Y-2.275
X1.3Y-2.625
X1.3Y-3.325
X1.3Y-3.675
X1.3Y-3.8486
X1.3Y-3.8782
X1.3Y-4.025
X1.3Y-4.2
X1.3Y-4.375
X1.3Y-4.475
X1.3Y-4.55
X1.3Y-4.725
X1.3Y-5.075
X1.3Y-5.175
X1.3Y-5.25
X1.3Y-5.425
X1.3Y-5.775
X1.3Y-5.875
X1.3Y-5.95
X1.3Y-6.125
X1.3Y-6.475
X1.3Y-6.575
X1.3Y-6.65
X1.3Y-6.825
X1.3Y-7.175
X1.3Y-7.275
X1.3Y-7.35
X1.3Y-7.525
X1.3Y-7.875
X1.3Y-7.975
X1.3Y-8.225
X1.3Y-8.6
X1.3Y-8.725
X1.3169Y-3.4987
X1.3243Y-8.3249
X1.325Y-2.475
X1.325Y-2.9
X1.325Y-4.65
X1.325Y-4.825
X1.325Y-5.35
X1.325Y-6.05
X1.325Y-6.225
X1.325Y-6.75
X1.325Y-6.925
X1.325Y-7.45
X1.325Y-7.625
X1.325Y-8.15
X1.35Y-2.075
X1.35Y-2.425
X1.35Y-2.775
X1.35Y-3.35
X1.35Y-3.575
X1.35Y-3.7468
X1.35Y-3.7764
X1.35Y-5.55
X1.35Y-7.975
X1.375Y-2.825
X1.39Y-4.025
X1.4Y-1.55
X1.4Y-1.725
X1.4Y-1.9
X1.4Y-2.25
X1.4Y-2.6
X1.4Y-4.175
X1.4Y-4.7
X1.4Y-4.875
X1.4Y-5.4
X1.4Y-5.475
X1.4Y-6.1
X1.4Y-6.275
X1.4Y-6.8
X1.4Y-6.975
X1.4Y-7.5
X1.4Y-7.675
X1.4Y-8.2
X1.4Y-8.375
X1.425Y-2.325
X1.425Y-3.175
X1.425Y-4.575
X1.425Y-4.85
X1.425Y-5.575
X1.425Y-5.975
X1.425Y-6.25
X1.425Y-6.95
X1.425Y-7.25
X1.425Y-7.65
X1.425Y-8.35
X1.4258Y-7.975
X1.4492Y-2.875
X1.4492Y-3.575
X1.4492Y-4.675
X1.4492Y-6.075
X1.4492Y-7.475
X1.4492Y-8.175
X1.45Y-1.6
X1.45Y-1.95
X1.45Y-2.65
X1.45Y-3.15
X1.4553Y-4.0388
X1.475Y-1.575
X1.475Y-1.75
X1.475Y-1.85
X1.475Y-1.925
X1.475Y-2.275
X1.475Y-2.625
X1.475Y-2.975
X1.475Y-3.325
X1.475Y-3.425
X1.475Y-3.6
X1.475Y-3.85
X1.475Y-4.125
X1.475Y-4.2
X1.475Y-4.375
X1.475Y-4.725
X1.475Y-4.9
X1.475Y-5.075
X1.475Y-5.425
X1.475Y-5.6
X1.475Y-5.775
X1.475Y-6.125
X1.475Y-6.3
X1.475Y-6.475
X1.475Y-6.825
X1.475Y-7.0
X1.475Y-7.175
X1.475Y-7.525
X1.475Y-7.7
X1.475Y-7.875
X1.475Y-8.225
X1.475Y-8.4
X1.475Y-9.5
X1.475Y-9.875
X1.475Y-10.25
X1.5Y-2.025
X1.5Y-2.375
X1.5Y-2.725
X1.5Y-3.075
X1.5Y-4.575
X1.5Y-5.175
X1.5Y-5.975
X1.5Y-6.4
X1.5Y-7.275
X1.5Y-7.975
X1.5161Y-2.6411
X1.5161Y-4.7764
X1.5161Y-5.4846
X1.5161Y-6.1846
X1.5161Y-6.8764
X1.5161Y-7.5846
X1.5161Y-8.2846
X1.5208Y-6.9292
X1.525Y-3.125
X1.525Y-3.475
X1.525Y-3.775
X1.525Y-4.525
X1.525Y-4.825
X1.525Y-5.225
X1.525Y-5.925
X1.525Y-6.225
X1.525Y-6.625
X1.525Y-7.325
X1.525Y-7.625
X1.525Y-8.025
X1.525Y-8.325
X1.55Y-1.375
X1.575Y-0.875
X1.575Y-0.925
X1.575Y-1.55
X1.575Y-1.725
X1.575Y-1.9
X1.575Y-2.075
X1.575Y-2.25
X1.575Y-2.425
X1.575Y-2.6
X1.575Y-2.775
X1.575Y-2.95
X1.575Y-3.3
X1.575Y-4.0
X1.575Y-4.175
X1.575Y-4.35
X1.575Y-4.575
X1.575Y-4.7
X1.575Y-5.05
X1.575Y-5.275
X1.575Y-5.4
X1.575Y-5.575
X1.575Y-5.75
X1.575Y-5.975
X1.575Y-6.1
X1.575Y-6.45
X1.575Y-6.675
X1.575Y-6.8
X1.575Y-7.15
X1.575Y-7.375
X1.575Y-7.5
X1.575Y-7.85
X1.575Y-8.075
X1.575Y-8.2
X1.5904Y-8.2846
X1.5958Y-7.0208
X1.6Y-1.025
X1.6Y-1.775
X1.6Y-3.7
X1.6Y-7.65
X1.6Y-8.4205
X1.6008Y-3.25
X1.6242Y-2.6
X1.6242Y-3.025
X1.6242Y-3.9
X1.625Y-6.825
X1.625Y-7.625
X1.625Y-8.45
X1.65Y-1.225
X1.65Y-1.325
X1.65Y-1.5
X1.65Y-1.75
X1.65Y-1.925
X1.65Y-2.0955
X1.65Y-2.125
X1.65Y-2.275
X1.65Y-2.45
X1.65Y-2.625
X1.65Y-2.8
X1.65Y-2.9
X1.65Y-2.975
X1.65Y-3.075
X1.65Y-3.15
X1.65Y-3.325
X1.65Y-3.5
X1.65Y-3.675
X1.65Y-3.775
X1.65Y-3.85
X1.65Y-3.95
X1.65Y-4.2
X1.65Y-4.375
X1.65Y-4.475
X1.65Y-4.55
X1.65Y-4.725
X1.65Y-5.075
X1.65Y-5.175
X1.65Y-5.25
X1.65Y-5.425
X1.65Y-5.775
X1.65Y-5.875
X1.65Y-5.95
X1.65Y-6.125
X1.65Y-6.475
X1.65Y-6.575
X1.65Y-6.65
X1.65Y-7.175
X1.65Y-7.275
X1.65Y-7.35
X1.65Y-7.525
X1.65Y-7.875
X1.65Y-7.975
X1.65Y-8.05
X1.65Y-8.225
X1.6545Y-6.825
X1.6555Y-4.028
X1.675Y-1.775
X1.675Y-2.55
X1.675Y-3.425
X1.675Y-5.525
X1.7Y-1.4
X1.7Y-1.975
X1.7Y-2.025
X1.7Y-2.35
X1.7Y-2.475
X1.7Y-2.725
X1.7Y-3.4
X1.7Y-4.15
X1.7Y-4.7
X1.7Y-4.875
X1.7Y-5.4
X1.7Y-6.1
X1.7Y-6.275
X1.7Y-6.8
X1.7Y-6.975
X1.7Y-7.5
X1.7Y-7.675
X1.7Y-8.2
X1.7Y-8.375
X1.7236Y-8.5333
X1.725Y-0.85
X1.75Y-1.55
X1.75Y-1.725
X1.75Y-1.9
X1.75Y-2.25
X1.75Y-2.6
X1.75Y-2.95
X1.75Y-3.125
X1.75Y-3.3
X1.75Y-3.475
X1.75Y-3.875
X1.75Y-4.35
X1.75Y-4.525
X1.75Y-4.7
X1.75Y-5.05
X1.75Y-5.225
X1.75Y-5.4
X1.75Y-5.75
X1.75Y-5.925
X1.75Y-6.1
X1.75Y-6.45
X1.75Y-6.625
X1.75Y-6.8
X1.75Y-7.15
X1.75Y-7.325
X1.75Y-7.5
X1.75Y-7.85
X1.75Y-8.025
X1.75Y-8.2
X1.75Y-8.45
X1.7583Y-0.7833
X1.7638Y-4.0
X1.775Y-0.975
X1.775Y-2.075
X1.775Y-2.475
X1.775Y-2.65
X1.775Y-3.025
X1.775Y-3.15
X1.775Y-3.225
X1.775Y-3.725
X1.775Y-3.8975
X1.775Y-6.5
X1.7758Y-3.6087
X1.7884Y-4.0645
X1.7992Y-1.975
X1.7992Y-4.425
X1.8Y-1.625
X1.8Y-1.775
X1.8Y-3.075
X1.8Y-8.425
X1.8193Y-3.6791
X1.8248Y-7.5232
X1.825Y-0.875
X1.825Y-1.05
X1.825Y-1.225
X1.825Y-1.4
X1.825Y-1.575
X1.825Y-1.75
X1.825Y-1.925
X1.825Y-2.2
X1.825Y-2.275
X1.825Y-2.625
X1.825Y-2.8
X1.825Y-2.975
X1.825Y-3.325
X1.825Y-3.775
X1.825Y-3.85
X1.825Y-4.2
X1.825Y-4.375
X1.825Y-4.475
X1.825Y-4.725
X1.825Y-5.075
X1.825Y-5.175
X1.825Y-5.425
X1.825Y-5.775
X1.825Y-5.875
X1.825Y-6.125
X1.825Y-6.475
X1.825Y-6.575
X1.825Y-6.825
X1.825Y-7.175
X1.825Y-7.275
X1.825Y-7.875
X1.825Y-7.975
X1.825Y-8.225
X1.8287Y-4.0263
X1.8488Y-1.2488
X1.8488Y-1.9488
X1.85Y-2.725
X1.85Y-3.425
X1.85Y-3.875
X1.85Y-4.825
X1.85Y-6.225
X1.85Y-6.925
X1.85Y-7.625
X1.85Y-8.325
X1.865Y-3.95
X1.8661Y-5.4846
X1.8661Y-6.1846
X1.8661Y-8.2846
X1.8671Y-4.7764
X1.8671Y-6.8764
X1.8747Y-2.0753
X1.8747Y-3.4753
X1.875Y-1.15
X1.875Y-1.325
X1.875Y-2.425
X1.875Y-2.475
X1.875Y-3.125
X1.875Y-3.35
X1.875Y-4.125
X1.875Y-4.525
X1.875Y-5.225
X1.875Y-5.525
X1.875Y-5.575
X1.875Y-5.925
X1.875Y-6.625
X1.875Y-7.325
X1.875Y-8.025
X1.89Y-3.725
X1.9Y-7.55
X1.9Y-9.5
X1.9Y-9.875
X1.9Y-10.25
X1.9045Y-2.475
X1.9226Y-3.6646
X1.925Y-1.025
X1.925Y-1.55
X1.925Y-1.6
X1.925Y-1.725
X1.925Y-1.9
X1.925Y-2.25
X1.925Y-2.95
X1.925Y-3.175
X1.925Y-3.3
X1.925Y-4.35
X1.925Y-4.425
X1.925Y-4.7
X1.925Y-4.875
X1.925Y-5.05
X1.925Y-5.125
X1.925Y-5.4
X1.925Y-5.75
X1.925Y-5.825
X1.925Y-6.1
X1.925Y-6.275
X1.925Y-6.45
X1.925Y-6.525
X1.925Y-6.8
X1.925Y-6.975
X1.925Y-7.15
X1.925Y-7.225
X1.925Y-7.5
X1.925Y-7.675
X1.925Y-7.85
X1.925Y-7.925
X1.925Y-8.2
X1.925Y-8.375
X1.9333Y-3.8486
X1.9458Y-2.0542
X1.947Y-7.5354
X1.9493Y-3.8954
X1.95Y-1.25
X1.95Y-2.125
X1.95Y-3.025
X1.95Y-3.4
X1.95Y-6.325
X1.95Y-7.025
X1.9508Y-1.675
X1.9742Y-2.75
X1.9742Y-3.75
X1.9742Y-3.8008
X1.9742Y-4.175
X1.9742Y-4.675
X1.9742Y-5.375
X1.9742Y-6.075
X1.9742Y-6.775
X1.9742Y-7.475
X1.9742Y-7.6
X1.9742Y-8.175
X1.975Y-0.8
X1.975Y-1.425
X1.975Y-3.175
X1.975Y-6.4
X1.975Y-8.55
X1.9792Y-2.0208
X2.0Y-0.875
X2.0Y-1.15
X2.0Y-1.4
X2.0Y-1.575
X2.0Y-1.75
X2.0Y-1.925
X2.0Y-2.625
X2.0Y-2.8
X2.0Y-2.975
X2.0Y-3.15
X2.0Y-3.325
X2.0Y-3.5
X2.0Y-3.95
X2.0Y-4.2
X2.0Y-4.375
X2.0Y-4.55
X2.0Y-4.725
X2.0Y-4.9
X2.0Y-5.075
X2.0Y-5.25
X2.0Y-5.425
X2.0Y-5.6
X2.0Y-5.775
X2.0Y-5.95
X2.0Y-6.125
X2.0Y-6.3
X2.0Y-6.475
X2.0Y-6.65
X2.0Y-6.825
X2.0Y-7.0
X2.0Y-7.175
X2.0Y-7.35
X2.0Y-7.7
X2.0Y-7.875
X2.0Y-8.05
X2.0Y-8.225
X2.0Y-8.4
X2.0029Y-3.8663
X2.0037Y-2.275
X2.0079Y-7.5154
X2.015Y-3.675
X2.025Y-1.6
X2.025Y-1.85
X2.025Y-2.1
X2.025Y-2.375
X2.025Y-3.425
X2.0411Y-1.2411
X2.0411Y-4.0339
X2.05Y-1.025
X2.05Y-1.325
X2.05Y-1.4
X2.05Y-2.525
X2.05Y-2.825
X2.05Y-3.7
X2.05Y-3.7705
X2.05Y-3.8
X2.05Y-4.1343
X2.05Y-4.325
X2.05Y-4.825
X2.05Y-5.025
X2.05Y-5.725
X2.05Y-6.225
X2.05Y-6.425
X2.05Y-6.925
X2.05Y-7.125
X2.05Y-7.625
X2.05Y-7.825
X2.05Y-8.325
X2.05Y-8.975
X2.075Y-5.575
X2.0952Y-3.4614
X2.1Y-0.85
X2.1Y-1.55
X2.1Y-1.725
X2.1Y-1.9
X2.1Y-2.075
X2.1Y-2.25
X2.1Y-2.425
X2.1Y-2.475
X2.1Y-2.95
X2.1Y-3.125
X2.1Y-3.3
X2.1Y-4.35
X2.1Y-4.525
X2.1Y-4.7
X2.1Y-5.05
X2.1Y-5.225
X2.1Y-5.4
X2.1Y-5.75
X2.1Y-5.925
X2.1Y-6.1
X2.1Y-6.45
X2.1Y-6.625
X2.1Y-6.8
X2.1Y-7.15
X2.1Y-7.325
X2.1Y-7.5
X2.1Y-7.85
X2.1Y-8.025
X2.1Y-8.2
X2.125Y-0.9
X2.125Y-1.6
X2.125Y-3.575
X2.125Y-7.0
X2.125Y-7.525
X2.1258Y-2.2
X2.1258Y-2.375
X2.1264Y-8.125
X2.1264Y-8.1573
X2.1264Y-3.4014
X2.1492Y-2.75
X2.1492Y-3.05
X2.1492Y-3.65
X2.15Y-1.25
X2.15Y-2.025
X2.15Y-3.5
X2.1542Y-3.5292
X2.175Y-0.875
X2.175Y-1.05
X2.175Y-1.225
X2.175Y-1.325
X2.175Y-1.4
X2.175Y-1.575
X2.175Y-1.75
X2.175Y-1.925
X2.175Y-2.125
X2.175Y-2.275
X2.175Y-2.625
X2.175Y-2.975
X2.175Y-3.075
X2.175Y-3.325
X2.175Y-3.675
X2.175Y-3.7768
X2.175Y-4.125
X2.175Y-4.2
X2.175Y-4.375
X2.175Y-4.725
X2.175Y-4.9
X2.175Y-5.075
X2.175Y-5.425
X2.175Y-5.775
X2.175Y-6.125
X2.175Y-6.325
X2.175Y-6.475
X2.175Y-6.825
X2.175Y-7.175
X2.175Y-7.525
X2.175Y-7.875
X2.175Y-8.225
X2.175Y-8.55
X2.1753Y-3.8663
X2.1844Y-4.0413
X2.1983Y-2.0233
X2.2Y-2.375
X2.2Y-3.425
X2.2Y-3.5
X2.2Y-4.225
X2.2Y-4.575
X2.2Y-5.275
X2.2Y-5.6
X2.2Y-5.975
X2.2Y-6.675
X2.2Y-7.0
X2.2Y-7.375
X2.2Y-8.075
X2.222Y-4.3339
X2.222Y-4.6839
X2.222Y-5.0339
X2.222Y-5.3839
X2.222Y-5.7339
X2.222Y-6.0839
X2.222Y-6.4339
X2.222Y-6.7839
X2.222Y-7.1339
X2.222Y-7.4839
X2.222Y-7.8339
X2.222Y-8.1839
X2.2247Y-5.2253
X2.225Y-0.925
X2.225Y-1.125
X2.225Y-1.325
X2.225Y-1.75
X2.225Y-1.825
X2.225Y-2.425
X2.225Y-2.775
X2.225Y-3.125
X2.225Y-4.525
X2.225Y-4.875
X2.225Y-5.175
X2.225Y-5.925
X2.225Y-6.275
X2.225Y-6.625
X2.225Y-6.975
X2.225Y-7.325
X2.225Y-7.675
X2.225Y-8.025
X2.225Y-8.375
X2.2298Y-3.7367
X2.24Y-2.075
X2.275Y-0.85
X2.275Y-1.025
X2.275Y-1.725
X2.275Y-1.9
X2.275Y-2.25
X2.275Y-2.6
X2.275Y-2.95
X2.275Y-3.3
X2.275Y-3.375
X2.275Y-3.4594
X2.275Y-3.875
X2.275Y-4.35
X2.275Y-4.7
X2.275Y-5.05
X2.275Y-5.4
X2.275Y-5.75
X2.275Y-6.1
X2.275Y-6.45
X2.275Y-6.8
X2.275Y-7.15
X2.275Y-7.5
X2.275Y-7.85
X2.275Y-8.2
X2.3Y-0.775
X2.3Y-1.75
X2.3Y-2.0
X2.3Y-2.175
X2.3Y-2.7
X2.3Y-3.8
X2.3Y-5.075
X2.3008Y-3.95
X2.3226Y-3.8768
X2.3242Y-2.25
X2.3242Y-5.475
X2.3249Y-4.2251
X2.325Y-3.025
X2.325Y-3.075
X2.325Y-3.6
X2.325Y-9.5
X2.325Y-9.875
X2.325Y-10.25
X2.3458Y-3.6792
X2.3458Y-4.2042
X2.3463Y-3.8591
X2.35Y-0.875
X2.35Y-1.05
X2.35Y-1.15
X2.35Y-1.4
X2.35Y-1.5
X2.35Y-1.75
X2.35Y-1.925
X2.35Y-2.275
X2.35Y-2.475
X2.35Y-2.625
X2.35Y-2.975
X2.35Y-3.15
X2.35Y-3.325
X2.35Y-3.5
X2.35Y-4.0413
X2.35Y-4.375
X2.35Y-4.65
X2.35Y-4.725
X2.35Y-5.075
X2.35Y-5.35
X2.35Y-5.425
X2.35Y-5.525
X2.35Y-5.775
X2.35Y-6.05
X2.35Y-6.125
X2.35Y-6.475
X2.35Y-6.75
X2.35Y-6.825
X2.35Y-7.175
X2.35Y-7.45
X2.35Y-7.525
X2.35Y-7.875
X2.35Y-8.15
X2.35Y-8.225
X2.35Y-9.6
X2.375Y-2.375
X2.375Y-2.725
X2.375Y-4.475
X2.375Y-4.825
X2.375Y-5.175
X2.375Y-5.875
X2.375Y-6.225
X2.375Y-6.575
X2.375Y-6.925
X2.375Y-7.275
X2.375Y-7.625
X2.375Y-7.975
X2.375Y-8.325
X2.375Y-10.05
X2.3911Y-3.3261
X2.397Y-2.85
X2.4Y-0.775
X2.4Y-0.875
X2.4Y-1.325
X2.4Y-2.0
X2.4Y-2.0545
X2.4Y-3.45
X2.4Y-4.125
X2.4Y-8.425
X2.4044Y-3.79
X2.415Y-3.525
X2.415Y-3.725
X2.425Y-8.45
X2.425Y-10.2
X2.44Y-3.65
X2.45Y-1.025
X2.45Y-1.55
X2.45Y-1.725
X2.45Y-1.9
X2.45Y-2.25
X2.45Y-2.425
X2.45Y-2.6
X2.45Y-2.775
X2.45Y-2.95
X2.45Y-3.125
X2.45Y-3.3
X2.45Y-3.475
X2.45Y-4.35
X2.45Y-4.525
X2.45Y-4.7
X2.45Y-4.875
X2.45Y-5.05
X2.45Y-5.225
X2.45Y-5.4
X2.45Y-5.6
X2.45Y-5.75
X2.45Y-5.925
X2.45Y-6.1
X2.45Y-6.275
X2.45Y-6.45
X2.45Y-6.625
X2.45Y-6.8
X2.45Y-6.975
X2.45Y-7.15
X2.45Y-7.325
X2.45Y-7.5
X2.45Y-7.675
X2.45Y-7.85
X2.45Y-8.025
X2.45Y-8.2
X2.45Y-8.375
X2.45Y-8.75
X2.4542Y-2.0792
X2.465Y-4.0
X2.475Y-1.275
X2.475Y-1.775
X2.475Y-3.275
X2.475Y-4.2
X2.475Y-4.9
X2.475Y-5.45
X2.4764Y-3.375
X2.4935Y-3.7754
X2.4952Y-5.2886
X2.4986Y-4.5884
X2.4986Y-5.9886
X2.4986Y-6.6886
X2.4986Y-7.3884
X2.4986Y-8.0884
X2.5Y-1.85
X2.5Y-2.675
X2.5Y-3.575
X2.5032Y-3.6087
X2.5191Y-3.8758
X2.522Y-5.4195
X2.525Y-0.875
X2.525Y-0.975
X2.525Y-1.05
X2.525Y-1.225
X2.525Y-1.4
X2.525Y-1.575
X2.525Y-1.75
X2.525Y-1.925
X2.525Y-2.025
X2.525Y-2.1
X2.525Y-2.2
X2.525Y-2.275
X2.525Y-2.45
X2.525Y-2.625
X2.525Y-2.8
X2.525Y-2.975
X2.525Y-3.325
X2.525Y-3.9585
X2.525Y-4.375
X2.525Y-4.725
X2.525Y-4.9
X2.525Y-5.075
X2.525Y-5.25
X2.525Y-5.6
X2.525Y-5.775
X2.525Y-6.125
X2.525Y-6.3
X2.525Y-6.475
X2.525Y-6.825
X2.525Y-7.0
X2.525Y-7.175
X2.525Y-7.525
X2.525Y-7.7
X2.525Y-7.875
X2.525Y-8.225
X2.5267Y-5.9483
X2.5267Y-6.6483
X2.5268Y-4.5482
X2.5268Y-8.0482
X2.5268Y-7.3482
X2.5292Y-4.1958
X2.5305Y-8.3837
X2.54Y-3.675
X2.55Y-1.675
X2.55Y-1.85
X2.55Y-4.575
X2.55Y-5.275
X2.55Y-5.975
X2.55Y-6.675
X2.55Y-7.375
X2.55Y-8.0795
X2.5695Y-2.028
X2.575Y-1.325
X2.575Y-2.725
X2.575Y-3.125
X2.575Y-3.45
X2.575Y-3.4795
X2.575Y-3.975
X2.575Y-4.125
X2.575Y-4.475
X2.575Y-4.825
X2.575Y-5.175
X2.575Y-5.875
X2.575Y-6.225
X2.575Y-6.575
X2.575Y-6.925
X2.575Y-7.275
X2.575Y-7.625
X2.575Y-7.975
X2.575Y-8.325
X2.575Y-3.7753
X2.5753Y-3.3837
X2.5798Y-1.8114
X2.5808Y-2.3676
X2.625Y-1.55
X2.625Y-1.725
X2.625Y-1.9
X2.625Y-2.25
X2.625Y-2.6
X2.625Y-2.95
X2.625Y-3.3
X2.625Y-4.35
X2.625Y-4.7
X2.625Y-5.05
X2.625Y-5.4
X2.625Y-5.575
X2.625Y-5.75
X2.625Y-6.1
X2.625Y-6.45
X2.625Y-6.8
X2.625Y-7.15
X2.625Y-7.5
X2.625Y-7.85
X2.625Y-8.2
X2.649Y-3.3482
X2.65Y-2.475
X2.65Y-2.825
X2.65Y-3.725
X2.65Y-6.5
X2.65Y-7.525
X2.65Y-8.8
X2.6503Y-3.3187
X2.6519Y-8.7685
X2.6567Y-3.6083
X2.6723Y-2.1769
X2.6742Y-1.65
X2.6742Y-1.825
X2.6742Y-2.1455
X2.6742Y-3.55
X2.6742Y-4.0
X2.6742Y-9.425
X2.675Y-0.85
X2.675Y-2.375
X2.675Y-6.975
X2.675Y-9.725
X2.6751Y-1.6205
X2.6751Y-1.6795
X2.6772Y-7.6772
X2.6952Y-2.2614
X2.6958Y-3.6792
X2.6967Y-1.0514
X2.6973Y-3.8591
X2.6986Y-7.2083
X2.7Y-1.4
X2.7Y-1.5
X2.7Y-1.75
X2.7Y-1.925
X2.7Y-2.125
X2.7Y-2.625
X2.7Y-2.825
X2.7Y-2.975
X2.7Y-3.075
X2.7Y-3.15
X2.7Y-3.325
X2.7Y-3.5
X2.7Y-3.775
X2.7Y-4.025
X2.7Y-4.125
X2.7Y-4.2
X2.7Y-4.525
X2.7Y-4.75
X2.7Y-5.125
X2.7Y-5.35
X2.7Y-5.525
X2.7Y-5.625
X2.7Y-5.925
X2.7Y-6.15
X2.7Y-6.525
X2.7Y-6.75
X2.7Y-6.85
X2.7Y-7.5486
X2.7Y-7.925
X2.7Y-8.25
X2.7Y-8.75
X2.7Y-8.925
X2.7Y-9.025
X2.7Y-9.1
X2.7Y-9.275
X2.7Y-9.35
X2.7Y-9.525
X2.7Y-9.625
X2.7Y-9.7
X2.7Y-9.95
X2.7Y-10.125
X2.7Y-10.3
X2.725Y-1.25
X2.725Y-3.175
X2.725Y-3.35
X2.725Y-4.725
X2.725Y-5.425
X2.725Y-6.125
X2.725Y-6.825
X2.725Y-7.5201
X2.725Y-8.225
X2.725Y-10.05
X2.725Y-10.225
X2.7473Y-3.8591
X2.75Y-0.95
X2.75Y-1.025
X2.75Y-1.325
X2.75Y-2.075
X2.75Y-2.3
X2.75Y-2.425
X2.75Y-2.775
X2.75Y-4.825
X2.75Y-4.8545
X2.75Y-4.9
X2.75Y-5.55
X2.75Y-5.6
X2.75Y-6.225
X2.75Y-6.2545
X2.75Y-6.925
X2.75Y-7.6201
X2.75Y-8.325
X2.75Y-8.3545
X2.75Y-8.775
X2.7503Y-3.3837
X2.775Y-3.675
X2.775Y-7.225
X2.7894Y-5.3894
X2.7945Y-3.4803
X2.7996Y-3.8827
X2.8Y-0.85
X2.8Y-1.55
X2.8Y-1.725
X2.8Y-1.9
X2.8Y-2.25
X2.8Y-2.6
X2.8Y-2.95
X2.8Y-3.125
X2.8Y-3.3
X2.8Y-4.05
X2.8Y-4.425
X2.8Y-4.875
X2.8Y-5.225
X2.8Y-5.925
X2.8Y-6.275
X2.8Y-6.525
X2.8Y-6.975
X2.8Y-7.375
X2.8Y-7.6701
X2.8Y-7.925
X2.8Y-8.375
X2.8Y-8.725
X2.8Y-8.9
X2.8Y-8.975
X2.8Y-9.325
X2.8Y-9.5
X2.8Y-9.55
X2.8Y-9.825
X2.8Y-10.0
X2.8Y-10.175
X2.8157Y-3.4597
X2.8208Y-3.3542
X2.8217Y-3.8591
X2.825Y-0.775
X2.825Y-2.0
X2.825Y-4.575
X2.825Y-4.75
X2.825Y-5.275
X2.825Y-5.975
X2.825Y-6.15
X2.825Y-6.675
X2.825Y-6.85
X2.825Y-7.5451
X2.825Y-8.075
X2.825Y-8.25
X2.8253Y-7.4249
X2.8258Y-5.525
X2.8258Y-8.15
X2.8492Y-1.625
X2.8492Y-1.875
X2.8492Y-1.975
X2.85Y-0.975
X2.85Y-1.4
X2.85Y-2.475
X2.85Y-2.725
X2.85Y-2.85
X2.85Y-3.5
X2.85Y-5.4
X2.85Y-5.6
X2.85Y-6.825
X2.8502Y-3.7159
X2.8708Y-4.0292
X2.8718Y-2.025
X2.8749Y-3.3173
X2.875Y-0.875
X2.875Y-1.05
X2.875Y-1.225
X2.875Y-1.575
X2.875Y-1.675
X2.875Y-1.75
X2.875Y-1.925
X2.875Y-2.275
X2.875Y-2.625
X2.875Y-2.975
X2.875Y-3.15
X2.875Y-3.25
X2.875Y-3.525
X2.875Y-4.375
X2.875Y-4.55
X2.875Y-4.825
X2.875Y-4.9
X2.875Y-5.075
X2.875Y-5.25
X2.875Y-5.775
X2.875Y-5.95
X2.875Y-6.225
X2.875Y-6.475
X2.875Y-6.65
X2.875Y-6.925
X2.875Y-7.1701
X2.875Y-7.35
X2.875Y-7.6201
X2.875Y-7.875
X2.875Y-8.05
X2.875Y-8.325
X2.8764Y-3.6729
X2.8795Y-0.975
X2.8795Y-1.4
X2.89Y-3.95
X2.9Y-2.375
X2.9Y-2.725
X2.9Y-3.775
X2.9Y-5.35
X2.9Y-8.15
X2.9014Y-2.025
X2.9045Y-1.675
X2.925Y-1.325
X2.925Y-1.975
X2.925Y-3.5
X2.925Y-4.425
X2.925Y-4.475
X2.925Y-4.875
X2.925Y-5.125
X2.925Y-5.175
X2.925Y-5.575
X2.925Y-5.825
X2.925Y-5.875
X2.925Y-6.275
X2.925Y-6.525
X2.925Y-6.575
X2.925Y-6.975
X2.925Y-7.2201
X2.925Y-7.2736
X2.925Y-7.425
X2.925Y-7.6701
X2.925Y-7.925
X2.925Y-7.975
X2.925Y-8.375
X2.925Y-10.3
X2.925Y-9.6861
X2.9253Y-9.0861
X2.9398Y-5.6948
X2.9398Y-6.3948
X2.95Y-1.025
X2.95Y-8.925
X2.95Y-9.525
X2.95Y-10.125
X2.9708Y-3.9958
X2.9731Y-2.0685
X2.975Y-0.85
X2.975Y-1.55
X2.975Y-1.725
X2.975Y-1.9
X2.975Y-2.1
X2.975Y-2.25
X2.975Y-2.425
X2.975Y-2.6
X2.975Y-2.775
X2.975Y-3.125
X2.975Y-3.3
X2.975Y-3.65
X2.975Y-4.725
X2.975Y-4.875
X2.975Y-5.425
X2.975Y-5.6
X2.975Y-6.125
X2.975Y-6.275
X2.975Y-6.825
X2.975Y-6.975
X2.975Y-7.5201
X2.975Y-7.6701
X2.975Y-8.225
X2.975Y-8.375
X2.9786Y-3.4702
X2.99Y-4.35
X2.9939Y-8.9311
X2.9939Y-9.5311
X2.9939Y-10.1311
X2.9953Y-3.7018
X3.0Y-4.425
X3.0Y-4.925
X3.0Y-5.125
X3.0Y-5.825
X3.0Y-6.525
X3.0Y-7.2201
X3.0Y-7.575
X3.0Y-7.925
X3.0Y-8.45
X3.0003Y-3.8258
X3.0008Y-1.85
X3.0242Y-5.225
X3.025Y-1.225
X3.025Y-1.675
X3.025Y-3.0
X3.025Y-3.85
X3.025Y-5.35
X3.025Y-7.75
X3.05Y-0.875
X3.05Y-1.05
X3.05Y-1.4
X3.05Y-1.5
X3.05Y-1.75
X3.05Y-2.275
X3.05Y-2.45
X3.05Y-2.625
X3.05Y-2.8
X3.05Y-3.15
X3.05Y-3.25
X3.05Y-3.5
X3.05Y-3.675
X3.05Y-3.875
X3.05Y-4.025
X3.05Y-4.55
X3.05Y-4.725
X3.05Y-5.25
X3.05Y-5.425
X3.05Y-5.625
X3.05Y-5.7
X3.05Y-5.95
X3.05Y-6.125
X3.05Y-6.4
X3.05Y-6.65
X3.05Y-6.825
X3.05Y-7.35
X3.05Y-7.5201
X3.05Y-8.05
X3.05Y-8.225
X3.0502Y-3.3234
X3.0529Y-1.924
X3.055Y-2.0986
X3.0608Y-2.9674
X3.065Y-4.3
X3.075Y-1.25
X3.075Y-1.675
X3.075Y-3.775
X3.075Y-4.225
X3.075Y-5.0
X3.075Y-6.5
X3.0911Y-6.0156
X3.0911Y-7.8911
X3.0945Y-2.728
X3.097Y-2.9337
X3.097Y-3.05
X3.0994Y-9.686
X3.1Y-0.925
X3.1Y-0.975
X3.1Y-1.325
X3.1Y-1.4
X3.1Y-2.375
X3.1Y-2.675
X3.1Y-3.45
X3.1Y-4.475
X3.1Y-4.875
X3.1Y-5.175
X3.1Y-5.55
X3.1Y-5.875
X3.1Y-6.275
X3.1Y-6.575
X3.1Y-6.7
X3.1Y-6.975
X3.1Y-7.2736
X3.1Y-7.4
X3.1Y-7.6701
X3.1Y-7.975
X3.1Y-8.1
X3.1Y-8.375
X3.1Y-10.3
X3.1003Y-9.0861
X3.1055Y-2.0163
X3.1107Y-5.3191
X3.115Y-2.325
X3.115Y-4.575
X3.125Y-3.675
X3.125Y-8.925
X3.125Y-9.525
X3.125Y-10.125
X3.1486Y-3.6509
X3.15Y-1.55
X3.15Y-1.725
X3.15Y-1.9
X3.15Y-1.975
X3.15Y-2.25
X3.15Y-2.6
X3.15Y-2.975
X3.15Y-3.125
X3.15Y-3.3
X3.15Y-3.475
X3.15Y-4.7
X3.15Y-5.4
X3.15Y-6.1
X3.15Y-6.8
X3.15Y-7.4951
X3.15Y-8.2
X3.1638Y-4.0
X3.1681Y-4.0472
X3.1689Y-8.9189
X3.1689Y-9.5189
X3.1689Y-10.1189
X3.175Y-0.9
X3.175Y-1.45
X3.175Y-2.7
X3.175Y-2.8
X3.175Y-2.875
X3.175Y-2.95
X3.175Y-3.525
X3.175Y-7.9
X3.175Y-8.55
X3.1758Y-5.35
X3.1992Y-1.825
X3.1992Y-2.25
X3.1992Y-3.8
X3.2Y-1.3955
X3.2Y-1.425
X3.2Y-2.125
X3.2Y-5.625
X3.2208Y-3.6708
X3.225Y-1.05
X3.225Y-1.225
X3.225Y-1.325
X3.225Y-1.575
X3.225Y-1.675
X3.225Y-1.925
X3.225Y-2.275
X3.225Y-2.475
X3.225Y-2.625
X3.225Y-2.8
X3.225Y-2.975
X3.225Y-3.15
X3.225Y-3.25
X3.225Y-3.35
X3.225Y-3.6
X3.225Y-4.125
X3.225Y-4.375
X3.225Y-4.475
X3.225Y-4.55
X3.225Y-4.725
X3.225Y-5.075
X3.225Y-5.175
X3.225Y-5.25
X3.225Y-5.425
X3.225Y-5.525
X3.225Y-5.775
X3.225Y-5.875
X3.225Y-5.95
X3.225Y-6.125
X3.225Y-6.475
X3.225Y-6.575
X3.225Y-6.65
X3.225Y-6.825
X3.225Y-7.1701
X3.225Y-7.2701
X3.225Y-7.35
X3.225Y-7.5201
X3.225Y-7.875
X3.225Y-7.975
X3.225Y-8.05
X3.225Y-8.225
X3.2271Y-1.7591
X3.2295Y-1.4
X3.2386Y-3.4952
X3.24Y-3.775
X3.2488Y-1.9488
X3.25Y-4.2
X3.25Y-4.65
X3.25Y-4.825
X3.25Y-5.35
X3.25Y-6.05
X3.25Y-6.225
X3.25Y-6.75
X3.25Y-6.925
X3.25Y-7.4451
X3.25Y-7.6201
X3.25Y-8.15
X3.25Y-8.325
X3.2514Y-3.8764
X3.2708Y-2.4292
X3.2746Y-9.686
X3.275Y-0.975
X3.275Y-1.325
X3.275Y-2.075
X3.275Y-2.3
X3.275Y-3.025
X3.275Y-3.7
X3.275Y-10.3
X3.276Y-9.0847
X3.3Y-4.025
X3.3Y-8.925
X3.3Y-9.525
X3.3Y-10.125
X3.315Y-3.35
X3.3167Y-3.6736
X3.325Y-1.55
X3.325Y-1.7413
X3.325Y-1.9
X3.325Y-2.825
X3.325Y-3.875
X3.325Y-4.7
X3.325Y-4.875
X3.325Y-5.225
X3.325Y-5.4
X3.325Y-5.575
X3.325Y-6.1
X3.325Y-6.275
X3.325Y-6.8
X3.325Y-6.975
X3.325Y-7.4951
X3.325Y-7.6701
X3.325Y-8.2
X3.325Y-8.375
X3.3363Y-2.2487
X3.34Y-1.6
X3.3439Y-8.9311
X3.3439Y-9.5311
X3.3439Y-10.1311
X3.35Y-1.925
X3.35Y-3.5
X3.35Y-4.85
X3.35Y-4.925
X3.35Y-5.325
X3.35Y-6.25
X3.35Y-6.95
X3.35Y-7.6451
X3.35Y-8.35
X3.35Y-9.075
X3.35Y-9.675
X3.35Y-10.275
X3.353Y-3.6087
X3.3563Y-3.323
X3.3643Y-3.7236
X3.3726Y-2.5988
X3.3742Y-4.075
X3.3742Y-4.425
X3.375Y-2.1
X3.375Y-2.55
X3.375Y-3.525
X3.375Y-3.775
X3.375Y-3.875
X3.375Y-7.725
X3.375Y-8.425
X3.3958Y-0.8764
X3.3967Y-2.6159
X3.3969Y-3.5921
X3.4Y-1.05
X3.4Y-1.4
X3.4Y-1.5
X3.4Y-1.7591
X3.4Y-1.925
X3.4Y-2.275
X3.4Y-2.8
X3.4Y-3.125
X3.4Y-4.025
X3.4Y-4.0545
X3.4Y-4.375
X3.4Y-4.475
X3.4Y-4.725
X3.4Y-4.9
X3.4Y-5.075
X3.4Y-5.425
X3.4Y-5.6
X3.4Y-5.775
X3.4Y-6.125
X3.4Y-6.3
X3.4Y-6.475
X3.4Y-6.825
X3.4Y-7.0
X3.4Y-7.175
X3.4Y-7.5201
X3.4Y-7.7
X3.4Y-7.875
X3.4Y-8.225
X3.4Y-8.4
X3.415Y-3.25
X3.4238Y-1.5988
X3.425Y-2.125
X3.425Y-2.45
X3.4253Y-3.6001
X3.4285Y-3.6951
X3.4363Y-5.7863
X3.4411Y-4.7764
X3.4411Y-5.0815
X3.4411Y-5.4846
X3.4411Y-6.1846
X3.4411Y-6.4815
X3.4411Y-7.1766
X3.4411Y-7.5797
X3.4411Y-7.8815
X3.4411Y-8.2846
X3.4421Y-6.8764
X3.4445Y-2.728
X3.45Y-1.0
X3.45Y-1.325
X3.45Y-2.0087
X3.45Y-2.1
X3.45Y-2.575
X3.45Y-2.9
X3.45Y-3.475
X3.45Y-4.125
X3.45Y-4.1545
X3.45Y-4.525
X3.45Y-4.825
X3.45Y-5.225
X3.45Y-5.925
X3.45Y-6.225
X3.45Y-6.625
X3.45Y-6.925
X3.45Y-7.3201
X3.45Y-7.6201
X3.45Y-8.025
X3.45Y-8.325
X3.4505Y-3.7705
X3.4511Y-3.9038
X3.4566Y-3.8477
X3.475Y-0.875
X3.488Y-3.8722
X3.5Y-0.85
X3.5Y-1.025
X3.5Y-1.55
X3.5Y-1.7413
X3.5Y-1.9
X3.5Y-2.075
X3.5Y-2.25
X3.5Y-2.425
X3.5Y-2.775
X3.5Y-3.125
X3.5Y-4.175
X3.5Y-4.35
X3.5Y-4.575
X3.5Y-4.7
X3.5Y-5.05
X3.5Y-5.275
X3.5Y-5.4
X3.5Y-5.5
X3.5Y-5.75
X3.5Y-5.975
X3.5Y-6.1
X3.5Y-6.45
X3.5Y-6.675
X3.5Y-6.8
X3.5Y-7.1451
X3.5Y-7.3701
X3.5Y-7.4951
X3.5Y-7.85
X3.5Y-8.075
X3.5Y-8.2
X3.513Y-3.6452
X3.515Y-4.0
X3.5195Y-3.5413
X3.5244Y-9.086
X3.5244Y-9.686
X3.525Y-1.6
X3.525Y-2.175
X3.525Y-4.05
X3.525Y-4.45
X3.525Y-4.675
X3.525Y-5.475
X3.525Y-7.725
X3.525Y-10.3
X3.5264Y-6.8764
X3.5297Y-7.5797
X3.5346Y-6.1846
X3.5492Y-2.075
X3.55Y-1.5
X3.55Y-1.6455
X3.55Y-1.675
X3.55Y-2.125
X3.55Y-2.3
X3.55Y-2.775
X3.55Y-8.925
X3.55Y-9.525
X3.55Y-10.125
X3.5525Y-3.6986
X3.575Y-0.875
X3.575Y-1.05
X3.575Y-1.225
X3.575Y-1.575
X3.575Y-1.85
X3.575Y-1.925
X3.575Y-2.275
X3.575Y-2.55
X3.575Y-2.825
X3.575Y-2.975
X3.575Y-3.425
X3.575Y-4.125
X3.575Y-4.375
X3.575Y-4.475
X3.575Y-4.55
X3.575Y-4.725
X3.575Y-5.075
X3.575Y-5.175
X3.575Y-5.25
X3.575Y-5.425
X3.575Y-5.525
X3.575Y-5.775
X3.575Y-5.875
X3.575Y-6.125
X3.575Y-6.475
X3.575Y-6.575
X3.575Y-6.65
X3.575Y-6.825
X3.575Y-7.175
X3.575Y-7.2701
X3.575Y-7.35
X3.575Y-7.5201
X3.575Y-7.875
X3.575Y-7.975
X3.575Y-8.05
X3.575Y-8.225
X3.576Y-5.9499
X3.5783Y-2.6203
X3.5879Y-3.7703
X3.59Y-3.25
X3.5939Y-8.9311
X3.5939Y-9.5311
X3.5939Y-10.1311
X3.6Y-0.975
X3.6Y-1.325
X3.6Y-3.15
X3.603Y-3.8663
X3.6219Y-3.4804
X3.625Y-1.725
X3.625Y-2.075
X3.625Y-2.3258
X3.625Y-2.4
X3.625Y-4.0
X3.625Y-4.1
X3.625Y-4.175
X3.625Y-4.7
X3.625Y-4.875
X3.625Y-5.4
X3.625Y-6.1
X3.625Y-6.275
X3.625Y-6.8
X3.625Y-6.975
X3.625Y-7.4951
X3.625Y-7.6701
X3.625Y-8.2
X3.625Y-8.375
X3.6469Y-3.6489
X3.672Y-4.3445
X3.6746Y-3.4913
X3.6747Y-3.6587
X3.675Y-0.85
X3.675Y-1.025
X3.675Y-1.2
X3.675Y-1.55
X3.675Y-1.9
X3.675Y-2.6
X3.675Y-2.975
X3.675Y-3.3
X3.675Y-3.575
X3.675Y-3.725
X3.675Y-4.0
X3.675Y-4.075
X3.675Y-4.175
X3.675Y-4.525
X3.675Y-4.7
X3.675Y-5.05
X3.675Y-5.225
X3.675Y-5.4
X3.675Y-5.75
X3.675Y-5.925
X3.675Y-6.1
X3.675Y-6.45
X3.675Y-6.625
X3.675Y-6.8
X3.675Y-7.1451
X3.675Y-7.3201
X3.675Y-7.4951
X3.675Y-7.85
X3.675Y-8.025
X3.675Y-8.2
X3.6791Y-3.8955
X3.6792Y-3.8483
X3.7Y-1.625
X3.7Y-2.325
X3.7Y-4.75
X3.7Y-5.275
X3.7Y-6.685
X3.7119Y-9.086
X3.7125Y-10.3
X3.7128Y-9.6861
X3.715Y-2.2
X3.7242Y-1.875
X3.7242Y-2.75
X3.7242Y-3.55
X3.7246Y-3.4913
X3.725Y-0.975
X3.725Y-2.45
X3.725Y-3.425
X3.725Y-6.15
X3.7375Y-8.925
X3.7375Y-9.525
X3.7375Y-10.125
X3.7486Y-5.7703
X3.75Y-0.8746
X3.75Y-1.05
X3.75Y-1.2236
X3.75Y-1.2532
X3.75Y-1.4
X3.75Y-1.575
X3.75Y-1.775
X3.75Y-1.925
X3.75Y-2.1
X3.75Y-2.275
X3.75Y-2.625
X3.75Y-2.8
X3.75Y-2.9
X3.75Y-2.9622
X3.75Y-3.15
X3.75Y-3.325
X3.75Y-3.7
X3.75Y-3.95
X3.75Y-4.05
X3.75Y-4.375
X3.75Y-4.475
X3.75Y-4.725
X3.75Y-5.075
X3.75Y-5.175
X3.75Y-5.425
X3.75Y-5.525
X3.75Y-5.875
X3.75Y-6.125
X3.75Y-6.475
X3.75Y-6.575
X3.75Y-6.825
X3.75Y-7.175
X3.75Y-7.2701
X3.75Y-7.5201
X3.75Y-7.875
X3.75Y-7.975
X3.75Y-8.225
X3.7526Y-3.5009
X3.7675Y-2.375
X3.7702Y-4.8361
X3.775Y-3.425
X3.775Y-3.675
X3.775Y-4.025
X3.775Y-6.225
X3.775Y-6.925
X3.775Y-7.6201
X3.775Y-8.325
X3.7814Y-8.9189
X3.7814Y-10.1189
X3.7875Y-9.525
X3.7911Y-2.6411
X3.7911Y-5.4846
X3.7911Y-6.1846
X3.7911Y-7.5797
X3.7911Y-8.2846
X3.7921Y-4.7913
X3.7921Y-6.8764
X3.8Y-0.975
X3.8Y-1.725
X3.8Y-3.775
X3.8Y-3.8045
X3.8Y-4.125
X3.8Y-4.1545
X3.8Y-4.525
X3.8Y-5.225
X3.8Y-5.925
X3.8Y-6.625
X3.8Y-7.3201
X3.8Y-8.025
X3.8Y-9.975
X3.8458Y-1.9042
X3.847Y-4.1758
X3.85Y-1.2
X3.85Y-1.375
X3.85Y-1.55
X3.85Y-1.725
X3.85Y-2.075
X3.85Y-2.425
X3.85Y-2.6
X3.85Y-2.775
X3.85Y-2.975
X3.85Y-3.125
X3.85Y-3.3
X3.85Y-3.375
X3.85Y-3.475
X3.85Y-3.825
X3.85Y-4.35
X3.85Y-4.425
X3.85Y-4.7
X3.85Y-4.875
X3.85Y-5.05
X3.85Y-5.125
X3.85Y-5.4
X3.85Y-5.575
X3.85Y-5.75
X3.85Y-5.825
X3.85Y-6.1
X3.85Y-6.275
X3.85Y-6.45
X3.85Y-6.525
X3.85Y-6.8
X3.85Y-6.975
X3.85Y-7.1451
X3.85Y-7.2236
X3.85Y-7.4951
X3.85Y-7.6701
X3.85Y-7.85
X3.85Y-7.925
X3.85Y-8.2
X3.85Y-8.375
X3.8514Y-1.4208
X3.865Y-2.25
X3.875Y-0.775
X3.875Y-3.525
X3.875Y-3.7004
X3.875Y-3.75
X3.875Y-4.05
X3.875Y-4.975
X3.875Y-7.9
X3.8758Y-7.8
X3.8992Y-2.5
X3.8992Y-3.8
X3.8992Y-4.275
X3.8992Y-4.675
X3.8992Y-5.375
X3.8992Y-6.075
X3.8992Y-6.775
X3.8992Y-7.4701
X3.8992Y-8.175
X3.8994Y-9.086
X3.8994Y-9.686
X3.9Y-1.6
X3.9Y-1.85
X3.9Y-3.6
X3.9Y-4.725
X3.9Y-5.1
X3.9Y-5.775
X3.9Y-6.5
X3.9Y-7.2
X3.9Y-10.3
X3.9042Y-2.4542
X3.9217Y-2.6159
X3.925Y-0.8
X3.925Y-1.05
X3.925Y-1.225
X3.925Y-1.575
X3.925Y-1.925
X3.925Y-2.1
X3.925Y-2.275
X3.925Y-2.975
X3.925Y-3.325
X3.925Y-3.775
X3.925Y-4.125
X3.925Y-4.375
X3.925Y-4.55
X3.925Y-4.9
X3.925Y-5.075
X3.925Y-5.25
X3.925Y-5.425
X3.925Y-5.6
X3.925Y-5.95
X3.925Y-6.125
X3.925Y-6.3
X3.925Y-6.475
X3.925Y-6.65
X3.925Y-6.825
X3.925Y-7.0
X3.925Y-7.175
X3.925Y-7.35
X3.925Y-7.5201
X3.925Y-7.7
X3.925Y-7.875
X3.925Y-8.05
X3.925Y-8.225
X3.925Y-8.4
X3.925Y-8.925
X3.925Y-9.525
X3.925Y-10.125
X3.9295Y-4.725
X3.9295Y-5.775
X3.95Y-1.95
X3.95Y-2.475
X3.9666Y-1.5084
X3.9689Y-8.9311
X3.9689Y-9.5311
X3.9689Y-10.1311
X3.9702Y-3.8114
X3.975Y-0.975
X3.975Y-1.375
X3.975Y-1.625
X3.975Y-1.725
X3.975Y-2.4
X3.975Y-2.7
X3.975Y-2.775
X3.975Y-3.0
X3.975Y-3.125
X3.975Y-3.35
X3.975Y-3.475
X3.975Y-3.525
X3.975Y-4.0
X3.975Y-4.175
X3.975Y-4.325
X3.975Y-4.825
X3.975Y-5.025
X3.975Y-5.725
X3.975Y-6.225
X3.975Y-6.425
X3.975Y-6.925
X3.975Y-7.1201
X3.975Y-7.6201
X3.975Y-7.825
X3.975Y-8.325
X3.975Y-8.875
X3.975Y-9.475
X3.975Y-10.075
X3.9822Y-3.6943
X4.0Y-3.85
X4.012Y-3.6594
X4.0248Y-6.8016
X4.025Y-1.2
X4.025Y-1.55
X4.025Y-2.325
X4.025Y-2.45
X4.025Y-2.6
X4.025Y-2.95
X4.025Y-3.3
X4.025Y-4.025
X4.025Y-4.175
X4.025Y-4.35
X4.025Y-4.525
X4.025Y-4.7
X4.025Y-5.05
X4.025Y-5.225
X4.025Y-5.4
X4.025Y-5.4913
X4.025Y-5.75
X4.025Y-5.925
X4.025Y-6.1
X4.025Y-6.45
X4.025Y-6.625
X4.025Y-7.1451
X4.025Y-7.3201
X4.025Y-7.4951
X4.025Y-7.85
X4.025Y-8.025
X4.025Y-8.2
X4.04Y-2.25
X4.0448Y-3.7909
X4.05Y-2.475
X4.05Y-2.85
X4.05Y-3.525
X4.05Y-3.7437
X4.0517Y-3.6682
X4.0573Y-8.1573
X4.0704Y-2.6848
X4.0742Y-8.125
X4.075Y-0.775
X4.075Y-0.975
X4.075Y-3.6
X4.091Y-3.8744
X4.1Y-0.875
X4.1Y-1.05
X4.1Y-1.225
X4.1Y-1.575
X4.1Y-1.925
X4.1Y-2.1
X4.1Y-2.275
X4.1Y-2.8
X4.1Y-2.975
X4.1Y-3.15
X4.1Y-3.325
X4.1Y-3.5
X4.1Y-4.05
X4.1Y-4.3
X4.1Y-4.375
X4.1Y-4.725
X4.1Y-4.9
X4.1Y-5.075
X4.1Y-5.425
X4.1Y-5.775
X4.1Y-6.125
X4.1Y-6.475
X4.1Y-6.825
X4.1Y-7.1701
X4.1Y-7.5201
X4.1Y-7.875
X4.1Y-8.225
X4.103Y-3.6945
X4.1053Y-3.957
X4.1161Y-1.3264
X4.125Y-1.675
X4.125Y-2.375
X4.125Y-2.55
X4.125Y-3.35
X4.125Y-4.025
X4.125Y-4.575
X4.125Y-5.275
X4.125Y-5.975
X4.125Y-6.325
X4.125Y-6.675
X4.125Y-7.3701
X4.125Y-8.075
X4.1251Y-3.6749
X4.147Y-4.6839
X4.147Y-5.0339
X4.147Y-5.3839
X4.147Y-5.7339
X4.147Y-6.0839
X4.147Y-6.4339
X4.147Y-7.1289
X4.147Y-7.4789
X4.147Y-7.8413
X4.147Y-8.1839
X4.147Y-6.8018
X4.1482Y-4.3413
X4.1494Y-9.086
X4.1494Y-9.686
X4.15Y-1.65
X4.15Y-2.0
X4.15Y-3.05
X4.15Y-3.7718
X4.15Y-3.8014
X4.15Y-4.125
X4.15Y-4.1545
X4.15Y-4.525
X4.15Y-4.875
X4.15Y-5.225
X4.15Y-5.575
X4.15Y-5.925
X4.15Y-6.275
X4.15Y-6.625
X4.15Y-6.975
X4.15Y-7.3201
X4.15Y-7.6701
X4.15Y-8.025
X4.15Y-8.375
X4.15Y-10.3
X4.175Y-3.35
X4.175Y-8.925
X4.175Y-9.525
X4.175Y-10.125
X4.1811Y-1.7556
X4.2Y-0.85
X4.2Y-1.025
X4.2Y-1.2
X4.2Y-1.375
X4.2Y-1.55
X4.2Y-2.425
X4.2Y-2.6
X4.2Y-2.775
X4.2Y-2.95
X4.2Y-3.125
X4.2Y-3.3
X4.2Y-3.475
X4.2Y-3.8205
X4.2Y-3.85
X4.2Y-4.175
X4.2Y-4.35
X4.2Y-4.7
X4.2Y-5.05
X4.2Y-5.4
X4.2Y-5.75
X4.2Y-6.1
X4.2Y-6.45
X4.2Y-6.8
X4.2Y-7.1451
X4.2Y-7.4951
X4.2Y-7.85
X4.2Y-8.2
X4.2014Y-1.7341
X4.215Y-2.25
X4.2189Y-8.9311
X4.2189Y-9.5311
X4.2189Y-10.1311
X4.225Y-1.225
X4.225Y-1.775
X4.225Y-2.0
X4.225Y-3.5
X4.225Y-4.05
X4.2463Y-7.7067
X4.2492Y-3.9
X4.25Y-1.25
X4.25Y-1.85
X4.25Y-2.55
X4.25Y-2.9
X4.25Y-3.05
X4.25Y-3.35
X4.25Y-4.2
X4.25Y-5.0
X4.25Y-5.45
X4.25Y-6.325
X4.257Y-3.4486
X4.2668Y-2.7498
X4.275Y-0.875
X4.275Y-0.975
X4.275Y-1.05
X4.275Y-1.225
X4.275Y-1.4
X4.275Y-1.575
X4.275Y-1.75
X4.275Y-1.925
X4.275Y-2.275
X4.275Y-2.675
X4.275Y-3.775
X4.275Y-3.95
X4.275Y-4.125
X4.275Y-4.375
X4.275Y-4.65
X4.275Y-4.725
X4.275Y-5.075
X4.275Y-5.35
X4.275Y-5.425
X4.275Y-5.775
X4.275Y-6.05
X4.275Y-6.125
X4.275Y-6.475
X4.275Y-6.75
X4.275Y-6.825
X4.275Y-7.175
X4.275Y-7.4451
X4.275Y-7.5201
X4.275Y-7.875
X4.275Y-8.15
X4.275Y-8.225
X4.3Y-1.775
X4.3Y-3.3
X4.3Y-3.6
X4.3Y-4.475
X4.3Y-4.825
X4.3Y-5.175
X4.3Y-5.525
X4.3Y-5.875
X4.3Y-6.225
X4.3Y-6.575
X4.3Y-6.925
X4.3Y-7.2701
X4.3Y-7.6201
X4.3Y-7.975
X4.3Y-8.325
X4.3236Y-4.4986
X4.3236Y-2.7994
X4.3246Y-9.086
X4.325Y-1.675
X4.325Y-2.075
X4.325Y-2.4
X4.325Y-4.175
X4.325Y-6.5
X4.325Y-7.65
X4.325Y-10.3
X4.3253Y-9.6861
X4.3277Y-3.8341
X4.3398Y-3.7312
X4.3398Y-1.3688
X4.35Y-3.175
X4.35Y-8.925
X4.35Y-9.525
X4.35Y-10.125
X4.3738Y-3.6825
X4.375Y-1.025
X4.375Y-1.2
X4.375Y-1.55
X4.375Y-1.9
X4.375Y-2.325
X4.375Y-2.65
X4.375Y-2.95
X4.375Y-3.825
X4.375Y-4.025
X4.375Y-4.35
X4.375Y-4.525
X4.375Y-4.7
X4.375Y-4.875
X4.375Y-5.05
X4.375Y-5.225
X4.375Y-5.4
X4.375Y-5.575
X4.375Y-5.75
X4.375Y-5.925
X4.375Y-6.1
X4.375Y-6.275
X4.375Y-6.45
X4.375Y-6.625
X4.375Y-6.8
X4.375Y-6.975
X4.375Y-7.1451
X4.375Y-7.3201
X4.375Y-7.4951
X4.375Y-7.85
X4.375Y-8.025
X4.375Y-8.2
X4.375Y-8.375
X4.375Y-8.75
X4.375Y-9.35
X4.3764Y-4.1703
X4.3861Y-2.2492
X4.3927Y-8.9225
X4.3939Y-9.5189
X4.3939Y-10.1189
X4.4Y-0.8
X4.4Y-0.875
X4.4Y-3.275
X4.4Y-3.4
X4.4Y-3.5
X4.4Y-3.7
X4.4Y-4.0
X4.4Y-4.05
X4.4Y-4.1
X4.4Y-4.425
X4.4Y-6.525
X4.4Y-7.725
X4.4Y-9.9
X4.4063Y-2.7738
X4.4202Y-8.0886
X4.4236Y-4.5886
X4.4236Y-5.2884
X4.4236Y-5.9884
X4.4236Y-6.6884
X4.4236Y-7.3875
X4.4242Y-2.35
X4.4242Y-6.725
X4.425Y-2.3
X4.425Y-4.65
X4.425Y-4.9
X4.425Y-5.35
X4.425Y-5.625
X4.425Y-7.2
X4.4479Y-3.7016
X4.4486Y-3.3333
X4.4486Y-4.0219
X4.45Y-0.875
X4.45Y-0.975
X4.45Y-1.05
X4.45Y-1.225
X4.45Y-1.325
X4.45Y-1.4
X4.45Y-1.575
X4.45Y-1.75
X4.45Y-1.925
X4.45Y-2.1
X4.45Y-2.275
X4.45Y-2.55
X4.45Y-2.6175
X4.45Y-2.975
X4.45Y-3.075
X4.45Y-4.225
X4.45Y-4.375
X4.45Y-4.725
X4.45Y-5.075
X4.45Y-5.425
X4.45Y-5.6
X4.45Y-5.775
X4.45Y-6.125
X4.45Y-6.3
X4.45Y-6.475
X4.45Y-6.825
X4.45Y-7.0
X4.45Y-7.1701
X4.45Y-7.5201
X4.45Y-7.7
X4.45Y-7.875
X4.45Y-8.05
X4.45Y-8.225
X4.45Y-8.4
X4.4517Y-4.5483
X4.4518Y-5.2482
X4.4518Y-6.6482
X4.4518Y-5.9482
X4.4523Y-7.3479
X4.4545Y-4.9
X4.465Y-3.3087
X4.4717Y-3.6841
X4.4725Y-2.8055
X4.475Y-1.85
X4.475Y-2.375
X4.475Y-3.95
X4.475Y-4.575
X4.475Y-5.275
X4.475Y-5.975
X4.475Y-6.6795
X4.475Y-7.3701
X4.475Y-8.075
X4.4994Y-9.086
X4.4996Y-9.686
X4.5Y-0.8
X4.5Y-0.975
X4.5Y-1.175
X4.5Y-1.525
X4.5Y-2.35
X4.5Y-2.775
X4.5Y-3.125
X4.5Y-3.475
X4.5Y-3.775
X4.5Y-3.8045
X4.5Y-4.125
X4.5Y-4.475
X4.5Y-4.825
X4.5Y-5.175
X4.5Y-5.875
X4.5Y-6.225
X4.5Y-6.575
X4.5Y-6.925
X4.5Y-7.2701
X4.5Y-7.6201
X4.5Y-7.975
X4.5Y-8.325
X4.5Y-10.3
X4.525Y-8.925
X4.525Y-9.525
X4.525Y-10.125
X4.54Y-5.25
X4.5435Y-6.0881
X4.5498Y-3.8234
X4.55Y-1.375
X4.55Y-1.9
X4.55Y-2.075
X4.55Y-2.425
X4.55Y-2.6
X4.55Y-2.95
X4.55Y-3.3
X4.55Y-4.2
X4.55Y-4.35
X4.55Y-4.7
X4.55Y-5.05
X4.55Y-5.4
X4.55Y-5.75
X4.55Y-6.45
X4.55Y-6.8
X4.55Y-7.1451
X4.55Y-7.4951
X4.55Y-7.7
X4.55Y-7.85
X4.55Y-8.2
X4.55Y-8.4
X4.55Y-8.75
X4.55Y-9.35
X4.5587Y-4.9337
X4.5638Y-5.575
X4.5689Y-8.9311
X4.5689Y-9.5311
X4.5689Y-10.1311
X4.5708Y-4.0264
X4.575Y-1.9705
X4.575Y-2.275
X4.575Y-2.35
X4.575Y-5.25
X4.575Y-5.475
X4.575Y-6.125
X4.575Y-9.9
X4.5752Y-3.6837
X4.5758Y-1.5
X4.5758Y-3.5833
X4.5758Y-4.3
X4.5762Y-3.9264
X4.5835Y-2.2018
X4.5992Y-2.05
X4.5992Y-2.25
X4.5992Y-3.75
X4.5992Y-6.9
X4.6Y-2.625
X4.6Y-2.825
X4.6042Y-3.8708
X4.6057Y-4.9192
X4.6247Y-1.3253
X4.6248Y-3.5018
X4.625Y-0.8
X4.625Y-1.05
X4.625Y-1.225
X4.625Y-1.4
X4.625Y-1.575
X4.625Y-1.925
X4.625Y-2.275
X4.625Y-2.8
X4.625Y-2.975
X4.625Y-3.1455
X4.625Y-3.175
X4.625Y-3.25
X4.625Y-3.325
X4.625Y-3.775
X4.625Y-4.125
X4.625Y-4.2
X4.625Y-4.375
X4.625Y-4.475
X4.625Y-4.55
X4.625Y-4.75
X4.625Y-5.075
X4.625Y-5.25
X4.625Y-5.45
X4.625Y-6.15
X4.625Y-6.475
X4.625Y-6.65
X4.625Y-6.75
X4.625Y-6.85
X4.625Y-7.175
X4.625Y-7.35
X4.625Y-7.55
X4.625Y-7.725
X4.625Y-8.025
X4.625Y-8.25
X4.625Y-8.725
X4.625Y-8.9
X4.625Y-9.0
X4.625Y-9.075
X4.625Y-9.325
X4.625Y-9.425
X4.625Y-9.5
X4.625Y-9.675
X4.625Y-9.85
X4.625Y-9.925
X4.625Y-10.025
X4.625Y-10.1
X4.625Y-10.275
X4.6266Y-4.8984
X4.6311Y-5.8273
X4.65Y-3.875
X4.65Y-4.725
X4.65Y-5.425
X4.65Y-5.525
X4.65Y-5.975
X4.65Y-6.125
X4.65Y-6.825
X4.65Y-7.525
X4.65Y-8.225
X4.65Y-9.6
X4.6661Y-5.2565
X4.6747Y-1.3753
X4.675Y-0.975
X4.675Y-1.775
X4.675Y-2.0
X4.675Y-2.075
X4.675Y-2.3
X4.675Y-2.4
X4.675Y-2.65
X4.675Y-3.3409
X4.675Y-3.825
X4.675Y-3.95
X4.675Y-4.825
X4.675Y-4.8545
X4.675Y-5.125
X4.675Y-6.225
X4.675Y-6.2545
X4.675Y-6.55
X4.675Y-6.925
X4.675Y-6.9545
X4.675Y-7.625
X4.675Y-7.6545
X4.675Y-7.925
X4.675Y-8.325
X4.675Y-8.3545
X4.675Y-8.425
X4.675Y-8.775
X4.675Y-10.2
X4.7Y-1.4
X4.7Y-3.15
X4.7166Y-3.6749
X4.7217Y-3.4841
X4.7231Y-3.7264
X4.725Y-1.2
X4.725Y-1.55
X4.725Y-1.9
X4.725Y-2.325
X4.725Y-2.6
X4.725Y-2.775
X4.725Y-2.95
X4.725Y-3.125
X4.725Y-3.3
X4.725Y-3.825
X4.725Y-4.0
X4.725Y-4.225
X4.725Y-4.525
X4.725Y-4.875
X4.725Y-6.275
X4.725Y-6.475
X4.725Y-6.975
X4.725Y-7.675
X4.725Y-8.025
X4.725Y-8.375
X4.725Y-8.7
X4.725Y-8.875
X4.725Y-9.05
X4.725Y-9.3
X4.725Y-9.475
X4.725Y-9.65
X4.725Y-9.9
X4.725Y-10.075
X4.725Y-10.25
X4.7422Y-5.4277
X4.7458Y-5.9708
X4.7492Y-7.3749
X4.7495Y-5.275
X4.75Y-2.25
X4.75Y-4.575
X4.75Y-4.75
X4.75Y-4.925
X4.75Y-5.825
X4.75Y-6.15
X4.75Y-6.675
X4.75Y-6.85
X4.75Y-7.55
X4.75Y-7.925
X4.75Y-8.075
X4.75Y-8.25
X4.7707Y-3.7627
X4.7742Y-2.175
X4.7742Y-2.525
X4.7742Y-3.825
X4.7742Y-4.175
X4.7742Y-6.0
X4.775Y-1.25
X4.775Y-2.825
X4.775Y-2.95
X4.775Y-3.4986
X4.775Y-3.5282
X4.775Y-4.9
X4.775Y-7.725
X4.775Y-8.125
X4.775Y-8.225
X4.7958Y-4.1958
X4.8Y-0.9
X4.8Y-1.05
X4.8Y-1.225
X4.8Y-1.925
X4.8Y-2.1
X4.8Y-2.275
X4.8Y-2.45
X4.8Y-2.8
X4.8Y-3.3
X4.8Y-3.375
X4.8Y-3.6
X4.8Y-3.95
X4.8Y-4.025
X4.8Y-4.375
X4.8Y-4.55
X4.8Y-4.825
X4.8Y-5.075
X4.8Y-5.175
X4.8Y-5.25
X4.8Y-5.775
X4.8Y-5.95
X4.8Y-6.225
X4.8Y-6.475
X4.8Y-6.65
X4.8Y-6.925
X4.8Y-7.175
X4.8Y-7.35
X4.8Y-7.625
X4.8Y-7.8
X4.8Y-7.875
X4.8Y-8.05
X4.8Y-8.325
X4.8Y-8.425
X4.8Y-9.725
X4.8025Y-2.6175
X4.8037Y-1.575
X4.8053Y-3.8781
X4.8118Y-3.6783
X4.825Y-0.8
X4.825Y-1.325
X4.825Y-1.675
X4.825Y-4.125
X4.825Y-5.45
X4.825Y-9.125
X4.8417Y-1.2264
X4.847Y-6.375
X4.8486Y-8.4542
X4.85Y-1.0
X4.85Y-2.0
X4.85Y-2.725
X4.85Y-3.375
X4.85Y-3.875
X4.85Y-4.425
X4.85Y-4.875
X4.85Y-5.125
X4.85Y-5.175
X4.85Y-5.275
X4.85Y-5.825
X4.85Y-5.875
X4.85Y-6.275
X4.85Y-6.525
X4.85Y-6.575
X4.85Y-6.975
X4.85Y-7.225
X4.85Y-7.275
X4.85Y-7.675
X4.85Y-7.925
X4.85Y-7.975
X4.85Y-8.375
X4.85Y-9.0
X4.85Y-8.4247
X4.8628Y-4.4748
X4.8648Y-4.9948
X4.8648Y-5.6948
X4.8648Y-7.0948
X4.875Y-0.875
X4.875Y-2.5
X4.875Y-2.8
X4.875Y-3.125
X4.875Y-3.675
X4.875Y-9.85
X4.8991Y-3.8261
X4.9Y-1.2
X4.9Y-1.3705
X4.9Y-1.4
X4.9Y-1.55
X4.9Y-1.9
X4.9Y-2.075
X4.9Y-2.125
X4.9Y-2.425
X4.9Y-4.0
X4.9Y-4.175
X4.9Y-4.725
X4.9Y-4.875
X4.9Y-5.425
X4.9Y-5.5
X4.9Y-6.125
X4.9Y-6.275
X4.9Y-6.825
X4.9Y-6.975
X4.9Y-7.525
X4.9Y-7.675
X4.9Y-7.85
X4.9Y-8.225
X4.9Y-8.375
X4.9Y-8.425
X4.9Y-8.775
X4.9014Y-1.7406
X4.9138Y-4.35
X4.925Y-1.025
X4.925Y-1.975
X4.925Y-2.7
X4.925Y-2.875
X4.925Y-3.3
X4.925Y-3.45
X4.925Y-4.2
X4.925Y-4.925
X4.925Y-5.125
X4.925Y-5.825
X4.925Y-6.525
X4.925Y-7.225
X4.925Y-7.925
X4.925Y-9.275
X4.9258Y-5.35
X4.9258Y-3.7846
X4.9305Y-2.8087
X4.9427Y-3.3264
X4.9469Y-3.7394
X4.9491Y-3.5222
X4.9492Y-2.5
X4.95Y-1.25
X4.95Y-3.025
X4.95Y-8.925
X4.95Y-9.175
X4.95Y-10.025
X4.9553Y-3.775
X4.9709Y-5.0049
X4.9719Y-3.6753
X4.9728Y-1.5705
X4.975Y-1.05
X4.975Y-1.15
X4.975Y-1.225
X4.975Y-1.75
X4.975Y-1.925
X4.975Y-2.975
X4.975Y-3.175
X4.975Y-3.85
X4.975Y-3.95
X4.975Y-4.125
X4.975Y-4.1986
X4.975Y-4.55
X4.975Y-4.725
X4.975Y-5.25
X4.975Y-5.7
X4.975Y-5.95
X4.975Y-6.125
X4.975Y-6.65
X4.975Y-6.825
X4.975Y-7.1
X4.975Y-7.35
X4.975Y-7.525
X4.975Y-7.8
X4.975Y-8.05
X4.975Y-8.225
X4.975Y-8.725
X4.975Y-9.1
X4.9775Y-2.6175
X4.978Y-5.425
X4.9789Y-4.0163
X4.99Y-4.375
X4.99Y-6.4
X5.0Y-0.875
X5.0Y-0.975
X5.0Y-1.5
X5.0Y-2.275
X5.0Y-2.375
X5.0Y-5.0
X5.0Y-5.525
X5.0Y-5.625
X5.0Y-7.725
X5.0Y-8.45
X5.015Y-3.6
X5.0161Y-6.4839
X5.0195Y-3.872
X5.0236Y-3.4486
X5.025Y-1.325
X5.025Y-1.375
X5.025Y-1.675
X5.025Y-2.0
X5.025Y-2.075
X5.025Y-2.7
X5.025Y-3.125
X5.025Y-4.475
X5.025Y-4.875
X5.025Y-5.175
X5.025Y-5.875
X5.025Y-6.275
X5.025Y-6.575
X5.025Y-6.975
X5.025Y-7.25
X5.025Y-7.2795
X5.025Y-7.4
X5.025Y-7.675
X5.025Y-7.95
X5.025Y-7.9795
X5.025Y-8.1
X5.025Y-8.375
X5.025Y-9.275
X5.025Y-9.45
X5.025Y-9.675
X5.0357Y-4.2691
X5.0357Y-6.0191
X5.0357Y-6.7191
X5.04Y-4.575
X5.05Y-5.3
X5.075Y-0.9
X5.075Y-1.025
X5.075Y-1.2
X5.075Y-1.55
X5.075Y-1.9
X5.075Y-2.6
X5.075Y-2.8
X5.075Y-2.95
X5.075Y-3.3
X5.075Y-4.2
X5.075Y-4.7
X5.075Y-5.4
X5.075Y-6.1
X5.075Y-6.8
X5.075Y-7.5
X5.075Y-8.2
X5.0958Y-4.0292
X5.1Y-2.125
X5.1Y-3.6
X5.1Y-6.475
X5.1008Y-8.65
X5.1242Y-1.7986
X5.1242Y-2.575
X5.1242Y-5.2
X5.1242Y-5.375
X5.125Y-3.675
X5.125Y-3.825
X5.125Y-4.1705
X5.125Y-4.2
X5.125Y-4.825
X5.125Y-6.15
X5.1251Y-5.3455
X5.1292Y-3.9958
X5.1292Y-4.5708
X5.1486Y-4.4701
X5.1497Y-3.3087
X5.15Y-0.875
X5.15Y-1.05
X5.15Y-1.225
X5.15Y-1.925
X5.15Y-2.275
X5.15Y-2.625
X5.15Y-2.8018
X5.15Y-2.9
X5.15Y-2.975
X5.15Y-3.15
X5.15Y-3.425
X5.15Y-3.5163
X5.15Y-3.6
X5.15Y-3.775
X5.15Y-3.95
X5.15Y-4.05
X5.15Y-4.375
X5.15Y-4.725
X5.15Y-5.075
X5.15Y-5.175
X5.15Y-5.25
X5.15Y-5.425
X5.15Y-5.775
X5.15Y-5.875
X5.15Y-5.95
X5.15Y-6.125
X5.15Y-6.475
X5.15Y-6.575
X5.15Y-6.65
X5.15Y-6.825
X5.15Y-7.175
X5.15Y-7.275
X5.15Y-7.35
X5.15Y-7.525
X5.15Y-7.875
X5.15Y-7.975
X5.15Y-8.05
X5.15Y-8.225
X5.15Y-8.55
X5.15Y-8.725
X5.15Y-9.125
X5.1501Y-4.5499
X5.1512Y-1.5913
X5.175Y-2.025
X5.175Y-2.3
X5.175Y-2.65
X5.175Y-4.65
X5.175Y-4.825
X5.175Y-5.35
X5.175Y-5.525
X5.175Y-6.05
X5.175Y-6.225
X5.175Y-6.75
X5.175Y-6.925
X5.175Y-7.45
X5.175Y-7.625
X5.175Y-8.15
X5.175Y-8.325
X5.2Y-0.825
X5.2Y-0.975
X5.2Y-1.375
X5.2Y-1.725
X5.2Y-2.4
X5.225Y-9.125
X5.25Y-1.2
X5.25Y-1.4
X5.25Y-1.55
X5.25Y-1.9
X5.25Y-2.075
X5.25Y-2.325
X5.25Y-2.6
X5.25Y-2.775
X5.25Y-2.95
X5.25Y-3.125
X5.25Y-3.3
X5.25Y-3.375
X5.25Y-3.7
X5.25Y-3.9
X5.25Y-4.025
X5.25Y-4.7
X5.25Y-4.875
X5.25Y-5.225
X5.25Y-5.4
X5.25Y-5.475
X5.25Y-6.1
X5.25Y-6.275
X5.25Y-6.8
X5.25Y-6.975
X5.25Y-7.5
X5.25Y-7.675
X5.25Y-8.2
X5.25Y-8.375
X5.25Y-8.925
X5.25Y-9.55
X5.275Y-0.8
X5.275Y-0.925
X5.275Y-1.7
X5.275Y-2.275
X5.275Y-3.575
X5.275Y-4.225
X5.275Y-4.85
X5.275Y-5.15
X5.275Y-5.325
X5.275Y-6.25
X5.275Y-6.95
X5.275Y-7.65
X5.275Y-8.35
X5.2992Y-2.175
X5.2992Y-4.625
X5.3Y-0.95
X5.3Y-1.075
X5.3Y-2.95
X5.3Y-3.025
X5.3Y-5.95
X5.3083Y-3.6764
X5.3185Y-4.0231
X5.3236Y-3.3917
X5.325Y-0.8
X5.325Y-1.05
X5.325Y-1.225
X5.325Y-1.575
X5.325Y-1.925
X5.325Y-2.1
X5.325Y-2.2
X5.325Y-2.275
X5.325Y-2.925
X5.325Y-3.15
X5.325Y-3.6
X5.325Y-3.775
X5.325Y-3.85
X5.325Y-3.95
X5.325Y-4.2
X5.325Y-4.375
X5.325Y-4.475
X5.325Y-4.725
X5.325Y-5.275
X5.325Y-5.425
X5.325Y-5.6
X5.325Y-5.775
X5.325Y-6.125
X5.325Y-6.3
X5.325Y-6.475
X5.325Y-6.575
X5.325Y-6.825
X5.325Y-7.0
X5.325Y-7.175
X5.325Y-7.525
X5.325Y-7.7
X5.325Y-7.875
X5.325Y-8.225
X5.325Y-8.45
X5.325Y-8.725
X5.3264Y-2.6333
X5.3287Y-4.8992
X5.3287Y-5.0742
X5.3488Y-7.1988
X5.35Y-1.325
X5.35Y-1.5
X5.35Y-1.675
X5.35Y-2.375
X5.35Y-2.475
X5.35Y-4.025
X5.35Y-5.175
X5.35Y-10.05
X5.3661Y-4.7764
X5.3661Y-5.4846
X5.3661Y-6.1846
X5.3661Y-6.8846
X5.3661Y-7.5846
X5.3661Y-7.8815
X5.3661Y-8.2846
X5.375Y-0.975
X5.375Y-1.3
X5.375Y-2.025
X5.375Y-3.3
X5.375Y-3.5768
X5.375Y-3.625
X5.375Y-4.825
X5.375Y-5.225
X5.375Y-5.9087
X5.375Y-6.225
X5.375Y-6.625
X5.375Y-6.925
X5.375Y-7.325
X5.375Y-7.625
X5.375Y-8.025
X5.375Y-8.3205
X5.375Y-8.35
X5.4Y-2.475
X5.4Y-9.975
X5.425Y-1.2
X5.425Y-1.375
X5.425Y-1.55
X5.425Y-1.725
X5.425Y-1.9
X5.425Y-2.425
X5.425Y-2.4955
X5.425Y-2.525
X5.425Y-3.3
X5.425Y-3.475
X5.425Y-4.35
X5.425Y-4.575
X5.425Y-4.7
X5.425Y-5.05
X5.425Y-5.275
X5.425Y-5.4
X5.425Y-5.575
X5.425Y-5.75
X5.425Y-5.975
X5.425Y-6.1
X5.425Y-6.45
X5.425Y-6.675
X5.425Y-6.8
X5.425Y-7.15
X5.425Y-7.375
X5.425Y-7.5
X5.425Y-7.85
X5.425Y-8.075
X5.425Y-8.2
X5.425Y-9.1
X5.425Y-10.225
X5.45Y-0.825
X5.45Y-0.95
X5.45Y-1.425
X5.45Y-1.975
X5.45Y-2.175
X5.45Y-3.0
X5.45Y-4.05
X5.45Y-4.925
X5.45Y-5.125
X5.4514Y-8.4264
X5.465Y-1.475
X5.4736Y-4.1708
X5.4778Y-3.5291
X5.4784Y-2.485
X5.4841Y-2.8223
X5.4998Y-1.3837
X5.5Y-0.875
X5.5Y-1.05
X5.5Y-1.225
X5.5Y-1.575
X5.5Y-1.75
X5.5Y-1.925
X5.5Y-2.1
X5.5Y-2.275
X5.5Y-2.55
X5.5Y-2.625
X5.5Y-2.975
X5.5Y-3.325
X5.5Y-3.5
X5.5Y-4.375
X5.5Y-4.475
X5.5Y-4.55
X5.5Y-4.725
X5.5Y-5.075
X5.5Y-5.175
X5.5Y-5.25
X5.5Y-5.425
X5.5Y-5.525
X5.5Y-5.775
X5.5Y-5.875
X5.5Y-5.95
X5.5Y-6.125
X5.5Y-6.475
X5.5Y-6.575
X5.5Y-6.65
X5.5Y-6.825
X5.5Y-7.175
X5.5Y-7.275
X5.5Y-7.35
X5.5Y-7.525
X5.5Y-7.875
X5.5Y-7.975
X5.5Y-8.05
X5.5Y-8.225
X5.5Y-8.725
X5.525Y-0.975
X5.525Y-3.15
X5.525Y-3.525
X5.525Y-4.2
X5.525Y-9.125
X5.55Y-1.325
X5.55Y-1.675
X5.55Y-1.825
X5.55Y-1.875
X5.55Y-2.4
X5.55Y-2.775
X5.55Y-3.125
X5.55Y-3.35
X5.55Y-3.4736
X5.55Y-4.7
X5.55Y-4.875
X5.55Y-5.4
X5.55Y-6.1
X5.55Y-6.275
X5.55Y-6.8
X5.55Y-6.975
X5.55Y-7.5
X5.55Y-7.675
X5.55Y-8.2
X5.55Y-8.375
X5.575Y-4.125
X5.59Y-2.475
X5.5945Y-5.922
X5.6Y-0.85
X5.6Y-1.025
X5.6Y-1.2
X5.6Y-1.55
X5.6Y-2.125
X5.6Y-2.325
X5.6Y-2.6
X5.6Y-2.95
X5.6Y-3.3
X5.6Y-4.35
X5.6Y-4.525
X5.6Y-4.7
X5.6Y-5.05
X5.6Y-5.225
X5.6Y-5.4
X5.6Y-5.75
X5.6Y-6.1
X5.6Y-6.45
X5.6Y-6.625
X5.6Y-6.8
X5.6Y-7.15
X5.6Y-7.325
X5.6Y-7.5
X5.6Y-7.85
X5.6Y-8.025
X5.6Y-8.2
X5.6Y-9.45
X5.6Y-9.65
X5.625Y-2.8
X5.625Y-3.625
X5.625Y-4.075
X5.625Y-5.375
X5.625Y-5.8
X5.625Y-10.05
X5.6492Y-1.3
X5.6492Y-5.85
X5.65Y-4.15
X5.65Y-4.75
X5.65Y-4.825
X5.6583Y-1.5917
X5.6658Y-3.4913
X5.675Y-0.875
X5.675Y-1.05
X5.675Y-1.225
X5.675Y-1.325
X5.675Y-1.503
X5.675Y-1.675
X5.675Y-1.925
X5.675Y-2.1
X5.675Y-2.275
X5.675Y-2.625
X5.675Y-2.725
X5.675Y-2.8
X5.675Y-2.9
X5.675Y-2.975
X5.675Y-3.15
X5.675Y-3.325
X5.675Y-3.425
X5.675Y-4.375
X5.675Y-4.475
X5.675Y-4.725
X5.675Y-5.075
X5.675Y-5.175
X5.675Y-5.425
X5.675Y-5.525
X5.675Y-5.775
X5.675Y-5.875
X5.675Y-6.125
X5.675Y-6.475
X5.675Y-6.575
X5.675Y-6.825
X5.675Y-7.175
X5.675Y-7.275
X5.675Y-7.525
X5.675Y-7.875
X5.675Y-7.975
X5.675Y-8.225
X5.675Y-8.725
X5.7Y-1.775
X5.7Y-2.375
X5.7Y-3.725
X5.7Y-3.775
X5.7Y-3.825
X5.7Y-3.875
X5.7Y-3.925
X5.7Y-3.975
X5.7Y-4.025
X5.7Y-4.125
X5.7Y-4.825
X5.7Y-5.975
X5.7Y-6.225
X5.7Y-6.925
X5.7Y-7.625
X5.7Y-8.325
X5.7Y-8.45
X5.7161Y-4.7846
X5.7161Y-5.4846
X5.7161Y-6.1846
X5.7161Y-6.8846
X5.7161Y-7.5846
X5.7161Y-8.2846
X5.725Y-0.975
X5.725Y-1.025
X5.725Y-1.375
X5.725Y-1.825
X5.725Y-2.025
X5.725Y-3.5841
X5.725Y-4.525
X5.725Y-5.225
X5.725Y-5.875
X5.725Y-6.625
X5.725Y-7.325
X5.725Y-8.025
X5.725Y-8.75
X5.7357Y-5.9059
X5.75Y-2.125
X5.75Y-4.0
X5.765Y-4.2656
X5.7708Y-5.8208
X5.775Y-0.85
X5.775Y-1.2
X5.775Y-1.55
X5.775Y-2.425
X5.775Y-2.6
X5.775Y-2.775
X5.775Y-2.95
X5.775Y-3.125
X5.775Y-3.3
X5.775Y-3.4736
X5.775Y-4.1474
X5.775Y-4.35
X5.775Y-4.425
X5.775Y-4.7
X5.775Y-4.875
X5.775Y-5.05
X5.775Y-5.125
X5.775Y-5.4
X5.775Y-5.575
X5.775Y-5.75
X5.775Y-6.1
X5.775Y-6.275
X5.775Y-6.45
X5.775Y-6.525
X5.775Y-6.8
X5.775Y-6.975
X5.775Y-7.15
X5.775Y-7.225
X5.775Y-7.5
X5.775Y-7.675
X5.775Y-7.85
X5.775Y-7.925
X5.775Y-8.2
X5.775Y-8.375
X5.788Y-8.7298
X5.8Y-1.775
X5.8Y-2.45
X5.8Y-3.9
X5.8Y-5.825
X5.8Y-8.4
X5.8042Y-5.8542
X5.8202Y-4.5959
X5.8203Y-6.005
X5.8242Y-1.45
X5.8242Y-4.675
X5.8242Y-4.7508
X5.8242Y-5.3
X5.8242Y-5.375
X5.8242Y-6.075
X5.8242Y-6.55
X5.8242Y-6.775
X5.8242Y-7.475
X5.8242Y-8.175
X5.825Y-1.925
X5.825Y-2.3
X5.825Y-3.175
X5.825Y-3.375
X5.825Y-4.625
X5.825Y-6.125
X5.825Y-6.325
X5.825Y-7.2
X5.825Y-7.9
X5.825Y-8.75
X5.825Y-9.45
X5.825Y-9.65
X5.825Y-10.025
X5.825Y-10.225
X5.8251Y-1.4205
X5.8277Y-4.2341
X5.8486Y-3.1458
X5.85Y-0.875
X5.85Y-0.975
X5.85Y-1.05
X5.85Y-1.15
X5.85Y-1.225
X5.85Y-1.85
X5.85Y-2.1
X5.85Y-2.275
X5.85Y-2.55
X5.85Y-2.625
X5.85Y-2.725
X5.85Y-2.8
X5.85Y-3.425
X5.85Y-3.975
X5.85Y-4.375
X5.85Y-4.55
X5.85Y-4.725
X5.85Y-4.9
X5.85Y-5.075
X5.85Y-5.2455
X5.85Y-5.275
X5.85Y-5.425
X5.85Y-5.6
X5.85Y-5.775
X5.85Y-5.9663
X5.85Y-6.3
X5.85Y-6.475
X5.85Y-6.65
X5.85Y-6.825
X5.85Y-7.0
X5.85Y-7.175
X5.85Y-7.35
X5.85Y-7.525
X5.85Y-7.7
X5.85Y-7.875
X5.85Y-8.05
X5.85Y-8.225
X5.85Y-8.4
X5.85Y-8.65
X5.85Y-8.725
X5.8526Y-1.5707
X5.8545Y-6.125
X5.8645Y-2.9986
X5.875Y-1.325
X5.875Y-2.9
X5.875Y-3.275
X5.875Y-4.15
X5.8779Y-5.976
X5.8851Y-4.0452
X5.9Y-1.675
X5.9Y-1.725
X5.9Y-2.0
X5.9Y-2.0295
X5.9Y-2.4
X5.9Y-2.45
X5.9Y-2.775
X5.9Y-3.075
X5.9Y-3.425
X5.9Y-3.575
X5.9Y-3.975
X5.9Y-4.225
X5.9Y-4.325
X5.9Y-4.825
X5.9Y-5.025
X5.9Y-5.725
X5.9Y-6.225
X5.9Y-6.425
X5.9Y-6.925
X5.9Y-7.125
X5.9Y-7.625
X5.9Y-7.825
X5.9Y-8.325
X5.9042Y-3.1792
X5.9217Y-3.4917
X5.925Y-0.875
X5.925Y-2.125
X5.925Y-3.7
X5.925Y-4.025
X5.925Y-8.725
X5.9409Y-3.375
X5.9461Y-3.45
X5.95Y-1.2
X5.95Y-1.375
X5.95Y-1.55
X5.95Y-2.325
X5.95Y-4.35
X5.95Y-4.525
X5.95Y-4.7
X5.95Y-4.875
X5.95Y-5.05
X5.95Y-5.225
X5.95Y-5.4
X5.95Y-5.475
X5.95Y-5.75
X5.95Y-6.1
X5.95Y-6.45
X5.95Y-6.625
X5.95Y-6.8
X5.95Y-7.15
X5.95Y-7.325
X5.95Y-7.5
X5.95Y-7.85
X5.95Y-8.025
X5.95Y-8.2
X5.9638Y-5.925
X5.9638Y-2.775
X5.975Y-1.025
X5.975Y-1.575
X5.975Y-2.25
X5.975Y-2.3
X5.975Y-2.975
X5.975Y-3.0045
X5.975Y-8.425
X5.9758Y-2.55
X5.9837Y-4.2429
X5.9958Y-3.5958
X5.9992Y-0.925
X5.9992Y-1.475
X5.9992Y-2.675
X5.9992Y-4.6
X6.0Y-1.775
X6.0Y-3.15
X6.0Y-8.55
X6.0001Y-4.5705
X6.025Y-0.875
X6.025Y-1.05
X6.025Y-1.225
X6.025Y-1.4
X6.025Y-1.5
X6.025Y-1.575
X6.025Y-1.75
X6.025Y-1.925
X6.025Y-2.025
X6.025Y-2.1
X6.025Y-2.275
X6.025Y-2.5998
X6.025Y-2.975
X6.025Y-3.325
X6.025Y-4.375
X6.025Y-4.725
X6.025Y-5.075
X6.025Y-5.425
X6.025Y-5.775
X6.025Y-6.125
X6.025Y-6.325
X6.025Y-6.475
X6.025Y-6.825
X6.025Y-7.175
X6.025Y-7.525
X6.025Y-7.875
X6.025Y-8.225
X6.025Y-8.65
X6.025Y-8.725
X6.05Y-0.9
X6.05Y-2.375
X6.05Y-4.025
X6.05Y-4.575
X6.05Y-5.275
X6.05Y-5.525
X6.05Y-5.6
X6.05Y-5.975
X6.05Y-6.675
X6.05Y-7.375
X6.05Y-8.075
X6.05Y-9.125
X6.05Y-9.55
X6.05Y-10.125
X6.0661Y-2.6411
X6.072Y-4.3339
X6.072Y-4.6839
X6.072Y-5.0339
X6.072Y-5.3839
X6.072Y-5.7339
X6.072Y-6.0839
X6.072Y-6.4339
X6.072Y-6.7839
X6.072Y-7.1339
X6.072Y-7.4839
X6.072Y-7.8339
X6.072Y-8.1839
X6.075Y-1.325
X6.075Y-2.775
X6.075Y-3.125
X6.075Y-3.425
X6.075Y-3.475
X6.075Y-3.6
X6.075Y-4.225
X6.075Y-4.525
X6.075Y-4.875
X6.075Y-5.225
X6.075Y-5.925
X6.075Y-6.275
X6.075Y-6.625
X6.075Y-6.975
X6.075Y-7.325
X6.075Y-7.675
X6.075Y-8.025
X6.075Y-8.375
X6.1Y-3.15
X6.1Y-8.75
X6.125Y-1.2
X6.125Y-1.55
X6.125Y-1.725
X6.125Y-1.9
X6.125Y-2.125
X6.125Y-2.425
X6.125Y-2.6
X6.125Y-2.95
X6.125Y-3.3
X6.125Y-3.5
X6.125Y-3.55
X6.125Y-3.775
X6.125Y-3.825
X6.125Y-4.0
X6.125Y-4.35
X6.125Y-4.7
X6.125Y-5.05
X6.125Y-5.4
X6.125Y-5.75
X6.125Y-6.1
X6.125Y-6.45
X6.125Y-6.8
X6.125Y-7.15
X6.125Y-7.5
X6.125Y-7.85
X6.125Y-8.2
X6.1458Y-8.4458
X6.15Y-1.9486
X6.15Y-1.9782
X6.15Y-2.675
X6.15Y-3.275
X6.15Y-3.35
X6.15Y-3.925
X6.15Y-4.175
X6.1672Y-3.0223
X6.1699Y-3.239
X6.1708Y-2.8292
X6.1742Y-1.55
X6.1742Y-2.25
X6.1742Y-2.5
X6.175Y-1.325
X6.175Y-1.6
X6.175Y-1.675
X6.175Y-2.725
X6.175Y-4.075
X6.175Y-8.45
X6.2Y-1.225
X6.2Y-1.5
X6.2Y-1.575
X6.2Y-1.925
X6.2Y-2.2
X6.2Y-2.275
X6.2Y-2.625
X6.2Y-3.15
X6.2Y-3.325
X6.2Y-3.5
X6.2Y-4.375
X6.2Y-4.65
X6.2Y-4.725
X6.2Y-5.075
X6.2Y-5.35
X6.2Y-5.425
X6.2Y-5.525
X6.2Y-5.775
X6.2Y-6.05
X6.2Y-6.125
X6.2Y-6.475
X6.2Y-6.75
X6.2Y-6.825
X6.2Y-7.175
X6.2Y-7.45
X6.2Y-7.525
X6.2Y-7.875
X6.2Y-8.15
X6.2Y-8.225
X6.2037Y-2.9715
X6.2042Y-2.7958
X6.2222Y-2.4781
X6.225Y-2.65
X6.225Y-4.125
X6.225Y-4.475
X6.225Y-4.825
X6.225Y-5.175
X6.225Y-5.875
X6.225Y-6.225
X6.225Y-6.5
X6.225Y-6.575
X6.225Y-6.925
X6.225Y-7.275
X6.225Y-7.625
X6.225Y-7.975
X6.225Y-8.325
X6.2416Y-1.1584
X6.25Y-1.375
X6.25Y-1.65
X6.25Y-1.7313
X6.25Y-2.075
X6.25Y-2.125
X6.25Y-2.825
X6.25Y-3.575
X6.25Y-3.875
X6.275Y-3.525
X6.275Y-4.175
X6.3Y-1.2
X6.3Y-1.5563
X6.3Y-1.9
X6.3Y-2.325
X6.3Y-2.6
X6.3Y-2.775
X6.3Y-2.95
X6.3Y-3.125
X6.3Y-3.3
X6.3Y-3.475
X6.3Y-4.35
X6.3Y-4.525
X6.3Y-4.7
X6.3Y-4.875
X6.3Y-5.05
X6.3Y-5.225
X6.3Y-5.4
X6.3Y-5.75
X6.3Y-5.925
X6.3Y-6.1
X6.3Y-6.275
X6.3Y-6.45
X6.3Y-6.625
X6.3Y-6.8
X6.3Y-6.975
X6.3Y-7.15
X6.3Y-7.325
X6.3Y-7.5
X6.3Y-7.675
X6.3Y-7.85
X6.3Y-8.025
X6.3Y-8.2
X6.3Y-8.375
X6.3138Y-5.475
X6.325Y-1.325
X6.325Y-8.625
X6.3255Y-1.7049
X6.3486Y-5.2884
X6.3486Y-5.9884
X6.3486Y-6.6884
X6.3486Y-7.3884
X6.3486Y-8.0884
X6.3492Y-1.875
X6.3492Y-8.125
X6.35Y-1.95
X6.35Y-3.825
X6.35Y-4.2
X6.35Y-4.575
X6.35Y-5.35
X6.35Y-5.6
X6.35Y-9.125
X6.375Y-1.225
X6.375Y-1.325
X6.375Y-1.4
X6.375Y-1.575
X6.375Y-1.75
X6.375Y-1.85
X6.375Y-1.925
X6.375Y-2.1
X6.375Y-2.275
X6.375Y-2.45
X6.375Y-2.625
X6.375Y-2.8
X6.375Y-2.975
X6.375Y-3.15
X6.375Y-3.525
X6.375Y-4.375
X6.375Y-4.725
X6.375Y-4.9
X6.375Y-5.075
X6.375Y-5.425
X6.375Y-5.775
X6.375Y-6.125
X6.375Y-6.3
X6.375Y-6.475
X6.375Y-6.825
X6.375Y-7.0
X6.375Y-7.175
X6.375Y-7.525
X6.375Y-7.7
X6.375Y-7.875
X6.375Y-8.225
X6.375Y-8.4
X6.3768Y-5.2482
X6.3768Y-7.3482
X6.3768Y-8.0482
X6.3768Y-5.9482
X6.3768Y-6.6482
X6.3795Y-5.6
X6.3979Y-3.9063
X6.4Y-2.375
X6.4Y-2.9
X6.4Y-3.25
X6.4Y-3.85
X6.4Y-4.55
X6.4Y-4.5795
X6.4Y-5.275
X6.4Y-5.975
X6.4Y-6.675
X6.4Y-7.375
X6.4Y-8.075
X6.4Y-9.45
X6.4Y-9.65
X6.4Y-10.025
X6.4Y-10.225
X6.402Y-1.602
X6.422Y-2.3339
X6.425Y-2.65
X6.425Y-4.05
X6.425Y-4.475
X6.425Y-4.825
X6.425Y-5.175
X6.425Y-5.525
X6.425Y-5.875
X6.425Y-6.225
X6.425Y-6.575
X6.425Y-6.925
X6.425Y-7.275
X6.425Y-7.625
X6.425Y-7.975
X6.425Y-8.325
X6.4341Y-3.7619
X6.45Y-2.475
X6.45Y-3.2
X6.4713Y-4.3492
X6.4713Y-4.6992
X6.4713Y-5.0492
X6.4713Y-5.3992
X6.4713Y-5.75
X6.4713Y-6.1
X6.4713Y-6.45
X6.4713Y-6.8
X6.4713Y-7.15
X6.4713Y-7.4992
X6.4713Y-7.85
X6.475Y-1.2
X6.475Y-1.375
X6.475Y-1.5563
X6.475Y-1.7313
X6.475Y-1.9
X6.475Y-2.075
X6.475Y-2.425
X6.475Y-4.1
X6.475Y-8.2
X6.4911Y-2.3339
X6.5Y-1.275
X6.5Y-2.175
X6.5Y-2.575
X6.5Y-2.7
X6.5Y-4.15
X6.5Y-8.075
X6.5008Y-2.375
X6.525Y-3.85
X6.525Y-8.65
T2
X0.9Y-0.8
X0.95Y-0.8
X1.0Y-0.8
X1.05Y-0.8
X1.1Y-0.8
X1.6Y-0.725
X1.625Y-0.975
X1.65Y-0.725
T3
X6.2555Y-0.875
X6.2832Y-0.8082
X6.2832Y-0.9418
X6.35Y-0.7805
X6.35Y-0.9695
X6.4168Y-0.8082
X6.4168Y-0.9418
X6.4445Y-0.875
X0.8055Y-10.15
X0.8332Y-10.0832
X0.8332Y-10.2168
X0.9Y-10.0555
X0.9Y-10.2445
X0.9668Y-10.0832
X0.9668Y-10.2168
X0.9945Y-10.15
T5
X1.575Y-9.6
X1.575Y-9.7772
X1.8309Y-9.6
X1.8309Y-9.7772
X1.575Y-9.975
X1.575Y-10.1522
X1.8309Y-9.975
X1.8309Y-10.1522
X2.0Y-9.225
X2.0Y-9.4022
X2.2559Y-9.225
X2.2559Y-9.4022
X2.0Y-9.6
X2.0Y-9.7772
X2.2559Y-9.6
X2.2559Y-9.7772
X1.15Y-9.6
X1.15Y-9.7772
X1.4059Y-9.6
X1.4059Y-9.7772
X2.0Y-9.975
X2.0Y-10.1522
X2.2559Y-9.975
X2.2559Y-10.1522
X1.1441Y-9.225
X1.1441Y-9.4022
X1.4Y-9.225
X1.4Y-9.4022
X1.575Y-9.225
X1.575Y-9.4022
X1.8309Y-9.225
X1.8309Y-9.4022
X5.025Y-9.9441
X5.025Y-10.2
X5.2022Y-9.9441
X5.2022Y-10.2
X1.15Y-9.975
X1.15Y-10.1522
X1.4059Y-9.975
X1.4059Y-10.1522
T6
X6.35Y-0.875
X0.9Y-10.15
T4
G00X0.815Y-1.1175
M15
G01X0.815Y-1.1963
M16
G05
G00X1.0394Y-1.0388
M15
G01X0.9606Y-1.0388
M16
G05
G00X1.0394Y-1.275
M15
G01X0.9606Y-1.275
M16
G05
T0
M30
