M48
; DRILL file {KiCad (5.1.10)-1} date 02/07/22 00:05:00
; FORMAT={-:-/ absolute / inch / decimal}
; #@! TF.CreationDate,2022-02-07T00:05:00+01:00
; #@! TF.GenerationSoftware,Kicad,Pcbnew,(5.1.10)-1
; #@! TF.FileFunction,Plated,1,2,PTH
FMAT,2
INCH
T1C0.0138
T2C0.0157
T3C0.0197
T4C0.0394
T5C0.1260
%
G90
G05
T1
X0.6742Y-1.0
X0.675Y-0.85
X0.675Y-4.7
X0.6915Y-2.25
X0.6965Y-7.0535
X0.7Y-0.325
X0.7Y-0.575
X0.7Y-0.675
X0.7Y-0.925
X0.7Y-1.025
X0.7Y-1.2
X0.7Y-1.275
X0.7Y-1.375
X0.7Y-1.625
X0.7Y-1.725
X0.7Y-1.975
X0.7Y-2.075
X0.7Y-2.325
X0.7Y-2.425
X0.7Y-2.675
X0.7Y-2.775
X0.7Y-3.025
X0.7Y-3.125
X0.7Y-3.3
X0.7Y-3.375
X0.7Y-3.475
X0.7Y-3.65
X0.7Y-3.725
X0.7Y-3.825
X0.7Y-4.075
X0.7Y-4.175
X0.7Y-4.425
X0.7Y-4.475
X0.7Y-6.45
X0.7Y-6.7
X0.7Y-6.8
X0.7Y-7.15
X0.7Y-7.225
X0.7Y-7.4
X0.7411Y-0.7661
X0.7411Y-1.4589
X0.7411Y-2.1661
X0.75Y-2.375
X0.75Y-2.725
X0.75Y-7.125
X0.7514Y-5.6542
X0.775Y-5.525
X0.775Y-6.275
X0.775Y-6.875
X0.8Y-0.4
X0.8Y-0.45
X0.8Y-0.7425
X0.8Y-0.8014
X0.8Y-1.1
X0.8Y-1.15
X0.8Y-1.45
X0.8Y-1.5
X0.8Y-1.8
X0.8Y-1.85
X0.8Y-2.15
X0.8Y-2.2
X0.8Y-2.5
X0.8Y-2.55
X0.8Y-2.85
X0.8Y-2.9
X0.8Y-3.2
X0.8Y-3.25
X0.8Y-3.55
X0.8Y-3.6
X0.8Y-3.9
X0.8Y-3.95
X0.8Y-4.25
X0.8Y-4.3
X0.8Y-6.575
X0.8Y-6.9
X0.8Y-7.1986
X0.8Y-7.275
X0.825Y-4.225
X0.825Y-4.475
X0.8258Y-7.325
X0.8492Y-1.7
X0.8492Y-1.925
X0.85Y-0.175
X0.85Y-1.2
X0.85Y-3.425
X0.8503Y-7.1986
X0.8749Y-3.55
X0.875Y-0.4
X0.875Y-0.575
X0.875Y-0.7425
X0.875Y-0.925
X0.875Y-0.925
X0.875Y-1.1
X0.875Y-1.275
X0.875Y-1.45
X0.875Y-1.625
X0.875Y-1.8
X0.875Y-1.975
X0.875Y-1.975
X0.875Y-2.15
X0.875Y-2.25
X0.875Y-2.325
X0.875Y-2.5
X0.875Y-2.675
X0.875Y-2.85
X0.875Y-3.025
X0.875Y-3.2
X0.875Y-3.375
X0.875Y-3.725
X0.875Y-3.9
X0.875Y-4.075
X0.875Y-4.25
X0.875Y-4.425
X0.875Y-4.525
X0.875Y-4.775
X0.875Y-6.1
X0.875Y-6.35
X0.875Y-6.45
X0.875Y-6.7
X0.875Y-6.875
X0.875Y-7.15
X0.875Y-7.4
X0.8785Y-7.0535
X0.9Y-1.55
X0.9Y-2.6
X0.9Y-5.05
X0.9Y-5.95
X0.925Y-0.3
X0.925Y-0.975
X0.925Y-1.675
X0.925Y-3.075
X0.925Y-3.3
X0.925Y-5.825
X0.925Y-6.275
X0.9644Y-6.8894
X0.975Y-0.4
X0.975Y-0.45
X0.975Y-0.7425
X0.975Y-0.8014
X0.975Y-1.1
X0.975Y-1.15
X0.975Y-1.45
X0.975Y-1.5
X0.975Y-1.8
X0.975Y-1.85
X0.975Y-2.15
X0.975Y-2.2
X0.975Y-2.5
X0.975Y-2.55
X0.975Y-2.85
X0.975Y-2.9
X0.975Y-3.2
X0.975Y-3.25
X0.975Y-3.55
X0.975Y-3.6
X0.975Y-3.9
X0.975Y-3.95
X0.975Y-4.25
X0.975Y-4.3
X0.975Y-4.575
X0.975Y-4.65
X0.975Y-6.225
X0.975Y-6.5
X0.975Y-6.575
X0.975Y-7.275
X1.0Y-0.95
X1.0Y-1.325
X1.0Y-1.95
X1.0Y-4.225
X1.0Y-4.375
X1.0Y-5.6
X1.0008Y-1.9
X1.0242Y-3.875
X1.025Y-0.125
X1.025Y-5.8
X1.037Y-5.4896
X1.0499Y-1.1
X1.05Y-0.4
X1.05Y-0.575
X1.05Y-1.275
X1.05Y-1.45
X1.05Y-1.625
X1.05Y-1.8
X1.05Y-1.975
X1.05Y-2.15
X1.05Y-2.325
X1.05Y-2.5
X1.05Y-2.675
X1.05Y-2.85
X1.05Y-3.025
X1.05Y-3.2
X1.05Y-3.3
X1.05Y-3.375
X1.05Y-3.55
X1.05Y-3.725
X1.05Y-3.9
X1.05Y-4.075
X1.05Y-4.25
X1.05Y-4.425
X1.05Y-4.6
X1.05Y-4.775
X1.05Y-5.05
X1.05Y-5.225
X1.05Y-5.9
X1.05Y-6.1
X1.05Y-6.45
X1.05Y-6.7
X1.05Y-6.8
X1.05Y-7.225
X1.05Y-7.2545
X1.05Y-7.4
X1.0504Y-4.8734
X1.0504Y-5.1234
X1.0535Y-7.0535
X1.0537Y-0.7425
X1.0537Y-0.9258
X1.0537Y-0.9258
X1.075Y-4.0
X1.075Y-5.875
X1.075Y-6.35
X1.0911Y-0.4161
X1.0911Y-6.8839
X1.1Y-0.5
X1.1Y-1.7
X1.1Y-1.9
X1.1Y-2.375
X1.1Y-3.075
X1.1Y-3.425
X1.1Y-4.125
X1.1Y-4.475
X1.15Y-0.3925
X1.15Y-0.4557
X1.15Y-0.7425
X1.15Y-0.8014
X1.15Y-0.8844
X1.15Y-1.1
X1.15Y-1.15
X1.15Y-1.45
X1.15Y-1.5
X1.15Y-1.8
X1.15Y-1.85
X1.15Y-2.15
X1.15Y-2.2
X1.15Y-2.5
X1.15Y-2.55
X1.15Y-2.85
X1.15Y-2.9
X1.15Y-3.2
X1.15Y-3.25
X1.15Y-3.35
X1.15Y-3.55
X1.15Y-3.6
X1.15Y-3.9
X1.15Y-3.95
X1.15Y-4.25
X1.15Y-4.3
X1.15Y-4.575
X1.15Y-4.65
X1.15Y-5.275
X1.15Y-5.35
X1.15Y-6.15
X1.15Y-6.225
X1.15Y-6.5
X1.15Y-6.575
X1.15Y-7.025
X1.1504Y-4.9231
X1.1514Y-4.9526
X1.1708Y-2.6542
X1.175Y-3.875
X1.175Y-4.4
X1.175Y-4.625
X1.175Y-5.75
X1.175Y-5.95
X1.1792Y-3.4208
X1.1992Y-1.525
X1.1992Y-2.375
X1.2Y-0.425
X1.2Y-5.8
X1.2Y-5.875
X1.2208Y-4.5958
X1.2215Y-7.0535
X1.225Y-0.4
X1.225Y-0.5
X1.225Y-0.575
X1.225Y-0.7425
X1.225Y-0.85
X1.225Y-0.925
X1.225Y-1.1
X1.225Y-1.2
X1.225Y-1.275
X1.225Y-1.45
X1.225Y-1.55
X1.225Y-1.625
X1.225Y-1.8
X1.225Y-1.9
X1.225Y-1.975
X1.225Y-2.15
X1.225Y-2.25
X1.225Y-2.325
X1.225Y-2.5
X1.225Y-2.6
X1.225Y-2.675
X1.225Y-2.85
X1.225Y-2.95
X1.225Y-3.025
X1.225Y-3.2
X1.225Y-3.3
X1.225Y-3.375
X1.225Y-3.55
X1.225Y-3.65
X1.225Y-3.725
X1.225Y-3.9
X1.225Y-4.0
X1.225Y-4.075
X1.225Y-4.25
X1.225Y-4.35
X1.225Y-4.425
X1.225Y-4.775
X1.225Y-5.3
X1.225Y-5.475
X1.225Y-6.1
X1.225Y-6.35
X1.225Y-6.45
X1.225Y-6.7
X1.225Y-6.8
X1.225Y-7.15
X1.225Y-7.225
X1.225Y-7.4
X1.2254Y-4.9484
X1.2254Y-5.1234
X1.25Y-5.575
X1.2661Y-5.3161
X1.2665Y-4.9646
X1.275Y-1.6
X1.275Y-3.325
X1.275Y-3.675
X1.275Y-4.625
X1.275Y-6.775
X1.3Y-5.675
X1.325Y-0.45
X1.325Y-0.8
X1.325Y-1.15
X1.325Y-1.5
X1.325Y-1.85
X1.325Y-2.2
X1.325Y-2.55
X1.325Y-2.9
X1.325Y-3.25
X1.325Y-3.6
X1.325Y-3.95
X1.325Y-4.3
X1.325Y-4.65
X1.325Y-5.35
X1.325Y-6.15
X1.325Y-6.225
X1.325Y-6.5
X1.325Y-6.575
X1.325Y-6.875
X1.325Y-6.925
X1.325Y-7.1764
X1.325Y-7.2785
X1.3254Y-4.9984
X1.35Y-0.625
X1.35Y-3.225
X1.35Y-5.575
X1.35Y-5.75
X1.3742Y-0.275
X1.3742Y-1.225
X1.3742Y-1.675
X1.3742Y-3.075
X1.375Y-2.175
X1.375Y-5.7
X1.3753Y-7.1764
X1.3965Y-7.0535
X1.4Y-0.225
X1.4Y-0.425
X1.4Y-0.575
X1.4Y-0.675
X1.4Y-0.775
X1.4Y-0.925
X1.4Y-1.025
X1.4Y-1.125
X1.4Y-1.275
X1.4Y-1.375
X1.4Y-1.475
X1.4Y-1.625
X1.4Y-1.725
X1.4Y-1.825
X1.4Y-1.975
X1.4Y-2.075
X1.4Y-2.325
X1.4Y-2.425
X1.4Y-2.525
X1.4Y-2.675
X1.4Y-2.775
X1.4Y-2.875
X1.4Y-3.025
X1.4Y-3.125
X1.4Y-3.225
X1.4Y-3.375
X1.4Y-3.475
X1.4Y-3.575
X1.4Y-3.725
X1.4Y-3.825
X1.4Y-3.925
X1.4Y-4.075
X1.4Y-4.175
X1.4Y-4.275
X1.4Y-4.425
X1.4Y-4.525
X1.4Y-4.625
X1.4Y-4.775
X1.4Y-5.225
X1.4Y-5.325
X1.4Y-5.475
X1.4Y-5.575
X1.4Y-6.1
X1.4Y-6.35
X1.4Y-6.45
X1.4Y-6.7
X1.4Y-6.875
X1.4Y-7.325
X1.4Y-7.4
X1.4004Y-4.8734
X1.4004Y-4.9734
X1.4004Y-5.1234
X1.4045Y-0.325
X1.4045Y-2.175
X1.4175Y-0.05
X1.4411Y-6.8911
X1.45Y-2.725
X1.45Y-3.325
X1.4894Y-0.0894
X1.4945Y-7.2587
X1.5Y-0.375
X1.5Y-0.45
X1.5Y-0.725
X1.5Y-0.8
X1.5Y-1.075
X1.5Y-1.15
X1.5Y-1.425
X1.5Y-1.5
X1.5Y-1.775
X1.5Y-1.85
X1.5Y-2.125
X1.5Y-2.2
X1.5Y-2.475
X1.5Y-2.55
X1.5Y-2.825
X1.5Y-2.9
X1.5Y-3.175
X1.5Y-3.25
X1.5Y-3.525
X1.5Y-3.6
X1.5Y-3.875
X1.5Y-3.95
X1.5Y-4.225
X1.5Y-4.3
X1.5Y-4.575
X1.5Y-4.65
X1.5Y-5.275
X1.5Y-5.35
X1.5Y-6.15
X1.5Y-6.225
X1.5Y-6.5
X1.5Y-6.575
X1.5Y-6.925
X1.5004Y-4.9234
X1.5004Y-4.9984
X1.525Y-1.925
X1.525Y-3.2
X1.525Y-3.325
X1.525Y-5.875
X1.525Y-5.95
X1.525Y-6.2
X1.55Y-0.9666
X1.55Y-2.175
X1.55Y-5.5705
X1.55Y-5.6
X1.5633Y-2.5773
X1.5708Y-1.8958
X1.5715Y-7.0535
X1.575Y0.025
X1.575Y-0.225
X1.575Y-0.4
X1.575Y-0.5
X1.575Y-0.575
X1.575Y-0.75
X1.575Y-0.85
X1.575Y-0.925
X1.575Y-1.1
X1.575Y-1.2
X1.575Y-1.275
X1.575Y-1.45
X1.575Y-1.55
X1.575Y-1.625
X1.575Y-1.8
X1.575Y-1.975
X1.575Y-2.15
X1.575Y-2.25
X1.575Y-2.325
X1.575Y-2.5
X1.575Y-2.675
X1.575Y-2.85
X1.575Y-2.95
X1.575Y-3.025
X1.575Y-3.2
X1.575Y-3.3
X1.575Y-3.375
X1.575Y-3.55
X1.575Y-3.65
X1.575Y-3.725
X1.575Y-3.9
X1.575Y-4.0
X1.575Y-4.075
X1.575Y-4.25
X1.575Y-4.35
X1.575Y-4.425
X1.575Y-4.5925
X1.575Y-4.775
X1.575Y-5.3
X1.575Y-5.475
X1.575Y-6.1
X1.575Y-6.45
X1.575Y-6.7
X1.575Y-6.8
X1.575Y-7.225
X1.575Y-7.2545
X1.575Y-7.4
X1.5754Y-4.9484
X1.5754Y-5.1234
X1.5792Y-6.3458
X1.6Y-0.95
X1.6161Y-4.6161
X1.6161Y-5.3161
X1.6165Y-4.9646
X1.625Y-0.625
X1.625Y-1.2
X1.625Y-1.925
X1.625Y-2.975
X1.625Y-4.025
X1.625Y-4.375
X1.625Y-4.725
X1.625Y-5.075
X1.625Y-6.925
X1.6292Y-2.2792
X1.6292Y-2.6292
X1.6465Y-0.1965
X1.65Y-5.325
X1.6644Y-6.9144
X1.6712Y-0.4545
X1.675Y-0.025
X1.675Y-0.1
X1.675Y-0.8
X1.675Y-0.8844
X1.675Y-0.95
X1.675Y-1.15
X1.675Y-1.5
X1.675Y-1.85
X1.675Y-2.2
X1.675Y-2.55
X1.675Y-2.9
X1.675Y-3.25
X1.675Y-3.6
X1.675Y-3.95
X1.675Y-4.3
X1.675Y-4.65
X1.675Y-5.35
X1.675Y-6.15
X1.675Y-6.225
X1.675Y-6.5
X1.675Y-6.575
X1.6754Y-4.9984
X1.7Y-1.575
X1.7Y-2.725
X1.7Y-2.975
X1.7Y-5.525
X1.7Y-5.5545
X1.7Y-5.75
X1.7242Y-0.625
X1.7242Y-1.525
X1.725Y-0.75
X1.725Y-5.4
X1.725Y-7.0
X1.7413Y-6.097
X1.7458Y-1.4708
X1.75Y0.125
X1.75Y-0.05
X1.75Y-0.225
X1.75Y-0.325
X1.75Y-0.425
X1.75Y-0.575
X1.75Y-0.675
X1.75Y-0.775
X1.75Y-0.925
X1.75Y-1.025
X1.75Y-1.125
X1.75Y-1.275
X1.75Y-1.375
X1.75Y-1.625
X1.75Y-1.725
X1.75Y-1.825
X1.75Y-1.975
X1.75Y-2.075
X1.75Y-2.175
X1.75Y-2.325
X1.75Y-2.425
X1.75Y-2.525
X1.75Y-2.675
X1.75Y-2.775
X1.75Y-2.875
X1.75Y-3.025
X1.75Y-3.125
X1.75Y-3.225
X1.75Y-3.375
X1.75Y-3.475
X1.75Y-3.575
X1.75Y-3.725
X1.75Y-3.825
X1.75Y-3.925
X1.75Y-4.075
X1.75Y-4.175
X1.75Y-4.275
X1.75Y-4.425
X1.75Y-4.525
X1.75Y-4.625
X1.75Y-4.775
X1.75Y-5.225
X1.75Y-5.325
X1.75Y-5.475
X1.75Y-5.575
X1.75Y-6.45
X1.75Y-6.7
X1.7504Y-4.8734
X1.7504Y-4.9734
X1.7504Y-5.1236
X1.775Y-6.35
X1.775Y-6.625
X1.8Y-4.35
X1.8Y-6.65
X1.8Y-6.95
X1.8Y-7.0
X1.8Y-7.15
X1.8394Y-0.7644
X1.8394Y-1.5106
X1.8394Y-3.2394
X1.8394Y-4.6144
X1.85Y-0.05
X1.85Y-0.1965
X1.85Y-0.425
X1.85Y-1.125
X1.85Y-1.825
X1.85Y-2.175
X1.85Y-2.525
X1.85Y-2.9
X1.85Y-3.575
X1.85Y-3.925
X1.85Y-4.95
X1.85Y-5.325
X1.85Y-6.15
X1.85Y-6.225
X1.85Y-6.5
X1.85Y-6.575
X1.875Y-0.175
X1.875Y-1.1
X1.875Y-5.6
X1.875Y-5.825
X1.8764Y-7.3231
X1.8837Y-0.4965
X1.8992Y-7.35
X1.9Y0.125
X1.9Y-1.45
X1.9Y-1.6
X1.9Y-2.975
X1.9Y-3.2
X1.9Y-6.2
X1.9045Y-5.825
X1.925Y-0.075
X1.925Y-0.525
X1.925Y-1.15
X1.925Y-1.325
X1.925Y-2.6
X1.925Y-3.425
X1.925Y-4.125
X1.925Y-4.225
X1.925Y-4.45
X1.925Y-6.1
X1.925Y-6.35
X1.925Y-6.45
X1.925Y-6.7
X1.925Y-6.8
X1.925Y-7.15
X1.925Y-7.225
X1.925Y-7.4
X1.9285Y-7.0535
X1.95Y-0.275
X1.95Y-1.075
X1.95Y-1.575
X1.95Y-1.7
X1.95Y-2.275
X1.95Y-3.625
X1.95Y-3.975
X1.95Y-4.675
X1.972Y-6.8411
X1.9736Y-1.4417
X1.975Y-0.4
X1.975Y-1.05
X1.975Y-2.725
X1.975Y-4.475
X1.975Y-4.575
X1.975Y-5.7455
X1.975Y-5.775
X1.975Y-7.325
X1.9764Y-1.6869
X2.0Y-0.6465
X2.0Y-1.15
X2.0Y-3.075
X2.0Y-3.2
X2.0Y-4.225
X2.025Y-1.325
X2.025Y-1.575
X2.025Y-2.025
X2.025Y-5.925
X2.025Y-6.15
X2.025Y-6.225
X2.025Y-6.5
X2.025Y-6.575
X2.025Y-6.8736
X2.025Y-6.925
X2.0486Y-4.1014
X2.05Y-0.5
X2.05Y-0.85
X2.05Y-1.05
X2.05Y-2.6
X2.05Y-3.275
X2.05Y-3.775
X2.05Y-3.975
X2.05Y-6.175
X2.0742Y-1.675
X2.0742Y-2.9
X2.075Y-1.45
X2.075Y-3.2
X2.075Y-4.45
X2.075Y-4.5913
X2.075Y-5.95
X2.075Y-6.975
X2.0958Y-1.0292
X2.0986Y-7.0535
X2.1Y0.15
X2.1Y0.025
X2.1Y-0.225
X2.1Y-0.325
X2.1Y-0.575
X2.1Y-0.675
X2.1Y-0.925
X2.1Y-1.275
X2.1Y-1.375
X2.1Y-1.6413
X2.1Y-1.725
X2.1Y-1.975
X2.1Y-2.075
X2.1Y-2.25
X2.1Y-2.325
X2.1Y-2.425
X2.1Y-2.675
X2.1Y-2.775
X2.1Y-2.95
X2.1Y-3.025
X2.1Y-3.125
X2.1Y-3.375
X2.1Y-3.475
X2.1Y-3.65
X2.1Y-3.725
X2.1Y-3.825
X2.1Y-4.075
X2.1Y-4.175
X2.1Y-4.425
X2.1Y-5.0
X2.1Y-6.1
X2.1Y-6.45
X2.1Y-6.7
X2.1Y-6.8736
X2.1Y-7.225
X2.1Y-7.4
X2.1037Y-6.35
X2.125Y-0.85
X2.125Y-4.0
X2.1411Y-1.4661
X2.15Y-0.125
X2.15Y-1.0
X2.15Y-1.6866
X2.15Y-2.375
X2.15Y-3.075
X2.15Y-3.8
X2.15Y-5.525
X2.15Y-6.75
X2.175Y-4.5913
X2.175Y-5.25
X2.1963Y-1.1008
X2.1963Y-1.1508
X2.1963Y-1.4508
X2.1963Y-1.5008
X2.2Y-0.05
X2.2Y-0.1
X2.2Y-0.4
X2.2Y-0.45
X2.2Y-0.75
X2.2Y-0.8
X2.2Y-1.575
X2.2Y-1.8
X2.2Y-1.85
X2.2Y-2.15
X2.2Y-2.2
X2.2Y-2.5
X2.2Y-2.55
X2.2Y-2.85
X2.2Y-2.9
X2.2Y-3.2
X2.2Y-3.25
X2.2Y-3.55
X2.2Y-3.6
X2.2Y-3.9
X2.2Y-3.95
X2.2Y-4.25
X2.2Y-4.3
X2.2Y-4.825
X2.2Y-5.9
X2.2Y-6.15
X2.2Y-6.225
X2.2Y-6.5
X2.2Y-6.575
X2.2Y-6.925
X2.2295Y-5.9
X2.2492Y-1.225
X2.2492Y-3.8
X2.2492Y-4.55
X2.2492Y-7.1
X2.25Y-2.725
X2.25Y-5.175
X2.25Y-6.625
X2.2567Y-6.9349
X2.2715Y-7.0535
X2.275Y0.125
X2.275Y-0.05
X2.275Y-0.225
X2.275Y-0.4
X2.275Y-0.5
X2.275Y-1.0238
X2.275Y-1.1
X2.275Y-1.2
X2.275Y-1.275
X2.275Y-1.45
X2.275Y-1.625
X2.275Y-1.8
X2.275Y-1.975
X2.275Y-2.15
X2.275Y-2.25
X2.275Y-2.325
X2.275Y-2.5
X2.275Y-2.6913
X2.275Y-2.85
X2.275Y-3.025
X2.275Y-3.2
X2.275Y-3.375
X2.275Y-3.55
X2.275Y-3.725
X2.275Y-3.9
X2.275Y-4.25
X2.275Y-4.425
X2.275Y-4.525
X2.275Y-4.7
X2.275Y-4.775
X2.275Y-6.1
X2.275Y-6.2
X2.275Y-6.35
X2.275Y-6.45
X2.275Y-6.55
X2.275Y-6.7
X2.275Y-6.8
X2.275Y-7.15
X2.275Y-7.225
X2.275Y-7.4
X2.2787Y-0.575
X2.2787Y-0.75
X2.2787Y-0.925
X2.2805Y-4.072
X2.3Y-2.6
X2.3Y-5.525
X2.325Y-0.3
X2.325Y-0.625
X2.325Y-1.675
X2.325Y-3.075
X2.325Y-3.425
X2.325Y-3.8
X2.325Y-4.225
X2.325Y-7.325
X2.328Y-6.9805
X2.35Y-5.775
X2.3667Y-6.9014
X2.375Y-0.05
X2.375Y-0.1
X2.375Y-0.4
X2.375Y-0.45
X2.375Y-0.75
X2.375Y-0.8
X2.375Y-1.1
X2.375Y-1.15
X2.375Y-1.45
X2.375Y-1.5
X2.375Y-1.8
X2.375Y-1.85
X2.375Y-2.15
X2.375Y-2.2
X2.375Y-2.5
X2.375Y-2.55
X2.375Y-2.85
X2.375Y-2.9
X2.375Y-3.2
X2.375Y-3.25
X2.375Y-3.55
X2.375Y-3.6
X2.375Y-3.9
X2.375Y-3.95
X2.375Y-4.25
X2.375Y-4.3
X2.375Y-4.575
X2.375Y-4.65
X2.375Y-6.3
X2.4Y-2.625
X2.4Y-3.075
X2.4Y-3.675
X2.4Y-6.25
X2.4Y-7.1
X2.4242Y-1.325
X2.4242Y-1.4016
X2.4242Y-2.025
X2.4242Y-3.775
X2.425Y-6.425
X2.425Y-7.15
X2.437Y-5.4896
X2.45Y-0.05
X2.45Y-0.225
X2.45Y-0.4
X2.45Y-0.5
X2.45Y-0.575
X2.45Y-0.75
X2.45Y-0.925
X2.45Y-1.1
X2.45Y-1.275
X2.45Y-1.625
X2.45Y-1.8
X2.45Y-1.975
X2.45Y-2.15
X2.45Y-2.325
X2.45Y-2.5
X2.45Y-2.6
X2.45Y-2.675
X2.45Y-2.85
X2.45Y-3.025
X2.45Y-3.2
X2.45Y-3.375
X2.45Y-3.55
X2.45Y-3.65
X2.45Y-3.725
X2.45Y-3.9
X2.45Y-4.075
X2.45Y-4.25
X2.45Y-4.425
X2.45Y-4.6
X2.45Y-4.7
X2.45Y-4.775
X2.45Y-4.875
X2.45Y-5.125
X2.45Y-5.225
X2.45Y-6.65
X2.45Y-6.725
X2.45Y-7.225
X2.45Y-7.4
X2.4517Y-1.4342
X2.475Y-4.0
X2.475Y-5.05
X2.475Y-6.625
X2.4911Y-0.0661
X2.4958Y-6.9458
X2.5Y-0.65
X2.5Y-1.55
X2.5Y-2.025
X2.5Y-2.725
X2.5Y-4.125
X2.5Y-4.55
X2.5Y-4.825
X2.5Y-5.85
X2.525Y-5.725
X2.5447Y-5.2695
X2.5447Y-5.3445
X2.55Y-0.05
X2.55Y-0.1
X2.55Y-0.4
X2.55Y-0.45
X2.55Y-0.75
X2.55Y-0.8
X2.55Y-1.1
X2.55Y-1.15
X2.55Y-1.45
X2.55Y-1.5
X2.55Y-1.8
X2.55Y-1.85
X2.55Y-2.15
X2.55Y-2.2
X2.55Y-2.5
X2.55Y-2.55
X2.55Y-2.85
X2.55Y-2.9
X2.55Y-3.2
X2.55Y-3.25
X2.55Y-3.55
X2.55Y-3.6
X2.55Y-3.9
X2.55Y-3.95
X2.55Y-4.25
X2.55Y-4.3
X2.55Y-4.575
X2.55Y-4.65
X2.55Y-4.925
X2.55Y-5.0
X2.55Y-5.525
X2.55Y-6.175
X2.563Y-6.8702
X2.563Y-6.9702
X2.575Y-2.975
X2.575Y-6.65
X2.5758Y-7.15
X2.5992Y-4.15
X2.6Y-5.525
X2.6Y-5.6
X2.6215Y-7.0535
X2.6236Y-5.287
X2.6236Y-5.4695
X2.6247Y-3.9837
X2.625Y-0.05
X2.625Y-0.15
X2.625Y-0.225
X2.625Y-0.4
X2.625Y-0.5
X2.625Y-0.575
X2.625Y-0.75
X2.625Y-0.85
X2.625Y-0.925
X2.625Y-1.1
X2.625Y-1.2
X2.625Y-1.275
X2.625Y-1.45
X2.625Y-1.55
X2.625Y-1.625
X2.625Y-1.8
X2.625Y-1.9
X2.625Y-1.975
X2.625Y-2.15
X2.625Y-2.25
X2.625Y-2.325
X2.625Y-2.5
X2.625Y-2.6
X2.625Y-2.675
X2.625Y-2.85
X2.625Y-2.95
X2.625Y-3.025
X2.625Y-3.2
X2.625Y-3.3
X2.625Y-3.375
X2.625Y-3.55
X2.625Y-3.65
X2.625Y-3.725
X2.625Y-3.9
X2.625Y-4.075
X2.625Y-4.25
X2.625Y-4.35
X2.625Y-4.425
X2.625Y-4.6
X2.625Y-4.775
X2.625Y-4.9425
X2.625Y-5.125
X2.625Y-6.525
X2.625Y-6.7
X2.625Y-6.8
X2.625Y-7.225
X2.625Y-7.325
X2.625Y-7.4
X2.65Y-5.625
X2.65Y-6.9
X2.6608Y-5.3106
X2.6661Y-0.4089
X2.6661Y-0.7661
X2.6661Y-1.1161
X2.6661Y-1.8089
X2.6661Y-2.1661
X2.6661Y-2.5089
X2.6661Y-2.8589
X2.6661Y-3.2089
X2.6661Y-3.5661
X2.6661Y-3.9089
X2.6661Y-4.9661
X2.675Y-4.625
X2.7Y-5.525
X2.7Y-5.725
X2.7197Y-5.3445
X2.725Y-0.1
X2.725Y-0.45
X2.725Y-0.8
X2.725Y-1.15
X2.725Y-1.5
X2.725Y-1.85
X2.725Y-2.2
X2.725Y-2.55
X2.725Y-2.9
X2.725Y-3.25
X2.725Y-3.6
X2.725Y-4.3
X2.725Y-4.65
X2.725Y-5.0
X2.725Y-5.5
X2.725Y-6.15
X2.725Y-6.575
X2.725Y-6.675
X2.725Y-6.875
X2.725Y-6.925
X2.7252Y-3.9482
X2.75Y-4.225
X2.75Y-4.825
X2.75Y-5.85
X2.7508Y-7.15
X2.7508Y-7.325
X2.7704Y-6.6538
X2.7947Y-5.3195
X2.7947Y-5.4695
X2.8Y0.025
X2.8Y-0.075
X2.8Y-0.225
X2.8Y-0.325
X2.8Y-0.425
X2.8Y-0.575
X2.8Y-0.675
X2.8Y-0.775
X2.8Y-0.925
X2.8Y-1.025
X2.8Y-1.125
X2.8Y-1.275
X2.8Y-1.375
X2.8Y-1.475
X2.8Y-1.625
X2.8Y-1.725
X2.8Y-1.825
X2.8Y-1.975
X2.8Y-2.075
X2.8Y-2.175
X2.8Y-2.325
X2.8Y-2.425
X2.8Y-2.525
X2.8Y-2.675
X2.8Y-2.775
X2.8Y-2.875
X2.8Y-3.025
X2.8Y-3.125
X2.8Y-3.225
X2.8Y-3.375
X2.8Y-3.475
X2.8Y-3.575
X2.8Y-3.725
X2.8Y-3.825
X2.8Y-3.925
X2.8Y-4.075
X2.8Y-4.175
X2.8Y-4.275
X2.8Y-4.425
X2.8Y-4.525
X2.8Y-4.625
X2.8Y-4.775
X2.8Y-4.875
X2.8Y-4.975
X2.8Y-5.05
X2.8Y-5.125
X2.8Y-5.225
X2.8Y-6.25
X2.8Y-6.525
X2.8Y-6.7
X2.8Y-6.875
X2.8Y-6.975
X2.8Y-7.15
X2.8Y-7.225
X2.8Y-7.4
X2.8035Y-7.0535
X2.825Y-5.525
X2.825Y-6.625
X2.875Y-5.5
X2.875Y-6.25
X2.8891Y-6.9337
X2.8926Y-4.99
X2.8947Y-5.2695
X2.8947Y-5.3445
X2.8955Y-4.925
X2.9Y-0.025
X2.9Y-0.1
X2.9Y-0.375
X2.9Y-0.45
X2.9Y-0.725
X2.9Y-0.8
X2.9Y-1.075
X2.9Y-1.15
X2.9Y-1.425
X2.9Y-1.5
X2.9Y-1.775
X2.9Y-1.85
X2.9Y-2.125
X2.9Y-2.2
X2.9Y-2.475
X2.9Y-2.55
X2.9Y-2.825
X2.9Y-2.9
X2.9Y-3.175
X2.9Y-3.25
X2.9Y-3.525
X2.9Y-3.6
X2.9Y-3.875
X2.9Y-4.225
X2.9Y-4.3
X2.9Y-4.575
X2.9Y-4.65
X2.9Y-6.2
X2.9Y-6.525
X2.9Y-6.575
X2.9Y-7.4
X2.9002Y-3.9482
X2.925Y-4.925
X2.925Y-5.175
X2.925Y-5.9
X2.925Y-6.25
X2.925Y-6.75
X2.925Y-7.325
X2.9258Y-5.0504
X2.9481Y-3.9215
X2.9486Y-6.9337
X2.9492Y-2.475
X2.9492Y-3.075
X2.95Y-2.175
X2.9583Y-0.4764
X2.9736Y-5.2945
X2.9736Y-5.4686
X2.975Y-0.05
X2.975Y-0.15
X2.975Y-0.225
X2.975Y-0.4
X2.975Y-0.575
X2.975Y-0.75
X2.975Y-0.85
X2.975Y-0.925
X2.975Y-1.1
X2.975Y-1.2
X2.975Y-1.275
X2.975Y-1.45
X2.975Y-1.55
X2.975Y-1.625
X2.975Y-1.8
X2.975Y-1.9
X2.975Y-1.975
X2.975Y-2.15
X2.975Y-2.25
X2.975Y-2.325
X2.975Y-2.5
X2.975Y-2.6
X2.975Y-2.675
X2.975Y-2.85
X2.975Y-2.95
X2.975Y-3.025
X2.975Y-3.2
X2.975Y-3.3
X2.975Y-3.375
X2.975Y-3.55
X2.975Y-3.65
X2.975Y-3.725
X2.975Y-3.9
X2.975Y-4.075
X2.975Y-4.25
X2.975Y-4.35
X2.975Y-4.425
X2.975Y-4.5925
X2.975Y-4.775
X2.975Y-4.95
X2.975Y-5.125
X2.975Y-5.75
X2.975Y-5.925
X2.975Y-6.0
X2.975Y-6.525
X2.975Y-6.7
X2.975Y-6.8
X2.975Y-7.05
X2.975Y-7.15
X2.975Y-7.225
X2.975Y-7.4
X2.978Y-3.9837
X3.0108Y-5.3106
X3.0161Y-4.6161
X3.0161Y-4.9661
X3.025Y-6.25
X3.028Y-6.9805
X3.05Y-6.15
X3.0587Y-4.9959
X3.0697Y-5.3445
X3.075Y-0.1
X3.075Y-0.45
X3.075Y-0.8
X3.075Y-1.15
X3.075Y-1.5
X3.075Y-1.85
X3.075Y-2.2
X3.075Y-2.55
X3.075Y-2.9
X3.075Y-3.25
X3.075Y-3.6
X3.075Y-3.95
X3.075Y-4.3
X3.075Y-4.65
X3.075Y-5.875
X3.075Y-6.525
X3.075Y-6.575
X3.0764Y-4.9417
X3.1Y-1.475
X3.1Y-1.825
X3.1Y-2.825
X3.1Y-4.025
X3.1008Y-1.55
X3.125Y-5.5
X3.125Y-5.6
X3.125Y-6.175
X3.125Y-6.875
X3.1477Y-5.3186
X3.1477Y-5.4686
X3.1486Y-6.9188
X3.15Y0.025
X3.15Y-0.075
X3.15Y-0.225
X3.15Y-0.325
X3.15Y-0.425
X3.15Y-0.575
X3.15Y-0.675
X3.15Y-0.775
X3.15Y-0.925
X3.15Y-1.025
X3.15Y-1.125
X3.15Y-1.275
X3.15Y-1.375
X3.15Y-1.475
X3.15Y-1.625
X3.15Y-1.725
X3.15Y-1.825
X3.15Y-1.975
X3.15Y-2.075
X3.15Y-2.175
X3.15Y-2.325
X3.15Y-2.425
X3.15Y-2.525
X3.15Y-2.675
X3.15Y-2.775
X3.15Y-2.875
X3.15Y-3.025
X3.15Y-3.125
X3.15Y-3.225
X3.15Y-3.375
X3.15Y-3.475
X3.15Y-3.575
X3.15Y-3.725
X3.15Y-3.825
X3.15Y-3.925
X3.15Y-4.075
X3.15Y-4.175
X3.15Y-4.275
X3.15Y-4.425
X3.15Y-4.525
X3.15Y-4.625
X3.15Y-4.775
X3.15Y-4.875
X3.15Y-4.975
X3.15Y-5.125
X3.15Y-5.225
X3.15Y-5.75
X3.15Y-6.0
X3.15Y-6.1035
X3.15Y-6.35
X3.15Y-6.525
X3.15Y-6.7
X3.15Y-7.225
X3.15Y-7.325
X3.15Y-7.4
X3.1679Y-6.8501
X3.1911Y-5.8411
X3.2Y-6.25
X3.2Y-7.0
X3.225Y-6.875
X3.2394Y-0.0644
X3.2394Y-0.4144
X3.2394Y-1.1106
X3.2394Y-1.8106
X3.2394Y-2.1606
X3.2394Y-3.2144
X3.2394Y-4.9644
X3.2463Y-6.525
X3.2463Y-6.575
X3.25Y-0.75
X3.25Y-1.45
X3.25Y-2.525
X3.25Y-2.875
X3.25Y-3.575
X3.25Y-3.925
X3.25Y-4.275
X3.25Y-4.625
X3.25Y-5.325
X3.25Y-5.8
X3.25Y-5.875
X3.25Y-6.225
X3.25Y-7.0
X3.2758Y-1.55
X3.2792Y-6.7542
X3.2988Y-6.4297
X3.2992Y-7.125
X3.3Y-1.675
X3.3Y-3.175
X3.3Y-4.25
X3.325Y-1.325
X3.325Y-2.6
X3.325Y-2.825
X3.325Y-3.525
X3.325Y-5.175
X3.325Y-5.75
X3.325Y-6.0
X3.325Y-6.1035
X3.325Y-6.35
X3.325Y-6.525
X3.325Y-6.7
X3.325Y-6.8
X3.325Y-7.225
X3.325Y-7.4
X3.3269Y-3.8685
X3.3285Y-7.0535
X3.35Y-0.375
X3.35Y-5.375
X3.35Y-5.425
X3.35Y-5.5
X3.375Y-0.475
X3.375Y-5.625
X3.375Y-5.725
X3.375Y-5.9
X3.375Y-6.4
X3.375Y-6.625
X3.375Y-7.15
X3.4Y-2.25
X3.4Y-5.05
X3.4Y-5.175
X3.4205Y-7.025
X3.425Y-1.225
X3.425Y-3.525
X3.425Y-3.5545
X3.425Y-5.425
X3.425Y-5.8
X3.425Y-6.15
X3.425Y-6.225
X3.425Y-6.525
X3.425Y-6.575
X3.425Y-6.85
X3.4264Y-5.8708
X3.427Y-6.9148
X3.4454Y-7.3663
X3.4497Y-6.9337
X3.45Y-0.025
X3.45Y-5.4
X3.4508Y-6.625
X3.4542Y-7.0292
X3.475Y-0.1
X3.475Y-5.6
X3.475Y-6.175
X3.4955Y-5.625
X3.5Y-0.45
X3.5Y-1.575
X3.5Y-3.775
X3.5Y-3.875
X3.5Y-5.75
X3.5Y-6.0
X3.5Y-6.1035
X3.5Y-6.35
X3.5Y-6.525
X3.5Y-6.7
X3.5Y-6.875
X3.5Y-7.05
X3.5Y-7.125
X3.525Y-3.55
X3.525Y-3.625
X3.525Y-5.575
X3.525Y-5.625
X3.5411Y-6.8911
X3.55Y-0.8
X3.55Y-5.275
X3.55Y-6.275
X3.575Y-2.5
X3.575Y-5.35
X3.6Y-0.175
X3.6Y-2.25
X3.6Y-2.6
X3.6Y-5.175
X3.6Y-5.275
X3.6Y-5.625
X3.6Y-5.8
X3.6Y-5.875
X3.6Y-6.15
X3.6Y-6.225
X3.6Y-6.525
X3.6Y-6.575
X3.6Y-6.925
X3.6Y-7.175
X3.625Y-3.075
X3.625Y-4.0
X3.625Y-4.825
X3.625Y-5.3
X3.625Y-6.425
X3.6264Y-2.0014
X3.6486Y-5.9413
X3.65Y-2.55
X3.65Y-4.9
X3.65Y-5.5
X3.6748Y-6.0018
X3.675Y-1.325
X3.675Y-2.725
X3.675Y-4.125
X3.675Y-5.575
X3.675Y-5.75
X3.675Y-6.1035
X3.675Y-6.45
X3.675Y-6.7
X3.675Y-6.8
X3.675Y-6.9
X3.675Y-7.225
X3.675Y-7.325
X3.675Y-7.4
X3.6782Y-6.3468
X3.6785Y-7.0535
X3.7Y-0.525
X3.7Y-2.375
X3.7Y-2.95
X3.7Y-3.95
X3.723Y-2.0212
X3.725Y-0.625
X3.725Y-0.975
X3.725Y-2.2
X3.725Y-2.925
X3.725Y-3.15
X3.725Y-4.225
X3.725Y-6.625
X3.725Y-6.975
X3.725Y-7.325
X3.75Y-1.675
X3.75Y-2.125
X3.75Y-3.075
X3.75Y-3.275
X3.75Y-4.125
X3.75Y-4.475
X3.775Y-3.225
X3.775Y-4.575
X3.775Y-5.8
X3.775Y-5.875
X3.775Y-6.15
X3.775Y-6.225
X3.775Y-6.525
X3.775Y-6.575
X3.8Y-0.125
X3.8Y-1.5
X3.8Y-3.3
X3.8Y-3.775
X3.8Y-5.625
X3.8242Y-1.925
X3.8242Y-6.05
X3.8242Y-6.25
X3.825Y-4.125
X3.825Y-6.9
X3.825Y-7.15
X3.8264Y-0.9736
X3.85Y0.15
X3.85Y0.025
X3.85Y-0.225
X3.85Y-0.325
X3.85Y-0.5
X3.85Y-0.675
X3.85Y-0.925
X3.85Y-1.0291
X3.85Y-1.125
X3.85Y-1.2791
X3.85Y-1.375
X3.85Y-1.625
X3.85Y-1.725
X3.85Y-1.975
X3.85Y-2.075
X3.85Y-2.325
X3.85Y-2.425
X3.85Y-2.6
X3.85Y-2.675
X3.85Y-2.775
X3.85Y-3.025
X3.85Y-3.125
X3.85Y-3.375
X3.85Y-3.475
X3.85Y-3.725
X3.85Y-3.825
X3.85Y-4.075
X3.85Y-4.175
X3.85Y-4.425
X3.85Y-4.575
X3.85Y-5.75
X3.85Y-6.0
X3.85Y-6.35
X3.85Y-6.45
X3.85Y-6.55
X3.85Y-6.7
X3.85Y-6.95
X3.85Y-7.225
X3.85Y-7.325
X3.85Y-7.4
X3.8503Y-6.1042
X3.8527Y-0.5708
X3.875Y-4.0
X3.9Y-1.075
X3.9Y-1.675
X3.9Y-2.2
X3.9Y-2.925
X3.9Y-3.075
X3.9Y-4.025
X3.9Y-4.475
X3.9148Y-5.7169
X3.925Y-5.05
X3.9338Y-6.2353
X3.9465Y-1.0837
X3.95Y-0.05
X3.95Y-0.1
X3.95Y-0.4
X3.95Y-0.45
X3.95Y-0.75
X3.95Y-0.8
X3.95Y-1.1514
X3.95Y-1.45
X3.95Y-1.5
X3.95Y-1.8
X3.95Y-1.85
X3.95Y-2.15
X3.95Y-2.2
X3.95Y-2.5
X3.95Y-2.55
X3.95Y-2.85
X3.95Y-2.9
X3.95Y-3.2
X3.95Y-3.25
X3.95Y-3.55
X3.95Y-3.6
X3.95Y-3.9
X3.95Y-3.95
X3.95Y-4.25
X3.95Y-4.3
X3.95Y-5.8
X3.95Y-5.875
X3.95Y-6.15
X3.95Y-6.9
X3.975Y-7.125
X4.0Y-5.625
X4.0Y-6.65
X4.0Y-7.4
X4.0195Y-5.7663
X4.0208Y-7.3208
X4.0248Y-1.0837
X4.0249Y-0.75
X4.025Y-0.05
X4.025Y-0.15
X4.025Y-0.225
X4.025Y-0.4
X4.025Y-0.575
X4.025Y-0.925
X4.025Y-1.2791
X4.025Y-1.45
X4.025Y-1.55
X4.025Y-1.625
X4.025Y-1.8
X4.025Y-1.975
X4.025Y-2.15
X4.025Y-2.325
X4.025Y-2.5
X4.025Y-2.6
X4.025Y-2.675
X4.025Y-2.85
X4.025Y-3.025
X4.025Y-3.2
X4.025Y-3.3
X4.025Y-3.375
X4.025Y-3.55
X4.025Y-3.725
X4.025Y-3.9
X4.025Y-4.075
X4.025Y-4.25
X4.025Y-4.35
X4.025Y-4.425
X4.025Y-4.525
X4.025Y-4.775
X4.025Y-6.0
X4.025Y-6.2
X4.025Y-6.35
X4.025Y-6.625
X4.025Y-6.8
X4.025Y-7.15
X4.025Y-7.225
X4.025Y-7.4
X4.0285Y-7.0535
X4.0465Y-6.1035
X4.05Y-3.65
X4.075Y-0.275
X4.075Y-0.625
X4.075Y-0.725
X4.075Y-1.075
X4.075Y-1.675
X4.075Y-2.1
X4.075Y-2.725
X4.075Y-3.425
X4.075Y-4.325
X4.075Y-5.05
X4.075Y-5.55
X4.075Y-6.75
X4.075Y-7.325
X4.077Y-5.4997
X4.1Y-5.375
X4.1Y-5.6
X4.1248Y-1.0837
X4.125Y-0.05
X4.125Y-0.1
X4.125Y-0.4
X4.125Y-0.45
X4.125Y-0.75
X4.125Y-0.8
X4.125Y-1.1514
X4.125Y-1.45
X4.125Y-1.5
X4.125Y-1.8
X4.125Y-1.85
X4.125Y-2.15
X4.125Y-2.2
X4.125Y-2.5
X4.125Y-2.55
X4.125Y-2.85
X4.125Y-2.9
X4.125Y-3.2
X4.125Y-3.25
X4.125Y-3.55
X4.125Y-3.6
X4.125Y-3.9
X4.125Y-3.95
X4.125Y-4.25
X4.125Y-4.3
X4.125Y-4.575
X4.125Y-4.65
X4.125Y-5.55
X4.125Y-5.625
X4.125Y-5.8
X4.125Y-5.875
X4.125Y-6.15
X4.125Y-6.225
X4.125Y-6.85
X4.125Y-6.925
X4.15Y-0.525
X4.15Y-2.625
X4.15Y-6.45
X4.1508Y-4.35
X4.1508Y-5.2986
X4.1672Y-5.391
X4.1699Y-4.689
X4.1742Y-2.725
X4.1742Y-4.825
X4.1742Y-7.35
X4.175Y-2.25
X4.187Y-5.4896
X4.1945Y-5.7663
X4.1984Y-5.1236
X4.1998Y-1.0837
X4.2Y0.125
X4.2Y-0.05
X4.2Y-0.15
X4.2Y-0.75
X4.2Y-0.925
X4.2Y-1.2791
X4.2Y-1.45
X4.2Y-1.625
X4.2Y-1.8
X4.2Y-1.975
X4.2Y-2.15
X4.2Y-2.325
X4.2Y-2.5
X4.2Y-2.675
X4.2Y-2.85
X4.2Y-3.025
X4.2Y-3.2
X4.2Y-3.375
X4.2Y-3.55
X4.2Y-3.725
X4.2Y-3.9
X4.2Y-4.075
X4.2Y-4.25
X4.2Y-4.425
X4.2Y-4.6
X4.2Y-4.775
X4.2Y-5.225
X4.2Y-6.0
X4.2Y-6.1035
X4.2Y-6.35
X4.2Y-6.45
X4.2Y-6.7
X4.2Y-6.875
X4.2Y-7.225
X4.2Y-7.325
X4.2Y-7.4
X4.2016Y-4.8734
X4.2035Y-7.0535
X4.2037Y-0.225
X4.2037Y-0.4
X4.2037Y-0.575
X4.225Y-2.6
X4.225Y-5.05
X4.225Y-5.575
X4.25Y-0.275
X4.25Y-1.325
X4.25Y-1.55
X4.25Y-2.025
X4.25Y-2.95
X4.25Y-3.775
X4.25Y-4.125
X4.25Y-4.825
X4.25Y-5.175
X4.25Y-5.55
X4.275Y-5.5
X4.2998Y-1.0837
X4.3Y-0.05
X4.3Y-0.1
X4.3Y-0.4
X4.3Y-0.45
X4.3Y-0.75
X4.3Y-0.8
X4.3Y-1.1514
X4.3Y-1.45
X4.3Y-1.5
X4.3Y-1.8
X4.3Y-1.85
X4.3Y-2.15
X4.3Y-2.2
X4.3Y-2.5
X4.3Y-2.55
X4.3Y-2.85
X4.3Y-2.9
X4.3Y-3.2
X4.3Y-3.25
X4.3Y-3.55
X4.3Y-3.6
X4.3Y-3.9
X4.3Y-3.95
X4.3Y-4.25
X4.3Y-4.3
X4.3Y-4.575
X4.3Y-4.65
X4.3Y-4.95
X4.3Y-5.0
X4.3Y-5.275
X4.3Y-5.35
X4.3Y-5.625
X4.3Y-5.8
X4.3Y-5.875
X4.3Y-6.15
X4.3Y-6.225
X4.3Y-6.575
X4.3Y-6.925
X4.3Y-7.2
X4.3208Y-7.2792
X4.325Y-5.025
X4.325Y-5.575
X4.325Y-5.725
X4.325Y-6.425
X4.3492Y-1.25
X4.3492Y-1.25
X4.35Y-5.05
X4.3725Y-1.2053
X4.375Y-0.05
X4.375Y-0.15
X4.375Y-0.225
X4.375Y-0.4
X4.375Y-0.5
X4.375Y-0.575
X4.375Y-0.75
X4.375Y-0.85
X4.375Y-0.925
X4.375Y-1.2791
X4.375Y-1.45
X4.375Y-1.55
X4.375Y-1.625
X4.375Y-1.8
X4.375Y-1.9
X4.375Y-1.975
X4.375Y-2.15
X4.375Y-2.25
X4.375Y-2.325
X4.375Y-2.5
X4.375Y-2.6
X4.375Y-2.675
X4.375Y-2.85
X4.375Y-2.95
X4.375Y-3.025
X4.375Y-3.2
X4.375Y-3.3
X4.375Y-3.375
X4.375Y-3.55
X4.375Y-3.65
X4.375Y-3.725
X4.375Y-3.9
X4.375Y-4.0
X4.375Y-4.075
X4.375Y-4.25
X4.375Y-4.35
X4.375Y-4.425
X4.375Y-4.6
X4.375Y-4.775
X4.375Y-4.95
X4.375Y-5.3
X4.375Y-5.475
X4.375Y-5.55
X4.375Y-5.75
X4.375Y-6.0
X4.375Y-6.1
X4.375Y-6.35
X4.375Y-6.45
X4.375Y-6.625
X4.375Y-6.7
X4.375Y-6.8
X4.375Y-6.9
X4.375Y-7.225
X4.375Y-7.325
X4.375Y-7.4
X4.3766Y-5.1236
X4.3785Y-7.0535
X4.3861Y-1.0837
X4.4Y-2.875
X4.4161Y-0.0589
X4.4161Y-0.4089
X4.4161Y-0.7589
X4.4161Y-1.1014
X4.4161Y-1.4661
X4.4161Y-1.8089
X4.4161Y-2.1589
X4.4161Y-2.5089
X4.4161Y-3.2089
X4.4161Y-3.5661
X4.4161Y-3.9089
X4.4161Y-4.2661
X4.4161Y-5.3161
X4.425Y-4.625
X4.425Y-4.95
X4.425Y-6.875
X4.425Y-7.35
X4.4713Y-6.1492
X4.4713Y-6.225
X4.4713Y-6.5
X4.4713Y-6.575
X4.4713Y-6.675
X4.475Y-0.1
X4.475Y-0.45
X4.475Y-0.8
X4.475Y-1.1736
X4.475Y-1.5
X4.475Y-1.85
X4.475Y-2.2
X4.475Y-2.55
X4.475Y-2.9
X4.475Y-3.25
X4.475Y-3.6
X4.475Y-3.95
X4.475Y-4.3
X4.475Y-4.65
X4.475Y-5.0
X4.475Y-5.35
X4.475Y-5.8
X4.475Y-5.875
X4.5Y-4.225
X4.5Y-5.025
X4.5Y-5.5
X4.5Y-7.175
X4.5067Y-7.2986
X4.5242Y-5.275
X4.5424Y-1.1486
X4.5486Y-5.1236
X4.55Y0.025
X4.55Y-0.075
X4.55Y-0.225
X4.55Y-0.325
X4.55Y-0.425
X4.55Y-0.575
X4.55Y-0.675
X4.55Y-0.775
X4.55Y-0.925
X4.55Y-1.0291
X4.55Y-1.2791
X4.55Y-1.375
X4.55Y-1.475
X4.55Y-1.625
X4.55Y-1.725
X4.55Y-1.825
X4.55Y-1.975
X4.55Y-2.075
X4.55Y-2.175
X4.55Y-2.325
X4.55Y-2.425
X4.55Y-2.525
X4.55Y-2.675
X4.55Y-2.775
X4.55Y-2.875
X4.55Y-3.025
X4.55Y-3.125
X4.55Y-3.225
X4.55Y-3.375
X4.55Y-3.475
X4.55Y-3.575
X4.55Y-3.725
X4.55Y-3.825
X4.55Y-3.925
X4.55Y-4.075
X4.55Y-4.175
X4.55Y-4.275
X4.55Y-4.425
X4.55Y-4.525
X4.55Y-4.625
X4.55Y-4.775
X4.55Y-4.9825
X4.55Y-5.225
X4.55Y-5.325
X4.55Y-5.475
X4.55Y-5.75
X4.55Y-5.85
X4.55Y-6.0
X4.55Y-6.1
X4.55Y-6.2
X4.55Y-6.35
X4.55Y-6.45
X4.55Y-6.7
X4.55Y-7.225
X4.55Y-7.4
X4.5516Y-4.8734
X4.575Y-6.85
X4.6Y-6.275
X4.6394Y-5.8486
X4.65Y-0.025
X4.65Y-0.1
X4.65Y-0.375
X4.65Y-0.45
X4.65Y-0.725
X4.65Y-0.8
X4.65Y-1.0791
X4.65Y-1.1514
X4.65Y-1.425
X4.65Y-1.5
X4.65Y-1.775
X4.65Y-1.85
X4.65Y-2.125
X4.65Y-2.2
X4.65Y-2.475
X4.65Y-2.55
X4.65Y-2.825
X4.65Y-2.9
X4.65Y-3.175
X4.65Y-3.25
X4.65Y-3.525
X4.65Y-3.6
X4.65Y-3.875
X4.65Y-3.95
X4.65Y-4.225
X4.65Y-4.3
X4.65Y-4.575
X4.65Y-4.65
X4.65Y-4.925
X4.65Y-5.0
X4.65Y-5.275
X4.65Y-5.35
X4.65Y-6.5
X4.65Y-6.575
X4.675Y-1.125
X4.675Y-2.5
X4.675Y-6.525
X4.675Y-7.025
X4.675Y-7.2
X4.6758Y-6.275
X4.6992Y-6.95
X4.7083Y-0.1264
X4.7215Y-7.0535
X4.7234Y-5.1236
X4.725Y-0.05
X4.725Y-0.225
X4.725Y-0.4
X4.725Y-0.5
X4.725Y-0.575
X4.725Y-0.75
X4.725Y-0.85
X4.725Y-0.925
X4.725Y-1.1041
X4.725Y-1.2014
X4.725Y-1.2791
X4.725Y-1.45
X4.725Y-1.55
X4.725Y-1.625
X4.725Y-1.8
X4.725Y-1.9
X4.725Y-1.975
X4.725Y-2.15
X4.725Y-2.25
X4.725Y-2.325
X4.725Y-2.5
X4.725Y-2.6
X4.725Y-2.675
X4.725Y-2.85
X4.725Y-2.95
X4.725Y-3.025
X4.725Y-3.2
X4.725Y-3.3
X4.725Y-3.375
X4.725Y-3.55
X4.725Y-3.65
X4.725Y-3.725
X4.725Y-3.9
X4.725Y-4.0
X4.725Y-4.075
X4.725Y-4.25
X4.725Y-4.35
X4.725Y-4.425
X4.725Y-4.6
X4.725Y-4.775
X4.725Y-4.95
X4.725Y-5.3
X4.725Y-5.475
X4.725Y-5.8
X4.725Y-6.45
X4.725Y-6.7
X4.725Y-6.8
X4.725Y-6.975
X4.725Y-7.225
X4.725Y-7.4
X4.7661Y-4.6161
X4.7661Y-4.9589
X4.7661Y-5.3161
X4.775Y-5.975
X4.775Y-6.275
X4.775Y-7.325
X4.7839Y-6.5388
X4.8Y-6.025
X4.8Y-6.9
X4.825Y-0.1
X4.825Y-0.45
X4.825Y-0.8
X4.825Y-1.1514
X4.825Y-1.5
X4.825Y-1.85
X4.825Y-2.2
X4.825Y-2.55
X4.825Y-2.9
X4.825Y-3.25
X4.825Y-3.6
X4.825Y-3.95
X4.825Y-4.3
X4.825Y-4.65
X4.825Y-5.0
X4.825Y-5.35
X4.825Y-6.575
X4.825Y-7.025
X4.8254Y-6.4975
X4.85Y-3.225
X4.85Y-5.7
X4.85Y-6.2
X4.85Y-6.275
X4.85Y-7.175
X4.8742Y-4.3
X4.8742Y-6.75
X4.875Y-1.9
X4.875Y-5.675
X4.9Y0.025
X4.9Y-0.075
X4.9Y-0.225
X4.9Y-0.325
X4.9Y-0.425
X4.9Y-0.575
X4.9Y-0.675
X4.9Y-0.775
X4.9Y-0.925
X4.9Y-1.0291
X4.9Y-1.1291
X4.9Y-1.2791
X4.9Y-1.375
X4.9Y-1.475
X4.9Y-1.625
X4.9Y-1.725
X4.9Y-1.825
X4.9Y-1.975
X4.9Y-2.075
X4.9Y-2.175
X4.9Y-2.325
X4.9Y-2.425
X4.9Y-2.525
X4.9Y-2.675
X4.9Y-2.775
X4.9Y-2.875
X4.9Y-3.025
X4.9Y-3.125
X4.9Y-3.225
X4.9Y-3.375
X4.9Y-3.475
X4.9Y-3.575
X4.9Y-3.725
X4.9Y-3.825
X4.9Y-3.925
X4.9Y-4.075
X4.9Y-4.175
X4.9Y-4.275
X4.9Y-4.425
X4.9Y-4.525
X4.9Y-4.625
X4.9Y-4.775
X4.9Y-5.05
X4.9Y-5.225
X4.9Y-5.325
X4.9Y-5.475
X4.9Y-6.1035
X4.9Y-6.35
X4.9Y-6.45
X4.9Y-6.7
X4.9Y-6.875
X4.9Y-7.225
X4.9Y-7.325
X4.9Y-7.4
X4.9016Y-4.8734
X4.9016Y-5.1236
X4.9035Y-7.0535
X4.925Y-5.4
X4.9411Y-6.8839
X4.95Y-6.95
X4.95Y-7.275
X4.9894Y-0.0606
X4.9894Y-0.4144
X4.9894Y-0.7644
X4.9894Y-1.4606
X4.9894Y-2.5144
X4.9894Y-3.9144
X4.9894Y-4.9856
X4.9894Y-6.8856
X5.0Y-1.125
X5.0Y-1.825
X5.0Y-2.175
X5.0Y-2.875
X5.0Y-3.225
X5.0Y-3.575
X5.0Y-4.375
X5.0Y-4.625
X5.0Y-5.325
X5.0Y-6.0
X5.0Y-6.225
X5.0Y-6.575
X5.0Y-7.025
X5.0004Y-6.4975
X5.025Y-5.6
X5.025Y-6.4
X5.05Y0.125
X5.05Y-0.975
X5.05Y-1.525
X5.05Y-5.9
X5.075Y-0.275
X5.075Y-0.85
X5.075Y-1.15
X5.075Y-2.15
X5.075Y-3.775
X5.075Y-6.0
X5.075Y-6.1035
X5.075Y-6.35
X5.075Y-6.45
X5.075Y-6.55
X5.075Y-6.7
X5.075Y-6.8
X5.075Y-7.225
X5.075Y-7.325
X5.075Y-7.4
X5.0965Y-7.0535
X5.1Y0.125
X5.1Y-0.725
X5.1Y-1.675
X5.1Y-2.85
X5.1Y-4.125
X5.1Y-7.4
X5.1161Y-6.8911
X5.125Y-0.825
X5.125Y-2.9
X5.125Y-4.25
X5.125Y-4.3
X5.125Y-5.5
X5.125Y-5.975
X5.15Y0.1
X5.15Y-0.975
X5.1667Y-6.5486
X5.175Y-0.8
X5.175Y-4.125
X5.175Y-6.15
X5.175Y-6.225
X5.175Y-7.375
X5.2Y-2.25
X5.2Y-3.075
X5.2Y-3.425
X5.2Y-4.025
X5.2Y-6.0
X5.2Y-6.3
X5.225Y0.15
X5.225Y-2.7
X5.225Y-4.25
X5.225Y-5.975
X5.225Y-6.975
X5.2458Y-3.3708
X5.2499Y-3.125
X5.25Y0.025
X5.25Y-0.225
X5.25Y-0.325
X5.25Y-0.575
X5.25Y-0.675
X5.25Y-0.925
X5.25Y-1.025
X5.25Y-1.2
X5.25Y-1.275
X5.25Y-1.375
X5.25Y-1.625
X5.25Y-1.725
X5.25Y-1.9
X5.25Y-1.975
X5.25Y-2.075
X5.25Y-2.325
X5.25Y-2.425
X5.25Y-2.675
X5.25Y-2.775
X5.25Y-3.025
X5.25Y-3.3
X5.25Y-3.475
X5.25Y-3.725
X5.25Y-3.825
X5.25Y-4.0
X5.25Y-4.075
X5.25Y-4.6
X5.25Y-5.775
X5.25Y-6.1035
X5.25Y-6.35
X5.275Y0.125
X5.275Y-2.95
X5.275Y-4.325
X5.275Y-5.975
X5.3Y-0.625
X5.3Y-0.975
X5.3Y-1.525
X5.3Y-1.675
X5.3Y-2.1
X5.3Y-4.2205
X5.3Y-4.25
X5.3Y-6.5
X5.3Y-6.55
X5.325Y-4.275
X5.325Y-5.275
X5.325Y-5.35
X5.325Y-7.375
X5.3298Y-6.4614
X5.35Y-0.05
X5.35Y-0.1
X5.35Y-0.4
X5.35Y-0.45
X5.35Y-0.75
X5.35Y-0.8
X5.35Y-1.1
X5.35Y-1.15
X5.35Y-1.45
X5.35Y-1.5
X5.35Y-1.8
X5.35Y-1.85
X5.35Y-2.15
X5.35Y-2.2
X5.35Y-2.5
X5.35Y-2.55
X5.35Y-2.85
X5.35Y-2.9
X5.35Y-3.2
X5.35Y-3.25
X5.35Y-3.55
X5.35Y-3.6
X5.35Y-3.9
X5.35Y-3.95
X5.35Y-5.25
X5.35Y-6.15
X5.35Y-6.225
X5.375Y-3.075
X5.375Y-4.125
X5.375Y-6.55
X5.3769Y-6.4752
X5.3992Y-2.575
X5.3992Y-3.425
X5.4Y-4.3
X5.4Y-5.55
X5.4Y-6.025
X5.4Y-6.4
X5.4Y-6.525
X5.425Y0.1
X5.425Y-0.05
X5.425Y-0.225
X5.425Y-0.4
X5.425Y-0.575
X5.425Y-0.75
X5.425Y-0.925
X5.425Y-1.1
X5.425Y-1.275
X5.425Y-1.45
X5.425Y-1.55
X5.425Y-1.625
X5.425Y-1.8
X5.425Y-1.9
X5.425Y-1.975
X5.425Y-2.15
X5.425Y-2.325
X5.425Y-2.5
X5.425Y-2.6
X5.425Y-2.675
X5.425Y-2.85
X5.425Y-3.025
X5.425Y-3.2
X5.425Y-3.375
X5.425Y-3.55
X5.425Y-3.65
X5.425Y-3.725
X5.425Y-3.9
X5.425Y-4.075
X5.425Y-4.525
X5.425Y-4.775
X5.425Y-6.1035
X5.425Y-6.35
X5.425Y-6.7
X5.425Y-6.8035
X5.425Y-7.05
X5.427Y-6.4538
X5.45Y-0.85
X5.45Y-2.25
X5.45Y-2.95
X5.45Y-4.225
X5.45Y-4.925
X5.45Y-6.975
X5.4708Y-3.7708
X5.475Y-0.275
X5.475Y-1.675
X5.475Y-4.275
X5.5Y-7.275
X5.525Y-0.05
X5.525Y-0.1
X5.525Y-0.4
X5.525Y-0.45
X5.525Y-0.75
X5.525Y-0.8
X5.525Y-1.1
X5.525Y-1.15
X5.525Y-1.45
X5.525Y-1.5
X5.525Y-1.8
X5.525Y-1.85
X5.525Y-2.15
X5.525Y-2.2
X5.525Y-2.5
X5.525Y-2.55
X5.525Y-2.85
X5.525Y-2.9
X5.525Y-3.2
X5.525Y-3.25
X5.525Y-3.55
X5.525Y-3.6
X5.525Y-3.9
X5.525Y-3.95
X5.525Y-4.275
X5.525Y-4.575
X5.525Y-4.65
X5.525Y-6.15
X5.525Y-6.225
X5.525Y-6.575
X5.525Y-6.925
X5.55Y-4.325
X5.55Y-4.6
X5.55Y-5.05
X5.55Y-5.825
X5.5508Y-4.7
X5.5746Y-4.825
X5.575Y-4.125
X5.575Y-5.3
X5.597Y-3.1945
X5.5984Y-4.8734
X5.5999Y-3.55
X5.6Y-0.05
X5.6Y-0.225
X5.6Y-0.4
X5.6Y-0.575
X5.6Y-0.75
X5.6Y-0.85
X5.6Y-0.925
X5.6Y-1.1
X5.6Y-1.275
X5.6Y-1.45
X5.6Y-1.625
X5.6Y-1.8
X5.6Y-1.975
X5.6Y-2.15
X5.6Y-2.25
X5.6Y-2.325
X5.6Y-2.5
X5.6Y-2.6
X5.6Y-2.675
X5.6Y-2.85
X5.6Y-3.025
X5.6Y-3.375
X5.6Y-3.725
X5.6Y-3.9
X5.6Y-4.075
X5.6Y-4.175
X5.6Y-4.425
X5.6Y-4.6
X5.6Y-4.775
X5.6Y-6.1035
X5.6Y-6.35
X5.6Y-6.45
X5.6Y-6.7
X5.6Y-6.8035
X5.6Y-7.05
X5.6016Y-5.1236
X5.625Y-0.15
X5.625Y-0.5
X5.625Y-1.55
X5.625Y-5.05
X5.625Y-5.275
X5.6416Y-3.075
X5.65Y-0.975
X5.65Y-2.375
X5.65Y-2.725
X5.65Y-6.2
X5.675Y-5.95
X5.7Y-0.05
X5.7Y-0.1
X5.7Y-0.4
X5.7Y-0.45
X5.7Y-0.75
X5.7Y-0.8
X5.7Y-1.1
X5.7Y-1.15
X5.7Y-1.45
X5.7Y-1.5
X5.7Y-1.8
X5.7Y-1.85
X5.7Y-2.15
X5.7Y-2.2
X5.7Y-2.5
X5.7Y-2.55
X5.7Y-2.85
X5.7Y-2.9
X5.7Y-3.2
X5.7Y-3.25
X5.7Y-3.55
X5.7Y-3.6
X5.7Y-3.9
X5.7Y-3.95
X5.7Y-4.225
X5.7Y-4.3
X5.7Y-4.575
X5.7Y-4.65
X5.7Y-4.925
X5.7Y-5.0093
X5.7Y-6.15
X5.7Y-6.225
X5.7Y-6.5
X5.7Y-6.575
X5.7Y-6.85
X5.7Y-6.925
X5.7Y-7.175
X5.725Y-2.2
X5.7492Y-2.575
X5.75Y-4.275
X5.75Y-5.4
X5.7736Y-4.9407
X5.775Y-0.05
X5.775Y-0.15
X5.775Y-0.225
X5.775Y-0.4
X5.775Y-0.5
X5.775Y-0.575
X5.775Y-0.75
X5.775Y-0.85
X5.775Y-0.925
X5.775Y-1.1
X5.775Y-1.2
X5.775Y-1.275
X5.775Y-1.45
X5.775Y-1.55
X5.775Y-1.625
X5.775Y-1.8
X5.775Y-1.9
X5.775Y-1.975
X5.775Y-2.15
X5.775Y-2.25
X5.775Y-2.325
X5.775Y-2.5
X5.775Y-2.6
X5.775Y-2.675
X5.775Y-2.85
X5.775Y-2.95
X5.775Y-3.025
X5.775Y-3.2
X5.775Y-3.3
X5.775Y-3.375
X5.775Y-3.55
X5.775Y-3.65
X5.775Y-3.725
X5.775Y-3.9
X5.775Y-4.0
X5.775Y-4.075
X5.775Y-4.25
X5.775Y-4.35
X5.775Y-4.425
X5.775Y-4.6
X5.775Y-4.775
X5.775Y-5.275
X5.775Y-6.35
X5.775Y-6.45
X5.775Y-6.7
X5.775Y-6.8035
X5.775Y-7.05
X5.775Y-6.0972
X5.7766Y-5.1236
X5.8Y-7.15
X5.8161Y-0.0589
X5.8161Y-0.4089
X5.8161Y-0.7661
X5.8161Y-1.1161
X5.8161Y-1.4589
X5.8161Y-1.8089
X5.8161Y-2.1589
X5.8161Y-2.5089
X5.8161Y-2.8661
X5.8161Y-3.2161
X5.8161Y-3.5589
X5.8161Y-3.9089
X5.825Y-4.125
X5.825Y-4.625
X5.825Y-4.95
X5.8648Y-4.9898
X5.875Y-0.1
X5.875Y-0.45
X5.875Y-0.8
X5.875Y-1.15
X5.875Y-1.5
X5.875Y-1.85
X5.875Y-2.2
X5.875Y-2.55
X5.875Y-2.9
X5.875Y-3.25
X5.875Y-3.6
X5.875Y-3.95
X5.875Y-4.3
X5.875Y-4.65
X5.875Y-6.15
X5.875Y-6.225
X5.875Y-6.5
X5.875Y-6.575
X5.875Y-6.85
X5.875Y-6.925
X5.9Y-1.925
X5.9Y-5.35
X5.9Y-5.65
X5.9Y-7.125
X5.925Y-4.7
X5.925Y-6.55
X5.9405Y-6.8059
X5.95Y0.025
X5.95Y-0.075
X5.95Y-0.225
X5.95Y-0.325
X5.95Y-0.425
X5.95Y-0.575
X5.95Y-0.675
X5.95Y-0.775
X5.95Y-0.925
X5.95Y-1.025
X5.95Y-1.125
X5.95Y-1.275
X5.95Y-1.375
X5.95Y-1.475
X5.95Y-1.625
X5.95Y-1.725
X5.95Y-1.825
X5.95Y-1.975
X5.95Y-2.075
X5.95Y-2.175
X5.95Y-2.325
X5.95Y-2.425
X5.95Y-2.525
X5.95Y-2.675
X5.95Y-2.775
X5.95Y-2.875
X5.95Y-3.025
X5.95Y-3.125
X5.95Y-3.225
X5.95Y-3.375
X5.95Y-3.475
X5.95Y-3.575
X5.95Y-3.725
X5.95Y-3.825
X5.95Y-3.925
X5.95Y-4.075
X5.95Y-4.175
X5.95Y-4.25
X5.95Y-4.425
X5.95Y-4.525
X5.95Y-4.625
X5.95Y-4.775
X5.95Y-4.975
X5.95Y-6.1035
X5.95Y-6.35
X5.95Y-6.45
X5.95Y-6.7
X5.95Y-7.05
X5.9516Y-4.8734
X5.9516Y-5.1236
X6.0Y-4.125
X6.0Y-7.1
X6.05Y-0.025
X6.05Y-0.1
X6.05Y-0.375
X6.05Y-0.45
X6.05Y-0.725
X6.05Y-0.8
X6.05Y-1.075
X6.05Y-1.15
X6.05Y-1.425
X6.05Y-1.5
X6.05Y-1.775
X6.05Y-1.85
X6.05Y-2.125
X6.05Y-2.2
X6.05Y-2.475
X6.05Y-2.55
X6.05Y-2.825
X6.05Y-2.9
X6.05Y-3.175
X6.05Y-3.25
X6.05Y-3.525
X6.05Y-3.6
X6.05Y-3.875
X6.05Y-3.95
X6.05Y-4.25
X6.05Y-4.3
X6.05Y-4.575
X6.05Y-4.65
X6.05Y-4.95
X6.05Y-5.0
X6.05Y-6.15
X6.05Y-6.225
X6.05Y-6.5
X6.05Y-6.575
X6.05Y-6.85
X6.05Y-6.925
X6.075Y-5.85
X6.0758Y-4.7
X6.1Y-5.525
X6.125Y-0.05
X6.125Y-0.15
X6.125Y-0.225
X6.125Y-0.4
X6.125Y-0.5
X6.125Y-0.575
X6.125Y-0.75
X6.125Y-0.85
X6.125Y-0.925
X6.125Y-1.1
X6.125Y-1.2
X6.125Y-1.275
X6.125Y-1.45
X6.125Y-1.55
X6.125Y-1.625
X6.125Y-1.8
X6.125Y-1.9
X6.125Y-1.975
X6.125Y-2.15
X6.125Y-2.25
X6.125Y-2.325
X6.125Y-2.5
X6.125Y-2.6
X6.125Y-2.675
X6.125Y-2.85
X6.125Y-2.95
X6.125Y-3.025
X6.125Y-3.2
X6.125Y-3.3
X6.125Y-3.375
X6.125Y-3.55
X6.125Y-3.65
X6.125Y-3.725
X6.125Y-3.9
X6.125Y-4.0
X6.125Y-4.075
X6.125Y-4.35
X6.125Y-4.425
X6.125Y-4.5925
X6.125Y-4.775
X6.125Y-5.225
X6.125Y-5.475
X6.125Y-6.1
X6.125Y-6.45
X6.125Y-6.7
X6.125Y-6.8
X6.125Y-7.05
X6.1266Y-5.1236
X6.1447Y-4.9456
X6.15Y-4.25
X6.15Y-5.3
X6.15Y-5.575
X6.15Y-6.35
X6.15Y-7.1
X6.15Y-7.275
X6.1661Y-4.6161
X6.1736Y-4.9514
X6.175Y-6.2
X6.2Y-5.925
X6.2148Y-4.9898
X6.225Y-0.1
X6.225Y-0.45
X6.225Y-0.8
X6.225Y-1.15
X6.225Y-1.5
X6.225Y-1.85
X6.225Y-2.2
X6.225Y-2.55
X6.225Y-2.9
X6.225Y-3.25
X6.225Y-3.6
X6.225Y-3.95
X6.225Y-4.3
X6.225Y-4.65
X6.225Y-5.275
X6.225Y-5.35
X6.225Y-6.15
X6.225Y-6.225
X6.225Y-6.5
X6.225Y-6.575
X6.225Y-6.85
X6.225Y-6.925
X6.2742Y-2.725
X6.275Y-5.625
X6.275Y-6.175
X6.275Y-6.275
X6.275Y-7.15
X6.3Y0.025
X6.3Y-0.075
X6.3Y-0.225
X6.3Y-0.325
X6.3Y-0.425
X6.3Y-0.575
X6.3Y-0.675
X6.3Y-0.775
X6.3Y-0.925
X6.3Y-1.025
X6.3Y-1.125
X6.3Y-1.275
X6.3Y-1.375
X6.3Y-1.475
X6.3Y-1.625
X6.3Y-1.725
X6.3Y-1.825
X6.3Y-1.975
X6.3Y-2.075
X6.3Y-2.175
X6.3Y-2.325
X6.3Y-2.425
X6.3Y-2.525
X6.3Y-2.675
X6.3Y-2.775
X6.3Y-2.875
X6.3Y-3.025
X6.3Y-3.125
X6.3Y-3.225
X6.3Y-3.375
X6.3Y-3.475
X6.3Y-3.575
X6.3Y-3.725
X6.3Y-3.825
X6.3Y-3.925
X6.3Y-4.075
X6.3Y-4.175
X6.3Y-4.275
X6.3Y-4.425
X6.3Y-4.525
X6.3Y-4.625
X6.3Y-4.775
X6.3Y-5.3
X6.3Y-5.475
X6.3Y-6.1
X6.3Y-6.2
X6.3Y-6.35
X6.3Y-6.45
X6.3Y-6.55
X6.3Y-6.7
X6.3Y-6.8
X6.3Y-6.9
X6.3Y-7.05
X6.3016Y-4.8734
X6.3234Y-5.1236
X6.3415Y-4.9665
X6.35Y-5.8
X6.4Y-0.2
X6.4Y-0.6
X6.4Y-0.9
X6.4Y-1.15
X6.4Y-1.6
X6.4Y-1.95
X6.4Y-2.3
X6.4Y-2.65
X6.4Y-3.0
X6.4Y-3.35
X6.4Y-3.7
X6.4Y-4.05
X6.4Y-4.4
X6.4Y-4.75
X6.4Y-5.1
X6.4Y-5.35
X6.4Y-6.325
X6.4Y-7.1
X6.425Y-6.175
X6.425Y-7.175
X6.4715Y-7.2285
T2
X0.6285Y-0.225
X0.6285Y-0.5715
X0.6285Y-0.9215
X0.6285Y-1.2785
X0.6285Y-1.6285
X0.6285Y-1.9965
X0.6285Y-2.3215
X0.6285Y-2.6715
X0.6285Y-3.0215
X0.6285Y-3.3715
X0.6285Y-3.7215
X0.6285Y-4.0715
X0.6285Y-4.4035
X0.6285Y-4.7715
X0.6285Y-5.1215
X0.6285Y-5.4715
X0.6285Y-6.0035
X0.6285Y-6.3535
X0.6285Y-6.6965
X0.6285Y-7.0535
X0.6285Y-7.4035
X6.4715Y0.025
X6.4715Y-0.3285
X6.4715Y-0.6715
X6.4715Y-1.0215
X6.4715Y-1.3785
X6.4715Y-1.7215
X6.4715Y-2.0715
X6.4715Y-2.4285
X6.4715Y-2.7785
X6.4715Y-3.1215
X6.4715Y-3.4785
X6.4715Y-3.8285
X6.4715Y-4.1785
X6.4715Y-4.5285
X6.4715Y-4.8785
X6.4715Y-5.2285
X6.4715Y-5.7715
X6.4715Y-6.0965
X6.4715Y-6.4465
X6.4715Y-6.7965
T3
X0.7055Y-0.025
X0.7332Y0.0418
X0.7332Y-0.0918
X0.8Y0.0695
X0.8Y-0.1195
X0.8668Y0.0418
X0.8668Y-0.0918
X0.8945Y-0.025
X6.2055Y-7.4
X6.2332Y-7.3332
X6.2332Y-7.4668
X6.3Y-7.3055
X6.3Y-7.4945
X6.3668Y-7.3332
X6.3668Y-7.4668
X6.3945Y-7.4
T4
X1.8Y-7.5
X1.9Y-7.5
X2.0Y-7.5
X2.1Y-7.5
X2.2Y-7.5
X2.3Y-7.5
X2.4Y-7.5
X2.5Y-7.5
X2.6Y-7.5
X2.7Y-7.5
X2.9Y-7.5
X3.0Y-7.5
X3.1Y-7.5
X3.2Y-7.5
X3.3Y-7.5
X3.4Y-7.5
X3.5Y-7.5
X3.6Y-7.5
X3.7Y-7.5
X3.8Y-7.5
X4.0Y-7.5
X4.1Y-7.5
X4.2Y-7.5
X4.3Y-7.5
X4.4Y-7.5
X4.5Y-7.5
X4.6Y-7.5
X4.7Y-7.5
X4.8Y-7.5
X4.9Y-7.5
X5.1Y-7.5
X5.2Y-7.5
X5.3Y-7.5
X5.4Y-7.5
X5.5Y-7.5
X5.6Y-7.5
X5.7Y-7.5
X5.8Y-7.5
X5.9Y-7.5
X6.0Y-7.5
T5
X0.8Y-0.025
X6.3Y-7.4
T0
M30
