%TF.GenerationSoftware,KiCad,Pcbnew,(5.1.9)-1*%
%TF.CreationDate,2021-05-23T14:49:51+02:00*%
%TF.ProjectId,Engine,456e6769-6e65-42e6-9b69-6361645f7063,v1.0*%
%TF.SameCoordinates,Original*%
%TF.FileFunction,Soldermask,Bot*%
%TF.FilePolarity,Negative*%
%FSLAX46Y46*%
G04 Gerber Fmt 4.6, Leading zero omitted, Abs format (unit mm)*
G04 Created by KiCad (PCBNEW (5.1.9)-1) date 2021-05-23 14:49:51*
%MOMM*%
%LPD*%
G01*
G04 APERTURE LIST*
%ADD10O,1.700000X1.700000*%
%ADD11R,1.700000X1.700000*%
%ADD12C,0.800000*%
%ADD13C,6.400000*%
G04 APERTURE END LIST*
D10*
%TO.C,J5*%
X152400000Y-190500000D03*
X149860000Y-190500000D03*
X147320000Y-190500000D03*
X144780000Y-190500000D03*
X142240000Y-190500000D03*
X139700000Y-190500000D03*
X137160000Y-190500000D03*
X134620000Y-190500000D03*
X132080000Y-190500000D03*
D11*
X129540000Y-190500000D03*
%TD*%
D10*
%TO.C,J4*%
X124460000Y-190500000D03*
X121920000Y-190500000D03*
X119380000Y-190500000D03*
X116840000Y-190500000D03*
X114300000Y-190500000D03*
X111760000Y-190500000D03*
X109220000Y-190500000D03*
X106680000Y-190500000D03*
X104140000Y-190500000D03*
D11*
X101600000Y-190500000D03*
%TD*%
D10*
%TO.C,J3*%
X96520000Y-190500000D03*
X93980000Y-190500000D03*
X91440000Y-190500000D03*
X88900000Y-190500000D03*
X86360000Y-190500000D03*
X83820000Y-190500000D03*
X81280000Y-190500000D03*
X78740000Y-190500000D03*
X76200000Y-190500000D03*
D11*
X73660000Y-190500000D03*
%TD*%
D10*
%TO.C,J1*%
X68580000Y-190500000D03*
X66040000Y-190500000D03*
X63500000Y-190500000D03*
X60960000Y-190500000D03*
X58420000Y-190500000D03*
X55880000Y-190500000D03*
X53340000Y-190500000D03*
X50800000Y-190500000D03*
X48260000Y-190500000D03*
D11*
X45720000Y-190500000D03*
%TD*%
D12*
%TO.C,H2*%
X22017056Y1062056D03*
X20320000Y1765000D03*
X18622944Y1062056D03*
X17920000Y-635000D03*
X18622944Y-2332056D03*
X20320000Y-3035000D03*
X22017056Y-2332056D03*
X22720000Y-635000D03*
D13*
X20320000Y-635000D03*
%TD*%
D12*
%TO.C,H1*%
X161717056Y-186262944D03*
X160020000Y-185560000D03*
X158322944Y-186262944D03*
X157620000Y-187960000D03*
X158322944Y-189657056D03*
X160020000Y-190360000D03*
X161717056Y-189657056D03*
X162420000Y-187960000D03*
D13*
X160020000Y-187960000D03*
%TD*%
M02*
