%TF.GenerationSoftware,KiCad,Pcbnew,(5.1.10)-1*%
%TF.CreationDate,2022-02-07T00:04:58+01:00*%
%TF.ProjectId,Engine,456e6769-6e65-42e6-9b69-6361645f7063,v1.0*%
%TF.SameCoordinates,Original*%
%TF.FileFunction,Soldermask,Top*%
%TF.FilePolarity,Negative*%
%FSLAX46Y46*%
G04 Gerber Fmt 4.6, Leading zero omitted, Abs format (unit mm)*
G04 Created by KiCad (PCBNEW (5.1.10)-1) date 2022-02-07 00:04:58*
%MOMM*%
%LPD*%
G01*
G04 APERTURE LIST*
%ADD10C,1.300000*%
%ADD11R,0.900000X0.800000*%
%ADD12O,1.700000X1.700000*%
%ADD13R,1.700000X1.700000*%
%ADD14C,0.800000*%
%ADD15C,6.400000*%
G04 APERTURE END LIST*
D10*
%TO.C,H5*%
X24750000Y1750000D03*
%TD*%
%TO.C,H4*%
X17750000Y-190500000D03*
%TD*%
%TO.C,H3*%
X155750000Y-190500000D03*
%TD*%
D11*
%TO.C,Q277*%
X122285000Y-114935000D03*
X120285000Y-115885000D03*
X120285000Y-113985000D03*
%TD*%
%TO.C,Q910*%
X126730000Y-30585000D03*
X124730000Y-31535000D03*
X124730000Y-29635000D03*
%TD*%
%TO.C,Q909*%
X126730000Y-26140000D03*
X124730000Y-27090000D03*
X124730000Y-25190000D03*
%TD*%
%TO.C,Q1056*%
X162290000Y-12700000D03*
X160290000Y-13650000D03*
X160290000Y-11750000D03*
%TD*%
%TO.C,Q1055*%
X162290000Y-8255000D03*
X160290000Y-9205000D03*
X160290000Y-7305000D03*
%TD*%
%TO.C,Q395*%
X126730000Y-106045000D03*
X124730000Y-106995000D03*
X124730000Y-105095000D03*
%TD*%
%TO.C,Q396*%
X126730000Y-110490000D03*
X124730000Y-111440000D03*
X124730000Y-109540000D03*
%TD*%
%TO.C,Q1074*%
X42275000Y-21590000D03*
X40275000Y-22540000D03*
X40275000Y-20640000D03*
%TD*%
%TO.C,Q1073*%
X42275000Y-17145000D03*
X40275000Y-18095000D03*
X40275000Y-16195000D03*
%TD*%
%TO.C,Q1072*%
X37830000Y-17145000D03*
X35830000Y-18095000D03*
X35830000Y-16195000D03*
%TD*%
%TO.C,Q1071*%
X37830000Y-21590000D03*
X35830000Y-22540000D03*
X35830000Y-20640000D03*
%TD*%
%TO.C,Q1070*%
X46720000Y-21590000D03*
X44720000Y-22540000D03*
X44720000Y-20640000D03*
%TD*%
%TO.C,Q1069*%
X46720000Y-17145000D03*
X44720000Y-18095000D03*
X44720000Y-16195000D03*
%TD*%
%TO.C,Q1068*%
X33385000Y-21590000D03*
X31385000Y-22540000D03*
X31385000Y-20640000D03*
%TD*%
%TO.C,Q1067*%
X28940000Y-21590000D03*
X26940000Y-22540000D03*
X26940000Y-20640000D03*
%TD*%
%TO.C,Q1066*%
X33385000Y-17145000D03*
X31385000Y-18095000D03*
X31385000Y-16195000D03*
%TD*%
%TO.C,Q1065*%
X28940000Y-17145000D03*
X26940000Y-18095000D03*
X26940000Y-16195000D03*
%TD*%
%TO.C,Q1064*%
X24495000Y-17145000D03*
X22495000Y-18095000D03*
X22495000Y-16195000D03*
%TD*%
%TO.C,Q1063*%
X20050000Y-17145000D03*
X18050000Y-18095000D03*
X18050000Y-16195000D03*
%TD*%
%TO.C,Q1062*%
X24495000Y-21590000D03*
X22495000Y-22540000D03*
X22495000Y-20640000D03*
%TD*%
%TO.C,Q1061*%
X20050000Y-21590000D03*
X18050000Y-22540000D03*
X18050000Y-20640000D03*
%TD*%
%TO.C,Q1060*%
X157845000Y-12700000D03*
X155845000Y-13650000D03*
X155845000Y-11750000D03*
%TD*%
%TO.C,Q1059*%
X157845000Y-8255000D03*
X155845000Y-9205000D03*
X155845000Y-7305000D03*
%TD*%
%TO.C,Q1058*%
X153400000Y-8255000D03*
X151400000Y-9205000D03*
X151400000Y-7305000D03*
%TD*%
%TO.C,Q1057*%
X153400000Y-12700000D03*
X151400000Y-13650000D03*
X151400000Y-11750000D03*
%TD*%
%TO.C,Q1054*%
X148955000Y-12700000D03*
X146955000Y-13650000D03*
X146955000Y-11750000D03*
%TD*%
%TO.C,Q1053*%
X144510000Y-12700000D03*
X142510000Y-13650000D03*
X142510000Y-11750000D03*
%TD*%
%TO.C,Q1052*%
X148955000Y-8255000D03*
X146955000Y-9205000D03*
X146955000Y-7305000D03*
%TD*%
%TO.C,Q1051*%
X144510000Y-8255000D03*
X142510000Y-9205000D03*
X142510000Y-7305000D03*
%TD*%
%TO.C,Q1050*%
X140065000Y-8255000D03*
X138065000Y-9205000D03*
X138065000Y-7305000D03*
%TD*%
%TO.C,Q1049*%
X135620000Y-8255000D03*
X133620000Y-9205000D03*
X133620000Y-7305000D03*
%TD*%
%TO.C,Q1048*%
X140065000Y-12700000D03*
X138065000Y-13650000D03*
X138065000Y-11750000D03*
%TD*%
%TO.C,Q1047*%
X135620000Y-12700000D03*
X133620000Y-13650000D03*
X133620000Y-11750000D03*
%TD*%
%TO.C,Q1046*%
X122285000Y-12700000D03*
X120285000Y-13650000D03*
X120285000Y-11750000D03*
%TD*%
%TO.C,Q1045*%
X122285000Y-8255000D03*
X120285000Y-9205000D03*
X120285000Y-7305000D03*
%TD*%
%TO.C,Q1044*%
X117840000Y-8255000D03*
X115840000Y-9205000D03*
X115840000Y-7305000D03*
%TD*%
%TO.C,Q1043*%
X117840000Y-12700000D03*
X115840000Y-13650000D03*
X115840000Y-11750000D03*
%TD*%
%TO.C,Q1042*%
X126730000Y-12700000D03*
X124730000Y-13650000D03*
X124730000Y-11750000D03*
%TD*%
%TO.C,Q1041*%
X126730000Y-8255000D03*
X124730000Y-9205000D03*
X124730000Y-7305000D03*
%TD*%
%TO.C,Q1040*%
X113395000Y-12700000D03*
X111395000Y-13650000D03*
X111395000Y-11750000D03*
%TD*%
%TO.C,Q1039*%
X108950000Y-12700000D03*
X106950000Y-13650000D03*
X106950000Y-11750000D03*
%TD*%
%TO.C,Q1038*%
X113395000Y-8255000D03*
X111395000Y-9205000D03*
X111395000Y-7305000D03*
%TD*%
%TO.C,Q1037*%
X108950000Y-8255000D03*
X106950000Y-9205000D03*
X106950000Y-7305000D03*
%TD*%
%TO.C,Q1036*%
X104505000Y-8255000D03*
X102505000Y-9205000D03*
X102505000Y-7305000D03*
%TD*%
%TO.C,Q1035*%
X100060000Y-8255000D03*
X98060000Y-9205000D03*
X98060000Y-7305000D03*
%TD*%
%TO.C,Q1034*%
X104505000Y-12700000D03*
X102505000Y-13650000D03*
X102505000Y-11750000D03*
%TD*%
%TO.C,Q1033*%
X100060000Y-12700000D03*
X98060000Y-13650000D03*
X98060000Y-11750000D03*
%TD*%
%TO.C,Q1032*%
X77835000Y-12700000D03*
X75835000Y-13650000D03*
X75835000Y-11750000D03*
%TD*%
%TO.C,Q1031*%
X77835000Y-8255000D03*
X75835000Y-9205000D03*
X75835000Y-7305000D03*
%TD*%
%TO.C,Q1030*%
X73390000Y-8255000D03*
X71390000Y-9205000D03*
X71390000Y-7305000D03*
%TD*%
%TO.C,Q1029*%
X73390000Y-12700000D03*
X71390000Y-13650000D03*
X71390000Y-11750000D03*
%TD*%
%TO.C,Q1028*%
X82280000Y-12700000D03*
X80280000Y-13650000D03*
X80280000Y-11750000D03*
%TD*%
%TO.C,Q1027*%
X82280000Y-8255000D03*
X80280000Y-9205000D03*
X80280000Y-7305000D03*
%TD*%
%TO.C,Q1026*%
X68945000Y-12700000D03*
X66945000Y-13650000D03*
X66945000Y-11750000D03*
%TD*%
%TO.C,Q1025*%
X64500000Y-12700000D03*
X62500000Y-13650000D03*
X62500000Y-11750000D03*
%TD*%
%TO.C,Q1024*%
X68945000Y-8255000D03*
X66945000Y-9205000D03*
X66945000Y-7305000D03*
%TD*%
%TO.C,Q1023*%
X64500000Y-8255000D03*
X62500000Y-9205000D03*
X62500000Y-7305000D03*
%TD*%
%TO.C,Q1022*%
X60055000Y-8255000D03*
X58055000Y-9205000D03*
X58055000Y-7305000D03*
%TD*%
%TO.C,Q1021*%
X55610000Y-8255000D03*
X53610000Y-9205000D03*
X53610000Y-7305000D03*
%TD*%
%TO.C,Q1020*%
X60055000Y-12700000D03*
X58055000Y-13650000D03*
X58055000Y-11750000D03*
%TD*%
%TO.C,Q1019*%
X55610000Y-12700000D03*
X53610000Y-13650000D03*
X53610000Y-11750000D03*
%TD*%
%TO.C,Q1018*%
X42275000Y-12700000D03*
X40275000Y-13650000D03*
X40275000Y-11750000D03*
%TD*%
%TO.C,Q1017*%
X42275000Y-8255000D03*
X40275000Y-9205000D03*
X40275000Y-7305000D03*
%TD*%
%TO.C,Q1016*%
X37830000Y-8255000D03*
X35830000Y-9205000D03*
X35830000Y-7305000D03*
%TD*%
%TO.C,Q1015*%
X37830000Y-12700000D03*
X35830000Y-13650000D03*
X35830000Y-11750000D03*
%TD*%
%TO.C,Q1014*%
X46720000Y-12700000D03*
X44720000Y-13650000D03*
X44720000Y-11750000D03*
%TD*%
%TO.C,Q1013*%
X46720000Y-8255000D03*
X44720000Y-9205000D03*
X44720000Y-7305000D03*
%TD*%
%TO.C,Q1012*%
X33385000Y-12700000D03*
X31385000Y-13650000D03*
X31385000Y-11750000D03*
%TD*%
%TO.C,Q1011*%
X28940000Y-12700000D03*
X26940000Y-13650000D03*
X26940000Y-11750000D03*
%TD*%
%TO.C,Q1010*%
X33385000Y-8255000D03*
X31385000Y-9205000D03*
X31385000Y-7305000D03*
%TD*%
%TO.C,Q1009*%
X28940000Y-8255000D03*
X26940000Y-9205000D03*
X26940000Y-7305000D03*
%TD*%
%TO.C,Q1008*%
X24495000Y-8255000D03*
X22495000Y-9205000D03*
X22495000Y-7305000D03*
%TD*%
%TO.C,Q1007*%
X20050000Y-8255000D03*
X18050000Y-9205000D03*
X18050000Y-7305000D03*
%TD*%
%TO.C,Q1006*%
X24495000Y-12700000D03*
X22495000Y-13650000D03*
X22495000Y-11750000D03*
%TD*%
%TO.C,Q1005*%
X20050000Y-12700000D03*
X18050000Y-13650000D03*
X18050000Y-11750000D03*
%TD*%
%TO.C,Q1004*%
X157845000Y-3810000D03*
X155845000Y-4760000D03*
X155845000Y-2860000D03*
%TD*%
%TO.C,Q1003*%
X157845000Y635000D03*
X155845000Y-315000D03*
X155845000Y1585000D03*
%TD*%
%TO.C,Q1002*%
X153400000Y635000D03*
X151400000Y-315000D03*
X151400000Y1585000D03*
%TD*%
%TO.C,Q1001*%
X153400000Y-3810000D03*
X151400000Y-4760000D03*
X151400000Y-2860000D03*
%TD*%
%TO.C,Q1000*%
X162290000Y-3810000D03*
X160290000Y-4760000D03*
X160290000Y-2860000D03*
%TD*%
%TO.C,Q999*%
X162290000Y635000D03*
X160290000Y-315000D03*
X160290000Y1585000D03*
%TD*%
%TO.C,Q998*%
X148955000Y-3810000D03*
X146955000Y-4760000D03*
X146955000Y-2860000D03*
%TD*%
%TO.C,Q997*%
X144510000Y-3810000D03*
X142510000Y-4760000D03*
X142510000Y-2860000D03*
%TD*%
%TO.C,Q996*%
X148955000Y635000D03*
X146955000Y-315000D03*
X146955000Y1585000D03*
%TD*%
%TO.C,Q995*%
X144510000Y635000D03*
X142510000Y-315000D03*
X142510000Y1585000D03*
%TD*%
%TO.C,Q994*%
X140065000Y635000D03*
X138065000Y-315000D03*
X138065000Y1585000D03*
%TD*%
%TO.C,Q993*%
X135620000Y635000D03*
X133620000Y-315000D03*
X133620000Y1585000D03*
%TD*%
%TO.C,Q992*%
X140065000Y-3810000D03*
X138065000Y-4760000D03*
X138065000Y-2860000D03*
%TD*%
%TO.C,Q991*%
X135620000Y-3810000D03*
X133620000Y-4760000D03*
X133620000Y-2860000D03*
%TD*%
%TO.C,Q990*%
X122285000Y-3810000D03*
X120285000Y-4760000D03*
X120285000Y-2860000D03*
%TD*%
%TO.C,Q989*%
X122285000Y635000D03*
X120285000Y-315000D03*
X120285000Y1585000D03*
%TD*%
%TO.C,Q988*%
X117840000Y635000D03*
X115840000Y-315000D03*
X115840000Y1585000D03*
%TD*%
%TO.C,Q987*%
X117840000Y-3810000D03*
X115840000Y-4760000D03*
X115840000Y-2860000D03*
%TD*%
%TO.C,Q986*%
X126730000Y-3810000D03*
X124730000Y-4760000D03*
X124730000Y-2860000D03*
%TD*%
%TO.C,Q985*%
X126730000Y635000D03*
X124730000Y-315000D03*
X124730000Y1585000D03*
%TD*%
%TO.C,Q984*%
X113395000Y-3810000D03*
X111395000Y-4760000D03*
X111395000Y-2860000D03*
%TD*%
%TO.C,Q983*%
X108950000Y-3810000D03*
X106950000Y-4760000D03*
X106950000Y-2860000D03*
%TD*%
%TO.C,Q982*%
X113395000Y635000D03*
X111395000Y-315000D03*
X111395000Y1585000D03*
%TD*%
%TO.C,Q981*%
X108950000Y635000D03*
X106950000Y-315000D03*
X106950000Y1585000D03*
%TD*%
%TO.C,Q980*%
X104505000Y635000D03*
X102505000Y-315000D03*
X102505000Y1585000D03*
%TD*%
%TO.C,Q979*%
X100060000Y635000D03*
X98060000Y-315000D03*
X98060000Y1585000D03*
%TD*%
%TO.C,Q978*%
X104505000Y-3810000D03*
X102505000Y-4760000D03*
X102505000Y-2860000D03*
%TD*%
%TO.C,Q977*%
X100060000Y-3810000D03*
X98060000Y-4760000D03*
X98060000Y-2860000D03*
%TD*%
%TO.C,Q956*%
X77835000Y-39370000D03*
X75835000Y-40320000D03*
X75835000Y-38420000D03*
%TD*%
%TO.C,Q955*%
X77835000Y-34925000D03*
X75835000Y-35875000D03*
X75835000Y-33975000D03*
%TD*%
%TO.C,Q954*%
X73390000Y-34925000D03*
X71390000Y-35875000D03*
X71390000Y-33975000D03*
%TD*%
%TO.C,Q953*%
X73390000Y-39370000D03*
X71390000Y-40320000D03*
X71390000Y-38420000D03*
%TD*%
%TO.C,Q952*%
X82280000Y-39370000D03*
X80280000Y-40320000D03*
X80280000Y-38420000D03*
%TD*%
%TO.C,Q951*%
X82280000Y-34925000D03*
X80280000Y-35875000D03*
X80280000Y-33975000D03*
%TD*%
%TO.C,Q950*%
X68945000Y-39370000D03*
X66945000Y-40320000D03*
X66945000Y-38420000D03*
%TD*%
%TO.C,Q949*%
X64500000Y-39370000D03*
X62500000Y-40320000D03*
X62500000Y-38420000D03*
%TD*%
%TO.C,Q948*%
X68945000Y-34925000D03*
X66945000Y-35875000D03*
X66945000Y-33975000D03*
%TD*%
%TO.C,Q947*%
X64500000Y-34925000D03*
X62500000Y-35875000D03*
X62500000Y-33975000D03*
%TD*%
%TO.C,Q946*%
X60055000Y-34925000D03*
X58055000Y-35875000D03*
X58055000Y-33975000D03*
%TD*%
%TO.C,Q945*%
X55610000Y-34925000D03*
X53610000Y-35875000D03*
X53610000Y-33975000D03*
%TD*%
%TO.C,Q944*%
X60055000Y-39370000D03*
X58055000Y-40320000D03*
X58055000Y-38420000D03*
%TD*%
%TO.C,Q943*%
X55610000Y-39370000D03*
X53610000Y-40320000D03*
X53610000Y-38420000D03*
%TD*%
%TO.C,Q942*%
X42275000Y-39370000D03*
X40275000Y-40320000D03*
X40275000Y-38420000D03*
%TD*%
%TO.C,Q941*%
X42275000Y-34925000D03*
X40275000Y-35875000D03*
X40275000Y-33975000D03*
%TD*%
%TO.C,Q940*%
X37830000Y-34925000D03*
X35830000Y-35875000D03*
X35830000Y-33975000D03*
%TD*%
%TO.C,Q939*%
X37830000Y-39370000D03*
X35830000Y-40320000D03*
X35830000Y-38420000D03*
%TD*%
%TO.C,Q938*%
X46720000Y-39370000D03*
X44720000Y-40320000D03*
X44720000Y-38420000D03*
%TD*%
%TO.C,Q937*%
X46720000Y-34925000D03*
X44720000Y-35875000D03*
X44720000Y-33975000D03*
%TD*%
%TO.C,Q936*%
X33385000Y-39370000D03*
X31385000Y-40320000D03*
X31385000Y-38420000D03*
%TD*%
%TO.C,Q935*%
X28940000Y-39370000D03*
X26940000Y-40320000D03*
X26940000Y-38420000D03*
%TD*%
%TO.C,Q934*%
X33385000Y-34925000D03*
X31385000Y-35875000D03*
X31385000Y-33975000D03*
%TD*%
%TO.C,Q933*%
X28940000Y-34925000D03*
X26940000Y-35875000D03*
X26940000Y-33975000D03*
%TD*%
%TO.C,Q932*%
X24495000Y-34925000D03*
X22495000Y-35875000D03*
X22495000Y-33975000D03*
%TD*%
%TO.C,Q931*%
X20050000Y-34925000D03*
X18050000Y-35875000D03*
X18050000Y-33975000D03*
%TD*%
%TO.C,Q930*%
X24495000Y-39370000D03*
X22495000Y-40320000D03*
X22495000Y-38420000D03*
%TD*%
%TO.C,Q929*%
X20050000Y-39370000D03*
X18050000Y-40320000D03*
X18050000Y-38420000D03*
%TD*%
%TO.C,Q928*%
X157845000Y-30480000D03*
X155845000Y-31430000D03*
X155845000Y-29530000D03*
%TD*%
%TO.C,Q927*%
X157845000Y-26035000D03*
X155845000Y-26985000D03*
X155845000Y-25085000D03*
%TD*%
%TO.C,Q926*%
X153400000Y-26035000D03*
X151400000Y-26985000D03*
X151400000Y-25085000D03*
%TD*%
%TO.C,Q925*%
X153400000Y-30480000D03*
X151400000Y-31430000D03*
X151400000Y-29530000D03*
%TD*%
%TO.C,Q924*%
X162290000Y-30480000D03*
X160290000Y-31430000D03*
X160290000Y-29530000D03*
%TD*%
%TO.C,Q923*%
X162290000Y-26035000D03*
X160290000Y-26985000D03*
X160290000Y-25085000D03*
%TD*%
%TO.C,Q922*%
X148955000Y-30480000D03*
X146955000Y-31430000D03*
X146955000Y-29530000D03*
%TD*%
%TO.C,Q921*%
X144510000Y-30480000D03*
X142510000Y-31430000D03*
X142510000Y-29530000D03*
%TD*%
%TO.C,Q920*%
X148955000Y-26035000D03*
X146955000Y-26985000D03*
X146955000Y-25085000D03*
%TD*%
%TO.C,Q919*%
X144510000Y-26035000D03*
X142510000Y-26985000D03*
X142510000Y-25085000D03*
%TD*%
%TO.C,Q918*%
X140065000Y-26035000D03*
X138065000Y-26985000D03*
X138065000Y-25085000D03*
%TD*%
%TO.C,Q917*%
X135620000Y-26035000D03*
X133620000Y-26985000D03*
X133620000Y-25085000D03*
%TD*%
%TO.C,Q916*%
X140065000Y-30480000D03*
X138065000Y-31430000D03*
X138065000Y-29530000D03*
%TD*%
%TO.C,Q915*%
X135620000Y-30480000D03*
X133620000Y-31430000D03*
X133620000Y-29530000D03*
%TD*%
%TO.C,Q914*%
X122285000Y-30585000D03*
X120285000Y-31535000D03*
X120285000Y-29635000D03*
%TD*%
%TO.C,Q913*%
X122285000Y-26140000D03*
X120285000Y-27090000D03*
X120285000Y-25190000D03*
%TD*%
%TO.C,Q912*%
X117840000Y-26140000D03*
X115840000Y-27090000D03*
X115840000Y-25190000D03*
%TD*%
%TO.C,Q911*%
X117840000Y-30585000D03*
X115840000Y-31535000D03*
X115840000Y-29635000D03*
%TD*%
%TO.C,Q908*%
X113395000Y-30585000D03*
X111395000Y-31535000D03*
X111395000Y-29635000D03*
%TD*%
%TO.C,Q907*%
X108950000Y-30585000D03*
X106950000Y-31535000D03*
X106950000Y-29635000D03*
%TD*%
%TO.C,Q906*%
X113395000Y-26140000D03*
X111395000Y-27090000D03*
X111395000Y-25190000D03*
%TD*%
%TO.C,Q905*%
X108950000Y-26140000D03*
X106950000Y-27090000D03*
X106950000Y-25190000D03*
%TD*%
%TO.C,Q904*%
X104505000Y-26140000D03*
X102505000Y-27090000D03*
X102505000Y-25190000D03*
%TD*%
%TO.C,Q903*%
X100060000Y-26140000D03*
X98060000Y-27090000D03*
X98060000Y-25190000D03*
%TD*%
%TO.C,Q902*%
X104505000Y-30585000D03*
X102505000Y-31535000D03*
X102505000Y-29635000D03*
%TD*%
%TO.C,Q901*%
X100060000Y-30585000D03*
X98060000Y-31535000D03*
X98060000Y-29635000D03*
%TD*%
%TO.C,Q900*%
X77835000Y-30480000D03*
X75835000Y-31430000D03*
X75835000Y-29530000D03*
%TD*%
%TO.C,Q899*%
X77835000Y-26035000D03*
X75835000Y-26985000D03*
X75835000Y-25085000D03*
%TD*%
%TO.C,Q898*%
X73390000Y-26035000D03*
X71390000Y-26985000D03*
X71390000Y-25085000D03*
%TD*%
%TO.C,Q897*%
X73390000Y-30480000D03*
X71390000Y-31430000D03*
X71390000Y-29530000D03*
%TD*%
%TO.C,Q896*%
X82280000Y-30480000D03*
X80280000Y-31430000D03*
X80280000Y-29530000D03*
%TD*%
%TO.C,Q895*%
X82280000Y-26035000D03*
X80280000Y-26985000D03*
X80280000Y-25085000D03*
%TD*%
%TO.C,Q894*%
X68945000Y-30480000D03*
X66945000Y-31430000D03*
X66945000Y-29530000D03*
%TD*%
%TO.C,Q893*%
X64500000Y-30480000D03*
X62500000Y-31430000D03*
X62500000Y-29530000D03*
%TD*%
%TO.C,Q892*%
X68945000Y-26035000D03*
X66945000Y-26985000D03*
X66945000Y-25085000D03*
%TD*%
%TO.C,Q891*%
X64500000Y-26035000D03*
X62500000Y-26985000D03*
X62500000Y-25085000D03*
%TD*%
%TO.C,Q890*%
X60055000Y-26035000D03*
X58055000Y-26985000D03*
X58055000Y-25085000D03*
%TD*%
%TO.C,Q889*%
X55610000Y-26035000D03*
X53610000Y-26985000D03*
X53610000Y-25085000D03*
%TD*%
%TO.C,Q888*%
X60055000Y-30480000D03*
X58055000Y-31430000D03*
X58055000Y-29530000D03*
%TD*%
%TO.C,Q887*%
X55610000Y-30480000D03*
X53610000Y-31430000D03*
X53610000Y-29530000D03*
%TD*%
%TO.C,Q886*%
X42275000Y-30480000D03*
X40275000Y-31430000D03*
X40275000Y-29530000D03*
%TD*%
%TO.C,Q885*%
X42275000Y-26035000D03*
X40275000Y-26985000D03*
X40275000Y-25085000D03*
%TD*%
%TO.C,Q884*%
X37830000Y-26035000D03*
X35830000Y-26985000D03*
X35830000Y-25085000D03*
%TD*%
%TO.C,Q883*%
X37830000Y-30480000D03*
X35830000Y-31430000D03*
X35830000Y-29530000D03*
%TD*%
%TO.C,Q882*%
X46720000Y-30480000D03*
X44720000Y-31430000D03*
X44720000Y-29530000D03*
%TD*%
%TO.C,Q881*%
X46720000Y-26035000D03*
X44720000Y-26985000D03*
X44720000Y-25085000D03*
%TD*%
%TO.C,Q880*%
X33385000Y-30480000D03*
X31385000Y-31430000D03*
X31385000Y-29530000D03*
%TD*%
%TO.C,Q879*%
X28940000Y-30480000D03*
X26940000Y-31430000D03*
X26940000Y-29530000D03*
%TD*%
%TO.C,Q878*%
X33385000Y-26035000D03*
X31385000Y-26985000D03*
X31385000Y-25085000D03*
%TD*%
%TO.C,Q877*%
X28940000Y-26035000D03*
X26940000Y-26985000D03*
X26940000Y-25085000D03*
%TD*%
%TO.C,Q876*%
X24495000Y-26035000D03*
X22495000Y-26985000D03*
X22495000Y-25085000D03*
%TD*%
%TO.C,Q875*%
X20050000Y-26035000D03*
X18050000Y-26985000D03*
X18050000Y-25085000D03*
%TD*%
%TO.C,Q874*%
X24495000Y-30480000D03*
X22495000Y-31430000D03*
X22495000Y-29530000D03*
%TD*%
%TO.C,Q873*%
X20050000Y-30480000D03*
X18050000Y-31430000D03*
X18050000Y-29530000D03*
%TD*%
%TO.C,Q872*%
X157845000Y-21590000D03*
X155845000Y-22540000D03*
X155845000Y-20640000D03*
%TD*%
%TO.C,Q871*%
X157845000Y-17145000D03*
X155845000Y-18095000D03*
X155845000Y-16195000D03*
%TD*%
%TO.C,Q870*%
X153400000Y-17145000D03*
X151400000Y-18095000D03*
X151400000Y-16195000D03*
%TD*%
%TO.C,Q869*%
X153400000Y-21590000D03*
X151400000Y-22540000D03*
X151400000Y-20640000D03*
%TD*%
%TO.C,Q868*%
X162290000Y-21590000D03*
X160290000Y-22540000D03*
X160290000Y-20640000D03*
%TD*%
%TO.C,Q867*%
X162290000Y-17145000D03*
X160290000Y-18095000D03*
X160290000Y-16195000D03*
%TD*%
%TO.C,Q866*%
X148955000Y-21590000D03*
X146955000Y-22540000D03*
X146955000Y-20640000D03*
%TD*%
%TO.C,Q865*%
X144510000Y-21590000D03*
X142510000Y-22540000D03*
X142510000Y-20640000D03*
%TD*%
%TO.C,Q864*%
X148955000Y-17145000D03*
X146955000Y-18095000D03*
X146955000Y-16195000D03*
%TD*%
%TO.C,Q863*%
X144510000Y-17145000D03*
X142510000Y-18095000D03*
X142510000Y-16195000D03*
%TD*%
%TO.C,Q862*%
X140065000Y-17145000D03*
X138065000Y-18095000D03*
X138065000Y-16195000D03*
%TD*%
%TO.C,Q861*%
X135620000Y-17145000D03*
X133620000Y-18095000D03*
X133620000Y-16195000D03*
%TD*%
%TO.C,Q860*%
X140065000Y-21590000D03*
X138065000Y-22540000D03*
X138065000Y-20640000D03*
%TD*%
%TO.C,Q859*%
X135620000Y-21590000D03*
X133620000Y-22540000D03*
X133620000Y-20640000D03*
%TD*%
%TO.C,Q858*%
X122285000Y-21590000D03*
X120285000Y-22540000D03*
X120285000Y-20640000D03*
%TD*%
%TO.C,Q857*%
X122285000Y-17145000D03*
X120285000Y-18095000D03*
X120285000Y-16195000D03*
%TD*%
%TO.C,Q856*%
X117840000Y-17145000D03*
X115840000Y-18095000D03*
X115840000Y-16195000D03*
%TD*%
%TO.C,Q855*%
X117840000Y-21590000D03*
X115840000Y-22540000D03*
X115840000Y-20640000D03*
%TD*%
%TO.C,Q854*%
X126730000Y-21590000D03*
X124730000Y-22540000D03*
X124730000Y-20640000D03*
%TD*%
%TO.C,Q853*%
X126730000Y-17145000D03*
X124730000Y-18095000D03*
X124730000Y-16195000D03*
%TD*%
%TO.C,Q852*%
X113395000Y-21590000D03*
X111395000Y-22540000D03*
X111395000Y-20640000D03*
%TD*%
%TO.C,Q851*%
X108950000Y-21590000D03*
X106950000Y-22540000D03*
X106950000Y-20640000D03*
%TD*%
%TO.C,Q850*%
X113395000Y-17145000D03*
X111395000Y-18095000D03*
X111395000Y-16195000D03*
%TD*%
%TO.C,Q849*%
X108950000Y-17145000D03*
X106950000Y-18095000D03*
X106950000Y-16195000D03*
%TD*%
%TO.C,Q848*%
X104505000Y-17145000D03*
X102505000Y-18095000D03*
X102505000Y-16195000D03*
%TD*%
%TO.C,Q847*%
X100060000Y-17145000D03*
X98060000Y-18095000D03*
X98060000Y-16195000D03*
%TD*%
%TO.C,Q846*%
X104505000Y-21590000D03*
X102505000Y-22540000D03*
X102505000Y-20640000D03*
%TD*%
%TO.C,Q845*%
X100060000Y-21590000D03*
X98060000Y-22540000D03*
X98060000Y-20640000D03*
%TD*%
%TO.C,Q844*%
X77835000Y-21590000D03*
X75835000Y-22540000D03*
X75835000Y-20640000D03*
%TD*%
%TO.C,Q843*%
X77835000Y-17145000D03*
X75835000Y-18095000D03*
X75835000Y-16195000D03*
%TD*%
%TO.C,Q842*%
X73390000Y-17145000D03*
X71390000Y-18095000D03*
X71390000Y-16195000D03*
%TD*%
%TO.C,Q841*%
X73390000Y-21590000D03*
X71390000Y-22540000D03*
X71390000Y-20640000D03*
%TD*%
%TO.C,Q840*%
X82280000Y-21590000D03*
X80280000Y-22540000D03*
X80280000Y-20640000D03*
%TD*%
%TO.C,Q839*%
X82280000Y-17145000D03*
X80280000Y-18095000D03*
X80280000Y-16195000D03*
%TD*%
%TO.C,Q838*%
X68945000Y-21590000D03*
X66945000Y-22540000D03*
X66945000Y-20640000D03*
%TD*%
%TO.C,Q837*%
X64500000Y-21590000D03*
X62500000Y-22540000D03*
X62500000Y-20640000D03*
%TD*%
%TO.C,Q836*%
X68945000Y-17145000D03*
X66945000Y-18095000D03*
X66945000Y-16195000D03*
%TD*%
%TO.C,Q835*%
X64500000Y-17145000D03*
X62500000Y-18095000D03*
X62500000Y-16195000D03*
%TD*%
%TO.C,Q834*%
X60055000Y-17145000D03*
X58055000Y-18095000D03*
X58055000Y-16195000D03*
%TD*%
%TO.C,Q833*%
X55610000Y-17145000D03*
X53610000Y-18095000D03*
X53610000Y-16195000D03*
%TD*%
%TO.C,Q832*%
X60055000Y-21590000D03*
X58055000Y-22540000D03*
X58055000Y-20640000D03*
%TD*%
%TO.C,Q831*%
X55610000Y-21590000D03*
X53610000Y-22540000D03*
X53610000Y-20640000D03*
%TD*%
%TO.C,Q830*%
X157845000Y-48260000D03*
X155845000Y-49210000D03*
X155845000Y-47310000D03*
%TD*%
%TO.C,Q829*%
X157845000Y-43815000D03*
X155845000Y-44765000D03*
X155845000Y-42865000D03*
%TD*%
%TO.C,Q828*%
X153400000Y-43815000D03*
X151400000Y-44765000D03*
X151400000Y-42865000D03*
%TD*%
%TO.C,Q827*%
X153400000Y-48260000D03*
X151400000Y-49210000D03*
X151400000Y-47310000D03*
%TD*%
%TO.C,Q826*%
X162290000Y-48260000D03*
X160290000Y-49210000D03*
X160290000Y-47310000D03*
%TD*%
%TO.C,Q825*%
X162290000Y-43815000D03*
X160290000Y-44765000D03*
X160290000Y-42865000D03*
%TD*%
%TO.C,Q824*%
X148955000Y-48260000D03*
X146955000Y-49210000D03*
X146955000Y-47310000D03*
%TD*%
%TO.C,Q823*%
X144510000Y-48260000D03*
X142510000Y-49210000D03*
X142510000Y-47310000D03*
%TD*%
%TO.C,Q822*%
X148955000Y-43815000D03*
X146955000Y-44765000D03*
X146955000Y-42865000D03*
%TD*%
%TO.C,Q821*%
X144510000Y-43815000D03*
X142510000Y-44765000D03*
X142510000Y-42865000D03*
%TD*%
%TO.C,Q820*%
X140065000Y-43815000D03*
X138065000Y-44765000D03*
X138065000Y-42865000D03*
%TD*%
%TO.C,Q819*%
X135620000Y-43815000D03*
X133620000Y-44765000D03*
X133620000Y-42865000D03*
%TD*%
%TO.C,Q818*%
X140065000Y-48260000D03*
X138065000Y-49210000D03*
X138065000Y-47310000D03*
%TD*%
%TO.C,Q817*%
X135620000Y-48260000D03*
X133620000Y-49210000D03*
X133620000Y-47310000D03*
%TD*%
%TO.C,Q816*%
X122285000Y-48260000D03*
X120285000Y-49210000D03*
X120285000Y-47310000D03*
%TD*%
%TO.C,Q815*%
X122285000Y-43815000D03*
X120285000Y-44765000D03*
X120285000Y-42865000D03*
%TD*%
%TO.C,Q814*%
X117840000Y-43815000D03*
X115840000Y-44765000D03*
X115840000Y-42865000D03*
%TD*%
%TO.C,Q813*%
X117840000Y-48260000D03*
X115840000Y-49210000D03*
X115840000Y-47310000D03*
%TD*%
%TO.C,Q812*%
X126730000Y-48260000D03*
X124730000Y-49210000D03*
X124730000Y-47310000D03*
%TD*%
%TO.C,Q811*%
X126730000Y-43815000D03*
X124730000Y-44765000D03*
X124730000Y-42865000D03*
%TD*%
%TO.C,Q810*%
X113395000Y-48260000D03*
X111395000Y-49210000D03*
X111395000Y-47310000D03*
%TD*%
%TO.C,Q809*%
X108950000Y-48260000D03*
X106950000Y-49210000D03*
X106950000Y-47310000D03*
%TD*%
%TO.C,Q808*%
X113395000Y-43815000D03*
X111395000Y-44765000D03*
X111395000Y-42865000D03*
%TD*%
%TO.C,Q807*%
X108950000Y-43815000D03*
X106950000Y-44765000D03*
X106950000Y-42865000D03*
%TD*%
%TO.C,Q806*%
X104505000Y-43815000D03*
X102505000Y-44765000D03*
X102505000Y-42865000D03*
%TD*%
%TO.C,Q805*%
X100060000Y-43815000D03*
X98060000Y-44765000D03*
X98060000Y-42865000D03*
%TD*%
%TO.C,Q804*%
X104505000Y-48260000D03*
X102505000Y-49210000D03*
X102505000Y-47310000D03*
%TD*%
%TO.C,Q803*%
X100060000Y-48260000D03*
X98060000Y-49210000D03*
X98060000Y-47310000D03*
%TD*%
%TO.C,Q802*%
X77835000Y-48260000D03*
X75835000Y-49210000D03*
X75835000Y-47310000D03*
%TD*%
%TO.C,Q801*%
X77835000Y-43815000D03*
X75835000Y-44765000D03*
X75835000Y-42865000D03*
%TD*%
%TO.C,Q800*%
X73390000Y-43815000D03*
X71390000Y-44765000D03*
X71390000Y-42865000D03*
%TD*%
%TO.C,Q799*%
X73390000Y-48260000D03*
X71390000Y-49210000D03*
X71390000Y-47310000D03*
%TD*%
%TO.C,Q798*%
X82280000Y-48260000D03*
X80280000Y-49210000D03*
X80280000Y-47310000D03*
%TD*%
%TO.C,Q797*%
X82280000Y-43815000D03*
X80280000Y-44765000D03*
X80280000Y-42865000D03*
%TD*%
%TO.C,Q796*%
X68945000Y-48260000D03*
X66945000Y-49210000D03*
X66945000Y-47310000D03*
%TD*%
%TO.C,Q795*%
X64500000Y-48260000D03*
X62500000Y-49210000D03*
X62500000Y-47310000D03*
%TD*%
%TO.C,Q794*%
X68945000Y-43815000D03*
X66945000Y-44765000D03*
X66945000Y-42865000D03*
%TD*%
%TO.C,Q793*%
X64500000Y-43815000D03*
X62500000Y-44765000D03*
X62500000Y-42865000D03*
%TD*%
%TO.C,Q792*%
X60055000Y-43815000D03*
X58055000Y-44765000D03*
X58055000Y-42865000D03*
%TD*%
%TO.C,Q791*%
X55610000Y-43815000D03*
X53610000Y-44765000D03*
X53610000Y-42865000D03*
%TD*%
%TO.C,Q790*%
X60055000Y-48260000D03*
X58055000Y-49210000D03*
X58055000Y-47310000D03*
%TD*%
%TO.C,Q789*%
X55610000Y-48260000D03*
X53610000Y-49210000D03*
X53610000Y-47310000D03*
%TD*%
%TO.C,Q788*%
X42275000Y-48260000D03*
X40275000Y-49210000D03*
X40275000Y-47310000D03*
%TD*%
%TO.C,Q787*%
X42275000Y-43815000D03*
X40275000Y-44765000D03*
X40275000Y-42865000D03*
%TD*%
%TO.C,Q786*%
X37830000Y-43815000D03*
X35830000Y-44765000D03*
X35830000Y-42865000D03*
%TD*%
%TO.C,Q785*%
X37830000Y-48260000D03*
X35830000Y-49210000D03*
X35830000Y-47310000D03*
%TD*%
%TO.C,Q784*%
X46720000Y-48260000D03*
X44720000Y-49210000D03*
X44720000Y-47310000D03*
%TD*%
%TO.C,Q783*%
X46720000Y-43815000D03*
X44720000Y-44765000D03*
X44720000Y-42865000D03*
%TD*%
%TO.C,Q782*%
X33385000Y-48260000D03*
X31385000Y-49210000D03*
X31385000Y-47310000D03*
%TD*%
%TO.C,Q781*%
X28940000Y-48260000D03*
X26940000Y-49210000D03*
X26940000Y-47310000D03*
%TD*%
%TO.C,Q780*%
X33385000Y-43815000D03*
X31385000Y-44765000D03*
X31385000Y-42865000D03*
%TD*%
%TO.C,Q779*%
X28940000Y-43815000D03*
X26940000Y-44765000D03*
X26940000Y-42865000D03*
%TD*%
%TO.C,Q778*%
X24495000Y-43815000D03*
X22495000Y-44765000D03*
X22495000Y-42865000D03*
%TD*%
%TO.C,Q777*%
X20050000Y-43815000D03*
X18050000Y-44765000D03*
X18050000Y-42865000D03*
%TD*%
%TO.C,Q776*%
X24495000Y-48260000D03*
X22495000Y-49210000D03*
X22495000Y-47310000D03*
%TD*%
%TO.C,Q775*%
X20050000Y-48260000D03*
X18050000Y-49210000D03*
X18050000Y-47310000D03*
%TD*%
%TO.C,Q774*%
X157845000Y-39370000D03*
X155845000Y-40320000D03*
X155845000Y-38420000D03*
%TD*%
%TO.C,Q773*%
X157845000Y-34925000D03*
X155845000Y-35875000D03*
X155845000Y-33975000D03*
%TD*%
%TO.C,Q772*%
X153400000Y-34925000D03*
X151400000Y-35875000D03*
X151400000Y-33975000D03*
%TD*%
%TO.C,Q771*%
X153400000Y-39370000D03*
X151400000Y-40320000D03*
X151400000Y-38420000D03*
%TD*%
%TO.C,Q770*%
X162290000Y-39370000D03*
X160290000Y-40320000D03*
X160290000Y-38420000D03*
%TD*%
%TO.C,Q769*%
X162290000Y-34925000D03*
X160290000Y-35875000D03*
X160290000Y-33975000D03*
%TD*%
%TO.C,Q768*%
X148955000Y-39370000D03*
X146955000Y-40320000D03*
X146955000Y-38420000D03*
%TD*%
%TO.C,Q767*%
X144510000Y-39370000D03*
X142510000Y-40320000D03*
X142510000Y-38420000D03*
%TD*%
%TO.C,Q766*%
X148955000Y-34925000D03*
X146955000Y-35875000D03*
X146955000Y-33975000D03*
%TD*%
%TO.C,Q765*%
X144510000Y-34925000D03*
X142510000Y-35875000D03*
X142510000Y-33975000D03*
%TD*%
%TO.C,Q764*%
X140065000Y-34925000D03*
X138065000Y-35875000D03*
X138065000Y-33975000D03*
%TD*%
%TO.C,Q763*%
X135620000Y-34925000D03*
X133620000Y-35875000D03*
X133620000Y-33975000D03*
%TD*%
%TO.C,Q762*%
X140065000Y-39370000D03*
X138065000Y-40320000D03*
X138065000Y-38420000D03*
%TD*%
%TO.C,Q761*%
X135620000Y-39370000D03*
X133620000Y-40320000D03*
X133620000Y-38420000D03*
%TD*%
%TO.C,Q760*%
X122285000Y-39370000D03*
X120285000Y-40320000D03*
X120285000Y-38420000D03*
%TD*%
%TO.C,Q759*%
X122285000Y-34925000D03*
X120285000Y-35875000D03*
X120285000Y-33975000D03*
%TD*%
%TO.C,Q758*%
X117840000Y-34925000D03*
X115840000Y-35875000D03*
X115840000Y-33975000D03*
%TD*%
%TO.C,Q757*%
X117840000Y-39370000D03*
X115840000Y-40320000D03*
X115840000Y-38420000D03*
%TD*%
%TO.C,Q756*%
X126730000Y-39370000D03*
X124730000Y-40320000D03*
X124730000Y-38420000D03*
%TD*%
%TO.C,Q755*%
X126730000Y-34925000D03*
X124730000Y-35875000D03*
X124730000Y-33975000D03*
%TD*%
%TO.C,Q754*%
X113395000Y-39370000D03*
X111395000Y-40320000D03*
X111395000Y-38420000D03*
%TD*%
%TO.C,Q753*%
X108950000Y-39370000D03*
X106950000Y-40320000D03*
X106950000Y-38420000D03*
%TD*%
%TO.C,Q752*%
X113395000Y-34925000D03*
X111395000Y-35875000D03*
X111395000Y-33975000D03*
%TD*%
%TO.C,Q751*%
X108950000Y-34925000D03*
X106950000Y-35875000D03*
X106950000Y-33975000D03*
%TD*%
%TO.C,Q750*%
X104505000Y-34925000D03*
X102505000Y-35875000D03*
X102505000Y-33975000D03*
%TD*%
%TO.C,Q749*%
X100060000Y-34925000D03*
X98060000Y-35875000D03*
X98060000Y-33975000D03*
%TD*%
%TO.C,Q748*%
X104505000Y-39370000D03*
X102505000Y-40320000D03*
X102505000Y-38420000D03*
%TD*%
%TO.C,Q747*%
X100060000Y-39370000D03*
X98060000Y-40320000D03*
X98060000Y-38420000D03*
%TD*%
%TO.C,Q746*%
X42275000Y-74930000D03*
X40275000Y-75880000D03*
X40275000Y-73980000D03*
%TD*%
%TO.C,Q745*%
X42275000Y-70485000D03*
X40275000Y-71435000D03*
X40275000Y-69535000D03*
%TD*%
%TO.C,Q744*%
X37830000Y-70485000D03*
X35830000Y-71435000D03*
X35830000Y-69535000D03*
%TD*%
%TO.C,Q743*%
X37830000Y-74930000D03*
X35830000Y-75880000D03*
X35830000Y-73980000D03*
%TD*%
%TO.C,Q742*%
X46720000Y-74930000D03*
X44720000Y-75880000D03*
X44720000Y-73980000D03*
%TD*%
%TO.C,Q741*%
X46720000Y-70485000D03*
X44720000Y-71435000D03*
X44720000Y-69535000D03*
%TD*%
%TO.C,Q740*%
X33385000Y-74930000D03*
X31385000Y-75880000D03*
X31385000Y-73980000D03*
%TD*%
%TO.C,Q739*%
X28940000Y-74930000D03*
X26940000Y-75880000D03*
X26940000Y-73980000D03*
%TD*%
%TO.C,Q738*%
X33385000Y-70485000D03*
X31385000Y-71435000D03*
X31385000Y-69535000D03*
%TD*%
%TO.C,Q737*%
X28940000Y-70485000D03*
X26940000Y-71435000D03*
X26940000Y-69535000D03*
%TD*%
%TO.C,Q736*%
X24495000Y-70485000D03*
X22495000Y-71435000D03*
X22495000Y-69535000D03*
%TD*%
%TO.C,Q735*%
X20050000Y-70485000D03*
X18050000Y-71435000D03*
X18050000Y-69535000D03*
%TD*%
%TO.C,Q734*%
X24495000Y-74930000D03*
X22495000Y-75880000D03*
X22495000Y-73980000D03*
%TD*%
%TO.C,Q733*%
X20050000Y-74930000D03*
X18050000Y-75880000D03*
X18050000Y-73980000D03*
%TD*%
%TO.C,Q732*%
X157845000Y-66040000D03*
X155845000Y-66990000D03*
X155845000Y-65090000D03*
%TD*%
%TO.C,Q731*%
X157845000Y-61595000D03*
X155845000Y-62545000D03*
X155845000Y-60645000D03*
%TD*%
%TO.C,Q730*%
X153400000Y-61595000D03*
X151400000Y-62545000D03*
X151400000Y-60645000D03*
%TD*%
%TO.C,Q729*%
X153400000Y-66040000D03*
X151400000Y-66990000D03*
X151400000Y-65090000D03*
%TD*%
%TO.C,Q728*%
X162290000Y-66040000D03*
X160290000Y-66990000D03*
X160290000Y-65090000D03*
%TD*%
%TO.C,Q727*%
X162290000Y-61595000D03*
X160290000Y-62545000D03*
X160290000Y-60645000D03*
%TD*%
%TO.C,Q726*%
X148955000Y-66040000D03*
X146955000Y-66990000D03*
X146955000Y-65090000D03*
%TD*%
%TO.C,Q725*%
X144510000Y-66040000D03*
X142510000Y-66990000D03*
X142510000Y-65090000D03*
%TD*%
%TO.C,Q724*%
X148955000Y-61595000D03*
X146955000Y-62545000D03*
X146955000Y-60645000D03*
%TD*%
%TO.C,Q723*%
X144510000Y-61595000D03*
X142510000Y-62545000D03*
X142510000Y-60645000D03*
%TD*%
%TO.C,Q722*%
X140065000Y-61595000D03*
X138065000Y-62545000D03*
X138065000Y-60645000D03*
%TD*%
%TO.C,Q721*%
X135620000Y-61595000D03*
X133620000Y-62545000D03*
X133620000Y-60645000D03*
%TD*%
%TO.C,Q720*%
X140065000Y-66040000D03*
X138065000Y-66990000D03*
X138065000Y-65090000D03*
%TD*%
%TO.C,Q719*%
X135620000Y-66040000D03*
X133620000Y-66990000D03*
X133620000Y-65090000D03*
%TD*%
%TO.C,Q718*%
X122285000Y-66040000D03*
X120285000Y-66990000D03*
X120285000Y-65090000D03*
%TD*%
%TO.C,Q717*%
X122285000Y-61595000D03*
X120285000Y-62545000D03*
X120285000Y-60645000D03*
%TD*%
%TO.C,Q716*%
X117840000Y-61595000D03*
X115840000Y-62545000D03*
X115840000Y-60645000D03*
%TD*%
%TO.C,Q715*%
X117840000Y-66040000D03*
X115840000Y-66990000D03*
X115840000Y-65090000D03*
%TD*%
%TO.C,Q714*%
X126730000Y-66040000D03*
X124730000Y-66990000D03*
X124730000Y-65090000D03*
%TD*%
%TO.C,Q713*%
X126730000Y-61595000D03*
X124730000Y-62545000D03*
X124730000Y-60645000D03*
%TD*%
%TO.C,Q712*%
X113395000Y-66040000D03*
X111395000Y-66990000D03*
X111395000Y-65090000D03*
%TD*%
%TO.C,Q711*%
X108950000Y-66040000D03*
X106950000Y-66990000D03*
X106950000Y-65090000D03*
%TD*%
%TO.C,Q710*%
X113395000Y-61595000D03*
X111395000Y-62545000D03*
X111395000Y-60645000D03*
%TD*%
%TO.C,Q709*%
X108950000Y-61595000D03*
X106950000Y-62545000D03*
X106950000Y-60645000D03*
%TD*%
%TO.C,Q708*%
X104505000Y-61595000D03*
X102505000Y-62545000D03*
X102505000Y-60645000D03*
%TD*%
%TO.C,Q707*%
X100060000Y-61595000D03*
X98060000Y-62545000D03*
X98060000Y-60645000D03*
%TD*%
%TO.C,Q706*%
X104505000Y-66040000D03*
X102505000Y-66990000D03*
X102505000Y-65090000D03*
%TD*%
%TO.C,Q705*%
X100060000Y-66040000D03*
X98060000Y-66990000D03*
X98060000Y-65090000D03*
%TD*%
%TO.C,Q704*%
X77835000Y-66040000D03*
X75835000Y-66990000D03*
X75835000Y-65090000D03*
%TD*%
%TO.C,Q703*%
X77835000Y-61595000D03*
X75835000Y-62545000D03*
X75835000Y-60645000D03*
%TD*%
%TO.C,Q702*%
X73390000Y-61595000D03*
X71390000Y-62545000D03*
X71390000Y-60645000D03*
%TD*%
%TO.C,Q701*%
X73390000Y-66040000D03*
X71390000Y-66990000D03*
X71390000Y-65090000D03*
%TD*%
%TO.C,Q700*%
X82280000Y-66040000D03*
X80280000Y-66990000D03*
X80280000Y-65090000D03*
%TD*%
%TO.C,Q699*%
X82280000Y-61595000D03*
X80280000Y-62545000D03*
X80280000Y-60645000D03*
%TD*%
%TO.C,Q698*%
X68945000Y-66040000D03*
X66945000Y-66990000D03*
X66945000Y-65090000D03*
%TD*%
%TO.C,Q697*%
X64500000Y-66040000D03*
X62500000Y-66990000D03*
X62500000Y-65090000D03*
%TD*%
%TO.C,Q696*%
X68945000Y-61595000D03*
X66945000Y-62545000D03*
X66945000Y-60645000D03*
%TD*%
%TO.C,Q695*%
X64500000Y-61595000D03*
X62500000Y-62545000D03*
X62500000Y-60645000D03*
%TD*%
%TO.C,Q694*%
X60055000Y-61595000D03*
X58055000Y-62545000D03*
X58055000Y-60645000D03*
%TD*%
%TO.C,Q693*%
X55610000Y-61595000D03*
X53610000Y-62545000D03*
X53610000Y-60645000D03*
%TD*%
%TO.C,Q692*%
X60055000Y-66040000D03*
X58055000Y-66990000D03*
X58055000Y-65090000D03*
%TD*%
%TO.C,Q691*%
X55610000Y-66040000D03*
X53610000Y-66990000D03*
X53610000Y-65090000D03*
%TD*%
%TO.C,Q690*%
X42275000Y-66040000D03*
X40275000Y-66990000D03*
X40275000Y-65090000D03*
%TD*%
%TO.C,Q689*%
X42275000Y-61595000D03*
X40275000Y-62545000D03*
X40275000Y-60645000D03*
%TD*%
%TO.C,Q688*%
X37830000Y-61595000D03*
X35830000Y-62545000D03*
X35830000Y-60645000D03*
%TD*%
%TO.C,Q687*%
X37830000Y-66040000D03*
X35830000Y-66990000D03*
X35830000Y-65090000D03*
%TD*%
%TO.C,Q686*%
X46720000Y-66040000D03*
X44720000Y-66990000D03*
X44720000Y-65090000D03*
%TD*%
%TO.C,Q685*%
X46720000Y-61595000D03*
X44720000Y-62545000D03*
X44720000Y-60645000D03*
%TD*%
%TO.C,Q684*%
X33385000Y-66040000D03*
X31385000Y-66990000D03*
X31385000Y-65090000D03*
%TD*%
%TO.C,Q683*%
X28940000Y-66040000D03*
X26940000Y-66990000D03*
X26940000Y-65090000D03*
%TD*%
%TO.C,Q682*%
X33385000Y-61595000D03*
X31385000Y-62545000D03*
X31385000Y-60645000D03*
%TD*%
%TO.C,Q681*%
X28940000Y-61595000D03*
X26940000Y-62545000D03*
X26940000Y-60645000D03*
%TD*%
%TO.C,Q680*%
X24495000Y-61595000D03*
X22495000Y-62545000D03*
X22495000Y-60645000D03*
%TD*%
%TO.C,Q679*%
X20050000Y-61595000D03*
X18050000Y-62545000D03*
X18050000Y-60645000D03*
%TD*%
%TO.C,Q678*%
X24495000Y-66040000D03*
X22495000Y-66990000D03*
X22495000Y-65090000D03*
%TD*%
%TO.C,Q677*%
X20050000Y-66040000D03*
X18050000Y-66990000D03*
X18050000Y-65090000D03*
%TD*%
%TO.C,Q676*%
X157845000Y-57150000D03*
X155845000Y-58100000D03*
X155845000Y-56200000D03*
%TD*%
%TO.C,Q675*%
X157845000Y-52705000D03*
X155845000Y-53655000D03*
X155845000Y-51755000D03*
%TD*%
%TO.C,Q674*%
X153400000Y-52705000D03*
X151400000Y-53655000D03*
X151400000Y-51755000D03*
%TD*%
%TO.C,Q673*%
X153400000Y-57150000D03*
X151400000Y-58100000D03*
X151400000Y-56200000D03*
%TD*%
%TO.C,Q672*%
X162290000Y-57150000D03*
X160290000Y-58100000D03*
X160290000Y-56200000D03*
%TD*%
%TO.C,Q671*%
X162290000Y-52705000D03*
X160290000Y-53655000D03*
X160290000Y-51755000D03*
%TD*%
%TO.C,Q670*%
X148955000Y-57150000D03*
X146955000Y-58100000D03*
X146955000Y-56200000D03*
%TD*%
%TO.C,Q669*%
X144510000Y-57150000D03*
X142510000Y-58100000D03*
X142510000Y-56200000D03*
%TD*%
%TO.C,Q668*%
X148955000Y-52705000D03*
X146955000Y-53655000D03*
X146955000Y-51755000D03*
%TD*%
%TO.C,Q667*%
X144510000Y-52705000D03*
X142510000Y-53655000D03*
X142510000Y-51755000D03*
%TD*%
%TO.C,Q666*%
X140065000Y-52705000D03*
X138065000Y-53655000D03*
X138065000Y-51755000D03*
%TD*%
%TO.C,Q665*%
X135620000Y-52705000D03*
X133620000Y-53655000D03*
X133620000Y-51755000D03*
%TD*%
%TO.C,Q664*%
X140065000Y-57150000D03*
X138065000Y-58100000D03*
X138065000Y-56200000D03*
%TD*%
%TO.C,Q663*%
X135620000Y-57150000D03*
X133620000Y-58100000D03*
X133620000Y-56200000D03*
%TD*%
%TO.C,Q662*%
X122285000Y-57150000D03*
X120285000Y-58100000D03*
X120285000Y-56200000D03*
%TD*%
%TO.C,Q661*%
X122285000Y-52705000D03*
X120285000Y-53655000D03*
X120285000Y-51755000D03*
%TD*%
%TO.C,Q660*%
X117840000Y-52705000D03*
X115840000Y-53655000D03*
X115840000Y-51755000D03*
%TD*%
%TO.C,Q659*%
X117840000Y-57150000D03*
X115840000Y-58100000D03*
X115840000Y-56200000D03*
%TD*%
%TO.C,Q658*%
X126730000Y-57150000D03*
X124730000Y-58100000D03*
X124730000Y-56200000D03*
%TD*%
%TO.C,Q657*%
X126730000Y-52705000D03*
X124730000Y-53655000D03*
X124730000Y-51755000D03*
%TD*%
%TO.C,Q656*%
X113395000Y-57150000D03*
X111395000Y-58100000D03*
X111395000Y-56200000D03*
%TD*%
%TO.C,Q655*%
X108950000Y-57150000D03*
X106950000Y-58100000D03*
X106950000Y-56200000D03*
%TD*%
%TO.C,Q654*%
X113395000Y-52705000D03*
X111395000Y-53655000D03*
X111395000Y-51755000D03*
%TD*%
%TO.C,Q653*%
X108950000Y-52705000D03*
X106950000Y-53655000D03*
X106950000Y-51755000D03*
%TD*%
%TO.C,Q652*%
X104505000Y-52705000D03*
X102505000Y-53655000D03*
X102505000Y-51755000D03*
%TD*%
%TO.C,Q651*%
X100060000Y-52705000D03*
X98060000Y-53655000D03*
X98060000Y-51755000D03*
%TD*%
%TO.C,Q650*%
X104505000Y-57150000D03*
X102505000Y-58100000D03*
X102505000Y-56200000D03*
%TD*%
%TO.C,Q649*%
X100060000Y-57150000D03*
X98060000Y-58100000D03*
X98060000Y-56200000D03*
%TD*%
%TO.C,Q648*%
X77835000Y-57150000D03*
X75835000Y-58100000D03*
X75835000Y-56200000D03*
%TD*%
%TO.C,Q647*%
X77835000Y-52705000D03*
X75835000Y-53655000D03*
X75835000Y-51755000D03*
%TD*%
%TO.C,Q646*%
X73390000Y-52705000D03*
X71390000Y-53655000D03*
X71390000Y-51755000D03*
%TD*%
%TO.C,Q645*%
X73390000Y-57150000D03*
X71390000Y-58100000D03*
X71390000Y-56200000D03*
%TD*%
%TO.C,Q644*%
X82280000Y-57150000D03*
X80280000Y-58100000D03*
X80280000Y-56200000D03*
%TD*%
%TO.C,Q643*%
X82280000Y-52705000D03*
X80280000Y-53655000D03*
X80280000Y-51755000D03*
%TD*%
%TO.C,Q642*%
X68945000Y-57150000D03*
X66945000Y-58100000D03*
X66945000Y-56200000D03*
%TD*%
%TO.C,Q641*%
X64500000Y-57150000D03*
X62500000Y-58100000D03*
X62500000Y-56200000D03*
%TD*%
%TO.C,Q640*%
X68945000Y-52705000D03*
X66945000Y-53655000D03*
X66945000Y-51755000D03*
%TD*%
%TO.C,Q639*%
X64500000Y-52705000D03*
X62500000Y-53655000D03*
X62500000Y-51755000D03*
%TD*%
%TO.C,Q638*%
X60055000Y-52705000D03*
X58055000Y-53655000D03*
X58055000Y-51755000D03*
%TD*%
%TO.C,Q637*%
X55610000Y-52705000D03*
X53610000Y-53655000D03*
X53610000Y-51755000D03*
%TD*%
%TO.C,Q636*%
X60055000Y-57150000D03*
X58055000Y-58100000D03*
X58055000Y-56200000D03*
%TD*%
%TO.C,Q635*%
X55610000Y-57150000D03*
X53610000Y-58100000D03*
X53610000Y-56200000D03*
%TD*%
%TO.C,Q634*%
X42275000Y-57150000D03*
X40275000Y-58100000D03*
X40275000Y-56200000D03*
%TD*%
%TO.C,Q633*%
X42275000Y-52705000D03*
X40275000Y-53655000D03*
X40275000Y-51755000D03*
%TD*%
%TO.C,Q632*%
X37830000Y-52705000D03*
X35830000Y-53655000D03*
X35830000Y-51755000D03*
%TD*%
%TO.C,Q631*%
X37830000Y-57150000D03*
X35830000Y-58100000D03*
X35830000Y-56200000D03*
%TD*%
%TO.C,Q630*%
X46720000Y-57150000D03*
X44720000Y-58100000D03*
X44720000Y-56200000D03*
%TD*%
%TO.C,Q629*%
X46720000Y-52705000D03*
X44720000Y-53655000D03*
X44720000Y-51755000D03*
%TD*%
%TO.C,Q628*%
X33385000Y-57150000D03*
X31385000Y-58100000D03*
X31385000Y-56200000D03*
%TD*%
%TO.C,Q627*%
X28940000Y-57150000D03*
X26940000Y-58100000D03*
X26940000Y-56200000D03*
%TD*%
%TO.C,Q626*%
X33385000Y-52705000D03*
X31385000Y-53655000D03*
X31385000Y-51755000D03*
%TD*%
%TO.C,Q625*%
X28940000Y-52705000D03*
X26940000Y-53655000D03*
X26940000Y-51755000D03*
%TD*%
%TO.C,Q624*%
X24495000Y-52705000D03*
X22495000Y-53655000D03*
X22495000Y-51755000D03*
%TD*%
%TO.C,Q623*%
X20050000Y-52705000D03*
X18050000Y-53655000D03*
X18050000Y-51755000D03*
%TD*%
%TO.C,Q622*%
X24495000Y-57150000D03*
X22495000Y-58100000D03*
X22495000Y-56200000D03*
%TD*%
%TO.C,Q621*%
X20050000Y-57150000D03*
X18050000Y-58100000D03*
X18050000Y-56200000D03*
%TD*%
%TO.C,Q494*%
X157845000Y-101600000D03*
X155845000Y-102550000D03*
X155845000Y-100650000D03*
%TD*%
%TO.C,Q493*%
X157845000Y-97155000D03*
X155845000Y-98105000D03*
X155845000Y-96205000D03*
%TD*%
%TO.C,Q492*%
X153400000Y-97155000D03*
X151400000Y-98105000D03*
X151400000Y-96205000D03*
%TD*%
%TO.C,Q491*%
X153400000Y-101600000D03*
X151400000Y-102550000D03*
X151400000Y-100650000D03*
%TD*%
%TO.C,Q490*%
X162290000Y-101600000D03*
X160290000Y-102550000D03*
X160290000Y-100650000D03*
%TD*%
%TO.C,Q489*%
X162290000Y-97155000D03*
X160290000Y-98105000D03*
X160290000Y-96205000D03*
%TD*%
%TO.C,Q488*%
X148955000Y-101600000D03*
X146955000Y-102550000D03*
X146955000Y-100650000D03*
%TD*%
%TO.C,Q487*%
X144510000Y-101600000D03*
X142510000Y-102550000D03*
X142510000Y-100650000D03*
%TD*%
%TO.C,Q486*%
X148955000Y-97155000D03*
X146955000Y-98105000D03*
X146955000Y-96205000D03*
%TD*%
%TO.C,Q485*%
X144510000Y-97155000D03*
X142510000Y-98105000D03*
X142510000Y-96205000D03*
%TD*%
%TO.C,Q484*%
X140065000Y-97155000D03*
X138065000Y-98105000D03*
X138065000Y-96205000D03*
%TD*%
%TO.C,Q483*%
X135620000Y-97155000D03*
X133620000Y-98105000D03*
X133620000Y-96205000D03*
%TD*%
%TO.C,Q482*%
X140065000Y-101600000D03*
X138065000Y-102550000D03*
X138065000Y-100650000D03*
%TD*%
%TO.C,Q481*%
X135620000Y-101600000D03*
X133620000Y-102550000D03*
X133620000Y-100650000D03*
%TD*%
%TO.C,Q480*%
X122285000Y-101600000D03*
X120285000Y-102550000D03*
X120285000Y-100650000D03*
%TD*%
%TO.C,Q479*%
X122285000Y-97155000D03*
X120285000Y-98105000D03*
X120285000Y-96205000D03*
%TD*%
%TO.C,Q478*%
X117840000Y-97155000D03*
X115840000Y-98105000D03*
X115840000Y-96205000D03*
%TD*%
%TO.C,Q477*%
X117840000Y-101600000D03*
X115840000Y-102550000D03*
X115840000Y-100650000D03*
%TD*%
%TO.C,Q476*%
X126730000Y-101600000D03*
X124730000Y-102550000D03*
X124730000Y-100650000D03*
%TD*%
%TO.C,Q475*%
X126730000Y-97155000D03*
X124730000Y-98105000D03*
X124730000Y-96205000D03*
%TD*%
%TO.C,Q474*%
X113395000Y-101600000D03*
X111395000Y-102550000D03*
X111395000Y-100650000D03*
%TD*%
%TO.C,Q473*%
X108950000Y-101600000D03*
X106950000Y-102550000D03*
X106950000Y-100650000D03*
%TD*%
%TO.C,Q472*%
X113395000Y-97155000D03*
X111395000Y-98105000D03*
X111395000Y-96205000D03*
%TD*%
%TO.C,Q471*%
X108950000Y-97155000D03*
X106950000Y-98105000D03*
X106950000Y-96205000D03*
%TD*%
%TO.C,Q470*%
X104505000Y-97155000D03*
X102505000Y-98105000D03*
X102505000Y-96205000D03*
%TD*%
%TO.C,Q469*%
X100060000Y-97155000D03*
X98060000Y-98105000D03*
X98060000Y-96205000D03*
%TD*%
%TO.C,Q468*%
X104505000Y-101600000D03*
X102505000Y-102550000D03*
X102505000Y-100650000D03*
%TD*%
%TO.C,Q467*%
X100060000Y-101600000D03*
X98060000Y-102550000D03*
X98060000Y-100650000D03*
%TD*%
%TO.C,Q466*%
X77835000Y-101600000D03*
X75835000Y-102550000D03*
X75835000Y-100650000D03*
%TD*%
%TO.C,Q465*%
X77835000Y-97155000D03*
X75835000Y-98105000D03*
X75835000Y-96205000D03*
%TD*%
%TO.C,Q464*%
X73390000Y-97155000D03*
X71390000Y-98105000D03*
X71390000Y-96205000D03*
%TD*%
%TO.C,Q463*%
X73390000Y-101600000D03*
X71390000Y-102550000D03*
X71390000Y-100650000D03*
%TD*%
%TO.C,Q462*%
X82280000Y-101600000D03*
X80280000Y-102550000D03*
X80280000Y-100650000D03*
%TD*%
%TO.C,Q461*%
X82280000Y-97155000D03*
X80280000Y-98105000D03*
X80280000Y-96205000D03*
%TD*%
%TO.C,Q460*%
X68945000Y-101600000D03*
X66945000Y-102550000D03*
X66945000Y-100650000D03*
%TD*%
%TO.C,Q459*%
X64500000Y-101600000D03*
X62500000Y-102550000D03*
X62500000Y-100650000D03*
%TD*%
%TO.C,Q458*%
X68945000Y-97155000D03*
X66945000Y-98105000D03*
X66945000Y-96205000D03*
%TD*%
%TO.C,Q457*%
X64500000Y-97155000D03*
X62500000Y-98105000D03*
X62500000Y-96205000D03*
%TD*%
%TO.C,Q456*%
X60055000Y-97155000D03*
X58055000Y-98105000D03*
X58055000Y-96205000D03*
%TD*%
%TO.C,Q455*%
X55610000Y-97155000D03*
X53610000Y-98105000D03*
X53610000Y-96205000D03*
%TD*%
%TO.C,Q454*%
X60055000Y-101600000D03*
X58055000Y-102550000D03*
X58055000Y-100650000D03*
%TD*%
%TO.C,Q453*%
X55610000Y-101600000D03*
X53610000Y-102550000D03*
X53610000Y-100650000D03*
%TD*%
%TO.C,Q452*%
X42275000Y-101600000D03*
X40275000Y-102550000D03*
X40275000Y-100650000D03*
%TD*%
%TO.C,Q451*%
X42275000Y-97155000D03*
X40275000Y-98105000D03*
X40275000Y-96205000D03*
%TD*%
%TO.C,Q450*%
X37830000Y-97155000D03*
X35830000Y-98105000D03*
X35830000Y-96205000D03*
%TD*%
%TO.C,Q449*%
X37830000Y-101600000D03*
X35830000Y-102550000D03*
X35830000Y-100650000D03*
%TD*%
%TO.C,Q448*%
X46720000Y-101600000D03*
X44720000Y-102550000D03*
X44720000Y-100650000D03*
%TD*%
%TO.C,Q447*%
X46720000Y-97155000D03*
X44720000Y-98105000D03*
X44720000Y-96205000D03*
%TD*%
%TO.C,Q446*%
X33385000Y-101600000D03*
X31385000Y-102550000D03*
X31385000Y-100650000D03*
%TD*%
%TO.C,Q445*%
X28940000Y-101600000D03*
X26940000Y-102550000D03*
X26940000Y-100650000D03*
%TD*%
%TO.C,Q444*%
X33385000Y-97155000D03*
X31385000Y-98105000D03*
X31385000Y-96205000D03*
%TD*%
%TO.C,Q443*%
X28940000Y-97155000D03*
X26940000Y-98105000D03*
X26940000Y-96205000D03*
%TD*%
%TO.C,Q442*%
X24495000Y-97155000D03*
X22495000Y-98105000D03*
X22495000Y-96205000D03*
%TD*%
%TO.C,Q441*%
X20050000Y-97155000D03*
X18050000Y-98105000D03*
X18050000Y-96205000D03*
%TD*%
%TO.C,Q440*%
X24495000Y-101600000D03*
X22495000Y-102550000D03*
X22495000Y-100650000D03*
%TD*%
%TO.C,Q439*%
X20050000Y-101600000D03*
X18050000Y-102550000D03*
X18050000Y-100650000D03*
%TD*%
%TO.C,Q438*%
X157845000Y-92710000D03*
X155845000Y-93660000D03*
X155845000Y-91760000D03*
%TD*%
%TO.C,Q437*%
X157845000Y-88265000D03*
X155845000Y-89215000D03*
X155845000Y-87315000D03*
%TD*%
%TO.C,Q436*%
X153400000Y-88265000D03*
X151400000Y-89215000D03*
X151400000Y-87315000D03*
%TD*%
%TO.C,Q435*%
X153400000Y-92710000D03*
X151400000Y-93660000D03*
X151400000Y-91760000D03*
%TD*%
%TO.C,Q434*%
X162290000Y-92710000D03*
X160290000Y-93660000D03*
X160290000Y-91760000D03*
%TD*%
%TO.C,Q433*%
X162290000Y-88265000D03*
X160290000Y-89215000D03*
X160290000Y-87315000D03*
%TD*%
%TO.C,Q432*%
X148955000Y-92710000D03*
X146955000Y-93660000D03*
X146955000Y-91760000D03*
%TD*%
%TO.C,Q431*%
X144510000Y-92710000D03*
X142510000Y-93660000D03*
X142510000Y-91760000D03*
%TD*%
%TO.C,Q430*%
X148955000Y-88265000D03*
X146955000Y-89215000D03*
X146955000Y-87315000D03*
%TD*%
%TO.C,Q429*%
X144510000Y-88265000D03*
X142510000Y-89215000D03*
X142510000Y-87315000D03*
%TD*%
%TO.C,Q428*%
X140065000Y-88265000D03*
X138065000Y-89215000D03*
X138065000Y-87315000D03*
%TD*%
%TO.C,Q427*%
X135620000Y-88265000D03*
X133620000Y-89215000D03*
X133620000Y-87315000D03*
%TD*%
%TO.C,Q426*%
X140065000Y-92710000D03*
X138065000Y-93660000D03*
X138065000Y-91760000D03*
%TD*%
%TO.C,Q425*%
X135620000Y-92710000D03*
X133620000Y-93660000D03*
X133620000Y-91760000D03*
%TD*%
%TO.C,Q424*%
X122285000Y-92710000D03*
X120285000Y-93660000D03*
X120285000Y-91760000D03*
%TD*%
%TO.C,Q423*%
X122285000Y-88265000D03*
X120285000Y-89215000D03*
X120285000Y-87315000D03*
%TD*%
%TO.C,Q422*%
X117840000Y-88265000D03*
X115840000Y-89215000D03*
X115840000Y-87315000D03*
%TD*%
%TO.C,Q421*%
X117840000Y-92710000D03*
X115840000Y-93660000D03*
X115840000Y-91760000D03*
%TD*%
%TO.C,Q420*%
X126730000Y-92710000D03*
X124730000Y-93660000D03*
X124730000Y-91760000D03*
%TD*%
%TO.C,Q419*%
X126730000Y-88265000D03*
X124730000Y-89215000D03*
X124730000Y-87315000D03*
%TD*%
%TO.C,Q418*%
X113395000Y-92710000D03*
X111395000Y-93660000D03*
X111395000Y-91760000D03*
%TD*%
%TO.C,Q417*%
X108950000Y-92710000D03*
X106950000Y-93660000D03*
X106950000Y-91760000D03*
%TD*%
%TO.C,Q416*%
X113395000Y-88265000D03*
X111395000Y-89215000D03*
X111395000Y-87315000D03*
%TD*%
%TO.C,Q415*%
X108950000Y-88265000D03*
X106950000Y-89215000D03*
X106950000Y-87315000D03*
%TD*%
%TO.C,Q414*%
X104505000Y-88265000D03*
X102505000Y-89215000D03*
X102505000Y-87315000D03*
%TD*%
%TO.C,Q413*%
X100060000Y-88265000D03*
X98060000Y-89215000D03*
X98060000Y-87315000D03*
%TD*%
%TO.C,Q412*%
X104505000Y-92710000D03*
X102505000Y-93660000D03*
X102505000Y-91760000D03*
%TD*%
%TO.C,Q411*%
X100060000Y-92710000D03*
X98060000Y-93660000D03*
X98060000Y-91760000D03*
%TD*%
%TO.C,Q400*%
X122285000Y-110490000D03*
X120285000Y-111440000D03*
X120285000Y-109540000D03*
%TD*%
%TO.C,Q399*%
X122285000Y-106045000D03*
X120285000Y-106995000D03*
X120285000Y-105095000D03*
%TD*%
%TO.C,Q398*%
X117840000Y-106045000D03*
X115840000Y-106995000D03*
X115840000Y-105095000D03*
%TD*%
%TO.C,Q397*%
X117840000Y-110490000D03*
X115840000Y-111440000D03*
X115840000Y-109540000D03*
%TD*%
%TO.C,Q394*%
X113395000Y-110490000D03*
X111395000Y-111440000D03*
X111395000Y-109540000D03*
%TD*%
%TO.C,Q393*%
X108950000Y-110490000D03*
X106950000Y-111440000D03*
X106950000Y-109540000D03*
%TD*%
%TO.C,Q392*%
X113395000Y-106045000D03*
X111395000Y-106995000D03*
X111395000Y-105095000D03*
%TD*%
%TO.C,Q391*%
X108950000Y-106045000D03*
X106950000Y-106995000D03*
X106950000Y-105095000D03*
%TD*%
%TO.C,Q390*%
X104505000Y-106045000D03*
X102505000Y-106995000D03*
X102505000Y-105095000D03*
%TD*%
%TO.C,Q389*%
X100060000Y-106045000D03*
X98060000Y-106995000D03*
X98060000Y-105095000D03*
%TD*%
%TO.C,Q388*%
X104505000Y-110490000D03*
X102505000Y-111440000D03*
X102505000Y-109540000D03*
%TD*%
%TO.C,Q387*%
X100060000Y-110490000D03*
X98060000Y-111440000D03*
X98060000Y-109540000D03*
%TD*%
%TO.C,Q386*%
X77835000Y-110490000D03*
X75835000Y-111440000D03*
X75835000Y-109540000D03*
%TD*%
%TO.C,Q385*%
X77835000Y-106045000D03*
X75835000Y-106995000D03*
X75835000Y-105095000D03*
%TD*%
%TO.C,Q384*%
X73390000Y-106045000D03*
X71390000Y-106995000D03*
X71390000Y-105095000D03*
%TD*%
%TO.C,Q383*%
X73390000Y-110490000D03*
X71390000Y-111440000D03*
X71390000Y-109540000D03*
%TD*%
%TO.C,Q382*%
X82280000Y-110490000D03*
X80280000Y-111440000D03*
X80280000Y-109540000D03*
%TD*%
%TO.C,Q381*%
X82280000Y-106045000D03*
X80280000Y-106995000D03*
X80280000Y-105095000D03*
%TD*%
%TO.C,Q380*%
X68945000Y-110490000D03*
X66945000Y-111440000D03*
X66945000Y-109540000D03*
%TD*%
%TO.C,Q379*%
X64500000Y-110490000D03*
X62500000Y-111440000D03*
X62500000Y-109540000D03*
%TD*%
%TO.C,Q378*%
X68945000Y-106045000D03*
X66945000Y-106995000D03*
X66945000Y-105095000D03*
%TD*%
%TO.C,Q377*%
X64500000Y-106045000D03*
X62500000Y-106995000D03*
X62500000Y-105095000D03*
%TD*%
%TO.C,Q376*%
X60055000Y-106045000D03*
X58055000Y-106995000D03*
X58055000Y-105095000D03*
%TD*%
%TO.C,Q375*%
X55610000Y-106045000D03*
X53610000Y-106995000D03*
X53610000Y-105095000D03*
%TD*%
%TO.C,Q374*%
X60055000Y-110490000D03*
X58055000Y-111440000D03*
X58055000Y-109540000D03*
%TD*%
%TO.C,Q373*%
X55610000Y-110490000D03*
X53610000Y-111440000D03*
X53610000Y-109540000D03*
%TD*%
%TO.C,Q372*%
X42275000Y-110490000D03*
X40275000Y-111440000D03*
X40275000Y-109540000D03*
%TD*%
%TO.C,Q371*%
X42275000Y-106045000D03*
X40275000Y-106995000D03*
X40275000Y-105095000D03*
%TD*%
%TO.C,Q370*%
X37830000Y-106045000D03*
X35830000Y-106995000D03*
X35830000Y-105095000D03*
%TD*%
%TO.C,Q369*%
X37830000Y-110490000D03*
X35830000Y-111440000D03*
X35830000Y-109540000D03*
%TD*%
%TO.C,Q368*%
X46720000Y-110490000D03*
X44720000Y-111440000D03*
X44720000Y-109540000D03*
%TD*%
%TO.C,Q367*%
X46720000Y-106045000D03*
X44720000Y-106995000D03*
X44720000Y-105095000D03*
%TD*%
%TO.C,Q366*%
X33385000Y-110490000D03*
X31385000Y-111440000D03*
X31385000Y-109540000D03*
%TD*%
%TO.C,Q365*%
X28940000Y-110490000D03*
X26940000Y-111440000D03*
X26940000Y-109540000D03*
%TD*%
%TO.C,Q364*%
X33385000Y-106045000D03*
X31385000Y-106995000D03*
X31385000Y-105095000D03*
%TD*%
%TO.C,Q363*%
X28940000Y-106045000D03*
X26940000Y-106995000D03*
X26940000Y-105095000D03*
%TD*%
%TO.C,Q362*%
X24495000Y-106045000D03*
X22495000Y-106995000D03*
X22495000Y-105095000D03*
%TD*%
%TO.C,Q361*%
X20050000Y-106045000D03*
X18050000Y-106995000D03*
X18050000Y-105095000D03*
%TD*%
%TO.C,Q360*%
X24495000Y-110490000D03*
X22495000Y-111440000D03*
X22495000Y-109540000D03*
%TD*%
%TO.C,Q359*%
X20050000Y-110490000D03*
X18050000Y-111440000D03*
X18050000Y-109540000D03*
%TD*%
D12*
%TO.C,J5*%
X152400000Y-190500000D03*
X149860000Y-190500000D03*
X147320000Y-190500000D03*
X144780000Y-190500000D03*
X142240000Y-190500000D03*
X139700000Y-190500000D03*
X137160000Y-190500000D03*
X134620000Y-190500000D03*
X132080000Y-190500000D03*
D13*
X129540000Y-190500000D03*
%TD*%
D12*
%TO.C,J4*%
X124460000Y-190500000D03*
X121920000Y-190500000D03*
X119380000Y-190500000D03*
X116840000Y-190500000D03*
X114300000Y-190500000D03*
X111760000Y-190500000D03*
X109220000Y-190500000D03*
X106680000Y-190500000D03*
X104140000Y-190500000D03*
D13*
X101600000Y-190500000D03*
%TD*%
D12*
%TO.C,J3*%
X96520000Y-190500000D03*
X93980000Y-190500000D03*
X91440000Y-190500000D03*
X88900000Y-190500000D03*
X86360000Y-190500000D03*
X83820000Y-190500000D03*
X81280000Y-190500000D03*
X78740000Y-190500000D03*
X76200000Y-190500000D03*
D13*
X73660000Y-190500000D03*
%TD*%
D12*
%TO.C,J1*%
X68580000Y-190500000D03*
X66040000Y-190500000D03*
X63500000Y-190500000D03*
X60960000Y-190500000D03*
X58420000Y-190500000D03*
X55880000Y-190500000D03*
X53340000Y-190500000D03*
X50800000Y-190500000D03*
X48260000Y-190500000D03*
D13*
X45720000Y-190500000D03*
%TD*%
D14*
%TO.C,H2*%
X22017056Y1062056D03*
X20320000Y1765000D03*
X18622944Y1062056D03*
X17920000Y-635000D03*
X18622944Y-2332056D03*
X20320000Y-3035000D03*
X22017056Y-2332056D03*
X22720000Y-635000D03*
D15*
X20320000Y-635000D03*
%TD*%
D14*
%TO.C,H1*%
X161717056Y-186262944D03*
X160020000Y-185560000D03*
X158322944Y-186262944D03*
X157620000Y-187960000D03*
X158322944Y-189657056D03*
X160020000Y-190360000D03*
X161717056Y-189657056D03*
X162420000Y-187960000D03*
D15*
X160020000Y-187960000D03*
%TD*%
D11*
%TO.C,Q976*%
X37830000Y-3810000D03*
X35830000Y-4760000D03*
X35830000Y-2860000D03*
%TD*%
%TO.C,Q975*%
X37830000Y635000D03*
X35830000Y-315000D03*
X35830000Y1585000D03*
%TD*%
%TO.C,Q974*%
X46720000Y635000D03*
X44720000Y-315000D03*
X44720000Y1585000D03*
%TD*%
%TO.C,Q973*%
X42275000Y635000D03*
X40275000Y-315000D03*
X40275000Y1585000D03*
%TD*%
%TO.C,Q972*%
X46720000Y-3810000D03*
X44720000Y-4760000D03*
X44720000Y-2860000D03*
%TD*%
%TO.C,Q971*%
X42275000Y-3810000D03*
X40275000Y-4760000D03*
X40275000Y-2860000D03*
%TD*%
%TO.C,Q970*%
X77835000Y-3810000D03*
X75835000Y-4760000D03*
X75835000Y-2860000D03*
%TD*%
%TO.C,Q969*%
X77835000Y635000D03*
X75835000Y-315000D03*
X75835000Y1585000D03*
%TD*%
%TO.C,Q968*%
X73390000Y635000D03*
X71390000Y-315000D03*
X71390000Y1585000D03*
%TD*%
%TO.C,Q967*%
X73390000Y-3810000D03*
X71390000Y-4760000D03*
X71390000Y-2860000D03*
%TD*%
%TO.C,Q966*%
X82280000Y-3810000D03*
X80280000Y-4760000D03*
X80280000Y-2860000D03*
%TD*%
%TO.C,Q965*%
X82280000Y635000D03*
X80280000Y-315000D03*
X80280000Y1585000D03*
%TD*%
%TO.C,Q964*%
X68945000Y-3810000D03*
X66945000Y-4760000D03*
X66945000Y-2860000D03*
%TD*%
%TO.C,Q963*%
X64500000Y-3810000D03*
X62500000Y-4760000D03*
X62500000Y-2860000D03*
%TD*%
%TO.C,Q962*%
X68945000Y635000D03*
X66945000Y-315000D03*
X66945000Y1585000D03*
%TD*%
%TO.C,Q961*%
X64500000Y635000D03*
X62500000Y-315000D03*
X62500000Y1585000D03*
%TD*%
%TO.C,Q960*%
X60055000Y635000D03*
X58055000Y-315000D03*
X58055000Y1585000D03*
%TD*%
%TO.C,Q959*%
X55610000Y635000D03*
X53610000Y-315000D03*
X53610000Y1585000D03*
%TD*%
%TO.C,Q958*%
X60055000Y-3810000D03*
X58055000Y-4760000D03*
X58055000Y-2860000D03*
%TD*%
%TO.C,Q957*%
X55610000Y-3810000D03*
X53610000Y-4760000D03*
X53610000Y-2860000D03*
%TD*%
%TO.C,Q620*%
X77835000Y-74930000D03*
X75835000Y-75880000D03*
X75835000Y-73980000D03*
%TD*%
%TO.C,Q619*%
X77835000Y-70485000D03*
X75835000Y-71435000D03*
X75835000Y-69535000D03*
%TD*%
%TO.C,Q618*%
X73390000Y-70485000D03*
X71390000Y-71435000D03*
X71390000Y-69535000D03*
%TD*%
%TO.C,Q617*%
X73390000Y-74930000D03*
X71390000Y-75880000D03*
X71390000Y-73980000D03*
%TD*%
%TO.C,Q616*%
X82280000Y-74930000D03*
X80280000Y-75880000D03*
X80280000Y-73980000D03*
%TD*%
%TO.C,Q615*%
X82280000Y-70485000D03*
X80280000Y-71435000D03*
X80280000Y-69535000D03*
%TD*%
%TO.C,Q614*%
X68945000Y-74930000D03*
X66945000Y-75880000D03*
X66945000Y-73980000D03*
%TD*%
%TO.C,Q613*%
X64500000Y-74930000D03*
X62500000Y-75880000D03*
X62500000Y-73980000D03*
%TD*%
%TO.C,Q612*%
X68945000Y-70485000D03*
X66945000Y-71435000D03*
X66945000Y-69535000D03*
%TD*%
%TO.C,Q611*%
X64500000Y-70485000D03*
X62500000Y-71435000D03*
X62500000Y-69535000D03*
%TD*%
%TO.C,Q610*%
X60055000Y-70485000D03*
X58055000Y-71435000D03*
X58055000Y-69535000D03*
%TD*%
%TO.C,Q609*%
X55610000Y-70485000D03*
X53610000Y-71435000D03*
X53610000Y-69535000D03*
%TD*%
%TO.C,Q608*%
X60055000Y-74930000D03*
X58055000Y-75880000D03*
X58055000Y-73980000D03*
%TD*%
%TO.C,Q607*%
X55610000Y-74930000D03*
X53610000Y-75880000D03*
X53610000Y-73980000D03*
%TD*%
%TO.C,Q606*%
X157845000Y-83820000D03*
X155845000Y-84770000D03*
X155845000Y-82870000D03*
%TD*%
%TO.C,Q605*%
X157845000Y-79375000D03*
X155845000Y-80325000D03*
X155845000Y-78425000D03*
%TD*%
%TO.C,Q604*%
X153400000Y-79375000D03*
X151400000Y-80325000D03*
X151400000Y-78425000D03*
%TD*%
%TO.C,Q603*%
X153400000Y-83820000D03*
X151400000Y-84770000D03*
X151400000Y-82870000D03*
%TD*%
%TO.C,Q602*%
X162290000Y-83820000D03*
X160290000Y-84770000D03*
X160290000Y-82870000D03*
%TD*%
%TO.C,Q601*%
X162290000Y-79375000D03*
X160290000Y-80325000D03*
X160290000Y-78425000D03*
%TD*%
%TO.C,Q600*%
X148955000Y-83820000D03*
X146955000Y-84770000D03*
X146955000Y-82870000D03*
%TD*%
%TO.C,Q599*%
X144510000Y-83820000D03*
X142510000Y-84770000D03*
X142510000Y-82870000D03*
%TD*%
%TO.C,Q598*%
X148955000Y-79375000D03*
X146955000Y-80325000D03*
X146955000Y-78425000D03*
%TD*%
%TO.C,Q597*%
X144510000Y-79375000D03*
X142510000Y-80325000D03*
X142510000Y-78425000D03*
%TD*%
%TO.C,Q596*%
X140065000Y-79375000D03*
X138065000Y-80325000D03*
X138065000Y-78425000D03*
%TD*%
%TO.C,Q595*%
X135620000Y-79375000D03*
X133620000Y-80325000D03*
X133620000Y-78425000D03*
%TD*%
%TO.C,Q594*%
X140065000Y-83820000D03*
X138065000Y-84770000D03*
X138065000Y-82870000D03*
%TD*%
%TO.C,Q593*%
X135620000Y-83820000D03*
X133620000Y-84770000D03*
X133620000Y-82870000D03*
%TD*%
%TO.C,Q592*%
X42275000Y-83820000D03*
X40275000Y-84770000D03*
X40275000Y-82870000D03*
%TD*%
%TO.C,Q591*%
X42275000Y-79375000D03*
X40275000Y-80325000D03*
X40275000Y-78425000D03*
%TD*%
%TO.C,Q590*%
X37830000Y-79375000D03*
X35830000Y-80325000D03*
X35830000Y-78425000D03*
%TD*%
%TO.C,Q589*%
X37830000Y-83820000D03*
X35830000Y-84770000D03*
X35830000Y-82870000D03*
%TD*%
%TO.C,Q588*%
X46720000Y-83820000D03*
X44720000Y-84770000D03*
X44720000Y-82870000D03*
%TD*%
%TO.C,Q587*%
X46720000Y-79375000D03*
X44720000Y-80325000D03*
X44720000Y-78425000D03*
%TD*%
%TO.C,Q586*%
X33385000Y-83820000D03*
X31385000Y-84770000D03*
X31385000Y-82870000D03*
%TD*%
%TO.C,Q585*%
X28940000Y-83820000D03*
X26940000Y-84770000D03*
X26940000Y-82870000D03*
%TD*%
%TO.C,Q584*%
X33385000Y-79375000D03*
X31385000Y-80325000D03*
X31385000Y-78425000D03*
%TD*%
%TO.C,Q583*%
X28940000Y-79375000D03*
X26940000Y-80325000D03*
X26940000Y-78425000D03*
%TD*%
%TO.C,Q582*%
X24495000Y-79375000D03*
X22495000Y-80325000D03*
X22495000Y-78425000D03*
%TD*%
%TO.C,Q581*%
X20050000Y-79375000D03*
X18050000Y-80325000D03*
X18050000Y-78425000D03*
%TD*%
%TO.C,Q580*%
X24495000Y-83820000D03*
X22495000Y-84770000D03*
X22495000Y-82870000D03*
%TD*%
%TO.C,Q579*%
X20050000Y-83820000D03*
X18050000Y-84770000D03*
X18050000Y-82870000D03*
%TD*%
%TO.C,Q578*%
X77835000Y-92710000D03*
X75835000Y-93660000D03*
X75835000Y-91760000D03*
%TD*%
%TO.C,Q577*%
X77835000Y-88265000D03*
X75835000Y-89215000D03*
X75835000Y-87315000D03*
%TD*%
%TO.C,Q576*%
X73390000Y-88265000D03*
X71390000Y-89215000D03*
X71390000Y-87315000D03*
%TD*%
%TO.C,Q575*%
X73390000Y-92710000D03*
X71390000Y-93660000D03*
X71390000Y-91760000D03*
%TD*%
%TO.C,Q574*%
X82280000Y-92710000D03*
X80280000Y-93660000D03*
X80280000Y-91760000D03*
%TD*%
%TO.C,Q573*%
X82280000Y-88265000D03*
X80280000Y-89215000D03*
X80280000Y-87315000D03*
%TD*%
%TO.C,Q572*%
X68945000Y-92710000D03*
X66945000Y-93660000D03*
X66945000Y-91760000D03*
%TD*%
%TO.C,Q571*%
X64500000Y-92710000D03*
X62500000Y-93660000D03*
X62500000Y-91760000D03*
%TD*%
%TO.C,Q570*%
X68945000Y-88265000D03*
X66945000Y-89215000D03*
X66945000Y-87315000D03*
%TD*%
%TO.C,Q569*%
X64500000Y-88265000D03*
X62500000Y-89215000D03*
X62500000Y-87315000D03*
%TD*%
%TO.C,Q568*%
X60055000Y-88265000D03*
X58055000Y-89215000D03*
X58055000Y-87315000D03*
%TD*%
%TO.C,Q567*%
X55610000Y-88265000D03*
X53610000Y-89215000D03*
X53610000Y-87315000D03*
%TD*%
%TO.C,Q566*%
X60055000Y-92710000D03*
X58055000Y-93660000D03*
X58055000Y-91760000D03*
%TD*%
%TO.C,Q565*%
X55610000Y-92710000D03*
X53610000Y-93660000D03*
X53610000Y-91760000D03*
%TD*%
%TO.C,Q564*%
X42275000Y-92710000D03*
X40275000Y-93660000D03*
X40275000Y-91760000D03*
%TD*%
%TO.C,Q563*%
X42275000Y-88265000D03*
X40275000Y-89215000D03*
X40275000Y-87315000D03*
%TD*%
%TO.C,Q562*%
X37830000Y-88265000D03*
X35830000Y-89215000D03*
X35830000Y-87315000D03*
%TD*%
%TO.C,Q561*%
X37830000Y-92710000D03*
X35830000Y-93660000D03*
X35830000Y-91760000D03*
%TD*%
%TO.C,Q560*%
X46720000Y-92710000D03*
X44720000Y-93660000D03*
X44720000Y-91760000D03*
%TD*%
%TO.C,Q559*%
X46720000Y-88265000D03*
X44720000Y-89215000D03*
X44720000Y-87315000D03*
%TD*%
%TO.C,Q558*%
X33385000Y-92710000D03*
X31385000Y-93660000D03*
X31385000Y-91760000D03*
%TD*%
%TO.C,Q557*%
X28940000Y-92710000D03*
X26940000Y-93660000D03*
X26940000Y-91760000D03*
%TD*%
%TO.C,Q556*%
X33385000Y-88265000D03*
X31385000Y-89215000D03*
X31385000Y-87315000D03*
%TD*%
%TO.C,Q555*%
X28940000Y-88265000D03*
X26940000Y-89215000D03*
X26940000Y-87315000D03*
%TD*%
%TO.C,Q554*%
X24495000Y-88265000D03*
X22495000Y-89215000D03*
X22495000Y-87315000D03*
%TD*%
%TO.C,Q553*%
X20050000Y-88265000D03*
X18050000Y-89215000D03*
X18050000Y-87315000D03*
%TD*%
%TO.C,Q552*%
X24495000Y-92710000D03*
X22495000Y-93660000D03*
X22495000Y-91760000D03*
%TD*%
%TO.C,Q551*%
X20050000Y-92710000D03*
X18050000Y-93660000D03*
X18050000Y-91760000D03*
%TD*%
%TO.C,Q550*%
X122285000Y-83820000D03*
X120285000Y-84770000D03*
X120285000Y-82870000D03*
%TD*%
%TO.C,Q549*%
X122285000Y-79375000D03*
X120285000Y-80325000D03*
X120285000Y-78425000D03*
%TD*%
%TO.C,Q548*%
X117840000Y-79375000D03*
X115840000Y-80325000D03*
X115840000Y-78425000D03*
%TD*%
%TO.C,Q547*%
X117840000Y-83820000D03*
X115840000Y-84770000D03*
X115840000Y-82870000D03*
%TD*%
%TO.C,Q546*%
X126730000Y-83820000D03*
X124730000Y-84770000D03*
X124730000Y-82870000D03*
%TD*%
%TO.C,Q545*%
X126730000Y-79375000D03*
X124730000Y-80325000D03*
X124730000Y-78425000D03*
%TD*%
%TO.C,Q544*%
X113395000Y-83820000D03*
X111395000Y-84770000D03*
X111395000Y-82870000D03*
%TD*%
%TO.C,Q543*%
X108950000Y-83820000D03*
X106950000Y-84770000D03*
X106950000Y-82870000D03*
%TD*%
%TO.C,Q542*%
X113395000Y-79375000D03*
X111395000Y-80325000D03*
X111395000Y-78425000D03*
%TD*%
%TO.C,Q541*%
X108950000Y-79375000D03*
X106950000Y-80325000D03*
X106950000Y-78425000D03*
%TD*%
%TO.C,Q540*%
X104505000Y-79375000D03*
X102505000Y-80325000D03*
X102505000Y-78425000D03*
%TD*%
%TO.C,Q539*%
X100060000Y-79375000D03*
X98060000Y-80325000D03*
X98060000Y-78425000D03*
%TD*%
%TO.C,Q538*%
X104505000Y-83820000D03*
X102505000Y-84770000D03*
X102505000Y-82870000D03*
%TD*%
%TO.C,Q537*%
X100060000Y-83820000D03*
X98060000Y-84770000D03*
X98060000Y-82870000D03*
%TD*%
%TO.C,Q536*%
X77835000Y-83820000D03*
X75835000Y-84770000D03*
X75835000Y-82870000D03*
%TD*%
%TO.C,Q535*%
X77835000Y-79375000D03*
X75835000Y-80325000D03*
X75835000Y-78425000D03*
%TD*%
%TO.C,Q534*%
X73390000Y-79375000D03*
X71390000Y-80325000D03*
X71390000Y-78425000D03*
%TD*%
%TO.C,Q533*%
X73390000Y-83820000D03*
X71390000Y-84770000D03*
X71390000Y-82870000D03*
%TD*%
%TO.C,Q532*%
X82280000Y-83820000D03*
X80280000Y-84770000D03*
X80280000Y-82870000D03*
%TD*%
%TO.C,Q531*%
X82280000Y-79375000D03*
X80280000Y-80325000D03*
X80280000Y-78425000D03*
%TD*%
%TO.C,Q530*%
X68945000Y-83820000D03*
X66945000Y-84770000D03*
X66945000Y-82870000D03*
%TD*%
%TO.C,Q529*%
X64500000Y-83820000D03*
X62500000Y-84770000D03*
X62500000Y-82870000D03*
%TD*%
%TO.C,Q528*%
X68945000Y-79375000D03*
X66945000Y-80325000D03*
X66945000Y-78425000D03*
%TD*%
%TO.C,Q527*%
X64500000Y-79375000D03*
X62500000Y-80325000D03*
X62500000Y-78425000D03*
%TD*%
%TO.C,Q526*%
X60055000Y-79375000D03*
X58055000Y-80325000D03*
X58055000Y-78425000D03*
%TD*%
%TO.C,Q525*%
X55610000Y-79375000D03*
X53610000Y-80325000D03*
X53610000Y-78425000D03*
%TD*%
%TO.C,Q524*%
X60055000Y-83820000D03*
X58055000Y-84770000D03*
X58055000Y-82870000D03*
%TD*%
%TO.C,Q523*%
X55610000Y-83820000D03*
X53610000Y-84770000D03*
X53610000Y-82870000D03*
%TD*%
%TO.C,Q522*%
X157845000Y-74930000D03*
X155845000Y-75880000D03*
X155845000Y-73980000D03*
%TD*%
%TO.C,Q521*%
X157845000Y-70485000D03*
X155845000Y-71435000D03*
X155845000Y-69535000D03*
%TD*%
%TO.C,Q520*%
X153400000Y-70485000D03*
X151400000Y-71435000D03*
X151400000Y-69535000D03*
%TD*%
%TO.C,Q519*%
X153400000Y-74930000D03*
X151400000Y-75880000D03*
X151400000Y-73980000D03*
%TD*%
%TO.C,Q518*%
X162290000Y-74930000D03*
X160290000Y-75880000D03*
X160290000Y-73980000D03*
%TD*%
%TO.C,Q517*%
X162290000Y-70485000D03*
X160290000Y-71435000D03*
X160290000Y-69535000D03*
%TD*%
%TO.C,Q516*%
X148955000Y-74930000D03*
X146955000Y-75880000D03*
X146955000Y-73980000D03*
%TD*%
%TO.C,Q515*%
X144510000Y-74930000D03*
X142510000Y-75880000D03*
X142510000Y-73980000D03*
%TD*%
%TO.C,Q514*%
X148955000Y-70485000D03*
X146955000Y-71435000D03*
X146955000Y-69535000D03*
%TD*%
%TO.C,Q513*%
X144510000Y-70485000D03*
X142510000Y-71435000D03*
X142510000Y-69535000D03*
%TD*%
%TO.C,Q512*%
X140065000Y-70485000D03*
X138065000Y-71435000D03*
X138065000Y-69535000D03*
%TD*%
%TO.C,Q511*%
X135620000Y-70485000D03*
X133620000Y-71435000D03*
X133620000Y-69535000D03*
%TD*%
%TO.C,Q510*%
X140065000Y-74930000D03*
X138065000Y-75880000D03*
X138065000Y-73980000D03*
%TD*%
%TO.C,Q509*%
X135620000Y-74930000D03*
X133620000Y-75880000D03*
X133620000Y-73980000D03*
%TD*%
%TO.C,Q508*%
X122285000Y-74930000D03*
X120285000Y-75880000D03*
X120285000Y-73980000D03*
%TD*%
%TO.C,Q507*%
X122285000Y-70485000D03*
X120285000Y-71435000D03*
X120285000Y-69535000D03*
%TD*%
%TO.C,Q506*%
X117840000Y-70485000D03*
X115840000Y-71435000D03*
X115840000Y-69535000D03*
%TD*%
%TO.C,Q505*%
X117840000Y-74930000D03*
X115840000Y-75880000D03*
X115840000Y-73980000D03*
%TD*%
%TO.C,Q504*%
X126730000Y-74930000D03*
X124730000Y-75880000D03*
X124730000Y-73980000D03*
%TD*%
%TO.C,Q503*%
X126730000Y-70485000D03*
X124730000Y-71435000D03*
X124730000Y-69535000D03*
%TD*%
%TO.C,Q502*%
X113395000Y-74930000D03*
X111395000Y-75880000D03*
X111395000Y-73980000D03*
%TD*%
%TO.C,Q501*%
X108950000Y-74930000D03*
X106950000Y-75880000D03*
X106950000Y-73980000D03*
%TD*%
%TO.C,Q500*%
X113395000Y-70485000D03*
X111395000Y-71435000D03*
X111395000Y-69535000D03*
%TD*%
%TO.C,Q499*%
X108950000Y-70485000D03*
X106950000Y-71435000D03*
X106950000Y-69535000D03*
%TD*%
%TO.C,Q498*%
X104505000Y-70485000D03*
X102505000Y-71435000D03*
X102505000Y-69535000D03*
%TD*%
%TO.C,Q497*%
X100060000Y-70485000D03*
X98060000Y-71435000D03*
X98060000Y-69535000D03*
%TD*%
%TO.C,Q496*%
X104505000Y-74930000D03*
X102505000Y-75880000D03*
X102505000Y-73980000D03*
%TD*%
%TO.C,Q495*%
X100060000Y-74930000D03*
X98060000Y-75880000D03*
X98060000Y-73980000D03*
%TD*%
%TO.C,Q410*%
X148955000Y-110490000D03*
X146955000Y-111440000D03*
X146955000Y-109540000D03*
%TD*%
%TO.C,Q409*%
X148955000Y-106045000D03*
X146955000Y-106995000D03*
X146955000Y-105095000D03*
%TD*%
%TO.C,Q408*%
X144510000Y-106045000D03*
X142510000Y-106995000D03*
X142510000Y-105095000D03*
%TD*%
%TO.C,Q407*%
X144510000Y-110490000D03*
X142510000Y-111440000D03*
X142510000Y-109540000D03*
%TD*%
%TO.C,Q406*%
X157845000Y-110490000D03*
X155845000Y-111440000D03*
X155845000Y-109540000D03*
%TD*%
%TO.C,Q405*%
X157845000Y-106045000D03*
X155845000Y-106995000D03*
X155845000Y-105095000D03*
%TD*%
%TO.C,Q404*%
X153400000Y-106045000D03*
X151400000Y-106995000D03*
X151400000Y-105095000D03*
%TD*%
%TO.C,Q403*%
X153400000Y-110490000D03*
X151400000Y-111440000D03*
X151400000Y-109540000D03*
%TD*%
%TO.C,Q402*%
X162290000Y-110490000D03*
X160290000Y-111440000D03*
X160290000Y-109540000D03*
%TD*%
%TO.C,Q401*%
X162290000Y-106045000D03*
X160290000Y-106995000D03*
X160290000Y-105095000D03*
%TD*%
%TO.C,Q358*%
X162290000Y-137160000D03*
X160290000Y-138110000D03*
X160290000Y-136210000D03*
%TD*%
%TO.C,Q357*%
X162290000Y-132715000D03*
X160290000Y-133665000D03*
X160290000Y-131765000D03*
%TD*%
%TO.C,Q356*%
X157845000Y-132715000D03*
X155845000Y-133665000D03*
X155845000Y-131765000D03*
%TD*%
%TO.C,Q355*%
X157845000Y-137160000D03*
X155845000Y-138110000D03*
X155845000Y-136210000D03*
%TD*%
%TO.C,Q354*%
X68945000Y-137160000D03*
X66945000Y-138110000D03*
X66945000Y-136210000D03*
%TD*%
%TO.C,Q353*%
X68945000Y-132715000D03*
X66945000Y-133665000D03*
X66945000Y-131765000D03*
%TD*%
%TO.C,Q352*%
X64500000Y-132715000D03*
X62500000Y-133665000D03*
X62500000Y-131765000D03*
%TD*%
%TO.C,Q351*%
X64500000Y-137160000D03*
X62500000Y-138110000D03*
X62500000Y-136210000D03*
%TD*%
%TO.C,Q350*%
X77835000Y-137160000D03*
X75835000Y-138110000D03*
X75835000Y-136210000D03*
%TD*%
%TO.C,Q349*%
X77835000Y-132715000D03*
X75835000Y-133665000D03*
X75835000Y-131765000D03*
%TD*%
%TO.C,Q348*%
X73390000Y-132715000D03*
X71390000Y-133665000D03*
X71390000Y-131765000D03*
%TD*%
%TO.C,Q347*%
X73390000Y-137160000D03*
X71390000Y-138110000D03*
X71390000Y-136210000D03*
%TD*%
%TO.C,Q346*%
X82280000Y-137160000D03*
X80280000Y-138110000D03*
X80280000Y-136210000D03*
%TD*%
%TO.C,Q345*%
X82280000Y-132715000D03*
X80280000Y-133665000D03*
X80280000Y-131765000D03*
%TD*%
%TO.C,Q344*%
X113395000Y-137160000D03*
X111395000Y-138110000D03*
X111395000Y-136210000D03*
%TD*%
%TO.C,Q343*%
X113395000Y-132715000D03*
X111395000Y-133665000D03*
X111395000Y-131765000D03*
%TD*%
%TO.C,Q342*%
X108950000Y-132715000D03*
X106950000Y-133665000D03*
X106950000Y-131765000D03*
%TD*%
%TO.C,Q341*%
X108950000Y-137160000D03*
X106950000Y-138110000D03*
X106950000Y-136210000D03*
%TD*%
%TO.C,Q340*%
X122285000Y-137160000D03*
X120285000Y-138110000D03*
X120285000Y-136210000D03*
%TD*%
%TO.C,Q339*%
X122285000Y-132715000D03*
X120285000Y-133665000D03*
X120285000Y-131765000D03*
%TD*%
%TO.C,Q338*%
X117840000Y-132715000D03*
X115840000Y-133665000D03*
X115840000Y-131765000D03*
%TD*%
%TO.C,Q337*%
X117840000Y-137160000D03*
X115840000Y-138110000D03*
X115840000Y-136210000D03*
%TD*%
%TO.C,Q336*%
X126730000Y-137160000D03*
X124730000Y-138110000D03*
X124730000Y-136210000D03*
%TD*%
%TO.C,Q335*%
X126730000Y-132715000D03*
X124730000Y-133665000D03*
X124730000Y-131765000D03*
%TD*%
%TO.C,Q334*%
X33385000Y-137160000D03*
X31385000Y-138110000D03*
X31385000Y-136210000D03*
%TD*%
%TO.C,Q333*%
X33385000Y-132715000D03*
X31385000Y-133665000D03*
X31385000Y-131765000D03*
%TD*%
%TO.C,Q332*%
X28940000Y-132715000D03*
X26940000Y-133665000D03*
X26940000Y-131765000D03*
%TD*%
%TO.C,Q331*%
X28940000Y-137160000D03*
X26940000Y-138110000D03*
X26940000Y-136210000D03*
%TD*%
%TO.C,Q330*%
X42275000Y-137160000D03*
X40275000Y-138110000D03*
X40275000Y-136210000D03*
%TD*%
%TO.C,Q329*%
X42275000Y-132715000D03*
X40275000Y-133665000D03*
X40275000Y-131765000D03*
%TD*%
%TO.C,Q328*%
X37830000Y-132715000D03*
X35830000Y-133665000D03*
X35830000Y-131765000D03*
%TD*%
%TO.C,Q327*%
X37830000Y-137160000D03*
X35830000Y-138110000D03*
X35830000Y-136210000D03*
%TD*%
%TO.C,Q326*%
X46720000Y-137160000D03*
X44720000Y-138110000D03*
X44720000Y-136210000D03*
%TD*%
%TO.C,Q325*%
X46720000Y-132715000D03*
X44720000Y-133665000D03*
X44720000Y-131765000D03*
%TD*%
%TO.C,Q324*%
X148965001Y-128270000D03*
X146965001Y-129220000D03*
X146965001Y-127320000D03*
%TD*%
%TO.C,Q323*%
X148965001Y-123825000D03*
X146965001Y-124775000D03*
X146965001Y-122875000D03*
%TD*%
%TO.C,Q322*%
X144520001Y-123825000D03*
X142520001Y-124775000D03*
X142520001Y-122875000D03*
%TD*%
%TO.C,Q321*%
X144520001Y-128270000D03*
X142520001Y-129220000D03*
X142520001Y-127320000D03*
%TD*%
%TO.C,Q320*%
X157855001Y-128270000D03*
X155855001Y-129220000D03*
X155855001Y-127320000D03*
%TD*%
%TO.C,Q319*%
X157855001Y-123825000D03*
X155855001Y-124775000D03*
X155855001Y-122875000D03*
%TD*%
%TO.C,Q318*%
X153410001Y-123825000D03*
X151410001Y-124775000D03*
X151410001Y-122875000D03*
%TD*%
%TO.C,Q317*%
X153410001Y-128270000D03*
X151410001Y-129220000D03*
X151410001Y-127320000D03*
%TD*%
%TO.C,Q316*%
X162300001Y-128270000D03*
X160300001Y-129220000D03*
X160300001Y-127320000D03*
%TD*%
%TO.C,Q315*%
X162300001Y-123825000D03*
X160300001Y-124775000D03*
X160300001Y-122875000D03*
%TD*%
%TO.C,Q314*%
X113395000Y-128270000D03*
X111395000Y-129220000D03*
X111395000Y-127320000D03*
%TD*%
%TO.C,Q313*%
X113395000Y-123825000D03*
X111395000Y-124775000D03*
X111395000Y-122875000D03*
%TD*%
%TO.C,Q312*%
X108950000Y-123825000D03*
X106950000Y-124775000D03*
X106950000Y-122875000D03*
%TD*%
%TO.C,Q311*%
X108950000Y-128270000D03*
X106950000Y-129220000D03*
X106950000Y-127320000D03*
%TD*%
%TO.C,Q310*%
X122285000Y-128270000D03*
X120285000Y-129220000D03*
X120285000Y-127320000D03*
%TD*%
%TO.C,Q309*%
X122285000Y-123825000D03*
X120285000Y-124775000D03*
X120285000Y-122875000D03*
%TD*%
%TO.C,Q308*%
X117840000Y-123825000D03*
X115840000Y-124775000D03*
X115840000Y-122875000D03*
%TD*%
%TO.C,Q307*%
X117840000Y-128270000D03*
X115840000Y-129220000D03*
X115840000Y-127320000D03*
%TD*%
%TO.C,Q306*%
X126730000Y-128270000D03*
X124730000Y-129220000D03*
X124730000Y-127320000D03*
%TD*%
%TO.C,Q305*%
X126730000Y-123825000D03*
X124730000Y-124775000D03*
X124730000Y-122875000D03*
%TD*%
%TO.C,Q304*%
X68945000Y-128270000D03*
X66945000Y-129220000D03*
X66945000Y-127320000D03*
%TD*%
%TO.C,Q303*%
X68945000Y-123825000D03*
X66945000Y-124775000D03*
X66945000Y-122875000D03*
%TD*%
%TO.C,Q302*%
X64500000Y-123825000D03*
X62500000Y-124775000D03*
X62500000Y-122875000D03*
%TD*%
%TO.C,Q301*%
X64500000Y-128270000D03*
X62500000Y-129220000D03*
X62500000Y-127320000D03*
%TD*%
%TO.C,Q300*%
X77835000Y-128270000D03*
X75835000Y-129220000D03*
X75835000Y-127320000D03*
%TD*%
%TO.C,Q299*%
X77835000Y-123825000D03*
X75835000Y-124775000D03*
X75835000Y-122875000D03*
%TD*%
%TO.C,Q298*%
X73390000Y-123825000D03*
X71390000Y-124775000D03*
X71390000Y-122875000D03*
%TD*%
%TO.C,Q297*%
X73390000Y-128270000D03*
X71390000Y-129220000D03*
X71390000Y-127320000D03*
%TD*%
%TO.C,Q296*%
X82280000Y-128270000D03*
X80280000Y-129220000D03*
X80280000Y-127320000D03*
%TD*%
%TO.C,Q295*%
X82280000Y-123825000D03*
X80280000Y-124775000D03*
X80280000Y-122875000D03*
%TD*%
%TO.C,Q294*%
X33395001Y-128230001D03*
X31395001Y-129180001D03*
X31395001Y-127280001D03*
%TD*%
%TO.C,Q293*%
X33395001Y-123785001D03*
X31395001Y-124735001D03*
X31395001Y-122835001D03*
%TD*%
%TO.C,Q292*%
X28950001Y-123785001D03*
X26950001Y-124735001D03*
X26950001Y-122835001D03*
%TD*%
%TO.C,Q291*%
X28950001Y-128230001D03*
X26950001Y-129180001D03*
X26950001Y-127280001D03*
%TD*%
%TO.C,Q290*%
X42285001Y-128230001D03*
X40285001Y-129180001D03*
X40285001Y-127280001D03*
%TD*%
%TO.C,Q289*%
X42285001Y-123785001D03*
X40285001Y-124735001D03*
X40285001Y-122835001D03*
%TD*%
%TO.C,Q288*%
X37840001Y-123785001D03*
X35840001Y-124735001D03*
X35840001Y-122835001D03*
%TD*%
%TO.C,Q287*%
X37840001Y-128230001D03*
X35840001Y-129180001D03*
X35840001Y-127280001D03*
%TD*%
%TO.C,Q286*%
X46730001Y-128230001D03*
X44730001Y-129180001D03*
X44730001Y-127280001D03*
%TD*%
%TO.C,Q285*%
X46730001Y-123785001D03*
X44730001Y-124735001D03*
X44730001Y-122835001D03*
%TD*%
%TO.C,Q284*%
X113395000Y-119380000D03*
X111395000Y-120330000D03*
X111395000Y-118430000D03*
%TD*%
%TO.C,Q283*%
X113395000Y-114935000D03*
X111395000Y-115885000D03*
X111395000Y-113985000D03*
%TD*%
%TO.C,Q282*%
X108950000Y-114935000D03*
X106950000Y-115885000D03*
X106950000Y-113985000D03*
%TD*%
%TO.C,Q281*%
X104505000Y-114935000D03*
X102505000Y-115885000D03*
X102505000Y-113985000D03*
%TD*%
%TO.C,Q280*%
X108950000Y-119380000D03*
X106950000Y-120330000D03*
X106950000Y-118430000D03*
%TD*%
%TO.C,Q279*%
X104505000Y-119380000D03*
X102505000Y-120330000D03*
X102505000Y-118430000D03*
%TD*%
%TO.C,Q278*%
X122285000Y-119380000D03*
X120285000Y-120330000D03*
X120285000Y-118430000D03*
%TD*%
%TO.C,Q276*%
X117840000Y-114935000D03*
X115840000Y-115885000D03*
X115840000Y-113985000D03*
%TD*%
%TO.C,Q275*%
X117840000Y-119380000D03*
X115840000Y-120330000D03*
X115840000Y-118430000D03*
%TD*%
%TO.C,Q274*%
X126730000Y-119380000D03*
X124730000Y-120330000D03*
X124730000Y-118430000D03*
%TD*%
%TO.C,Q273*%
X126730000Y-114935000D03*
X124730000Y-115885000D03*
X124730000Y-113985000D03*
%TD*%
%TO.C,Q272*%
X68945000Y-119380000D03*
X66945000Y-120330000D03*
X66945000Y-118430000D03*
%TD*%
%TO.C,Q271*%
X68945000Y-114935000D03*
X66945000Y-115885000D03*
X66945000Y-113985000D03*
%TD*%
%TO.C,Q270*%
X64500000Y-114935000D03*
X62500000Y-115885000D03*
X62500000Y-113985000D03*
%TD*%
%TO.C,Q269*%
X60055000Y-114935000D03*
X58055000Y-115885000D03*
X58055000Y-113985000D03*
%TD*%
%TO.C,Q268*%
X64500000Y-119380000D03*
X62500000Y-120330000D03*
X62500000Y-118430000D03*
%TD*%
%TO.C,Q267*%
X60055000Y-119380000D03*
X58055000Y-120330000D03*
X58055000Y-118430000D03*
%TD*%
%TO.C,Q266*%
X77835000Y-119380000D03*
X75835000Y-120330000D03*
X75835000Y-118430000D03*
%TD*%
%TO.C,Q265*%
X77835000Y-114935000D03*
X75835000Y-115885000D03*
X75835000Y-113985000D03*
%TD*%
%TO.C,Q264*%
X73390000Y-114935000D03*
X71390000Y-115885000D03*
X71390000Y-113985000D03*
%TD*%
%TO.C,Q263*%
X73390000Y-119380000D03*
X71390000Y-120330000D03*
X71390000Y-118430000D03*
%TD*%
%TO.C,Q262*%
X82280000Y-119380000D03*
X80280000Y-120330000D03*
X80280000Y-118430000D03*
%TD*%
%TO.C,Q261*%
X82280000Y-114935000D03*
X80280000Y-115885000D03*
X80280000Y-113985000D03*
%TD*%
%TO.C,Q260*%
X33385000Y-119380000D03*
X31385000Y-120330000D03*
X31385000Y-118430000D03*
%TD*%
%TO.C,Q259*%
X33385000Y-114935000D03*
X31385000Y-115885000D03*
X31385000Y-113985000D03*
%TD*%
%TO.C,Q258*%
X28940000Y-114935000D03*
X26940000Y-115885000D03*
X26940000Y-113985000D03*
%TD*%
%TO.C,Q257*%
X24495000Y-114935000D03*
X22495000Y-115885000D03*
X22495000Y-113985000D03*
%TD*%
%TO.C,Q256*%
X28940000Y-119380000D03*
X26940000Y-120330000D03*
X26940000Y-118430000D03*
%TD*%
%TO.C,Q255*%
X24495000Y-119380000D03*
X22495000Y-120330000D03*
X22495000Y-118430000D03*
%TD*%
%TO.C,Q254*%
X42275000Y-119380000D03*
X40275000Y-120330000D03*
X40275000Y-118430000D03*
%TD*%
%TO.C,Q253*%
X42275000Y-114935000D03*
X40275000Y-115885000D03*
X40275000Y-113985000D03*
%TD*%
%TO.C,Q252*%
X37830000Y-114935000D03*
X35830000Y-115885000D03*
X35830000Y-113985000D03*
%TD*%
%TO.C,Q251*%
X37830000Y-119380000D03*
X35830000Y-120330000D03*
X35830000Y-118430000D03*
%TD*%
%TO.C,Q250*%
X46720000Y-119380000D03*
X44720000Y-120330000D03*
X44720000Y-118430000D03*
%TD*%
%TO.C,Q249*%
X46720000Y-114935000D03*
X44720000Y-115885000D03*
X44720000Y-113985000D03*
%TD*%
%TO.C,Q248*%
X148955000Y-119380000D03*
X146955000Y-120330000D03*
X146955000Y-118430000D03*
%TD*%
%TO.C,Q247*%
X148955000Y-114935000D03*
X146955000Y-115885000D03*
X146955000Y-113985000D03*
%TD*%
%TO.C,Q246*%
X144510000Y-114935000D03*
X142510000Y-115885000D03*
X142510000Y-113985000D03*
%TD*%
%TO.C,Q245*%
X140065000Y-114935000D03*
X138065000Y-115885000D03*
X138065000Y-113985000D03*
%TD*%
%TO.C,Q244*%
X144510000Y-119380000D03*
X142510000Y-120330000D03*
X142510000Y-118430000D03*
%TD*%
%TO.C,Q243*%
X140065000Y-119380000D03*
X138065000Y-120330000D03*
X138065000Y-118430000D03*
%TD*%
%TO.C,Q242*%
X157845000Y-119380000D03*
X155845000Y-120330000D03*
X155845000Y-118430000D03*
%TD*%
%TO.C,Q241*%
X157845000Y-114935000D03*
X155845000Y-115885000D03*
X155845000Y-113985000D03*
%TD*%
%TO.C,Q240*%
X153400000Y-114935000D03*
X151400000Y-115885000D03*
X151400000Y-113985000D03*
%TD*%
%TO.C,Q239*%
X153400000Y-119380000D03*
X151400000Y-120330000D03*
X151400000Y-118430000D03*
%TD*%
%TO.C,Q238*%
X162290000Y-119380000D03*
X160290000Y-120330000D03*
X160290000Y-118430000D03*
%TD*%
%TO.C,Q237*%
X162290000Y-114935000D03*
X160290000Y-115885000D03*
X160290000Y-113985000D03*
%TD*%
%TO.C,Q236*%
X60055000Y-159385000D03*
X58055000Y-160335000D03*
X58055000Y-158435000D03*
%TD*%
%TO.C,Q235*%
X60055000Y-154940000D03*
X58055000Y-155890000D03*
X58055000Y-153990000D03*
%TD*%
%TO.C,Q234*%
X24495000Y-159385000D03*
X22495000Y-160335000D03*
X22495000Y-158435000D03*
%TD*%
%TO.C,Q233*%
X37830000Y-159385000D03*
X35830000Y-160335000D03*
X35830000Y-158435000D03*
%TD*%
%TO.C,Q232*%
X51165000Y-159385000D03*
X49165000Y-160335000D03*
X49165000Y-158435000D03*
%TD*%
%TO.C,Q231*%
X24495000Y-154940000D03*
X22495000Y-155890000D03*
X22495000Y-153990000D03*
%TD*%
%TO.C,Q230*%
X28940000Y-154940000D03*
X26940000Y-155890000D03*
X26940000Y-153990000D03*
%TD*%
%TO.C,Q229*%
X33385000Y-154940000D03*
X31385000Y-155890000D03*
X31385000Y-153990000D03*
%TD*%
%TO.C,Q228*%
X28940000Y-159385000D03*
X26940000Y-160335000D03*
X26940000Y-158435000D03*
%TD*%
%TO.C,Q227*%
X42275000Y-159385000D03*
X40275000Y-160335000D03*
X40275000Y-158435000D03*
%TD*%
%TO.C,Q226*%
X55610000Y-159385000D03*
X53610000Y-160335000D03*
X53610000Y-158435000D03*
%TD*%
%TO.C,Q225*%
X37830000Y-154940000D03*
X35830000Y-155890000D03*
X35830000Y-153990000D03*
%TD*%
%TO.C,Q224*%
X42275000Y-154940000D03*
X40275000Y-155890000D03*
X40275000Y-153990000D03*
%TD*%
%TO.C,Q223*%
X46720000Y-154940000D03*
X44720000Y-155890000D03*
X44720000Y-153990000D03*
%TD*%
%TO.C,Q222*%
X33385000Y-159385000D03*
X31385000Y-160335000D03*
X31385000Y-158435000D03*
%TD*%
%TO.C,Q221*%
X46720000Y-159385000D03*
X44720000Y-160335000D03*
X44720000Y-158435000D03*
%TD*%
%TO.C,Q220*%
X51165000Y-154940000D03*
X49165000Y-155890000D03*
X49165000Y-153990000D03*
%TD*%
%TO.C,Q219*%
X55585001Y-154940000D03*
X53585001Y-155890000D03*
X53585001Y-153990000D03*
%TD*%
%TO.C,Q218*%
X20050000Y-168275000D03*
X18050000Y-169225000D03*
X18050000Y-167325000D03*
%TD*%
%TO.C,Q217*%
X33385000Y-168275000D03*
X31385000Y-169225000D03*
X31385000Y-167325000D03*
%TD*%
%TO.C,Q216*%
X46720000Y-168275000D03*
X44720000Y-169225000D03*
X44720000Y-167325000D03*
%TD*%
%TO.C,Q215*%
X20050000Y-163830000D03*
X18050000Y-164780000D03*
X18050000Y-162880000D03*
%TD*%
%TO.C,Q214*%
X24495000Y-163830000D03*
X22495000Y-164780000D03*
X22495000Y-162880000D03*
%TD*%
%TO.C,Q213*%
X28940000Y-163830000D03*
X26940000Y-164780000D03*
X26940000Y-162880000D03*
%TD*%
%TO.C,Q212*%
X24495000Y-168275000D03*
X22495000Y-169225000D03*
X22495000Y-167325000D03*
%TD*%
%TO.C,Q211*%
X37830000Y-168275000D03*
X35830000Y-169225000D03*
X35830000Y-167325000D03*
%TD*%
%TO.C,Q210*%
X51165000Y-168275000D03*
X49165000Y-169225000D03*
X49165000Y-167325000D03*
%TD*%
%TO.C,Q209*%
X33385000Y-163830000D03*
X31385000Y-164780000D03*
X31385000Y-162880000D03*
%TD*%
%TO.C,Q208*%
X37830000Y-163830000D03*
X35830000Y-164780000D03*
X35830000Y-162880000D03*
%TD*%
%TO.C,Q207*%
X42275000Y-163830000D03*
X40275000Y-164780000D03*
X40275000Y-162880000D03*
%TD*%
%TO.C,Q206*%
X28940000Y-168275000D03*
X26940000Y-169225000D03*
X26940000Y-167325000D03*
%TD*%
%TO.C,Q205*%
X42275000Y-168275000D03*
X40275000Y-169225000D03*
X40275000Y-167325000D03*
%TD*%
%TO.C,Q204*%
X55610000Y-168275000D03*
X53610000Y-169225000D03*
X53610000Y-167325000D03*
%TD*%
%TO.C,Q203*%
X46720000Y-163830000D03*
X44720000Y-164780000D03*
X44720000Y-162880000D03*
%TD*%
%TO.C,Q202*%
X51165000Y-163830000D03*
X49165000Y-164780000D03*
X49165000Y-162880000D03*
%TD*%
%TO.C,Q201*%
X55610000Y-163830000D03*
X53610000Y-164780000D03*
X53610000Y-162880000D03*
%TD*%
%TO.C,Q200*%
X60055000Y-168275000D03*
X58055000Y-169225000D03*
X58055000Y-167325000D03*
%TD*%
%TO.C,Q199*%
X60055000Y-163830000D03*
X58055000Y-164780000D03*
X58055000Y-162880000D03*
%TD*%
%TO.C,Q198*%
X131175000Y-168275000D03*
X129175000Y-169225000D03*
X129175000Y-167325000D03*
%TD*%
%TO.C,Q197*%
X131175000Y-163830000D03*
X129175000Y-164780000D03*
X129175000Y-162880000D03*
%TD*%
%TO.C,Q196*%
X108950000Y-168255001D03*
X106950000Y-169205001D03*
X106950000Y-167305001D03*
%TD*%
%TO.C,Q195*%
X122285000Y-168275000D03*
X120285000Y-169225000D03*
X120285000Y-167325000D03*
%TD*%
%TO.C,Q194*%
X108950000Y-163830000D03*
X106950000Y-164780000D03*
X106950000Y-162880000D03*
%TD*%
%TO.C,Q193*%
X113395000Y-163830000D03*
X111395000Y-164780000D03*
X111395000Y-162880000D03*
%TD*%
%TO.C,Q192*%
X117840000Y-163830000D03*
X115840000Y-164780000D03*
X115840000Y-162880000D03*
%TD*%
%TO.C,Q191*%
X113395000Y-168275000D03*
X111395000Y-169225000D03*
X111395000Y-167325000D03*
%TD*%
%TO.C,Q190*%
X126730000Y-168275000D03*
X124730000Y-169225000D03*
X124730000Y-167325000D03*
%TD*%
%TO.C,Q189*%
X122285000Y-163830000D03*
X120285000Y-164780000D03*
X120285000Y-162880000D03*
%TD*%
%TO.C,Q188*%
X126730000Y-163830000D03*
X124730000Y-164780000D03*
X124730000Y-162880000D03*
%TD*%
%TO.C,Q187*%
X117840000Y-168275000D03*
X115840000Y-169225000D03*
X115840000Y-167325000D03*
%TD*%
%TO.C,Q186*%
X100060000Y-168275000D03*
X98060000Y-169225000D03*
X98060000Y-167325000D03*
%TD*%
%TO.C,Q185*%
X100060000Y-163830000D03*
X98060000Y-164780000D03*
X98060000Y-162880000D03*
%TD*%
%TO.C,Q184*%
X68945000Y-168275000D03*
X66945000Y-169225000D03*
X66945000Y-167325000D03*
%TD*%
%TO.C,Q183*%
X82280000Y-168275000D03*
X80280000Y-169225000D03*
X80280000Y-167325000D03*
%TD*%
%TO.C,Q182*%
X95615000Y-168275000D03*
X93615000Y-169225000D03*
X93615000Y-167325000D03*
%TD*%
%TO.C,Q181*%
X68945000Y-163830000D03*
X66945000Y-164780000D03*
X66945000Y-162880000D03*
%TD*%
%TO.C,Q180*%
X73390000Y-163830000D03*
X71390000Y-164780000D03*
X71390000Y-162880000D03*
%TD*%
%TO.C,Q179*%
X77835000Y-163830000D03*
X75835000Y-164780000D03*
X75835000Y-162880000D03*
%TD*%
%TO.C,Q178*%
X73390000Y-168275000D03*
X71390000Y-169225000D03*
X71390000Y-167325000D03*
%TD*%
%TO.C,Q177*%
X86725000Y-168275000D03*
X84725000Y-169225000D03*
X84725000Y-167325000D03*
%TD*%
%TO.C,Q176*%
X82280000Y-163830000D03*
X80280000Y-164780000D03*
X80280000Y-162880000D03*
%TD*%
%TO.C,Q175*%
X86725000Y-163830000D03*
X84725000Y-164780000D03*
X84725000Y-162880000D03*
%TD*%
%TO.C,Q174*%
X91170000Y-163830000D03*
X89170000Y-164780000D03*
X89170000Y-162880000D03*
%TD*%
%TO.C,Q173*%
X77835000Y-168275000D03*
X75835000Y-169225000D03*
X75835000Y-167325000D03*
%TD*%
%TO.C,Q172*%
X91170000Y-168275000D03*
X89170000Y-169225000D03*
X89170000Y-167325000D03*
%TD*%
%TO.C,Q171*%
X95615000Y-163830000D03*
X93615000Y-164780000D03*
X93615000Y-162880000D03*
%TD*%
%TO.C,Q170*%
X117840000Y-159385000D03*
X115840000Y-160335000D03*
X115840000Y-158435000D03*
%TD*%
%TO.C,Q169*%
X117840000Y-154940000D03*
X115840000Y-155890000D03*
X115840000Y-153990000D03*
%TD*%
%TO.C,Q168*%
X82280000Y-159385000D03*
X80280000Y-160335000D03*
X80280000Y-158435000D03*
%TD*%
%TO.C,Q167*%
X95615000Y-159385000D03*
X93615000Y-160335000D03*
X93615000Y-158435000D03*
%TD*%
%TO.C,Q166*%
X108950000Y-159385000D03*
X106950000Y-160335000D03*
X106950000Y-158435000D03*
%TD*%
%TO.C,Q165*%
X82280000Y-154940000D03*
X80280000Y-155890000D03*
X80280000Y-153990000D03*
%TD*%
%TO.C,Q164*%
X86725000Y-154940000D03*
X84725000Y-155890000D03*
X84725000Y-153990000D03*
%TD*%
%TO.C,Q163*%
X91170000Y-154940000D03*
X89170000Y-155890000D03*
X89170000Y-153990000D03*
%TD*%
%TO.C,Q162*%
X86725000Y-159385000D03*
X84725000Y-160335000D03*
X84725000Y-158435000D03*
%TD*%
%TO.C,Q161*%
X100060000Y-159385000D03*
X98060000Y-160335000D03*
X98060000Y-158435000D03*
%TD*%
%TO.C,Q160*%
X113395000Y-159385000D03*
X111395000Y-160335000D03*
X111395000Y-158435000D03*
%TD*%
%TO.C,Q159*%
X95615000Y-154940000D03*
X93615000Y-155890000D03*
X93615000Y-153990000D03*
%TD*%
%TO.C,Q158*%
X100060000Y-154940000D03*
X98060000Y-155890000D03*
X98060000Y-153990000D03*
%TD*%
%TO.C,Q157*%
X104505000Y-154940000D03*
X102505000Y-155890000D03*
X102505000Y-153990000D03*
%TD*%
%TO.C,Q156*%
X91170000Y-159385000D03*
X89170000Y-160335000D03*
X89170000Y-158435000D03*
%TD*%
%TO.C,Q155*%
X104505000Y-159385000D03*
X102505000Y-160335000D03*
X102505000Y-158435000D03*
%TD*%
%TO.C,Q154*%
X108950000Y-154940000D03*
X106950000Y-155890000D03*
X106950000Y-153990000D03*
%TD*%
%TO.C,Q153*%
X113370001Y-154940000D03*
X111370001Y-155890000D03*
X111370001Y-153990000D03*
%TD*%
%TO.C,Q152*%
X162290000Y-177165000D03*
X160290000Y-178115000D03*
X160290000Y-176215000D03*
%TD*%
%TO.C,Q151*%
X162290000Y-172720000D03*
X160290000Y-173670000D03*
X160290000Y-171770000D03*
%TD*%
%TO.C,Q150*%
X140065000Y-177145001D03*
X138065000Y-178095001D03*
X138065000Y-176195001D03*
%TD*%
%TO.C,Q149*%
X153400000Y-177165000D03*
X151400000Y-178115000D03*
X151400000Y-176215000D03*
%TD*%
%TO.C,Q148*%
X140065000Y-172720000D03*
X138065000Y-173670000D03*
X138065000Y-171770000D03*
%TD*%
%TO.C,Q147*%
X144510000Y-172720000D03*
X142510000Y-173670000D03*
X142510000Y-171770000D03*
%TD*%
%TO.C,Q146*%
X148955000Y-172720000D03*
X146955000Y-173670000D03*
X146955000Y-171770000D03*
%TD*%
%TO.C,Q145*%
X144510000Y-177165000D03*
X142510000Y-178115000D03*
X142510000Y-176215000D03*
%TD*%
%TO.C,Q144*%
X157845000Y-177165000D03*
X155845000Y-178115000D03*
X155845000Y-176215000D03*
%TD*%
%TO.C,Q143*%
X153400000Y-172720000D03*
X151400000Y-173670000D03*
X151400000Y-171770000D03*
%TD*%
%TO.C,Q142*%
X157845000Y-172720000D03*
X155845000Y-173670000D03*
X155845000Y-171770000D03*
%TD*%
%TO.C,Q141*%
X148955000Y-177165000D03*
X146955000Y-178115000D03*
X146955000Y-176215000D03*
%TD*%
%TO.C,Q140*%
X77835000Y-150495000D03*
X75835000Y-151445000D03*
X75835000Y-149545000D03*
%TD*%
%TO.C,Q139*%
X91170000Y-150495000D03*
X89170000Y-151445000D03*
X89170000Y-149545000D03*
%TD*%
%TO.C,Q138*%
X104505000Y-150495000D03*
X102505000Y-151445000D03*
X102505000Y-149545000D03*
%TD*%
%TO.C,Q137*%
X77835000Y-146050000D03*
X75835000Y-147000000D03*
X75835000Y-145100000D03*
%TD*%
%TO.C,Q136*%
X82280000Y-146050000D03*
X80280000Y-147000000D03*
X80280000Y-145100000D03*
%TD*%
%TO.C,Q135*%
X86725000Y-146050000D03*
X84725000Y-147000000D03*
X84725000Y-145100000D03*
%TD*%
%TO.C,Q134*%
X82280000Y-150495000D03*
X80280000Y-151445000D03*
X80280000Y-149545000D03*
%TD*%
%TO.C,Q133*%
X95615000Y-150495000D03*
X93615000Y-151445000D03*
X93615000Y-149545000D03*
%TD*%
%TO.C,Q132*%
X108950000Y-150495000D03*
X106950000Y-151445000D03*
X106950000Y-149545000D03*
%TD*%
%TO.C,Q131*%
X91170000Y-146050000D03*
X89170000Y-147000000D03*
X89170000Y-145100000D03*
%TD*%
%TO.C,Q130*%
X95615000Y-146050000D03*
X93615000Y-147000000D03*
X93615000Y-145100000D03*
%TD*%
%TO.C,Q129*%
X100060000Y-146050000D03*
X98060000Y-147000000D03*
X98060000Y-145100000D03*
%TD*%
%TO.C,Q128*%
X86725000Y-150495000D03*
X84725000Y-151445000D03*
X84725000Y-149545000D03*
%TD*%
%TO.C,Q127*%
X100060000Y-150495000D03*
X98060000Y-151445000D03*
X98060000Y-149545000D03*
%TD*%
%TO.C,Q126*%
X113395000Y-150495000D03*
X111395000Y-151445000D03*
X111395000Y-149545000D03*
%TD*%
%TO.C,Q125*%
X104505000Y-146050000D03*
X102505000Y-147000000D03*
X102505000Y-145100000D03*
%TD*%
%TO.C,Q124*%
X108950000Y-146050000D03*
X106950000Y-147000000D03*
X106950000Y-145100000D03*
%TD*%
%TO.C,Q123*%
X113395000Y-146050000D03*
X111395000Y-147000000D03*
X111395000Y-145100000D03*
%TD*%
%TO.C,Q122*%
X117840000Y-150495000D03*
X115840000Y-151445000D03*
X115840000Y-149545000D03*
%TD*%
%TO.C,Q121*%
X117840000Y-146050000D03*
X115840000Y-147000000D03*
X115840000Y-145100000D03*
%TD*%
%TO.C,Q120*%
X162290000Y-159385000D03*
X160290000Y-160335000D03*
X160290000Y-158435000D03*
%TD*%
%TO.C,Q119*%
X162290000Y-154940000D03*
X160290000Y-155890000D03*
X160290000Y-153990000D03*
%TD*%
%TO.C,Q118*%
X126730000Y-159385000D03*
X124730000Y-160335000D03*
X124730000Y-158435000D03*
%TD*%
%TO.C,Q117*%
X140065000Y-159385000D03*
X138065000Y-160335000D03*
X138065000Y-158435000D03*
%TD*%
%TO.C,Q116*%
X153400000Y-159385000D03*
X151400000Y-160335000D03*
X151400000Y-158435000D03*
%TD*%
%TO.C,Q115*%
X126730000Y-154940000D03*
X124730000Y-155890000D03*
X124730000Y-153990000D03*
%TD*%
%TO.C,Q114*%
X131175000Y-154940000D03*
X129175000Y-155890000D03*
X129175000Y-153990000D03*
%TD*%
%TO.C,Q113*%
X135620000Y-154940000D03*
X133620000Y-155890000D03*
X133620000Y-153990000D03*
%TD*%
%TO.C,Q112*%
X131175000Y-159385000D03*
X129175000Y-160335000D03*
X129175000Y-158435000D03*
%TD*%
%TO.C,Q111*%
X144510000Y-159385000D03*
X142510000Y-160335000D03*
X142510000Y-158435000D03*
%TD*%
%TO.C,Q110*%
X157845000Y-159385000D03*
X155845000Y-160335000D03*
X155845000Y-158435000D03*
%TD*%
%TO.C,Q109*%
X140065000Y-154940000D03*
X138065000Y-155890000D03*
X138065000Y-153990000D03*
%TD*%
%TO.C,Q108*%
X144510000Y-154940000D03*
X142510000Y-155890000D03*
X142510000Y-153990000D03*
%TD*%
%TO.C,Q107*%
X148955000Y-154940000D03*
X146955000Y-155890000D03*
X146955000Y-153990000D03*
%TD*%
%TO.C,Q106*%
X135620000Y-159385000D03*
X133620000Y-160335000D03*
X133620000Y-158435000D03*
%TD*%
%TO.C,Q105*%
X148955000Y-159385000D03*
X146955000Y-160335000D03*
X146955000Y-158435000D03*
%TD*%
%TO.C,Q104*%
X153400000Y-154940000D03*
X151400000Y-155890000D03*
X151400000Y-153990000D03*
%TD*%
%TO.C,Q103*%
X157820001Y-154940000D03*
X155820001Y-155890000D03*
X155820001Y-153990000D03*
%TD*%
%TO.C,Q102*%
X162290000Y-168275000D03*
X160290000Y-169225000D03*
X160290000Y-167325000D03*
%TD*%
%TO.C,Q101*%
X162290000Y-163830000D03*
X160290000Y-164780000D03*
X160290000Y-162880000D03*
%TD*%
%TO.C,Q100*%
X140065000Y-168255001D03*
X138065000Y-169205001D03*
X138065000Y-167305001D03*
%TD*%
%TO.C,Q99*%
X153400000Y-168275000D03*
X151400000Y-169225000D03*
X151400000Y-167325000D03*
%TD*%
%TO.C,Q98*%
X140065000Y-163830000D03*
X138065000Y-164780000D03*
X138065000Y-162880000D03*
%TD*%
%TO.C,Q97*%
X144510000Y-163830000D03*
X142510000Y-164780000D03*
X142510000Y-162880000D03*
%TD*%
%TO.C,Q96*%
X148955000Y-163830000D03*
X146955000Y-164780000D03*
X146955000Y-162880000D03*
%TD*%
%TO.C,Q95*%
X144510000Y-168275000D03*
X142510000Y-169225000D03*
X142510000Y-167325000D03*
%TD*%
%TO.C,Q94*%
X157845000Y-168275000D03*
X155845000Y-169225000D03*
X155845000Y-167325000D03*
%TD*%
%TO.C,Q93*%
X153400000Y-163830000D03*
X151400000Y-164780000D03*
X151400000Y-162880000D03*
%TD*%
%TO.C,Q92*%
X157845000Y-163830000D03*
X155845000Y-164780000D03*
X155845000Y-162880000D03*
%TD*%
%TO.C,Q91*%
X148955000Y-168275000D03*
X146955000Y-169225000D03*
X146955000Y-167325000D03*
%TD*%
%TO.C,Q90*%
X37830000Y-186055000D03*
X35830000Y-187005000D03*
X35830000Y-185105000D03*
%TD*%
%TO.C,Q89*%
X37830000Y-181610000D03*
X35830000Y-182560000D03*
X35830000Y-180660000D03*
%TD*%
%TO.C,Q88*%
X33385000Y-181610000D03*
X31385000Y-182560000D03*
X31385000Y-180660000D03*
%TD*%
%TO.C,Q87*%
X33385000Y-186055000D03*
X31385000Y-187005000D03*
X31385000Y-185105000D03*
%TD*%
%TO.C,Q86*%
X42275000Y-186055000D03*
X40275000Y-187005000D03*
X40275000Y-185105000D03*
%TD*%
%TO.C,Q85*%
X42275000Y-181610000D03*
X40275000Y-182560000D03*
X40275000Y-180660000D03*
%TD*%
%TO.C,Q84*%
X73390000Y-177165000D03*
X71390000Y-178115000D03*
X71390000Y-176215000D03*
%TD*%
%TO.C,Q83*%
X73390000Y-172720000D03*
X71390000Y-173670000D03*
X71390000Y-171770000D03*
%TD*%
%TO.C,Q82*%
X68945000Y-172720000D03*
X66945000Y-173670000D03*
X66945000Y-171770000D03*
%TD*%
%TO.C,Q81*%
X68945000Y-177165000D03*
X66945000Y-178115000D03*
X66945000Y-176215000D03*
%TD*%
%TO.C,Q80*%
X77835000Y-177165000D03*
X75835000Y-178115000D03*
X75835000Y-176215000D03*
%TD*%
%TO.C,Q79*%
X77990001Y-172720000D03*
X75990001Y-173670000D03*
X75990001Y-171770000D03*
%TD*%
%TO.C,Q78*%
X24495000Y-186055000D03*
X22495000Y-187005000D03*
X22495000Y-185105000D03*
%TD*%
%TO.C,Q77*%
X24495000Y-181610000D03*
X22495000Y-182560000D03*
X22495000Y-180660000D03*
%TD*%
%TO.C,Q76*%
X20050000Y-181610000D03*
X18050000Y-182560000D03*
X18050000Y-180660000D03*
%TD*%
%TO.C,Q75*%
X20050000Y-186055000D03*
X18050000Y-187005000D03*
X18050000Y-185105000D03*
%TD*%
%TO.C,Q74*%
X28940000Y-186055000D03*
X26940000Y-187005000D03*
X26940000Y-185105000D03*
%TD*%
%TO.C,Q73*%
X28940000Y-181610000D03*
X26940000Y-182560000D03*
X26940000Y-180660000D03*
%TD*%
%TO.C,Q72*%
X108950000Y-177165000D03*
X106950000Y-178115000D03*
X106950000Y-176215000D03*
%TD*%
%TO.C,Q71*%
X108950000Y-172720000D03*
X106950000Y-173670000D03*
X106950000Y-171770000D03*
%TD*%
%TO.C,Q70*%
X104505000Y-172720000D03*
X102505000Y-173670000D03*
X102505000Y-171770000D03*
%TD*%
%TO.C,Q69*%
X104505000Y-177165000D03*
X102505000Y-178115000D03*
X102505000Y-176215000D03*
%TD*%
%TO.C,Q68*%
X113395000Y-177165000D03*
X111395000Y-178115000D03*
X111395000Y-176215000D03*
%TD*%
%TO.C,Q67*%
X113395000Y-172720000D03*
X111395000Y-173670000D03*
X111395000Y-171770000D03*
%TD*%
%TO.C,Q66*%
X126730000Y-177165000D03*
X124730000Y-178115000D03*
X124730000Y-176215000D03*
%TD*%
%TO.C,Q65*%
X126730000Y-172720000D03*
X124730000Y-173670000D03*
X124730000Y-171770000D03*
%TD*%
%TO.C,Q64*%
X122285000Y-172720000D03*
X120285000Y-173670000D03*
X120285000Y-171770000D03*
%TD*%
%TO.C,Q63*%
X122285000Y-177165000D03*
X120285000Y-178115000D03*
X120285000Y-176215000D03*
%TD*%
%TO.C,Q62*%
X131175000Y-177165000D03*
X129175000Y-178115000D03*
X129175000Y-176215000D03*
%TD*%
%TO.C,Q61*%
X131175000Y-172720000D03*
X129175000Y-173670000D03*
X129175000Y-171770000D03*
%TD*%
%TO.C,Q60*%
X91170000Y-177165000D03*
X89170000Y-178115000D03*
X89170000Y-176215000D03*
%TD*%
%TO.C,Q59*%
X91170000Y-172720000D03*
X89170000Y-173670000D03*
X89170000Y-171770000D03*
%TD*%
%TO.C,Q58*%
X86725000Y-172720000D03*
X84725000Y-173670000D03*
X84725000Y-171770000D03*
%TD*%
%TO.C,Q57*%
X86725000Y-177165000D03*
X84725000Y-178115000D03*
X84725000Y-176215000D03*
%TD*%
%TO.C,Q56*%
X95615000Y-177165000D03*
X93615000Y-178115000D03*
X93615000Y-176215000D03*
%TD*%
%TO.C,Q55*%
X95615000Y-172720000D03*
X93615000Y-173670000D03*
X93615000Y-171770000D03*
%TD*%
%TO.C,Q54*%
X37830000Y-177165000D03*
X35830000Y-178115000D03*
X35830000Y-176215000D03*
%TD*%
%TO.C,Q53*%
X37830000Y-172720000D03*
X35830000Y-173670000D03*
X35830000Y-171770000D03*
%TD*%
%TO.C,Q52*%
X33385000Y-172720000D03*
X31385000Y-173670000D03*
X31385000Y-171770000D03*
%TD*%
%TO.C,Q51*%
X33385000Y-177165000D03*
X31385000Y-178115000D03*
X31385000Y-176215000D03*
%TD*%
%TO.C,Q50*%
X42275000Y-177165000D03*
X40275000Y-178115000D03*
X40275000Y-176215000D03*
%TD*%
%TO.C,Q49*%
X42275000Y-172720000D03*
X40275000Y-173670000D03*
X40275000Y-171770000D03*
%TD*%
%TO.C,Q48*%
X55610000Y-177165000D03*
X53610000Y-178115000D03*
X53610000Y-176215000D03*
%TD*%
%TO.C,Q47*%
X55610000Y-172720000D03*
X53610000Y-173670000D03*
X53610000Y-171770000D03*
%TD*%
%TO.C,Q46*%
X51165000Y-172720000D03*
X49165000Y-173670000D03*
X49165000Y-171770000D03*
%TD*%
%TO.C,Q45*%
X51165000Y-177165000D03*
X49165000Y-178115000D03*
X49165000Y-176215000D03*
%TD*%
%TO.C,Q44*%
X60055000Y-177165000D03*
X58055000Y-178115000D03*
X58055000Y-176215000D03*
%TD*%
%TO.C,Q43*%
X60055000Y-172720000D03*
X58055000Y-173670000D03*
X58055000Y-171770000D03*
%TD*%
%TO.C,Q42*%
X24495000Y-177165000D03*
X22495000Y-178115000D03*
X22495000Y-176215000D03*
%TD*%
%TO.C,Q41*%
X24495000Y-172720000D03*
X22495000Y-173670000D03*
X22495000Y-171770000D03*
%TD*%
%TO.C,Q40*%
X20050000Y-172720000D03*
X18050000Y-173670000D03*
X18050000Y-171770000D03*
%TD*%
%TO.C,Q39*%
X20050000Y-177165000D03*
X18050000Y-178115000D03*
X18050000Y-176215000D03*
%TD*%
%TO.C,Q38*%
X28940000Y-177165000D03*
X26940000Y-178115000D03*
X26940000Y-176215000D03*
%TD*%
%TO.C,Q37*%
X28940000Y-172720000D03*
X26940000Y-173670000D03*
X26940000Y-171770000D03*
%TD*%
%TO.C,Q36*%
X95615000Y-186055000D03*
X93615000Y-187005000D03*
X93615000Y-185105000D03*
%TD*%
%TO.C,Q35*%
X95615000Y-181610000D03*
X93615000Y-182560000D03*
X93615000Y-180660000D03*
%TD*%
%TO.C,Q34*%
X100060000Y-186055000D03*
X98060000Y-187005000D03*
X98060000Y-185105000D03*
%TD*%
%TO.C,Q33*%
X100060000Y-181610000D03*
X98060000Y-182560000D03*
X98060000Y-180660000D03*
%TD*%
%TO.C,Q32*%
X104505000Y-186055000D03*
X102505000Y-187005000D03*
X102505000Y-185105000D03*
%TD*%
%TO.C,Q31*%
X104505000Y-181610000D03*
X102505000Y-182560000D03*
X102505000Y-180660000D03*
%TD*%
%TO.C,Q30*%
X108950000Y-186055000D03*
X106950000Y-187005000D03*
X106950000Y-185105000D03*
%TD*%
%TO.C,Q29*%
X108950000Y-181610000D03*
X106950000Y-182560000D03*
X106950000Y-180660000D03*
%TD*%
%TO.C,Q28*%
X113395000Y-186055000D03*
X111395000Y-187005000D03*
X111395000Y-185105000D03*
%TD*%
%TO.C,Q27*%
X113395000Y-181610000D03*
X111395000Y-182560000D03*
X111395000Y-180660000D03*
%TD*%
%TO.C,Q26*%
X117840000Y-186055000D03*
X115840000Y-187005000D03*
X115840000Y-185105000D03*
%TD*%
%TO.C,Q25*%
X117840000Y-181610000D03*
X115840000Y-182560000D03*
X115840000Y-180660000D03*
%TD*%
%TO.C,Q24*%
X122285000Y-186055000D03*
X120285000Y-187005000D03*
X120285000Y-185105000D03*
%TD*%
%TO.C,Q23*%
X122285000Y-181610000D03*
X120285000Y-182560000D03*
X120285000Y-180660000D03*
%TD*%
%TO.C,Q22*%
X126730000Y-186055000D03*
X124730000Y-187005000D03*
X124730000Y-185105000D03*
%TD*%
%TO.C,Q21*%
X126730000Y-181610000D03*
X124730000Y-182560000D03*
X124730000Y-180660000D03*
%TD*%
%TO.C,Q20*%
X131175000Y-186055000D03*
X129175000Y-187005000D03*
X129175000Y-185105000D03*
%TD*%
%TO.C,Q19*%
X131175000Y-181610000D03*
X129175000Y-182560000D03*
X129175000Y-180660000D03*
%TD*%
%TO.C,Q18*%
X51165000Y-186055000D03*
X49165000Y-187005000D03*
X49165000Y-185105000D03*
%TD*%
%TO.C,Q17*%
X51165000Y-181610000D03*
X49165000Y-182560000D03*
X49165000Y-180660000D03*
%TD*%
%TO.C,Q16*%
X55610000Y-186055000D03*
X53610000Y-187005000D03*
X53610000Y-185105000D03*
%TD*%
%TO.C,Q15*%
X55610000Y-181610000D03*
X53610000Y-182560000D03*
X53610000Y-180660000D03*
%TD*%
%TO.C,Q14*%
X60055000Y-186055000D03*
X58055000Y-187005000D03*
X58055000Y-185105000D03*
%TD*%
%TO.C,Q13*%
X60055000Y-181610000D03*
X58055000Y-182560000D03*
X58055000Y-180660000D03*
%TD*%
%TO.C,Q12*%
X64500000Y-186055000D03*
X62500000Y-187005000D03*
X62500000Y-185105000D03*
%TD*%
%TO.C,Q11*%
X64500000Y-181610000D03*
X62500000Y-182560000D03*
X62500000Y-180660000D03*
%TD*%
%TO.C,Q10*%
X68945000Y-186055000D03*
X66945000Y-187005000D03*
X66945000Y-185105000D03*
%TD*%
%TO.C,Q9*%
X68945000Y-181610000D03*
X66945000Y-182560000D03*
X66945000Y-180660000D03*
%TD*%
%TO.C,Q8*%
X73390000Y-186055000D03*
X71390000Y-187005000D03*
X71390000Y-185105000D03*
%TD*%
%TO.C,Q7*%
X73390000Y-181610000D03*
X71390000Y-182560000D03*
X71390000Y-180660000D03*
%TD*%
%TO.C,Q6*%
X77835000Y-186055000D03*
X75835000Y-187005000D03*
X75835000Y-185105000D03*
%TD*%
%TO.C,Q5*%
X77835000Y-181610000D03*
X75835000Y-182560000D03*
X75835000Y-180660000D03*
%TD*%
%TO.C,Q4*%
X82280000Y-186055000D03*
X80280000Y-187005000D03*
X80280000Y-185105000D03*
%TD*%
%TO.C,Q3*%
X82280000Y-181610000D03*
X80280000Y-182560000D03*
X80280000Y-180660000D03*
%TD*%
%TO.C,Q2*%
X86725000Y-186055000D03*
X84725000Y-187005000D03*
X84725000Y-185105000D03*
%TD*%
%TO.C,Q1*%
X86725000Y-181610000D03*
X84725000Y-182560000D03*
X84725000Y-180660000D03*
%TD*%
M02*
