M48
; DRILL file {KiCad (5.1.9)-1} date 05/23/21 12:27:02
; FORMAT={-:-/ absolute / inch / decimal}
; #@! TF.CreationDate,2021-05-23T12:27:02+02:00
; #@! TF.GenerationSoftware,Kicad,Pcbnew,(5.1.9)-1
; #@! TF.FileFunction,Plated,1,2,PTH
FMAT,2
INCH
T1C0.0138
T2C0.0157
T3C0.0197
T4C0.0315
T5C0.0394
T6C0.0433
T7C0.1260
%
G90
G05
T1
X0.7035Y-0.7715
X0.7035Y-0.9965
X0.7375Y-1.3
X0.7375Y-1.325
X0.7375Y-1.35
X0.7375Y-1.4875
X0.7375Y-1.5125
X0.7375Y-1.5375
X0.7375Y-1.8375
X0.7375Y-1.8625
X0.7375Y-1.8875
X0.7375Y-2.1875
X0.7375Y-2.2125
X0.7375Y-2.2375
X0.7375Y-3.25
X0.7375Y-3.275
X0.7375Y-3.3
X0.7375Y-3.6875
X0.7375Y-3.7125
X0.7375Y-3.7375
X0.7375Y-4.0375
X0.7375Y-4.0625
X0.7375Y-4.0875
X0.7375Y-4.25
X0.7375Y-4.275
X0.7375Y-4.3
X0.7375Y-4.6
X0.7375Y-4.625
X0.7375Y-4.65
X0.7375Y-4.95
X0.7375Y-4.975
X0.7375Y-5.0
X0.7375Y-5.3
X0.7375Y-5.325
X0.7375Y-5.35
X0.7375Y-5.65
X0.7375Y-5.675
X0.7375Y-5.7
X0.7375Y-6.0
X0.7375Y-6.025
X0.7375Y-6.05
X0.7375Y-6.35
X0.7375Y-6.375
X0.7375Y-6.4
X0.7375Y-6.7
X0.7375Y-6.725
X0.7375Y-6.75
X0.7375Y-7.05
X0.7375Y-7.075
X0.7375Y-7.1
X0.7375Y-7.4
X0.7375Y-7.425
X0.7375Y-7.45
X0.7375Y-7.75
X0.7375Y-7.775
X0.7375Y-7.8
X0.7375Y-8.1
X0.7375Y-8.125
X0.7375Y-8.15
X0.7492Y-3.575
X0.7492Y-3.625
X0.75Y-2.5875
X0.75Y-2.6125
X0.75Y-2.6375
X0.75Y-2.9125
X0.75Y-2.9375
X0.75Y-2.9625
X0.75Y-3.0625
X0.75Y-4.2125
X0.7712Y-3.9547
X0.775Y-1.225
X0.775Y-1.4
X0.775Y-1.575
X0.775Y-1.85
X0.775Y-1.925
X0.775Y-3.325
X0.775Y-3.5
X0.775Y-3.675
X0.775Y-3.85
X0.775Y-4.55
X0.775Y-5.25
X0.775Y-5.9625
X0.775Y-6.65
X0.775Y-7.3625
X0.775Y-8.0625
X0.7765Y-1.7757
X0.7787Y-2.275
X0.7875Y-2.8125
X0.7875Y-3.1
X0.7875Y-8.55
X0.7917Y-2.6708
X0.8Y-2.2
X0.8Y-3.5285
X0.8Y-4.35
X0.8092Y-3.1528
X0.8125Y-2.3
X0.8125Y-7.0125
X0.825Y-1.725
X0.825Y-2.075
X0.825Y-2.425
X0.825Y-3.425
X0.825Y-4.1625
X0.825Y-6.5
X0.825Y-8.9875
X0.8261Y-3.1285
X0.8301Y-4.3875
X0.8363Y-3.0697
X0.8375Y-1.25
X0.8497Y-3.3378
X0.85Y-4.275
X0.85Y-7.725
X0.8571Y-3.8159
X0.8625Y-5.625
X0.8735Y-3.2996
X0.8736Y-4.8872
X0.875Y-1.375
X0.875Y-1.8965
X0.875Y-2.2465
X0.875Y-3.4715
X0.875Y-4.1875
X0.875Y-7.0125
X0.875Y-7.8875
X0.875Y-8.4375
X0.8756Y-1.5465
X0.8774Y-3.6392
X0.8823Y-2.9725
X0.8875Y-2.6375
X0.9Y-1.975
X0.9Y-2.175
X0.9Y-2.325
X0.9Y-2.825
X0.9071Y-4.0125
X0.9125Y-1.05
X0.9125Y-1.25
X0.9125Y-9.075
X0.9234Y-1.8965
X0.9354Y-3.1058
X0.9375Y-3.325
X0.9493Y-3.8486
X0.95Y-1.15
X0.95Y-1.4
X0.95Y-1.5
X0.95Y-1.575
X0.95Y-1.925
X0.95Y-2.275
X0.95Y-2.475
X0.95Y-3.947
X0.953Y-3.4945
X0.9625Y-3.875
X0.9625Y-4.9125
X0.9625Y-5.625
X0.9625Y-6.15
X0.9625Y-6.8375
X0.9625Y-7.0125
X0.9625Y-7.725
X0.9625Y-7.8875
X0.965Y-3.6715
X0.965Y-4.05
X0.965Y-4.125
X0.965Y-4.3
X0.965Y-4.55
X0.965Y-4.65
X0.965Y-4.825
X0.965Y-5.0
X0.965Y-5.25
X0.965Y-5.35
X0.965Y-5.525
X0.965Y-5.7
X0.965Y-5.95
X0.965Y-6.05
X0.965Y-6.225
X0.965Y-6.4
X0.965Y-6.65
X0.965Y-6.75
X0.965Y-6.925
X0.965Y-7.1
X0.965Y-7.35
X0.965Y-7.45
X0.965Y-7.625
X0.965Y-7.8
X0.965Y-8.05
X0.965Y-8.15
X0.965Y-8.325
X0.975Y-1.675
X0.975Y-2.025
X0.975Y-2.375
X0.975Y-2.825
X0.975Y-3.075
X0.9916Y-4.2163
X1.0Y-2.0
X1.0Y-2.35
X1.0Y-3.775
X1.0Y-3.95
X1.0374Y-2.8464
X1.039Y-3.3819
X1.04Y-4.575
X1.04Y-5.275
X1.04Y-5.975
X1.04Y-6.675
X1.04Y-7.375
X1.04Y-8.075
X1.05Y-1.2
X1.05Y-1.3715
X1.05Y-1.725
X1.05Y-1.8965
X1.05Y-2.075
X1.05Y-2.2465
X1.05Y-2.425
X1.05Y-3.525
X1.05Y-4.15
X1.0506Y-1.5465
X1.0514Y-3.4502
X1.0514Y-3.9946
X1.0646Y-4.55
X1.0646Y-5.25
X1.0646Y-5.95
X1.0646Y-6.65
X1.0646Y-7.35
X1.0646Y-8.05
X1.0715Y-3.8465
X1.075Y-2.225
X1.075Y-2.4625
X1.0875Y-2.8125
X1.0875Y-3.7875
X1.0875Y-3.8125
X1.0986Y-3.3833
X1.0998Y-3.9
X1.1Y-1.325
X1.1Y-3.075
X1.1Y-4.725
X1.1208Y-2.6958
X1.125Y-1.225
X1.125Y-1.4
X1.125Y-1.575
X1.125Y-1.75
X1.125Y-1.925
X1.125Y-2.1
X1.125Y-2.275
X1.125Y-2.4389
X1.125Y-3.425
X1.125Y-3.5
X1.125Y-3.675
X1.125Y-3.775
X1.125Y-4.125
X1.1292Y-3.3292
X1.1375Y-3.0264
X1.1398Y-4.6502
X1.1398Y-5.3502
X1.1398Y-6.0502
X1.1398Y-6.7502
X1.1398Y-7.4502
X1.1398Y-8.1502
X1.14Y-3.95
X1.14Y-4.05
X1.14Y-4.3
X1.14Y-4.475
X1.14Y-4.575
X1.14Y-4.825
X1.14Y-5.0
X1.14Y-5.175
X1.14Y-5.275
X1.14Y-5.525
X1.14Y-5.7
X1.14Y-5.875
X1.14Y-5.975
X1.14Y-6.225
X1.14Y-6.4
X1.14Y-6.575
X1.14Y-6.675
X1.14Y-6.925
X1.14Y-7.1
X1.14Y-7.275
X1.14Y-7.375
X1.14Y-7.625
X1.14Y-7.8
X1.14Y-7.975
X1.14Y-8.075
X1.14Y-8.325
X1.15Y-2.2
X1.15Y-3.5
X1.1621Y-2.8463
X1.165Y-4.725
X1.165Y-5.425
X1.165Y-6.125
X1.165Y-7.525
X1.165Y-8.225
X1.1687Y-6.8139
X1.1736Y-3.9
X1.1747Y-2.5965
X1.1747Y-3.0035
X1.175Y-1.7
X1.175Y-2.375
X1.175Y-2.475
X1.175Y-3.5
X1.1764Y-2.731
X1.1845Y-1.653
X1.1875Y-3.3375
X1.2Y-2.8125
X1.2Y-3.025
X1.2Y-5.075
X1.2028Y-3.5215
X1.2125Y-2.975
X1.2125Y-9.075
X1.215Y-4.575
X1.215Y-5.2455
X1.215Y-5.275
X1.215Y-5.9455
X1.215Y-5.975
X1.215Y-6.45
X1.215Y-6.6455
X1.215Y-6.675
X1.215Y-7.15
X1.215Y-7.3455
X1.215Y-7.375
X1.215Y-7.85
X1.215Y-8.0455
X1.215Y-8.075
X1.2247Y-2.6535
X1.225Y-1.2
X1.225Y-1.3715
X1.225Y-1.8825
X1.225Y-1.975
X1.225Y-2.2486
X1.2256Y-1.5465
X1.2264Y-5.75
X1.2375Y-3.9875
X1.2375Y-4.2125
X1.2375Y-4.35
X1.2375Y-4.55
X1.2375Y-8.4375
X1.25Y-3.025
X1.25Y-3.525
X1.25Y-3.625
X1.25Y-4.725
X1.25Y-7.025
X1.2535Y-3.8701
X1.2618Y-4.1639
X1.2736Y-5.1358
X1.2736Y-5.5862
X1.2736Y-6.3583
X1.2742Y-3.75
X1.275Y-0.825
X1.275Y-0.85
X1.275Y-0.875
X1.275Y-1.3
X1.275Y-2.3035
X1.275Y-2.775
X1.275Y-4.1375
X1.275Y-7.0625
X1.275Y-7.7625
X1.2751Y-3.7795
X1.2759Y-1.4295
X1.284Y-2.4215
X1.2917Y-2.4833
X1.2983Y-1.042
X1.2986Y-3.4792
X1.3Y-1.15
X1.3Y-1.4
X1.3Y-1.575
X1.3Y-1.85
X1.3Y-1.925
X1.3Y-2.275
X1.3Y-2.975
X1.3Y-3.325
X1.3Y-3.5264
X1.3Y-3.675
X1.3Y-3.85
X1.3Y-4.9125
X1.3108Y-3.9542
X1.311Y-4.1285
X1.3125Y-4.7375
X1.3125Y-8.9875
X1.315Y-4.3
X1.315Y-4.65
X1.315Y-4.825
X1.315Y-5.0
X1.315Y-5.25
X1.315Y-5.35
X1.315Y-5.525
X1.315Y-5.7
X1.315Y-5.95
X1.315Y-6.05
X1.315Y-6.225
X1.315Y-6.4
X1.315Y-6.65
X1.315Y-6.75
X1.315Y-6.925
X1.315Y-7.1
X1.315Y-7.35
X1.315Y-7.45
X1.315Y-7.625
X1.315Y-7.8
X1.315Y-8.05
X1.315Y-8.15
X1.315Y-8.325
X1.3169Y-3.1487
X1.325Y-2.125
X1.3375Y-2.7
X1.34Y-3.95
X1.34Y-5.45
X1.34Y-6.85
X1.34Y-7.55
X1.34Y-8.25
X1.3485Y-1.7162
X1.35Y-1.675
X1.35Y-2.075
X1.35Y-3.075
X1.35Y-3.225
X1.35Y-3.394
X1.35Y-3.4235
X1.35Y-4.2625
X1.3508Y-4.0823
X1.3531Y-3.4707
X1.3625Y-4.5125
X1.375Y-2.5
X1.375Y-6.15
X1.3889Y-3.675
X1.39Y-3.9
X1.39Y-4.025
X1.39Y-4.575
X1.39Y-5.275
X1.39Y-5.575
X1.39Y-5.975
X1.39Y-6.275
X1.39Y-6.45
X1.39Y-6.625
X1.39Y-6.675
X1.39Y-6.975
X1.39Y-7.15
X1.39Y-7.325
X1.39Y-7.375
X1.39Y-7.675
X1.39Y-7.85
X1.39Y-8.025
X1.39Y-8.075
X1.39Y-8.375
X1.4Y-1.2
X1.4Y-1.3715
X1.4Y-1.8965
X1.4Y-2.2486
X1.4Y-3.8125
X1.4Y-5.2375
X1.4006Y-1.5465
X1.4125Y-4.35
X1.4125Y-4.525
X1.4125Y-4.9
X1.4125Y-5.075
X1.4125Y-5.75
X1.4125Y-5.925
X1.425Y-1.975
X1.425Y-2.825
X1.4257Y-5.1014
X1.4315Y-5.1375
X1.4492Y-2.225
X1.4492Y-2.525
X1.4492Y-3.225
X1.45Y-1.25
X1.45Y-2.3035
X1.45Y-2.8
X1.45Y-8.7375
X1.45Y-9.925
X1.45Y-10.3
X1.4506Y-1.6035
X1.4663Y-3.6832
X1.475Y-1.225
X1.475Y-1.4
X1.475Y-1.5
X1.475Y-1.575
X1.475Y-1.925
X1.475Y-2.275
X1.475Y-2.625
X1.475Y-2.975
X1.475Y-3.075
X1.475Y-3.15
X1.475Y-3.25
X1.475Y-3.875
X1.4792Y-3.8458
X1.4809Y-3.4986
X1.4846Y-6.8361
X1.487Y-4.5498
X1.487Y-5.2498
X1.487Y-5.9498
X1.487Y-6.6498
X1.487Y-7.3498
X1.487Y-8.0498
X1.4875Y-4.1909
X1.4898Y-4.6502
X1.4898Y-5.3502
X1.4898Y-6.0502
X1.4898Y-7.4502
X1.4898Y-8.1502
X1.49Y-4.05
X1.49Y-4.3038
X1.49Y-4.725
X1.49Y-4.825
X1.49Y-5.0
X1.49Y-5.425
X1.49Y-5.525
X1.49Y-5.7
X1.49Y-6.125
X1.49Y-6.225
X1.49Y-6.4
X1.49Y-6.925
X1.49Y-7.1
X1.49Y-7.525
X1.49Y-7.625
X1.49Y-7.8
X1.49Y-8.225
X1.49Y-8.325
X1.4929Y-6.7529
X1.5Y-1.675
X1.5Y-2.025
X1.5Y-2.375
X1.5Y-2.725
X1.5164Y-4.5516
X1.5164Y-5.2516
X1.5164Y-5.9516
X1.5164Y-6.6516
X1.5164Y-7.3516
X1.5164Y-8.0516
X1.5202Y-2.3035
X1.522Y-4.68
X1.522Y-5.38
X1.522Y-6.08
X1.522Y-6.78
X1.522Y-7.48
X1.522Y-8.18
X1.525Y-2.775
X1.525Y-3.0
X1.525Y-3.225
X1.525Y-3.425
X1.525Y-3.8625
X1.55Y-1.025
X1.565Y-4.1712
X1.565Y-4.725
X1.565Y-4.875
X1.565Y-5.425
X1.565Y-5.575
X1.565Y-6.275
X1.565Y-6.45
X1.565Y-6.8361
X1.565Y-6.975
X1.565Y-7.15
X1.565Y-7.525
X1.565Y-7.675
X1.565Y-7.85
X1.565Y-8.225
X1.565Y-8.375
X1.5679Y-1.7162
X1.5692Y-4.5792
X1.5692Y-5.2792
X1.5692Y-5.9792
X1.5692Y-6.6792
X1.5692Y-7.3792
X1.5692Y-8.0792
X1.5701Y-2.2535
X1.5747Y-2.4215
X1.575Y-1.2
X1.575Y-1.3715
X1.575Y-1.8884
X1.575Y-2.075
X1.575Y-2.5965
X1.575Y-3.525
X1.575Y-3.65
X1.575Y-4.0
X1.575Y-5.075
X1.5751Y-3.8175
X1.5753Y-2.9465
X1.5756Y-1.5465
X1.5779Y-6.1087
X1.579Y-0.6982
X1.5875Y-2.6728
X1.5875Y-4.35
X1.5935Y-0.6725
X1.6Y-1.4285
X1.6Y-3.875
X1.6Y-5.75
X1.6008Y-2.9
X1.602Y-3.4712
X1.6063Y-3.2229
X1.6125Y-4.3837
X1.624Y-1.7005
X1.6242Y-2.675
X1.6242Y-3.55
X1.625Y-0.375
X1.625Y-3.95
X1.6375Y-1.7753
X1.64Y-4.3038
X1.64Y-5.0
X1.64Y-5.7
X1.64Y-6.4
X1.64Y-7.1
X1.64Y-7.8
X1.6473Y-1.9159
X1.6486Y-1.3993
X1.6492Y-3.8455
X1.65Y-0.875
X1.65Y-0.975
X1.65Y-1.15
X1.65Y-1.575
X1.65Y-2.1
X1.65Y-2.45
X1.65Y-2.55
X1.65Y-2.625
X1.65Y-2.725
X1.65Y-2.8
X1.65Y-2.975
X1.65Y-3.15
X1.65Y-3.325
X1.65Y-3.425
X1.65Y-3.5
X1.65Y-3.6
X1.653Y-2.2779
X1.6555Y-3.678
X1.6648Y-4.4752
X1.6648Y-5.1752
X1.6648Y-5.8752
X1.6648Y-6.5752
X1.6648Y-7.2752
X1.6648Y-7.9752
X1.665Y-3.95
X1.665Y-4.125
X1.665Y-4.375
X1.665Y-4.575
X1.665Y-4.65
X1.665Y-4.725
X1.665Y-4.9
X1.665Y-5.075
X1.665Y-5.275
X1.665Y-5.35
X1.665Y-5.425
X1.665Y-5.6
X1.665Y-5.775
X1.665Y-5.975
X1.665Y-6.05
X1.665Y-6.3
X1.665Y-6.475
X1.665Y-6.675
X1.665Y-6.75
X1.665Y-6.8361
X1.665Y-7.0
X1.665Y-7.175
X1.665Y-7.375
X1.665Y-7.45
X1.665Y-7.525
X1.665Y-7.7
X1.665Y-7.875
X1.665Y-8.075
X1.665Y-8.15
X1.665Y-8.225
X1.665Y-8.4
X1.672Y-4.9917
X1.672Y-5.6917
X1.672Y-6.3917
X1.672Y-7.0917
X1.672Y-7.7917
X1.675Y-1.4125
X1.675Y-2.2
X1.675Y-3.075
X1.6761Y-4.2949
X1.6802Y-6.1218
X1.6875Y-1.7625
X1.6942Y-1.6861
X1.7Y-1.05
X1.7Y-1.625
X1.7Y-2.0
X1.7Y-2.125
X1.7Y-2.375
X1.7Y-3.05
X1.7Y-3.8
X1.7Y-4.1625
X1.7Y-8.75
X1.7375Y-8.55
X1.7385Y-4.1962
X1.74Y-6.4535
X1.74Y-6.625
X1.74Y-7.1535
X1.74Y-7.325
X1.74Y-7.8535
X1.74Y-8.025
X1.7442Y-4.5542
X1.7442Y-5.2542
X1.7442Y-5.9542
X1.7442Y-6.6542
X1.7442Y-7.3542
X1.7442Y-8.0542
X1.7442Y-2.7654
X1.7458Y-3.5291
X1.75Y-2.5959
X1.75Y-1.2
X1.75Y-1.3715
X1.75Y-1.8825
X1.75Y-2.2465
X1.75Y-3.725
X1.75Y-4.525
X1.75Y-5.0625
X1.75Y-5.225
X1.75Y-5.8
X1.75Y-5.925
X1.7503Y-3.1215
X1.7506Y-2.9465
X1.7506Y-1.5465
X1.7625Y-4.35
X1.7625Y-5.75
X1.7638Y-3.6332
X1.7717Y-2.6708
X1.7728Y-3.5853
X1.775Y-1.975
X1.775Y-2.3035
X1.775Y-2.875
X1.775Y-3.275
X1.775Y-3.525
X1.775Y-4.05
X1.775Y-8.425
X1.7753Y-1.7258
X1.7764Y-3.2455
X1.7845Y-2.8059
X1.7967Y-2.7139
X1.7986Y-2.125
X1.7986Y-3.775
X1.7986Y-4.1942
X1.7992Y-3.7407
X1.7992Y-1.625
X1.8Y-1.275
X1.8Y-1.4285
X1.8Y-2.475
X1.815Y-4.3
X1.815Y-5.0
X1.815Y-5.7
X1.815Y-6.4
X1.815Y-7.1
X1.815Y-7.8
X1.8193Y-3.3291
X1.8236Y-0.8743
X1.825Y-0.45
X1.825Y-0.525
X1.825Y-0.7
X1.825Y-1.05
X1.825Y-1.225
X1.825Y-1.4
X1.825Y-1.575
X1.825Y-1.85
X1.825Y-1.925
X1.825Y-2.275
X1.825Y-2.45
X1.825Y-2.975
X1.825Y-3.5
X1.825Y-3.85
X1.8279Y-2.6212
X1.8316Y-3.6748
X1.8375Y-2.025
X1.8398Y-4.6502
X1.8398Y-5.3502
X1.8398Y-6.0502
X1.8398Y-6.7502
X1.8398Y-7.4502
X1.8398Y-8.1502
X1.84Y-3.8764
X1.84Y-4.125
X1.84Y-4.375
X1.84Y-4.55
X1.84Y-4.8285
X1.84Y-5.075
X1.84Y-5.25
X1.84Y-5.5285
X1.84Y-5.775
X1.84Y-5.95
X1.84Y-6.475
X1.84Y-6.65
X1.84Y-6.9285
X1.84Y-7.175
X1.84Y-7.35
X1.84Y-7.6285
X1.84Y-7.875
X1.84Y-8.05
X1.84Y-8.3285
X1.8401Y-4.0486
X1.847Y-4.2917
X1.847Y-4.9917
X1.847Y-5.6917
X1.847Y-6.3917
X1.847Y-7.0917
X1.847Y-7.7917
X1.8491Y-6.2439
X1.8499Y-1.6035
X1.85Y-0.8875
X1.85Y-2.375
X1.85Y-3.075
X1.85Y-3.5264
X1.8631Y-3.6029
X1.8661Y-4.7489
X1.8661Y-5.4489
X1.8661Y-6.1489
X1.8661Y-6.8489
X1.8661Y-7.5489
X1.8661Y-8.2489
X1.8746Y-1.7253
X1.8747Y-3.1215
X1.875Y-0.8
X1.875Y-0.975
X1.875Y-2.075
X1.875Y-2.125
X1.875Y-3.775
X1.875Y-8.4663
X1.875Y-9.55
X1.875Y-9.925
X1.875Y-10.3
X1.8753Y-2.7611
X1.8865Y-3.3913
X1.9045Y-2.125
X1.9125Y-10.2125
X1.914Y-8.3976
X1.915Y-4.4
X1.915Y-4.55
X1.915Y-4.9
X1.915Y-5.1
X1.915Y-5.25
X1.915Y-5.6
X1.915Y-5.8
X1.915Y-5.95
X1.915Y-6.3
X1.915Y-6.5
X1.915Y-6.65
X1.915Y-7.0
X1.915Y-7.2
X1.915Y-7.35
X1.915Y-7.7
X1.915Y-7.9
X1.915Y-8.05
X1.9215Y-1.7101
X1.925Y-0.6514
X1.925Y-1.2
X1.925Y-1.25
X1.925Y-1.3715
X1.925Y-1.8965
X1.925Y-4.0
X1.925Y-8.425
X1.9253Y-2.9465
X1.9255Y-2.5936
X1.9256Y-1.5465
X1.93Y-3.3139
X1.9351Y-2.8463
X1.9355Y-4.1739
X1.9367Y-3.4752
X1.9389Y-4.375
X1.95Y-0.45
X1.95Y-0.9035
X1.95Y-3.05
X1.95Y-3.55
X1.95Y-3.625
X1.9508Y-1.325
X1.9559Y-1.7789
X1.9625Y-5.775
X1.9625Y-6.35
X1.9625Y-7.75
X1.9625Y-7.9
X1.9701Y-2.6962
X1.9705Y-3.3943
X1.9742Y-1.475
X1.975Y-0.3272
X1.975Y-1.0785
X1.975Y-1.6625
X1.975Y-5.6375
X1.975Y-7.0625
X1.975Y-8.6625
X1.9801Y-4.1962
X1.9831Y-2.8285
X1.9875Y-5.0
X1.9949Y-2.611
X1.9955Y-0.8
X1.9999Y-2.974
X2.0Y-0.525
X2.0Y-1.05
X2.0Y-1.325
X2.0Y-1.4
X2.0Y-1.575
X2.0Y-2.275
X2.0Y-2.45
X2.0Y-2.8
X2.0Y-3.15
X2.0Y-3.85
X2.0Y-4.9125
X2.003Y-3.6008
X2.0037Y-1.925
X2.0037Y-3.5163
X2.0125Y-0.9
X2.0146Y-3.3264
X2.015Y-3.95
X2.015Y-4.05
X2.015Y-4.1285
X2.015Y-4.3
X2.015Y-4.475
X2.015Y-4.575
X2.015Y-4.65
X2.015Y-4.825
X2.015Y-5.175
X2.015Y-5.275
X2.015Y-5.35
X2.015Y-5.525
X2.015Y-5.7
X2.015Y-5.875
X2.015Y-5.975
X2.015Y-6.05
X2.015Y-6.225
X2.015Y-6.4
X2.015Y-6.575
X2.015Y-6.675
X2.015Y-6.75
X2.015Y-6.925
X2.015Y-7.1
X2.015Y-7.375
X2.015Y-7.45
X2.015Y-7.625
X2.015Y-7.8
X2.015Y-7.975
X2.015Y-8.075
X2.015Y-8.15
X2.015Y-8.325
X2.0236Y-1.7493
X2.025Y-0.8
X2.025Y-1.25
X2.025Y-1.5
X2.025Y-2.025
X2.025Y-3.075
X2.0375Y-4.2125
X2.047Y-4.35
X2.047Y-6.45
X2.047Y-7.15
X2.047Y-7.85
X2.0497Y-2.4785
X2.05Y-0.6736
X2.05Y-1.0535
X2.05Y-1.7736
X2.05Y-2.175
X2.05Y-3.2125
X2.05Y-3.4205
X2.05Y-3.45
X2.05Y-3.7413
X2.05Y-3.7843
X2.05Y-3.925
X2.05Y-5.025
X2.05Y-5.725
X2.05Y-7.2875
X2.0571Y-0.961
X2.0821Y-3.0406
X2.0862Y-4.2204
X2.0875Y-2.125
X2.0889Y-4.4
X2.0893Y-5.9547
X2.09Y-4.0087
X2.09Y-4.5545
X2.09Y-5.1
X2.09Y-5.2545
X2.09Y-5.8
X2.09Y-6.5
X2.09Y-6.625
X2.09Y-6.6545
X2.09Y-7.2
X2.09Y-7.325
X2.09Y-7.3545
X2.09Y-7.9
X2.09Y-8.025
X2.09Y-8.0545
X2.0904Y-2.9179
X2.0952Y-3.1114
X2.0963Y-2.5936
X2.0963Y-2.7736
X2.1Y-1.2
X2.1Y-1.3715
X2.1Y-1.8965
X2.1Y-2.075
X2.1Y-2.975
X2.1Y-4.525
X2.1Y-5.225
X2.1Y-8.4125
X2.1003Y-1.7245
X2.1006Y-0.4965
X2.1006Y-1.5465
X2.1014Y-4.8824
X2.1014Y-5.5824
X2.1014Y-6.2824
X2.1014Y-6.9824
X2.1125Y-5.925
X2.1139Y-7.675
X2.1139Y-8.375
X2.1201Y-3.3785
X2.125Y-0.35
X2.125Y-1.25
X2.125Y-2.525
X2.125Y-4.25
X2.1258Y-1.85
X2.1258Y-2.025
X2.1264Y-0.5733
X2.1351Y-3.3264
X2.1375Y-2.1125
X2.1375Y-9.0
X2.1388Y-2.9942
X2.1427Y-4.6177
X2.1483Y-4.4014
X2.1498Y-3.975
X2.15Y-0.4
X2.15Y-0.9035
X2.15Y-1.65
X2.15Y-1.6795
X2.15Y-4.3
X2.1548Y-1.8012
X2.165Y-7.35
X2.165Y-8.05
X2.1663Y-4.5502
X2.1663Y-5.2502
X2.1663Y-6.6502
X2.1692Y-2.7216
X2.1732Y-2.9579
X2.1743Y-3.4216
X2.1748Y-5.9546
X2.175Y-0.525
X2.175Y-0.7
X2.175Y-0.875
X2.175Y-0.975
X2.175Y-1.05
X2.175Y-1.225
X2.175Y-1.4
X2.175Y-1.575
X2.175Y-1.925
X2.175Y-2.275
X2.175Y-2.6212
X2.175Y-3.775
X2.175Y-3.85
X2.175Y-5.625
X2.175Y-8.5875
X2.1753Y-3.5163
X2.1759Y-3.3174
X2.1844Y-3.6913
X2.1855Y-4.1293
X2.1859Y-3.954
X2.1898Y-7.8002
X2.19Y-4.4
X2.19Y-4.65
X2.19Y-4.9
X2.19Y-5.0
X2.19Y-5.1
X2.19Y-5.35
X2.19Y-5.7
X2.19Y-5.8
X2.19Y-6.05
X2.19Y-6.3
X2.19Y-6.4
X2.19Y-6.5
X2.19Y-6.75
X2.19Y-7.1
X2.19Y-7.2
X2.19Y-7.45
X2.19Y-7.7
X2.19Y-7.9
X2.19Y-8.15
X2.19Y-8.4
X2.1902Y-5.5997
X2.1904Y-6.9956
X2.1907Y-4.2087
X2.1941Y-7.3553
X2.1941Y-8.0553
X2.1954Y-4.5555
X2.1954Y-5.2555
X2.1954Y-6.6555
X2.2Y-2.025
X2.2Y-3.075
X2.2043Y-5.9559
X2.2125Y-7.725
X2.2139Y-1.3936
X2.2139Y-1.7127
X2.2151Y-3.9499
X2.2247Y-2.4215
X2.225Y-0.5875
X2.225Y-0.775
X2.225Y-0.975
X2.225Y-1.25
X2.225Y-1.8248
X2.225Y-2.0712
X2.225Y-2.7715
X2.225Y-3.1625
X2.2298Y-3.3867
X2.2375Y-4.0875
X2.2475Y-3.0485
X2.2514Y-3.5267
X2.265Y-6.45
X2.265Y-7.15
X2.265Y-7.85
X2.2658Y-4.5789
X2.2658Y-5.2789
X2.2658Y-5.9789
X2.2658Y-6.6789
X2.2658Y-7.3789
X2.2658Y-8.0789
X2.2671Y-4.0361
X2.275Y-0.6715
X2.275Y-1.8965
X2.275Y-2.2465
X2.275Y-3.025
X2.275Y-3.1094
X2.2756Y-0.4965
X2.2756Y-1.5465
X2.2764Y-3.9083
X2.2777Y-2.5877
X2.2788Y-1.372
X2.2823Y-2.9357
X2.2875Y-4.3625
X2.2875Y-5.0375
X2.2875Y-5.75
X2.2958Y-0.4208
X2.3Y-1.6482
X2.3Y-2.7
X2.3Y-3.05
X2.3Y-9.55
X2.3Y-9.925
X2.3Y-10.3
X2.3008Y-1.8375
X2.3014Y-3.2621
X2.303Y-1.7939
X2.3125Y-2.125
X2.3125Y-5.0875
X2.3125Y-8.375
X2.3163Y-3.5249
X2.3176Y-1.4016
X2.3241Y-1.8965
X2.3242Y-2.175
X2.325Y-0.375
X2.325Y-2.55
X2.325Y-6.3625
X2.3253Y-4.2087
X2.3255Y-2.6602
X2.3274Y-2.7294
X2.3274Y-3.5523
X2.3413Y-3.875
X2.3468Y-5.0051
X2.3486Y-3.3297
X2.3486Y-3.5014
X2.3491Y-1.5712
X2.35Y-0.525
X2.35Y-0.7
X2.35Y-0.8
X2.35Y-1.05
X2.35Y-1.15
X2.35Y-1.4
X2.35Y-1.925
X2.35Y-2.125
X2.35Y-2.275
X2.35Y-2.8
X2.35Y-2.975
X2.35Y-3.15
X2.35Y-3.6913
X2.35Y-5.25
X2.35Y-8.7125
X2.3505Y-3.8469
X2.3547Y-2.6123
X2.3625Y-9.825
X2.3649Y-4.9249
X2.3649Y-5.6249
X2.3649Y-7.0249
X2.365Y-4.2
X2.365Y-4.3
X2.365Y-4.65
X2.365Y-5.35
X2.365Y-5.7
X2.365Y-6.05
X2.365Y-6.325
X2.365Y-6.4
X2.365Y-6.75
X2.365Y-7.1
X2.365Y-7.45
X2.365Y-7.8
X2.365Y-8.15
X2.365Y-8.425
X2.3654Y-4.0486
X2.3682Y-7.7276
X2.3703Y-5.9469
X2.3703Y-6.6469
X2.3703Y-7.3469
X2.3703Y-8.0469
X2.375Y-2.025
X2.375Y-2.375
X2.375Y-4.5625
X2.3852Y-1.6909
X2.3909Y-4.7509
X2.3909Y-5.4509
X2.3909Y-6.8509
X2.3909Y-7.5509
X2.3909Y-8.2509
X2.3911Y-2.9785
X2.3956Y-6.1861
X2.397Y-2.5
X2.3982Y-3.0936
X2.4Y-0.425
X2.4Y-0.975
X2.4Y-1.6437
X2.4Y-3.025
X2.4Y-3.5663
X2.4Y-3.775
X2.4Y-3.85
X2.4Y-8.6125
X2.4012Y-3.2137
X2.4125Y-10.15
X2.419Y-0.5215
X2.4375Y-4.375
X2.4375Y-5.075
X2.4396Y-4.5771
X2.4396Y-5.2771
X2.4397Y-6.6087
X2.4397Y-7.3087
X2.4397Y-8.0087
X2.44Y-4.0
X2.44Y-4.9
X2.44Y-5.6
X2.44Y-5.9775
X2.44Y-6.3
X2.44Y-6.45
X2.44Y-6.675
X2.44Y-7.0
X2.44Y-7.15
X2.44Y-7.375
X2.44Y-7.6837
X2.44Y-7.85
X2.44Y-8.075
X2.44Y-8.4
X2.4477Y-2.5884
X2.4497Y-2.4215
X2.45Y-0.725
X2.45Y-1.2
X2.45Y-1.3715
X2.45Y-1.8965
X2.45Y-2.075
X2.45Y-2.2465
X2.45Y-3.3875
X2.45Y-3.5375
X2.45Y-5.9125
X2.45Y-9.5375
X2.4503Y-2.7715
X2.4506Y-3.2773
X2.4506Y-1.5436
X2.4514Y-1.7271
X2.4514Y-2.9431
X2.4521Y-3.1113
X2.4625Y-4.175
X2.4625Y-4.5125
X2.4625Y-5.2125
X2.4625Y-5.75
X2.4625Y-7.2
X2.4639Y-3.6462
X2.475Y-0.925
X2.475Y-1.475
X2.475Y-5.7875
X2.475Y-8.675
X2.475Y-10.1375
X2.4764Y-3.025
X2.4795Y-1.4458
X2.4861Y-5.4611
X2.4875Y-5.65
X2.4875Y-7.0087
X2.4935Y-3.4254
X2.4986Y-1.8088
X2.4986Y-2.925
X2.4992Y-2.05
X2.4992Y-2.675
X2.4999Y-3.2243
X2.5Y-1.5
X2.5Y-1.9535
X2.5031Y-3.2536
X2.515Y-4.575
X2.515Y-5.275
X2.515Y-5.975
X2.515Y-6.675
X2.515Y-7.375
X2.515Y-8.075
X2.5201Y-2.9714
X2.5241Y-1.5712
X2.525Y-0.5285
X2.525Y-0.625
X2.525Y-0.7
X2.525Y-0.875
X2.525Y-1.05
X2.525Y-1.225
X2.525Y-1.4
X2.525Y-1.675
X2.525Y-1.75
X2.525Y-1.925
X2.525Y-2.1
X2.525Y-2.275
X2.525Y-2.45
X2.525Y-3.5212
X2.525Y-3.6085
X2.525Y-9.6
X2.525Y-9.6875
X2.525Y-10.3
X2.5253Y-1.8503
X2.5257Y-9.9743
X2.526Y-9.224
X2.5264Y-9.0861
X2.5292Y-3.8458
X2.5329Y-2.6154
X2.5375Y-8.55
X2.5375Y-9.025
X2.54Y-3.95
X2.54Y-4.125
X2.54Y-4.2
X2.54Y-4.3
X2.54Y-4.65
X2.54Y-4.825
X2.54Y-5.0
X2.54Y-5.175
X2.54Y-5.35
X2.54Y-5.525
X2.54Y-5.7
X2.54Y-5.875
X2.54Y-6.05
X2.54Y-6.225
X2.54Y-6.4
X2.54Y-6.575
X2.54Y-6.75
X2.54Y-6.925
X2.54Y-7.1
X2.54Y-7.275
X2.54Y-7.45
X2.54Y-7.625
X2.54Y-7.8
X2.54Y-7.975
X2.54Y-8.15
X2.54Y-8.325
X2.5407Y-4.4752
X2.55Y-1.325
X2.55Y-1.5
X2.5551Y-4.5468
X2.5551Y-6.6468
X2.5551Y-7.3468
X2.5551Y-8.0468
X2.5625Y-8.4
X2.5661Y-2.3091
X2.5666Y-0.8084
X2.5693Y-3.2948
X2.5695Y-1.678
X2.572Y-3.101
X2.5737Y-3.0361
X2.575Y-0.975
X2.575Y-2.7715
X2.575Y-3.625
X2.575Y-3.775
X2.575Y-5.2125
X2.575Y-5.9625
X2.575Y-9.6
X2.575Y-3.4413
X2.5798Y-1.4614
X2.5808Y-2.0176
X2.6Y-3.15
X2.6014Y-4.2486
X2.6075Y-2.3567
X2.6125Y-8.55
X2.615Y-4.575
X2.615Y-4.925
X2.615Y-5.275
X2.615Y-5.625
X2.615Y-6.325
X2.615Y-6.45
X2.615Y-6.625
X2.615Y-6.675
X2.615Y-7.0264
X2.615Y-7.15
X2.615Y-7.325
X2.615Y-7.375
X2.615Y-7.7309
X2.615Y-7.85
X2.615Y-8.025
X2.615Y-8.075
X2.615Y-8.425
X2.6153Y-2.8237
X2.6166Y-4.35
X2.6212Y-2.5959
X2.622Y-5.9772
X2.6234Y-1.1861
X2.625Y-1.3715
X2.625Y-1.8965
X2.625Y-2.2465
X2.625Y-2.4125
X2.625Y-5.9125
X2.6256Y-1.5465
X2.6333Y-1.2333
X2.6374Y-2.9946
X2.6375Y-2.9375
X2.6375Y-5.0625
X2.6375Y-5.225
X2.6375Y-5.75
X2.6375Y-8.7625
X2.6458Y-4.5292
X2.65Y-0.95
X2.65Y-3.375
X2.65Y-3.875
X2.65Y-4.325
X2.65Y-8.025
X2.65Y-9.425
X2.6508Y-5.175
X2.6508Y-5.8624
X2.6508Y-6.575
X2.6508Y-7.2771
X2.6508Y-7.975
X2.6567Y-3.2583
X2.6625Y-2.125
X2.6625Y-3.1757
X2.6625Y-7.8875
X2.6723Y-1.8269
X2.6731Y-1.3072
X2.6736Y-4.1986
X2.6741Y-3.2045
X2.6741Y-1.7963
X2.6742Y-1.475
X2.6742Y-3.65
X2.675Y-0.5
X2.675Y-2.025
X2.675Y-2.8125
X2.675Y-5.975
X2.675Y-6.3625
X2.675Y-7.3625
X2.675Y-8.0625
X2.675Y-8.7389
X2.6756Y-1.3366
X2.68Y-1.2784
X2.6875Y-4.95
X2.6889Y-2.7139
X2.6921Y-4.1691
X2.6923Y-2.4838
X2.6958Y-3.3292
X2.6967Y-0.7014
X2.6973Y-3.5216
X2.6997Y-1.7785
X2.7Y-1.05
X2.7Y-1.15
X2.7Y-1.575
X2.7Y-2.275
X2.7Y-2.625
X2.7Y-2.7889
X2.7Y-2.975
X2.7Y-3.15
X2.7Y-3.425
X2.7Y-3.675
X2.7Y-3.775
X2.7Y-3.85
X2.7Y-4.2163
X2.7Y-5.0
X2.7Y-5.7125
X2.7Y-6.4
X2.7Y-7.1
X2.7Y-7.8
X2.7Y-8.1125
X2.7Y-8.55
X2.7Y-9.9625
X2.7Y-10.1375
X2.7002Y-1.4008
X2.7088Y-1.925
X2.7125Y-2.375
X2.7125Y-3.95
X2.7125Y-7.7
X2.7125Y-8.675
X2.7125Y-8.7625
X2.7125Y-9.025
X2.7125Y-9.1625
X2.7125Y-9.3625
X2.7125Y-9.5375
X2.7125Y-9.7875
X2.7237Y-3.003
X2.725Y-0.9035
X2.725Y-4.325
X2.7332Y-4.1252
X2.7375Y-8.55
X2.7478Y-1.7233
X2.7482Y-7.2317
X2.7497Y-2.4215
X2.75Y-0.6
X2.75Y-0.975
X2.75Y-2.875
X2.75Y-7.175
X2.75Y-10.2604
X2.75Y-10.3303
X2.7526Y-3.5216
X2.7542Y-2.0792
X2.755Y-3.0409
X2.7625Y-1.6375
X2.7656Y-5.9556
X2.7659Y-8.0192
X2.7715Y-4.9549
X2.7736Y-6.5398
X2.775Y-3.3215
X2.775Y-4.1986
X2.775Y-10.3303
X2.7892Y-6.5147
X2.796Y-3.532
X2.7961Y-2.7587
X2.7967Y-5.05
X2.7971Y-3.1215
X2.7986Y-4.1691
X2.8Y-0.5875
X2.8Y-1.2
X2.8Y-1.3715
X2.8Y-1.8156
X2.8Y-1.8965
X2.8Y-2.2465
X2.8Y-3.8125
X2.8Y-4.2163
X2.8Y-4.6
X2.8Y-8.45
X2.8Y-8.725
X2.8Y-8.9
X2.8Y-8.975
X2.8Y-9.325
X2.8Y-9.5
X2.8Y-9.55
X2.8Y-9.825
X2.8Y-10.0
X2.8Y-10.175
X2.8Y-10.3303
X2.8003Y-3.7035
X2.8003Y-2.5965
X2.8006Y-1.5465
X2.8006Y-2.9455
X2.8014Y-7.6649
X2.8014Y-8.0583
X2.8121Y-5.1222
X2.8184Y-0.505
X2.8208Y-3.0205
X2.8216Y-3.5082
X2.8218Y-3.1053
X2.825Y-1.65
X2.825Y-3.5375
X2.825Y-8.1125
X2.8338Y-2.4929
X2.8375Y-0.4
X2.8375Y-2.3
X2.8375Y-2.8
X2.842Y-1.0714
X2.8433Y-2.521
X2.8465Y-2.3827
X2.8486Y-6.4567
X2.8491Y-1.2795
X2.8492Y-1.1
X2.8492Y-1.525
X2.8492Y-1.625
X2.8498Y-4.325
X2.85Y-1.25
X2.85Y-2.125
X2.85Y-4.55
X2.8502Y-3.3659
X2.8508Y-0.6281
X2.8633Y-3.1787
X2.8663Y-6.1771
X2.8708Y-3.6792
X2.8718Y-1.675
X2.8749Y-2.9673
X2.875Y-0.7
X2.875Y-0.875
X2.875Y-1.225
X2.875Y-1.325
X2.875Y-1.4
X2.875Y-1.575
X2.875Y-1.925
X2.875Y-2.2639
X2.875Y-2.6215
X2.8758Y-0.5212
X2.8764Y-3.3229
X2.8806Y-2.8989
X2.8815Y-0.627
X2.8833Y-7.0014
X2.8875Y-3.875
X2.8875Y-4.575
X2.8875Y-6.8375
X2.8878Y-1.0476
X2.89Y-3.6
X2.89Y-4.125
X2.89Y-4.3
X2.89Y-4.65
X2.89Y-4.825
X2.89Y-5.0
X2.89Y-5.25
X2.89Y-5.35
X2.89Y-5.525
X2.89Y-5.7
X2.89Y-5.95
X2.89Y-6.05
X2.89Y-6.225
X2.89Y-6.4
X2.89Y-6.65
X2.89Y-6.75
X2.89Y-6.925
X2.89Y-7.0951
X2.89Y-7.3451
X2.89Y-7.4451
X2.89Y-7.6201
X2.89Y-7.8
X2.89Y-8.15
X2.89Y-8.325
X2.8904Y-4.0486
X2.8904Y-4.5456
X2.8907Y-8.0498
X2.8933Y-4.2236
X2.9Y-4.925
X2.9Y-5.6014
X2.9Y-7.7125
X2.9002Y-2.0236
X2.9014Y-1.675
X2.9045Y-1.325
X2.9058Y-2.3719
X2.9125Y-3.425
X2.9125Y-6.4875
X2.9167Y-7.1986
X2.9208Y-0.7708
X2.925Y-0.675
X2.925Y-0.975
X2.925Y-1.625
X2.925Y-3.95
X2.925Y-10.3
X2.925Y-9.6861
X2.9253Y-9.0861
X2.9285Y-3.1465
X2.95Y-8.925
X2.95Y-9.525
X2.95Y-10.125
X2.9625Y-1.5548
X2.965Y-5.275
X2.965Y-5.975
X2.965Y-6.675
X2.965Y-7.3701
X2.965Y-8.075
X2.9708Y-3.6458
X2.9723Y-1.7157
X2.9729Y-1.7452
X2.9733Y-2.2363
X2.9745Y-4.566
X2.9747Y-3.2965
X2.975Y-1.2
X2.975Y-1.3715
X2.975Y-1.8965
X2.975Y-2.0746
X2.975Y-2.7736
X2.975Y-2.9449
X2.975Y-2.4247
X2.9786Y-3.1202
X2.9795Y-0.4813
X2.9869Y-3.366
X2.9875Y-0.5561
X2.9875Y-4.175
X2.9896Y-5.25
X2.9896Y-5.95
X2.9896Y-6.65
X2.9896Y-7.3451
X2.9896Y-8.05
X2.9939Y-8.9311
X2.9939Y-9.5311
X2.9939Y-10.1311
X2.9945Y-0.4163
X2.9948Y-4.5446
X3.0Y-0.6388
X3.0Y-3.5
X3.0Y-3.8736
X3.0006Y-1.5236
X3.0125Y-7.3125
X3.0132Y-4.4382
X3.0158Y-0.7986
X3.0231Y-2.6784
X3.0236Y-3.5667
X3.0242Y-1.45
X3.0248Y-0.9035
X3.0248Y-4.2738
X3.025Y-1.325
X3.025Y-1.775
X3.025Y-3.2375
X3.025Y-4.375
X3.025Y-7.8875
X3.025Y-9.95
X3.0458Y-2.2639
X3.0486Y-0.703
X3.05Y-0.525
X3.05Y-1.05
X3.05Y-1.15
X3.05Y-1.4
X3.05Y-1.925
X3.05Y-2.0982
X3.05Y-2.4409
X3.05Y-2.9
X3.05Y-3.1465
X3.05Y-3.325
X3.05Y-3.675
X3.0502Y-2.9734
X3.0529Y-1.574
X3.0542Y-3.5208
X3.055Y-1.7486
X3.0625Y-0.9
X3.0648Y-4.6736
X3.0648Y-5.3502
X3.0648Y-6.0502
X3.0648Y-6.7502
X3.0648Y-7.4453
X3.0648Y-8.1502
X3.065Y-3.95
X3.065Y-4.05
X3.065Y-4.1285
X3.065Y-4.3
X3.065Y-4.475
X3.065Y-4.575
X3.065Y-4.825
X3.065Y-5.0
X3.065Y-5.175
X3.065Y-5.275
X3.065Y-5.525
X3.065Y-5.7
X3.065Y-5.875
X3.065Y-5.975
X3.065Y-6.225
X3.065Y-6.4
X3.065Y-6.575
X3.065Y-6.675
X3.065Y-6.925
X3.065Y-7.0951
X3.065Y-7.2701
X3.065Y-7.3701
X3.065Y-7.6201
X3.065Y-7.8
X3.065Y-7.975
X3.065Y-8.075
X3.065Y-8.325
X3.075Y-1.325
X3.075Y-3.425
X3.09Y-4.725
X3.09Y-5.425
X3.09Y-6.125
X3.09Y-6.825
X3.09Y-7.5201
X3.09Y-8.225
X3.0945Y-2.3783
X3.0971Y-2.5704
X3.0991Y-3.9091
X3.0993Y-0.5807
X3.0994Y-9.686
X3.1Y-0.325
X3.1Y-0.9742
X3.1Y-1.0215
X3.1Y-2.025
X3.1Y-3.1
X3.1Y-3.5125
X3.1Y-10.3
X3.1003Y-9.0861
X3.1019Y-0.628
X3.1024Y-2.3311
X3.1055Y-1.6663
X3.1065Y-2.6806
X3.115Y-1.975
X3.125Y-5.075
X3.125Y-8.925
X3.125Y-9.525
X3.125Y-10.125
X3.14Y-4.5455
X3.14Y-4.575
X3.14Y-5.2455
X3.14Y-5.275
X3.14Y-5.9455
X3.14Y-5.975
X3.14Y-6.45
X3.14Y-6.6455
X3.14Y-6.675
X3.14Y-7.3406
X3.14Y-7.3701
X3.14Y-7.85
X3.14Y-8.0455
X3.14Y-8.075
X3.1426Y-4.0163
X3.1454Y-3.2919
X3.1457Y-2.2363
X3.1474Y-7.1264
X3.1481Y-2.7736
X3.1488Y-1.6234
X3.15Y-1.2
X3.15Y-1.375
X3.15Y-1.8965
X3.15Y-2.641
X3.15Y-2.9449
X3.15Y-3.125
X3.1506Y-1.5465
X3.1573Y-4.35
X3.1587Y-3.65
X3.1625Y-5.7625
X3.1627Y-2.8307
X3.1689Y-8.9189
X3.1689Y-9.5189
X3.1689Y-10.1189
X3.175Y-0.925
X3.175Y-1.0799
X3.175Y-1.1094
X3.175Y-2.3485
X3.175Y-2.4535
X3.175Y-3.0
X3.175Y-4.0625
X3.1754Y-2.5236
X3.1756Y-0.5535
X3.1875Y-7.725
X3.1956Y-2.5885
X3.1991Y-3.1835
X3.1991Y-1.8965
X3.1992Y-1.0214
X3.1992Y-2.175
X3.1996Y-1.4913
X3.1998Y-4.425
X3.2Y-2.025
X3.2Y-3.525
X3.2Y-4.3875
X3.2Y-4.9125
X3.2Y-5.6
X3.2Y-5.6625
X3.2Y-6.3125
X3.2Y-8.8375
X3.2042Y-1.7792
X3.2045Y-1.0785
X3.2231Y-3.3498
X3.2236Y-2.1311
X3.225Y-0.875
X3.225Y-0.975
X3.225Y-1.225
X3.225Y-1.575
X3.225Y-1.925
X3.225Y-2.2639
X3.225Y-2.45
X3.225Y-2.625
X3.2269Y-1.3207
X3.2271Y-1.4091
X3.2286Y-0.7087
X3.2295Y-1.05
X3.2359Y-3.9518
X3.236Y-4.1285
X3.2367Y-3.1455
X3.2375Y-2.8125
X3.2375Y-2.9
X3.2375Y-2.975
X3.2375Y-4.0522
X3.24Y-3.425
X3.24Y-3.6
X3.24Y-3.7
X3.24Y-4.3
X3.24Y-4.55
X3.24Y-4.825
X3.24Y-5.0
X3.24Y-5.25
X3.24Y-5.35
X3.24Y-5.525
X3.24Y-5.7
X3.24Y-5.95
X3.24Y-6.05
X3.24Y-6.225
X3.24Y-6.4
X3.24Y-6.65
X3.24Y-6.75
X3.24Y-6.925
X3.24Y-7.0951
X3.24Y-7.3451
X3.24Y-7.4451
X3.24Y-7.6201
X3.24Y-7.8
X3.24Y-8.05
X3.24Y-8.15
X3.24Y-8.325
X3.2433Y-3.8389
X3.2486Y-4.65
X3.25Y-0.35
X3.25Y-0.8
X3.25Y-3.25
X3.25Y-3.3375
X3.2625Y-2.2875
X3.265Y-4.75
X3.265Y-5.45
X3.265Y-6.15
X3.265Y-6.85
X3.265Y-7.5451
X3.265Y-8.25
X3.2713Y-1.6318
X3.2746Y-9.686
X3.2748Y-3.9319
X3.275Y-1.9535
X3.275Y-2.675
X3.275Y-3.75
X3.275Y-3.85
X3.275Y-4.4375
X3.275Y-7.0625
X3.275Y-10.3
X3.2753Y-0.9913
X3.2753Y-1.7477
X3.276Y-9.0847
X3.2762Y-2.0754
X3.2771Y-0.6264
X3.2916Y-3.675
X3.3Y-2.475
X3.3Y-8.925
X3.3Y-9.525
X3.3Y-10.125
X3.3091Y-3.287
X3.315Y-4.025
X3.315Y-4.575
X3.315Y-4.875
X3.315Y-5.275
X3.315Y-5.975
X3.315Y-6.275
X3.315Y-6.45
X3.315Y-6.625
X3.315Y-6.675
X3.315Y-6.975
X3.315Y-7.3201
X3.315Y-7.3701
X3.315Y-7.6701
X3.315Y-7.85
X3.315Y-8.025
X3.315Y-8.075
X3.315Y-8.375
X3.3208Y-5.9208
X3.3224Y-7.1426
X3.325Y-1.2
X3.325Y-1.3913
X3.325Y-1.5478
X3.325Y-3.7406
X3.325Y-3.9125
X3.325Y-5.75
X3.3265Y-2.4881
X3.3288Y-3.3571
X3.3363Y-1.8965
X3.3364Y-3.6492
X3.3368Y-5.5736
X3.3375Y-4.35
X3.3375Y-5.2375
X3.34Y-1.25
X3.3439Y-8.9311
X3.3439Y-9.5311
X3.3439Y-10.1311
X3.3481Y-3.5065
X3.35Y-1.5715
X3.35Y-2.4125
X3.35Y-3.175
X3.35Y-3.475
X3.35Y-4.0478
X3.35Y-4.525
X3.35Y-5.05
X3.35Y-5.6
X3.35Y-7.725
X3.35Y-9.6575
X3.35Y-10.2715
X3.3585Y-9.0575
X3.3625Y-2.2
X3.3625Y-2.9
X3.3719Y-1.7736
X3.3736Y-2.2465
X3.3736Y-3.6
X3.3748Y-3.725
X3.375Y-0.45
X3.375Y-0.775
X3.375Y-4.225
X3.3793Y-3.6728
X3.3913Y-5.953
X3.3967Y-2.2659
X3.3968Y-0.5207
X3.4Y-1.4091
X3.4Y-1.575
X3.4Y-1.925
X3.4Y-2.1
X3.4Y-2.45
X3.4033Y-0.7047
X3.4106Y-1.2419
X3.4112Y-4.2236
X3.412Y-4.5498
X3.412Y-5.2498
X3.412Y-6.6498
X3.412Y-7.3449
X3.412Y-8.0498
X3.4124Y-4.0443
X3.4125Y-2.625
X3.4148Y-4.6502
X3.4148Y-5.3502
X3.4148Y-6.0502
X3.4148Y-6.7502
X3.4148Y-7.4453
X3.4148Y-8.1502
X3.415Y-2.9
X3.415Y-3.325
X3.415Y-3.425
X3.415Y-3.5
X3.415Y-4.3
X3.415Y-4.725
X3.415Y-4.825
X3.415Y-5.0
X3.415Y-5.425
X3.415Y-5.525
X3.415Y-5.7
X3.415Y-6.125
X3.415Y-6.225
X3.415Y-6.4
X3.415Y-6.825
X3.415Y-6.925
X3.415Y-7.0951
X3.415Y-7.5201
X3.415Y-7.6201
X3.415Y-7.8
X3.415Y-8.225
X3.415Y-8.325
X3.4156Y-3.8302
X3.4208Y-1.7792
X3.425Y-1.4125
X3.425Y-3.1488
X3.427Y-3.6936
X3.4375Y-9.4
X3.4414Y-4.5516
X3.4414Y-5.2516
X3.4414Y-5.9516
X3.4414Y-6.6516
X3.4414Y-7.3466
X3.4414Y-8.0516
X3.4444Y-2.3764
X3.4469Y-0.4305
X3.447Y-4.68
X3.447Y-5.3764
X3.447Y-6.08
X3.447Y-6.7764
X3.447Y-7.475
X3.447Y-8.18
X3.45Y-0.625
X3.45Y-0.6545
X3.45Y-1.4125
X3.45Y-2.225
X3.45Y-2.55
X3.45Y-3.875
X3.45Y-3.9613
X3.45Y-8.425
X3.4503Y-0.9913
X3.4524Y-1.0274
X3.4531Y-3.1094
X3.4541Y-1.6392
X3.4559Y-3.7225
X3.4579Y-1.7495
X3.4625Y-1.225
X3.4648Y-2.4125
X3.4654Y-4.0816
X3.475Y-2.675
X3.475Y-2.8125
X3.4875Y-1.225
X3.49Y-3.475
X3.49Y-3.7
X3.49Y-4.725
X3.49Y-4.875
X3.49Y-5.425
X3.49Y-6.125
X3.49Y-6.275
X3.49Y-6.45
X3.49Y-6.825
X3.49Y-6.975
X3.49Y-7.1451
X3.49Y-7.5201
X3.49Y-7.6701
X3.49Y-7.85
X3.49Y-8.225
X3.49Y-8.375
X3.4942Y-4.5792
X3.4942Y-5.2792
X3.4942Y-5.9792
X3.4942Y-6.6792
X3.4942Y-7.3743
X3.4942Y-8.0792
X3.4945Y-1.7337
X3.4955Y-2.4102
X3.5Y-0.675
X3.5Y-1.3913
X3.5Y-1.8965
X3.5Y-2.0712
X3.5Y-5.575
X3.5006Y-1.5465
X3.5007Y-1.1965
X3.5014Y-3.3442
X3.5032Y-0.521
X3.5095Y-3.6529
X3.5125Y-1.225
X3.5125Y-4.35
X3.5125Y-5.75
X3.5139Y-3.1252
X3.5158Y-4.1762
X3.5199Y-4.0229
X3.5203Y-3.4536
X3.5207Y-4.0958
X3.5244Y-9.086
X3.5244Y-9.686
X3.525Y-0.4
X3.525Y-5.05
X3.525Y-10.3
X3.5257Y-1.2535
X3.5258Y-1.8591
X3.5264Y-3.25
X3.5321Y-3.3142
X3.5343Y-4.0487
X3.5351Y-2.3035
X3.5375Y-2.5125
X3.5375Y-5.8
X3.5375Y-8.4125
X3.5379Y-3.9994
X3.5389Y-0.6139
X3.5391Y-3.7913
X3.5449Y-1.139
X3.5492Y-4.6215
X3.5492Y-1.7086
X3.55Y-1.2986
X3.55Y-1.3282
X3.55Y-1.9535
X3.55Y-2.6625
X3.55Y-2.7875
X3.55Y-3.625
X3.55Y-8.925
X3.55Y-9.525
X3.55Y-10.125
X3.5515Y-1.7712
X3.555Y-4.2304
X3.5605Y-2.4171
X3.5616Y-3.1682
X3.565Y-5.0
X3.565Y-5.7
X3.565Y-6.4
X3.565Y-7.0951
X3.565Y-7.8
X3.5727Y-4.3001
X3.575Y-0.7038
X3.575Y-0.875
X3.575Y-1.225
X3.575Y-1.5
X3.575Y-1.575
X3.575Y-1.925
X3.575Y-3.075
X3.5752Y-2.2018
X3.5777Y-3.5558
X3.5783Y-2.2703
X3.5788Y-2.6158
X3.584Y-6.8299
X3.5875Y-4.225
X3.5898Y-4.4752
X3.5898Y-5.1752
X3.5898Y-5.8752
X3.5898Y-6.5752
X3.5898Y-7.2703
X3.5898Y-7.9752
X3.59Y-2.905
X3.59Y-3.325
X3.59Y-3.95
X3.59Y-4.125
X3.59Y-4.375
X3.59Y-4.575
X3.59Y-4.65
X3.59Y-4.725
X3.59Y-4.9
X3.59Y-5.075
X3.59Y-5.275
X3.59Y-5.35
X3.59Y-5.425
X3.59Y-5.775
X3.59Y-5.975
X3.59Y-6.05
X3.59Y-6.125
X3.59Y-6.3
X3.59Y-6.475
X3.59Y-6.675
X3.59Y-6.75
X3.59Y-7.0
X3.59Y-7.1701
X3.59Y-7.3701
X3.59Y-7.4451
X3.59Y-7.5201
X3.59Y-7.6889
X3.59Y-7.875
X3.59Y-8.075
X3.59Y-8.15
X3.59Y-8.225
X3.59Y-8.4
X3.5927Y-3.4198
X3.5939Y-8.9311
X3.5939Y-9.5311
X3.5939Y-10.1311
X3.597Y-5.6917
X3.597Y-6.3917
X3.597Y-7.0868
X3.597Y-7.7917
X3.6Y-0.45
X3.6Y-2.8125
X3.6Y-3.1488
X3.6003Y-0.9913
X3.6007Y-4.2781
X3.6019Y-0.6264
X3.6035Y-3.5413
X3.6063Y-4.9738
X3.625Y-1.075
X3.625Y-1.375
X3.625Y-1.7215
X3.625Y-1.9758
X3.625Y-2.05
X3.625Y-5.5625
X3.625Y-8.425
X3.625Y-9.358
X3.625Y-9.3875
X3.625Y-10.025
X3.6264Y-3.8591
X3.6459Y-3.3357
X3.65Y-1.4
X3.665Y-6.4535
X3.665Y-6.625
X3.665Y-7.1486
X3.665Y-7.3201
X3.665Y-7.8535
X3.665Y-8.025
X3.6692Y-4.5542
X3.6692Y-5.2542
X3.6692Y-5.9542
X3.6692Y-6.6542
X3.6692Y-7.3493
X3.6692Y-8.0542
X3.6746Y-3.1413
X3.6749Y-2.9513
X3.675Y-0.6715
X3.675Y-0.8451
X3.675Y-1.9
X3.675Y-2.2465
X3.675Y-2.625
X3.675Y-4.2
X3.675Y-4.525
X3.675Y-5.225
X3.6756Y-0.4961
X3.6756Y-1.1965
X3.6756Y-1.5465
X3.6764Y-3.5039
X3.6829Y-4.3667
X3.6837Y-5.05
X3.6837Y-5.7509
X3.6864Y-1.9798
X3.6875Y-5.925
X3.6947Y-0.75
X3.7Y-1.8
X3.7Y-3.875
X3.7Y-3.975
X3.7Y-4.025
X3.7006Y-1.2765
X3.7008Y-5.8097
X3.7014Y-4.774
X3.7065Y-2.9566
X3.7076Y-2.0957
X3.7119Y-9.086
X3.7125Y-2.9875
X3.7125Y-10.3
X3.7128Y-9.6861
X3.715Y-3.3466
X3.7242Y-0.75
X3.7242Y-2.4
X3.7242Y-4.25
X3.7248Y-3.475
X3.7248Y-3.8091
X3.725Y-0.8
X3.725Y-1.95
X3.725Y-3.5125
X3.725Y-4.725
X3.725Y-6.825
X3.7251Y-4.2205
X3.7375Y-8.925
X3.7375Y-9.525
X3.7375Y-10.125
X3.74Y-7.0951
X3.74Y-7.8
X3.7424Y-2.8195
X3.7478Y-4.3014
X3.7486Y-5.0
X3.7486Y-5.7
X3.7486Y-6.4
X3.7496Y-0.8827
X3.7498Y-0.6984
X3.75Y-0.5246
X3.75Y-1.05
X3.75Y-1.225
X3.75Y-1.425
X3.75Y-2.275
X3.75Y-2.45
X3.75Y-2.55
X3.75Y-2.625
X3.75Y-2.9
X3.75Y-3.7
X3.7526Y-3.1509
X3.7537Y-1.5742
X3.7537Y-1.75
X3.7537Y-1.9242
X3.7611Y-4.0304
X3.7625Y-3.2591
X3.7625Y-3.85
X3.7625Y-3.9441
X3.7625Y-4.8366
X3.7648Y-4.6502
X3.7648Y-5.3502
X3.7648Y-6.0502
X3.7648Y-6.7502
X3.7648Y-7.4453
X3.7648Y-8.1502
X3.765Y-3.425
X3.765Y-3.6
X3.765Y-4.125
X3.765Y-4.375
X3.765Y-4.55
X3.765Y-5.075
X3.765Y-5.25
X3.765Y-5.5285
X3.765Y-5.775
X3.765Y-5.95
X3.765Y-6.2285
X3.765Y-6.475
X3.765Y-6.65
X3.765Y-6.9285
X3.765Y-7.1701
X3.765Y-7.3451
X3.765Y-7.6236
X3.765Y-7.875
X3.765Y-8.05
X3.765Y-8.3285
X3.7658Y-3.3514
X3.7675Y-2.025
X3.7675Y-3.075
X3.772Y-4.2738
X3.772Y-7.0868
X3.772Y-7.7917
X3.775Y-0.625
X3.775Y-2.2
X3.7764Y-6.3874
X3.7764Y-1.3624
X3.7764Y-2.2981
X3.7813Y-4.9839
X3.7814Y-8.9189
X3.7814Y-10.1189
X3.7875Y-9.525
X3.7911Y-4.7264
X3.7911Y-5.4489
X3.7911Y-6.1489
X3.7911Y-6.8489
X3.7911Y-7.5439
X3.7911Y-8.2489
X3.7916Y-0.4584
X3.798Y-3.6425
X3.8Y-0.775
X3.8Y-0.925
X3.8Y-2.4
X3.8Y-5.6625
X3.8Y-8.55
X3.8Y-9.975
X3.803Y-3.7087
X3.8038Y-0.6164
X3.8125Y-8.8375
X3.8125Y-8.875
X3.8125Y-9.5875
X3.8236Y-2.8018
X3.8243Y-2.4168
X3.825Y-1.4656
X3.825Y-7.025
X3.8338Y-0.9138
X3.84Y-3.35
X3.84Y-4.4
X3.84Y-4.55
X3.84Y-4.9
X3.84Y-5.1
X3.84Y-5.25
X3.84Y-5.8
X3.84Y-5.95
X3.84Y-6.3
X3.84Y-6.5
X3.84Y-6.65
X3.84Y-7.1986
X3.84Y-7.3451
X3.84Y-7.6951
X3.84Y-7.9
X3.84Y-8.05
X3.84Y-8.4
X3.8402Y-6.9997
X3.8446Y-0.9988
X3.8458Y-5.5837
X3.8468Y-1.343
X3.8469Y-2.2454
X3.8477Y-1.5465
X3.85Y-0.725
X3.85Y-1.7215
X3.85Y-2.075
X3.85Y-2.625
X3.85Y-2.9462
X3.8501Y-3.1223
X3.8506Y-1.1965
X3.8512Y-0.834
X3.8517Y-1.0786
X3.8531Y-1.8922
X3.8582Y-3.665
X3.8587Y-4.1759
X3.862Y-4.2242
X3.8625Y-3.9982
X3.8748Y-4.3719
X3.875Y-0.425
X3.875Y-2.9639
X3.875Y-3.8839
X3.875Y-4.85
X3.875Y-8.55
X3.8758Y-0.8163
X3.8764Y-4.25
X3.8764Y-4.4014
X3.8764Y-3.7913
X3.8808Y-3.3486
X3.8867Y-3.5718
X3.8896Y-2.2896
X3.8898Y-2.1532
X3.8909Y-2.3386
X3.8984Y-3.9045
X3.8986Y-7.1986
X3.8986Y-8.4208
X3.8992Y-2.225
X3.8992Y-5.3125
X3.8994Y-9.086
X3.8994Y-9.686
X3.9Y-1.5
X3.9Y-3.175
X3.9Y-4.75
X3.9Y-5.625
X3.9Y-5.6625
X3.9Y-10.3
X3.9006Y-1.2535
X3.9214Y-2.1221
X3.9228Y-2.2659
X3.925Y-0.45
X3.925Y-0.6837
X3.925Y-0.8732
X3.925Y-1.225
X3.925Y-1.575
X3.925Y-1.75
X3.925Y-1.925
X3.925Y-2.625
X3.925Y-4.9125
X3.925Y-6.3125
X3.925Y-7.725
X3.925Y-8.925
X3.925Y-9.525
X3.925Y-10.125
X3.9346Y-4.0337
X3.9375Y-2.905
X3.9375Y-3.85
X3.94Y-3.3014
X3.94Y-3.5
X3.94Y-4.1285
X3.94Y-4.3
X3.94Y-4.475
X3.94Y-4.575
X3.94Y-4.65
X3.94Y-4.825
X3.94Y-5.0
X3.94Y-5.175
X3.94Y-5.275
X3.94Y-5.35
X3.94Y-5.525
X3.94Y-5.7
X3.94Y-5.975
X3.94Y-6.05
X3.94Y-6.225
X3.94Y-6.4
X3.94Y-6.575
X3.94Y-6.675
X3.94Y-6.75
X3.94Y-6.925
X3.94Y-7.0951
X3.94Y-7.2701
X3.94Y-7.3701
X3.94Y-7.4451
X3.94Y-7.6201
X3.94Y-7.8
X3.94Y-7.975
X3.94Y-8.075
X3.94Y-8.15
X3.94Y-8.325
X3.9441Y-3.6837
X3.9445Y-3.77
X3.9486Y-3.425
X3.95Y-0.375
X3.95Y-2.8125
X3.95Y-3.95
X3.9506Y-1.6035
X3.9625Y-2.125
X3.9689Y-8.9311
X3.9689Y-9.5311
X3.9689Y-10.1311
X3.972Y-4.35
X3.972Y-6.45
X3.972Y-7.1451
X3.972Y-7.85
X3.9747Y-2.0236
X3.9747Y-2.4215
X3.9749Y-3.8635
X3.975Y-0.6207
X3.975Y-1.0215
X3.975Y-1.175
X3.975Y-1.275
X3.975Y-1.375
X3.975Y-1.625
X3.975Y-2.35
X3.975Y-3.1075
X3.975Y-3.2
X3.975Y-4.1982
X3.975Y-5.025
X3.975Y-5.7375
X3.975Y-5.8875
X3.975Y-7.0625
X3.975Y-8.875
X3.975Y-9.475
X3.975Y-10.075
X3.9753Y-2.6514
X3.9875Y-3.0375
X3.9875Y-4.4375
X3.9889Y-3.3524
X4.0Y-7.7125
X4.0087Y-4.3981
X4.0087Y-4.8966
X4.0096Y-3.8888
X4.0114Y-1.9702
X4.0123Y-3.7038
X4.0139Y-2.1215
X4.015Y-3.4788
X4.015Y-4.5545
X4.015Y-5.1
X4.015Y-5.2545
X4.015Y-5.8
X4.015Y-5.9545
X4.015Y-6.5
X4.015Y-6.625
X4.015Y-6.6545
X4.015Y-7.1986
X4.015Y-7.3201
X4.015Y-7.3496
X4.015Y-7.9
X4.015Y-8.025
X4.015Y-8.0545
X4.0181Y-3.6413
X4.0228Y-0.275
X4.025Y-2.2384
X4.025Y-2.5965
X4.025Y-2.9602
X4.025Y-4.2
X4.025Y-4.525
X4.025Y-5.225
X4.025Y-5.925
X4.025Y-0.8457
X4.0256Y-1.1965
X4.0257Y-3.3698
X4.0264Y-1.8965
X4.0337Y-3.9982
X4.0367Y-6.9768
X4.0389Y-6.275
X4.04Y-5.575
X4.04Y-7.6701
X4.04Y-8.375
X4.0474Y-3.2773
X4.05Y-1.075
X4.05Y-2.0
X4.05Y-2.0875
X4.05Y-2.5
X4.05Y-2.825
X4.0511Y-5.6303
X4.0514Y-3.8624
X4.0516Y-3.9746
X4.0574Y-3.3533
X4.0594Y-3.7741
X4.0625Y-5.55
X4.0625Y-6.9625
X4.0723Y-3.6837
X4.0736Y-2.1485
X4.0736Y-2.339
X4.0736Y-3.0111
X4.074Y-3.4469
X4.0742Y-5.4
X4.075Y-0.425
X4.075Y-1.15
X4.075Y-1.6691
X4.0769Y-0.6317
X4.09Y-6.65
X4.09Y-7.3451
X4.09Y-8.05
X4.0986Y-4.5499
X4.0986Y-5.2499
X4.0998Y-0.8732
X4.1Y-1.225
X4.1Y-1.575
X4.1Y-1.75
X4.1Y-1.925
X4.1Y-2.275
X4.1Y-2.45
X4.1Y-2.625
X4.1Y-2.8
X4.1Y-2.9
X4.1Y-2.9957
X4.1003Y-0.6837
X4.1006Y-0.5215
X4.1033Y-3.1409
X4.1042Y-5.5958
X4.1095Y-3.6014
X4.1108Y-3.9542
X4.1125Y-4.4
X4.1135Y-7.6853
X4.115Y-4.3181
X4.115Y-4.65
X4.115Y-4.9
X4.115Y-5.0
X4.115Y-5.1
X4.115Y-5.35
X4.115Y-5.7
X4.115Y-5.8
X4.115Y-6.05
X4.115Y-6.3
X4.115Y-6.4
X4.115Y-6.5
X4.115Y-6.75
X4.115Y-7.0
X4.115Y-7.0951
X4.115Y-7.1986
X4.115Y-7.4451
X4.115Y-7.8
X4.115Y-7.9
X4.115Y-8.15
X4.115Y-8.4
X4.1153Y-3.3367
X4.1163Y-1.0002
X4.1191Y-5.9553
X4.1191Y-6.6553
X4.1191Y-7.3503
X4.1191Y-8.0553
X4.125Y-4.2
X4.125Y-7.7125
X4.1264Y-3.8361
X4.1272Y-4.5573
X4.1272Y-5.2573
X4.1304Y-2.0219
X4.14Y-3.95
X4.1458Y-3.7792
X4.1469Y-1.3058
X4.1494Y-9.086
X4.1494Y-9.686
X4.15Y-1.65
X4.15Y-2.725
X4.15Y-4.0375
X4.15Y-4.1625
X4.15Y-5.9125
X4.15Y-10.3
X4.1508Y-3.5743
X4.153Y-0.7945
X4.1545Y-4.1985
X4.1613Y-1.28
X4.1625Y-3.35
X4.1748Y-3.7018
X4.175Y-3.175
X4.175Y-3.5125
X4.175Y-8.925
X4.175Y-9.525
X4.175Y-10.125
X4.1837Y-1.4285
X4.1842Y-2.0742
X4.1898Y-3.1002
X4.19Y-3.9
X4.19Y-6.45
X4.19Y-7.1451
X4.19Y-7.85
X4.1908Y-4.5789
X4.1908Y-5.2789
X4.1908Y-5.9789
X4.1908Y-6.6789
X4.1908Y-7.374
X4.1908Y-8.0789
X4.194Y-0.6561
X4.1943Y-2.4215
X4.1956Y-4.0174
X4.1966Y-0.8339
X4.2Y-0.5
X4.2Y-1.0215
X4.2Y-1.1965
X4.2Y-2.2465
X4.2Y-2.95
X4.2Y-4.525
X4.2003Y-2.5965
X4.2003Y-2.7715
X4.2013Y-3.7313
X4.2058Y-0.9168
X4.2094Y-3.6663
X4.2099Y-1.3715
X4.2119Y-3.481
X4.2125Y-4.35
X4.2125Y-5.05
X4.2125Y-5.75
X4.2138Y-1.8965
X4.2189Y-8.9311
X4.2189Y-9.5311
X4.2189Y-10.1311
X4.2205Y-1.775
X4.2249Y-3.7514
X4.225Y-0.375
X4.225Y-3.175
X4.2253Y-1.4285
X4.2259Y-2.1008
X4.2375Y-7.7625
X4.2397Y-5.3111
X4.2417Y-4.2167
X4.2428Y-3.7021
X4.2455Y-2.2012
X4.2486Y-3.3395
X4.2486Y-4.0442
X4.2489Y-3.7707
X4.2492Y-2.0
X4.25Y-1.15
X4.25Y-1.5
X4.25Y-1.775
X4.2508Y-7.025
X4.2514Y-2.3425
X4.2514Y-2.435
X4.2514Y-2.675
X4.2535Y-0.9236
X4.2659Y-2.5723
X4.2659Y-2.8223
X4.2663Y-3.8742
X4.275Y-0.45
X4.275Y-0.875
X4.275Y-1.05
X4.275Y-1.225
X4.275Y-1.4
X4.275Y-1.575
X4.275Y-2.5
X4.2753Y-0.6837
X4.2769Y-0.6279
X4.2803Y-3.1134
X4.2811Y-1.9227
X4.2834Y-3.2474
X4.2837Y-2.9007
X4.2875Y-4.2
X4.2875Y-5.25
X4.2875Y-5.95
X4.2899Y-4.9249
X4.29Y-3.3219
X4.29Y-3.425
X4.29Y-3.6
X4.29Y-3.7
X4.29Y-3.85
X4.29Y-4.3
X4.29Y-4.6518
X4.29Y-5.0
X4.29Y-5.35
X4.29Y-5.7
X4.29Y-6.05
X4.29Y-6.325
X4.29Y-6.4
X4.29Y-6.75
X4.29Y-7.0951
X4.29Y-7.4451
X4.29Y-7.7201
X4.29Y-7.8
X4.29Y-8.15
X4.29Y-8.425
X4.2906Y-3.3514
X4.2953Y-4.5469
X4.2953Y-6.6469
X4.2953Y-7.342
X4.2953Y-8.0469
X4.2986Y-5.6249
X4.3Y-2.0996
X4.3003Y-1.4285
X4.3014Y-2.95
X4.3102Y-2.0459
X4.3159Y-4.7509
X4.3159Y-5.4509
X4.3159Y-6.1509
X4.3159Y-6.8509
X4.3159Y-7.5459
X4.3159Y-8.2509
X4.3222Y-2.434
X4.3246Y-9.086
X4.325Y-1.325
X4.325Y-1.7134
X4.325Y-10.3
X4.3253Y-9.6861
X4.3264Y-2.72
X4.3398Y-1.0188
X4.3405Y-2.499
X4.3487Y-3.0347
X4.35Y-8.925
X4.35Y-9.525
X4.35Y-10.125
X4.3559Y-3.6663
X4.3598Y-4.0254
X4.3612Y-3.1409
X4.3639Y-1.8965
X4.3646Y-5.9775
X4.3647Y-6.6087
X4.3647Y-7.3037
X4.3647Y-8.0087
X4.365Y-3.3512
X4.365Y-3.7136
X4.365Y-4.1715
X4.365Y-4.9
X4.365Y-5.2775
X4.365Y-6.3
X4.365Y-6.45
X4.365Y-6.675
X4.365Y-7.0
X4.365Y-7.1451
X4.365Y-7.3701
X4.365Y-7.6951
X4.365Y-7.85
X4.365Y-8.075
X4.365Y-8.4
X4.3653Y-4.5932
X4.3685Y-0.6561
X4.3713Y-1.9742
X4.3736Y-2.7935
X4.375Y-0.8465
X4.375Y-2.3
X4.375Y-5.2125
X4.375Y-5.9125
X4.375Y-8.75
X4.375Y-9.35
X4.3756Y-1.1965
X4.3756Y-1.5465
X4.3776Y-4.075
X4.3837Y-2.0997
X4.3867Y-4.5087
X4.3875Y-3.1125
X4.3875Y-4.35
X4.3875Y-5.0375
X4.3875Y-5.575
X4.3875Y-5.75
X4.3894Y-3.475
X4.3913Y-2.8469
X4.3927Y-8.9225
X4.3939Y-9.5189
X4.3939Y-10.1189
X4.3956Y-3.347
X4.4Y-2.9502
X4.4Y-2.9
X4.4Y-3.975
X4.4Y-5.8
X4.4Y-9.9
X4.4008Y-1.8413
X4.4014Y-2.0
X4.4024Y-3.7587
X4.4065Y-2.5946
X4.4096Y-0.4278
X4.4118Y-0.7514
X4.4125Y-3.1696
X4.4125Y-5.4375
X4.4125Y-6.7875
X4.4132Y-1.7701
X4.4242Y-3.0324
X4.4242Y-4.275
X4.4245Y-3.6014
X4.4248Y-4.15
X4.425Y-2.9
X4.425Y-2.975
X4.4256Y-3.7146
X4.4292Y-5.276
X4.437Y-2.8667
X4.4375Y-3.425
X4.4385Y-3.0035
X4.4399Y-4.5736
X4.44Y-5.975
X4.44Y-6.675
X4.44Y-7.3701
X4.44Y-8.075
X4.4464Y-0.6148
X4.45Y-0.525
X4.45Y-0.875
X4.45Y-0.975
X4.45Y-1.05
X4.45Y-1.225
X4.45Y-1.4
X4.45Y-1.575
X4.45Y-1.75
X4.45Y-1.925
X4.45Y-2.2675
X4.45Y-2.625
X4.45Y-2.9
X4.4545Y-2.2
X4.4576Y-4.2051
X4.4625Y-2.7191
X4.4625Y-2.975
X4.4636Y-0.6837
X4.465Y-3.3264
X4.465Y-3.7018
X4.465Y-4.125
X4.465Y-4.3
X4.465Y-4.472
X4.465Y-4.65
X4.465Y-4.825
X4.465Y-5.0
X4.465Y-5.175
X4.465Y-5.35
X4.465Y-5.525
X4.465Y-5.7
X4.465Y-5.875
X4.465Y-6.05
X4.465Y-6.225
X4.465Y-6.4
X4.465Y-6.575
X4.465Y-6.75
X4.465Y-6.925
X4.465Y-7.0951
X4.465Y-7.2701
X4.465Y-7.4451
X4.465Y-7.6201
X4.465Y-7.8
X4.465Y-7.975
X4.465Y-8.15
X4.465Y-8.325
X4.4666Y-3.8518
X4.467Y-3.425
X4.4687Y-3.5014
X4.475Y-1.5
X4.475Y-2.025
X4.4764Y-5.2625
X4.4801Y-6.6468
X4.4801Y-7.3418
X4.4801Y-8.0468
X4.487Y-2.9697
X4.4895Y-2.409
X4.4956Y-3.129
X4.497Y-4.5087
X4.4984Y-3.1932
X4.4994Y-9.086
X4.4996Y-9.686
X4.5Y-0.45
X4.5Y-0.625
X4.5Y-0.825
X4.5Y-1.175
X4.5Y-2.0
X4.5Y-2.7715
X4.5Y-3.925
X4.5Y-4.775
X4.5Y-5.6
X4.5Y-10.3
X4.5125Y-5.9125
X4.525Y-3.0
X4.525Y-8.925
X4.525Y-9.525
X4.525Y-10.125
X4.5275Y-3.6524
X4.5363Y-6.4344
X4.5368Y-4.1644
X4.5371Y-3.4545
X4.54Y-4.575
X4.54Y-4.925
X4.54Y-5.275
X4.54Y-5.6309
X4.54Y-5.975
X4.54Y-6.325
X4.54Y-6.625
X4.54Y-6.675
X4.54Y-7.025
X4.54Y-7.1451
X4.54Y-7.3201
X4.54Y-7.3701
X4.54Y-7.7201
X4.54Y-7.85
X4.54Y-8.025
X4.54Y-8.075
X4.54Y-8.425
X4.54Y-3.6997
X4.5436Y-1.7112
X4.55Y-0.725
X4.55Y-1.0215
X4.55Y-2.075
X4.55Y-2.5986
X4.55Y-3.175
X4.55Y-5.2125
X4.55Y-5.925
X4.5506Y-1.5465
X4.5511Y-2.9429
X4.5514Y-3.8269
X4.5514Y-4.35
X4.5537Y-2.239
X4.5585Y-4.5261
X4.5625Y-5.05
X4.5625Y-5.75
X4.5644Y-3.3825
X4.5689Y-8.7564
X4.5689Y-8.9311
X4.5689Y-9.3436
X4.5689Y-9.5311
X4.5689Y-9.9311
X4.5689Y-10.1311
X4.5743Y-3.5587
X4.575Y-0.4
X4.575Y-0.925
X4.575Y-1.875
X4.575Y-2.0
X4.575Y-3.8
X4.575Y-4.9
X4.575Y-5.825
X4.575Y-1.65
X4.5758Y-1.15
X4.5758Y-5.175
X4.5758Y-5.8625
X4.5758Y-7.2625
X4.5832Y-1.8466
X4.5875Y-6.575
X4.5875Y-7.975
X4.5939Y-4.5837
X4.5986Y-2.75
X4.5986Y-3.8833
X4.5991Y-1.8986
X4.5992Y-1.7
X4.5997Y-2.4785
X4.6Y-0.35
X4.6Y-2.275
X4.6Y-4.025
X4.6Y-5.1
X4.6Y-5.4375
X4.6125Y-8.4125
X4.6139Y-7.7942
X4.6163Y-2.9747
X4.6247Y-0.9753
X4.6248Y-2.6232
X4.6248Y-3.1514
X4.625Y-0.45
X4.625Y-0.7
X4.625Y-0.875
X4.625Y-1.05
X4.625Y-1.225
X4.625Y-1.575
X4.625Y-1.925
X4.625Y-2.45
X4.625Y-2.7955
X4.625Y-2.825
X4.625Y-2.9
X4.625Y-5.0
X4.625Y-5.7
X4.625Y-6.4
X4.625Y-6.7
X4.625Y-7.1
X4.625Y-7.375
X4.625Y-9.0
X4.625Y-9.1375
X4.6288Y-3.4258
X4.632Y-3.3251
X4.6375Y-8.825
X4.6375Y-9.425
X4.6375Y-9.6
X4.6375Y-9.75
X4.6375Y-10.025
X4.6375Y-10.2
X4.6593Y-8.5462
X4.6605Y-6.4837
X4.6625Y-1.05
X4.6665Y-2.3069
X4.6666Y-2.7236
X4.6708Y-3.7333
X4.671Y-1.7061
X4.6731Y-3.0611
X4.6736Y-3.7986
X4.675Y-1.9535
X4.675Y-2.05
X4.675Y-3.35
X4.675Y-5.8
X4.675Y-5.8375
X4.675Y-6.3125
X4.675Y-8.65
X4.6801Y-6.5425
X4.6808Y-0.6176
X4.7Y-1.05
X4.7Y-3.675
X4.7087Y-5.7708
X4.711Y-3.1166
X4.7125Y-8.55
X4.7125Y-9.9375
X4.7243Y-2.4206
X4.7245Y-0.8454
X4.7247Y-2.9488
X4.725Y-1.975
X4.725Y-3.1986
X4.725Y-3.825
X4.725Y-6.7
X4.725Y-8.75
X4.725Y-8.875
X4.725Y-9.05
X4.725Y-9.3125
X4.725Y-9.475
X4.725Y-9.65
X4.725Y-10.075
X4.725Y-10.25
X4.7253Y-2.5986
X4.7256Y-1.1965
X4.7256Y-1.5465
X4.7264Y-1.3715
X4.7264Y-7.1817
X4.7269Y-2.7841
X4.7307Y-2.2465
X4.7375Y-3.3875
X4.7375Y-8.45
X4.7378Y-2.6911
X4.7416Y-1.85
X4.7427Y-4.2352
X4.75Y-0.375
X4.75Y-1.8986
X4.75Y-2.475
X4.75Y-5.4
X4.75Y-6.7875
X4.75Y-7.375
X4.7565Y-3.3118
X4.7625Y-8.6
X4.7654Y-1.7346
X4.7684Y-7.8858
X4.7699Y-0.8892
X4.7723Y-3.4261
X4.7738Y-3.1736
X4.7738Y-3.5346
X4.7742Y-2.7841
X4.7742Y-3.2729
X4.7742Y-2.175
X4.7742Y-2.5875
X4.775Y-1.85
X4.775Y-4.5625
X4.775Y-4.6125
X4.775Y-9.75
X4.7913Y-0.5573
X4.793Y-2.728
X4.7999Y-0.8738
X4.8Y-0.7
X4.8Y-1.575
X4.8Y-1.925
X4.8Y-2.1
X4.8Y-2.45
X4.8Y-3.6
X4.8Y-8.4125
X4.8025Y-2.2675
X4.803Y-0.9031
X4.8037Y-1.225
X4.8057Y-5.6146
X4.8067Y-3.5279
X4.8084Y-3.6745
X4.8118Y-3.3283
X4.8125Y-2.9
X4.8125Y-3.1264
X4.8125Y-3.95
X4.8125Y-6.3125
X4.8125Y-6.8375
X4.8125Y-7.0
X4.8125Y-7.7125
X4.8129Y-2.6028
X4.815Y-4.0389
X4.815Y-4.126
X4.815Y-4.3
X4.815Y-4.55
X4.815Y-4.65
X4.815Y-4.825
X4.815Y-5.0
X4.815Y-5.25
X4.815Y-5.35
X4.815Y-5.525
X4.815Y-5.7
X4.815Y-5.95
X4.815Y-6.05
X4.815Y-6.225
X4.815Y-6.4
X4.815Y-6.75
X4.815Y-6.925
X4.815Y-7.1
X4.815Y-7.35
X4.815Y-7.45
X4.815Y-7.625
X4.815Y-7.8
X4.815Y-8.05
X4.815Y-8.15
X4.815Y-8.325
X4.8154Y-6.6456
X4.816Y-4.2244
X4.825Y-0.45
X4.825Y-0.975
X4.825Y-1.325
X4.825Y-2.65
X4.825Y-3.775
X4.8365Y-0.8785
X4.8375Y-4.9125
X4.8375Y-7.8875
X4.8375Y-8.4125
X4.8375Y-9.7875
X4.8418Y-6.4918
X4.8418Y-7.1832
X4.8486Y-3.2486
X4.85Y-0.65
X4.85Y-1.65
X4.85Y-2.375
X4.85Y-3.15
X4.85Y-4.8625
X4.8616Y-3.3075
X4.8625Y-3.4982
X4.8625Y-4.3913
X4.8625Y-9.225
X4.875Y-8.45
X4.8823Y-2.1591
X4.8829Y-3.1509
X4.89Y-4.575
X4.89Y-5.275
X4.89Y-5.975
X4.89Y-6.675
X4.89Y-7.375
X4.89Y-8.075
X4.8925Y-3.8241
X4.895Y-1.7061
X4.897Y-3.6476
X4.9Y-0.5
X4.9Y-1.0205
X4.9Y-1.05
X4.9Y-2.0725
X4.9Y-3.175
X4.9Y-3.3625
X4.9004Y-3.4913
X4.9006Y-1.1965
X4.9006Y-1.5465
X4.9009Y-0.8455
X4.9014Y-1.384
X4.911Y-1.8177
X4.9125Y-4.1587
X4.9137Y-4.5523
X4.9139Y-5.25
X4.9146Y-5.95
X4.9146Y-6.65
X4.9146Y-7.35
X4.9146Y-8.05
X4.9245Y-2.645
X4.925Y-0.6
X4.925Y-0.6715
X4.925Y-2.35
X4.925Y-2.7625
X4.925Y-4.0
X4.925Y-4.525
X4.9256Y-2.4639
X4.9258Y-2.7099
X4.9271Y-1.6737
X4.929Y-3.6839
X4.9314Y-3.4186
X4.9356Y-3.949
X4.9375Y-2.85
X4.9375Y-3.05
X4.9375Y-4.8625
X4.9418Y-3.0168
X4.942Y-3.9002
X4.9486Y-2.7354
X4.9486Y-4.35
X4.9492Y-0.775
X4.95Y-0.9035
X4.95Y-4.225
X4.95Y-4.825
X4.95Y-8.925
X4.9584Y-6.4689
X4.9694Y-3.322
X4.9728Y-1.2205
X4.975Y-2.6232
X4.975Y-0.7
X4.975Y-0.8
X4.975Y-0.875
X4.975Y-1.4
X4.975Y-1.575
X4.975Y-1.675
X4.975Y-2.8285
X4.975Y-8.725
X4.975Y-9.0965
X4.9756Y-0.4503
X4.9775Y-2.2675
X4.9787Y-2.9022
X4.9795Y-3.6021
X4.9821Y-2.728
X4.985Y-3.7333
X4.9875Y-3.175
X4.9875Y-8.65
X4.9881Y-2.5466
X4.9898Y-4.6502
X4.9898Y-5.3502
X4.9898Y-6.0502
X4.9898Y-6.7502
X4.9898Y-7.4502
X4.9898Y-8.1502
X4.99Y-3.95
X4.99Y-4.05
X4.99Y-4.3
X4.99Y-4.475
X4.99Y-4.575
X4.99Y-4.825
X4.99Y-5.0
X4.99Y-5.175
X4.99Y-5.275
X4.99Y-5.525
X4.99Y-5.7
X4.99Y-5.875
X4.99Y-5.975
X4.99Y-6.225
X4.99Y-6.4
X4.99Y-6.575
X4.99Y-6.675
X4.99Y-6.925
X4.99Y-7.1
X4.99Y-7.275
X4.99Y-7.375
X4.99Y-7.625
X4.99Y-7.8
X4.99Y-7.975
X4.99Y-8.075
X4.99Y-8.325
X4.9918Y-4.1306
X4.9983Y-3.2486
X5.0Y-0.625
X5.0Y-1.075
X5.0Y-1.15
X5.0Y-1.925
X5.0Y-2.025
X5.0125Y-9.6625
X5.015Y-4.725
X5.015Y-5.425
X5.015Y-6.125
X5.015Y-6.825
X5.015Y-7.525
X5.015Y-8.225
X5.0188Y-2.3454
X5.0197Y-3.0793
X5.022Y-1.7246
X5.0227Y-3.9111
X5.025Y-0.975
X5.025Y-1.825
X5.025Y-2.725
X5.025Y-2.7736
X5.025Y-3.15
X5.025Y-3.4982
X5.0434Y-2.6348
X5.05Y-4.225
X5.0641Y-2.4186
X5.0641Y-4.5769
X5.065Y-5.2455
X5.065Y-5.275
X5.065Y-5.9455
X5.065Y-5.975
X5.065Y-6.45
X5.065Y-6.6455
X5.065Y-6.675
X5.065Y-7.15
X5.065Y-7.3455
X5.065Y-7.375
X5.065Y-7.85
X5.065Y-8.0455
X5.065Y-8.075
X5.075Y-0.5535
X5.075Y-0.8465
X5.075Y-1.1825
X5.075Y-1.275
X5.075Y-1.5465
X5.075Y-2.2465
X5.075Y-2.7625
X5.075Y-2.9409
X5.075Y-3.2
X5.075Y-5.05
X5.0758Y-3.9978
X5.0764Y-4.55
X5.0825Y-2.5913
X5.0855Y-1.7729
X5.0868Y-4.3514
X5.0875Y-5.75
X5.088Y-3.3906
X5.088Y-3.4879
X5.1Y-1.625
X5.1Y-1.7375
X5.1Y-2.1
X5.1Y-4.45
X5.1008Y-0.8
X5.1012Y-4.025
X5.1014Y-0.6715
X5.1125Y-0.75
X5.1125Y-2.4875
X5.1125Y-6.325
X5.1125Y-7.75
X5.1125Y-7.9
X5.1125Y-8.4125
X5.1168Y-4.1613
X5.1204Y-3.8264
X5.1242Y-3.7337
X5.1242Y-1.4486
X5.1242Y-2.225
X5.125Y-4.925
X5.1475Y-3.1587
X5.1491Y-3.4969
X5.15Y-0.525
X5.15Y-0.8
X5.15Y-0.875
X5.15Y-1.575
X5.15Y-1.925
X5.15Y-2.275
X5.15Y-2.4518
X5.15Y-2.625
X5.15Y-2.8
X5.15Y-2.9
X5.15Y-3.425
X5.15Y-8.725
X5.1512Y-1.2413
X5.1527Y-3.2486
X5.153Y-0.7008
X5.1556Y-3.601
X5.1592Y-2.5389
X5.1615Y-4.0514
X5.1625Y-8.4125
X5.165Y-4.3
X5.165Y-4.55
X5.165Y-4.65
X5.165Y-4.825
X5.165Y-5.0
X5.165Y-5.25
X5.165Y-5.35
X5.165Y-5.525
X5.165Y-5.7
X5.165Y-5.95
X5.165Y-6.05
X5.165Y-6.225
X5.165Y-6.4
X5.165Y-6.65
X5.165Y-6.75
X5.165Y-6.925
X5.165Y-7.1
X5.165Y-7.35
X5.165Y-7.45
X5.165Y-7.625
X5.165Y-7.8
X5.165Y-8.05
X5.165Y-8.15
X5.165Y-8.325
X5.1689Y-3.2954
X5.175Y-1.675
X5.175Y-1.95
X5.175Y-2.3035
X5.175Y-3.075
X5.1875Y-4.45
X5.19Y-3.95
X5.19Y-4.75
X5.19Y-5.45
X5.19Y-6.15
X5.19Y-6.85
X5.19Y-7.55
X5.19Y-8.25
X5.1985Y-7.1986
X5.1987Y-3.9784
X5.1997Y-3.7159
X5.2Y-0.625
X5.2Y-1.025
X5.2Y-1.375
X5.2Y-2.05
X5.2Y-3.45
X5.2Y-3.6375
X5.2Y-4.2
X5.2Y-4.3875
X5.2Y-5.1375
X5.201Y-3.2014
X5.2125Y-5.8375
X5.2135Y-4.0551
X5.225Y-2.975
X5.225Y-9.125
X5.2325Y-3.0577
X5.24Y-4.3775
X5.24Y-4.575
X5.24Y-4.875
X5.24Y-5.275
X5.24Y-5.975
X5.24Y-6.275
X5.24Y-6.45
X5.24Y-6.625
X5.24Y-6.675
X5.24Y-6.975
X5.24Y-7.15
X5.24Y-7.325
X5.24Y-7.375
X5.24Y-7.675
X5.24Y-7.85
X5.24Y-8.025
X5.24Y-8.075
X5.24Y-8.375
X5.2449Y-4.0181
X5.2455Y-2.5881
X5.2468Y-2.4162
X5.25Y-0.8465
X5.25Y-1.0465
X5.25Y-1.2
X5.25Y-1.7215
X5.25Y-1.975
X5.25Y-2.2465
X5.25Y-2.9264
X5.25Y-3.675
X5.25Y-3.9125
X5.25Y-4.525
X5.25Y-5.05
X5.25Y-5.2375
X5.25Y-5.575
X5.25Y-5.9125
X5.25Y-8.925
X5.2503Y-2.7736
X5.2506Y-1.5465
X5.2512Y-3.5361
X5.2533Y-3.3409
X5.2625Y-5.75
X5.2638Y-1.275
X5.275Y-0.45
X5.275Y-0.575
X5.275Y-1.35
X5.275Y-1.9285
X5.2758Y-2.7272
X5.2758Y-2.55
X5.2758Y-3.075
X5.2875Y-3.8375
X5.2875Y-8.4125
X5.2993Y-3.1514
X5.3Y-0.6
X5.3Y-0.7264
X5.3Y-4.3875
X5.3035Y-1.7785
X5.3087Y-2.9028
X5.3091Y-2.7621
X5.3236Y-2.5977
X5.3241Y-2.4853
X5.325Y-0.45
X5.325Y-0.7
X5.325Y-0.875
X5.325Y-1.225
X5.325Y-1.575
X5.325Y-1.75
X5.325Y-1.85
X5.325Y-1.925
X5.325Y-2.1
X5.325Y-2.425
X5.325Y-3.425
X5.325Y-3.6
X5.325Y-8.4375
X5.325Y-8.725
X5.3251Y-2.7085
X5.3288Y-3.2509
X5.337Y-4.5498
X5.337Y-5.2498
X5.337Y-5.9498
X5.337Y-6.6498
X5.337Y-7.3498
X5.337Y-8.0498
X5.3375Y-3.1625
X5.3375Y-3.95
X5.3375Y-4.2
X5.3398Y-4.6502
X5.3398Y-5.3502
X5.3398Y-6.0502
X5.3398Y-6.7502
X5.3398Y-7.4502
X5.3398Y-8.1502
X5.34Y-4.3
X5.34Y-4.725
X5.34Y-4.825
X5.34Y-5.0
X5.34Y-5.425
X5.34Y-5.525
X5.34Y-5.7
X5.34Y-6.125
X5.34Y-6.225
X5.34Y-6.4
X5.34Y-6.825
X5.34Y-6.925
X5.34Y-7.1
X5.34Y-7.525
X5.34Y-7.625
X5.34Y-7.8
X5.34Y-8.225
X5.34Y-8.325
X5.3402Y-4.0409
X5.3425Y-3.6792
X5.3485Y-2.9649
X5.35Y-0.975
X5.35Y-1.15
X5.35Y-1.325
X5.35Y-2.025
X5.35Y-2.125
X5.35Y-9.55
X5.3552Y-2.5467
X5.3664Y-4.5516
X5.3664Y-5.2516
X5.3664Y-5.9516
X5.3664Y-6.6516
X5.3664Y-7.3516
X5.3664Y-8.0516
X5.372Y-4.68
X5.372Y-5.38
X5.372Y-6.08
X5.372Y-6.78
X5.372Y-7.48
X5.372Y-8.18
X5.375Y-0.625
X5.375Y-0.95
X5.375Y-1.05
X5.375Y-1.675
X5.3823Y-2.9473
X5.3899Y-3.2159
X5.4Y-2.125
X5.4Y-2.3625
X5.4047Y-2.6717
X5.4133Y-4.0532
X5.4138Y-3.1408
X5.4144Y-2.7917
X5.415Y-4.3775
X5.415Y-4.725
X5.415Y-5.425
X5.415Y-6.125
X5.415Y-6.275
X5.415Y-6.45
X5.415Y-6.825
X5.415Y-6.975
X5.415Y-7.15
X5.415Y-7.525
X5.415Y-7.675
X5.415Y-7.85
X5.415Y-8.225
X5.415Y-8.375
X5.4192Y-4.5792
X5.4192Y-5.2792
X5.4192Y-5.9792
X5.4192Y-6.6792
X5.4192Y-7.3792
X5.4192Y-8.0792
X5.425Y-0.8465
X5.425Y-1.375
X5.425Y-1.5465
X5.425Y-2.07
X5.425Y-2.175
X5.425Y-3.0
X5.425Y-3.2844
X5.425Y-5.05
X5.425Y-5.575
X5.425Y-9.0965
X5.4256Y-1.1965
X5.4275Y-2.6949
X5.4317Y-4.1813
X5.4337Y-1.7792
X5.4375Y-4.0125
X5.4375Y-4.8875
X5.4375Y-5.7625
X5.4392Y-3.8361
X5.4461Y-3.2065
X5.45Y-0.475
X5.45Y-0.6
X5.45Y-1.625
X5.45Y-4.6875
X5.45Y-7.2
X5.45Y-8.45
X5.4508Y-3.6
X5.4544Y-1.086
X5.4563Y-4.1649
X5.4622Y-2.5384
X5.465Y-1.125
X5.4734Y-3.2625
X5.4742Y-2.0
X5.475Y-1.25
X5.475Y-3.6909
X5.475Y-8.425
X5.4784Y-2.135
X5.4785Y-3.1706
X5.4788Y-1.0337
X5.4841Y-2.4785
X5.4854Y-2.9424
X5.49Y-5.0
X5.49Y-5.7
X5.4913Y-3.5592
X5.4913Y-4.2998
X5.4958Y-2.6208
X5.4986Y-6.4111
X5.4986Y-7.0974
X5.4986Y-7.7974
X5.5Y-0.525
X5.5Y-0.7
X5.5Y-0.875
X5.5Y-1.225
X5.5Y-1.4
X5.5Y-1.575
X5.5Y-1.75
X5.5Y-1.925
X5.5Y-2.2
X5.5Y-2.275
X5.5Y-3.8538
X5.5091Y-3.5086
X5.5125Y-4.2
X5.5148Y-4.4752
X5.5148Y-5.1752
X5.5148Y-5.8752
X5.5148Y-6.5752
X5.5148Y-7.2752
X5.5148Y-7.9752
X5.515Y-3.95
X5.515Y-4.125
X5.515Y-4.575
X5.515Y-4.65
X5.515Y-4.725
X5.515Y-4.9
X5.515Y-5.075
X5.515Y-5.275
X5.515Y-5.35
X5.515Y-5.425
X5.515Y-5.6
X5.515Y-5.775
X5.515Y-5.975
X5.515Y-6.05
X5.515Y-6.125
X5.515Y-6.3
X5.515Y-6.475
X5.515Y-6.675
X5.515Y-6.75
X5.515Y-6.825
X5.515Y-7.0
X5.515Y-7.175
X5.515Y-7.375
X5.515Y-7.45
X5.515Y-7.525
X5.515Y-7.7
X5.515Y-7.875
X5.515Y-8.075
X5.515Y-8.15
X5.515Y-8.225
X5.515Y-8.4
X5.5183Y-4.3886
X5.522Y-4.9917
X5.522Y-5.6917
X5.525Y-0.625
X5.5264Y-3.6496
X5.5264Y-2.8061
X5.5267Y-7.7882
X5.5268Y-3.3642
X5.535Y-2.0496
X5.5375Y-6.325
X5.5375Y-7.025
X5.5412Y-4.2912
X5.5468Y-2.1052
X5.5481Y-2.7413
X5.549Y-3.14
X5.55Y-0.975
X5.55Y-1.325
X5.55Y-1.475
X5.55Y-1.525
X5.55Y-2.075
X5.55Y-3.0
X5.55Y-3.075
X5.5514Y-2.4281
X5.5519Y-2.6486
X5.553Y-2.5561
X5.5552Y-3.6052
X5.575Y-3.775
X5.59Y-6.4535
X5.59Y-6.625
X5.59Y-7.1514
X5.59Y-7.325
X5.59Y-7.8535
X5.59Y-8.025
X5.5942Y-4.5542
X5.5942Y-5.2542
X5.5942Y-5.9542
X5.5942Y-6.6542
X5.5942Y-7.3542
X5.5942Y-8.0542
X5.5962Y-2.9491
X5.5995Y-0.8454
X5.6Y-0.5
X5.6Y-0.6715
X5.6Y-1.7785
X5.6Y-1.9
X5.6Y-2.1375
X5.6Y-2.2465
X5.6Y-4.0
X5.6Y-4.525
X5.6Y-5.0535
X5.6Y-5.225
X5.6Y-5.925
X5.6006Y-1.1965
X5.602Y-1.275
X5.6021Y-1.9813
X5.6052Y-2.5738
X5.6124Y-4.349
X5.6125Y-4.225
X5.6125Y-5.75
X5.6244Y-2.4459
X5.625Y-0.775
X5.625Y-0.95
X5.625Y-5.1
X5.625Y-6.3125
X5.6258Y-2.2125
X5.6258Y-4.3962
X5.6375Y-2.8
X5.6375Y-8.65
X5.6395Y-4.0288
X5.6443Y-4.1512
X5.6494Y-1.34
X5.65Y-1.25
X5.652Y-4.9486
X5.6612Y-2.9125
X5.6625Y-2.1
X5.6625Y-3.7209
X5.665Y-4.5371
X5.665Y-4.3
X5.665Y-6.4
X5.665Y-7.1
X5.665Y-7.8
X5.6661Y-3.1462
X5.6663Y-5.0
X5.6694Y-5.6986
X5.6733Y-3.8329
X5.6741Y-2.5384
X5.675Y-1.153
X5.675Y-1.575
X5.675Y-1.75
X5.675Y-1.925
X5.675Y-2.275
X5.675Y-2.375
X5.675Y-2.45
X5.675Y-2.625
X5.675Y-8.725
X5.675Y-9.325
X5.6787Y-0.525
X5.6787Y-0.7008
X5.6787Y-0.8758
X5.6787Y-0.975
X5.6791Y-1.2453
X5.6792Y-4.0392
X5.6871Y-1.3305
X5.6875Y-1.5
X5.6875Y-2.8125
X5.6875Y-4.5875
X5.6875Y-8.55
X5.6892Y-3.7109
X5.6898Y-4.6502
X5.6898Y-5.3502
X5.6898Y-6.0502
X5.6898Y-6.7502
X5.6898Y-7.4502
X5.6898Y-8.1502
X5.69Y-4.125
X5.69Y-4.375
X5.69Y-4.8285
X5.69Y-5.075
X5.69Y-5.25
X5.69Y-5.775
X5.69Y-5.95
X5.69Y-6.2285
X5.69Y-6.475
X5.69Y-6.65
X5.69Y-6.9285
X5.69Y-7.175
X5.69Y-7.35
X5.69Y-7.6285
X5.69Y-7.875
X5.69Y-8.05
X5.69Y-8.3285
X5.6946Y-3.625
X5.6946Y-3.6637
X5.697Y-4.2917
X5.697Y-7.0917
X5.697Y-7.7917
X5.6979Y-5.6909
X5.7Y-2.025
X5.7Y-3.425
X5.7Y-3.475
X5.7Y-3.525
X5.7Y-3.575
X5.7Y-5.525
X5.7Y-6.325
X5.7028Y-3.3846
X5.711Y-3.2684
X5.7126Y-3.7691
X5.7161Y-4.7489
X5.7161Y-5.4489
X5.7161Y-6.1489
X5.7161Y-6.8489
X5.7161Y-7.5489
X5.7161Y-8.2489
X5.725Y-0.6242
X5.725Y-0.6715
X5.725Y-1.0215
X5.725Y-1.475
X5.725Y-1.675
X5.725Y-2.8908
X5.725Y-3.0625
X5.7375Y-2.6746
X5.7421Y-2.7841
X5.75Y-1.7785
X5.75Y-3.8
X5.7628Y-4.0256
X5.7639Y-5.8
X5.7639Y-5.95
X5.765Y-4.4
X5.765Y-4.55
X5.765Y-4.9
X5.765Y-5.1
X5.765Y-5.25
X5.765Y-5.6
X5.765Y-6.5
X5.765Y-6.65
X5.765Y-7.0
X5.765Y-7.2
X5.765Y-7.35
X5.765Y-7.7
X5.765Y-7.9
X5.765Y-8.05
X5.765Y-8.4
X5.765Y-3.8925
X5.7683Y-6.2835
X5.7688Y-2.7702
X5.7693Y-2.9789
X5.7694Y-2.5988
X5.7702Y-3.9803
X5.7747Y-2.4215
X5.775Y-0.5
X5.775Y-0.8465
X5.775Y-1.2
X5.775Y-2.075
X5.775Y-2.2486
X5.775Y-3.475
X5.775Y-4.225
X5.775Y-6.3125
X5.7762Y-3.1288
X5.7771Y-2.5703
X5.7852Y-2.6814
X5.7894Y-4.1679
X5.796Y-2.8428
X5.8Y-0.75
X5.8Y-1.8764
X5.8Y-2.1
X5.8Y-3.4
X5.8003Y-1.4285
X5.8045Y-6.3125
X5.8125Y-2.325
X5.8125Y-8.6125
X5.8218Y-3.025
X5.8238Y-1.108
X5.825Y-1.9535
X5.825Y-2.175
X5.825Y-3.2
X5.8252Y-1.0785
X5.8253Y-8.7535
X5.8277Y-1.5715
X5.8278Y-2.9778
X5.8388Y-2.8119
X5.8413Y-3.8338
X5.85Y-0.5215
X5.85Y-0.625
X5.85Y-0.7
X5.85Y-0.8
X5.85Y-0.875
X5.85Y-1.5
X5.85Y-1.75
X5.85Y-1.925
X5.85Y-2.275
X5.85Y-2.45
X5.85Y-3.425
X5.85Y-8.725
X5.8526Y-1.2207
X5.8533Y-3.0676
X5.8625Y-3.8
X5.8625Y-7.7125
X5.8645Y-2.6486
X5.865Y-3.95
X5.865Y-4.05
X5.865Y-4.1285
X5.865Y-4.3
X5.865Y-4.4732
X5.865Y-4.5861
X5.865Y-4.65
X5.865Y-4.825
X5.865Y-5.0
X5.865Y-5.175
X5.865Y-5.275
X5.865Y-5.35
X5.865Y-5.525
X5.865Y-5.7
X5.865Y-5.875
X5.865Y-5.975
X5.865Y-6.05
X5.865Y-6.225
X5.865Y-6.4
X5.865Y-6.675
X5.865Y-6.75
X5.865Y-6.925
X5.865Y-7.1
X5.865Y-7.275
X5.865Y-7.375
X5.865Y-7.45
X5.865Y-7.625
X5.865Y-7.8
X5.865Y-7.975
X5.865Y-8.075
X5.865Y-8.15
X5.865Y-8.325
X5.8736Y-2.9244
X5.874Y-3.4794
X5.875Y-0.975
X5.875Y-2.55
X5.875Y-2.8
X5.8891Y-3.454
X5.897Y-4.35
X5.897Y-6.45
X5.897Y-7.15
X5.897Y-7.85
X5.9Y-0.425
X5.9Y-1.325
X5.9Y-1.375
X5.9Y-1.65
X5.9Y-1.6795
X5.9Y-2.05
X5.9Y-2.1
X5.9Y-2.425
X5.9Y-2.7
X5.9Y-3.2538
X5.9Y-3.625
X5.9Y-3.875
X5.9Y-5.0375
X5.9Y-5.1375
X5.9Y-5.725
X5.9Y-6.375
X5.9Y-6.5875
X5.9042Y-3.0592
X5.9125Y-4.4375
X5.9125Y-5.8375
X5.9125Y-7.2375
X5.9182Y-2.8505
X5.9249Y-3.0874
X5.925Y-1.7785
X5.925Y-3.6639
X5.925Y-5.6125
X5.9259Y-3.3468
X5.9393Y-5.0992
X5.9395Y-4.5526
X5.94Y-4.0236
X5.94Y-5.2545
X5.94Y-5.8
X5.94Y-5.9545
X5.94Y-6.5
X5.94Y-6.625
X5.94Y-6.6545
X5.94Y-7.2
X5.94Y-7.325
X5.94Y-7.3545
X5.94Y-7.9
X5.94Y-8.025
X5.94Y-8.0545
X5.9409Y-3.025
X5.9461Y-3.108
X5.95Y-0.8465
X5.95Y-1.0215
X5.95Y-1.975
X5.95Y-2.3375
X5.95Y-3.8375
X5.95Y-4.525
X5.95Y-5.225
X5.95Y-5.925
X5.95Y-8.6236
X5.9514Y-4.8482
X5.9514Y-5.5626
X5.9514Y-6.2636
X5.9514Y-6.9774
X5.9514Y-7.6529
X5.9519Y-1.1921
X5.9535Y-4.3951
X5.9646Y-4.5762
X5.965Y-8.375
X5.975Y-0.5
X5.975Y-0.6715
X5.975Y-1.2492
X5.975Y-1.8986
X5.975Y-1.9557
X5.975Y-2.6285
X5.975Y-2.6581
X5.975Y-3.8125
X5.975Y-4.725
X5.975Y-7.125
X5.975Y-7.725
X5.9766Y-2.1712
X5.9958Y-3.2458
X5.9986Y-6.3122
X5.9992Y-2.339
X5.9992Y-0.5785
X5.9992Y-1.125
X6.0Y-1.425
X6.0Y-9.1375
X6.0028Y-2.793
X6.0163Y-5.9498
X6.0163Y-6.6498
X6.0165Y-2.9111
X6.0236Y-4.5485
X6.0236Y-7.3466
X6.0236Y-8.05
X6.0246Y-3.9823
X6.025Y-0.525
X6.025Y-0.7
X6.025Y-0.875
X6.025Y-1.05
X6.025Y-1.15
X6.025Y-1.225
X6.025Y-1.575
X6.025Y-1.675
X6.025Y-1.75
X6.025Y-1.925
X6.025Y-2.275
X6.025Y-2.625
X6.025Y-3.3764
X6.025Y-3.825
X6.025Y-8.725
X6.025Y-9.85
X6.0262Y-5.2557
X6.0264Y-3.6639
X6.0346Y-4.1298
X6.0375Y-4.225
X6.0375Y-7.725
X6.039Y-5.5976
X6.04Y-4.3
X6.04Y-4.4
X6.04Y-4.65
X6.04Y-4.9
X6.04Y-5.0
X6.04Y-5.1
X6.04Y-5.35
X6.04Y-5.7
X6.04Y-5.8
X6.04Y-6.05
X6.04Y-6.4
X6.04Y-6.5
X6.04Y-6.75
X6.04Y-7.0
X6.04Y-7.1
X6.04Y-7.2
X6.04Y-7.45
X6.04Y-7.8
X6.04Y-7.9
X6.04Y-8.15
X6.04Y-8.4
X6.0404Y-7.6956
X6.0453Y-5.9555
X6.0453Y-6.6555
X6.05Y-1.4125
X6.05Y-2.025
X6.05Y-5.625
X6.05Y-9.125
X6.0509Y-7.3578
X6.0517Y-4.5576
X6.0522Y-8.0574
X6.0609Y-3.9356
X6.0625Y-4.925
X6.0625Y-5.2625
X6.0625Y-6.3
X6.0669Y-2.7633
X6.0706Y-2.3272
X6.0736Y-3.1236
X6.0747Y-2.4215
X6.075Y-0.425
X6.075Y-0.975
X6.075Y-3.075
X6.075Y-3.25
X6.075Y-3.45
X6.075Y-4.075
X6.075Y-8.625
X6.0786Y-3.9625
X6.0875Y-3.825
X6.1Y-8.7535
X6.1087Y-2.2577
X6.115Y-6.45
X6.115Y-7.15
X6.115Y-7.85
X6.1158Y-4.5789
X6.1158Y-5.2789
X6.1158Y-5.9789
X6.1158Y-6.6789
X6.1158Y-7.3789
X6.1158Y-8.0789
X6.1163Y-2.9645
X6.1188Y-4.0337
X6.1213Y-3.6477
X6.1226Y-2.8284
X6.1248Y-2.5953
X6.125Y-0.8465
X6.125Y-1.375
X6.125Y-1.7785
X6.125Y-2.075
X6.125Y-3.2
X6.125Y-3.9043
X6.125Y-5.05
X6.1256Y-1.1965
X6.1264Y-3.158
X6.1288Y-3.4758
X6.1302Y-1.5287
X6.1373Y-3.4411
X6.1375Y-3.525
X6.1375Y-5.75
X6.1389Y-6.3067
X6.1438Y-3.6732
X6.1465Y-3.3986
X6.1498Y-1.633
X6.15Y-2.3272
X6.15Y-3.575
X6.15Y-4.225
X6.15Y-4.35
X6.15Y-4.4
X6.15Y-4.725
X6.15Y-6.3375
X6.15Y-9.55
X6.1511Y-1.6035
X6.1514Y-2.3571
X6.1514Y-5.0942
X6.1559Y-2.252
X6.1667Y-2.6783
X6.1728Y-2.8639
X6.1736Y-2.4829
X6.1736Y-3.0059
X6.1742Y-1.875
X6.1742Y-2.15
X6.175Y-2.65
X6.1785Y-3.7201
X6.1958Y-1.9222
X6.2Y-0.875
X6.2Y-1.15
X6.2Y-1.225
X6.2Y-1.575
X6.2Y-2.8
X6.2038Y-3.1508
X6.2043Y-3.8591
X6.2045Y-2.4455
X6.2063Y-2.2757
X6.2074Y-2.614
X6.2106Y-5.2606
X6.2125Y-4.2
X6.2125Y-4.5625
X6.2149Y-4.9249
X6.2149Y-7.0249
X6.215Y-4.05
X6.215Y-4.3
X6.215Y-4.65
X6.215Y-5.0
X6.215Y-5.35
X6.215Y-5.625
X6.215Y-5.7
X6.215Y-6.05
X6.215Y-6.325
X6.215Y-6.4
X6.215Y-6.75
X6.215Y-7.1
X6.215Y-7.45
X6.215Y-7.725
X6.215Y-7.8
X6.215Y-8.15
X6.215Y-8.425
X6.2203Y-6.6469
X6.2203Y-7.3469
X6.2203Y-8.0469
X6.2222Y-2.1281
X6.225Y-2.3035
X6.225Y-2.9111
X6.225Y-5.9625
X6.2258Y-3.7712
X6.2409Y-4.7736
X6.2409Y-5.4509
X6.2409Y-6.1509
X6.2409Y-6.8509
X6.2409Y-7.5509
X6.2409Y-8.2509
X6.2416Y-0.8084
X6.25Y-1.0215
X6.25Y-1.2955
X6.25Y-1.325
X6.25Y-1.3813
X6.25Y-1.825
X6.25Y-1.9
X6.25Y-2.4625
X6.25Y-3.225
X6.2502Y-1.7038
X6.2625Y-3.525
X6.275Y-3.1785
X6.275Y-4.0375
X6.2758Y-1.7649
X6.2831Y-3.7
X6.2858Y-4.8958
X6.2875Y-4.375
X6.2889Y-4.1715
X6.2896Y-4.5771
X6.2896Y-5.9771
X6.2897Y-6.6087
X6.2897Y-7.3087
X6.2897Y-8.0087
X6.29Y-5.6
X6.29Y-6.3
X6.29Y-6.45
X6.29Y-6.675
X6.29Y-7.0
X6.29Y-7.15
X6.29Y-7.375
X6.29Y-7.7
X6.29Y-7.85
X6.29Y-8.075
X6.29Y-8.4
X6.2963Y-3.1215
X6.2963Y-1.1972
X6.2997Y-2.4215
X6.3Y-0.8465
X6.3Y-1.375
X6.3Y-1.5465
X6.3Y-1.975
X6.3Y-2.2264
X6.3Y-2.7715
X6.3Y-2.95
X6.3Y-4.0
X6.3Y-5.05
X6.3Y-5.2875
X6.3Y-10.2
X6.301Y-2.5929
X6.3089Y-5.2125
X6.3103Y-3.7981
X6.3125Y-4.5125
X6.3125Y-5.75
X6.3125Y-5.9125
X6.325Y-4.75
X6.325Y-4.925
X6.3264Y-1.2838
X6.3315Y-1.4477
X6.3375Y-8.6
X6.3492Y-1.525
X6.3492Y-4.425
X6.35Y-1.3375
X6.35Y-4.225
X6.3506Y-1.6035
X6.3514Y-3.2101
X6.365Y-4.575
X6.365Y-5.275
X6.365Y-5.975
X6.365Y-6.675
X6.365Y-7.375
X6.365Y-8.075
X6.375Y-0.875
X6.375Y-0.975
X6.375Y-1.225
X6.375Y-1.4
X6.375Y-1.5
X6.375Y-1.575
X6.375Y-1.75
X6.375Y-1.925
X6.375Y-2.1
X6.375Y-2.275
X6.375Y-2.45
X6.375Y-2.625
X6.375Y-2.8
X6.375Y-2.875
X6.375Y-9.675
X6.3753Y-3.7875
X6.3861Y-1.0535
X6.3875Y-4.2
X6.39Y-3.95
X6.39Y-4.125
X6.39Y-4.3
X6.39Y-4.475
X6.39Y-4.65
X6.39Y-4.825
X6.39Y-5.0
X6.39Y-5.175
X6.39Y-5.35
X6.39Y-5.525
X6.39Y-5.7
X6.39Y-5.875
X6.39Y-6.05
X6.39Y-6.225
X6.39Y-6.4
X6.39Y-6.575
X6.39Y-6.75
X6.39Y-6.925
X6.39Y-7.1
X6.39Y-7.275
X6.39Y-7.45
X6.39Y-7.625
X6.39Y-7.8
X6.39Y-7.975
X6.39Y-8.15
X6.39Y-8.325
X6.3986Y-3.5563
X6.4Y-1.3343
X6.4Y-2.025
X6.4Y-2.55
X6.4Y-2.8285
X6.4Y-3.475
X6.4051Y-6.6468
X6.4051Y-7.3468
X6.4051Y-8.0468
X6.422Y-1.9839
X6.425Y-2.3
X6.425Y-2.6375
X6.425Y-3.65
X6.425Y-4.1
X6.425Y-4.225
X6.425Y-4.55
X6.425Y-5.2125
X6.425Y-5.9125
X6.4337Y-3.4119
X6.4389Y-2.85
X6.4625Y-3.8125
X6.465Y-4.925
X6.465Y-5.225
X6.465Y-5.275
X6.465Y-5.625
X6.465Y-5.975
X6.465Y-6.325
X6.465Y-6.45
X6.465Y-6.625
X6.465Y-6.675
X6.465Y-7.025
X6.465Y-7.15
X6.465Y-7.325
X6.465Y-7.375
X6.465Y-7.725
X6.465Y-7.85
X6.465Y-8.025
X6.465Y-8.075
X6.465Y-8.425
X6.468Y-4.578
X6.4689Y-1.0215
X6.4695Y-1.7215
X6.4731Y-4.3435
X6.475Y-0.85
X6.475Y-1.2063
X6.475Y-1.2875
X6.475Y-1.55
X6.475Y-2.075
X6.475Y-2.125
X6.475Y-3.75
X6.475Y-4.375
X6.475Y-5.05
X6.475Y-5.925
X6.4764Y-1.8875
X6.4764Y-1.9823
X6.4764Y-2.2667
X6.4875Y-4.525
X6.4875Y-5.75
X6.5Y-0.5
X6.5Y-3.0875
X6.5Y-3.1125
X6.5Y-3.1375
X6.5Y-3.7875
X6.5Y-3.8125
X6.5Y-3.8375
X6.5Y-4.075
X6.5Y-4.1625
X6.5Y-4.1875
X6.5Y-4.425
X6.5Y-4.45
X6.5Y-4.75
X6.5Y-4.775
X6.5Y-4.8
X6.5Y-5.1
X6.5Y-5.125
X6.5Y-5.15
X6.5Y-5.45
X6.5Y-5.475
X6.5Y-5.5
X6.5Y-5.8
X6.5Y-5.825
X6.5Y-5.85
X6.5Y-6.15
X6.5Y-6.175
X6.5Y-6.2
X6.5Y-6.4875
X6.5Y-6.5125
X6.5Y-6.5375
X6.5Y-6.85
X6.5Y-6.875
X6.5Y-6.9
X6.5Y-7.2
X6.5Y-7.225
X6.5Y-7.25
X6.5Y-7.5625
X6.5Y-7.5875
X6.5Y-7.925
X6.5Y-7.95
X6.5Y-8.275
X6.5Y-8.3
X6.5Y-8.6625
X6.5Y-8.6875
X6.5Y-8.7125
X6.5008Y-7.6125
X6.5008Y-7.975
X6.5008Y-8.325
X6.5045Y-4.4
X6.5375Y-0.9125
X6.5375Y-0.95
X6.5375Y-0.9875
X6.5375Y-1.3125
X6.5375Y-1.35
X6.5375Y-1.3875
X6.5375Y-1.675
X6.5375Y-1.7125
X6.5375Y-1.75
X6.5375Y-2.1125
X6.5375Y-2.3375
X6.5375Y-2.375
X6.5375Y-2.4125
X6.5375Y-2.675
X6.5375Y-2.7125
X6.5375Y-2.7625
X6.5375Y-9.4125
T2
X0.8Y-0.025
X0.8Y-0.075
X0.8Y-0.125
X0.975Y-0.025
X0.975Y-0.075
X0.975Y-0.125
X1.4608Y-9.5392
X5.65Y-9.6625
X5.8375Y-9.6625
T3
X0.7805Y-10.15
X0.8082Y-10.0832
X0.8082Y-10.2168
X0.875Y-10.0555
X0.875Y-10.2445
X0.9418Y-10.0832
X0.9418Y-10.2168
X0.9695Y-10.15
X6.2805Y-0.05
X6.3082Y0.0168
X6.3082Y-0.1168
X6.375Y0.0445
X6.375Y-0.1445
X6.4418Y0.0168
X6.4418Y-0.1168
X6.4695Y-0.05
T4
X5.049Y-9.4
X5.049Y-9.4984
X5.049Y-9.5969
X5.175Y-9.4
X5.175Y-9.4984
X5.175Y-9.5969
X5.874Y-9.4
X5.874Y-9.4984
X5.874Y-9.5969
X6.0Y-9.4
X6.0Y-9.4984
X6.0Y-9.5969
T5
X1.875Y-0.275
X1.975Y-0.275
X2.075Y-0.275
X2.175Y-0.275
X2.275Y-0.275
X2.375Y-0.275
X2.475Y-0.275
X2.575Y-0.275
X2.675Y-0.275
X2.775Y-0.275
X2.975Y-0.275
X3.075Y-0.275
X3.175Y-0.275
X3.275Y-0.275
X3.375Y-0.275
X3.475Y-0.275
X3.575Y-0.275
X3.675Y-0.275
X3.775Y-0.275
X3.875Y-0.275
X4.075Y-0.275
X4.175Y-0.275
X4.275Y-0.275
X4.375Y-0.275
X4.475Y-0.275
X4.575Y-0.275
X4.675Y-0.275
X4.775Y-0.275
X4.875Y-0.275
X4.975Y-0.275
X5.175Y-0.275
X5.275Y-0.275
X5.375Y-0.275
X5.475Y-0.275
X5.575Y-0.275
X5.675Y-0.275
X5.775Y-0.275
X5.875Y-0.275
X5.975Y-0.275
X6.075Y-0.275
T6
X1.14Y-9.225
X1.14Y-9.4022
X1.14Y-9.6
X1.14Y-9.7772
X1.14Y-9.975
X1.14Y-10.1522
X1.3959Y-9.225
X1.3959Y-9.4022
X1.3959Y-9.6
X1.3959Y-9.7772
X1.3959Y-9.975
X1.3959Y-10.1522
X1.565Y-9.225
X1.565Y-9.4022
X1.565Y-9.6
X1.565Y-9.7772
X1.565Y-9.975
X1.565Y-10.1522
X1.8209Y-9.225
X1.8209Y-9.4022
X1.8209Y-9.6
X1.8209Y-9.7772
X1.8209Y-9.975
X1.8209Y-10.1522
X1.99Y-9.225
X1.99Y-9.4022
X1.99Y-9.6
X1.99Y-9.7772
X1.99Y-9.975
X1.99Y-10.1522
X2.2459Y-9.225
X2.2459Y-9.4022
X2.2459Y-9.6
X2.2459Y-9.7772
X2.2459Y-9.975
X2.2459Y-10.1522
X5.85Y-9.9441
X5.85Y-10.2
X6.0272Y-9.9441
X6.0272Y-10.2
T7
X0.875Y-10.15
X6.375Y-0.05
T5
G00X1.0388Y-0.4356
M15
G01X1.0388Y-0.5144
M16
G05
G00X1.1175Y-0.66
M15
G01X1.1963Y-0.66
M16
G05
G00X1.275Y-0.4356
M15
G01X1.275Y-0.5144
M16
G05
T0
M30
