G04 #@! TF.GenerationSoftware,KiCad,Pcbnew,(5.1.5)-3*
G04 #@! TF.CreationDate,2020-02-26T16:32:23+01:00*
G04 #@! TF.ProjectId,Testingboard,54657374-696e-4676-926f-6172642e6b69,rev?*
G04 #@! TF.SameCoordinates,Original*
G04 #@! TF.FileFunction,Legend,Top*
G04 #@! TF.FilePolarity,Positive*
%FSLAX46Y46*%
G04 Gerber Fmt 4.6, Leading zero omitted, Abs format (unit mm)*
G04 Created by KiCad (PCBNEW (5.1.5)-3) date 2020-02-26 16:32:23*
%MOMM*%
%LPD*%
G04 APERTURE LIST*
%ADD10C,0.300000*%
%ADD11C,0.120000*%
%ADD12C,0.100000*%
%ADD13C,0.150000*%
G04 APERTURE END LIST*
D10*
X131387500Y-83474642D02*
X131601785Y-83546071D01*
X131958928Y-83546071D01*
X132101785Y-83474642D01*
X132173214Y-83403214D01*
X132244642Y-83260357D01*
X132244642Y-83117500D01*
X132173214Y-82974642D01*
X132101785Y-82903214D01*
X131958928Y-82831785D01*
X131673214Y-82760357D01*
X131530357Y-82688928D01*
X131458928Y-82617500D01*
X131387500Y-82474642D01*
X131387500Y-82331785D01*
X131458928Y-82188928D01*
X131530357Y-82117500D01*
X131673214Y-82046071D01*
X132030357Y-82046071D01*
X132244642Y-82117500D01*
X133744642Y-83403214D02*
X133673214Y-83474642D01*
X133458928Y-83546071D01*
X133316071Y-83546071D01*
X133101785Y-83474642D01*
X132958928Y-83331785D01*
X132887500Y-83188928D01*
X132816071Y-82903214D01*
X132816071Y-82688928D01*
X132887500Y-82403214D01*
X132958928Y-82260357D01*
X133101785Y-82117500D01*
X133316071Y-82046071D01*
X133458928Y-82046071D01*
X133673214Y-82117500D01*
X133744642Y-82188928D01*
X134387500Y-83546071D02*
X134387500Y-82046071D01*
X134387500Y-82760357D02*
X135244642Y-82760357D01*
X135244642Y-83546071D02*
X135244642Y-82046071D01*
X135958928Y-83546071D02*
X135958928Y-82046071D01*
X137387500Y-83546071D02*
X136673214Y-83546071D01*
X136673214Y-82046071D01*
X137887500Y-83546071D02*
X137887500Y-82046071D01*
X138744642Y-83546071D02*
X138101785Y-82688928D01*
X138744642Y-82046071D02*
X137887500Y-82903214D01*
X139387500Y-82974642D02*
X140530357Y-82974642D01*
X141030357Y-82046071D02*
X141887500Y-82046071D01*
X141458928Y-83546071D02*
X141458928Y-82046071D01*
X142958928Y-83474642D02*
X142816071Y-83546071D01*
X142530357Y-83546071D01*
X142387500Y-83474642D01*
X142316071Y-83331785D01*
X142316071Y-82760357D01*
X142387500Y-82617500D01*
X142530357Y-82546071D01*
X142816071Y-82546071D01*
X142958928Y-82617500D01*
X143030357Y-82760357D01*
X143030357Y-82903214D01*
X142316071Y-83046071D01*
X143601785Y-83474642D02*
X143744642Y-83546071D01*
X144030357Y-83546071D01*
X144173214Y-83474642D01*
X144244642Y-83331785D01*
X144244642Y-83260357D01*
X144173214Y-83117500D01*
X144030357Y-83046071D01*
X143816071Y-83046071D01*
X143673214Y-82974642D01*
X143601785Y-82831785D01*
X143601785Y-82760357D01*
X143673214Y-82617500D01*
X143816071Y-82546071D01*
X144030357Y-82546071D01*
X144173214Y-82617500D01*
X144673214Y-82546071D02*
X145244642Y-82546071D01*
X144887500Y-82046071D02*
X144887500Y-83331785D01*
X144958928Y-83474642D01*
X145101785Y-83546071D01*
X145244642Y-83546071D01*
X145744642Y-83546071D02*
X145744642Y-82546071D01*
X145744642Y-82046071D02*
X145673214Y-82117500D01*
X145744642Y-82188928D01*
X145816071Y-82117500D01*
X145744642Y-82046071D01*
X145744642Y-82188928D01*
X146458928Y-82546071D02*
X146458928Y-83546071D01*
X146458928Y-82688928D02*
X146530357Y-82617500D01*
X146673214Y-82546071D01*
X146887500Y-82546071D01*
X147030357Y-82617500D01*
X147101785Y-82760357D01*
X147101785Y-83546071D01*
X148458928Y-82546071D02*
X148458928Y-83760357D01*
X148387500Y-83903214D01*
X148316071Y-83974642D01*
X148173214Y-84046071D01*
X147958928Y-84046071D01*
X147816071Y-83974642D01*
X148458928Y-83474642D02*
X148316071Y-83546071D01*
X148030357Y-83546071D01*
X147887500Y-83474642D01*
X147816071Y-83403214D01*
X147744642Y-83260357D01*
X147744642Y-82831785D01*
X147816071Y-82688928D01*
X147887500Y-82617500D01*
X148030357Y-82546071D01*
X148316071Y-82546071D01*
X148458928Y-82617500D01*
X149673214Y-82760357D02*
X149887500Y-82831785D01*
X149958928Y-82903214D01*
X150030357Y-83046071D01*
X150030357Y-83260357D01*
X149958928Y-83403214D01*
X149887500Y-83474642D01*
X149744642Y-83546071D01*
X149173214Y-83546071D01*
X149173214Y-82046071D01*
X149673214Y-82046071D01*
X149816071Y-82117500D01*
X149887500Y-82188928D01*
X149958928Y-82331785D01*
X149958928Y-82474642D01*
X149887500Y-82617500D01*
X149816071Y-82688928D01*
X149673214Y-82760357D01*
X149173214Y-82760357D01*
X150887500Y-83546071D02*
X150744642Y-83474642D01*
X150673214Y-83403214D01*
X150601785Y-83260357D01*
X150601785Y-82831785D01*
X150673214Y-82688928D01*
X150744642Y-82617500D01*
X150887500Y-82546071D01*
X151101785Y-82546071D01*
X151244642Y-82617500D01*
X151316071Y-82688928D01*
X151387500Y-82831785D01*
X151387500Y-83260357D01*
X151316071Y-83403214D01*
X151244642Y-83474642D01*
X151101785Y-83546071D01*
X150887500Y-83546071D01*
X152673214Y-83546071D02*
X152673214Y-82760357D01*
X152601785Y-82617500D01*
X152458928Y-82546071D01*
X152173214Y-82546071D01*
X152030357Y-82617500D01*
X152673214Y-83474642D02*
X152530357Y-83546071D01*
X152173214Y-83546071D01*
X152030357Y-83474642D01*
X151958928Y-83331785D01*
X151958928Y-83188928D01*
X152030357Y-83046071D01*
X152173214Y-82974642D01*
X152530357Y-82974642D01*
X152673214Y-82903214D01*
X153387500Y-83546071D02*
X153387500Y-82546071D01*
X153387500Y-82831785D02*
X153458928Y-82688928D01*
X153530357Y-82617500D01*
X153673214Y-82546071D01*
X153816071Y-82546071D01*
X154958928Y-83546071D02*
X154958928Y-82046071D01*
X154958928Y-83474642D02*
X154816071Y-83546071D01*
X154530357Y-83546071D01*
X154387500Y-83474642D01*
X154316071Y-83403214D01*
X154244642Y-83260357D01*
X154244642Y-82831785D01*
X154316071Y-82688928D01*
X154387500Y-82617500D01*
X154530357Y-82546071D01*
X154816071Y-82546071D01*
X154958928Y-82617500D01*
X156816071Y-82974642D02*
X157958928Y-82974642D01*
X159673214Y-82546071D02*
X160030357Y-83546071D01*
X160387500Y-82546071D01*
X161244642Y-82046071D02*
X161387500Y-82046071D01*
X161530357Y-82117500D01*
X161601785Y-82188928D01*
X161673214Y-82331785D01*
X161744642Y-82617500D01*
X161744642Y-82974642D01*
X161673214Y-83260357D01*
X161601785Y-83403214D01*
X161530357Y-83474642D01*
X161387500Y-83546071D01*
X161244642Y-83546071D01*
X161101785Y-83474642D01*
X161030357Y-83403214D01*
X160958928Y-83260357D01*
X160887500Y-82974642D01*
X160887500Y-82617500D01*
X160958928Y-82331785D01*
X161030357Y-82188928D01*
X161101785Y-82117500D01*
X161244642Y-82046071D01*
X162387500Y-83403214D02*
X162458928Y-83474642D01*
X162387500Y-83546071D01*
X162316071Y-83474642D01*
X162387500Y-83403214D01*
X162387500Y-83546071D01*
X163887500Y-83546071D02*
X163030357Y-83546071D01*
X163458928Y-83546071D02*
X163458928Y-82046071D01*
X163316071Y-82260357D01*
X163173214Y-82403214D01*
X163030357Y-82474642D01*
D11*
X186690000Y-84455000D02*
X88265000Y-84455000D01*
X90170000Y-84455000D02*
X186690000Y-84455000D01*
D10*
X145990714Y-56558571D02*
X145990714Y-55058571D01*
X146847857Y-56558571D01*
X146847857Y-55058571D01*
X147847857Y-55058571D02*
X148133571Y-55058571D01*
X148276428Y-55130000D01*
X148419285Y-55272857D01*
X148490714Y-55558571D01*
X148490714Y-56058571D01*
X148419285Y-56344285D01*
X148276428Y-56487142D01*
X148133571Y-56558571D01*
X147847857Y-56558571D01*
X147705000Y-56487142D01*
X147562142Y-56344285D01*
X147490714Y-56058571D01*
X147490714Y-55558571D01*
X147562142Y-55272857D01*
X147705000Y-55130000D01*
X147847857Y-55058571D01*
X149990714Y-56558571D02*
X149490714Y-55844285D01*
X149133571Y-56558571D02*
X149133571Y-55058571D01*
X149705000Y-55058571D01*
X149847857Y-55130000D01*
X149919285Y-55201428D01*
X149990714Y-55344285D01*
X149990714Y-55558571D01*
X149919285Y-55701428D01*
X149847857Y-55772857D01*
X149705000Y-55844285D01*
X149133571Y-55844285D01*
X134552857Y-69893571D02*
X134552857Y-68393571D01*
X135410000Y-69893571D01*
X135410000Y-68393571D01*
X136052857Y-69465000D02*
X136767142Y-69465000D01*
X135910000Y-69893571D02*
X136410000Y-68393571D01*
X136910000Y-69893571D01*
X137410000Y-69893571D02*
X137410000Y-68393571D01*
X138267142Y-69893571D01*
X138267142Y-68393571D01*
X138981428Y-69893571D02*
X138981428Y-68393571D01*
X139338571Y-68393571D01*
X139552857Y-68465000D01*
X139695714Y-68607857D01*
X139767142Y-68750714D01*
X139838571Y-69036428D01*
X139838571Y-69250714D01*
X139767142Y-69536428D01*
X139695714Y-69679285D01*
X139552857Y-69822142D01*
X139338571Y-69893571D01*
X138981428Y-69893571D01*
X134739285Y-57193571D02*
X134739285Y-55693571D01*
X135596428Y-57193571D01*
X135596428Y-55693571D01*
X136596428Y-55693571D02*
X136882142Y-55693571D01*
X137025000Y-55765000D01*
X137167857Y-55907857D01*
X137239285Y-56193571D01*
X137239285Y-56693571D01*
X137167857Y-56979285D01*
X137025000Y-57122142D01*
X136882142Y-57193571D01*
X136596428Y-57193571D01*
X136453571Y-57122142D01*
X136310714Y-56979285D01*
X136239285Y-56693571D01*
X136239285Y-56193571D01*
X136310714Y-55907857D01*
X136453571Y-55765000D01*
X136596428Y-55693571D01*
X137667857Y-55693571D02*
X138525000Y-55693571D01*
X138096428Y-57193571D02*
X138096428Y-55693571D01*
X116883571Y-66135000D02*
X115383571Y-66135000D01*
X116455000Y-65635000D01*
X115383571Y-65135000D01*
X116883571Y-65135000D01*
X115383571Y-64420714D02*
X116597857Y-64420714D01*
X116740714Y-64349285D01*
X116812142Y-64277857D01*
X116883571Y-64135000D01*
X116883571Y-63849285D01*
X116812142Y-63706428D01*
X116740714Y-63635000D01*
X116597857Y-63563571D01*
X115383571Y-63563571D01*
X115383571Y-62992142D02*
X116883571Y-61992142D01*
X115383571Y-61992142D02*
X116883571Y-62992142D01*
X102278571Y-66107142D02*
X100778571Y-66107142D01*
X102278571Y-65250000D01*
X100778571Y-65250000D01*
X101850000Y-64607142D02*
X101850000Y-63892857D01*
X102278571Y-64750000D02*
X100778571Y-64250000D01*
X102278571Y-63750000D01*
X102278571Y-63250000D02*
X100778571Y-63250000D01*
X102278571Y-62392857D01*
X100778571Y-62392857D01*
X102278571Y-61678571D02*
X100778571Y-61678571D01*
X100778571Y-61321428D01*
X100850000Y-61107142D01*
X100992857Y-60964285D01*
X101135714Y-60892857D01*
X101421428Y-60821428D01*
X101635714Y-60821428D01*
X101921428Y-60892857D01*
X102064285Y-60964285D01*
X102207142Y-61107142D01*
X102278571Y-61321428D01*
X102278571Y-61678571D01*
X97095714Y-70528571D02*
X97095714Y-69028571D01*
X97952857Y-70528571D01*
X97952857Y-69028571D01*
X98952857Y-69028571D02*
X99238571Y-69028571D01*
X99381428Y-69100000D01*
X99524285Y-69242857D01*
X99595714Y-69528571D01*
X99595714Y-70028571D01*
X99524285Y-70314285D01*
X99381428Y-70457142D01*
X99238571Y-70528571D01*
X98952857Y-70528571D01*
X98810000Y-70457142D01*
X98667142Y-70314285D01*
X98595714Y-70028571D01*
X98595714Y-69528571D01*
X98667142Y-69242857D01*
X98810000Y-69100000D01*
X98952857Y-69028571D01*
X101095714Y-70528571D02*
X100595714Y-69814285D01*
X100238571Y-70528571D02*
X100238571Y-69028571D01*
X100810000Y-69028571D01*
X100952857Y-69100000D01*
X101024285Y-69171428D01*
X101095714Y-69314285D01*
X101095714Y-69528571D01*
X101024285Y-69671428D01*
X100952857Y-69742857D01*
X100810000Y-69814285D01*
X100238571Y-69814285D01*
D11*
X97627221Y-115445000D02*
X97952779Y-115445000D01*
X97627221Y-114425000D02*
X97952779Y-114425000D01*
X117947221Y-114425000D02*
X118272779Y-114425000D01*
X117947221Y-115445000D02*
X118272779Y-115445000D01*
X136997221Y-115445000D02*
X137322779Y-115445000D01*
X136997221Y-114425000D02*
X137322779Y-114425000D01*
X157317221Y-114425000D02*
X157642779Y-114425000D01*
X157317221Y-115445000D02*
X157642779Y-115445000D01*
X176684721Y-115445000D02*
X177010279Y-115445000D01*
X176684721Y-114425000D02*
X177010279Y-114425000D01*
X176684721Y-99502500D02*
X177010279Y-99502500D01*
X176684721Y-100522500D02*
X177010279Y-100522500D01*
X156999721Y-100522500D02*
X157325279Y-100522500D01*
X156999721Y-99502500D02*
X157325279Y-99502500D01*
X137314721Y-99502500D02*
X137640279Y-99502500D01*
X137314721Y-100522500D02*
X137640279Y-100522500D01*
X117629721Y-100522500D02*
X117955279Y-100522500D01*
X117629721Y-99502500D02*
X117955279Y-99502500D01*
X97944721Y-99502500D02*
X98270279Y-99502500D01*
X97944721Y-100522500D02*
X98270279Y-100522500D01*
X169865000Y-114048500D02*
X171765000Y-114048500D01*
X171765000Y-114048500D02*
X171765000Y-115948500D01*
X171765000Y-115948500D02*
X169865000Y-115948500D01*
X169865000Y-115948500D02*
X169865000Y-114048500D01*
X176847500Y-129085000D02*
X179232500Y-129085000D01*
X179232500Y-129085000D02*
X179232500Y-128805000D01*
X176847500Y-129085000D02*
X174462500Y-129085000D01*
X174462500Y-129085000D02*
X174462500Y-128805000D01*
X176847500Y-118565000D02*
X179232500Y-118565000D01*
X179232500Y-118565000D02*
X179232500Y-118845000D01*
X176847500Y-118565000D02*
X174462500Y-118565000D01*
X174462500Y-118565000D02*
X174462500Y-118845000D01*
X174462500Y-118845000D02*
X172797500Y-118845000D01*
X181930000Y-129288500D02*
X183830000Y-129288500D01*
X183830000Y-129288500D02*
X183830000Y-131188500D01*
X183830000Y-131188500D02*
X181930000Y-131188500D01*
X181930000Y-131188500D02*
X181930000Y-129288500D01*
X181930000Y-116588500D02*
X183830000Y-116588500D01*
X183830000Y-116588500D02*
X183830000Y-118488500D01*
X183830000Y-118488500D02*
X181930000Y-118488500D01*
X181930000Y-118488500D02*
X181930000Y-116588500D01*
X169865000Y-119128500D02*
X171765000Y-119128500D01*
X171765000Y-119128500D02*
X171765000Y-121028500D01*
X171765000Y-121028500D02*
X169865000Y-121028500D01*
X169865000Y-121028500D02*
X169865000Y-119128500D01*
X181930000Y-124208500D02*
X183830000Y-124208500D01*
X183830000Y-124208500D02*
X183830000Y-126108500D01*
X183830000Y-126108500D02*
X181930000Y-126108500D01*
X181930000Y-126108500D02*
X181930000Y-124208500D01*
X169865000Y-131188500D02*
X169865000Y-129288500D01*
X171765000Y-131188500D02*
X169865000Y-131188500D01*
X171765000Y-129288500D02*
X171765000Y-131188500D01*
X169865000Y-129288500D02*
X171765000Y-129288500D01*
X181930000Y-128648500D02*
X181930000Y-126748500D01*
X183830000Y-128648500D02*
X181930000Y-128648500D01*
X183830000Y-126748500D02*
X183830000Y-128648500D01*
X181930000Y-126748500D02*
X183830000Y-126748500D01*
X155095000Y-118845000D02*
X153430000Y-118845000D01*
X155095000Y-118565000D02*
X155095000Y-118845000D01*
X157480000Y-118565000D02*
X155095000Y-118565000D01*
X159865000Y-118565000D02*
X159865000Y-118845000D01*
X157480000Y-118565000D02*
X159865000Y-118565000D01*
X155095000Y-129085000D02*
X155095000Y-128805000D01*
X157480000Y-129085000D02*
X155095000Y-129085000D01*
X159865000Y-129085000D02*
X159865000Y-128805000D01*
X157480000Y-129085000D02*
X159865000Y-129085000D01*
X181930000Y-121028500D02*
X181930000Y-119128500D01*
X183830000Y-121028500D02*
X181930000Y-121028500D01*
X183830000Y-119128500D02*
X183830000Y-121028500D01*
X181930000Y-119128500D02*
X183830000Y-119128500D01*
X169865000Y-123568500D02*
X169865000Y-121668500D01*
X171765000Y-123568500D02*
X169865000Y-123568500D01*
X171765000Y-121668500D02*
X171765000Y-123568500D01*
X169865000Y-121668500D02*
X171765000Y-121668500D01*
X169865000Y-118488500D02*
X169865000Y-116588500D01*
X171765000Y-118488500D02*
X169865000Y-118488500D01*
X171765000Y-116588500D02*
X171765000Y-118488500D01*
X169865000Y-116588500D02*
X171765000Y-116588500D01*
X169865000Y-131828500D02*
X171765000Y-131828500D01*
X171765000Y-131828500D02*
X171765000Y-133728500D01*
X171765000Y-133728500D02*
X169865000Y-133728500D01*
X169865000Y-133728500D02*
X169865000Y-131828500D01*
X181930000Y-115948500D02*
X181930000Y-114048500D01*
X183830000Y-115948500D02*
X181930000Y-115948500D01*
X183830000Y-114048500D02*
X183830000Y-115948500D01*
X181930000Y-114048500D02*
X183830000Y-114048500D01*
X169865000Y-126748500D02*
X171765000Y-126748500D01*
X171765000Y-126748500D02*
X171765000Y-128648500D01*
X171765000Y-128648500D02*
X169865000Y-128648500D01*
X169865000Y-128648500D02*
X169865000Y-126748500D01*
X181930000Y-121668500D02*
X183830000Y-121668500D01*
X183830000Y-121668500D02*
X183830000Y-123568500D01*
X183830000Y-123568500D02*
X181930000Y-123568500D01*
X181930000Y-123568500D02*
X181930000Y-121668500D01*
X181930000Y-133728500D02*
X181930000Y-131828500D01*
X183830000Y-133728500D02*
X181930000Y-133728500D01*
X183830000Y-131828500D02*
X183830000Y-133728500D01*
X181930000Y-131828500D02*
X183830000Y-131828500D01*
X169865000Y-126108500D02*
X169865000Y-124208500D01*
X171765000Y-126108500D02*
X169865000Y-126108500D01*
X171765000Y-124208500D02*
X171765000Y-126108500D01*
X169865000Y-124208500D02*
X171765000Y-124208500D01*
X150497500Y-121028500D02*
X150497500Y-119128500D01*
X152397500Y-121028500D02*
X150497500Y-121028500D01*
X152397500Y-119128500D02*
X152397500Y-121028500D01*
X150497500Y-119128500D02*
X152397500Y-119128500D01*
X150497500Y-129288500D02*
X152397500Y-129288500D01*
X152397500Y-129288500D02*
X152397500Y-131188500D01*
X152397500Y-131188500D02*
X150497500Y-131188500D01*
X150497500Y-131188500D02*
X150497500Y-129288500D01*
X150497500Y-115948500D02*
X150497500Y-114048500D01*
X152397500Y-115948500D02*
X150497500Y-115948500D01*
X152397500Y-114048500D02*
X152397500Y-115948500D01*
X150497500Y-114048500D02*
X152397500Y-114048500D01*
X162562500Y-123568500D02*
X162562500Y-121668500D01*
X164462500Y-123568500D02*
X162562500Y-123568500D01*
X164462500Y-121668500D02*
X164462500Y-123568500D01*
X162562500Y-121668500D02*
X164462500Y-121668500D01*
X162562500Y-119128500D02*
X164462500Y-119128500D01*
X164462500Y-119128500D02*
X164462500Y-121028500D01*
X164462500Y-121028500D02*
X162562500Y-121028500D01*
X162562500Y-121028500D02*
X162562500Y-119128500D01*
X162562500Y-131188500D02*
X162562500Y-129288500D01*
X164462500Y-131188500D02*
X162562500Y-131188500D01*
X164462500Y-129288500D02*
X164462500Y-131188500D01*
X162562500Y-129288500D02*
X164462500Y-129288500D01*
X162562500Y-114048500D02*
X164462500Y-114048500D01*
X164462500Y-114048500D02*
X164462500Y-115948500D01*
X164462500Y-115948500D02*
X162562500Y-115948500D01*
X162562500Y-115948500D02*
X162562500Y-114048500D01*
X162562500Y-118488500D02*
X162562500Y-116588500D01*
X164462500Y-118488500D02*
X162562500Y-118488500D01*
X164462500Y-116588500D02*
X164462500Y-118488500D01*
X162562500Y-116588500D02*
X164462500Y-116588500D01*
X150497500Y-116588500D02*
X152397500Y-116588500D01*
X152397500Y-116588500D02*
X152397500Y-118488500D01*
X152397500Y-118488500D02*
X150497500Y-118488500D01*
X150497500Y-118488500D02*
X150497500Y-116588500D01*
X150497500Y-124208500D02*
X152397500Y-124208500D01*
X152397500Y-124208500D02*
X152397500Y-126108500D01*
X152397500Y-126108500D02*
X150497500Y-126108500D01*
X150497500Y-126108500D02*
X150497500Y-124208500D01*
X162562500Y-126748500D02*
X164462500Y-126748500D01*
X164462500Y-126748500D02*
X164462500Y-128648500D01*
X164462500Y-128648500D02*
X162562500Y-128648500D01*
X162562500Y-128648500D02*
X162562500Y-126748500D01*
X150497500Y-121668500D02*
X152397500Y-121668500D01*
X152397500Y-121668500D02*
X152397500Y-123568500D01*
X152397500Y-123568500D02*
X150497500Y-123568500D01*
X150497500Y-123568500D02*
X150497500Y-121668500D01*
X150497500Y-133728500D02*
X150497500Y-131828500D01*
X152397500Y-133728500D02*
X150497500Y-133728500D01*
X152397500Y-131828500D02*
X152397500Y-133728500D01*
X150497500Y-131828500D02*
X152397500Y-131828500D01*
X162562500Y-131828500D02*
X164462500Y-131828500D01*
X164462500Y-131828500D02*
X164462500Y-133728500D01*
X164462500Y-133728500D02*
X162562500Y-133728500D01*
X162562500Y-133728500D02*
X162562500Y-131828500D01*
X162562500Y-126108500D02*
X162562500Y-124208500D01*
X164462500Y-126108500D02*
X162562500Y-126108500D01*
X164462500Y-124208500D02*
X164462500Y-126108500D01*
X162562500Y-124208500D02*
X164462500Y-124208500D01*
X150497500Y-128648500D02*
X150497500Y-126748500D01*
X152397500Y-128648500D02*
X150497500Y-128648500D01*
X152397500Y-126748500D02*
X152397500Y-128648500D01*
X150497500Y-126748500D02*
X152397500Y-126748500D01*
X134775000Y-118845000D02*
X133110000Y-118845000D01*
X134775000Y-118565000D02*
X134775000Y-118845000D01*
X137160000Y-118565000D02*
X134775000Y-118565000D01*
X139545000Y-118565000D02*
X139545000Y-118845000D01*
X137160000Y-118565000D02*
X139545000Y-118565000D01*
X134775000Y-129085000D02*
X134775000Y-128805000D01*
X137160000Y-129085000D02*
X134775000Y-129085000D01*
X139545000Y-129085000D02*
X139545000Y-128805000D01*
X137160000Y-129085000D02*
X139545000Y-129085000D01*
X130177500Y-121028500D02*
X130177500Y-119128500D01*
X132077500Y-121028500D02*
X130177500Y-121028500D01*
X132077500Y-119128500D02*
X132077500Y-121028500D01*
X130177500Y-119128500D02*
X132077500Y-119128500D01*
X130177500Y-129288500D02*
X132077500Y-129288500D01*
X132077500Y-129288500D02*
X132077500Y-131188500D01*
X132077500Y-131188500D02*
X130177500Y-131188500D01*
X130177500Y-131188500D02*
X130177500Y-129288500D01*
X130177500Y-115948500D02*
X130177500Y-114048500D01*
X132077500Y-115948500D02*
X130177500Y-115948500D01*
X132077500Y-114048500D02*
X132077500Y-115948500D01*
X130177500Y-114048500D02*
X132077500Y-114048500D01*
X142242500Y-123568500D02*
X142242500Y-121668500D01*
X144142500Y-123568500D02*
X142242500Y-123568500D01*
X144142500Y-121668500D02*
X144142500Y-123568500D01*
X142242500Y-121668500D02*
X144142500Y-121668500D01*
X142242500Y-119128500D02*
X144142500Y-119128500D01*
X144142500Y-119128500D02*
X144142500Y-121028500D01*
X144142500Y-121028500D02*
X142242500Y-121028500D01*
X142242500Y-121028500D02*
X142242500Y-119128500D01*
X142242500Y-131188500D02*
X142242500Y-129288500D01*
X144142500Y-131188500D02*
X142242500Y-131188500D01*
X144142500Y-129288500D02*
X144142500Y-131188500D01*
X142242500Y-129288500D02*
X144142500Y-129288500D01*
X142242500Y-114048500D02*
X144142500Y-114048500D01*
X144142500Y-114048500D02*
X144142500Y-115948500D01*
X144142500Y-115948500D02*
X142242500Y-115948500D01*
X142242500Y-115948500D02*
X142242500Y-114048500D01*
X142242500Y-118488500D02*
X142242500Y-116588500D01*
X144142500Y-118488500D02*
X142242500Y-118488500D01*
X144142500Y-116588500D02*
X144142500Y-118488500D01*
X142242500Y-116588500D02*
X144142500Y-116588500D01*
X130177500Y-116588500D02*
X132077500Y-116588500D01*
X132077500Y-116588500D02*
X132077500Y-118488500D01*
X132077500Y-118488500D02*
X130177500Y-118488500D01*
X130177500Y-118488500D02*
X130177500Y-116588500D01*
X130177500Y-124208500D02*
X132077500Y-124208500D01*
X132077500Y-124208500D02*
X132077500Y-126108500D01*
X132077500Y-126108500D02*
X130177500Y-126108500D01*
X130177500Y-126108500D02*
X130177500Y-124208500D01*
X142242500Y-126748500D02*
X144142500Y-126748500D01*
X144142500Y-126748500D02*
X144142500Y-128648500D01*
X144142500Y-128648500D02*
X142242500Y-128648500D01*
X142242500Y-128648500D02*
X142242500Y-126748500D01*
X130177500Y-121668500D02*
X132077500Y-121668500D01*
X132077500Y-121668500D02*
X132077500Y-123568500D01*
X132077500Y-123568500D02*
X130177500Y-123568500D01*
X130177500Y-123568500D02*
X130177500Y-121668500D01*
X130177500Y-133728500D02*
X130177500Y-131828500D01*
X132077500Y-133728500D02*
X130177500Y-133728500D01*
X132077500Y-131828500D02*
X132077500Y-133728500D01*
X130177500Y-131828500D02*
X132077500Y-131828500D01*
X142242500Y-131828500D02*
X144142500Y-131828500D01*
X144142500Y-131828500D02*
X144142500Y-133728500D01*
X144142500Y-133728500D02*
X142242500Y-133728500D01*
X142242500Y-133728500D02*
X142242500Y-131828500D01*
X142242500Y-126108500D02*
X142242500Y-124208500D01*
X144142500Y-126108500D02*
X142242500Y-126108500D01*
X144142500Y-124208500D02*
X144142500Y-126108500D01*
X142242500Y-124208500D02*
X144142500Y-124208500D01*
X130177500Y-128648500D02*
X130177500Y-126748500D01*
X132077500Y-128648500D02*
X130177500Y-128648500D01*
X132077500Y-126748500D02*
X132077500Y-128648500D01*
X130177500Y-126748500D02*
X132077500Y-126748500D01*
X117792500Y-129085000D02*
X120177500Y-129085000D01*
X120177500Y-129085000D02*
X120177500Y-128805000D01*
X117792500Y-129085000D02*
X115407500Y-129085000D01*
X115407500Y-129085000D02*
X115407500Y-128805000D01*
X117792500Y-118565000D02*
X120177500Y-118565000D01*
X120177500Y-118565000D02*
X120177500Y-118845000D01*
X117792500Y-118565000D02*
X115407500Y-118565000D01*
X115407500Y-118565000D02*
X115407500Y-118845000D01*
X115407500Y-118845000D02*
X113742500Y-118845000D01*
X110810000Y-119128500D02*
X112710000Y-119128500D01*
X112710000Y-119128500D02*
X112710000Y-121028500D01*
X112710000Y-121028500D02*
X110810000Y-121028500D01*
X110810000Y-121028500D02*
X110810000Y-119128500D01*
X110810000Y-131188500D02*
X110810000Y-129288500D01*
X112710000Y-131188500D02*
X110810000Y-131188500D01*
X112710000Y-129288500D02*
X112710000Y-131188500D01*
X110810000Y-129288500D02*
X112710000Y-129288500D01*
X110810000Y-126748500D02*
X112710000Y-126748500D01*
X112710000Y-126748500D02*
X112710000Y-128648500D01*
X112710000Y-128648500D02*
X110810000Y-128648500D01*
X110810000Y-128648500D02*
X110810000Y-126748500D01*
X122875000Y-121668500D02*
X124775000Y-121668500D01*
X124775000Y-121668500D02*
X124775000Y-123568500D01*
X124775000Y-123568500D02*
X122875000Y-123568500D01*
X122875000Y-123568500D02*
X122875000Y-121668500D01*
X110810000Y-118488500D02*
X110810000Y-116588500D01*
X112710000Y-118488500D02*
X110810000Y-118488500D01*
X112710000Y-116588500D02*
X112710000Y-118488500D01*
X110810000Y-116588500D02*
X112710000Y-116588500D01*
X122875000Y-121028500D02*
X122875000Y-119128500D01*
X124775000Y-121028500D02*
X122875000Y-121028500D01*
X124775000Y-119128500D02*
X124775000Y-121028500D01*
X122875000Y-119128500D02*
X124775000Y-119128500D01*
X110810000Y-126108500D02*
X110810000Y-124208500D01*
X112710000Y-126108500D02*
X110810000Y-126108500D01*
X112710000Y-124208500D02*
X112710000Y-126108500D01*
X110810000Y-124208500D02*
X112710000Y-124208500D01*
X110810000Y-131828500D02*
X112710000Y-131828500D01*
X112710000Y-131828500D02*
X112710000Y-133728500D01*
X112710000Y-133728500D02*
X110810000Y-133728500D01*
X110810000Y-133728500D02*
X110810000Y-131828500D01*
X122875000Y-129288500D02*
X124775000Y-129288500D01*
X124775000Y-129288500D02*
X124775000Y-131188500D01*
X124775000Y-131188500D02*
X122875000Y-131188500D01*
X122875000Y-131188500D02*
X122875000Y-129288500D01*
X122875000Y-128648500D02*
X122875000Y-126748500D01*
X124775000Y-128648500D02*
X122875000Y-128648500D01*
X124775000Y-126748500D02*
X124775000Y-128648500D01*
X122875000Y-126748500D02*
X124775000Y-126748500D01*
X122875000Y-116588500D02*
X124775000Y-116588500D01*
X124775000Y-116588500D02*
X124775000Y-118488500D01*
X124775000Y-118488500D02*
X122875000Y-118488500D01*
X122875000Y-118488500D02*
X122875000Y-116588500D01*
X122875000Y-124208500D02*
X124775000Y-124208500D01*
X124775000Y-124208500D02*
X124775000Y-126108500D01*
X124775000Y-126108500D02*
X122875000Y-126108500D01*
X122875000Y-126108500D02*
X122875000Y-124208500D01*
X122875000Y-115948500D02*
X122875000Y-114048500D01*
X124775000Y-115948500D02*
X122875000Y-115948500D01*
X124775000Y-114048500D02*
X124775000Y-115948500D01*
X122875000Y-114048500D02*
X124775000Y-114048500D01*
X122875000Y-133728500D02*
X122875000Y-131828500D01*
X124775000Y-133728500D02*
X122875000Y-133728500D01*
X124775000Y-131828500D02*
X124775000Y-133728500D01*
X122875000Y-131828500D02*
X124775000Y-131828500D01*
X110810000Y-114048500D02*
X112710000Y-114048500D01*
X112710000Y-114048500D02*
X112710000Y-115948500D01*
X112710000Y-115948500D02*
X110810000Y-115948500D01*
X110810000Y-115948500D02*
X110810000Y-114048500D01*
X110810000Y-123568500D02*
X110810000Y-121668500D01*
X112710000Y-123568500D02*
X110810000Y-123568500D01*
X112710000Y-121668500D02*
X112710000Y-123568500D01*
X110810000Y-121668500D02*
X112710000Y-121668500D01*
X90807500Y-121668500D02*
X92707500Y-121668500D01*
X92707500Y-121668500D02*
X92707500Y-123568500D01*
X92707500Y-123568500D02*
X90807500Y-123568500D01*
X90807500Y-123568500D02*
X90807500Y-121668500D01*
X90807500Y-121028500D02*
X90807500Y-119128500D01*
X92707500Y-121028500D02*
X90807500Y-121028500D01*
X92707500Y-119128500D02*
X92707500Y-121028500D01*
X90807500Y-119128500D02*
X92707500Y-119128500D01*
X90807500Y-129288500D02*
X92707500Y-129288500D01*
X92707500Y-129288500D02*
X92707500Y-131188500D01*
X92707500Y-131188500D02*
X90807500Y-131188500D01*
X90807500Y-131188500D02*
X90807500Y-129288500D01*
X90807500Y-128648500D02*
X90807500Y-126748500D01*
X92707500Y-128648500D02*
X90807500Y-128648500D01*
X92707500Y-126748500D02*
X92707500Y-128648500D01*
X90807500Y-126748500D02*
X92707500Y-126748500D01*
X90807500Y-116588500D02*
X92707500Y-116588500D01*
X92707500Y-116588500D02*
X92707500Y-118488500D01*
X92707500Y-118488500D02*
X90807500Y-118488500D01*
X90807500Y-118488500D02*
X90807500Y-116588500D01*
X90807500Y-124208500D02*
X92707500Y-124208500D01*
X92707500Y-124208500D02*
X92707500Y-126108500D01*
X92707500Y-126108500D02*
X90807500Y-126108500D01*
X90807500Y-126108500D02*
X90807500Y-124208500D01*
X90807500Y-115948500D02*
X90807500Y-114048500D01*
X92707500Y-115948500D02*
X90807500Y-115948500D01*
X92707500Y-114048500D02*
X92707500Y-115948500D01*
X90807500Y-114048500D02*
X92707500Y-114048500D01*
X90807500Y-133728500D02*
X90807500Y-131828500D01*
X92707500Y-133728500D02*
X90807500Y-133728500D01*
X92707500Y-131828500D02*
X92707500Y-133728500D01*
X90807500Y-131828500D02*
X92707500Y-131828500D01*
X102872500Y-131828500D02*
X104772500Y-131828500D01*
X104772500Y-131828500D02*
X104772500Y-133728500D01*
X104772500Y-133728500D02*
X102872500Y-133728500D01*
X102872500Y-133728500D02*
X102872500Y-131828500D01*
X102872500Y-131188500D02*
X102872500Y-129288500D01*
X104772500Y-131188500D02*
X102872500Y-131188500D01*
X104772500Y-129288500D02*
X104772500Y-131188500D01*
X102872500Y-129288500D02*
X104772500Y-129288500D01*
X102872500Y-126748500D02*
X104772500Y-126748500D01*
X104772500Y-126748500D02*
X104772500Y-128648500D01*
X104772500Y-128648500D02*
X102872500Y-128648500D01*
X102872500Y-128648500D02*
X102872500Y-126748500D01*
X102872500Y-126108500D02*
X102872500Y-124208500D01*
X104772500Y-126108500D02*
X102872500Y-126108500D01*
X104772500Y-124208500D02*
X104772500Y-126108500D01*
X102872500Y-124208500D02*
X104772500Y-124208500D01*
X102872500Y-123568500D02*
X102872500Y-121668500D01*
X104772500Y-123568500D02*
X102872500Y-123568500D01*
X104772500Y-121668500D02*
X104772500Y-123568500D01*
X102872500Y-121668500D02*
X104772500Y-121668500D01*
X102872500Y-114048500D02*
X104772500Y-114048500D01*
X104772500Y-114048500D02*
X104772500Y-115948500D01*
X104772500Y-115948500D02*
X102872500Y-115948500D01*
X102872500Y-115948500D02*
X102872500Y-114048500D01*
X102872500Y-119128500D02*
X104772500Y-119128500D01*
X104772500Y-119128500D02*
X104772500Y-121028500D01*
X104772500Y-121028500D02*
X102872500Y-121028500D01*
X102872500Y-121028500D02*
X102872500Y-119128500D01*
X102872500Y-118488500D02*
X102872500Y-116588500D01*
X104772500Y-118488500D02*
X102872500Y-118488500D01*
X104772500Y-116588500D02*
X104772500Y-118488500D01*
X102872500Y-116588500D02*
X104772500Y-116588500D01*
X161610000Y-101666000D02*
X163510000Y-101666000D01*
X163510000Y-101666000D02*
X163510000Y-103566000D01*
X163510000Y-103566000D02*
X161610000Y-103566000D01*
X161610000Y-103566000D02*
X161610000Y-101666000D01*
X181295000Y-99126000D02*
X183195000Y-99126000D01*
X183195000Y-99126000D02*
X183195000Y-101026000D01*
X183195000Y-101026000D02*
X181295000Y-101026000D01*
X181295000Y-101026000D02*
X181295000Y-99126000D01*
X150434000Y-99126000D02*
X152334000Y-99126000D01*
X152334000Y-99126000D02*
X152334000Y-101026000D01*
X152334000Y-101026000D02*
X150434000Y-101026000D01*
X150434000Y-101026000D02*
X150434000Y-99126000D01*
X176657000Y-106382500D02*
X178607000Y-106382500D01*
X176657000Y-106382500D02*
X174707000Y-106382500D01*
X176657000Y-101262500D02*
X178607000Y-101262500D01*
X176657000Y-101262500D02*
X173207000Y-101262500D01*
X170119000Y-101026000D02*
X170119000Y-99126000D01*
X172019000Y-101026000D02*
X170119000Y-101026000D01*
X172019000Y-99126000D02*
X172019000Y-101026000D01*
X170119000Y-99126000D02*
X172019000Y-99126000D01*
X181295000Y-104206000D02*
X183195000Y-104206000D01*
X183195000Y-104206000D02*
X183195000Y-106106000D01*
X183195000Y-106106000D02*
X181295000Y-106106000D01*
X181295000Y-106106000D02*
X181295000Y-104206000D01*
X156972000Y-101262500D02*
X153522000Y-101262500D01*
X156972000Y-101262500D02*
X158922000Y-101262500D01*
X156972000Y-106382500D02*
X155022000Y-106382500D01*
X156972000Y-106382500D02*
X158922000Y-106382500D01*
X170119000Y-106746000D02*
X172019000Y-106746000D01*
X172019000Y-106746000D02*
X172019000Y-108646000D01*
X172019000Y-108646000D02*
X170119000Y-108646000D01*
X170119000Y-108646000D02*
X170119000Y-106746000D01*
X170119000Y-101666000D02*
X172019000Y-101666000D01*
X172019000Y-101666000D02*
X172019000Y-103566000D01*
X172019000Y-103566000D02*
X170119000Y-103566000D01*
X170119000Y-103566000D02*
X170119000Y-101666000D01*
X150434000Y-103566000D02*
X150434000Y-101666000D01*
X152334000Y-103566000D02*
X150434000Y-103566000D01*
X152334000Y-101666000D02*
X152334000Y-103566000D01*
X150434000Y-101666000D02*
X152334000Y-101666000D01*
X150434000Y-104206000D02*
X152334000Y-104206000D01*
X152334000Y-104206000D02*
X152334000Y-106106000D01*
X152334000Y-106106000D02*
X150434000Y-106106000D01*
X150434000Y-106106000D02*
X150434000Y-104206000D01*
X150434000Y-108646000D02*
X150434000Y-106746000D01*
X152334000Y-108646000D02*
X150434000Y-108646000D01*
X152334000Y-106746000D02*
X152334000Y-108646000D01*
X150434000Y-106746000D02*
X152334000Y-106746000D01*
X170119000Y-106106000D02*
X170119000Y-104206000D01*
X172019000Y-106106000D02*
X170119000Y-106106000D01*
X172019000Y-104206000D02*
X172019000Y-106106000D01*
X170119000Y-104206000D02*
X172019000Y-104206000D01*
X161610000Y-101026000D02*
X161610000Y-99126000D01*
X163510000Y-101026000D02*
X161610000Y-101026000D01*
X163510000Y-99126000D02*
X163510000Y-101026000D01*
X161610000Y-99126000D02*
X163510000Y-99126000D01*
X161610000Y-106746000D02*
X163510000Y-106746000D01*
X163510000Y-106746000D02*
X163510000Y-108646000D01*
X163510000Y-108646000D02*
X161610000Y-108646000D01*
X161610000Y-108646000D02*
X161610000Y-106746000D01*
X161610000Y-106106000D02*
X161610000Y-104206000D01*
X163510000Y-106106000D02*
X161610000Y-106106000D01*
X163510000Y-104206000D02*
X163510000Y-106106000D01*
X161610000Y-104206000D02*
X163510000Y-104206000D01*
X181295000Y-103566000D02*
X181295000Y-101666000D01*
X183195000Y-103566000D02*
X181295000Y-103566000D01*
X183195000Y-101666000D02*
X183195000Y-103566000D01*
X181295000Y-101666000D02*
X183195000Y-101666000D01*
X181295000Y-108646000D02*
X181295000Y-106746000D01*
X183195000Y-108646000D02*
X181295000Y-108646000D01*
X183195000Y-106746000D02*
X183195000Y-108646000D01*
X181295000Y-106746000D02*
X183195000Y-106746000D01*
X141925000Y-101666000D02*
X143825000Y-101666000D01*
X143825000Y-101666000D02*
X143825000Y-103566000D01*
X143825000Y-103566000D02*
X141925000Y-103566000D01*
X141925000Y-103566000D02*
X141925000Y-101666000D01*
X130749000Y-99126000D02*
X132649000Y-99126000D01*
X132649000Y-99126000D02*
X132649000Y-101026000D01*
X132649000Y-101026000D02*
X130749000Y-101026000D01*
X130749000Y-101026000D02*
X130749000Y-99126000D01*
X137287000Y-101262500D02*
X133837000Y-101262500D01*
X137287000Y-101262500D02*
X139237000Y-101262500D01*
X137287000Y-106382500D02*
X135337000Y-106382500D01*
X137287000Y-106382500D02*
X139237000Y-106382500D01*
X130749000Y-103566000D02*
X130749000Y-101666000D01*
X132649000Y-103566000D02*
X130749000Y-103566000D01*
X132649000Y-101666000D02*
X132649000Y-103566000D01*
X130749000Y-101666000D02*
X132649000Y-101666000D01*
X130749000Y-104206000D02*
X132649000Y-104206000D01*
X132649000Y-104206000D02*
X132649000Y-106106000D01*
X132649000Y-106106000D02*
X130749000Y-106106000D01*
X130749000Y-106106000D02*
X130749000Y-104206000D01*
X130749000Y-108646000D02*
X130749000Y-106746000D01*
X132649000Y-108646000D02*
X130749000Y-108646000D01*
X132649000Y-106746000D02*
X132649000Y-108646000D01*
X130749000Y-106746000D02*
X132649000Y-106746000D01*
X141925000Y-101026000D02*
X141925000Y-99126000D01*
X143825000Y-101026000D02*
X141925000Y-101026000D01*
X143825000Y-99126000D02*
X143825000Y-101026000D01*
X141925000Y-99126000D02*
X143825000Y-99126000D01*
X141925000Y-106746000D02*
X143825000Y-106746000D01*
X143825000Y-106746000D02*
X143825000Y-108646000D01*
X143825000Y-108646000D02*
X141925000Y-108646000D01*
X141925000Y-108646000D02*
X141925000Y-106746000D01*
X141925000Y-106106000D02*
X141925000Y-104206000D01*
X143825000Y-106106000D02*
X141925000Y-106106000D01*
X143825000Y-104206000D02*
X143825000Y-106106000D01*
X141925000Y-104206000D02*
X143825000Y-104206000D01*
X111064000Y-101026000D02*
X111064000Y-99126000D01*
X112964000Y-101026000D02*
X111064000Y-101026000D01*
X112964000Y-99126000D02*
X112964000Y-101026000D01*
X111064000Y-99126000D02*
X112964000Y-99126000D01*
X111064000Y-101666000D02*
X112964000Y-101666000D01*
X112964000Y-101666000D02*
X112964000Y-103566000D01*
X112964000Y-103566000D02*
X111064000Y-103566000D01*
X111064000Y-103566000D02*
X111064000Y-101666000D01*
X111064000Y-106106000D02*
X111064000Y-104206000D01*
X112964000Y-106106000D02*
X111064000Y-106106000D01*
X112964000Y-104206000D02*
X112964000Y-106106000D01*
X111064000Y-104206000D02*
X112964000Y-104206000D01*
X111064000Y-106746000D02*
X112964000Y-106746000D01*
X112964000Y-106746000D02*
X112964000Y-108646000D01*
X112964000Y-108646000D02*
X111064000Y-108646000D01*
X111064000Y-108646000D02*
X111064000Y-106746000D01*
X122240000Y-108646000D02*
X122240000Y-106746000D01*
X124140000Y-108646000D02*
X122240000Y-108646000D01*
X124140000Y-106746000D02*
X124140000Y-108646000D01*
X122240000Y-106746000D02*
X124140000Y-106746000D01*
X122240000Y-99126000D02*
X124140000Y-99126000D01*
X124140000Y-99126000D02*
X124140000Y-101026000D01*
X124140000Y-101026000D02*
X122240000Y-101026000D01*
X122240000Y-101026000D02*
X122240000Y-99126000D01*
X122240000Y-104206000D02*
X124140000Y-104206000D01*
X124140000Y-104206000D02*
X124140000Y-106106000D01*
X124140000Y-106106000D02*
X122240000Y-106106000D01*
X122240000Y-106106000D02*
X122240000Y-104206000D01*
X122240000Y-103566000D02*
X122240000Y-101666000D01*
X124140000Y-103566000D02*
X122240000Y-103566000D01*
X124140000Y-101666000D02*
X124140000Y-103566000D01*
X122240000Y-101666000D02*
X124140000Y-101666000D01*
X117602000Y-106382500D02*
X119552000Y-106382500D01*
X117602000Y-106382500D02*
X115652000Y-106382500D01*
X117602000Y-101262500D02*
X119552000Y-101262500D01*
X117602000Y-101262500D02*
X114152000Y-101262500D01*
X181676000Y-89474000D02*
X183576000Y-89474000D01*
X183576000Y-89474000D02*
X183576000Y-91374000D01*
X183576000Y-91374000D02*
X181676000Y-91374000D01*
X181676000Y-91374000D02*
X181676000Y-89474000D01*
X175580000Y-93914000D02*
X175580000Y-92014000D01*
X177480000Y-93914000D02*
X175580000Y-93914000D01*
X177480000Y-92014000D02*
X177480000Y-93914000D01*
X175580000Y-92014000D02*
X177480000Y-92014000D01*
X181676000Y-88834000D02*
X181676000Y-86934000D01*
X183576000Y-88834000D02*
X181676000Y-88834000D01*
X183576000Y-86934000D02*
X183576000Y-88834000D01*
X181676000Y-86934000D02*
X183576000Y-86934000D01*
X175580000Y-89474000D02*
X177480000Y-89474000D01*
X177480000Y-89474000D02*
X177480000Y-91374000D01*
X177480000Y-91374000D02*
X175580000Y-91374000D01*
X175580000Y-91374000D02*
X175580000Y-89474000D01*
X179415221Y-87374000D02*
X179740779Y-87374000D01*
X179415221Y-88394000D02*
X179740779Y-88394000D01*
X175580000Y-86934000D02*
X177480000Y-86934000D01*
X177480000Y-86934000D02*
X177480000Y-88834000D01*
X177480000Y-88834000D02*
X175580000Y-88834000D01*
X175580000Y-88834000D02*
X175580000Y-86934000D01*
X180278000Y-89264000D02*
X178378000Y-89264000D01*
X178878000Y-91584000D02*
X180278000Y-91584000D01*
X181676000Y-93914000D02*
X181676000Y-92014000D01*
X183576000Y-93914000D02*
X181676000Y-93914000D01*
X183576000Y-92014000D02*
X183576000Y-93914000D01*
X181676000Y-92014000D02*
X183576000Y-92014000D01*
X169611000Y-86934000D02*
X171511000Y-86934000D01*
X171511000Y-86934000D02*
X171511000Y-88834000D01*
X171511000Y-88834000D02*
X169611000Y-88834000D01*
X169611000Y-88834000D02*
X169611000Y-86934000D01*
X169611000Y-91374000D02*
X169611000Y-89474000D01*
X171511000Y-91374000D02*
X169611000Y-91374000D01*
X171511000Y-89474000D02*
X171511000Y-91374000D01*
X169611000Y-89474000D02*
X171511000Y-89474000D01*
X163515000Y-91374000D02*
X163515000Y-89474000D01*
X165415000Y-91374000D02*
X163515000Y-91374000D01*
X165415000Y-89474000D02*
X165415000Y-91374000D01*
X163515000Y-89474000D02*
X165415000Y-89474000D01*
X163515000Y-92014000D02*
X165415000Y-92014000D01*
X165415000Y-92014000D02*
X165415000Y-93914000D01*
X165415000Y-93914000D02*
X163515000Y-93914000D01*
X163515000Y-93914000D02*
X163515000Y-92014000D01*
X167350221Y-88394000D02*
X167675779Y-88394000D01*
X167350221Y-87374000D02*
X167675779Y-87374000D01*
X169611000Y-92014000D02*
X171511000Y-92014000D01*
X171511000Y-92014000D02*
X171511000Y-93914000D01*
X171511000Y-93914000D02*
X169611000Y-93914000D01*
X169611000Y-93914000D02*
X169611000Y-92014000D01*
X163515000Y-88834000D02*
X163515000Y-86934000D01*
X165415000Y-88834000D02*
X163515000Y-88834000D01*
X165415000Y-86934000D02*
X165415000Y-88834000D01*
X163515000Y-86934000D02*
X165415000Y-86934000D01*
X166813000Y-91584000D02*
X168213000Y-91584000D01*
X168213000Y-89264000D02*
X166313000Y-89264000D01*
X157546000Y-93914000D02*
X157546000Y-92014000D01*
X159446000Y-93914000D02*
X157546000Y-93914000D01*
X159446000Y-92014000D02*
X159446000Y-93914000D01*
X157546000Y-92014000D02*
X159446000Y-92014000D01*
X157546000Y-88834000D02*
X157546000Y-86934000D01*
X159446000Y-88834000D02*
X157546000Y-88834000D01*
X159446000Y-86934000D02*
X159446000Y-88834000D01*
X157546000Y-86934000D02*
X159446000Y-86934000D01*
X157546000Y-89474000D02*
X159446000Y-89474000D01*
X159446000Y-89474000D02*
X159446000Y-91374000D01*
X159446000Y-91374000D02*
X157546000Y-91374000D01*
X157546000Y-91374000D02*
X157546000Y-89474000D01*
X151450000Y-86934000D02*
X153350000Y-86934000D01*
X153350000Y-86934000D02*
X153350000Y-88834000D01*
X153350000Y-88834000D02*
X151450000Y-88834000D01*
X151450000Y-88834000D02*
X151450000Y-86934000D01*
X151450000Y-89474000D02*
X153350000Y-89474000D01*
X153350000Y-89474000D02*
X153350000Y-91374000D01*
X153350000Y-91374000D02*
X151450000Y-91374000D01*
X151450000Y-91374000D02*
X151450000Y-89474000D01*
X151450000Y-93914000D02*
X151450000Y-92014000D01*
X153350000Y-93914000D02*
X151450000Y-93914000D01*
X153350000Y-92014000D02*
X153350000Y-93914000D01*
X151450000Y-92014000D02*
X153350000Y-92014000D01*
X156148000Y-89264000D02*
X154248000Y-89264000D01*
X154748000Y-91584000D02*
X156148000Y-91584000D01*
X155285221Y-87374000D02*
X155610779Y-87374000D01*
X155285221Y-88394000D02*
X155610779Y-88394000D01*
X143220221Y-88394000D02*
X143545779Y-88394000D01*
X143220221Y-87374000D02*
X143545779Y-87374000D01*
X142683000Y-91584000D02*
X144083000Y-91584000D01*
X144083000Y-89264000D02*
X142183000Y-89264000D01*
X145481000Y-91374000D02*
X145481000Y-89474000D01*
X147381000Y-91374000D02*
X145481000Y-91374000D01*
X147381000Y-89474000D02*
X147381000Y-91374000D01*
X145481000Y-89474000D02*
X147381000Y-89474000D01*
X139385000Y-88834000D02*
X139385000Y-86934000D01*
X141285000Y-88834000D02*
X139385000Y-88834000D01*
X141285000Y-86934000D02*
X141285000Y-88834000D01*
X139385000Y-86934000D02*
X141285000Y-86934000D01*
X145481000Y-92014000D02*
X147381000Y-92014000D01*
X147381000Y-92014000D02*
X147381000Y-93914000D01*
X147381000Y-93914000D02*
X145481000Y-93914000D01*
X145481000Y-93914000D02*
X145481000Y-92014000D01*
X139385000Y-91374000D02*
X139385000Y-89474000D01*
X141285000Y-91374000D02*
X139385000Y-91374000D01*
X141285000Y-89474000D02*
X141285000Y-91374000D01*
X139385000Y-89474000D02*
X141285000Y-89474000D01*
X139385000Y-92014000D02*
X141285000Y-92014000D01*
X141285000Y-92014000D02*
X141285000Y-93914000D01*
X141285000Y-93914000D02*
X139385000Y-93914000D01*
X139385000Y-93914000D02*
X139385000Y-92014000D01*
X145481000Y-86934000D02*
X147381000Y-86934000D01*
X147381000Y-86934000D02*
X147381000Y-88834000D01*
X147381000Y-88834000D02*
X145481000Y-88834000D01*
X145481000Y-88834000D02*
X145481000Y-86934000D01*
X131383000Y-89264000D02*
X129483000Y-89264000D01*
X129983000Y-91584000D02*
X131383000Y-91584000D01*
X132781000Y-89474000D02*
X134681000Y-89474000D01*
X134681000Y-89474000D02*
X134681000Y-91374000D01*
X134681000Y-91374000D02*
X132781000Y-91374000D01*
X132781000Y-91374000D02*
X132781000Y-89474000D01*
X126685000Y-93914000D02*
X126685000Y-92014000D01*
X128585000Y-93914000D02*
X126685000Y-93914000D01*
X128585000Y-92014000D02*
X128585000Y-93914000D01*
X126685000Y-92014000D02*
X128585000Y-92014000D01*
X132781000Y-93914000D02*
X132781000Y-92014000D01*
X134681000Y-93914000D02*
X132781000Y-93914000D01*
X134681000Y-92014000D02*
X134681000Y-93914000D01*
X132781000Y-92014000D02*
X134681000Y-92014000D01*
X132781000Y-88834000D02*
X132781000Y-86934000D01*
X134681000Y-88834000D02*
X132781000Y-88834000D01*
X134681000Y-86934000D02*
X134681000Y-88834000D01*
X132781000Y-86934000D02*
X134681000Y-86934000D01*
X126685000Y-89474000D02*
X128585000Y-89474000D01*
X128585000Y-89474000D02*
X128585000Y-91374000D01*
X128585000Y-91374000D02*
X126685000Y-91374000D01*
X126685000Y-91374000D02*
X126685000Y-89474000D01*
X130520221Y-87374000D02*
X130845779Y-87374000D01*
X130520221Y-88394000D02*
X130845779Y-88394000D01*
X126685000Y-86934000D02*
X128585000Y-86934000D01*
X128585000Y-86934000D02*
X128585000Y-88834000D01*
X128585000Y-88834000D02*
X126685000Y-88834000D01*
X126685000Y-88834000D02*
X126685000Y-86934000D01*
X114620000Y-88834000D02*
X114620000Y-86934000D01*
X116520000Y-88834000D02*
X114620000Y-88834000D01*
X116520000Y-86934000D02*
X116520000Y-88834000D01*
X114620000Y-86934000D02*
X116520000Y-86934000D01*
X117918000Y-91584000D02*
X119318000Y-91584000D01*
X119318000Y-89264000D02*
X117418000Y-89264000D01*
X118455221Y-88394000D02*
X118780779Y-88394000D01*
X118455221Y-87374000D02*
X118780779Y-87374000D01*
X114620000Y-92014000D02*
X116520000Y-92014000D01*
X116520000Y-92014000D02*
X116520000Y-93914000D01*
X116520000Y-93914000D02*
X114620000Y-93914000D01*
X114620000Y-93914000D02*
X114620000Y-92014000D01*
X120716000Y-92014000D02*
X122616000Y-92014000D01*
X122616000Y-92014000D02*
X122616000Y-93914000D01*
X122616000Y-93914000D02*
X120716000Y-93914000D01*
X120716000Y-93914000D02*
X120716000Y-92014000D01*
X114620000Y-91374000D02*
X114620000Y-89474000D01*
X116520000Y-91374000D02*
X114620000Y-91374000D01*
X116520000Y-89474000D02*
X116520000Y-91374000D01*
X114620000Y-89474000D02*
X116520000Y-89474000D01*
X120716000Y-91374000D02*
X120716000Y-89474000D01*
X122616000Y-91374000D02*
X120716000Y-91374000D01*
X122616000Y-89474000D02*
X122616000Y-91374000D01*
X120716000Y-89474000D02*
X122616000Y-89474000D01*
X120716000Y-86934000D02*
X122616000Y-86934000D01*
X122616000Y-86934000D02*
X122616000Y-88834000D01*
X122616000Y-88834000D02*
X120716000Y-88834000D01*
X120716000Y-88834000D02*
X120716000Y-86934000D01*
X102555000Y-86934000D02*
X104455000Y-86934000D01*
X104455000Y-86934000D02*
X104455000Y-88834000D01*
X104455000Y-88834000D02*
X102555000Y-88834000D01*
X102555000Y-88834000D02*
X102555000Y-86934000D01*
X107253000Y-89264000D02*
X105353000Y-89264000D01*
X105853000Y-91584000D02*
X107253000Y-91584000D01*
X106390221Y-87374000D02*
X106715779Y-87374000D01*
X106390221Y-88394000D02*
X106715779Y-88394000D01*
X102555000Y-93914000D02*
X102555000Y-92014000D01*
X104455000Y-93914000D02*
X102555000Y-93914000D01*
X104455000Y-92014000D02*
X104455000Y-93914000D01*
X102555000Y-92014000D02*
X104455000Y-92014000D01*
X108651000Y-93914000D02*
X108651000Y-92014000D01*
X110551000Y-93914000D02*
X108651000Y-93914000D01*
X110551000Y-92014000D02*
X110551000Y-93914000D01*
X108651000Y-92014000D02*
X110551000Y-92014000D01*
X102555000Y-89474000D02*
X104455000Y-89474000D01*
X104455000Y-89474000D02*
X104455000Y-91374000D01*
X104455000Y-91374000D02*
X102555000Y-91374000D01*
X102555000Y-91374000D02*
X102555000Y-89474000D01*
X108651000Y-89474000D02*
X110551000Y-89474000D01*
X110551000Y-89474000D02*
X110551000Y-91374000D01*
X110551000Y-91374000D02*
X108651000Y-91374000D01*
X108651000Y-91374000D02*
X108651000Y-89474000D01*
X108651000Y-88834000D02*
X108651000Y-86934000D01*
X110551000Y-88834000D02*
X108651000Y-88834000D01*
X110551000Y-86934000D02*
X110551000Y-88834000D01*
X108651000Y-86934000D02*
X110551000Y-86934000D01*
X91379000Y-108646000D02*
X91379000Y-106746000D01*
X93279000Y-108646000D02*
X91379000Y-108646000D01*
X93279000Y-106746000D02*
X93279000Y-108646000D01*
X91379000Y-106746000D02*
X93279000Y-106746000D01*
X91379000Y-99126000D02*
X93279000Y-99126000D01*
X93279000Y-99126000D02*
X93279000Y-101026000D01*
X93279000Y-101026000D02*
X91379000Y-101026000D01*
X91379000Y-101026000D02*
X91379000Y-99126000D01*
X91379000Y-104206000D02*
X93279000Y-104206000D01*
X93279000Y-104206000D02*
X93279000Y-106106000D01*
X93279000Y-106106000D02*
X91379000Y-106106000D01*
X91379000Y-106106000D02*
X91379000Y-104206000D01*
X91379000Y-103566000D02*
X91379000Y-101666000D01*
X93279000Y-103566000D02*
X91379000Y-103566000D01*
X93279000Y-101666000D02*
X93279000Y-103566000D01*
X91379000Y-101666000D02*
X93279000Y-101666000D01*
X102555000Y-106746000D02*
X104455000Y-106746000D01*
X104455000Y-106746000D02*
X104455000Y-108646000D01*
X104455000Y-108646000D02*
X102555000Y-108646000D01*
X102555000Y-108646000D02*
X102555000Y-106746000D01*
X102555000Y-106106000D02*
X102555000Y-104206000D01*
X104455000Y-106106000D02*
X102555000Y-106106000D01*
X104455000Y-104206000D02*
X104455000Y-106106000D01*
X102555000Y-104206000D02*
X104455000Y-104206000D01*
X102555000Y-101666000D02*
X104455000Y-101666000D01*
X104455000Y-101666000D02*
X104455000Y-103566000D01*
X104455000Y-103566000D02*
X102555000Y-103566000D01*
X102555000Y-103566000D02*
X102555000Y-101666000D01*
X102555000Y-101026000D02*
X102555000Y-99126000D01*
X104455000Y-101026000D02*
X102555000Y-101026000D01*
X104455000Y-99126000D02*
X104455000Y-101026000D01*
X102555000Y-99126000D02*
X104455000Y-99126000D01*
X97917000Y-101262500D02*
X94467000Y-101262500D01*
X97917000Y-101262500D02*
X99867000Y-101262500D01*
X97917000Y-106382500D02*
X95967000Y-106382500D01*
X97917000Y-106382500D02*
X99867000Y-106382500D01*
X95405000Y-118845000D02*
X93740000Y-118845000D01*
X95405000Y-118565000D02*
X95405000Y-118845000D01*
X97790000Y-118565000D02*
X95405000Y-118565000D01*
X100175000Y-118565000D02*
X100175000Y-118845000D01*
X97790000Y-118565000D02*
X100175000Y-118565000D01*
X95405000Y-129085000D02*
X95405000Y-128805000D01*
X97790000Y-129085000D02*
X95405000Y-129085000D01*
X100175000Y-129085000D02*
X100175000Y-128805000D01*
X97790000Y-129085000D02*
X100175000Y-129085000D01*
X96586000Y-86934000D02*
X98486000Y-86934000D01*
X98486000Y-86934000D02*
X98486000Y-88834000D01*
X98486000Y-88834000D02*
X96586000Y-88834000D01*
X96586000Y-88834000D02*
X96586000Y-86934000D01*
X96586000Y-91374000D02*
X96586000Y-89474000D01*
X98486000Y-91374000D02*
X96586000Y-91374000D01*
X98486000Y-89474000D02*
X98486000Y-91374000D01*
X96586000Y-89474000D02*
X98486000Y-89474000D01*
X96586000Y-92014000D02*
X98486000Y-92014000D01*
X98486000Y-92014000D02*
X98486000Y-93914000D01*
X98486000Y-93914000D02*
X96586000Y-93914000D01*
X96586000Y-93914000D02*
X96586000Y-92014000D01*
X94325221Y-88394000D02*
X94650779Y-88394000D01*
X94325221Y-87374000D02*
X94650779Y-87374000D01*
X90490000Y-91374000D02*
X90490000Y-89474000D01*
X92390000Y-91374000D02*
X90490000Y-91374000D01*
X92390000Y-89474000D02*
X92390000Y-91374000D01*
X90490000Y-89474000D02*
X92390000Y-89474000D01*
X90490000Y-92014000D02*
X92390000Y-92014000D01*
X92390000Y-92014000D02*
X92390000Y-93914000D01*
X92390000Y-93914000D02*
X90490000Y-93914000D01*
X90490000Y-93914000D02*
X90490000Y-92014000D01*
X90490000Y-88834000D02*
X90490000Y-86934000D01*
X92390000Y-88834000D02*
X90490000Y-88834000D01*
X92390000Y-86934000D02*
X92390000Y-88834000D01*
X90490000Y-86934000D02*
X92390000Y-86934000D01*
X93788000Y-91584000D02*
X95188000Y-91584000D01*
X95188000Y-89264000D02*
X93288000Y-89264000D01*
X93267779Y-61259998D02*
X92942221Y-61259998D01*
X93267779Y-60239998D02*
X92942221Y-60239998D01*
X92090001Y-64839999D02*
X94775001Y-64839999D01*
X94775001Y-64839999D02*
X94775001Y-62919999D01*
X94775001Y-62919999D02*
X92090001Y-62919999D01*
X94670001Y-67564999D02*
X94670001Y-69024999D01*
X91510001Y-67564999D02*
X91510001Y-69724999D01*
X91510001Y-67564999D02*
X92440001Y-67564999D01*
X94670001Y-67564999D02*
X93740001Y-67564999D01*
X105225000Y-52520000D02*
X105225000Y-49770000D01*
X105225000Y-44000000D02*
X105225000Y-46750000D01*
X97769437Y-44000000D02*
X105225000Y-44000000D01*
X97769437Y-52520000D02*
X105225000Y-52520000D01*
X96705000Y-51455563D02*
X96705000Y-49770000D01*
X96705000Y-45064437D02*
X96705000Y-46750000D01*
X96705000Y-45064437D02*
X97769437Y-44000000D01*
X96705000Y-51455563D02*
X97769437Y-52520000D01*
X95465000Y-45750000D02*
X96465000Y-45750000D01*
X95965000Y-45250000D02*
X95965000Y-46250000D01*
X138027778Y-45839999D02*
X137702220Y-45839999D01*
X138027778Y-44819999D02*
X137702220Y-44819999D01*
X158207778Y-45864999D02*
X157882220Y-45864999D01*
X158207778Y-44844999D02*
X157882220Y-44844999D01*
X178462778Y-44784999D02*
X178137220Y-44784999D01*
X178462778Y-45804999D02*
X178137220Y-45804999D01*
X123320001Y-67215001D02*
X123320001Y-69900001D01*
X123320001Y-69900001D02*
X125240001Y-69900001D01*
X125240001Y-69900001D02*
X125240001Y-67215001D01*
X157220001Y-60979999D02*
X154535001Y-60979999D01*
X157220001Y-62899999D02*
X157220001Y-60979999D01*
X154535001Y-62899999D02*
X157220001Y-62899999D01*
X110760001Y-70275001D02*
X110760001Y-67590001D01*
X108840001Y-70275001D02*
X110760001Y-70275001D01*
X108840001Y-67590001D02*
X108840001Y-70275001D01*
X138040001Y-66035001D02*
X138040001Y-63350001D01*
X136120001Y-66035001D02*
X138040001Y-66035001D01*
X136120001Y-63350001D02*
X136120001Y-66035001D01*
X147448001Y-65946001D02*
X147448001Y-68631001D01*
X147448001Y-68631001D02*
X149368001Y-68631001D01*
X149368001Y-68631001D02*
X149368001Y-65946001D01*
X136850000Y-81010000D02*
X136850000Y-78325000D01*
X136850000Y-78325000D02*
X134930000Y-78325000D01*
X134930000Y-78325000D02*
X134930000Y-81010000D01*
X158665001Y-54375001D02*
X158665001Y-51690001D01*
X156745001Y-54375001D02*
X158665001Y-54375001D01*
X156745001Y-51690001D02*
X156745001Y-54375001D01*
X173880001Y-54110001D02*
X173880001Y-51425001D01*
X171960001Y-54110001D02*
X173880001Y-54110001D01*
X171960001Y-51425001D02*
X171960001Y-54110001D01*
X142155001Y-54255001D02*
X142155001Y-51570001D01*
X140235001Y-54255001D02*
X142155001Y-54255001D01*
X140235001Y-51570001D02*
X140235001Y-54255001D01*
X114030000Y-44760000D02*
X111345000Y-44760000D01*
X111345000Y-44760000D02*
X111345000Y-46680000D01*
X111345000Y-46680000D02*
X114030000Y-46680000D01*
X114030000Y-49205000D02*
X111345000Y-49205000D01*
X111345000Y-49205000D02*
X111345000Y-51125000D01*
X111345000Y-51125000D02*
X114030000Y-51125000D01*
X111345000Y-55570000D02*
X114030000Y-55570000D01*
X111345000Y-53650000D02*
X111345000Y-55570000D01*
X114030000Y-53650000D02*
X111345000Y-53650000D01*
X118475000Y-44760000D02*
X115790000Y-44760000D01*
X115790000Y-44760000D02*
X115790000Y-46680000D01*
X115790000Y-46680000D02*
X118475000Y-46680000D01*
X115790000Y-51125000D02*
X118475000Y-51125000D01*
X115790000Y-49205000D02*
X115790000Y-51125000D01*
X118475000Y-49205000D02*
X115790000Y-49205000D01*
X115790000Y-55570000D02*
X118475000Y-55570000D01*
X115790000Y-53650000D02*
X115790000Y-55570000D01*
X118475000Y-53650000D02*
X115790000Y-53650000D01*
X122920000Y-44760000D02*
X120235000Y-44760000D01*
X120235000Y-44760000D02*
X120235000Y-46680000D01*
X120235000Y-46680000D02*
X122920000Y-46680000D01*
X122920000Y-49205000D02*
X120235000Y-49205000D01*
X120235000Y-49205000D02*
X120235000Y-51125000D01*
X120235000Y-51125000D02*
X122920000Y-51125000D01*
X122920000Y-53650000D02*
X120235000Y-53650000D01*
X120235000Y-53650000D02*
X120235000Y-55570000D01*
X120235000Y-55570000D02*
X122920000Y-55570000D01*
X122535001Y-41894999D02*
X122535001Y-39234999D01*
X104695001Y-41894999D02*
X122535001Y-41894999D01*
X104695001Y-39234999D02*
X122535001Y-39234999D01*
X104695001Y-41894999D02*
X104695001Y-39234999D01*
X103425001Y-41894999D02*
X102095001Y-41894999D01*
X102095001Y-41894999D02*
X102095001Y-40564999D01*
X91500000Y-44510000D02*
X90170000Y-44510000D01*
X91500000Y-43180000D02*
X91500000Y-44510000D01*
X91500000Y-41910000D02*
X88840000Y-41910000D01*
X88840000Y-41910000D02*
X88840000Y-39310000D01*
X91500000Y-41910000D02*
X91500000Y-39310000D01*
X91500000Y-39310000D02*
X88840000Y-39310000D01*
X99120000Y-41970000D02*
X99120000Y-39310000D01*
X96520000Y-41970000D02*
X99120000Y-41970000D01*
X96520000Y-39310000D02*
X99120000Y-39310000D01*
X96520000Y-41970000D02*
X96520000Y-39310000D01*
X95250000Y-41970000D02*
X93920000Y-41970000D01*
X93920000Y-41970000D02*
X93920000Y-40640000D01*
X101600000Y-82610000D02*
X101600000Y-79950000D01*
X101600000Y-82610000D02*
X121980000Y-82610000D01*
X121980000Y-82610000D02*
X121980000Y-79950000D01*
X101600000Y-79950000D02*
X121980000Y-79950000D01*
X99000000Y-79950000D02*
X100330000Y-79950000D01*
X99000000Y-81280000D02*
X99000000Y-79950000D01*
X120595001Y-69795001D02*
X119135001Y-69795001D01*
X120595001Y-66635001D02*
X118435001Y-66635001D01*
X120595001Y-66635001D02*
X120595001Y-67565001D01*
X120595001Y-69795001D02*
X120595001Y-68865001D01*
X157115001Y-65624999D02*
X157115001Y-67084999D01*
X153955001Y-65624999D02*
X153955001Y-67784999D01*
X153955001Y-65624999D02*
X154885001Y-65624999D01*
X157115001Y-65624999D02*
X156185001Y-65624999D01*
X106115001Y-70170001D02*
X106115001Y-69240001D01*
X106115001Y-67010001D02*
X106115001Y-67940001D01*
X106115001Y-67010001D02*
X103955001Y-67010001D01*
X106115001Y-70170001D02*
X104655001Y-70170001D01*
X133395001Y-65930001D02*
X131935001Y-65930001D01*
X133395001Y-62770001D02*
X131235001Y-62770001D01*
X133395001Y-62770001D02*
X133395001Y-63700001D01*
X133395001Y-65930001D02*
X133395001Y-65000001D01*
X144723001Y-68526001D02*
X144723001Y-67596001D01*
X144723001Y-65366001D02*
X144723001Y-66296001D01*
X144723001Y-65366001D02*
X142563001Y-65366001D01*
X144723001Y-68526001D02*
X143263001Y-68526001D01*
X139575000Y-78430000D02*
X141035000Y-78430000D01*
X139575000Y-81590000D02*
X141735000Y-81590000D01*
X139575000Y-81590000D02*
X139575000Y-80660000D01*
X139575000Y-78430000D02*
X139575000Y-79360000D01*
X154020001Y-54270001D02*
X154020001Y-53340001D01*
X154020001Y-51110001D02*
X154020001Y-52040001D01*
X154020001Y-51110001D02*
X151860001Y-51110001D01*
X154020001Y-54270001D02*
X152560001Y-54270001D01*
X169235001Y-54005001D02*
X167775001Y-54005001D01*
X169235001Y-50845001D02*
X167075001Y-50845001D01*
X169235001Y-50845001D02*
X169235001Y-51775001D01*
X169235001Y-54005001D02*
X169235001Y-53075001D01*
X137510001Y-54150001D02*
X137510001Y-53220001D01*
X137510001Y-50990001D02*
X137510001Y-51920001D01*
X137510001Y-50990001D02*
X135350001Y-50990001D01*
X137510001Y-54150001D02*
X136050001Y-54150001D01*
X109345000Y-50980001D02*
X109345000Y-50050001D01*
X109345000Y-47820001D02*
X109345000Y-48750001D01*
X109345000Y-47820001D02*
X107185000Y-47820001D01*
X109345000Y-50980001D02*
X107885000Y-50980001D01*
X109345000Y-54920000D02*
X107885000Y-54920000D01*
X109345000Y-51760000D02*
X107185000Y-51760000D01*
X109345000Y-51760000D02*
X109345000Y-52690000D01*
X109345000Y-54920000D02*
X109345000Y-53990000D01*
X106803001Y-59284001D02*
G75*
G03X106803001Y-59284001I-254000J0D01*
G01*
D12*
G36*
X105279001Y-61570001D02*
G01*
X104771001Y-61570001D01*
X104771001Y-59030001D01*
X105279001Y-59030001D01*
X105279001Y-61570001D01*
G37*
X105279001Y-61570001D02*
X104771001Y-61570001D01*
X104771001Y-59030001D01*
X105279001Y-59030001D01*
X105279001Y-61570001D01*
D11*
X105279001Y-61570001D02*
X105279001Y-59030001D01*
X104771001Y-61570001D02*
X105279001Y-61570001D01*
X104771001Y-59030001D02*
X104771001Y-61570001D01*
X105279001Y-59030001D02*
X104771001Y-59030001D01*
X105785001Y-61880001D02*
X104325001Y-61880001D01*
X105785001Y-58720001D02*
X103625001Y-58720001D01*
X105785001Y-58720001D02*
X105785001Y-59650001D01*
X105785001Y-61880001D02*
X105785001Y-60950001D01*
X109595001Y-61880001D02*
X109595001Y-60950001D01*
X109595001Y-58720001D02*
X109595001Y-59650001D01*
X109595001Y-58720001D02*
X107435001Y-58720001D01*
X109595001Y-61880001D02*
X108135001Y-61880001D01*
X109089001Y-59030001D02*
X108581001Y-59030001D01*
X108581001Y-59030001D02*
X108581001Y-61570001D01*
X108581001Y-61570001D02*
X109089001Y-61570001D01*
X109089001Y-61570001D02*
X109089001Y-59030001D01*
D12*
G36*
X109089001Y-61570001D02*
G01*
X108581001Y-61570001D01*
X108581001Y-59030001D01*
X109089001Y-59030001D01*
X109089001Y-61570001D01*
G37*
X109089001Y-61570001D02*
X108581001Y-61570001D01*
X108581001Y-59030001D01*
X109089001Y-59030001D01*
X109089001Y-61570001D01*
D11*
X110613001Y-59284001D02*
G75*
G03X110613001Y-59284001I-254000J0D01*
G01*
X105785001Y-65690001D02*
X105785001Y-64760001D01*
X105785001Y-62530001D02*
X105785001Y-63460001D01*
X105785001Y-62530001D02*
X103625001Y-62530001D01*
X105785001Y-65690001D02*
X104325001Y-65690001D01*
X109595001Y-65690001D02*
X108135001Y-65690001D01*
X109595001Y-62530001D02*
X107435001Y-62530001D01*
X109595001Y-62530001D02*
X109595001Y-63460001D01*
X109595001Y-65690001D02*
X109595001Y-64760001D01*
X113405001Y-65690001D02*
X113405001Y-64760001D01*
X113405001Y-62530001D02*
X113405001Y-63460001D01*
X113405001Y-62530001D02*
X111245001Y-62530001D01*
X113405001Y-65690001D02*
X111945001Y-65690001D01*
X114423001Y-59284001D02*
G75*
G03X114423001Y-59284001I-254000J0D01*
G01*
D12*
G36*
X112899001Y-61570001D02*
G01*
X112391001Y-61570001D01*
X112391001Y-59030001D01*
X112899001Y-59030001D01*
X112899001Y-61570001D01*
G37*
X112899001Y-61570001D02*
X112391001Y-61570001D01*
X112391001Y-59030001D01*
X112899001Y-59030001D01*
X112899001Y-61570001D01*
D11*
X112899001Y-61570001D02*
X112899001Y-59030001D01*
X112391001Y-61570001D02*
X112899001Y-61570001D01*
X112391001Y-59030001D02*
X112391001Y-61570001D01*
X112899001Y-59030001D02*
X112391001Y-59030001D01*
X113405001Y-61880001D02*
X111945001Y-61880001D01*
X113405001Y-58720001D02*
X111245001Y-58720001D01*
X113405001Y-58720001D02*
X113405001Y-59650001D01*
X113405001Y-61880001D02*
X113405001Y-60950001D01*
X146683000Y-64826000D02*
X145223000Y-64826000D01*
X146683000Y-61666000D02*
X144523000Y-61666000D01*
X146683000Y-61666000D02*
X146683000Y-62596000D01*
X146683000Y-64826000D02*
X146683000Y-63896000D01*
X146683000Y-61016000D02*
X146683000Y-60086000D01*
X146683000Y-57856000D02*
X146683000Y-58786000D01*
X146683000Y-57856000D02*
X144523000Y-57856000D01*
X146683000Y-61016000D02*
X145223000Y-61016000D01*
X146177000Y-58166000D02*
X145669000Y-58166000D01*
X145669000Y-58166000D02*
X145669000Y-60706000D01*
X145669000Y-60706000D02*
X146177000Y-60706000D01*
X146177000Y-60706000D02*
X146177000Y-58166000D01*
D12*
G36*
X146177000Y-60706000D02*
G01*
X145669000Y-60706000D01*
X145669000Y-58166000D01*
X146177000Y-58166000D01*
X146177000Y-60706000D01*
G37*
X146177000Y-60706000D02*
X145669000Y-60706000D01*
X145669000Y-58166000D01*
X146177000Y-58166000D01*
X146177000Y-60706000D01*
D11*
X147701000Y-58420000D02*
G75*
G03X147701000Y-58420000I-254000J0D01*
G01*
X150493000Y-61016000D02*
X150493000Y-60086000D01*
X150493000Y-57856000D02*
X150493000Y-58786000D01*
X150493000Y-57856000D02*
X148333000Y-57856000D01*
X150493000Y-61016000D02*
X149033000Y-61016000D01*
X149987000Y-58166000D02*
X149479000Y-58166000D01*
X149479000Y-58166000D02*
X149479000Y-60706000D01*
X149479000Y-60706000D02*
X149987000Y-60706000D01*
X149987000Y-60706000D02*
X149987000Y-58166000D01*
D12*
G36*
X149987000Y-60706000D02*
G01*
X149479000Y-60706000D01*
X149479000Y-58166000D01*
X149987000Y-58166000D01*
X149987000Y-60706000D01*
G37*
X149987000Y-60706000D02*
X149479000Y-60706000D01*
X149479000Y-58166000D01*
X149987000Y-58166000D01*
X149987000Y-60706000D01*
D11*
X151511000Y-58420000D02*
G75*
G03X151511000Y-58420000I-254000J0D01*
G01*
X150493000Y-64826000D02*
X150493000Y-63896000D01*
X150493000Y-61666000D02*
X150493000Y-62596000D01*
X150493000Y-61666000D02*
X148333000Y-61666000D01*
X150493000Y-64826000D02*
X149033000Y-64826000D01*
X136514999Y-61005001D02*
X137444999Y-61005001D01*
X139674999Y-61005001D02*
X138744999Y-61005001D01*
X139674999Y-61005001D02*
X139674999Y-58845001D01*
X136514999Y-61005001D02*
X136514999Y-59545001D01*
X139364999Y-60499001D02*
X139364999Y-59991001D01*
X139364999Y-59991001D02*
X136824999Y-59991001D01*
X136824999Y-59991001D02*
X136824999Y-60499001D01*
X136824999Y-60499001D02*
X139364999Y-60499001D01*
D12*
G36*
X136824999Y-60499001D02*
G01*
X136824999Y-59991001D01*
X139364999Y-59991001D01*
X139364999Y-60499001D01*
X136824999Y-60499001D01*
G37*
X136824999Y-60499001D02*
X136824999Y-59991001D01*
X139364999Y-59991001D01*
X139364999Y-60499001D01*
X136824999Y-60499001D01*
D11*
X139364999Y-61769001D02*
G75*
G03X139364999Y-61769001I-254000J0D01*
G01*
X132665000Y-60995000D02*
X132665000Y-59535000D01*
X135825000Y-60995000D02*
X135825000Y-58835000D01*
X135825000Y-60995000D02*
X134895000Y-60995000D01*
X132665000Y-60995000D02*
X133595000Y-60995000D01*
X96830000Y-76075000D02*
X95900000Y-76075000D01*
X93670000Y-76075000D02*
X94600000Y-76075000D01*
X93670000Y-76075000D02*
X93670000Y-78235000D01*
X96830000Y-76075000D02*
X96830000Y-77535000D01*
X93980000Y-76581000D02*
X93980000Y-77089000D01*
X93980000Y-77089000D02*
X96520000Y-77089000D01*
X96520000Y-77089000D02*
X96520000Y-76581000D01*
X96520000Y-76581000D02*
X93980000Y-76581000D01*
D12*
G36*
X96520000Y-76581000D02*
G01*
X96520000Y-77089000D01*
X93980000Y-77089000D01*
X93980000Y-76581000D01*
X96520000Y-76581000D01*
G37*
X96520000Y-76581000D02*
X96520000Y-77089000D01*
X93980000Y-77089000D01*
X93980000Y-76581000D01*
X96520000Y-76581000D01*
D11*
X94488000Y-75311000D02*
G75*
G03X94488000Y-75311000I-254000J0D01*
G01*
X98298000Y-75311000D02*
G75*
G03X98298000Y-75311000I-254000J0D01*
G01*
D12*
G36*
X100330000Y-76581000D02*
G01*
X100330000Y-77089000D01*
X97790000Y-77089000D01*
X97790000Y-76581000D01*
X100330000Y-76581000D01*
G37*
X100330000Y-76581000D02*
X100330000Y-77089000D01*
X97790000Y-77089000D01*
X97790000Y-76581000D01*
X100330000Y-76581000D01*
D11*
X100330000Y-76581000D02*
X97790000Y-76581000D01*
X100330000Y-77089000D02*
X100330000Y-76581000D01*
X97790000Y-77089000D02*
X100330000Y-77089000D01*
X97790000Y-76581000D02*
X97790000Y-77089000D01*
X100640000Y-76075000D02*
X100640000Y-77535000D01*
X97480000Y-76075000D02*
X97480000Y-78235000D01*
X97480000Y-76075000D02*
X98410000Y-76075000D01*
X100640000Y-76075000D02*
X99710000Y-76075000D01*
X102108000Y-75311000D02*
G75*
G03X102108000Y-75311000I-254000J0D01*
G01*
D12*
G36*
X104140000Y-76581000D02*
G01*
X104140000Y-77089000D01*
X101600000Y-77089000D01*
X101600000Y-76581000D01*
X104140000Y-76581000D01*
G37*
X104140000Y-76581000D02*
X104140000Y-77089000D01*
X101600000Y-77089000D01*
X101600000Y-76581000D01*
X104140000Y-76581000D01*
D11*
X104140000Y-76581000D02*
X101600000Y-76581000D01*
X104140000Y-77089000D02*
X104140000Y-76581000D01*
X101600000Y-77089000D02*
X104140000Y-77089000D01*
X101600000Y-76581000D02*
X101600000Y-77089000D01*
X104450000Y-76075000D02*
X104450000Y-77535000D01*
X101290000Y-76075000D02*
X101290000Y-78235000D01*
X101290000Y-76075000D02*
X102220000Y-76075000D01*
X104450000Y-76075000D02*
X103520000Y-76075000D01*
X96830000Y-72265000D02*
X95900000Y-72265000D01*
X93670000Y-72265000D02*
X94600000Y-72265000D01*
X93670000Y-72265000D02*
X93670000Y-74425000D01*
X96830000Y-72265000D02*
X96830000Y-73725000D01*
X108260000Y-72265000D02*
X107330000Y-72265000D01*
X105100000Y-72265000D02*
X106030000Y-72265000D01*
X105100000Y-72265000D02*
X105100000Y-74425000D01*
X108260000Y-72265000D02*
X108260000Y-73725000D01*
X119690000Y-72265000D02*
X119690000Y-73725000D01*
X116530000Y-72265000D02*
X116530000Y-74425000D01*
X116530000Y-72265000D02*
X117460000Y-72265000D01*
X119690000Y-72265000D02*
X118760000Y-72265000D01*
X105918000Y-75311000D02*
G75*
G03X105918000Y-75311000I-254000J0D01*
G01*
D12*
G36*
X107950000Y-76581000D02*
G01*
X107950000Y-77089000D01*
X105410000Y-77089000D01*
X105410000Y-76581000D01*
X107950000Y-76581000D01*
G37*
X107950000Y-76581000D02*
X107950000Y-77089000D01*
X105410000Y-77089000D01*
X105410000Y-76581000D01*
X107950000Y-76581000D01*
D11*
X107950000Y-76581000D02*
X105410000Y-76581000D01*
X107950000Y-77089000D02*
X107950000Y-76581000D01*
X105410000Y-77089000D02*
X107950000Y-77089000D01*
X105410000Y-76581000D02*
X105410000Y-77089000D01*
X108260000Y-76075000D02*
X108260000Y-77535000D01*
X105100000Y-76075000D02*
X105100000Y-78235000D01*
X105100000Y-76075000D02*
X106030000Y-76075000D01*
X108260000Y-76075000D02*
X107330000Y-76075000D01*
X112070000Y-76075000D02*
X111140000Y-76075000D01*
X108910000Y-76075000D02*
X109840000Y-76075000D01*
X108910000Y-76075000D02*
X108910000Y-78235000D01*
X112070000Y-76075000D02*
X112070000Y-77535000D01*
X109220000Y-76581000D02*
X109220000Y-77089000D01*
X109220000Y-77089000D02*
X111760000Y-77089000D01*
X111760000Y-77089000D02*
X111760000Y-76581000D01*
X111760000Y-76581000D02*
X109220000Y-76581000D01*
D12*
G36*
X111760000Y-76581000D02*
G01*
X111760000Y-77089000D01*
X109220000Y-77089000D01*
X109220000Y-76581000D01*
X111760000Y-76581000D01*
G37*
X111760000Y-76581000D02*
X111760000Y-77089000D01*
X109220000Y-77089000D01*
X109220000Y-76581000D01*
X111760000Y-76581000D01*
D11*
X109728000Y-75311000D02*
G75*
G03X109728000Y-75311000I-254000J0D01*
G01*
X113538000Y-75311000D02*
G75*
G03X113538000Y-75311000I-254000J0D01*
G01*
D12*
G36*
X115570000Y-76581000D02*
G01*
X115570000Y-77089000D01*
X113030000Y-77089000D01*
X113030000Y-76581000D01*
X115570000Y-76581000D01*
G37*
X115570000Y-76581000D02*
X115570000Y-77089000D01*
X113030000Y-77089000D01*
X113030000Y-76581000D01*
X115570000Y-76581000D01*
D11*
X115570000Y-76581000D02*
X113030000Y-76581000D01*
X115570000Y-77089000D02*
X115570000Y-76581000D01*
X113030000Y-77089000D02*
X115570000Y-77089000D01*
X113030000Y-76581000D02*
X113030000Y-77089000D01*
X115880000Y-76075000D02*
X115880000Y-77535000D01*
X112720000Y-76075000D02*
X112720000Y-78235000D01*
X112720000Y-76075000D02*
X113650000Y-76075000D01*
X115880000Y-76075000D02*
X114950000Y-76075000D01*
X100640000Y-72265000D02*
X100640000Y-73725000D01*
X97480000Y-72265000D02*
X97480000Y-74425000D01*
X97480000Y-72265000D02*
X98410000Y-72265000D01*
X100640000Y-72265000D02*
X99710000Y-72265000D01*
X112070000Y-72265000D02*
X111140000Y-72265000D01*
X108910000Y-72265000D02*
X109840000Y-72265000D01*
X108910000Y-72265000D02*
X108910000Y-74425000D01*
X112070000Y-72265000D02*
X112070000Y-73725000D01*
X123500000Y-72265000D02*
X122570000Y-72265000D01*
X120340000Y-72265000D02*
X121270000Y-72265000D01*
X120340000Y-72265000D02*
X120340000Y-74425000D01*
X123500000Y-72265000D02*
X123500000Y-73725000D01*
X119690000Y-76075000D02*
X118760000Y-76075000D01*
X116530000Y-76075000D02*
X117460000Y-76075000D01*
X116530000Y-76075000D02*
X116530000Y-78235000D01*
X119690000Y-76075000D02*
X119690000Y-77535000D01*
X116840000Y-76581000D02*
X116840000Y-77089000D01*
X116840000Y-77089000D02*
X119380000Y-77089000D01*
X119380000Y-77089000D02*
X119380000Y-76581000D01*
X119380000Y-76581000D02*
X116840000Y-76581000D01*
D12*
G36*
X119380000Y-76581000D02*
G01*
X119380000Y-77089000D01*
X116840000Y-77089000D01*
X116840000Y-76581000D01*
X119380000Y-76581000D01*
G37*
X119380000Y-76581000D02*
X119380000Y-77089000D01*
X116840000Y-77089000D01*
X116840000Y-76581000D01*
X119380000Y-76581000D01*
D11*
X117348000Y-75311000D02*
G75*
G03X117348000Y-75311000I-254000J0D01*
G01*
X123500000Y-76075000D02*
X122570000Y-76075000D01*
X120340000Y-76075000D02*
X121270000Y-76075000D01*
X120340000Y-76075000D02*
X120340000Y-78235000D01*
X123500000Y-76075000D02*
X123500000Y-77535000D01*
X120650000Y-76581000D02*
X120650000Y-77089000D01*
X120650000Y-77089000D02*
X123190000Y-77089000D01*
X123190000Y-77089000D02*
X123190000Y-76581000D01*
X123190000Y-76581000D02*
X120650000Y-76581000D01*
D12*
G36*
X123190000Y-76581000D02*
G01*
X123190000Y-77089000D01*
X120650000Y-77089000D01*
X120650000Y-76581000D01*
X123190000Y-76581000D01*
G37*
X123190000Y-76581000D02*
X123190000Y-77089000D01*
X120650000Y-77089000D01*
X120650000Y-76581000D01*
X123190000Y-76581000D01*
D11*
X121158000Y-75311000D02*
G75*
G03X121158000Y-75311000I-254000J0D01*
G01*
X127310000Y-76075000D02*
X126380000Y-76075000D01*
X124150000Y-76075000D02*
X125080000Y-76075000D01*
X124150000Y-76075000D02*
X124150000Y-78235000D01*
X127310000Y-76075000D02*
X127310000Y-77535000D01*
X124460000Y-76581000D02*
X124460000Y-77089000D01*
X124460000Y-77089000D02*
X127000000Y-77089000D01*
X127000000Y-77089000D02*
X127000000Y-76581000D01*
X127000000Y-76581000D02*
X124460000Y-76581000D01*
D12*
G36*
X127000000Y-76581000D02*
G01*
X127000000Y-77089000D01*
X124460000Y-77089000D01*
X124460000Y-76581000D01*
X127000000Y-76581000D01*
G37*
X127000000Y-76581000D02*
X127000000Y-77089000D01*
X124460000Y-77089000D01*
X124460000Y-76581000D01*
X127000000Y-76581000D01*
D11*
X124968000Y-75311000D02*
G75*
G03X124968000Y-75311000I-254000J0D01*
G01*
X104450000Y-72265000D02*
X103520000Y-72265000D01*
X101290000Y-72265000D02*
X102220000Y-72265000D01*
X101290000Y-72265000D02*
X101290000Y-74425000D01*
X104450000Y-72265000D02*
X104450000Y-73725000D01*
X115880000Y-72265000D02*
X115880000Y-73725000D01*
X112720000Y-72265000D02*
X112720000Y-74425000D01*
X112720000Y-72265000D02*
X113650000Y-72265000D01*
X115880000Y-72265000D02*
X114950000Y-72265000D01*
X127310000Y-72265000D02*
X127310000Y-73725000D01*
X124150000Y-72265000D02*
X124150000Y-74425000D01*
X124150000Y-72265000D02*
X125080000Y-72265000D01*
X127310000Y-72265000D02*
X126380000Y-72265000D01*
X152870001Y-77972999D02*
G75*
G03X152870001Y-77972999I-254000J0D01*
G01*
D12*
G36*
X154902001Y-79242999D02*
G01*
X154902001Y-79750999D01*
X152362001Y-79750999D01*
X152362001Y-79242999D01*
X154902001Y-79242999D01*
G37*
X154902001Y-79242999D02*
X154902001Y-79750999D01*
X152362001Y-79750999D01*
X152362001Y-79242999D01*
X154902001Y-79242999D01*
D11*
X154902001Y-79242999D02*
X152362001Y-79242999D01*
X154902001Y-79750999D02*
X154902001Y-79242999D01*
X152362001Y-79750999D02*
X154902001Y-79750999D01*
X152362001Y-79242999D02*
X152362001Y-79750999D01*
X155212001Y-78736999D02*
X155212001Y-80196999D01*
X152052001Y-78736999D02*
X152052001Y-80896999D01*
X152052001Y-78736999D02*
X152982001Y-78736999D01*
X155212001Y-78736999D02*
X154282001Y-78736999D01*
X152870001Y-74162999D02*
G75*
G03X152870001Y-74162999I-254000J0D01*
G01*
D12*
G36*
X154902001Y-75432999D02*
G01*
X154902001Y-75940999D01*
X152362001Y-75940999D01*
X152362001Y-75432999D01*
X154902001Y-75432999D01*
G37*
X154902001Y-75432999D02*
X154902001Y-75940999D01*
X152362001Y-75940999D01*
X152362001Y-75432999D01*
X154902001Y-75432999D01*
D11*
X154902001Y-75432999D02*
X152362001Y-75432999D01*
X154902001Y-75940999D02*
X154902001Y-75432999D01*
X152362001Y-75940999D02*
X154902001Y-75940999D01*
X152362001Y-75432999D02*
X152362001Y-75940999D01*
X155212001Y-74926999D02*
X155212001Y-76386999D01*
X152052001Y-74926999D02*
X152052001Y-77086999D01*
X152052001Y-74926999D02*
X152982001Y-74926999D01*
X155212001Y-74926999D02*
X154282001Y-74926999D01*
X159022001Y-78736999D02*
X158092001Y-78736999D01*
X155862001Y-78736999D02*
X156792001Y-78736999D01*
X155862001Y-78736999D02*
X155862001Y-80896999D01*
X159022001Y-78736999D02*
X159022001Y-80196999D01*
X159022001Y-74926999D02*
X159022001Y-76386999D01*
X155862001Y-74926999D02*
X155862001Y-77086999D01*
X155862001Y-74926999D02*
X156792001Y-74926999D01*
X159022001Y-74926999D02*
X158092001Y-74926999D01*
X161363001Y-77715999D02*
G75*
G03X161363001Y-77715999I-254000J0D01*
G01*
D12*
G36*
X163395001Y-78985999D02*
G01*
X163395001Y-79493999D01*
X160855001Y-79493999D01*
X160855001Y-78985999D01*
X163395001Y-78985999D01*
G37*
X163395001Y-78985999D02*
X163395001Y-79493999D01*
X160855001Y-79493999D01*
X160855001Y-78985999D01*
X163395001Y-78985999D01*
D11*
X163395001Y-78985999D02*
X160855001Y-78985999D01*
X163395001Y-79493999D02*
X163395001Y-78985999D01*
X160855001Y-79493999D02*
X163395001Y-79493999D01*
X160855001Y-78985999D02*
X160855001Y-79493999D01*
X163705001Y-78479999D02*
X163705001Y-79939999D01*
X160545001Y-78479999D02*
X160545001Y-80639999D01*
X160545001Y-78479999D02*
X161475001Y-78479999D01*
X163705001Y-78479999D02*
X162775001Y-78479999D01*
X163705001Y-74669999D02*
X162775001Y-74669999D01*
X160545001Y-74669999D02*
X161475001Y-74669999D01*
X160545001Y-74669999D02*
X160545001Y-76829999D01*
X163705001Y-74669999D02*
X163705001Y-76129999D01*
X160855001Y-75175999D02*
X160855001Y-75683999D01*
X160855001Y-75683999D02*
X163395001Y-75683999D01*
X163395001Y-75683999D02*
X163395001Y-75175999D01*
X163395001Y-75175999D02*
X160855001Y-75175999D01*
D12*
G36*
X163395001Y-75175999D02*
G01*
X163395001Y-75683999D01*
X160855001Y-75683999D01*
X160855001Y-75175999D01*
X163395001Y-75175999D01*
G37*
X163395001Y-75175999D02*
X163395001Y-75683999D01*
X160855001Y-75683999D01*
X160855001Y-75175999D01*
X163395001Y-75175999D01*
D11*
X161363001Y-73905999D02*
G75*
G03X161363001Y-73905999I-254000J0D01*
G01*
X167515001Y-78479999D02*
X166585001Y-78479999D01*
X164355001Y-78479999D02*
X165285001Y-78479999D01*
X164355001Y-78479999D02*
X164355001Y-80639999D01*
X167515001Y-78479999D02*
X167515001Y-79939999D01*
X167515001Y-74669999D02*
X167515001Y-76129999D01*
X164355001Y-74669999D02*
X164355001Y-76829999D01*
X164355001Y-74669999D02*
X165285001Y-74669999D01*
X167515001Y-74669999D02*
X166585001Y-74669999D01*
X167515001Y-70859999D02*
X166585001Y-70859999D01*
X164355001Y-70859999D02*
X165285001Y-70859999D01*
X164355001Y-70859999D02*
X164355001Y-73019999D01*
X167515001Y-70859999D02*
X167515001Y-72319999D01*
X163705001Y-70859999D02*
X162775001Y-70859999D01*
X160545001Y-70859999D02*
X161475001Y-70859999D01*
X160545001Y-70859999D02*
X160545001Y-73019999D01*
X163705001Y-70859999D02*
X163705001Y-72319999D01*
X160855001Y-71365999D02*
X160855001Y-71873999D01*
X160855001Y-71873999D02*
X163395001Y-71873999D01*
X163395001Y-71873999D02*
X163395001Y-71365999D01*
X163395001Y-71365999D02*
X160855001Y-71365999D01*
D12*
G36*
X163395001Y-71365999D02*
G01*
X163395001Y-71873999D01*
X160855001Y-71873999D01*
X160855001Y-71365999D01*
X163395001Y-71365999D01*
G37*
X163395001Y-71365999D02*
X163395001Y-71873999D01*
X160855001Y-71873999D01*
X160855001Y-71365999D01*
X163395001Y-71365999D01*
D11*
X161363001Y-70095999D02*
G75*
G03X161363001Y-70095999I-254000J0D01*
G01*
X169878001Y-77745999D02*
G75*
G03X169878001Y-77745999I-254000J0D01*
G01*
D12*
G36*
X171910001Y-79015999D02*
G01*
X171910001Y-79523999D01*
X169370001Y-79523999D01*
X169370001Y-79015999D01*
X171910001Y-79015999D01*
G37*
X171910001Y-79015999D02*
X171910001Y-79523999D01*
X169370001Y-79523999D01*
X169370001Y-79015999D01*
X171910001Y-79015999D01*
D11*
X171910001Y-79015999D02*
X169370001Y-79015999D01*
X171910001Y-79523999D02*
X171910001Y-79015999D01*
X169370001Y-79523999D02*
X171910001Y-79523999D01*
X169370001Y-79015999D02*
X169370001Y-79523999D01*
X172220001Y-78509999D02*
X172220001Y-79969999D01*
X169060001Y-78509999D02*
X169060001Y-80669999D01*
X169060001Y-78509999D02*
X169990001Y-78509999D01*
X172220001Y-78509999D02*
X171290001Y-78509999D01*
X169878001Y-73935999D02*
G75*
G03X169878001Y-73935999I-254000J0D01*
G01*
D12*
G36*
X171910001Y-75205999D02*
G01*
X171910001Y-75713999D01*
X169370001Y-75713999D01*
X169370001Y-75205999D01*
X171910001Y-75205999D01*
G37*
X171910001Y-75205999D02*
X171910001Y-75713999D01*
X169370001Y-75713999D01*
X169370001Y-75205999D01*
X171910001Y-75205999D01*
D11*
X171910001Y-75205999D02*
X169370001Y-75205999D01*
X171910001Y-75713999D02*
X171910001Y-75205999D01*
X169370001Y-75713999D02*
X171910001Y-75713999D01*
X169370001Y-75205999D02*
X169370001Y-75713999D01*
X172220001Y-74699999D02*
X172220001Y-76159999D01*
X169060001Y-74699999D02*
X169060001Y-76859999D01*
X169060001Y-74699999D02*
X169990001Y-74699999D01*
X172220001Y-74699999D02*
X171290001Y-74699999D01*
X176030001Y-78509999D02*
X176030001Y-79969999D01*
X172870001Y-78509999D02*
X172870001Y-80669999D01*
X172870001Y-78509999D02*
X173800001Y-78509999D01*
X176030001Y-78509999D02*
X175100001Y-78509999D01*
X176030001Y-74699999D02*
X175100001Y-74699999D01*
X172870001Y-74699999D02*
X173800001Y-74699999D01*
X172870001Y-74699999D02*
X172870001Y-76859999D01*
X176030001Y-74699999D02*
X176030001Y-76159999D01*
X176030001Y-70889999D02*
X176030001Y-72349999D01*
X172870001Y-70889999D02*
X172870001Y-73049999D01*
X172870001Y-70889999D02*
X173800001Y-70889999D01*
X176030001Y-70889999D02*
X175100001Y-70889999D01*
X172220001Y-70889999D02*
X171290001Y-70889999D01*
X169060001Y-70889999D02*
X169990001Y-70889999D01*
X169060001Y-70889999D02*
X169060001Y-73049999D01*
X172220001Y-70889999D02*
X172220001Y-72349999D01*
X169370001Y-71395999D02*
X169370001Y-71903999D01*
X169370001Y-71903999D02*
X171910001Y-71903999D01*
X171910001Y-71903999D02*
X171910001Y-71395999D01*
X171910001Y-71395999D02*
X169370001Y-71395999D01*
D12*
G36*
X171910001Y-71395999D02*
G01*
X171910001Y-71903999D01*
X169370001Y-71903999D01*
X169370001Y-71395999D01*
X171910001Y-71395999D01*
G37*
X171910001Y-71395999D02*
X171910001Y-71903999D01*
X169370001Y-71903999D01*
X169370001Y-71395999D01*
X171910001Y-71395999D01*
D11*
X169878001Y-70125999D02*
G75*
G03X169878001Y-70125999I-254000J0D01*
G01*
X180650000Y-78615000D02*
X179720000Y-78615000D01*
X177490000Y-78615000D02*
X178420000Y-78615000D01*
X177490000Y-78615000D02*
X177490000Y-80775000D01*
X180650000Y-78615000D02*
X180650000Y-80075000D01*
X177800000Y-79121000D02*
X177800000Y-79629000D01*
X177800000Y-79629000D02*
X180340000Y-79629000D01*
X180340000Y-79629000D02*
X180340000Y-79121000D01*
X180340000Y-79121000D02*
X177800000Y-79121000D01*
D12*
G36*
X180340000Y-79121000D02*
G01*
X180340000Y-79629000D01*
X177800000Y-79629000D01*
X177800000Y-79121000D01*
X180340000Y-79121000D01*
G37*
X180340000Y-79121000D02*
X180340000Y-79629000D01*
X177800000Y-79629000D01*
X177800000Y-79121000D01*
X180340000Y-79121000D01*
D11*
X178308000Y-77851000D02*
G75*
G03X178308000Y-77851000I-254000J0D01*
G01*
X178308000Y-74041000D02*
G75*
G03X178308000Y-74041000I-254000J0D01*
G01*
D12*
G36*
X180340000Y-75311000D02*
G01*
X180340000Y-75819000D01*
X177800000Y-75819000D01*
X177800000Y-75311000D01*
X180340000Y-75311000D01*
G37*
X180340000Y-75311000D02*
X180340000Y-75819000D01*
X177800000Y-75819000D01*
X177800000Y-75311000D01*
X180340000Y-75311000D01*
D11*
X180340000Y-75311000D02*
X177800000Y-75311000D01*
X180340000Y-75819000D02*
X180340000Y-75311000D01*
X177800000Y-75819000D02*
X180340000Y-75819000D01*
X177800000Y-75311000D02*
X177800000Y-75819000D01*
X180650000Y-74805000D02*
X180650000Y-76265000D01*
X177490000Y-74805000D02*
X177490000Y-76965000D01*
X177490000Y-74805000D02*
X178420000Y-74805000D01*
X180650000Y-74805000D02*
X179720000Y-74805000D01*
X184460000Y-78615000D02*
X183530000Y-78615000D01*
X181300000Y-78615000D02*
X182230000Y-78615000D01*
X181300000Y-78615000D02*
X181300000Y-80775000D01*
X184460000Y-78615000D02*
X184460000Y-80075000D01*
X184460000Y-74805000D02*
X184460000Y-76265000D01*
X181300000Y-74805000D02*
X181300000Y-76965000D01*
X181300000Y-74805000D02*
X182230000Y-74805000D01*
X184460000Y-74805000D02*
X183530000Y-74805000D01*
X184460000Y-70995000D02*
X183530000Y-70995000D01*
X181300000Y-70995000D02*
X182230000Y-70995000D01*
X181300000Y-70995000D02*
X181300000Y-73155000D01*
X184460000Y-70995000D02*
X184460000Y-72455000D01*
X180650000Y-70995000D02*
X179720000Y-70995000D01*
X177490000Y-70995000D02*
X178420000Y-70995000D01*
X177490000Y-70995000D02*
X177490000Y-73155000D01*
X180650000Y-70995000D02*
X180650000Y-72455000D01*
X177800000Y-71501000D02*
X177800000Y-72009000D01*
X177800000Y-72009000D02*
X180340000Y-72009000D01*
X180340000Y-72009000D02*
X180340000Y-71501000D01*
X180340000Y-71501000D02*
X177800000Y-71501000D01*
D12*
G36*
X180340000Y-71501000D02*
G01*
X180340000Y-72009000D01*
X177800000Y-72009000D01*
X177800000Y-71501000D01*
X180340000Y-71501000D01*
G37*
X180340000Y-71501000D02*
X180340000Y-72009000D01*
X177800000Y-72009000D01*
X177800000Y-71501000D01*
X180340000Y-71501000D01*
D11*
X178308000Y-70231000D02*
G75*
G03X178308000Y-70231000I-254000J0D01*
G01*
X169963001Y-63685999D02*
G75*
G03X169963001Y-63685999I-254000J0D01*
G01*
D12*
G36*
X171995001Y-64955999D02*
G01*
X171995001Y-65463999D01*
X169455001Y-65463999D01*
X169455001Y-64955999D01*
X171995001Y-64955999D01*
G37*
X171995001Y-64955999D02*
X171995001Y-65463999D01*
X169455001Y-65463999D01*
X169455001Y-64955999D01*
X171995001Y-64955999D01*
D11*
X171995001Y-64955999D02*
X169455001Y-64955999D01*
X171995001Y-65463999D02*
X171995001Y-64955999D01*
X169455001Y-65463999D02*
X171995001Y-65463999D01*
X169455001Y-64955999D02*
X169455001Y-65463999D01*
X172305001Y-64449999D02*
X172305001Y-65909999D01*
X169145001Y-64449999D02*
X169145001Y-66609999D01*
X169145001Y-64449999D02*
X170075001Y-64449999D01*
X172305001Y-64449999D02*
X171375001Y-64449999D01*
X169963001Y-59875999D02*
G75*
G03X169963001Y-59875999I-254000J0D01*
G01*
D12*
G36*
X171995001Y-61145999D02*
G01*
X171995001Y-61653999D01*
X169455001Y-61653999D01*
X169455001Y-61145999D01*
X171995001Y-61145999D01*
G37*
X171995001Y-61145999D02*
X171995001Y-61653999D01*
X169455001Y-61653999D01*
X169455001Y-61145999D01*
X171995001Y-61145999D01*
D11*
X171995001Y-61145999D02*
X169455001Y-61145999D01*
X171995001Y-61653999D02*
X171995001Y-61145999D01*
X169455001Y-61653999D02*
X171995001Y-61653999D01*
X169455001Y-61145999D02*
X169455001Y-61653999D01*
X172305001Y-60639999D02*
X172305001Y-62099999D01*
X169145001Y-60639999D02*
X169145001Y-62799999D01*
X169145001Y-60639999D02*
X170075001Y-60639999D01*
X172305001Y-60639999D02*
X171375001Y-60639999D01*
X176115001Y-64449999D02*
X176115001Y-65909999D01*
X172955001Y-64449999D02*
X172955001Y-66609999D01*
X172955001Y-64449999D02*
X173885001Y-64449999D01*
X176115001Y-64449999D02*
X175185001Y-64449999D01*
X176115001Y-60639999D02*
X175185001Y-60639999D01*
X172955001Y-60639999D02*
X173885001Y-60639999D01*
X172955001Y-60639999D02*
X172955001Y-62799999D01*
X176115001Y-60639999D02*
X176115001Y-62099999D01*
X176332000Y-56644000D02*
X175402000Y-56644000D01*
X173172000Y-56644000D02*
X174102000Y-56644000D01*
X173172000Y-56644000D02*
X173172000Y-58804000D01*
X176332000Y-56644000D02*
X176332000Y-58104000D01*
X172268000Y-56644000D02*
X171338000Y-56644000D01*
X169108000Y-56644000D02*
X170038000Y-56644000D01*
X169108000Y-56644000D02*
X169108000Y-58804000D01*
X172268000Y-56644000D02*
X172268000Y-58104000D01*
X169418000Y-57150000D02*
X169418000Y-57658000D01*
X169418000Y-57658000D02*
X171958000Y-57658000D01*
X171958000Y-57658000D02*
X171958000Y-57150000D01*
X171958000Y-57150000D02*
X169418000Y-57150000D01*
D12*
G36*
X171958000Y-57150000D02*
G01*
X171958000Y-57658000D01*
X169418000Y-57658000D01*
X169418000Y-57150000D01*
X171958000Y-57150000D01*
G37*
X171958000Y-57150000D02*
X171958000Y-57658000D01*
X169418000Y-57658000D01*
X169418000Y-57150000D01*
X171958000Y-57150000D01*
D11*
X169926000Y-55880000D02*
G75*
G03X169926000Y-55880000I-254000J0D01*
G01*
X161163000Y-63881000D02*
G75*
G03X161163000Y-63881000I-254000J0D01*
G01*
D12*
G36*
X163195000Y-65151000D02*
G01*
X163195000Y-65659000D01*
X160655000Y-65659000D01*
X160655000Y-65151000D01*
X163195000Y-65151000D01*
G37*
X163195000Y-65151000D02*
X163195000Y-65659000D01*
X160655000Y-65659000D01*
X160655000Y-65151000D01*
X163195000Y-65151000D01*
D11*
X163195000Y-65151000D02*
X160655000Y-65151000D01*
X163195000Y-65659000D02*
X163195000Y-65151000D01*
X160655000Y-65659000D02*
X163195000Y-65659000D01*
X160655000Y-65151000D02*
X160655000Y-65659000D01*
X163505000Y-64645000D02*
X163505000Y-66105000D01*
X160345000Y-64645000D02*
X160345000Y-66805000D01*
X160345000Y-64645000D02*
X161275000Y-64645000D01*
X163505000Y-64645000D02*
X162575000Y-64645000D01*
X161163000Y-60071000D02*
G75*
G03X161163000Y-60071000I-254000J0D01*
G01*
D12*
G36*
X163195000Y-61341000D02*
G01*
X163195000Y-61849000D01*
X160655000Y-61849000D01*
X160655000Y-61341000D01*
X163195000Y-61341000D01*
G37*
X163195000Y-61341000D02*
X163195000Y-61849000D01*
X160655000Y-61849000D01*
X160655000Y-61341000D01*
X163195000Y-61341000D01*
D11*
X163195000Y-61341000D02*
X160655000Y-61341000D01*
X163195000Y-61849000D02*
X163195000Y-61341000D01*
X160655000Y-61849000D02*
X163195000Y-61849000D01*
X160655000Y-61341000D02*
X160655000Y-61849000D01*
X163505000Y-60835000D02*
X163505000Y-62295000D01*
X160345000Y-60835000D02*
X160345000Y-62995000D01*
X160345000Y-60835000D02*
X161275000Y-60835000D01*
X163505000Y-60835000D02*
X162575000Y-60835000D01*
X167315000Y-64645000D02*
X166385000Y-64645000D01*
X164155000Y-64645000D02*
X165085000Y-64645000D01*
X164155000Y-64645000D02*
X164155000Y-66805000D01*
X167315000Y-64645000D02*
X167315000Y-66105000D01*
X167315000Y-60835000D02*
X167315000Y-62295000D01*
X164155000Y-60835000D02*
X164155000Y-62995000D01*
X164155000Y-60835000D02*
X165085000Y-60835000D01*
X167315000Y-60835000D02*
X166385000Y-60835000D01*
X179914999Y-62474999D02*
X179914999Y-63404999D01*
X179914999Y-65634999D02*
X179914999Y-64704999D01*
X179914999Y-65634999D02*
X182074999Y-65634999D01*
X179914999Y-62474999D02*
X181374999Y-62474999D01*
X180420999Y-65324999D02*
X180928999Y-65324999D01*
X180928999Y-65324999D02*
X180928999Y-62784999D01*
X180928999Y-62784999D02*
X180420999Y-62784999D01*
X180420999Y-62784999D02*
X180420999Y-65324999D01*
D12*
G36*
X180420999Y-62784999D02*
G01*
X180928999Y-62784999D01*
X180928999Y-65324999D01*
X180420999Y-65324999D01*
X180420999Y-62784999D01*
G37*
X180420999Y-62784999D02*
X180928999Y-62784999D01*
X180928999Y-65324999D01*
X180420999Y-65324999D01*
X180420999Y-62784999D01*
D11*
X179404999Y-65070999D02*
G75*
G03X179404999Y-65070999I-254000J0D01*
G01*
X179925000Y-58625000D02*
X179925000Y-59555000D01*
X179925000Y-61785000D02*
X179925000Y-60855000D01*
X179925000Y-61785000D02*
X182085000Y-61785000D01*
X179925000Y-58625000D02*
X181385000Y-58625000D01*
X140124999Y-73914001D02*
G75*
G03X140124999Y-73914001I-254000J0D01*
G01*
D12*
G36*
X137584999Y-72644001D02*
G01*
X137584999Y-72136001D01*
X140124999Y-72136001D01*
X140124999Y-72644001D01*
X137584999Y-72644001D01*
G37*
X137584999Y-72644001D02*
X137584999Y-72136001D01*
X140124999Y-72136001D01*
X140124999Y-72644001D01*
X137584999Y-72644001D01*
D11*
X137584999Y-72644001D02*
X140124999Y-72644001D01*
X137584999Y-72136001D02*
X137584999Y-72644001D01*
X140124999Y-72136001D02*
X137584999Y-72136001D01*
X140124999Y-72644001D02*
X140124999Y-72136001D01*
X137274999Y-73150001D02*
X137274999Y-71690001D01*
X140434999Y-73150001D02*
X140434999Y-70990001D01*
X140434999Y-73150001D02*
X139504999Y-73150001D01*
X137274999Y-73150001D02*
X138204999Y-73150001D01*
X137274999Y-76960001D02*
X138204999Y-76960001D01*
X140434999Y-76960001D02*
X139504999Y-76960001D01*
X140434999Y-76960001D02*
X140434999Y-74800001D01*
X137274999Y-76960001D02*
X137274999Y-75500001D01*
X140124999Y-76454001D02*
X140124999Y-75946001D01*
X140124999Y-75946001D02*
X137584999Y-75946001D01*
X137584999Y-75946001D02*
X137584999Y-76454001D01*
X137584999Y-76454001D02*
X140124999Y-76454001D01*
D12*
G36*
X137584999Y-76454001D02*
G01*
X137584999Y-75946001D01*
X140124999Y-75946001D01*
X140124999Y-76454001D01*
X137584999Y-76454001D01*
G37*
X137584999Y-76454001D02*
X137584999Y-75946001D01*
X140124999Y-75946001D01*
X140124999Y-76454001D01*
X137584999Y-76454001D01*
D11*
X140124999Y-77724001D02*
G75*
G03X140124999Y-77724001I-254000J0D01*
G01*
X133464999Y-73150001D02*
X133464999Y-71690001D01*
X136624999Y-73150001D02*
X136624999Y-70990001D01*
X136624999Y-73150001D02*
X135694999Y-73150001D01*
X133464999Y-73150001D02*
X134394999Y-73150001D01*
X133464999Y-76960001D02*
X134394999Y-76960001D01*
X136624999Y-76960001D02*
X135694999Y-76960001D01*
X136624999Y-76960001D02*
X136624999Y-74800001D01*
X133464999Y-76960001D02*
X133464999Y-75500001D01*
X122430000Y-62555000D02*
X122430000Y-63485000D01*
X122430000Y-65715000D02*
X122430000Y-64785000D01*
X122430000Y-65715000D02*
X124590000Y-65715000D01*
X122430000Y-62555000D02*
X123890000Y-62555000D01*
X122936000Y-65405000D02*
X123444000Y-65405000D01*
X123444000Y-65405000D02*
X123444000Y-62865000D01*
X123444000Y-62865000D02*
X122936000Y-62865000D01*
X122936000Y-62865000D02*
X122936000Y-65405000D01*
D12*
G36*
X122936000Y-62865000D02*
G01*
X123444000Y-62865000D01*
X123444000Y-65405000D01*
X122936000Y-65405000D01*
X122936000Y-62865000D01*
G37*
X122936000Y-62865000D02*
X123444000Y-62865000D01*
X123444000Y-65405000D01*
X122936000Y-65405000D01*
X122936000Y-62865000D01*
D11*
X121920000Y-65151000D02*
G75*
G03X121920000Y-65151000I-254000J0D01*
G01*
X123950000Y-61775001D02*
X122490000Y-61775001D01*
X123950000Y-58615001D02*
X121790000Y-58615001D01*
X123950000Y-58615001D02*
X123950000Y-59545001D01*
X123950000Y-61775001D02*
X123950000Y-60845001D01*
X126240000Y-62555000D02*
X126240000Y-63485000D01*
X126240000Y-65715000D02*
X126240000Y-64785000D01*
X126240000Y-65715000D02*
X128400000Y-65715000D01*
X126240000Y-62555000D02*
X127700000Y-62555000D01*
X126746000Y-65405000D02*
X127254000Y-65405000D01*
X127254000Y-65405000D02*
X127254000Y-62865000D01*
X127254000Y-62865000D02*
X126746000Y-62865000D01*
X126746000Y-62865000D02*
X126746000Y-65405000D01*
D12*
G36*
X126746000Y-62865000D02*
G01*
X127254000Y-62865000D01*
X127254000Y-65405000D01*
X126746000Y-65405000D01*
X126746000Y-62865000D01*
G37*
X126746000Y-62865000D02*
X127254000Y-62865000D01*
X127254000Y-65405000D01*
X126746000Y-65405000D01*
X126746000Y-62865000D01*
D11*
X125730000Y-65151000D02*
G75*
G03X125730000Y-65151000I-254000J0D01*
G01*
X127760000Y-61775001D02*
X127760000Y-60845001D01*
X127760000Y-58615001D02*
X127760000Y-59545001D01*
X127760000Y-58615001D02*
X125600000Y-58615001D01*
X127760000Y-61775001D02*
X126300000Y-61775001D01*
X121168001Y-59269001D02*
G75*
G03X121168001Y-59269001I-254000J0D01*
G01*
D12*
G36*
X119644001Y-61555001D02*
G01*
X119136001Y-61555001D01*
X119136001Y-59015001D01*
X119644001Y-59015001D01*
X119644001Y-61555001D01*
G37*
X119644001Y-61555001D02*
X119136001Y-61555001D01*
X119136001Y-59015001D01*
X119644001Y-59015001D01*
X119644001Y-61555001D01*
D11*
X119644001Y-61555001D02*
X119644001Y-59015001D01*
X119136001Y-61555001D02*
X119644001Y-61555001D01*
X119136001Y-59015001D02*
X119136001Y-61555001D01*
X119644001Y-59015001D02*
X119136001Y-59015001D01*
X120150001Y-61865001D02*
X118690001Y-61865001D01*
X120150001Y-58705001D02*
X117990001Y-58705001D01*
X120150001Y-58705001D02*
X120150001Y-59635001D01*
X120150001Y-61865001D02*
X120150001Y-60935001D01*
X120140000Y-65715000D02*
X118680000Y-65715000D01*
X120140000Y-62555000D02*
X117980000Y-62555000D01*
X120140000Y-62555000D02*
X120140000Y-63485000D01*
X120140000Y-65715000D02*
X120140000Y-64785000D01*
X127920002Y-68392779D02*
X127920002Y-68067221D01*
X126900002Y-68392779D02*
X126900002Y-68067221D01*
X155712779Y-59319998D02*
X155387221Y-59319998D01*
X155712779Y-58299998D02*
X155387221Y-58299998D01*
X113440002Y-68767779D02*
X113440002Y-68442221D01*
X112420002Y-68767779D02*
X112420002Y-68442221D01*
X140720002Y-64527779D02*
X140720002Y-64202221D01*
X139700002Y-64527779D02*
X139700002Y-64202221D01*
X151028002Y-67123779D02*
X151028002Y-66798221D01*
X152048002Y-67123779D02*
X152048002Y-66798221D01*
X132249999Y-79832222D02*
X132249999Y-80157780D01*
X133269999Y-79832222D02*
X133269999Y-80157780D01*
X160325002Y-52867779D02*
X160325002Y-52542221D01*
X161345002Y-52867779D02*
X161345002Y-52542221D01*
X176560002Y-52602779D02*
X176560002Y-52277221D01*
X175540002Y-52602779D02*
X175540002Y-52277221D01*
X144835002Y-52747779D02*
X144835002Y-52422221D01*
X143815002Y-52747779D02*
X143815002Y-52422221D01*
X137702220Y-43305000D02*
X138027778Y-43305000D01*
X137702220Y-44325000D02*
X138027778Y-44325000D01*
X157882220Y-44350000D02*
X158207778Y-44350000D01*
X157882220Y-43330000D02*
X158207778Y-43330000D01*
X178137220Y-43270000D02*
X178462778Y-43270000D01*
X178137220Y-44290000D02*
X178462778Y-44290000D01*
X112867221Y-47115000D02*
X113192779Y-47115000D01*
X112867221Y-48135000D02*
X113192779Y-48135000D01*
X112867221Y-51560000D02*
X113192779Y-51560000D01*
X112867221Y-52580000D02*
X113192779Y-52580000D01*
X112867221Y-57025000D02*
X113192779Y-57025000D01*
X112867221Y-56005000D02*
X113192779Y-56005000D01*
X117312221Y-48135000D02*
X117637779Y-48135000D01*
X117312221Y-47115000D02*
X117637779Y-47115000D01*
X117312221Y-51560000D02*
X117637779Y-51560000D01*
X117312221Y-52580000D02*
X117637779Y-52580000D01*
X117312221Y-56005000D02*
X117637779Y-56005000D01*
X117312221Y-57025000D02*
X117637779Y-57025000D01*
X121757221Y-48135000D02*
X122082779Y-48135000D01*
X121757221Y-47115000D02*
X122082779Y-47115000D01*
X121757221Y-52580000D02*
X122082779Y-52580000D01*
X121757221Y-51560000D02*
X122082779Y-51560000D01*
X121757221Y-56005000D02*
X122082779Y-56005000D01*
X121757221Y-57025000D02*
X122082779Y-57025000D01*
X128830001Y-47925001D02*
X133330001Y-47925001D01*
X127580001Y-43925001D02*
X127580001Y-45425001D01*
X133330001Y-41425001D02*
X128830001Y-41425001D01*
X134580001Y-45425001D02*
X134580001Y-43925001D01*
X154760001Y-45450001D02*
X154760001Y-43950001D01*
X153510001Y-41450001D02*
X149010001Y-41450001D01*
X147760001Y-43950001D02*
X147760001Y-45450001D01*
X149010001Y-47950001D02*
X153510001Y-47950001D01*
X169265001Y-47890001D02*
X173765001Y-47890001D01*
X168015001Y-43890001D02*
X168015001Y-45390001D01*
X173765001Y-41390001D02*
X169265001Y-41390001D01*
X175015001Y-45390001D02*
X175015001Y-43890001D01*
X149225000Y-51375000D02*
X150555000Y-51375000D01*
X150555000Y-51375000D02*
X150555000Y-52705000D01*
X150555000Y-53915000D02*
X150555000Y-54035000D01*
X147895000Y-53915000D02*
X147895000Y-54035000D01*
X147895000Y-54035000D02*
X150555000Y-54035000D01*
X163135000Y-54035000D02*
X165795000Y-54035000D01*
X163135000Y-53915000D02*
X163135000Y-54035000D01*
X165795000Y-53915000D02*
X165795000Y-54035000D01*
X165795000Y-51375000D02*
X165795000Y-52705000D01*
X164465000Y-51375000D02*
X165795000Y-51375000D01*
X141545000Y-43875000D02*
X144205000Y-43875000D01*
X141545000Y-43755000D02*
X141545000Y-43875000D01*
X144205000Y-43755000D02*
X144205000Y-43875000D01*
X144205000Y-41215000D02*
X144205000Y-42545000D01*
X142875000Y-41215000D02*
X144205000Y-41215000D01*
X162560000Y-40580000D02*
X163890000Y-40580000D01*
X163890000Y-40580000D02*
X163890000Y-41910000D01*
X163890000Y-43120000D02*
X163890000Y-43240000D01*
X161230000Y-43120000D02*
X161230000Y-43240000D01*
X161230000Y-43240000D02*
X163890000Y-43240000D01*
X132080000Y-51375000D02*
X133410000Y-51375000D01*
X133410000Y-51375000D02*
X133410000Y-52705000D01*
X133410000Y-53915000D02*
X133410000Y-54035000D01*
X130750000Y-53915000D02*
X130750000Y-54035000D01*
X130750000Y-54035000D02*
X133410000Y-54035000D01*
X181550000Y-43240000D02*
X184210000Y-43240000D01*
X181550000Y-43120000D02*
X181550000Y-43240000D01*
X184210000Y-43120000D02*
X184210000Y-43240000D01*
X184210000Y-40580000D02*
X184210000Y-41910000D01*
X182880000Y-40580000D02*
X184210000Y-40580000D01*
X142305000Y-45830000D02*
X140405000Y-45830000D01*
X140905000Y-48150000D02*
X142305000Y-48150000D01*
X162485000Y-45855000D02*
X160585000Y-45855000D01*
X161085000Y-48175000D02*
X162485000Y-48175000D01*
X181340000Y-48115000D02*
X182740000Y-48115000D01*
X182740000Y-45795000D02*
X180840000Y-45795000D01*
D13*
X92462142Y-62632378D02*
X92128809Y-62156188D01*
X91890714Y-62632378D02*
X91890714Y-61632378D01*
X92271666Y-61632378D01*
X92366904Y-61679998D01*
X92414523Y-61727617D01*
X92462142Y-61822855D01*
X92462142Y-61965712D01*
X92414523Y-62060950D01*
X92366904Y-62108569D01*
X92271666Y-62156188D01*
X91890714Y-62156188D01*
X93414523Y-62632378D02*
X92843095Y-62632378D01*
X93128809Y-62632378D02*
X93128809Y-61632378D01*
X93033571Y-61775236D01*
X92938333Y-61870474D01*
X92843095Y-61918093D01*
X93747857Y-61632378D02*
X94366904Y-61632378D01*
X94033571Y-62013331D01*
X94176428Y-62013331D01*
X94271666Y-62060950D01*
X94319285Y-62108569D01*
X94366904Y-62203807D01*
X94366904Y-62441902D01*
X94319285Y-62537140D01*
X94271666Y-62584759D01*
X94176428Y-62632378D01*
X93890714Y-62632378D01*
X93795476Y-62584759D01*
X93747857Y-62537140D01*
X91875715Y-65982379D02*
X91875715Y-64982379D01*
X92113810Y-64982379D01*
X92256667Y-65029999D01*
X92351905Y-65125237D01*
X92399524Y-65220475D01*
X92447143Y-65410951D01*
X92447143Y-65553808D01*
X92399524Y-65744284D01*
X92351905Y-65839522D01*
X92256667Y-65934760D01*
X92113810Y-65982379D01*
X91875715Y-65982379D01*
X93399524Y-65982379D02*
X92828096Y-65982379D01*
X93113810Y-65982379D02*
X93113810Y-64982379D01*
X93018572Y-65125237D01*
X92923334Y-65220475D01*
X92828096Y-65268094D01*
X94018572Y-64982379D02*
X94113810Y-64982379D01*
X94209048Y-65029999D01*
X94256667Y-65077618D01*
X94304286Y-65172856D01*
X94351905Y-65363332D01*
X94351905Y-65601427D01*
X94304286Y-65791903D01*
X94256667Y-65887141D01*
X94209048Y-65934760D01*
X94113810Y-65982379D01*
X94018572Y-65982379D01*
X93923334Y-65934760D01*
X93875715Y-65887141D01*
X93828096Y-65791903D01*
X93780477Y-65601427D01*
X93780477Y-65363332D01*
X93828096Y-65172856D01*
X93875715Y-65077618D01*
X93923334Y-65029999D01*
X94018572Y-64982379D01*
X100798333Y-43417142D02*
X100750714Y-43464761D01*
X100607857Y-43512380D01*
X100512619Y-43512380D01*
X100369761Y-43464761D01*
X100274523Y-43369523D01*
X100226904Y-43274285D01*
X100179285Y-43083809D01*
X100179285Y-42940952D01*
X100226904Y-42750476D01*
X100274523Y-42655238D01*
X100369761Y-42560000D01*
X100512619Y-42512380D01*
X100607857Y-42512380D01*
X100750714Y-42560000D01*
X100798333Y-42607619D01*
X101750714Y-43512380D02*
X101179285Y-43512380D01*
X101465000Y-43512380D02*
X101465000Y-42512380D01*
X101369761Y-42655238D01*
X101274523Y-42750476D01*
X101179285Y-42798095D01*
X137698332Y-47117141D02*
X137650713Y-47164760D01*
X137507856Y-47212379D01*
X137412618Y-47212379D01*
X137269760Y-47164760D01*
X137174522Y-47069522D01*
X137126903Y-46974284D01*
X137079284Y-46783808D01*
X137079284Y-46640951D01*
X137126903Y-46450475D01*
X137174522Y-46355237D01*
X137269760Y-46259999D01*
X137412618Y-46212379D01*
X137507856Y-46212379D01*
X137650713Y-46259999D01*
X137698332Y-46307618D01*
X138079284Y-46307618D02*
X138126903Y-46259999D01*
X138222141Y-46212379D01*
X138460237Y-46212379D01*
X138555475Y-46259999D01*
X138603094Y-46307618D01*
X138650713Y-46402856D01*
X138650713Y-46498094D01*
X138603094Y-46640951D01*
X138031665Y-47212379D01*
X138650713Y-47212379D01*
X157878332Y-47142141D02*
X157830713Y-47189760D01*
X157687856Y-47237379D01*
X157592618Y-47237379D01*
X157449760Y-47189760D01*
X157354522Y-47094522D01*
X157306903Y-46999284D01*
X157259284Y-46808808D01*
X157259284Y-46665951D01*
X157306903Y-46475475D01*
X157354522Y-46380237D01*
X157449760Y-46284999D01*
X157592618Y-46237379D01*
X157687856Y-46237379D01*
X157830713Y-46284999D01*
X157878332Y-46332618D01*
X158211665Y-46237379D02*
X158830713Y-46237379D01*
X158497379Y-46618332D01*
X158640237Y-46618332D01*
X158735475Y-46665951D01*
X158783094Y-46713570D01*
X158830713Y-46808808D01*
X158830713Y-47046903D01*
X158783094Y-47142141D01*
X158735475Y-47189760D01*
X158640237Y-47237379D01*
X158354522Y-47237379D01*
X158259284Y-47189760D01*
X158211665Y-47142141D01*
X178133332Y-47082141D02*
X178085713Y-47129760D01*
X177942856Y-47177379D01*
X177847618Y-47177379D01*
X177704760Y-47129760D01*
X177609522Y-47034522D01*
X177561903Y-46939284D01*
X177514284Y-46748808D01*
X177514284Y-46605951D01*
X177561903Y-46415475D01*
X177609522Y-46320237D01*
X177704760Y-46224999D01*
X177847618Y-46177379D01*
X177942856Y-46177379D01*
X178085713Y-46224999D01*
X178133332Y-46272618D01*
X178990475Y-46510713D02*
X178990475Y-47177379D01*
X178752379Y-46129760D02*
X178514284Y-46844046D01*
X179133332Y-46844046D01*
X123082381Y-68953096D02*
X122082381Y-68953096D01*
X122082381Y-68715001D01*
X122130001Y-68572143D01*
X122225239Y-68476905D01*
X122320477Y-68429286D01*
X122510953Y-68381667D01*
X122653810Y-68381667D01*
X122844286Y-68429286D01*
X122939524Y-68476905D01*
X123034762Y-68572143D01*
X123082381Y-68715001D01*
X123082381Y-68953096D01*
X123082381Y-67429286D02*
X123082381Y-68000715D01*
X123082381Y-67715001D02*
X122082381Y-67715001D01*
X122225239Y-67810239D01*
X122320477Y-67905477D01*
X122368096Y-68000715D01*
X154796905Y-64042379D02*
X154796905Y-63042379D01*
X155035001Y-63042379D01*
X155177858Y-63089999D01*
X155273096Y-63185237D01*
X155320715Y-63280475D01*
X155368334Y-63470951D01*
X155368334Y-63613808D01*
X155320715Y-63804284D01*
X155273096Y-63899522D01*
X155177858Y-63994760D01*
X155035001Y-64042379D01*
X154796905Y-64042379D01*
X155749286Y-63137618D02*
X155796905Y-63089999D01*
X155892143Y-63042379D01*
X156130239Y-63042379D01*
X156225477Y-63089999D01*
X156273096Y-63137618D01*
X156320715Y-63232856D01*
X156320715Y-63328094D01*
X156273096Y-63470951D01*
X155701667Y-64042379D01*
X156320715Y-64042379D01*
X108602381Y-69328096D02*
X107602381Y-69328096D01*
X107602381Y-69090001D01*
X107650001Y-68947143D01*
X107745239Y-68851905D01*
X107840477Y-68804286D01*
X108030953Y-68756667D01*
X108173810Y-68756667D01*
X108364286Y-68804286D01*
X108459524Y-68851905D01*
X108554762Y-68947143D01*
X108602381Y-69090001D01*
X108602381Y-69328096D01*
X107602381Y-68423334D02*
X107602381Y-67804286D01*
X107983334Y-68137620D01*
X107983334Y-67994762D01*
X108030953Y-67899524D01*
X108078572Y-67851905D01*
X108173810Y-67804286D01*
X108411905Y-67804286D01*
X108507143Y-67851905D01*
X108554762Y-67899524D01*
X108602381Y-67994762D01*
X108602381Y-68280477D01*
X108554762Y-68375715D01*
X108507143Y-68423334D01*
X135882381Y-65088096D02*
X134882381Y-65088096D01*
X134882381Y-64850001D01*
X134930001Y-64707143D01*
X135025239Y-64611905D01*
X135120477Y-64564286D01*
X135310953Y-64516667D01*
X135453810Y-64516667D01*
X135644286Y-64564286D01*
X135739524Y-64611905D01*
X135834762Y-64707143D01*
X135882381Y-64850001D01*
X135882381Y-65088096D01*
X135215715Y-63659524D02*
X135882381Y-63659524D01*
X134834762Y-63897620D02*
X135549048Y-64135715D01*
X135549048Y-63516667D01*
X147210381Y-67684096D02*
X146210381Y-67684096D01*
X146210381Y-67446001D01*
X146258001Y-67303143D01*
X146353239Y-67207905D01*
X146448477Y-67160286D01*
X146638953Y-67112667D01*
X146781810Y-67112667D01*
X146972286Y-67160286D01*
X147067524Y-67207905D01*
X147162762Y-67303143D01*
X147210381Y-67446001D01*
X147210381Y-67684096D01*
X146210381Y-66207905D02*
X146210381Y-66684096D01*
X146686572Y-66731715D01*
X146638953Y-66684096D01*
X146591334Y-66588858D01*
X146591334Y-66350762D01*
X146638953Y-66255524D01*
X146686572Y-66207905D01*
X146781810Y-66160286D01*
X147019905Y-66160286D01*
X147115143Y-66207905D01*
X147162762Y-66255524D01*
X147210381Y-66350762D01*
X147210381Y-66588858D01*
X147162762Y-66684096D01*
X147115143Y-66731715D01*
X137992380Y-80748095D02*
X136992380Y-80748095D01*
X136992380Y-80510000D01*
X137040000Y-80367142D01*
X137135238Y-80271904D01*
X137230476Y-80224285D01*
X137420952Y-80176666D01*
X137563809Y-80176666D01*
X137754285Y-80224285D01*
X137849523Y-80271904D01*
X137944761Y-80367142D01*
X137992380Y-80510000D01*
X137992380Y-80748095D01*
X136992380Y-79319523D02*
X136992380Y-79510000D01*
X137040000Y-79605238D01*
X137087619Y-79652857D01*
X137230476Y-79748095D01*
X137420952Y-79795714D01*
X137801904Y-79795714D01*
X137897142Y-79748095D01*
X137944761Y-79700476D01*
X137992380Y-79605238D01*
X137992380Y-79414761D01*
X137944761Y-79319523D01*
X137897142Y-79271904D01*
X137801904Y-79224285D01*
X137563809Y-79224285D01*
X137468571Y-79271904D01*
X137420952Y-79319523D01*
X137373333Y-79414761D01*
X137373333Y-79605238D01*
X137420952Y-79700476D01*
X137468571Y-79748095D01*
X137563809Y-79795714D01*
X156507381Y-53428096D02*
X155507381Y-53428096D01*
X155507381Y-53190001D01*
X155555001Y-53047143D01*
X155650239Y-52951905D01*
X155745477Y-52904286D01*
X155935953Y-52856667D01*
X156078810Y-52856667D01*
X156269286Y-52904286D01*
X156364524Y-52951905D01*
X156459762Y-53047143D01*
X156507381Y-53190001D01*
X156507381Y-53428096D01*
X155507381Y-52523334D02*
X155507381Y-51856667D01*
X156507381Y-52285239D01*
X171722381Y-53163096D02*
X170722381Y-53163096D01*
X170722381Y-52925001D01*
X170770001Y-52782143D01*
X170865239Y-52686905D01*
X170960477Y-52639286D01*
X171150953Y-52591667D01*
X171293810Y-52591667D01*
X171484286Y-52639286D01*
X171579524Y-52686905D01*
X171674762Y-52782143D01*
X171722381Y-52925001D01*
X171722381Y-53163096D01*
X171150953Y-52020239D02*
X171103334Y-52115477D01*
X171055715Y-52163096D01*
X170960477Y-52210715D01*
X170912858Y-52210715D01*
X170817620Y-52163096D01*
X170770001Y-52115477D01*
X170722381Y-52020239D01*
X170722381Y-51829762D01*
X170770001Y-51734524D01*
X170817620Y-51686905D01*
X170912858Y-51639286D01*
X170960477Y-51639286D01*
X171055715Y-51686905D01*
X171103334Y-51734524D01*
X171150953Y-51829762D01*
X171150953Y-52020239D01*
X171198572Y-52115477D01*
X171246191Y-52163096D01*
X171341429Y-52210715D01*
X171531905Y-52210715D01*
X171627143Y-52163096D01*
X171674762Y-52115477D01*
X171722381Y-52020239D01*
X171722381Y-51829762D01*
X171674762Y-51734524D01*
X171627143Y-51686905D01*
X171531905Y-51639286D01*
X171341429Y-51639286D01*
X171246191Y-51686905D01*
X171198572Y-51734524D01*
X171150953Y-51829762D01*
X139997381Y-53308096D02*
X138997381Y-53308096D01*
X138997381Y-53070001D01*
X139045001Y-52927143D01*
X139140239Y-52831905D01*
X139235477Y-52784286D01*
X139425953Y-52736667D01*
X139568810Y-52736667D01*
X139759286Y-52784286D01*
X139854524Y-52831905D01*
X139949762Y-52927143D01*
X139997381Y-53070001D01*
X139997381Y-53308096D01*
X139997381Y-52260477D02*
X139997381Y-52070001D01*
X139949762Y-51974762D01*
X139902143Y-51927143D01*
X139759286Y-51831905D01*
X139568810Y-51784286D01*
X139187858Y-51784286D01*
X139092620Y-51831905D01*
X139045001Y-51879524D01*
X138997381Y-51974762D01*
X138997381Y-52165239D01*
X139045001Y-52260477D01*
X139092620Y-52308096D01*
X139187858Y-52355715D01*
X139425953Y-52355715D01*
X139521191Y-52308096D01*
X139568810Y-52260477D01*
X139616429Y-52165239D01*
X139616429Y-51974762D01*
X139568810Y-51879524D01*
X139521191Y-51831905D01*
X139425953Y-51784286D01*
X100547381Y-40898332D02*
X101261667Y-40898332D01*
X101404524Y-40945951D01*
X101499762Y-41041189D01*
X101547381Y-41184046D01*
X101547381Y-41279284D01*
X101547381Y-39898332D02*
X101547381Y-40469760D01*
X101547381Y-40184046D02*
X100547381Y-40184046D01*
X100690239Y-40279284D01*
X100785477Y-40374522D01*
X100833096Y-40469760D01*
X89836666Y-44962380D02*
X89836666Y-45676666D01*
X89789047Y-45819523D01*
X89693809Y-45914761D01*
X89550952Y-45962380D01*
X89455714Y-45962380D01*
X90265238Y-45057619D02*
X90312857Y-45010000D01*
X90408095Y-44962380D01*
X90646190Y-44962380D01*
X90741428Y-45010000D01*
X90789047Y-45057619D01*
X90836666Y-45152857D01*
X90836666Y-45248095D01*
X90789047Y-45390952D01*
X90217619Y-45962380D01*
X90836666Y-45962380D01*
X92372380Y-40973333D02*
X93086666Y-40973333D01*
X93229523Y-41020952D01*
X93324761Y-41116190D01*
X93372380Y-41259047D01*
X93372380Y-41354285D01*
X92372380Y-40592380D02*
X92372380Y-39973333D01*
X92753333Y-40306666D01*
X92753333Y-40163809D01*
X92800952Y-40068571D01*
X92848571Y-40020952D01*
X92943809Y-39973333D01*
X93181904Y-39973333D01*
X93277142Y-40020952D01*
X93324761Y-40068571D01*
X93372380Y-40163809D01*
X93372380Y-40449523D01*
X93324761Y-40544761D01*
X93277142Y-40592380D01*
X97012380Y-81613333D02*
X97726666Y-81613333D01*
X97869523Y-81660952D01*
X97964761Y-81756190D01*
X98012380Y-81899047D01*
X98012380Y-81994285D01*
X97345714Y-80708571D02*
X98012380Y-80708571D01*
X96964761Y-80946666D02*
X97679047Y-81184761D01*
X97679047Y-80565714D01*
X126432382Y-68396666D02*
X125956192Y-68730000D01*
X126432382Y-68968095D02*
X125432382Y-68968095D01*
X125432382Y-68587142D01*
X125480002Y-68491904D01*
X125527621Y-68444285D01*
X125622859Y-68396666D01*
X125765716Y-68396666D01*
X125860954Y-68444285D01*
X125908573Y-68491904D01*
X125956192Y-68587142D01*
X125956192Y-68968095D01*
X126432382Y-67444285D02*
X126432382Y-68015714D01*
X126432382Y-67730000D02*
X125432382Y-67730000D01*
X125575240Y-67825238D01*
X125670478Y-67920476D01*
X125718097Y-68015714D01*
X155383333Y-60692378D02*
X155050000Y-60216188D01*
X154811904Y-60692378D02*
X154811904Y-59692378D01*
X155192857Y-59692378D01*
X155288095Y-59739998D01*
X155335714Y-59787617D01*
X155383333Y-59882855D01*
X155383333Y-60025712D01*
X155335714Y-60120950D01*
X155288095Y-60168569D01*
X155192857Y-60216188D01*
X154811904Y-60216188D01*
X155764285Y-59787617D02*
X155811904Y-59739998D01*
X155907142Y-59692378D01*
X156145238Y-59692378D01*
X156240476Y-59739998D01*
X156288095Y-59787617D01*
X156335714Y-59882855D01*
X156335714Y-59978093D01*
X156288095Y-60120950D01*
X155716666Y-60692378D01*
X156335714Y-60692378D01*
X111952382Y-68771666D02*
X111476192Y-69105000D01*
X111952382Y-69343095D02*
X110952382Y-69343095D01*
X110952382Y-68962142D01*
X111000002Y-68866904D01*
X111047621Y-68819285D01*
X111142859Y-68771666D01*
X111285716Y-68771666D01*
X111380954Y-68819285D01*
X111428573Y-68866904D01*
X111476192Y-68962142D01*
X111476192Y-69343095D01*
X110952382Y-68438333D02*
X110952382Y-67819285D01*
X111333335Y-68152619D01*
X111333335Y-68009761D01*
X111380954Y-67914523D01*
X111428573Y-67866904D01*
X111523811Y-67819285D01*
X111761906Y-67819285D01*
X111857144Y-67866904D01*
X111904763Y-67914523D01*
X111952382Y-68009761D01*
X111952382Y-68295476D01*
X111904763Y-68390714D01*
X111857144Y-68438333D01*
X139232382Y-64531666D02*
X138756192Y-64865000D01*
X139232382Y-65103095D02*
X138232382Y-65103095D01*
X138232382Y-64722142D01*
X138280002Y-64626904D01*
X138327621Y-64579285D01*
X138422859Y-64531666D01*
X138565716Y-64531666D01*
X138660954Y-64579285D01*
X138708573Y-64626904D01*
X138756192Y-64722142D01*
X138756192Y-65103095D01*
X138565716Y-63674523D02*
X139232382Y-63674523D01*
X138184763Y-63912619D02*
X138899049Y-64150714D01*
X138899049Y-63531666D01*
X150560382Y-67127666D02*
X150084192Y-67461000D01*
X150560382Y-67699095D02*
X149560382Y-67699095D01*
X149560382Y-67318142D01*
X149608002Y-67222904D01*
X149655621Y-67175285D01*
X149750859Y-67127666D01*
X149893716Y-67127666D01*
X149988954Y-67175285D01*
X150036573Y-67222904D01*
X150084192Y-67318142D01*
X150084192Y-67699095D01*
X149560382Y-66222904D02*
X149560382Y-66699095D01*
X150036573Y-66746714D01*
X149988954Y-66699095D01*
X149941335Y-66603857D01*
X149941335Y-66365761D01*
X149988954Y-66270523D01*
X150036573Y-66222904D01*
X150131811Y-66175285D01*
X150369906Y-66175285D01*
X150465144Y-66222904D01*
X150512763Y-66270523D01*
X150560382Y-66365761D01*
X150560382Y-66603857D01*
X150512763Y-66699095D01*
X150465144Y-66746714D01*
X134642379Y-80161667D02*
X134166189Y-80495001D01*
X134642379Y-80733096D02*
X133642379Y-80733096D01*
X133642379Y-80352143D01*
X133689999Y-80256905D01*
X133737618Y-80209286D01*
X133832856Y-80161667D01*
X133975713Y-80161667D01*
X134070951Y-80209286D01*
X134118570Y-80256905D01*
X134166189Y-80352143D01*
X134166189Y-80733096D01*
X133642379Y-79304524D02*
X133642379Y-79495001D01*
X133689999Y-79590239D01*
X133737618Y-79637858D01*
X133880475Y-79733096D01*
X134070951Y-79780715D01*
X134451903Y-79780715D01*
X134547141Y-79733096D01*
X134594760Y-79685477D01*
X134642379Y-79590239D01*
X134642379Y-79399762D01*
X134594760Y-79304524D01*
X134547141Y-79256905D01*
X134451903Y-79209286D01*
X134213808Y-79209286D01*
X134118570Y-79256905D01*
X134070951Y-79304524D01*
X134023332Y-79399762D01*
X134023332Y-79590239D01*
X134070951Y-79685477D01*
X134118570Y-79733096D01*
X134213808Y-79780715D01*
X159857382Y-52871666D02*
X159381192Y-53205000D01*
X159857382Y-53443095D02*
X158857382Y-53443095D01*
X158857382Y-53062142D01*
X158905002Y-52966904D01*
X158952621Y-52919285D01*
X159047859Y-52871666D01*
X159190716Y-52871666D01*
X159285954Y-52919285D01*
X159333573Y-52966904D01*
X159381192Y-53062142D01*
X159381192Y-53443095D01*
X158857382Y-52538333D02*
X158857382Y-51871666D01*
X159857382Y-52300238D01*
X175072382Y-52606666D02*
X174596192Y-52940000D01*
X175072382Y-53178095D02*
X174072382Y-53178095D01*
X174072382Y-52797142D01*
X174120002Y-52701904D01*
X174167621Y-52654285D01*
X174262859Y-52606666D01*
X174405716Y-52606666D01*
X174500954Y-52654285D01*
X174548573Y-52701904D01*
X174596192Y-52797142D01*
X174596192Y-53178095D01*
X174500954Y-52035238D02*
X174453335Y-52130476D01*
X174405716Y-52178095D01*
X174310478Y-52225714D01*
X174262859Y-52225714D01*
X174167621Y-52178095D01*
X174120002Y-52130476D01*
X174072382Y-52035238D01*
X174072382Y-51844761D01*
X174120002Y-51749523D01*
X174167621Y-51701904D01*
X174262859Y-51654285D01*
X174310478Y-51654285D01*
X174405716Y-51701904D01*
X174453335Y-51749523D01*
X174500954Y-51844761D01*
X174500954Y-52035238D01*
X174548573Y-52130476D01*
X174596192Y-52178095D01*
X174691430Y-52225714D01*
X174881906Y-52225714D01*
X174977144Y-52178095D01*
X175024763Y-52130476D01*
X175072382Y-52035238D01*
X175072382Y-51844761D01*
X175024763Y-51749523D01*
X174977144Y-51701904D01*
X174881906Y-51654285D01*
X174691430Y-51654285D01*
X174596192Y-51701904D01*
X174548573Y-51749523D01*
X174500954Y-51844761D01*
X143347382Y-52751666D02*
X142871192Y-53085000D01*
X143347382Y-53323095D02*
X142347382Y-53323095D01*
X142347382Y-52942142D01*
X142395002Y-52846904D01*
X142442621Y-52799285D01*
X142537859Y-52751666D01*
X142680716Y-52751666D01*
X142775954Y-52799285D01*
X142823573Y-52846904D01*
X142871192Y-52942142D01*
X142871192Y-53323095D01*
X143347382Y-52275476D02*
X143347382Y-52085000D01*
X143299763Y-51989761D01*
X143252144Y-51942142D01*
X143109287Y-51846904D01*
X142918811Y-51799285D01*
X142537859Y-51799285D01*
X142442621Y-51846904D01*
X142395002Y-51894523D01*
X142347382Y-51989761D01*
X142347382Y-52180238D01*
X142395002Y-52275476D01*
X142442621Y-52323095D01*
X142537859Y-52370714D01*
X142775954Y-52370714D01*
X142871192Y-52323095D01*
X142918811Y-52275476D01*
X142966430Y-52180238D01*
X142966430Y-51989761D01*
X142918811Y-51894523D01*
X142871192Y-51846904D01*
X142775954Y-51799285D01*
X137222141Y-42837380D02*
X136888808Y-42361190D01*
X136650713Y-42837380D02*
X136650713Y-41837380D01*
X137031665Y-41837380D01*
X137126903Y-41885000D01*
X137174522Y-41932619D01*
X137222141Y-42027857D01*
X137222141Y-42170714D01*
X137174522Y-42265952D01*
X137126903Y-42313571D01*
X137031665Y-42361190D01*
X136650713Y-42361190D01*
X138174522Y-42837380D02*
X137603094Y-42837380D01*
X137888808Y-42837380D02*
X137888808Y-41837380D01*
X137793570Y-41980238D01*
X137698332Y-42075476D01*
X137603094Y-42123095D01*
X138793570Y-41837380D02*
X138888808Y-41837380D01*
X138984046Y-41885000D01*
X139031665Y-41932619D01*
X139079284Y-42027857D01*
X139126903Y-42218333D01*
X139126903Y-42456428D01*
X139079284Y-42646904D01*
X139031665Y-42742142D01*
X138984046Y-42789761D01*
X138888808Y-42837380D01*
X138793570Y-42837380D01*
X138698332Y-42789761D01*
X138650713Y-42742142D01*
X138603094Y-42646904D01*
X138555475Y-42456428D01*
X138555475Y-42218333D01*
X138603094Y-42027857D01*
X138650713Y-41932619D01*
X138698332Y-41885000D01*
X138793570Y-41837380D01*
X157402141Y-42862380D02*
X157068808Y-42386190D01*
X156830713Y-42862380D02*
X156830713Y-41862380D01*
X157211665Y-41862380D01*
X157306903Y-41910000D01*
X157354522Y-41957619D01*
X157402141Y-42052857D01*
X157402141Y-42195714D01*
X157354522Y-42290952D01*
X157306903Y-42338571D01*
X157211665Y-42386190D01*
X156830713Y-42386190D01*
X158354522Y-42862380D02*
X157783094Y-42862380D01*
X158068808Y-42862380D02*
X158068808Y-41862380D01*
X157973570Y-42005238D01*
X157878332Y-42100476D01*
X157783094Y-42148095D01*
X159306903Y-42862380D02*
X158735475Y-42862380D01*
X159021189Y-42862380D02*
X159021189Y-41862380D01*
X158925951Y-42005238D01*
X158830713Y-42100476D01*
X158735475Y-42148095D01*
X177657141Y-42802380D02*
X177323808Y-42326190D01*
X177085713Y-42802380D02*
X177085713Y-41802380D01*
X177466665Y-41802380D01*
X177561903Y-41850000D01*
X177609522Y-41897619D01*
X177657141Y-41992857D01*
X177657141Y-42135714D01*
X177609522Y-42230952D01*
X177561903Y-42278571D01*
X177466665Y-42326190D01*
X177085713Y-42326190D01*
X178609522Y-42802380D02*
X178038094Y-42802380D01*
X178323808Y-42802380D02*
X178323808Y-41802380D01*
X178228570Y-41945238D01*
X178133332Y-42040476D01*
X178038094Y-42088095D01*
X178990475Y-41897619D02*
X179038094Y-41850000D01*
X179133332Y-41802380D01*
X179371427Y-41802380D01*
X179466665Y-41850000D01*
X179514284Y-41897619D01*
X179561903Y-41992857D01*
X179561903Y-42088095D01*
X179514284Y-42230952D01*
X178942856Y-42802380D01*
X179561903Y-42802380D01*
X129746667Y-40829762D02*
X129889524Y-40877381D01*
X130127620Y-40877381D01*
X130222858Y-40829762D01*
X130270477Y-40782143D01*
X130318096Y-40686905D01*
X130318096Y-40591667D01*
X130270477Y-40496429D01*
X130222858Y-40448810D01*
X130127620Y-40401191D01*
X129937143Y-40353572D01*
X129841905Y-40305953D01*
X129794286Y-40258334D01*
X129746667Y-40163096D01*
X129746667Y-40067858D01*
X129794286Y-39972620D01*
X129841905Y-39925001D01*
X129937143Y-39877381D01*
X130175239Y-39877381D01*
X130318096Y-39925001D01*
X130651429Y-39877381D02*
X130889524Y-40877381D01*
X131080001Y-40163096D01*
X131270477Y-40877381D01*
X131508572Y-39877381D01*
X132413334Y-40877381D02*
X131841905Y-40877381D01*
X132127620Y-40877381D02*
X132127620Y-39877381D01*
X132032381Y-40020239D01*
X131937143Y-40115477D01*
X131841905Y-40163096D01*
X149926667Y-40854762D02*
X150069524Y-40902381D01*
X150307620Y-40902381D01*
X150402858Y-40854762D01*
X150450477Y-40807143D01*
X150498096Y-40711905D01*
X150498096Y-40616667D01*
X150450477Y-40521429D01*
X150402858Y-40473810D01*
X150307620Y-40426191D01*
X150117143Y-40378572D01*
X150021905Y-40330953D01*
X149974286Y-40283334D01*
X149926667Y-40188096D01*
X149926667Y-40092858D01*
X149974286Y-39997620D01*
X150021905Y-39950001D01*
X150117143Y-39902381D01*
X150355239Y-39902381D01*
X150498096Y-39950001D01*
X150831429Y-39902381D02*
X151069524Y-40902381D01*
X151260001Y-40188096D01*
X151450477Y-40902381D01*
X151688572Y-39902381D01*
X152021905Y-39997620D02*
X152069524Y-39950001D01*
X152164762Y-39902381D01*
X152402858Y-39902381D01*
X152498096Y-39950001D01*
X152545715Y-39997620D01*
X152593334Y-40092858D01*
X152593334Y-40188096D01*
X152545715Y-40330953D01*
X151974286Y-40902381D01*
X152593334Y-40902381D01*
X170181667Y-40794762D02*
X170324524Y-40842381D01*
X170562620Y-40842381D01*
X170657858Y-40794762D01*
X170705477Y-40747143D01*
X170753096Y-40651905D01*
X170753096Y-40556667D01*
X170705477Y-40461429D01*
X170657858Y-40413810D01*
X170562620Y-40366191D01*
X170372143Y-40318572D01*
X170276905Y-40270953D01*
X170229286Y-40223334D01*
X170181667Y-40128096D01*
X170181667Y-40032858D01*
X170229286Y-39937620D01*
X170276905Y-39890001D01*
X170372143Y-39842381D01*
X170610239Y-39842381D01*
X170753096Y-39890001D01*
X171086429Y-39842381D02*
X171324524Y-40842381D01*
X171515001Y-40128096D01*
X171705477Y-40842381D01*
X171943572Y-39842381D01*
X172229286Y-39842381D02*
X172848334Y-39842381D01*
X172515001Y-40223334D01*
X172657858Y-40223334D01*
X172753096Y-40270953D01*
X172800715Y-40318572D01*
X172848334Y-40413810D01*
X172848334Y-40651905D01*
X172800715Y-40747143D01*
X172753096Y-40794762D01*
X172657858Y-40842381D01*
X172372143Y-40842381D01*
X172276905Y-40794762D01*
X172229286Y-40747143D01*
X147963095Y-49387380D02*
X148534523Y-49387380D01*
X148248809Y-50387380D02*
X148248809Y-49387380D01*
X148867857Y-50387380D02*
X148867857Y-49387380D01*
X149248809Y-49387380D01*
X149344047Y-49435000D01*
X149391666Y-49482619D01*
X149439285Y-49577857D01*
X149439285Y-49720714D01*
X149391666Y-49815952D01*
X149344047Y-49863571D01*
X149248809Y-49911190D01*
X148867857Y-49911190D01*
X150391666Y-50387380D02*
X149820238Y-50387380D01*
X150105952Y-50387380D02*
X150105952Y-49387380D01*
X150010714Y-49530238D01*
X149915476Y-49625476D01*
X149820238Y-49673095D01*
X163203095Y-49387380D02*
X163774523Y-49387380D01*
X163488809Y-50387380D02*
X163488809Y-49387380D01*
X164107857Y-50387380D02*
X164107857Y-49387380D01*
X164488809Y-49387380D01*
X164584047Y-49435000D01*
X164631666Y-49482619D01*
X164679285Y-49577857D01*
X164679285Y-49720714D01*
X164631666Y-49815952D01*
X164584047Y-49863571D01*
X164488809Y-49911190D01*
X164107857Y-49911190D01*
X165060238Y-49482619D02*
X165107857Y-49435000D01*
X165203095Y-49387380D01*
X165441190Y-49387380D01*
X165536428Y-49435000D01*
X165584047Y-49482619D01*
X165631666Y-49577857D01*
X165631666Y-49673095D01*
X165584047Y-49815952D01*
X165012619Y-50387380D01*
X165631666Y-50387380D01*
X141613095Y-39227380D02*
X142184523Y-39227380D01*
X141898809Y-40227380D02*
X141898809Y-39227380D01*
X142517857Y-40227380D02*
X142517857Y-39227380D01*
X142898809Y-39227380D01*
X142994047Y-39275000D01*
X143041666Y-39322619D01*
X143089285Y-39417857D01*
X143089285Y-39560714D01*
X143041666Y-39655952D01*
X142994047Y-39703571D01*
X142898809Y-39751190D01*
X142517857Y-39751190D01*
X143422619Y-39227380D02*
X144041666Y-39227380D01*
X143708333Y-39608333D01*
X143851190Y-39608333D01*
X143946428Y-39655952D01*
X143994047Y-39703571D01*
X144041666Y-39798809D01*
X144041666Y-40036904D01*
X143994047Y-40132142D01*
X143946428Y-40179761D01*
X143851190Y-40227380D01*
X143565476Y-40227380D01*
X143470238Y-40179761D01*
X143422619Y-40132142D01*
X161298095Y-38592380D02*
X161869523Y-38592380D01*
X161583809Y-39592380D02*
X161583809Y-38592380D01*
X162202857Y-39592380D02*
X162202857Y-38592380D01*
X162583809Y-38592380D01*
X162679047Y-38640000D01*
X162726666Y-38687619D01*
X162774285Y-38782857D01*
X162774285Y-38925714D01*
X162726666Y-39020952D01*
X162679047Y-39068571D01*
X162583809Y-39116190D01*
X162202857Y-39116190D01*
X163631428Y-38925714D02*
X163631428Y-39592380D01*
X163393333Y-38544761D02*
X163155238Y-39259047D01*
X163774285Y-39259047D01*
X130818095Y-49387380D02*
X131389523Y-49387380D01*
X131103809Y-50387380D02*
X131103809Y-49387380D01*
X131722857Y-50387380D02*
X131722857Y-49387380D01*
X132103809Y-49387380D01*
X132199047Y-49435000D01*
X132246666Y-49482619D01*
X132294285Y-49577857D01*
X132294285Y-49720714D01*
X132246666Y-49815952D01*
X132199047Y-49863571D01*
X132103809Y-49911190D01*
X131722857Y-49911190D01*
X133199047Y-49387380D02*
X132722857Y-49387380D01*
X132675238Y-49863571D01*
X132722857Y-49815952D01*
X132818095Y-49768333D01*
X133056190Y-49768333D01*
X133151428Y-49815952D01*
X133199047Y-49863571D01*
X133246666Y-49958809D01*
X133246666Y-50196904D01*
X133199047Y-50292142D01*
X133151428Y-50339761D01*
X133056190Y-50387380D01*
X132818095Y-50387380D01*
X132722857Y-50339761D01*
X132675238Y-50292142D01*
X181618095Y-38592380D02*
X182189523Y-38592380D01*
X181903809Y-39592380D02*
X181903809Y-38592380D01*
X182522857Y-39592380D02*
X182522857Y-38592380D01*
X182903809Y-38592380D01*
X182999047Y-38640000D01*
X183046666Y-38687619D01*
X183094285Y-38782857D01*
X183094285Y-38925714D01*
X183046666Y-39020952D01*
X182999047Y-39068571D01*
X182903809Y-39116190D01*
X182522857Y-39116190D01*
X183951428Y-38592380D02*
X183760952Y-38592380D01*
X183665714Y-38640000D01*
X183618095Y-38687619D01*
X183522857Y-38830476D01*
X183475238Y-39020952D01*
X183475238Y-39401904D01*
X183522857Y-39497142D01*
X183570476Y-39544761D01*
X183665714Y-39592380D01*
X183856190Y-39592380D01*
X183951428Y-39544761D01*
X183999047Y-39497142D01*
X184046666Y-39401904D01*
X184046666Y-39163809D01*
X183999047Y-39068571D01*
X183951428Y-39020952D01*
X183856190Y-38973333D01*
X183665714Y-38973333D01*
X183570476Y-39020952D01*
X183522857Y-39068571D01*
X183475238Y-39163809D01*
X140843095Y-44442380D02*
X140843095Y-45251904D01*
X140890714Y-45347142D01*
X140938333Y-45394761D01*
X141033571Y-45442380D01*
X141224047Y-45442380D01*
X141319285Y-45394761D01*
X141366904Y-45347142D01*
X141414523Y-45251904D01*
X141414523Y-44442380D01*
X142414523Y-45442380D02*
X141843095Y-45442380D01*
X142128809Y-45442380D02*
X142128809Y-44442380D01*
X142033571Y-44585238D01*
X141938333Y-44680476D01*
X141843095Y-44728095D01*
X161023095Y-44467380D02*
X161023095Y-45276904D01*
X161070714Y-45372142D01*
X161118333Y-45419761D01*
X161213571Y-45467380D01*
X161404047Y-45467380D01*
X161499285Y-45419761D01*
X161546904Y-45372142D01*
X161594523Y-45276904D01*
X161594523Y-44467380D01*
X162023095Y-44562619D02*
X162070714Y-44515000D01*
X162165952Y-44467380D01*
X162404047Y-44467380D01*
X162499285Y-44515000D01*
X162546904Y-44562619D01*
X162594523Y-44657857D01*
X162594523Y-44753095D01*
X162546904Y-44895952D01*
X161975476Y-45467380D01*
X162594523Y-45467380D01*
X181278095Y-44407380D02*
X181278095Y-45216904D01*
X181325714Y-45312142D01*
X181373333Y-45359761D01*
X181468571Y-45407380D01*
X181659047Y-45407380D01*
X181754285Y-45359761D01*
X181801904Y-45312142D01*
X181849523Y-45216904D01*
X181849523Y-44407380D01*
X182230476Y-44407380D02*
X182849523Y-44407380D01*
X182516190Y-44788333D01*
X182659047Y-44788333D01*
X182754285Y-44835952D01*
X182801904Y-44883571D01*
X182849523Y-44978809D01*
X182849523Y-45216904D01*
X182801904Y-45312142D01*
X182754285Y-45359761D01*
X182659047Y-45407380D01*
X182373333Y-45407380D01*
X182278095Y-45359761D01*
X182230476Y-45312142D01*
M02*
