G04 #@! TF.GenerationSoftware,KiCad,Pcbnew,(5.1.5)-3*
G04 #@! TF.CreationDate,2020-02-26T16:32:23+01:00*
G04 #@! TF.ProjectId,Testingboard,54657374-696e-4676-926f-6172642e6b69,rev?*
G04 #@! TF.SameCoordinates,Original*
G04 #@! TF.FileFunction,Soldermask,Bot*
G04 #@! TF.FilePolarity,Negative*
%FSLAX46Y46*%
G04 Gerber Fmt 4.6, Leading zero omitted, Abs format (unit mm)*
G04 Created by KiCad (PCBNEW (5.1.5)-3) date 2020-02-26 16:32:23*
%MOMM*%
%LPD*%
G04 APERTURE LIST*
%ADD10C,0.100000*%
G04 APERTURE END LIST*
D10*
G36*
X105523512Y-80383927D02*
G01*
X105672812Y-80413624D01*
X105836784Y-80481544D01*
X105984354Y-80580147D01*
X106109853Y-80705646D01*
X106208456Y-80853216D01*
X106276376Y-81017188D01*
X106311000Y-81191259D01*
X106311000Y-81368741D01*
X106276376Y-81542812D01*
X106208456Y-81706784D01*
X106109853Y-81854354D01*
X105984354Y-81979853D01*
X105836784Y-82078456D01*
X105672812Y-82146376D01*
X105523512Y-82176073D01*
X105498742Y-82181000D01*
X105321258Y-82181000D01*
X105296488Y-82176073D01*
X105147188Y-82146376D01*
X104983216Y-82078456D01*
X104835646Y-81979853D01*
X104710147Y-81854354D01*
X104611544Y-81706784D01*
X104543624Y-81542812D01*
X104509000Y-81368741D01*
X104509000Y-81191259D01*
X104543624Y-81017188D01*
X104611544Y-80853216D01*
X104710147Y-80705646D01*
X104835646Y-80580147D01*
X104983216Y-80481544D01*
X105147188Y-80413624D01*
X105296488Y-80383927D01*
X105321258Y-80379000D01*
X105498742Y-80379000D01*
X105523512Y-80383927D01*
G37*
G36*
X118223512Y-80383927D02*
G01*
X118372812Y-80413624D01*
X118536784Y-80481544D01*
X118684354Y-80580147D01*
X118809853Y-80705646D01*
X118908456Y-80853216D01*
X118976376Y-81017188D01*
X119011000Y-81191259D01*
X119011000Y-81368741D01*
X118976376Y-81542812D01*
X118908456Y-81706784D01*
X118809853Y-81854354D01*
X118684354Y-81979853D01*
X118536784Y-82078456D01*
X118372812Y-82146376D01*
X118223512Y-82176073D01*
X118198742Y-82181000D01*
X118021258Y-82181000D01*
X117996488Y-82176073D01*
X117847188Y-82146376D01*
X117683216Y-82078456D01*
X117535646Y-81979853D01*
X117410147Y-81854354D01*
X117311544Y-81706784D01*
X117243624Y-81542812D01*
X117209000Y-81368741D01*
X117209000Y-81191259D01*
X117243624Y-81017188D01*
X117311544Y-80853216D01*
X117410147Y-80705646D01*
X117535646Y-80580147D01*
X117683216Y-80481544D01*
X117847188Y-80413624D01*
X117996488Y-80383927D01*
X118021258Y-80379000D01*
X118198742Y-80379000D01*
X118223512Y-80383927D01*
G37*
G36*
X120763512Y-80383927D02*
G01*
X120912812Y-80413624D01*
X121076784Y-80481544D01*
X121224354Y-80580147D01*
X121349853Y-80705646D01*
X121448456Y-80853216D01*
X121516376Y-81017188D01*
X121551000Y-81191259D01*
X121551000Y-81368741D01*
X121516376Y-81542812D01*
X121448456Y-81706784D01*
X121349853Y-81854354D01*
X121224354Y-81979853D01*
X121076784Y-82078456D01*
X120912812Y-82146376D01*
X120763512Y-82176073D01*
X120738742Y-82181000D01*
X120561258Y-82181000D01*
X120536488Y-82176073D01*
X120387188Y-82146376D01*
X120223216Y-82078456D01*
X120075646Y-81979853D01*
X119950147Y-81854354D01*
X119851544Y-81706784D01*
X119783624Y-81542812D01*
X119749000Y-81368741D01*
X119749000Y-81191259D01*
X119783624Y-81017188D01*
X119851544Y-80853216D01*
X119950147Y-80705646D01*
X120075646Y-80580147D01*
X120223216Y-80481544D01*
X120387188Y-80413624D01*
X120536488Y-80383927D01*
X120561258Y-80379000D01*
X120738742Y-80379000D01*
X120763512Y-80383927D01*
G37*
G36*
X115683512Y-80383927D02*
G01*
X115832812Y-80413624D01*
X115996784Y-80481544D01*
X116144354Y-80580147D01*
X116269853Y-80705646D01*
X116368456Y-80853216D01*
X116436376Y-81017188D01*
X116471000Y-81191259D01*
X116471000Y-81368741D01*
X116436376Y-81542812D01*
X116368456Y-81706784D01*
X116269853Y-81854354D01*
X116144354Y-81979853D01*
X115996784Y-82078456D01*
X115832812Y-82146376D01*
X115683512Y-82176073D01*
X115658742Y-82181000D01*
X115481258Y-82181000D01*
X115456488Y-82176073D01*
X115307188Y-82146376D01*
X115143216Y-82078456D01*
X114995646Y-81979853D01*
X114870147Y-81854354D01*
X114771544Y-81706784D01*
X114703624Y-81542812D01*
X114669000Y-81368741D01*
X114669000Y-81191259D01*
X114703624Y-81017188D01*
X114771544Y-80853216D01*
X114870147Y-80705646D01*
X114995646Y-80580147D01*
X115143216Y-80481544D01*
X115307188Y-80413624D01*
X115456488Y-80383927D01*
X115481258Y-80379000D01*
X115658742Y-80379000D01*
X115683512Y-80383927D01*
G37*
G36*
X113143512Y-80383927D02*
G01*
X113292812Y-80413624D01*
X113456784Y-80481544D01*
X113604354Y-80580147D01*
X113729853Y-80705646D01*
X113828456Y-80853216D01*
X113896376Y-81017188D01*
X113931000Y-81191259D01*
X113931000Y-81368741D01*
X113896376Y-81542812D01*
X113828456Y-81706784D01*
X113729853Y-81854354D01*
X113604354Y-81979853D01*
X113456784Y-82078456D01*
X113292812Y-82146376D01*
X113143512Y-82176073D01*
X113118742Y-82181000D01*
X112941258Y-82181000D01*
X112916488Y-82176073D01*
X112767188Y-82146376D01*
X112603216Y-82078456D01*
X112455646Y-81979853D01*
X112330147Y-81854354D01*
X112231544Y-81706784D01*
X112163624Y-81542812D01*
X112129000Y-81368741D01*
X112129000Y-81191259D01*
X112163624Y-81017188D01*
X112231544Y-80853216D01*
X112330147Y-80705646D01*
X112455646Y-80580147D01*
X112603216Y-80481544D01*
X112767188Y-80413624D01*
X112916488Y-80383927D01*
X112941258Y-80379000D01*
X113118742Y-80379000D01*
X113143512Y-80383927D01*
G37*
G36*
X110603512Y-80383927D02*
G01*
X110752812Y-80413624D01*
X110916784Y-80481544D01*
X111064354Y-80580147D01*
X111189853Y-80705646D01*
X111288456Y-80853216D01*
X111356376Y-81017188D01*
X111391000Y-81191259D01*
X111391000Y-81368741D01*
X111356376Y-81542812D01*
X111288456Y-81706784D01*
X111189853Y-81854354D01*
X111064354Y-81979853D01*
X110916784Y-82078456D01*
X110752812Y-82146376D01*
X110603512Y-82176073D01*
X110578742Y-82181000D01*
X110401258Y-82181000D01*
X110376488Y-82176073D01*
X110227188Y-82146376D01*
X110063216Y-82078456D01*
X109915646Y-81979853D01*
X109790147Y-81854354D01*
X109691544Y-81706784D01*
X109623624Y-81542812D01*
X109589000Y-81368741D01*
X109589000Y-81191259D01*
X109623624Y-81017188D01*
X109691544Y-80853216D01*
X109790147Y-80705646D01*
X109915646Y-80580147D01*
X110063216Y-80481544D01*
X110227188Y-80413624D01*
X110376488Y-80383927D01*
X110401258Y-80379000D01*
X110578742Y-80379000D01*
X110603512Y-80383927D01*
G37*
G36*
X108063512Y-80383927D02*
G01*
X108212812Y-80413624D01*
X108376784Y-80481544D01*
X108524354Y-80580147D01*
X108649853Y-80705646D01*
X108748456Y-80853216D01*
X108816376Y-81017188D01*
X108851000Y-81191259D01*
X108851000Y-81368741D01*
X108816376Y-81542812D01*
X108748456Y-81706784D01*
X108649853Y-81854354D01*
X108524354Y-81979853D01*
X108376784Y-82078456D01*
X108212812Y-82146376D01*
X108063512Y-82176073D01*
X108038742Y-82181000D01*
X107861258Y-82181000D01*
X107836488Y-82176073D01*
X107687188Y-82146376D01*
X107523216Y-82078456D01*
X107375646Y-81979853D01*
X107250147Y-81854354D01*
X107151544Y-81706784D01*
X107083624Y-81542812D01*
X107049000Y-81368741D01*
X107049000Y-81191259D01*
X107083624Y-81017188D01*
X107151544Y-80853216D01*
X107250147Y-80705646D01*
X107375646Y-80580147D01*
X107523216Y-80481544D01*
X107687188Y-80413624D01*
X107836488Y-80383927D01*
X107861258Y-80379000D01*
X108038742Y-80379000D01*
X108063512Y-80383927D01*
G37*
G36*
X101231000Y-82181000D02*
G01*
X99429000Y-82181000D01*
X99429000Y-80379000D01*
X101231000Y-80379000D01*
X101231000Y-82181000D01*
G37*
G36*
X102983512Y-80383927D02*
G01*
X103132812Y-80413624D01*
X103296784Y-80481544D01*
X103444354Y-80580147D01*
X103569853Y-80705646D01*
X103668456Y-80853216D01*
X103736376Y-81017188D01*
X103771000Y-81191259D01*
X103771000Y-81368741D01*
X103736376Y-81542812D01*
X103668456Y-81706784D01*
X103569853Y-81854354D01*
X103444354Y-81979853D01*
X103296784Y-82078456D01*
X103132812Y-82146376D01*
X102983512Y-82176073D01*
X102958742Y-82181000D01*
X102781258Y-82181000D01*
X102756488Y-82176073D01*
X102607188Y-82146376D01*
X102443216Y-82078456D01*
X102295646Y-81979853D01*
X102170147Y-81854354D01*
X102071544Y-81706784D01*
X102003624Y-81542812D01*
X101969000Y-81368741D01*
X101969000Y-81191259D01*
X102003624Y-81017188D01*
X102071544Y-80853216D01*
X102170147Y-80705646D01*
X102295646Y-80580147D01*
X102443216Y-80481544D01*
X102607188Y-80413624D01*
X102756488Y-80383927D01*
X102781258Y-80379000D01*
X102958742Y-80379000D01*
X102983512Y-80383927D01*
G37*
G36*
X165366000Y-53606000D02*
G01*
X163564000Y-53606000D01*
X163564000Y-51804000D01*
X165366000Y-51804000D01*
X165366000Y-53606000D01*
G37*
G36*
X132981000Y-53606000D02*
G01*
X131179000Y-53606000D01*
X131179000Y-51804000D01*
X132981000Y-51804000D01*
X132981000Y-53606000D01*
G37*
G36*
X150126000Y-53606000D02*
G01*
X148324000Y-53606000D01*
X148324000Y-51804000D01*
X150126000Y-51804000D01*
X150126000Y-53606000D01*
G37*
G36*
X154816565Y-45939390D02*
G01*
X155007834Y-46018616D01*
X155007836Y-46018617D01*
X155179974Y-46133636D01*
X155326366Y-46280028D01*
X155424681Y-46427166D01*
X155441386Y-46452168D01*
X155520612Y-46643437D01*
X155561001Y-46846485D01*
X155561001Y-47053517D01*
X155520612Y-47256565D01*
X155466238Y-47387836D01*
X155441385Y-47447836D01*
X155326366Y-47619974D01*
X155179974Y-47766366D01*
X155007836Y-47881385D01*
X155007835Y-47881386D01*
X155007834Y-47881386D01*
X154816565Y-47960612D01*
X154613517Y-48001001D01*
X154406485Y-48001001D01*
X154203437Y-47960612D01*
X154012168Y-47881386D01*
X154012167Y-47881386D01*
X154012166Y-47881385D01*
X153840028Y-47766366D01*
X153693636Y-47619974D01*
X153578617Y-47447836D01*
X153553764Y-47387836D01*
X153499390Y-47256565D01*
X153459001Y-47053517D01*
X153459001Y-46846485D01*
X153499390Y-46643437D01*
X153578616Y-46452168D01*
X153595322Y-46427166D01*
X153693636Y-46280028D01*
X153840028Y-46133636D01*
X154012166Y-46018617D01*
X154012168Y-46018616D01*
X154203437Y-45939390D01*
X154406485Y-45899001D01*
X154613517Y-45899001D01*
X154816565Y-45939390D01*
G37*
G36*
X148316565Y-45939390D02*
G01*
X148507834Y-46018616D01*
X148507836Y-46018617D01*
X148679974Y-46133636D01*
X148826366Y-46280028D01*
X148924681Y-46427166D01*
X148941386Y-46452168D01*
X149020612Y-46643437D01*
X149061001Y-46846485D01*
X149061001Y-47053517D01*
X149020612Y-47256565D01*
X148966238Y-47387836D01*
X148941385Y-47447836D01*
X148826366Y-47619974D01*
X148679974Y-47766366D01*
X148507836Y-47881385D01*
X148507835Y-47881386D01*
X148507834Y-47881386D01*
X148316565Y-47960612D01*
X148113517Y-48001001D01*
X147906485Y-48001001D01*
X147703437Y-47960612D01*
X147512168Y-47881386D01*
X147512167Y-47881386D01*
X147512166Y-47881385D01*
X147340028Y-47766366D01*
X147193636Y-47619974D01*
X147078617Y-47447836D01*
X147053764Y-47387836D01*
X146999390Y-47256565D01*
X146959001Y-47053517D01*
X146959001Y-46846485D01*
X146999390Y-46643437D01*
X147078616Y-46452168D01*
X147095322Y-46427166D01*
X147193636Y-46280028D01*
X147340028Y-46133636D01*
X147512166Y-46018617D01*
X147512168Y-46018616D01*
X147703437Y-45939390D01*
X147906485Y-45899001D01*
X148113517Y-45899001D01*
X148316565Y-45939390D01*
G37*
G36*
X134636565Y-45914390D02*
G01*
X134827834Y-45993616D01*
X134827836Y-45993617D01*
X134999974Y-46108636D01*
X135146366Y-46255028D01*
X135237999Y-46392166D01*
X135261386Y-46427168D01*
X135340612Y-46618437D01*
X135381001Y-46821485D01*
X135381001Y-47028517D01*
X135340612Y-47231565D01*
X135261386Y-47422834D01*
X135261385Y-47422836D01*
X135146366Y-47594974D01*
X134999974Y-47741366D01*
X134827836Y-47856385D01*
X134827835Y-47856386D01*
X134827834Y-47856386D01*
X134636565Y-47935612D01*
X134433517Y-47976001D01*
X134226485Y-47976001D01*
X134023437Y-47935612D01*
X133832168Y-47856386D01*
X133832167Y-47856386D01*
X133832166Y-47856385D01*
X133660028Y-47741366D01*
X133513636Y-47594974D01*
X133398617Y-47422836D01*
X133398616Y-47422834D01*
X133319390Y-47231565D01*
X133279001Y-47028517D01*
X133279001Y-46821485D01*
X133319390Y-46618437D01*
X133398616Y-46427168D01*
X133422004Y-46392166D01*
X133513636Y-46255028D01*
X133660028Y-46108636D01*
X133832166Y-45993617D01*
X133832168Y-45993616D01*
X134023437Y-45914390D01*
X134226485Y-45874001D01*
X134433517Y-45874001D01*
X134636565Y-45914390D01*
G37*
G36*
X128136565Y-45914390D02*
G01*
X128327834Y-45993616D01*
X128327836Y-45993617D01*
X128499974Y-46108636D01*
X128646366Y-46255028D01*
X128737999Y-46392166D01*
X128761386Y-46427168D01*
X128840612Y-46618437D01*
X128881001Y-46821485D01*
X128881001Y-47028517D01*
X128840612Y-47231565D01*
X128761386Y-47422834D01*
X128761385Y-47422836D01*
X128646366Y-47594974D01*
X128499974Y-47741366D01*
X128327836Y-47856385D01*
X128327835Y-47856386D01*
X128327834Y-47856386D01*
X128136565Y-47935612D01*
X127933517Y-47976001D01*
X127726485Y-47976001D01*
X127523437Y-47935612D01*
X127332168Y-47856386D01*
X127332167Y-47856386D01*
X127332166Y-47856385D01*
X127160028Y-47741366D01*
X127013636Y-47594974D01*
X126898617Y-47422836D01*
X126898616Y-47422834D01*
X126819390Y-47231565D01*
X126779001Y-47028517D01*
X126779001Y-46821485D01*
X126819390Y-46618437D01*
X126898616Y-46427168D01*
X126922004Y-46392166D01*
X127013636Y-46255028D01*
X127160028Y-46108636D01*
X127332166Y-45993617D01*
X127332168Y-45993616D01*
X127523437Y-45914390D01*
X127726485Y-45874001D01*
X127933517Y-45874001D01*
X128136565Y-45914390D01*
G37*
G36*
X175071565Y-45879390D02*
G01*
X175262834Y-45958616D01*
X175262836Y-45958617D01*
X175315217Y-45993617D01*
X175434974Y-46073636D01*
X175581366Y-46220028D01*
X175696386Y-46392168D01*
X175775612Y-46583437D01*
X175816001Y-46786485D01*
X175816001Y-46993517D01*
X175775612Y-47196565D01*
X175696386Y-47387834D01*
X175696385Y-47387836D01*
X175581366Y-47559974D01*
X175434974Y-47706366D01*
X175262836Y-47821385D01*
X175262835Y-47821386D01*
X175262834Y-47821386D01*
X175071565Y-47900612D01*
X174868517Y-47941001D01*
X174661485Y-47941001D01*
X174458437Y-47900612D01*
X174267168Y-47821386D01*
X174267167Y-47821386D01*
X174267166Y-47821385D01*
X174095028Y-47706366D01*
X173948636Y-47559974D01*
X173833617Y-47387836D01*
X173833616Y-47387834D01*
X173754390Y-47196565D01*
X173714001Y-46993517D01*
X173714001Y-46786485D01*
X173754390Y-46583437D01*
X173833616Y-46392168D01*
X173948636Y-46220028D01*
X174095028Y-46073636D01*
X174214785Y-45993617D01*
X174267166Y-45958617D01*
X174267168Y-45958616D01*
X174458437Y-45879390D01*
X174661485Y-45839001D01*
X174868517Y-45839001D01*
X175071565Y-45879390D01*
G37*
G36*
X168571565Y-45879390D02*
G01*
X168762834Y-45958616D01*
X168762836Y-45958617D01*
X168815217Y-45993617D01*
X168934974Y-46073636D01*
X169081366Y-46220028D01*
X169196386Y-46392168D01*
X169275612Y-46583437D01*
X169316001Y-46786485D01*
X169316001Y-46993517D01*
X169275612Y-47196565D01*
X169196386Y-47387834D01*
X169196385Y-47387836D01*
X169081366Y-47559974D01*
X168934974Y-47706366D01*
X168762836Y-47821385D01*
X168762835Y-47821386D01*
X168762834Y-47821386D01*
X168571565Y-47900612D01*
X168368517Y-47941001D01*
X168161485Y-47941001D01*
X167958437Y-47900612D01*
X167767168Y-47821386D01*
X167767167Y-47821386D01*
X167767166Y-47821385D01*
X167595028Y-47706366D01*
X167448636Y-47559974D01*
X167333617Y-47387836D01*
X167333616Y-47387834D01*
X167254390Y-47196565D01*
X167214001Y-46993517D01*
X167214001Y-46786485D01*
X167254390Y-46583437D01*
X167333616Y-46392168D01*
X167448636Y-46220028D01*
X167595028Y-46073636D01*
X167714785Y-45993617D01*
X167767166Y-45958617D01*
X167767168Y-45958616D01*
X167958437Y-45879390D01*
X168161485Y-45839001D01*
X168368517Y-45839001D01*
X168571565Y-45879390D01*
G37*
G36*
X91071000Y-44081000D02*
G01*
X89269000Y-44081000D01*
X89269000Y-42279000D01*
X91071000Y-42279000D01*
X91071000Y-44081000D01*
G37*
G36*
X148316565Y-41439390D02*
G01*
X148507834Y-41518616D01*
X148507836Y-41518617D01*
X148679974Y-41633636D01*
X148826366Y-41780028D01*
X148924681Y-41927166D01*
X148941386Y-41952168D01*
X149020612Y-42143437D01*
X149061001Y-42346485D01*
X149061001Y-42553517D01*
X149020612Y-42756565D01*
X148966238Y-42887836D01*
X148941385Y-42947836D01*
X148826366Y-43119974D01*
X148679974Y-43266366D01*
X148507836Y-43381385D01*
X148507835Y-43381386D01*
X148507834Y-43381386D01*
X148316565Y-43460612D01*
X148113517Y-43501001D01*
X147906485Y-43501001D01*
X147703437Y-43460612D01*
X147512168Y-43381386D01*
X147512167Y-43381386D01*
X147512166Y-43381385D01*
X147340028Y-43266366D01*
X147193636Y-43119974D01*
X147078617Y-42947836D01*
X147053764Y-42887836D01*
X146999390Y-42756565D01*
X146959001Y-42553517D01*
X146959001Y-42346485D01*
X146999390Y-42143437D01*
X147078616Y-41952168D01*
X147095322Y-41927166D01*
X147193636Y-41780028D01*
X147340028Y-41633636D01*
X147512166Y-41518617D01*
X147512168Y-41518616D01*
X147703437Y-41439390D01*
X147906485Y-41399001D01*
X148113517Y-41399001D01*
X148316565Y-41439390D01*
G37*
G36*
X154816565Y-41439390D02*
G01*
X155007834Y-41518616D01*
X155007836Y-41518617D01*
X155179974Y-41633636D01*
X155326366Y-41780028D01*
X155424681Y-41927166D01*
X155441386Y-41952168D01*
X155520612Y-42143437D01*
X155561001Y-42346485D01*
X155561001Y-42553517D01*
X155520612Y-42756565D01*
X155466238Y-42887836D01*
X155441385Y-42947836D01*
X155326366Y-43119974D01*
X155179974Y-43266366D01*
X155007836Y-43381385D01*
X155007835Y-43381386D01*
X155007834Y-43381386D01*
X154816565Y-43460612D01*
X154613517Y-43501001D01*
X154406485Y-43501001D01*
X154203437Y-43460612D01*
X154012168Y-43381386D01*
X154012167Y-43381386D01*
X154012166Y-43381385D01*
X153840028Y-43266366D01*
X153693636Y-43119974D01*
X153578617Y-42947836D01*
X153553764Y-42887836D01*
X153499390Y-42756565D01*
X153459001Y-42553517D01*
X153459001Y-42346485D01*
X153499390Y-42143437D01*
X153578616Y-41952168D01*
X153595322Y-41927166D01*
X153693636Y-41780028D01*
X153840028Y-41633636D01*
X154012166Y-41518617D01*
X154012168Y-41518616D01*
X154203437Y-41439390D01*
X154406485Y-41399001D01*
X154613517Y-41399001D01*
X154816565Y-41439390D01*
G37*
G36*
X134636565Y-41414390D02*
G01*
X134761160Y-41465999D01*
X134827836Y-41493617D01*
X134999974Y-41608636D01*
X135146366Y-41755028D01*
X135237999Y-41892166D01*
X135261386Y-41927168D01*
X135340612Y-42118437D01*
X135381001Y-42321485D01*
X135381001Y-42528517D01*
X135340612Y-42731565D01*
X135261386Y-42922834D01*
X135261385Y-42922836D01*
X135146366Y-43094974D01*
X134999974Y-43241366D01*
X134827836Y-43356385D01*
X134827835Y-43356386D01*
X134827834Y-43356386D01*
X134636565Y-43435612D01*
X134433517Y-43476001D01*
X134226485Y-43476001D01*
X134023437Y-43435612D01*
X133832168Y-43356386D01*
X133832167Y-43356386D01*
X133832166Y-43356385D01*
X133660028Y-43241366D01*
X133513636Y-43094974D01*
X133398617Y-42922836D01*
X133398616Y-42922834D01*
X133319390Y-42731565D01*
X133279001Y-42528517D01*
X133279001Y-42321485D01*
X133319390Y-42118437D01*
X133398616Y-41927168D01*
X133422004Y-41892166D01*
X133513636Y-41755028D01*
X133660028Y-41608636D01*
X133832166Y-41493617D01*
X133898842Y-41465999D01*
X134023437Y-41414390D01*
X134226485Y-41374001D01*
X134433517Y-41374001D01*
X134636565Y-41414390D01*
G37*
G36*
X128136565Y-41414390D02*
G01*
X128261160Y-41465999D01*
X128327836Y-41493617D01*
X128499974Y-41608636D01*
X128646366Y-41755028D01*
X128737999Y-41892166D01*
X128761386Y-41927168D01*
X128840612Y-42118437D01*
X128881001Y-42321485D01*
X128881001Y-42528517D01*
X128840612Y-42731565D01*
X128761386Y-42922834D01*
X128761385Y-42922836D01*
X128646366Y-43094974D01*
X128499974Y-43241366D01*
X128327836Y-43356385D01*
X128327835Y-43356386D01*
X128327834Y-43356386D01*
X128136565Y-43435612D01*
X127933517Y-43476001D01*
X127726485Y-43476001D01*
X127523437Y-43435612D01*
X127332168Y-43356386D01*
X127332167Y-43356386D01*
X127332166Y-43356385D01*
X127160028Y-43241366D01*
X127013636Y-43094974D01*
X126898617Y-42922836D01*
X126898616Y-42922834D01*
X126819390Y-42731565D01*
X126779001Y-42528517D01*
X126779001Y-42321485D01*
X126819390Y-42118437D01*
X126898616Y-41927168D01*
X126922004Y-41892166D01*
X127013636Y-41755028D01*
X127160028Y-41608636D01*
X127332166Y-41493617D01*
X127398842Y-41465999D01*
X127523437Y-41414390D01*
X127726485Y-41374001D01*
X127933517Y-41374001D01*
X128136565Y-41414390D01*
G37*
G36*
X143776000Y-43446000D02*
G01*
X141974000Y-43446000D01*
X141974000Y-41644000D01*
X143776000Y-41644000D01*
X143776000Y-43446000D01*
G37*
G36*
X175071565Y-41379390D02*
G01*
X175262834Y-41458616D01*
X175262836Y-41458617D01*
X175315217Y-41493617D01*
X175434974Y-41573636D01*
X175581366Y-41720028D01*
X175696386Y-41892168D01*
X175775612Y-42083437D01*
X175816001Y-42286485D01*
X175816001Y-42493517D01*
X175775612Y-42696565D01*
X175696386Y-42887834D01*
X175696385Y-42887836D01*
X175581366Y-43059974D01*
X175434974Y-43206366D01*
X175262836Y-43321385D01*
X175262835Y-43321386D01*
X175262834Y-43321386D01*
X175071565Y-43400612D01*
X174868517Y-43441001D01*
X174661485Y-43441001D01*
X174458437Y-43400612D01*
X174267168Y-43321386D01*
X174267167Y-43321386D01*
X174267166Y-43321385D01*
X174095028Y-43206366D01*
X173948636Y-43059974D01*
X173833617Y-42887836D01*
X173833616Y-42887834D01*
X173754390Y-42696565D01*
X173714001Y-42493517D01*
X173714001Y-42286485D01*
X173754390Y-42083437D01*
X173833616Y-41892168D01*
X173948636Y-41720028D01*
X174095028Y-41573636D01*
X174214785Y-41493617D01*
X174267166Y-41458617D01*
X174267168Y-41458616D01*
X174458437Y-41379390D01*
X174661485Y-41339001D01*
X174868517Y-41339001D01*
X175071565Y-41379390D01*
G37*
G36*
X168571565Y-41379390D02*
G01*
X168762834Y-41458616D01*
X168762836Y-41458617D01*
X168815217Y-41493617D01*
X168934974Y-41573636D01*
X169081366Y-41720028D01*
X169196386Y-41892168D01*
X169275612Y-42083437D01*
X169316001Y-42286485D01*
X169316001Y-42493517D01*
X169275612Y-42696565D01*
X169196386Y-42887834D01*
X169196385Y-42887836D01*
X169081366Y-43059974D01*
X168934974Y-43206366D01*
X168762836Y-43321385D01*
X168762835Y-43321386D01*
X168762834Y-43321386D01*
X168571565Y-43400612D01*
X168368517Y-43441001D01*
X168161485Y-43441001D01*
X167958437Y-43400612D01*
X167767168Y-43321386D01*
X167767167Y-43321386D01*
X167767166Y-43321385D01*
X167595028Y-43206366D01*
X167448636Y-43059974D01*
X167333617Y-42887836D01*
X167333616Y-42887834D01*
X167254390Y-42696565D01*
X167214001Y-42493517D01*
X167214001Y-42286485D01*
X167254390Y-42083437D01*
X167333616Y-41892168D01*
X167448636Y-41720028D01*
X167595028Y-41573636D01*
X167714785Y-41493617D01*
X167767166Y-41458617D01*
X167767168Y-41458616D01*
X167958437Y-41379390D01*
X168161485Y-41339001D01*
X168368517Y-41339001D01*
X168571565Y-41379390D01*
G37*
G36*
X163461000Y-42811000D02*
G01*
X161659000Y-42811000D01*
X161659000Y-41009000D01*
X163461000Y-41009000D01*
X163461000Y-42811000D01*
G37*
G36*
X183781000Y-42811000D02*
G01*
X181979000Y-42811000D01*
X181979000Y-41009000D01*
X183781000Y-41009000D01*
X183781000Y-42811000D01*
G37*
G36*
X97903512Y-39743927D02*
G01*
X98052812Y-39773624D01*
X98216784Y-39841544D01*
X98364354Y-39940147D01*
X98489853Y-40065646D01*
X98588456Y-40213216D01*
X98656376Y-40377188D01*
X98691000Y-40551259D01*
X98691000Y-40728741D01*
X98656376Y-40902812D01*
X98588456Y-41066784D01*
X98489853Y-41214354D01*
X98364354Y-41339853D01*
X98216784Y-41438456D01*
X98052812Y-41506376D01*
X97903512Y-41536073D01*
X97878742Y-41541000D01*
X97701258Y-41541000D01*
X97676488Y-41536073D01*
X97527188Y-41506376D01*
X97363216Y-41438456D01*
X97215646Y-41339853D01*
X97090147Y-41214354D01*
X96991544Y-41066784D01*
X96923624Y-40902812D01*
X96889000Y-40728741D01*
X96889000Y-40551259D01*
X96923624Y-40377188D01*
X96991544Y-40213216D01*
X97090147Y-40065646D01*
X97215646Y-39940147D01*
X97363216Y-39841544D01*
X97527188Y-39773624D01*
X97676488Y-39743927D01*
X97701258Y-39739000D01*
X97878742Y-39739000D01*
X97903512Y-39743927D01*
G37*
G36*
X90283512Y-39743927D02*
G01*
X90432812Y-39773624D01*
X90596784Y-39841544D01*
X90744354Y-39940147D01*
X90869853Y-40065646D01*
X90968456Y-40213216D01*
X91036376Y-40377188D01*
X91071000Y-40551259D01*
X91071000Y-40728741D01*
X91036376Y-40902812D01*
X90968456Y-41066784D01*
X90869853Y-41214354D01*
X90744354Y-41339853D01*
X90596784Y-41438456D01*
X90432812Y-41506376D01*
X90283512Y-41536073D01*
X90258742Y-41541000D01*
X90081258Y-41541000D01*
X90056488Y-41536073D01*
X89907188Y-41506376D01*
X89743216Y-41438456D01*
X89595646Y-41339853D01*
X89470147Y-41214354D01*
X89371544Y-41066784D01*
X89303624Y-40902812D01*
X89269000Y-40728741D01*
X89269000Y-40551259D01*
X89303624Y-40377188D01*
X89371544Y-40213216D01*
X89470147Y-40065646D01*
X89595646Y-39940147D01*
X89743216Y-39841544D01*
X89907188Y-39773624D01*
X90056488Y-39743927D01*
X90081258Y-39739000D01*
X90258742Y-39739000D01*
X90283512Y-39743927D01*
G37*
G36*
X96151000Y-41541000D02*
G01*
X94349000Y-41541000D01*
X94349000Y-39739000D01*
X96151000Y-39739000D01*
X96151000Y-41541000D01*
G37*
G36*
X113698513Y-39668926D02*
G01*
X113847813Y-39698623D01*
X114011785Y-39766543D01*
X114159355Y-39865146D01*
X114284854Y-39990645D01*
X114383457Y-40138215D01*
X114451377Y-40302187D01*
X114486001Y-40476258D01*
X114486001Y-40653740D01*
X114451377Y-40827811D01*
X114383457Y-40991783D01*
X114284854Y-41139353D01*
X114159355Y-41264852D01*
X114011785Y-41363455D01*
X113847813Y-41431375D01*
X113698513Y-41461072D01*
X113673743Y-41465999D01*
X113496259Y-41465999D01*
X113471489Y-41461072D01*
X113322189Y-41431375D01*
X113158217Y-41363455D01*
X113010647Y-41264852D01*
X112885148Y-41139353D01*
X112786545Y-40991783D01*
X112718625Y-40827811D01*
X112684001Y-40653740D01*
X112684001Y-40476258D01*
X112718625Y-40302187D01*
X112786545Y-40138215D01*
X112885148Y-39990645D01*
X113010647Y-39865146D01*
X113158217Y-39766543D01*
X113322189Y-39698623D01*
X113471489Y-39668926D01*
X113496259Y-39663999D01*
X113673743Y-39663999D01*
X113698513Y-39668926D01*
G37*
G36*
X121318513Y-39668926D02*
G01*
X121467813Y-39698623D01*
X121631785Y-39766543D01*
X121779355Y-39865146D01*
X121904854Y-39990645D01*
X122003457Y-40138215D01*
X122071377Y-40302187D01*
X122106001Y-40476258D01*
X122106001Y-40653740D01*
X122071377Y-40827811D01*
X122003457Y-40991783D01*
X121904854Y-41139353D01*
X121779355Y-41264852D01*
X121631785Y-41363455D01*
X121467813Y-41431375D01*
X121318513Y-41461072D01*
X121293743Y-41465999D01*
X121116259Y-41465999D01*
X121091489Y-41461072D01*
X120942189Y-41431375D01*
X120778217Y-41363455D01*
X120630647Y-41264852D01*
X120505148Y-41139353D01*
X120406545Y-40991783D01*
X120338625Y-40827811D01*
X120304001Y-40653740D01*
X120304001Y-40476258D01*
X120338625Y-40302187D01*
X120406545Y-40138215D01*
X120505148Y-39990645D01*
X120630647Y-39865146D01*
X120778217Y-39766543D01*
X120942189Y-39698623D01*
X121091489Y-39668926D01*
X121116259Y-39663999D01*
X121293743Y-39663999D01*
X121318513Y-39668926D01*
G37*
G36*
X118778513Y-39668926D02*
G01*
X118927813Y-39698623D01*
X119091785Y-39766543D01*
X119239355Y-39865146D01*
X119364854Y-39990645D01*
X119463457Y-40138215D01*
X119531377Y-40302187D01*
X119566001Y-40476258D01*
X119566001Y-40653740D01*
X119531377Y-40827811D01*
X119463457Y-40991783D01*
X119364854Y-41139353D01*
X119239355Y-41264852D01*
X119091785Y-41363455D01*
X118927813Y-41431375D01*
X118778513Y-41461072D01*
X118753743Y-41465999D01*
X118576259Y-41465999D01*
X118551489Y-41461072D01*
X118402189Y-41431375D01*
X118238217Y-41363455D01*
X118090647Y-41264852D01*
X117965148Y-41139353D01*
X117866545Y-40991783D01*
X117798625Y-40827811D01*
X117764001Y-40653740D01*
X117764001Y-40476258D01*
X117798625Y-40302187D01*
X117866545Y-40138215D01*
X117965148Y-39990645D01*
X118090647Y-39865146D01*
X118238217Y-39766543D01*
X118402189Y-39698623D01*
X118551489Y-39668926D01*
X118576259Y-39663999D01*
X118753743Y-39663999D01*
X118778513Y-39668926D01*
G37*
G36*
X116238513Y-39668926D02*
G01*
X116387813Y-39698623D01*
X116551785Y-39766543D01*
X116699355Y-39865146D01*
X116824854Y-39990645D01*
X116923457Y-40138215D01*
X116991377Y-40302187D01*
X117026001Y-40476258D01*
X117026001Y-40653740D01*
X116991377Y-40827811D01*
X116923457Y-40991783D01*
X116824854Y-41139353D01*
X116699355Y-41264852D01*
X116551785Y-41363455D01*
X116387813Y-41431375D01*
X116238513Y-41461072D01*
X116213743Y-41465999D01*
X116036259Y-41465999D01*
X116011489Y-41461072D01*
X115862189Y-41431375D01*
X115698217Y-41363455D01*
X115550647Y-41264852D01*
X115425148Y-41139353D01*
X115326545Y-40991783D01*
X115258625Y-40827811D01*
X115224001Y-40653740D01*
X115224001Y-40476258D01*
X115258625Y-40302187D01*
X115326545Y-40138215D01*
X115425148Y-39990645D01*
X115550647Y-39865146D01*
X115698217Y-39766543D01*
X115862189Y-39698623D01*
X116011489Y-39668926D01*
X116036259Y-39663999D01*
X116213743Y-39663999D01*
X116238513Y-39668926D01*
G37*
G36*
X111158513Y-39668926D02*
G01*
X111307813Y-39698623D01*
X111471785Y-39766543D01*
X111619355Y-39865146D01*
X111744854Y-39990645D01*
X111843457Y-40138215D01*
X111911377Y-40302187D01*
X111946001Y-40476258D01*
X111946001Y-40653740D01*
X111911377Y-40827811D01*
X111843457Y-40991783D01*
X111744854Y-41139353D01*
X111619355Y-41264852D01*
X111471785Y-41363455D01*
X111307813Y-41431375D01*
X111158513Y-41461072D01*
X111133743Y-41465999D01*
X110956259Y-41465999D01*
X110931489Y-41461072D01*
X110782189Y-41431375D01*
X110618217Y-41363455D01*
X110470647Y-41264852D01*
X110345148Y-41139353D01*
X110246545Y-40991783D01*
X110178625Y-40827811D01*
X110144001Y-40653740D01*
X110144001Y-40476258D01*
X110178625Y-40302187D01*
X110246545Y-40138215D01*
X110345148Y-39990645D01*
X110470647Y-39865146D01*
X110618217Y-39766543D01*
X110782189Y-39698623D01*
X110931489Y-39668926D01*
X110956259Y-39663999D01*
X111133743Y-39663999D01*
X111158513Y-39668926D01*
G37*
G36*
X108618513Y-39668926D02*
G01*
X108767813Y-39698623D01*
X108931785Y-39766543D01*
X109079355Y-39865146D01*
X109204854Y-39990645D01*
X109303457Y-40138215D01*
X109371377Y-40302187D01*
X109406001Y-40476258D01*
X109406001Y-40653740D01*
X109371377Y-40827811D01*
X109303457Y-40991783D01*
X109204854Y-41139353D01*
X109079355Y-41264852D01*
X108931785Y-41363455D01*
X108767813Y-41431375D01*
X108618513Y-41461072D01*
X108593743Y-41465999D01*
X108416259Y-41465999D01*
X108391489Y-41461072D01*
X108242189Y-41431375D01*
X108078217Y-41363455D01*
X107930647Y-41264852D01*
X107805148Y-41139353D01*
X107706545Y-40991783D01*
X107638625Y-40827811D01*
X107604001Y-40653740D01*
X107604001Y-40476258D01*
X107638625Y-40302187D01*
X107706545Y-40138215D01*
X107805148Y-39990645D01*
X107930647Y-39865146D01*
X108078217Y-39766543D01*
X108242189Y-39698623D01*
X108391489Y-39668926D01*
X108416259Y-39663999D01*
X108593743Y-39663999D01*
X108618513Y-39668926D01*
G37*
G36*
X106078513Y-39668926D02*
G01*
X106227813Y-39698623D01*
X106391785Y-39766543D01*
X106539355Y-39865146D01*
X106664854Y-39990645D01*
X106763457Y-40138215D01*
X106831377Y-40302187D01*
X106866001Y-40476258D01*
X106866001Y-40653740D01*
X106831377Y-40827811D01*
X106763457Y-40991783D01*
X106664854Y-41139353D01*
X106539355Y-41264852D01*
X106391785Y-41363455D01*
X106227813Y-41431375D01*
X106078513Y-41461072D01*
X106053743Y-41465999D01*
X105876259Y-41465999D01*
X105851489Y-41461072D01*
X105702189Y-41431375D01*
X105538217Y-41363455D01*
X105390647Y-41264852D01*
X105265148Y-41139353D01*
X105166545Y-40991783D01*
X105098625Y-40827811D01*
X105064001Y-40653740D01*
X105064001Y-40476258D01*
X105098625Y-40302187D01*
X105166545Y-40138215D01*
X105265148Y-39990645D01*
X105390647Y-39865146D01*
X105538217Y-39766543D01*
X105702189Y-39698623D01*
X105851489Y-39668926D01*
X105876259Y-39663999D01*
X106053743Y-39663999D01*
X106078513Y-39668926D01*
G37*
G36*
X104326001Y-41465999D02*
G01*
X102524001Y-41465999D01*
X102524001Y-39663999D01*
X104326001Y-39663999D01*
X104326001Y-41465999D01*
G37*
M02*
