G04 #@! TF.GenerationSoftware,KiCad,Pcbnew,(5.1.5)-3*
G04 #@! TF.CreationDate,2020-01-30T19:41:33+01:00*
G04 #@! TF.ProjectId,TestingBoard,54657374-696e-4674-926f-6172642e6b69,rev?*
G04 #@! TF.SameCoordinates,Original*
G04 #@! TF.FileFunction,Copper,L2,Bot*
G04 #@! TF.FilePolarity,Positive*
%FSLAX46Y46*%
G04 Gerber Fmt 4.6, Leading zero omitted, Abs format (unit mm)*
G04 Created by KiCad (PCBNEW (5.1.5)-3) date 2020-01-30 19:41:33*
%MOMM*%
%LPD*%
G04 APERTURE LIST*
%ADD10R,1.700000X1.700000*%
%ADD11O,1.700000X1.700000*%
%ADD12O,1.600000X1.600000*%
%ADD13R,1.600000X1.600000*%
%ADD14C,2.000000*%
%ADD15C,0.800000*%
%ADD16C,0.250000*%
%ADD17C,0.500000*%
G04 APERTURE END LIST*
D10*
X89662000Y-86487000D03*
X81788000Y-86614000D03*
X41148000Y-91440000D03*
X33528000Y-91440000D03*
D11*
X45466000Y-67056000D03*
X45466000Y-69596000D03*
X45466000Y-72136000D03*
X45466000Y-74676000D03*
X45466000Y-77216000D03*
X45466000Y-79756000D03*
X45466000Y-82296000D03*
D10*
X45466000Y-84836000D03*
D11*
X33528000Y-56388000D03*
D10*
X33528000Y-58928000D03*
X38608000Y-56388000D03*
D11*
X41148000Y-56388000D03*
X61722000Y-110109000D03*
X61722000Y-107569000D03*
X61722000Y-105029000D03*
X61722000Y-102489000D03*
X61722000Y-99949000D03*
X61722000Y-97409000D03*
X61722000Y-94869000D03*
X61722000Y-92329000D03*
D10*
X61722000Y-89789000D03*
D12*
X40386000Y-67056000D03*
X32766000Y-84836000D03*
X40386000Y-69596000D03*
X32766000Y-82296000D03*
X40386000Y-72136000D03*
X32766000Y-79756000D03*
X40386000Y-74676000D03*
X32766000Y-77216000D03*
X40386000Y-77216000D03*
X32766000Y-74676000D03*
X40386000Y-79756000D03*
X32766000Y-72136000D03*
X40386000Y-82296000D03*
X32766000Y-69596000D03*
X40386000Y-84836000D03*
D13*
X32766000Y-67056000D03*
X50546000Y-67056000D03*
D12*
X58166000Y-84836000D03*
X50546000Y-69596000D03*
X58166000Y-82296000D03*
X50546000Y-72136000D03*
X58166000Y-79756000D03*
X50546000Y-74676000D03*
X58166000Y-77216000D03*
X50546000Y-77216000D03*
X58166000Y-74676000D03*
X50546000Y-79756000D03*
X58166000Y-72136000D03*
X50546000Y-82296000D03*
X58166000Y-69596000D03*
X50546000Y-84836000D03*
X58166000Y-67056000D03*
D14*
X72794000Y-76962000D03*
X72794000Y-81462000D03*
X66294000Y-76962000D03*
X66294000Y-81462000D03*
X72794000Y-56896000D03*
X72794000Y-61396000D03*
X66294000Y-56896000D03*
X66294000Y-61396000D03*
X66294000Y-71556000D03*
X66294000Y-67056000D03*
X72794000Y-71556000D03*
X72794000Y-67056000D03*
D10*
X107188000Y-58420000D03*
X107188000Y-60960000D03*
X118618000Y-58420000D03*
X91059000Y-58801000D03*
X98679000Y-58801000D03*
X107188000Y-71882000D03*
X119126000Y-72136000D03*
X107188000Y-69342000D03*
X83058000Y-108204000D03*
X37592000Y-112776000D03*
X88646000Y-107950000D03*
X91059000Y-74168000D03*
X98679000Y-74168000D03*
X91059000Y-66421000D03*
X98679000Y-66421000D03*
X119634000Y-105156000D03*
X85090000Y-79756000D03*
X85090000Y-59690000D03*
X85344000Y-68834000D03*
X94996000Y-93472000D03*
X94996000Y-96012000D03*
X94996000Y-98552000D03*
X103124000Y-78232000D03*
X103124000Y-80772000D03*
X122428000Y-98806000D03*
X122428000Y-95250000D03*
X121920000Y-78232000D03*
X121920000Y-80772000D03*
X45910500Y-114808000D03*
X70485000Y-114808000D03*
X59309000Y-114808000D03*
X89027000Y-114808000D03*
X77851000Y-114808000D03*
D15*
X101854000Y-100584000D03*
X103073998Y-97790000D03*
X116967000Y-92075000D03*
X114005570Y-91408647D03*
X108839000Y-92329000D03*
X100584000Y-94488000D03*
X66040000Y-103886000D03*
X105410000Y-80645000D03*
X110490000Y-83820000D03*
X114249998Y-80645000D03*
X116840000Y-83185000D03*
X102870000Y-74295000D03*
X109220000Y-74930000D03*
X54610000Y-62230000D03*
X80645000Y-63500000D03*
X95250000Y-82550000D03*
X93980000Y-82550000D03*
X83820000Y-89535000D03*
X79756000Y-105156000D03*
X86995000Y-102235000D03*
X45085000Y-100965000D03*
X41275000Y-100965000D03*
X55334478Y-115692461D03*
X56515000Y-113665000D03*
X115824000Y-94107000D03*
X119634000Y-93472000D03*
X104060196Y-91490002D03*
X99949000Y-87757000D03*
X103649012Y-85658988D03*
X102071010Y-94742000D03*
X113030000Y-76835000D03*
X106575500Y-75669500D03*
X112395000Y-101600000D03*
X112395000Y-103505000D03*
X112903000Y-60325000D03*
X112981763Y-71083034D03*
X116840000Y-69850000D03*
X67056000Y-90474002D03*
X71628000Y-90474002D03*
X76200000Y-90474002D03*
X79375000Y-90805000D03*
X69088000Y-110490000D03*
X71628000Y-109270002D03*
X68326000Y-108204000D03*
X78232000Y-106680000D03*
X68242196Y-104799510D03*
X77978000Y-103124000D03*
X69088000Y-106934000D03*
X71414476Y-105881010D03*
X69088000Y-103632000D03*
X71628000Y-102158002D03*
X73660000Y-110236000D03*
X76200000Y-109270002D03*
X73660000Y-106934000D03*
X75986476Y-105881010D03*
X73660000Y-103124000D03*
X76200000Y-102158002D03*
X46228000Y-93929998D03*
X48768000Y-92964000D03*
X45337734Y-90549734D03*
X56388000Y-89408000D03*
X46228000Y-97485998D03*
X48768000Y-96520000D03*
X44704000Y-96012000D03*
X56388000Y-93048010D03*
X48768000Y-100076000D03*
X53734034Y-100814432D03*
X44691076Y-100045844D03*
X50800000Y-93929998D03*
X53340000Y-93048010D03*
X50800000Y-97485998D03*
X53340000Y-96520000D03*
X47244000Y-92456000D03*
X69850000Y-92329000D03*
X52324000Y-92165010D03*
X74676000Y-91694000D03*
X65913000Y-95885000D03*
X47262002Y-98552000D03*
X67437000Y-113792000D03*
X53480498Y-114808000D03*
X85534500Y-113855500D03*
X102108000Y-93218000D03*
X107696000Y-91440000D03*
X120272060Y-91407252D03*
X97245010Y-92968660D03*
X99564315Y-91488260D03*
X101092000Y-86614000D03*
X100330000Y-92492990D03*
X111303937Y-93326373D03*
X110490000Y-91186000D03*
X104902000Y-92456000D03*
X106637442Y-96794223D03*
X108712000Y-94234000D03*
X116195395Y-93178512D03*
X114428265Y-98680265D03*
X103799008Y-98552000D03*
X116586000Y-96520000D03*
X112526652Y-94201979D03*
X114407090Y-89545567D03*
X64643000Y-99822000D03*
X75440999Y-99732999D03*
X56404446Y-105157186D03*
X63917990Y-100584000D03*
X71525102Y-99616035D03*
X58928000Y-100076000D03*
X49784000Y-100076000D03*
X66929000Y-102057998D03*
X45770335Y-102134219D03*
X74990988Y-101025988D03*
X56896000Y-102616000D03*
X70068659Y-98959021D03*
X51946125Y-99866224D03*
D16*
X103073998Y-99364002D02*
X103073998Y-97790000D01*
X101854000Y-100584000D02*
X103073998Y-99364002D01*
X116967000Y-92075000D02*
X116332000Y-91440000D01*
X116332000Y-91440000D02*
X114036923Y-91440000D01*
X114036923Y-91440000D02*
X114005570Y-91408647D01*
X113439885Y-91408647D02*
X112328238Y-90297000D01*
X114005570Y-91408647D02*
X113439885Y-91408647D01*
X112328238Y-90297000D02*
X109474000Y-90297000D01*
X109474000Y-90297000D02*
X108839000Y-90932000D01*
X108839000Y-90932000D02*
X108839000Y-92329000D01*
X100983999Y-94887999D02*
X100983999Y-96919999D01*
X100584000Y-94488000D02*
X100983999Y-94887999D01*
X101854000Y-97790000D02*
X103073998Y-97790000D01*
X100983999Y-96919999D02*
X101854000Y-97790000D01*
X66040000Y-103886000D02*
X66040000Y-104451685D01*
X67564000Y-106172000D02*
X66548000Y-106172000D01*
X66040000Y-105664000D02*
X66040000Y-103886000D01*
X69087801Y-105156000D02*
X68719290Y-105524511D01*
X79756000Y-105156000D02*
X69087801Y-105156000D01*
X68719290Y-105524511D02*
X68211489Y-105524511D01*
X66548000Y-106172000D02*
X66040000Y-105664000D01*
X68211489Y-105524511D02*
X67564000Y-106172000D01*
X105410000Y-80645000D02*
X108585000Y-83820000D01*
X108585000Y-83820000D02*
X110490000Y-83820000D01*
X111074998Y-83820000D02*
X114249998Y-80645000D01*
X110490000Y-83820000D02*
X111074998Y-83820000D01*
X116205000Y-83820000D02*
X110490000Y-83820000D01*
X116840000Y-83185000D02*
X116205000Y-83820000D01*
D17*
X108585000Y-74295000D02*
X109220000Y-74930000D01*
X102870000Y-74295000D02*
X108585000Y-74295000D01*
X102870000Y-74295000D02*
X105410000Y-76835000D01*
X105410000Y-76835000D02*
X105410000Y-80645000D01*
X54610000Y-62230000D02*
X57150000Y-64770000D01*
X57150000Y-64770000D02*
X80010000Y-64770000D01*
X80010000Y-64770000D02*
X80645000Y-64135000D01*
X80645000Y-64135000D02*
X80645000Y-63500000D01*
X94615000Y-82550000D02*
X94615000Y-87630000D01*
X93980000Y-82550000D02*
X94615000Y-82550000D01*
X94615000Y-82550000D02*
X95250000Y-82550000D01*
X94615000Y-87630000D02*
X92710000Y-89535000D01*
X92710000Y-89535000D02*
X83820000Y-89535000D01*
X92710000Y-89535000D02*
X92710000Y-100965000D01*
X92710000Y-100965000D02*
X93345000Y-101600000D01*
X100838000Y-101600000D02*
X101854000Y-100584000D01*
X93345000Y-101600000D02*
X100838000Y-101600000D01*
X79756000Y-105156000D02*
X84074000Y-105156000D01*
X84074000Y-105156000D02*
X86995000Y-102235000D01*
X91440000Y-102235000D02*
X92710000Y-100965000D01*
X86995000Y-102235000D02*
X91440000Y-102235000D01*
D16*
X45085000Y-100965000D02*
X41275000Y-100965000D01*
X55334478Y-115692461D02*
X56515000Y-114511939D01*
X56515000Y-114511939D02*
X56515000Y-113665000D01*
X115824000Y-94107000D02*
X118999000Y-94107000D01*
X118999000Y-94107000D02*
X119634000Y-93472000D01*
X103207024Y-85217000D02*
X103649012Y-85658988D01*
X99949000Y-85852000D02*
X100584000Y-85217000D01*
X99949000Y-87757000D02*
X99949000Y-85852000D01*
X100584000Y-85217000D02*
X103207024Y-85217000D01*
X104060196Y-91490002D02*
X104060196Y-92752814D01*
X104060196Y-92752814D02*
X102471009Y-94342001D01*
X102471009Y-94342001D02*
X102071010Y-94742000D01*
D17*
X112395000Y-103505000D02*
X112395000Y-101600000D01*
X112395000Y-101600000D02*
X122555000Y-101600000D01*
X122555000Y-101600000D02*
X124460000Y-99695000D01*
X124460000Y-99695000D02*
X124460000Y-92710000D01*
X124460000Y-92710000D02*
X123825000Y-92075000D01*
X121031000Y-92075000D02*
X119634000Y-93472000D01*
X123825000Y-92075000D02*
X121031000Y-92075000D01*
X107741000Y-76835000D02*
X106575500Y-75669500D01*
X113030000Y-76835000D02*
X107741000Y-76835000D01*
D16*
X112268000Y-60960000D02*
X107188000Y-60960000D01*
X112903000Y-60325000D02*
X112268000Y-60960000D01*
X112981763Y-71083034D02*
X114214797Y-69850000D01*
X114214797Y-69850000D02*
X116840000Y-69850000D01*
X67056000Y-90474002D02*
X71628000Y-90474002D01*
X76200000Y-90474002D02*
X71628000Y-90474002D01*
X81788000Y-88392000D02*
X81788000Y-86614000D01*
X79375000Y-90805000D02*
X81788000Y-88392000D01*
X69088000Y-110490000D02*
X70104000Y-110490000D01*
X70104000Y-110490000D02*
X70408002Y-110490000D01*
X70408002Y-110490000D02*
X71628000Y-109270002D01*
X68326000Y-108204000D02*
X76708000Y-108204000D01*
X76708000Y-108204000D02*
X78232000Y-106680000D01*
X68807881Y-104799510D02*
X69213391Y-104394000D01*
X68242196Y-104799510D02*
X68807881Y-104799510D01*
X69213391Y-104394000D02*
X76708000Y-104394000D01*
X76708000Y-104394000D02*
X77978000Y-103124000D01*
X69088000Y-106934000D02*
X70361486Y-106934000D01*
X71014477Y-106281009D02*
X71414476Y-105881010D01*
X70361486Y-106934000D02*
X71014477Y-106281009D01*
X69088000Y-103632000D02*
X70154002Y-103632000D01*
X70154002Y-103632000D02*
X71628000Y-102158002D01*
X73660000Y-110236000D02*
X75234002Y-110236000D01*
X75234002Y-110236000D02*
X76200000Y-109270002D01*
X73660000Y-106934000D02*
X74933486Y-106934000D01*
X74933486Y-106934000D02*
X75586477Y-106281009D01*
X75586477Y-106281009D02*
X75986476Y-105881010D01*
X73660000Y-103124000D02*
X74422000Y-103124000D01*
X74422000Y-103124000D02*
X75234002Y-103124000D01*
X75234002Y-103124000D02*
X76200000Y-102158002D01*
X48768000Y-92964000D02*
X47802002Y-93929998D01*
X47802002Y-93929998D02*
X46228000Y-93929998D01*
X45903419Y-90549734D02*
X46029153Y-90424000D01*
X45337734Y-90549734D02*
X45903419Y-90549734D01*
X46029153Y-90424000D02*
X55372000Y-90424000D01*
X55372000Y-90424000D02*
X56388000Y-89408000D01*
X46228000Y-97485998D02*
X47193998Y-96520000D01*
X47193998Y-96520000D02*
X48768000Y-96520000D01*
X45720000Y-94996000D02*
X54440010Y-94996000D01*
X55988001Y-93448009D02*
X56388000Y-93048010D01*
X54440010Y-94996000D02*
X55988001Y-93448009D01*
X44704000Y-96012000D02*
X45720000Y-94996000D01*
X53334035Y-101214431D02*
X53734034Y-100814432D01*
X52731464Y-101817002D02*
X53334035Y-101214431D01*
X48768000Y-101600000D02*
X48768000Y-100076000D01*
X48985002Y-101817002D02*
X48768000Y-101600000D01*
X48985002Y-101817002D02*
X52731464Y-101817002D01*
X41148000Y-96520000D02*
X44323000Y-99695000D01*
X41148000Y-91440000D02*
X41148000Y-96520000D01*
X48985002Y-101817002D02*
X47213844Y-100045844D01*
X47213844Y-100045844D02*
X45256761Y-100045844D01*
X45256761Y-100045844D02*
X44691076Y-100045844D01*
X44340232Y-99695000D02*
X44691076Y-100045844D01*
X44323000Y-99695000D02*
X44340232Y-99695000D01*
X52458012Y-93929998D02*
X53340000Y-93048010D01*
X50800000Y-93929998D02*
X52458012Y-93929998D01*
X50800000Y-97485998D02*
X51765998Y-96520000D01*
X51765998Y-96520000D02*
X53340000Y-96520000D01*
X60622000Y-89789000D02*
X58971000Y-91440000D01*
X61722000Y-89789000D02*
X60622000Y-89789000D01*
X48260000Y-91440000D02*
X47244000Y-92456000D01*
X58971000Y-91440000D02*
X48260000Y-91440000D01*
X61722000Y-92329000D02*
X69850000Y-92329000D01*
X60138919Y-91948000D02*
X52541010Y-91948000D01*
X52541010Y-91948000D02*
X52324000Y-92165010D01*
X60519919Y-92329000D02*
X60138919Y-91948000D01*
X61722000Y-92329000D02*
X60519919Y-92329000D01*
X62924081Y-94869000D02*
X64067081Y-93726000D01*
X61722000Y-94869000D02*
X62924081Y-94869000D01*
X72644000Y-93726000D02*
X74676000Y-91694000D01*
X64067081Y-93726000D02*
X72644000Y-93726000D01*
X61722000Y-94869000D02*
X61722000Y-94742000D01*
X61722000Y-94742000D02*
X61468000Y-94488000D01*
X61722000Y-97409000D02*
X64389000Y-97409000D01*
X64389000Y-97409000D02*
X65913000Y-95885000D01*
X59055000Y-97409000D02*
X61722000Y-97409000D01*
X47262002Y-98552000D02*
X57912000Y-98552000D01*
X57912000Y-98552000D02*
X59055000Y-97409000D01*
X85071001Y-113392001D02*
X85534500Y-113855500D01*
X67437000Y-113792000D02*
X67836999Y-113392001D01*
X67836999Y-113392001D02*
X85071001Y-113392001D01*
X66584998Y-112939998D02*
X67037001Y-113392001D01*
X67037001Y-113392001D02*
X67437000Y-113792000D01*
X55348500Y-112939998D02*
X66584998Y-112939998D01*
X53480498Y-114808000D02*
X55348500Y-112939998D01*
X97944361Y-93668011D02*
X97645009Y-93368659D01*
X102108000Y-93218000D02*
X101657989Y-93668011D01*
X101657989Y-93668011D02*
X97944361Y-93668011D01*
X97645009Y-93368659D02*
X97245010Y-92968660D01*
X116878410Y-91349999D02*
X119649122Y-91349999D01*
X107696000Y-91440000D02*
X108095999Y-91040001D01*
X109160599Y-89719991D02*
X113508512Y-89719991D01*
X113508512Y-89719991D02*
X114778510Y-90989989D01*
X114778510Y-90989989D02*
X116518400Y-90989989D01*
X116518400Y-90989989D02*
X116878410Y-91349999D01*
X108095999Y-91040001D02*
X108095999Y-90784591D01*
X119649122Y-91349999D02*
X119706375Y-91407252D01*
X108095999Y-90784591D02*
X109160599Y-89719991D01*
X119706375Y-91407252D02*
X120272060Y-91407252D01*
X94996000Y-92372000D02*
X94996000Y-93472000D01*
X96279739Y-91088261D02*
X94996000Y-92372000D01*
X99164316Y-91088261D02*
X96279739Y-91088261D01*
X99564315Y-91488260D02*
X99164316Y-91088261D01*
X101092000Y-86614000D02*
X101092000Y-91730990D01*
X101092000Y-91730990D02*
X100330000Y-92492990D01*
X110490000Y-91186000D02*
X111303937Y-91999937D01*
X111303937Y-91999937D02*
X111303937Y-93326373D01*
X104902000Y-92456000D02*
X106637442Y-94191442D01*
X106637442Y-94191442D02*
X106637442Y-96794223D01*
X113284000Y-93472000D02*
X112522000Y-93472000D01*
X111421629Y-94234000D02*
X109277685Y-94234000D01*
X112183629Y-93472000D02*
X111421629Y-94234000D01*
X109277685Y-94234000D02*
X108712000Y-94234000D01*
X113284000Y-93472000D02*
X112183629Y-93472000D01*
X113284000Y-93472000D02*
X113577488Y-93178512D01*
X113577488Y-93178512D02*
X115629710Y-93178512D01*
X115629710Y-93178512D02*
X116195395Y-93178512D01*
X114428265Y-98680265D02*
X103927273Y-98680265D01*
X103927273Y-98680265D02*
X103799008Y-98552000D01*
X112926651Y-94601978D02*
X112526652Y-94201979D01*
X114844673Y-96520000D02*
X112926651Y-94601978D01*
X116586000Y-96520000D02*
X114844673Y-96520000D01*
X96096000Y-96012000D02*
X94996000Y-96012000D01*
X100838000Y-93218000D02*
X99314000Y-93218000D01*
X104510433Y-89545567D02*
X100838000Y-93218000D01*
X99314000Y-93218000D02*
X98044000Y-91948000D01*
X97156410Y-91948000D02*
X96520000Y-92584410D01*
X114407090Y-89545567D02*
X114007091Y-89145568D01*
X98044000Y-91948000D02*
X97156410Y-91948000D01*
X109098611Y-89145568D02*
X108698612Y-89545567D01*
X108698612Y-89545567D02*
X104510433Y-89545567D01*
X96520000Y-92584410D02*
X96520000Y-95588000D01*
X114007091Y-89145568D02*
X109098611Y-89145568D01*
X96520000Y-95588000D02*
X96096000Y-96012000D01*
X64643000Y-99822000D02*
X70231000Y-99822000D01*
X70231000Y-99822000D02*
X71247000Y-98806000D01*
X71247000Y-98806000D02*
X74514000Y-98806000D01*
X74514000Y-98806000D02*
X75440999Y-99732999D01*
X56770186Y-105157186D02*
X56404446Y-105157186D01*
X61722000Y-110109000D02*
X56770186Y-105157186D01*
X70557137Y-100584000D02*
X71525102Y-99616035D01*
X63917990Y-100584000D02*
X70557137Y-100584000D01*
X58928000Y-100076000D02*
X52832000Y-100076000D01*
X52832000Y-100076000D02*
X51816000Y-101092000D01*
X51816000Y-101092000D02*
X50800000Y-100076000D01*
X50800000Y-100076000D02*
X49784000Y-100076000D01*
X61722000Y-105029000D02*
X63717001Y-103033999D01*
X65952999Y-103033999D02*
X66529001Y-102457997D01*
X66529001Y-102457997D02*
X66929000Y-102057998D01*
X63717001Y-103033999D02*
X65952999Y-103033999D01*
X59630919Y-104140000D02*
X47776116Y-104140000D01*
X47776116Y-104140000D02*
X45770335Y-102134219D01*
X60519919Y-105029000D02*
X59630919Y-104140000D01*
X61722000Y-105029000D02*
X60519919Y-105029000D01*
X74221269Y-101230022D02*
X74425303Y-101025988D01*
X66666801Y-101230022D02*
X74221269Y-101230022D01*
X61722000Y-102489000D02*
X65407822Y-102489000D01*
X65407822Y-102489000D02*
X66666801Y-101230022D01*
X74425303Y-101025988D02*
X74990988Y-101025988D01*
X58420000Y-102616000D02*
X56896000Y-102616000D01*
X60519919Y-102489000D02*
X60392919Y-102616000D01*
X61722000Y-102489000D02*
X60519919Y-102489000D01*
X60392919Y-102616000D02*
X58420000Y-102616000D01*
X61722000Y-99949000D02*
X62711979Y-98959021D01*
X62711979Y-98959021D02*
X69502974Y-98959021D01*
X69502974Y-98959021D02*
X70068659Y-98959021D01*
X52713348Y-99099001D02*
X52346124Y-99466225D01*
X61722000Y-99949000D02*
X60872001Y-99099001D01*
X52346124Y-99466225D02*
X51946125Y-99866224D01*
X60872001Y-99099001D02*
X52713348Y-99099001D01*
M02*
