G04 #@! TF.GenerationSoftware,KiCad,Pcbnew,(5.1.5)-3*
G04 #@! TF.CreationDate,2020-01-30T19:41:33+01:00*
G04 #@! TF.ProjectId,TestingBoard,54657374-696e-4674-926f-6172642e6b69,rev?*
G04 #@! TF.SameCoordinates,Original*
G04 #@! TF.FileFunction,Soldermask,Bot*
G04 #@! TF.FilePolarity,Negative*
%FSLAX46Y46*%
G04 Gerber Fmt 4.6, Leading zero omitted, Abs format (unit mm)*
G04 Created by KiCad (PCBNEW (5.1.5)-3) date 2020-01-30 19:41:33*
%MOMM*%
%LPD*%
G04 APERTURE LIST*
%ADD10C,0.100000*%
G04 APERTURE END LIST*
D10*
G36*
X89928000Y-115709000D02*
G01*
X88126000Y-115709000D01*
X88126000Y-113907000D01*
X89928000Y-113907000D01*
X89928000Y-115709000D01*
G37*
G36*
X78752000Y-115709000D02*
G01*
X76950000Y-115709000D01*
X76950000Y-113907000D01*
X78752000Y-113907000D01*
X78752000Y-115709000D01*
G37*
G36*
X46811500Y-115709000D02*
G01*
X45009500Y-115709000D01*
X45009500Y-113907000D01*
X46811500Y-113907000D01*
X46811500Y-115709000D01*
G37*
G36*
X60210000Y-115709000D02*
G01*
X58408000Y-115709000D01*
X58408000Y-113907000D01*
X60210000Y-113907000D01*
X60210000Y-115709000D01*
G37*
G36*
X71386000Y-115709000D02*
G01*
X69584000Y-115709000D01*
X69584000Y-113907000D01*
X71386000Y-113907000D01*
X71386000Y-115709000D01*
G37*
G36*
X38493000Y-113677000D02*
G01*
X36691000Y-113677000D01*
X36691000Y-111875000D01*
X38493000Y-111875000D01*
X38493000Y-113677000D01*
G37*
G36*
X61835512Y-109212927D02*
G01*
X61984812Y-109242624D01*
X62148784Y-109310544D01*
X62296354Y-109409147D01*
X62421853Y-109534646D01*
X62520456Y-109682216D01*
X62588376Y-109846188D01*
X62623000Y-110020259D01*
X62623000Y-110197741D01*
X62588376Y-110371812D01*
X62520456Y-110535784D01*
X62421853Y-110683354D01*
X62296354Y-110808853D01*
X62148784Y-110907456D01*
X61984812Y-110975376D01*
X61835512Y-111005073D01*
X61810742Y-111010000D01*
X61633258Y-111010000D01*
X61608488Y-111005073D01*
X61459188Y-110975376D01*
X61295216Y-110907456D01*
X61147646Y-110808853D01*
X61022147Y-110683354D01*
X60923544Y-110535784D01*
X60855624Y-110371812D01*
X60821000Y-110197741D01*
X60821000Y-110020259D01*
X60855624Y-109846188D01*
X60923544Y-109682216D01*
X61022147Y-109534646D01*
X61147646Y-109409147D01*
X61295216Y-109310544D01*
X61459188Y-109242624D01*
X61608488Y-109212927D01*
X61633258Y-109208000D01*
X61810742Y-109208000D01*
X61835512Y-109212927D01*
G37*
G36*
X83959000Y-109105000D02*
G01*
X82157000Y-109105000D01*
X82157000Y-107303000D01*
X83959000Y-107303000D01*
X83959000Y-109105000D01*
G37*
G36*
X89547000Y-108851000D02*
G01*
X87745000Y-108851000D01*
X87745000Y-107049000D01*
X89547000Y-107049000D01*
X89547000Y-108851000D01*
G37*
G36*
X61835512Y-106672927D02*
G01*
X61984812Y-106702624D01*
X62148784Y-106770544D01*
X62296354Y-106869147D01*
X62421853Y-106994646D01*
X62520456Y-107142216D01*
X62588376Y-107306188D01*
X62623000Y-107480259D01*
X62623000Y-107657741D01*
X62588376Y-107831812D01*
X62520456Y-107995784D01*
X62421853Y-108143354D01*
X62296354Y-108268853D01*
X62148784Y-108367456D01*
X61984812Y-108435376D01*
X61835512Y-108465073D01*
X61810742Y-108470000D01*
X61633258Y-108470000D01*
X61608488Y-108465073D01*
X61459188Y-108435376D01*
X61295216Y-108367456D01*
X61147646Y-108268853D01*
X61022147Y-108143354D01*
X60923544Y-107995784D01*
X60855624Y-107831812D01*
X60821000Y-107657741D01*
X60821000Y-107480259D01*
X60855624Y-107306188D01*
X60923544Y-107142216D01*
X61022147Y-106994646D01*
X61147646Y-106869147D01*
X61295216Y-106770544D01*
X61459188Y-106702624D01*
X61608488Y-106672927D01*
X61633258Y-106668000D01*
X61810742Y-106668000D01*
X61835512Y-106672927D01*
G37*
G36*
X120535000Y-106057000D02*
G01*
X118733000Y-106057000D01*
X118733000Y-104255000D01*
X120535000Y-104255000D01*
X120535000Y-106057000D01*
G37*
G36*
X61835512Y-104132927D02*
G01*
X61984812Y-104162624D01*
X62148784Y-104230544D01*
X62296354Y-104329147D01*
X62421853Y-104454646D01*
X62520456Y-104602216D01*
X62588376Y-104766188D01*
X62623000Y-104940259D01*
X62623000Y-105117741D01*
X62588376Y-105291812D01*
X62520456Y-105455784D01*
X62421853Y-105603354D01*
X62296354Y-105728853D01*
X62148784Y-105827456D01*
X61984812Y-105895376D01*
X61835512Y-105925073D01*
X61810742Y-105930000D01*
X61633258Y-105930000D01*
X61608488Y-105925073D01*
X61459188Y-105895376D01*
X61295216Y-105827456D01*
X61147646Y-105728853D01*
X61022147Y-105603354D01*
X60923544Y-105455784D01*
X60855624Y-105291812D01*
X60821000Y-105117741D01*
X60821000Y-104940259D01*
X60855624Y-104766188D01*
X60923544Y-104602216D01*
X61022147Y-104454646D01*
X61147646Y-104329147D01*
X61295216Y-104230544D01*
X61459188Y-104162624D01*
X61608488Y-104132927D01*
X61633258Y-104128000D01*
X61810742Y-104128000D01*
X61835512Y-104132927D01*
G37*
G36*
X61835512Y-101592927D02*
G01*
X61984812Y-101622624D01*
X62148784Y-101690544D01*
X62296354Y-101789147D01*
X62421853Y-101914646D01*
X62520456Y-102062216D01*
X62588376Y-102226188D01*
X62623000Y-102400259D01*
X62623000Y-102577741D01*
X62588376Y-102751812D01*
X62520456Y-102915784D01*
X62421853Y-103063354D01*
X62296354Y-103188853D01*
X62148784Y-103287456D01*
X61984812Y-103355376D01*
X61835512Y-103385073D01*
X61810742Y-103390000D01*
X61633258Y-103390000D01*
X61608488Y-103385073D01*
X61459188Y-103355376D01*
X61295216Y-103287456D01*
X61147646Y-103188853D01*
X61022147Y-103063354D01*
X60923544Y-102915784D01*
X60855624Y-102751812D01*
X60821000Y-102577741D01*
X60821000Y-102400259D01*
X60855624Y-102226188D01*
X60923544Y-102062216D01*
X61022147Y-101914646D01*
X61147646Y-101789147D01*
X61295216Y-101690544D01*
X61459188Y-101622624D01*
X61608488Y-101592927D01*
X61633258Y-101588000D01*
X61810742Y-101588000D01*
X61835512Y-101592927D01*
G37*
G36*
X61835512Y-99052927D02*
G01*
X61984812Y-99082624D01*
X62148784Y-99150544D01*
X62296354Y-99249147D01*
X62421853Y-99374646D01*
X62520456Y-99522216D01*
X62588376Y-99686188D01*
X62623000Y-99860259D01*
X62623000Y-100037741D01*
X62588376Y-100211812D01*
X62520456Y-100375784D01*
X62421853Y-100523354D01*
X62296354Y-100648853D01*
X62148784Y-100747456D01*
X61984812Y-100815376D01*
X61835512Y-100845073D01*
X61810742Y-100850000D01*
X61633258Y-100850000D01*
X61608488Y-100845073D01*
X61459188Y-100815376D01*
X61295216Y-100747456D01*
X61147646Y-100648853D01*
X61022147Y-100523354D01*
X60923544Y-100375784D01*
X60855624Y-100211812D01*
X60821000Y-100037741D01*
X60821000Y-99860259D01*
X60855624Y-99686188D01*
X60923544Y-99522216D01*
X61022147Y-99374646D01*
X61147646Y-99249147D01*
X61295216Y-99150544D01*
X61459188Y-99082624D01*
X61608488Y-99052927D01*
X61633258Y-99048000D01*
X61810742Y-99048000D01*
X61835512Y-99052927D01*
G37*
G36*
X123329000Y-99707000D02*
G01*
X121527000Y-99707000D01*
X121527000Y-97905000D01*
X123329000Y-97905000D01*
X123329000Y-99707000D01*
G37*
G36*
X95897000Y-99453000D02*
G01*
X94095000Y-99453000D01*
X94095000Y-97651000D01*
X95897000Y-97651000D01*
X95897000Y-99453000D01*
G37*
G36*
X61835512Y-96512927D02*
G01*
X61984812Y-96542624D01*
X62148784Y-96610544D01*
X62296354Y-96709147D01*
X62421853Y-96834646D01*
X62520456Y-96982216D01*
X62588376Y-97146188D01*
X62623000Y-97320259D01*
X62623000Y-97497741D01*
X62588376Y-97671812D01*
X62520456Y-97835784D01*
X62421853Y-97983354D01*
X62296354Y-98108853D01*
X62148784Y-98207456D01*
X61984812Y-98275376D01*
X61835512Y-98305073D01*
X61810742Y-98310000D01*
X61633258Y-98310000D01*
X61608488Y-98305073D01*
X61459188Y-98275376D01*
X61295216Y-98207456D01*
X61147646Y-98108853D01*
X61022147Y-97983354D01*
X60923544Y-97835784D01*
X60855624Y-97671812D01*
X60821000Y-97497741D01*
X60821000Y-97320259D01*
X60855624Y-97146188D01*
X60923544Y-96982216D01*
X61022147Y-96834646D01*
X61147646Y-96709147D01*
X61295216Y-96610544D01*
X61459188Y-96542624D01*
X61608488Y-96512927D01*
X61633258Y-96508000D01*
X61810742Y-96508000D01*
X61835512Y-96512927D01*
G37*
G36*
X95897000Y-96913000D02*
G01*
X94095000Y-96913000D01*
X94095000Y-95111000D01*
X95897000Y-95111000D01*
X95897000Y-96913000D01*
G37*
G36*
X123329000Y-96151000D02*
G01*
X121527000Y-96151000D01*
X121527000Y-94349000D01*
X123329000Y-94349000D01*
X123329000Y-96151000D01*
G37*
G36*
X61835512Y-93972927D02*
G01*
X61984812Y-94002624D01*
X62148784Y-94070544D01*
X62296354Y-94169147D01*
X62421853Y-94294646D01*
X62520456Y-94442216D01*
X62588376Y-94606188D01*
X62623000Y-94780259D01*
X62623000Y-94957741D01*
X62588376Y-95131812D01*
X62520456Y-95295784D01*
X62421853Y-95443354D01*
X62296354Y-95568853D01*
X62148784Y-95667456D01*
X61984812Y-95735376D01*
X61835512Y-95765073D01*
X61810742Y-95770000D01*
X61633258Y-95770000D01*
X61608488Y-95765073D01*
X61459188Y-95735376D01*
X61295216Y-95667456D01*
X61147646Y-95568853D01*
X61022147Y-95443354D01*
X60923544Y-95295784D01*
X60855624Y-95131812D01*
X60821000Y-94957741D01*
X60821000Y-94780259D01*
X60855624Y-94606188D01*
X60923544Y-94442216D01*
X61022147Y-94294646D01*
X61147646Y-94169147D01*
X61295216Y-94070544D01*
X61459188Y-94002624D01*
X61608488Y-93972927D01*
X61633258Y-93968000D01*
X61810742Y-93968000D01*
X61835512Y-93972927D01*
G37*
G36*
X95897000Y-94373000D02*
G01*
X94095000Y-94373000D01*
X94095000Y-92571000D01*
X95897000Y-92571000D01*
X95897000Y-94373000D01*
G37*
G36*
X61835512Y-91432927D02*
G01*
X61984812Y-91462624D01*
X62148784Y-91530544D01*
X62296354Y-91629147D01*
X62421853Y-91754646D01*
X62520456Y-91902216D01*
X62588376Y-92066188D01*
X62623000Y-92240259D01*
X62623000Y-92417741D01*
X62588376Y-92591812D01*
X62520456Y-92755784D01*
X62421853Y-92903354D01*
X62296354Y-93028853D01*
X62148784Y-93127456D01*
X61984812Y-93195376D01*
X61835512Y-93225073D01*
X61810742Y-93230000D01*
X61633258Y-93230000D01*
X61608488Y-93225073D01*
X61459188Y-93195376D01*
X61295216Y-93127456D01*
X61147646Y-93028853D01*
X61022147Y-92903354D01*
X60923544Y-92755784D01*
X60855624Y-92591812D01*
X60821000Y-92417741D01*
X60821000Y-92240259D01*
X60855624Y-92066188D01*
X60923544Y-91902216D01*
X61022147Y-91754646D01*
X61147646Y-91629147D01*
X61295216Y-91530544D01*
X61459188Y-91462624D01*
X61608488Y-91432927D01*
X61633258Y-91428000D01*
X61810742Y-91428000D01*
X61835512Y-91432927D01*
G37*
G36*
X42049000Y-92341000D02*
G01*
X40247000Y-92341000D01*
X40247000Y-90539000D01*
X42049000Y-90539000D01*
X42049000Y-92341000D01*
G37*
G36*
X34429000Y-92341000D02*
G01*
X32627000Y-92341000D01*
X32627000Y-90539000D01*
X34429000Y-90539000D01*
X34429000Y-92341000D01*
G37*
G36*
X62623000Y-90690000D02*
G01*
X60821000Y-90690000D01*
X60821000Y-88888000D01*
X62623000Y-88888000D01*
X62623000Y-90690000D01*
G37*
G36*
X82689000Y-87515000D02*
G01*
X80887000Y-87515000D01*
X80887000Y-85713000D01*
X82689000Y-85713000D01*
X82689000Y-87515000D01*
G37*
G36*
X90563000Y-87388000D02*
G01*
X88761000Y-87388000D01*
X88761000Y-85586000D01*
X90563000Y-85586000D01*
X90563000Y-87388000D01*
G37*
G36*
X46367000Y-85737000D02*
G01*
X44565000Y-85737000D01*
X44565000Y-83935000D01*
X46367000Y-83935000D01*
X46367000Y-85737000D01*
G37*
G36*
X33014228Y-84017703D02*
G01*
X33169100Y-84081853D01*
X33308481Y-84174985D01*
X33427015Y-84293519D01*
X33520147Y-84432900D01*
X33584297Y-84587772D01*
X33617000Y-84752184D01*
X33617000Y-84919816D01*
X33584297Y-85084228D01*
X33520147Y-85239100D01*
X33427015Y-85378481D01*
X33308481Y-85497015D01*
X33169100Y-85590147D01*
X33014228Y-85654297D01*
X32849816Y-85687000D01*
X32682184Y-85687000D01*
X32517772Y-85654297D01*
X32362900Y-85590147D01*
X32223519Y-85497015D01*
X32104985Y-85378481D01*
X32011853Y-85239100D01*
X31947703Y-85084228D01*
X31915000Y-84919816D01*
X31915000Y-84752184D01*
X31947703Y-84587772D01*
X32011853Y-84432900D01*
X32104985Y-84293519D01*
X32223519Y-84174985D01*
X32362900Y-84081853D01*
X32517772Y-84017703D01*
X32682184Y-83985000D01*
X32849816Y-83985000D01*
X33014228Y-84017703D01*
G37*
G36*
X40634228Y-84017703D02*
G01*
X40789100Y-84081853D01*
X40928481Y-84174985D01*
X41047015Y-84293519D01*
X41140147Y-84432900D01*
X41204297Y-84587772D01*
X41237000Y-84752184D01*
X41237000Y-84919816D01*
X41204297Y-85084228D01*
X41140147Y-85239100D01*
X41047015Y-85378481D01*
X40928481Y-85497015D01*
X40789100Y-85590147D01*
X40634228Y-85654297D01*
X40469816Y-85687000D01*
X40302184Y-85687000D01*
X40137772Y-85654297D01*
X39982900Y-85590147D01*
X39843519Y-85497015D01*
X39724985Y-85378481D01*
X39631853Y-85239100D01*
X39567703Y-85084228D01*
X39535000Y-84919816D01*
X39535000Y-84752184D01*
X39567703Y-84587772D01*
X39631853Y-84432900D01*
X39724985Y-84293519D01*
X39843519Y-84174985D01*
X39982900Y-84081853D01*
X40137772Y-84017703D01*
X40302184Y-83985000D01*
X40469816Y-83985000D01*
X40634228Y-84017703D01*
G37*
G36*
X50794228Y-84017703D02*
G01*
X50949100Y-84081853D01*
X51088481Y-84174985D01*
X51207015Y-84293519D01*
X51300147Y-84432900D01*
X51364297Y-84587772D01*
X51397000Y-84752184D01*
X51397000Y-84919816D01*
X51364297Y-85084228D01*
X51300147Y-85239100D01*
X51207015Y-85378481D01*
X51088481Y-85497015D01*
X50949100Y-85590147D01*
X50794228Y-85654297D01*
X50629816Y-85687000D01*
X50462184Y-85687000D01*
X50297772Y-85654297D01*
X50142900Y-85590147D01*
X50003519Y-85497015D01*
X49884985Y-85378481D01*
X49791853Y-85239100D01*
X49727703Y-85084228D01*
X49695000Y-84919816D01*
X49695000Y-84752184D01*
X49727703Y-84587772D01*
X49791853Y-84432900D01*
X49884985Y-84293519D01*
X50003519Y-84174985D01*
X50142900Y-84081853D01*
X50297772Y-84017703D01*
X50462184Y-83985000D01*
X50629816Y-83985000D01*
X50794228Y-84017703D01*
G37*
G36*
X58414228Y-84017703D02*
G01*
X58569100Y-84081853D01*
X58708481Y-84174985D01*
X58827015Y-84293519D01*
X58920147Y-84432900D01*
X58984297Y-84587772D01*
X59017000Y-84752184D01*
X59017000Y-84919816D01*
X58984297Y-85084228D01*
X58920147Y-85239100D01*
X58827015Y-85378481D01*
X58708481Y-85497015D01*
X58569100Y-85590147D01*
X58414228Y-85654297D01*
X58249816Y-85687000D01*
X58082184Y-85687000D01*
X57917772Y-85654297D01*
X57762900Y-85590147D01*
X57623519Y-85497015D01*
X57504985Y-85378481D01*
X57411853Y-85239100D01*
X57347703Y-85084228D01*
X57315000Y-84919816D01*
X57315000Y-84752184D01*
X57347703Y-84587772D01*
X57411853Y-84432900D01*
X57504985Y-84293519D01*
X57623519Y-84174985D01*
X57762900Y-84081853D01*
X57917772Y-84017703D01*
X58082184Y-83985000D01*
X58249816Y-83985000D01*
X58414228Y-84017703D01*
G37*
G36*
X45579512Y-81399927D02*
G01*
X45728812Y-81429624D01*
X45892784Y-81497544D01*
X46040354Y-81596147D01*
X46165853Y-81721646D01*
X46264456Y-81869216D01*
X46332376Y-82033188D01*
X46367000Y-82207259D01*
X46367000Y-82384741D01*
X46332376Y-82558812D01*
X46264456Y-82722784D01*
X46165853Y-82870354D01*
X46040354Y-82995853D01*
X45892784Y-83094456D01*
X45728812Y-83162376D01*
X45579512Y-83192073D01*
X45554742Y-83197000D01*
X45377258Y-83197000D01*
X45352488Y-83192073D01*
X45203188Y-83162376D01*
X45039216Y-83094456D01*
X44891646Y-82995853D01*
X44766147Y-82870354D01*
X44667544Y-82722784D01*
X44599624Y-82558812D01*
X44565000Y-82384741D01*
X44565000Y-82207259D01*
X44599624Y-82033188D01*
X44667544Y-81869216D01*
X44766147Y-81721646D01*
X44891646Y-81596147D01*
X45039216Y-81497544D01*
X45203188Y-81429624D01*
X45352488Y-81399927D01*
X45377258Y-81395000D01*
X45554742Y-81395000D01*
X45579512Y-81399927D01*
G37*
G36*
X50794228Y-81477703D02*
G01*
X50949100Y-81541853D01*
X51088481Y-81634985D01*
X51207015Y-81753519D01*
X51300147Y-81892900D01*
X51364297Y-82047772D01*
X51397000Y-82212184D01*
X51397000Y-82379816D01*
X51364297Y-82544228D01*
X51300147Y-82699100D01*
X51207015Y-82838481D01*
X51088481Y-82957015D01*
X50949100Y-83050147D01*
X50794228Y-83114297D01*
X50629816Y-83147000D01*
X50462184Y-83147000D01*
X50297772Y-83114297D01*
X50142900Y-83050147D01*
X50003519Y-82957015D01*
X49884985Y-82838481D01*
X49791853Y-82699100D01*
X49727703Y-82544228D01*
X49695000Y-82379816D01*
X49695000Y-82212184D01*
X49727703Y-82047772D01*
X49791853Y-81892900D01*
X49884985Y-81753519D01*
X50003519Y-81634985D01*
X50142900Y-81541853D01*
X50297772Y-81477703D01*
X50462184Y-81445000D01*
X50629816Y-81445000D01*
X50794228Y-81477703D01*
G37*
G36*
X33014228Y-81477703D02*
G01*
X33169100Y-81541853D01*
X33308481Y-81634985D01*
X33427015Y-81753519D01*
X33520147Y-81892900D01*
X33584297Y-82047772D01*
X33617000Y-82212184D01*
X33617000Y-82379816D01*
X33584297Y-82544228D01*
X33520147Y-82699100D01*
X33427015Y-82838481D01*
X33308481Y-82957015D01*
X33169100Y-83050147D01*
X33014228Y-83114297D01*
X32849816Y-83147000D01*
X32682184Y-83147000D01*
X32517772Y-83114297D01*
X32362900Y-83050147D01*
X32223519Y-82957015D01*
X32104985Y-82838481D01*
X32011853Y-82699100D01*
X31947703Y-82544228D01*
X31915000Y-82379816D01*
X31915000Y-82212184D01*
X31947703Y-82047772D01*
X32011853Y-81892900D01*
X32104985Y-81753519D01*
X32223519Y-81634985D01*
X32362900Y-81541853D01*
X32517772Y-81477703D01*
X32682184Y-81445000D01*
X32849816Y-81445000D01*
X33014228Y-81477703D01*
G37*
G36*
X40634228Y-81477703D02*
G01*
X40789100Y-81541853D01*
X40928481Y-81634985D01*
X41047015Y-81753519D01*
X41140147Y-81892900D01*
X41204297Y-82047772D01*
X41237000Y-82212184D01*
X41237000Y-82379816D01*
X41204297Y-82544228D01*
X41140147Y-82699100D01*
X41047015Y-82838481D01*
X40928481Y-82957015D01*
X40789100Y-83050147D01*
X40634228Y-83114297D01*
X40469816Y-83147000D01*
X40302184Y-83147000D01*
X40137772Y-83114297D01*
X39982900Y-83050147D01*
X39843519Y-82957015D01*
X39724985Y-82838481D01*
X39631853Y-82699100D01*
X39567703Y-82544228D01*
X39535000Y-82379816D01*
X39535000Y-82212184D01*
X39567703Y-82047772D01*
X39631853Y-81892900D01*
X39724985Y-81753519D01*
X39843519Y-81634985D01*
X39982900Y-81541853D01*
X40137772Y-81477703D01*
X40302184Y-81445000D01*
X40469816Y-81445000D01*
X40634228Y-81477703D01*
G37*
G36*
X58414228Y-81477703D02*
G01*
X58569100Y-81541853D01*
X58708481Y-81634985D01*
X58827015Y-81753519D01*
X58920147Y-81892900D01*
X58984297Y-82047772D01*
X59017000Y-82212184D01*
X59017000Y-82379816D01*
X58984297Y-82544228D01*
X58920147Y-82699100D01*
X58827015Y-82838481D01*
X58708481Y-82957015D01*
X58569100Y-83050147D01*
X58414228Y-83114297D01*
X58249816Y-83147000D01*
X58082184Y-83147000D01*
X57917772Y-83114297D01*
X57762900Y-83050147D01*
X57623519Y-82957015D01*
X57504985Y-82838481D01*
X57411853Y-82699100D01*
X57347703Y-82544228D01*
X57315000Y-82379816D01*
X57315000Y-82212184D01*
X57347703Y-82047772D01*
X57411853Y-81892900D01*
X57504985Y-81753519D01*
X57623519Y-81634985D01*
X57762900Y-81541853D01*
X57917772Y-81477703D01*
X58082184Y-81445000D01*
X58249816Y-81445000D01*
X58414228Y-81477703D01*
G37*
G36*
X73100564Y-80451389D02*
G01*
X73291833Y-80530615D01*
X73291835Y-80530616D01*
X73327514Y-80554456D01*
X73463973Y-80645635D01*
X73610365Y-80792027D01*
X73725385Y-80964167D01*
X73804611Y-81155436D01*
X73845000Y-81358484D01*
X73845000Y-81565516D01*
X73804611Y-81768564D01*
X73753109Y-81892900D01*
X73725384Y-81959835D01*
X73610365Y-82131973D01*
X73463973Y-82278365D01*
X73291835Y-82393384D01*
X73291834Y-82393385D01*
X73291833Y-82393385D01*
X73100564Y-82472611D01*
X72897516Y-82513000D01*
X72690484Y-82513000D01*
X72487436Y-82472611D01*
X72296167Y-82393385D01*
X72296166Y-82393385D01*
X72296165Y-82393384D01*
X72124027Y-82278365D01*
X71977635Y-82131973D01*
X71862616Y-81959835D01*
X71834891Y-81892900D01*
X71783389Y-81768564D01*
X71743000Y-81565516D01*
X71743000Y-81358484D01*
X71783389Y-81155436D01*
X71862615Y-80964167D01*
X71977635Y-80792027D01*
X72124027Y-80645635D01*
X72260486Y-80554456D01*
X72296165Y-80530616D01*
X72296167Y-80530615D01*
X72487436Y-80451389D01*
X72690484Y-80411000D01*
X72897516Y-80411000D01*
X73100564Y-80451389D01*
G37*
G36*
X66600564Y-80451389D02*
G01*
X66791833Y-80530615D01*
X66791835Y-80530616D01*
X66827514Y-80554456D01*
X66963973Y-80645635D01*
X67110365Y-80792027D01*
X67225385Y-80964167D01*
X67304611Y-81155436D01*
X67345000Y-81358484D01*
X67345000Y-81565516D01*
X67304611Y-81768564D01*
X67253109Y-81892900D01*
X67225384Y-81959835D01*
X67110365Y-82131973D01*
X66963973Y-82278365D01*
X66791835Y-82393384D01*
X66791834Y-82393385D01*
X66791833Y-82393385D01*
X66600564Y-82472611D01*
X66397516Y-82513000D01*
X66190484Y-82513000D01*
X65987436Y-82472611D01*
X65796167Y-82393385D01*
X65796166Y-82393385D01*
X65796165Y-82393384D01*
X65624027Y-82278365D01*
X65477635Y-82131973D01*
X65362616Y-81959835D01*
X65334891Y-81892900D01*
X65283389Y-81768564D01*
X65243000Y-81565516D01*
X65243000Y-81358484D01*
X65283389Y-81155436D01*
X65362615Y-80964167D01*
X65477635Y-80792027D01*
X65624027Y-80645635D01*
X65760486Y-80554456D01*
X65796165Y-80530616D01*
X65796167Y-80530615D01*
X65987436Y-80451389D01*
X66190484Y-80411000D01*
X66397516Y-80411000D01*
X66600564Y-80451389D01*
G37*
G36*
X104025000Y-81673000D02*
G01*
X102223000Y-81673000D01*
X102223000Y-79871000D01*
X104025000Y-79871000D01*
X104025000Y-81673000D01*
G37*
G36*
X122821000Y-81673000D02*
G01*
X121019000Y-81673000D01*
X121019000Y-79871000D01*
X122821000Y-79871000D01*
X122821000Y-81673000D01*
G37*
G36*
X85991000Y-80657000D02*
G01*
X84189000Y-80657000D01*
X84189000Y-78855000D01*
X85991000Y-78855000D01*
X85991000Y-80657000D01*
G37*
G36*
X45579512Y-78859927D02*
G01*
X45728812Y-78889624D01*
X45892784Y-78957544D01*
X46040354Y-79056147D01*
X46165853Y-79181646D01*
X46264456Y-79329216D01*
X46332376Y-79493188D01*
X46367000Y-79667259D01*
X46367000Y-79844741D01*
X46332376Y-80018812D01*
X46264456Y-80182784D01*
X46165853Y-80330354D01*
X46040354Y-80455853D01*
X45892784Y-80554456D01*
X45728812Y-80622376D01*
X45579512Y-80652073D01*
X45554742Y-80657000D01*
X45377258Y-80657000D01*
X45352488Y-80652073D01*
X45203188Y-80622376D01*
X45039216Y-80554456D01*
X44891646Y-80455853D01*
X44766147Y-80330354D01*
X44667544Y-80182784D01*
X44599624Y-80018812D01*
X44565000Y-79844741D01*
X44565000Y-79667259D01*
X44599624Y-79493188D01*
X44667544Y-79329216D01*
X44766147Y-79181646D01*
X44891646Y-79056147D01*
X45039216Y-78957544D01*
X45203188Y-78889624D01*
X45352488Y-78859927D01*
X45377258Y-78855000D01*
X45554742Y-78855000D01*
X45579512Y-78859927D01*
G37*
G36*
X33014228Y-78937703D02*
G01*
X33169100Y-79001853D01*
X33308481Y-79094985D01*
X33427015Y-79213519D01*
X33520147Y-79352900D01*
X33584297Y-79507772D01*
X33617000Y-79672184D01*
X33617000Y-79839816D01*
X33584297Y-80004228D01*
X33520147Y-80159100D01*
X33427015Y-80298481D01*
X33308481Y-80417015D01*
X33169100Y-80510147D01*
X33014228Y-80574297D01*
X32849816Y-80607000D01*
X32682184Y-80607000D01*
X32517772Y-80574297D01*
X32362900Y-80510147D01*
X32223519Y-80417015D01*
X32104985Y-80298481D01*
X32011853Y-80159100D01*
X31947703Y-80004228D01*
X31915000Y-79839816D01*
X31915000Y-79672184D01*
X31947703Y-79507772D01*
X32011853Y-79352900D01*
X32104985Y-79213519D01*
X32223519Y-79094985D01*
X32362900Y-79001853D01*
X32517772Y-78937703D01*
X32682184Y-78905000D01*
X32849816Y-78905000D01*
X33014228Y-78937703D01*
G37*
G36*
X40634228Y-78937703D02*
G01*
X40789100Y-79001853D01*
X40928481Y-79094985D01*
X41047015Y-79213519D01*
X41140147Y-79352900D01*
X41204297Y-79507772D01*
X41237000Y-79672184D01*
X41237000Y-79839816D01*
X41204297Y-80004228D01*
X41140147Y-80159100D01*
X41047015Y-80298481D01*
X40928481Y-80417015D01*
X40789100Y-80510147D01*
X40634228Y-80574297D01*
X40469816Y-80607000D01*
X40302184Y-80607000D01*
X40137772Y-80574297D01*
X39982900Y-80510147D01*
X39843519Y-80417015D01*
X39724985Y-80298481D01*
X39631853Y-80159100D01*
X39567703Y-80004228D01*
X39535000Y-79839816D01*
X39535000Y-79672184D01*
X39567703Y-79507772D01*
X39631853Y-79352900D01*
X39724985Y-79213519D01*
X39843519Y-79094985D01*
X39982900Y-79001853D01*
X40137772Y-78937703D01*
X40302184Y-78905000D01*
X40469816Y-78905000D01*
X40634228Y-78937703D01*
G37*
G36*
X58414228Y-78937703D02*
G01*
X58569100Y-79001853D01*
X58708481Y-79094985D01*
X58827015Y-79213519D01*
X58920147Y-79352900D01*
X58984297Y-79507772D01*
X59017000Y-79672184D01*
X59017000Y-79839816D01*
X58984297Y-80004228D01*
X58920147Y-80159100D01*
X58827015Y-80298481D01*
X58708481Y-80417015D01*
X58569100Y-80510147D01*
X58414228Y-80574297D01*
X58249816Y-80607000D01*
X58082184Y-80607000D01*
X57917772Y-80574297D01*
X57762900Y-80510147D01*
X57623519Y-80417015D01*
X57504985Y-80298481D01*
X57411853Y-80159100D01*
X57347703Y-80004228D01*
X57315000Y-79839816D01*
X57315000Y-79672184D01*
X57347703Y-79507772D01*
X57411853Y-79352900D01*
X57504985Y-79213519D01*
X57623519Y-79094985D01*
X57762900Y-79001853D01*
X57917772Y-78937703D01*
X58082184Y-78905000D01*
X58249816Y-78905000D01*
X58414228Y-78937703D01*
G37*
G36*
X50794228Y-78937703D02*
G01*
X50949100Y-79001853D01*
X51088481Y-79094985D01*
X51207015Y-79213519D01*
X51300147Y-79352900D01*
X51364297Y-79507772D01*
X51397000Y-79672184D01*
X51397000Y-79839816D01*
X51364297Y-80004228D01*
X51300147Y-80159100D01*
X51207015Y-80298481D01*
X51088481Y-80417015D01*
X50949100Y-80510147D01*
X50794228Y-80574297D01*
X50629816Y-80607000D01*
X50462184Y-80607000D01*
X50297772Y-80574297D01*
X50142900Y-80510147D01*
X50003519Y-80417015D01*
X49884985Y-80298481D01*
X49791853Y-80159100D01*
X49727703Y-80004228D01*
X49695000Y-79839816D01*
X49695000Y-79672184D01*
X49727703Y-79507772D01*
X49791853Y-79352900D01*
X49884985Y-79213519D01*
X50003519Y-79094985D01*
X50142900Y-79001853D01*
X50297772Y-78937703D01*
X50462184Y-78905000D01*
X50629816Y-78905000D01*
X50794228Y-78937703D01*
G37*
G36*
X104025000Y-79133000D02*
G01*
X102223000Y-79133000D01*
X102223000Y-77331000D01*
X104025000Y-77331000D01*
X104025000Y-79133000D01*
G37*
G36*
X122821000Y-79133000D02*
G01*
X121019000Y-79133000D01*
X121019000Y-77331000D01*
X122821000Y-77331000D01*
X122821000Y-79133000D01*
G37*
G36*
X45579512Y-76319927D02*
G01*
X45728812Y-76349624D01*
X45892784Y-76417544D01*
X46040354Y-76516147D01*
X46165853Y-76641646D01*
X46264456Y-76789216D01*
X46332376Y-76953188D01*
X46367000Y-77127259D01*
X46367000Y-77304741D01*
X46332376Y-77478812D01*
X46264456Y-77642784D01*
X46165853Y-77790354D01*
X46040354Y-77915853D01*
X45892784Y-78014456D01*
X45728812Y-78082376D01*
X45579512Y-78112073D01*
X45554742Y-78117000D01*
X45377258Y-78117000D01*
X45352488Y-78112073D01*
X45203188Y-78082376D01*
X45039216Y-78014456D01*
X44891646Y-77915853D01*
X44766147Y-77790354D01*
X44667544Y-77642784D01*
X44599624Y-77478812D01*
X44565000Y-77304741D01*
X44565000Y-77127259D01*
X44599624Y-76953188D01*
X44667544Y-76789216D01*
X44766147Y-76641646D01*
X44891646Y-76516147D01*
X45039216Y-76417544D01*
X45203188Y-76349624D01*
X45352488Y-76319927D01*
X45377258Y-76315000D01*
X45554742Y-76315000D01*
X45579512Y-76319927D01*
G37*
G36*
X58414228Y-76397703D02*
G01*
X58569100Y-76461853D01*
X58708481Y-76554985D01*
X58827015Y-76673519D01*
X58920147Y-76812900D01*
X58984297Y-76967772D01*
X59017000Y-77132184D01*
X59017000Y-77299816D01*
X58984297Y-77464228D01*
X58920147Y-77619100D01*
X58827015Y-77758481D01*
X58708481Y-77877015D01*
X58569100Y-77970147D01*
X58414228Y-78034297D01*
X58249816Y-78067000D01*
X58082184Y-78067000D01*
X57917772Y-78034297D01*
X57762900Y-77970147D01*
X57623519Y-77877015D01*
X57504985Y-77758481D01*
X57411853Y-77619100D01*
X57347703Y-77464228D01*
X57315000Y-77299816D01*
X57315000Y-77132184D01*
X57347703Y-76967772D01*
X57411853Y-76812900D01*
X57504985Y-76673519D01*
X57623519Y-76554985D01*
X57762900Y-76461853D01*
X57917772Y-76397703D01*
X58082184Y-76365000D01*
X58249816Y-76365000D01*
X58414228Y-76397703D01*
G37*
G36*
X33014228Y-76397703D02*
G01*
X33169100Y-76461853D01*
X33308481Y-76554985D01*
X33427015Y-76673519D01*
X33520147Y-76812900D01*
X33584297Y-76967772D01*
X33617000Y-77132184D01*
X33617000Y-77299816D01*
X33584297Y-77464228D01*
X33520147Y-77619100D01*
X33427015Y-77758481D01*
X33308481Y-77877015D01*
X33169100Y-77970147D01*
X33014228Y-78034297D01*
X32849816Y-78067000D01*
X32682184Y-78067000D01*
X32517772Y-78034297D01*
X32362900Y-77970147D01*
X32223519Y-77877015D01*
X32104985Y-77758481D01*
X32011853Y-77619100D01*
X31947703Y-77464228D01*
X31915000Y-77299816D01*
X31915000Y-77132184D01*
X31947703Y-76967772D01*
X32011853Y-76812900D01*
X32104985Y-76673519D01*
X32223519Y-76554985D01*
X32362900Y-76461853D01*
X32517772Y-76397703D01*
X32682184Y-76365000D01*
X32849816Y-76365000D01*
X33014228Y-76397703D01*
G37*
G36*
X50794228Y-76397703D02*
G01*
X50949100Y-76461853D01*
X51088481Y-76554985D01*
X51207015Y-76673519D01*
X51300147Y-76812900D01*
X51364297Y-76967772D01*
X51397000Y-77132184D01*
X51397000Y-77299816D01*
X51364297Y-77464228D01*
X51300147Y-77619100D01*
X51207015Y-77758481D01*
X51088481Y-77877015D01*
X50949100Y-77970147D01*
X50794228Y-78034297D01*
X50629816Y-78067000D01*
X50462184Y-78067000D01*
X50297772Y-78034297D01*
X50142900Y-77970147D01*
X50003519Y-77877015D01*
X49884985Y-77758481D01*
X49791853Y-77619100D01*
X49727703Y-77464228D01*
X49695000Y-77299816D01*
X49695000Y-77132184D01*
X49727703Y-76967772D01*
X49791853Y-76812900D01*
X49884985Y-76673519D01*
X50003519Y-76554985D01*
X50142900Y-76461853D01*
X50297772Y-76397703D01*
X50462184Y-76365000D01*
X50629816Y-76365000D01*
X50794228Y-76397703D01*
G37*
G36*
X40634228Y-76397703D02*
G01*
X40789100Y-76461853D01*
X40928481Y-76554985D01*
X41047015Y-76673519D01*
X41140147Y-76812900D01*
X41204297Y-76967772D01*
X41237000Y-77132184D01*
X41237000Y-77299816D01*
X41204297Y-77464228D01*
X41140147Y-77619100D01*
X41047015Y-77758481D01*
X40928481Y-77877015D01*
X40789100Y-77970147D01*
X40634228Y-78034297D01*
X40469816Y-78067000D01*
X40302184Y-78067000D01*
X40137772Y-78034297D01*
X39982900Y-77970147D01*
X39843519Y-77877015D01*
X39724985Y-77758481D01*
X39631853Y-77619100D01*
X39567703Y-77464228D01*
X39535000Y-77299816D01*
X39535000Y-77132184D01*
X39567703Y-76967772D01*
X39631853Y-76812900D01*
X39724985Y-76673519D01*
X39843519Y-76554985D01*
X39982900Y-76461853D01*
X40137772Y-76397703D01*
X40302184Y-76365000D01*
X40469816Y-76365000D01*
X40634228Y-76397703D01*
G37*
G36*
X66600564Y-75951389D02*
G01*
X66791833Y-76030615D01*
X66791835Y-76030616D01*
X66963973Y-76145635D01*
X67110365Y-76292027D01*
X67223839Y-76461852D01*
X67225385Y-76464167D01*
X67304611Y-76655436D01*
X67345000Y-76858484D01*
X67345000Y-77065516D01*
X67304611Y-77268564D01*
X67278749Y-77331000D01*
X67225384Y-77459835D01*
X67110365Y-77631973D01*
X66963973Y-77778365D01*
X66791835Y-77893384D01*
X66791834Y-77893385D01*
X66791833Y-77893385D01*
X66600564Y-77972611D01*
X66397516Y-78013000D01*
X66190484Y-78013000D01*
X65987436Y-77972611D01*
X65796167Y-77893385D01*
X65796166Y-77893385D01*
X65796165Y-77893384D01*
X65624027Y-77778365D01*
X65477635Y-77631973D01*
X65362616Y-77459835D01*
X65309251Y-77331000D01*
X65283389Y-77268564D01*
X65243000Y-77065516D01*
X65243000Y-76858484D01*
X65283389Y-76655436D01*
X65362615Y-76464167D01*
X65364162Y-76461852D01*
X65477635Y-76292027D01*
X65624027Y-76145635D01*
X65796165Y-76030616D01*
X65796167Y-76030615D01*
X65987436Y-75951389D01*
X66190484Y-75911000D01*
X66397516Y-75911000D01*
X66600564Y-75951389D01*
G37*
G36*
X73100564Y-75951389D02*
G01*
X73291833Y-76030615D01*
X73291835Y-76030616D01*
X73463973Y-76145635D01*
X73610365Y-76292027D01*
X73723839Y-76461852D01*
X73725385Y-76464167D01*
X73804611Y-76655436D01*
X73845000Y-76858484D01*
X73845000Y-77065516D01*
X73804611Y-77268564D01*
X73778749Y-77331000D01*
X73725384Y-77459835D01*
X73610365Y-77631973D01*
X73463973Y-77778365D01*
X73291835Y-77893384D01*
X73291834Y-77893385D01*
X73291833Y-77893385D01*
X73100564Y-77972611D01*
X72897516Y-78013000D01*
X72690484Y-78013000D01*
X72487436Y-77972611D01*
X72296167Y-77893385D01*
X72296166Y-77893385D01*
X72296165Y-77893384D01*
X72124027Y-77778365D01*
X71977635Y-77631973D01*
X71862616Y-77459835D01*
X71809251Y-77331000D01*
X71783389Y-77268564D01*
X71743000Y-77065516D01*
X71743000Y-76858484D01*
X71783389Y-76655436D01*
X71862615Y-76464167D01*
X71864162Y-76461852D01*
X71977635Y-76292027D01*
X72124027Y-76145635D01*
X72296165Y-76030616D01*
X72296167Y-76030615D01*
X72487436Y-75951389D01*
X72690484Y-75911000D01*
X72897516Y-75911000D01*
X73100564Y-75951389D01*
G37*
G36*
X45579512Y-73779927D02*
G01*
X45728812Y-73809624D01*
X45892784Y-73877544D01*
X46040354Y-73976147D01*
X46165853Y-74101646D01*
X46264456Y-74249216D01*
X46332376Y-74413188D01*
X46367000Y-74587259D01*
X46367000Y-74764741D01*
X46332376Y-74938812D01*
X46264456Y-75102784D01*
X46165853Y-75250354D01*
X46040354Y-75375853D01*
X45892784Y-75474456D01*
X45728812Y-75542376D01*
X45579512Y-75572073D01*
X45554742Y-75577000D01*
X45377258Y-75577000D01*
X45352488Y-75572073D01*
X45203188Y-75542376D01*
X45039216Y-75474456D01*
X44891646Y-75375853D01*
X44766147Y-75250354D01*
X44667544Y-75102784D01*
X44599624Y-74938812D01*
X44565000Y-74764741D01*
X44565000Y-74587259D01*
X44599624Y-74413188D01*
X44667544Y-74249216D01*
X44766147Y-74101646D01*
X44891646Y-73976147D01*
X45039216Y-73877544D01*
X45203188Y-73809624D01*
X45352488Y-73779927D01*
X45377258Y-73775000D01*
X45554742Y-73775000D01*
X45579512Y-73779927D01*
G37*
G36*
X40634228Y-73857703D02*
G01*
X40789100Y-73921853D01*
X40928481Y-74014985D01*
X41047015Y-74133519D01*
X41140147Y-74272900D01*
X41204297Y-74427772D01*
X41237000Y-74592184D01*
X41237000Y-74759816D01*
X41204297Y-74924228D01*
X41140147Y-75079100D01*
X41047015Y-75218481D01*
X40928481Y-75337015D01*
X40789100Y-75430147D01*
X40634228Y-75494297D01*
X40469816Y-75527000D01*
X40302184Y-75527000D01*
X40137772Y-75494297D01*
X39982900Y-75430147D01*
X39843519Y-75337015D01*
X39724985Y-75218481D01*
X39631853Y-75079100D01*
X39567703Y-74924228D01*
X39535000Y-74759816D01*
X39535000Y-74592184D01*
X39567703Y-74427772D01*
X39631853Y-74272900D01*
X39724985Y-74133519D01*
X39843519Y-74014985D01*
X39982900Y-73921853D01*
X40137772Y-73857703D01*
X40302184Y-73825000D01*
X40469816Y-73825000D01*
X40634228Y-73857703D01*
G37*
G36*
X50794228Y-73857703D02*
G01*
X50949100Y-73921853D01*
X51088481Y-74014985D01*
X51207015Y-74133519D01*
X51300147Y-74272900D01*
X51364297Y-74427772D01*
X51397000Y-74592184D01*
X51397000Y-74759816D01*
X51364297Y-74924228D01*
X51300147Y-75079100D01*
X51207015Y-75218481D01*
X51088481Y-75337015D01*
X50949100Y-75430147D01*
X50794228Y-75494297D01*
X50629816Y-75527000D01*
X50462184Y-75527000D01*
X50297772Y-75494297D01*
X50142900Y-75430147D01*
X50003519Y-75337015D01*
X49884985Y-75218481D01*
X49791853Y-75079100D01*
X49727703Y-74924228D01*
X49695000Y-74759816D01*
X49695000Y-74592184D01*
X49727703Y-74427772D01*
X49791853Y-74272900D01*
X49884985Y-74133519D01*
X50003519Y-74014985D01*
X50142900Y-73921853D01*
X50297772Y-73857703D01*
X50462184Y-73825000D01*
X50629816Y-73825000D01*
X50794228Y-73857703D01*
G37*
G36*
X58414228Y-73857703D02*
G01*
X58569100Y-73921853D01*
X58708481Y-74014985D01*
X58827015Y-74133519D01*
X58920147Y-74272900D01*
X58984297Y-74427772D01*
X59017000Y-74592184D01*
X59017000Y-74759816D01*
X58984297Y-74924228D01*
X58920147Y-75079100D01*
X58827015Y-75218481D01*
X58708481Y-75337015D01*
X58569100Y-75430147D01*
X58414228Y-75494297D01*
X58249816Y-75527000D01*
X58082184Y-75527000D01*
X57917772Y-75494297D01*
X57762900Y-75430147D01*
X57623519Y-75337015D01*
X57504985Y-75218481D01*
X57411853Y-75079100D01*
X57347703Y-74924228D01*
X57315000Y-74759816D01*
X57315000Y-74592184D01*
X57347703Y-74427772D01*
X57411853Y-74272900D01*
X57504985Y-74133519D01*
X57623519Y-74014985D01*
X57762900Y-73921853D01*
X57917772Y-73857703D01*
X58082184Y-73825000D01*
X58249816Y-73825000D01*
X58414228Y-73857703D01*
G37*
G36*
X33014228Y-73857703D02*
G01*
X33169100Y-73921853D01*
X33308481Y-74014985D01*
X33427015Y-74133519D01*
X33520147Y-74272900D01*
X33584297Y-74427772D01*
X33617000Y-74592184D01*
X33617000Y-74759816D01*
X33584297Y-74924228D01*
X33520147Y-75079100D01*
X33427015Y-75218481D01*
X33308481Y-75337015D01*
X33169100Y-75430147D01*
X33014228Y-75494297D01*
X32849816Y-75527000D01*
X32682184Y-75527000D01*
X32517772Y-75494297D01*
X32362900Y-75430147D01*
X32223519Y-75337015D01*
X32104985Y-75218481D01*
X32011853Y-75079100D01*
X31947703Y-74924228D01*
X31915000Y-74759816D01*
X31915000Y-74592184D01*
X31947703Y-74427772D01*
X32011853Y-74272900D01*
X32104985Y-74133519D01*
X32223519Y-74014985D01*
X32362900Y-73921853D01*
X32517772Y-73857703D01*
X32682184Y-73825000D01*
X32849816Y-73825000D01*
X33014228Y-73857703D01*
G37*
G36*
X91960000Y-75069000D02*
G01*
X90158000Y-75069000D01*
X90158000Y-73267000D01*
X91960000Y-73267000D01*
X91960000Y-75069000D01*
G37*
G36*
X99580000Y-75069000D02*
G01*
X97778000Y-75069000D01*
X97778000Y-73267000D01*
X99580000Y-73267000D01*
X99580000Y-75069000D01*
G37*
G36*
X120027000Y-73037000D02*
G01*
X118225000Y-73037000D01*
X118225000Y-71235000D01*
X120027000Y-71235000D01*
X120027000Y-73037000D01*
G37*
G36*
X45579512Y-71239927D02*
G01*
X45728812Y-71269624D01*
X45892784Y-71337544D01*
X46040354Y-71436147D01*
X46165853Y-71561646D01*
X46264456Y-71709216D01*
X46332376Y-71873188D01*
X46367000Y-72047259D01*
X46367000Y-72224741D01*
X46332376Y-72398812D01*
X46264456Y-72562784D01*
X46165853Y-72710354D01*
X46040354Y-72835853D01*
X45892784Y-72934456D01*
X45728812Y-73002376D01*
X45579512Y-73032073D01*
X45554742Y-73037000D01*
X45377258Y-73037000D01*
X45352488Y-73032073D01*
X45203188Y-73002376D01*
X45039216Y-72934456D01*
X44891646Y-72835853D01*
X44766147Y-72710354D01*
X44667544Y-72562784D01*
X44599624Y-72398812D01*
X44565000Y-72224741D01*
X44565000Y-72047259D01*
X44599624Y-71873188D01*
X44667544Y-71709216D01*
X44766147Y-71561646D01*
X44891646Y-71436147D01*
X45039216Y-71337544D01*
X45203188Y-71269624D01*
X45352488Y-71239927D01*
X45377258Y-71235000D01*
X45554742Y-71235000D01*
X45579512Y-71239927D01*
G37*
G36*
X50794228Y-71317703D02*
G01*
X50949100Y-71381853D01*
X51088481Y-71474985D01*
X51207015Y-71593519D01*
X51300147Y-71732900D01*
X51364297Y-71887772D01*
X51397000Y-72052184D01*
X51397000Y-72219816D01*
X51364297Y-72384228D01*
X51300147Y-72539100D01*
X51207015Y-72678481D01*
X51088481Y-72797015D01*
X50949100Y-72890147D01*
X50794228Y-72954297D01*
X50629816Y-72987000D01*
X50462184Y-72987000D01*
X50297772Y-72954297D01*
X50142900Y-72890147D01*
X50003519Y-72797015D01*
X49884985Y-72678481D01*
X49791853Y-72539100D01*
X49727703Y-72384228D01*
X49695000Y-72219816D01*
X49695000Y-72052184D01*
X49727703Y-71887772D01*
X49791853Y-71732900D01*
X49884985Y-71593519D01*
X50003519Y-71474985D01*
X50142900Y-71381853D01*
X50297772Y-71317703D01*
X50462184Y-71285000D01*
X50629816Y-71285000D01*
X50794228Y-71317703D01*
G37*
G36*
X58414228Y-71317703D02*
G01*
X58569100Y-71381853D01*
X58708481Y-71474985D01*
X58827015Y-71593519D01*
X58920147Y-71732900D01*
X58984297Y-71887772D01*
X59017000Y-72052184D01*
X59017000Y-72219816D01*
X58984297Y-72384228D01*
X58920147Y-72539100D01*
X58827015Y-72678481D01*
X58708481Y-72797015D01*
X58569100Y-72890147D01*
X58414228Y-72954297D01*
X58249816Y-72987000D01*
X58082184Y-72987000D01*
X57917772Y-72954297D01*
X57762900Y-72890147D01*
X57623519Y-72797015D01*
X57504985Y-72678481D01*
X57411853Y-72539100D01*
X57347703Y-72384228D01*
X57315000Y-72219816D01*
X57315000Y-72052184D01*
X57347703Y-71887772D01*
X57411853Y-71732900D01*
X57504985Y-71593519D01*
X57623519Y-71474985D01*
X57762900Y-71381853D01*
X57917772Y-71317703D01*
X58082184Y-71285000D01*
X58249816Y-71285000D01*
X58414228Y-71317703D01*
G37*
G36*
X40634228Y-71317703D02*
G01*
X40789100Y-71381853D01*
X40928481Y-71474985D01*
X41047015Y-71593519D01*
X41140147Y-71732900D01*
X41204297Y-71887772D01*
X41237000Y-72052184D01*
X41237000Y-72219816D01*
X41204297Y-72384228D01*
X41140147Y-72539100D01*
X41047015Y-72678481D01*
X40928481Y-72797015D01*
X40789100Y-72890147D01*
X40634228Y-72954297D01*
X40469816Y-72987000D01*
X40302184Y-72987000D01*
X40137772Y-72954297D01*
X39982900Y-72890147D01*
X39843519Y-72797015D01*
X39724985Y-72678481D01*
X39631853Y-72539100D01*
X39567703Y-72384228D01*
X39535000Y-72219816D01*
X39535000Y-72052184D01*
X39567703Y-71887772D01*
X39631853Y-71732900D01*
X39724985Y-71593519D01*
X39843519Y-71474985D01*
X39982900Y-71381853D01*
X40137772Y-71317703D01*
X40302184Y-71285000D01*
X40469816Y-71285000D01*
X40634228Y-71317703D01*
G37*
G36*
X33014228Y-71317703D02*
G01*
X33169100Y-71381853D01*
X33308481Y-71474985D01*
X33427015Y-71593519D01*
X33520147Y-71732900D01*
X33584297Y-71887772D01*
X33617000Y-72052184D01*
X33617000Y-72219816D01*
X33584297Y-72384228D01*
X33520147Y-72539100D01*
X33427015Y-72678481D01*
X33308481Y-72797015D01*
X33169100Y-72890147D01*
X33014228Y-72954297D01*
X32849816Y-72987000D01*
X32682184Y-72987000D01*
X32517772Y-72954297D01*
X32362900Y-72890147D01*
X32223519Y-72797015D01*
X32104985Y-72678481D01*
X32011853Y-72539100D01*
X31947703Y-72384228D01*
X31915000Y-72219816D01*
X31915000Y-72052184D01*
X31947703Y-71887772D01*
X32011853Y-71732900D01*
X32104985Y-71593519D01*
X32223519Y-71474985D01*
X32362900Y-71381853D01*
X32517772Y-71317703D01*
X32682184Y-71285000D01*
X32849816Y-71285000D01*
X33014228Y-71317703D01*
G37*
G36*
X108089000Y-72783000D02*
G01*
X106287000Y-72783000D01*
X106287000Y-70981000D01*
X108089000Y-70981000D01*
X108089000Y-72783000D01*
G37*
G36*
X66600564Y-70545389D02*
G01*
X66791833Y-70624615D01*
X66791835Y-70624616D01*
X66963973Y-70739635D01*
X67110365Y-70886027D01*
X67225385Y-71058167D01*
X67304611Y-71249436D01*
X67345000Y-71452484D01*
X67345000Y-71659516D01*
X67304611Y-71862564D01*
X67225385Y-72053833D01*
X67225384Y-72053835D01*
X67110365Y-72225973D01*
X66963973Y-72372365D01*
X66791835Y-72487384D01*
X66791834Y-72487385D01*
X66791833Y-72487385D01*
X66600564Y-72566611D01*
X66397516Y-72607000D01*
X66190484Y-72607000D01*
X65987436Y-72566611D01*
X65796167Y-72487385D01*
X65796166Y-72487385D01*
X65796165Y-72487384D01*
X65624027Y-72372365D01*
X65477635Y-72225973D01*
X65362616Y-72053835D01*
X65362615Y-72053833D01*
X65283389Y-71862564D01*
X65243000Y-71659516D01*
X65243000Y-71452484D01*
X65283389Y-71249436D01*
X65362615Y-71058167D01*
X65477635Y-70886027D01*
X65624027Y-70739635D01*
X65796165Y-70624616D01*
X65796167Y-70624615D01*
X65987436Y-70545389D01*
X66190484Y-70505000D01*
X66397516Y-70505000D01*
X66600564Y-70545389D01*
G37*
G36*
X73100564Y-70545389D02*
G01*
X73291833Y-70624615D01*
X73291835Y-70624616D01*
X73463973Y-70739635D01*
X73610365Y-70886027D01*
X73725385Y-71058167D01*
X73804611Y-71249436D01*
X73845000Y-71452484D01*
X73845000Y-71659516D01*
X73804611Y-71862564D01*
X73725385Y-72053833D01*
X73725384Y-72053835D01*
X73610365Y-72225973D01*
X73463973Y-72372365D01*
X73291835Y-72487384D01*
X73291834Y-72487385D01*
X73291833Y-72487385D01*
X73100564Y-72566611D01*
X72897516Y-72607000D01*
X72690484Y-72607000D01*
X72487436Y-72566611D01*
X72296167Y-72487385D01*
X72296166Y-72487385D01*
X72296165Y-72487384D01*
X72124027Y-72372365D01*
X71977635Y-72225973D01*
X71862616Y-72053835D01*
X71862615Y-72053833D01*
X71783389Y-71862564D01*
X71743000Y-71659516D01*
X71743000Y-71452484D01*
X71783389Y-71249436D01*
X71862615Y-71058167D01*
X71977635Y-70886027D01*
X72124027Y-70739635D01*
X72296165Y-70624616D01*
X72296167Y-70624615D01*
X72487436Y-70545389D01*
X72690484Y-70505000D01*
X72897516Y-70505000D01*
X73100564Y-70545389D01*
G37*
G36*
X45579512Y-68699927D02*
G01*
X45728812Y-68729624D01*
X45892784Y-68797544D01*
X46040354Y-68896147D01*
X46165853Y-69021646D01*
X46264456Y-69169216D01*
X46332376Y-69333188D01*
X46367000Y-69507259D01*
X46367000Y-69684741D01*
X46332376Y-69858812D01*
X46264456Y-70022784D01*
X46165853Y-70170354D01*
X46040354Y-70295853D01*
X45892784Y-70394456D01*
X45728812Y-70462376D01*
X45579512Y-70492073D01*
X45554742Y-70497000D01*
X45377258Y-70497000D01*
X45352488Y-70492073D01*
X45203188Y-70462376D01*
X45039216Y-70394456D01*
X44891646Y-70295853D01*
X44766147Y-70170354D01*
X44667544Y-70022784D01*
X44599624Y-69858812D01*
X44565000Y-69684741D01*
X44565000Y-69507259D01*
X44599624Y-69333188D01*
X44667544Y-69169216D01*
X44766147Y-69021646D01*
X44891646Y-68896147D01*
X45039216Y-68797544D01*
X45203188Y-68729624D01*
X45352488Y-68699927D01*
X45377258Y-68695000D01*
X45554742Y-68695000D01*
X45579512Y-68699927D01*
G37*
G36*
X58414228Y-68777703D02*
G01*
X58569100Y-68841853D01*
X58708481Y-68934985D01*
X58827015Y-69053519D01*
X58920147Y-69192900D01*
X58984297Y-69347772D01*
X59017000Y-69512184D01*
X59017000Y-69679816D01*
X58984297Y-69844228D01*
X58920147Y-69999100D01*
X58827015Y-70138481D01*
X58708481Y-70257015D01*
X58569100Y-70350147D01*
X58414228Y-70414297D01*
X58249816Y-70447000D01*
X58082184Y-70447000D01*
X57917772Y-70414297D01*
X57762900Y-70350147D01*
X57623519Y-70257015D01*
X57504985Y-70138481D01*
X57411853Y-69999100D01*
X57347703Y-69844228D01*
X57315000Y-69679816D01*
X57315000Y-69512184D01*
X57347703Y-69347772D01*
X57411853Y-69192900D01*
X57504985Y-69053519D01*
X57623519Y-68934985D01*
X57762900Y-68841853D01*
X57917772Y-68777703D01*
X58082184Y-68745000D01*
X58249816Y-68745000D01*
X58414228Y-68777703D01*
G37*
G36*
X40634228Y-68777703D02*
G01*
X40789100Y-68841853D01*
X40928481Y-68934985D01*
X41047015Y-69053519D01*
X41140147Y-69192900D01*
X41204297Y-69347772D01*
X41237000Y-69512184D01*
X41237000Y-69679816D01*
X41204297Y-69844228D01*
X41140147Y-69999100D01*
X41047015Y-70138481D01*
X40928481Y-70257015D01*
X40789100Y-70350147D01*
X40634228Y-70414297D01*
X40469816Y-70447000D01*
X40302184Y-70447000D01*
X40137772Y-70414297D01*
X39982900Y-70350147D01*
X39843519Y-70257015D01*
X39724985Y-70138481D01*
X39631853Y-69999100D01*
X39567703Y-69844228D01*
X39535000Y-69679816D01*
X39535000Y-69512184D01*
X39567703Y-69347772D01*
X39631853Y-69192900D01*
X39724985Y-69053519D01*
X39843519Y-68934985D01*
X39982900Y-68841853D01*
X40137772Y-68777703D01*
X40302184Y-68745000D01*
X40469816Y-68745000D01*
X40634228Y-68777703D01*
G37*
G36*
X50794228Y-68777703D02*
G01*
X50949100Y-68841853D01*
X51088481Y-68934985D01*
X51207015Y-69053519D01*
X51300147Y-69192900D01*
X51364297Y-69347772D01*
X51397000Y-69512184D01*
X51397000Y-69679816D01*
X51364297Y-69844228D01*
X51300147Y-69999100D01*
X51207015Y-70138481D01*
X51088481Y-70257015D01*
X50949100Y-70350147D01*
X50794228Y-70414297D01*
X50629816Y-70447000D01*
X50462184Y-70447000D01*
X50297772Y-70414297D01*
X50142900Y-70350147D01*
X50003519Y-70257015D01*
X49884985Y-70138481D01*
X49791853Y-69999100D01*
X49727703Y-69844228D01*
X49695000Y-69679816D01*
X49695000Y-69512184D01*
X49727703Y-69347772D01*
X49791853Y-69192900D01*
X49884985Y-69053519D01*
X50003519Y-68934985D01*
X50142900Y-68841853D01*
X50297772Y-68777703D01*
X50462184Y-68745000D01*
X50629816Y-68745000D01*
X50794228Y-68777703D01*
G37*
G36*
X33014228Y-68777703D02*
G01*
X33169100Y-68841853D01*
X33308481Y-68934985D01*
X33427015Y-69053519D01*
X33520147Y-69192900D01*
X33584297Y-69347772D01*
X33617000Y-69512184D01*
X33617000Y-69679816D01*
X33584297Y-69844228D01*
X33520147Y-69999100D01*
X33427015Y-70138481D01*
X33308481Y-70257015D01*
X33169100Y-70350147D01*
X33014228Y-70414297D01*
X32849816Y-70447000D01*
X32682184Y-70447000D01*
X32517772Y-70414297D01*
X32362900Y-70350147D01*
X32223519Y-70257015D01*
X32104985Y-70138481D01*
X32011853Y-69999100D01*
X31947703Y-69844228D01*
X31915000Y-69679816D01*
X31915000Y-69512184D01*
X31947703Y-69347772D01*
X32011853Y-69192900D01*
X32104985Y-69053519D01*
X32223519Y-68934985D01*
X32362900Y-68841853D01*
X32517772Y-68777703D01*
X32682184Y-68745000D01*
X32849816Y-68745000D01*
X33014228Y-68777703D01*
G37*
G36*
X108089000Y-70243000D02*
G01*
X106287000Y-70243000D01*
X106287000Y-68441000D01*
X108089000Y-68441000D01*
X108089000Y-70243000D01*
G37*
G36*
X86245000Y-69735000D02*
G01*
X84443000Y-69735000D01*
X84443000Y-67933000D01*
X86245000Y-67933000D01*
X86245000Y-69735000D01*
G37*
G36*
X73100564Y-66045389D02*
G01*
X73291833Y-66124615D01*
X73291835Y-66124616D01*
X73463973Y-66239635D01*
X73610365Y-66386027D01*
X73674256Y-66481646D01*
X73725385Y-66558167D01*
X73804611Y-66749436D01*
X73845000Y-66952484D01*
X73845000Y-67159516D01*
X73804611Y-67362564D01*
X73754815Y-67482782D01*
X73725384Y-67553835D01*
X73610365Y-67725973D01*
X73463973Y-67872365D01*
X73291835Y-67987384D01*
X73291834Y-67987385D01*
X73291833Y-67987385D01*
X73100564Y-68066611D01*
X72897516Y-68107000D01*
X72690484Y-68107000D01*
X72487436Y-68066611D01*
X72296167Y-67987385D01*
X72296166Y-67987385D01*
X72296165Y-67987384D01*
X72124027Y-67872365D01*
X71977635Y-67725973D01*
X71862616Y-67553835D01*
X71833185Y-67482782D01*
X71783389Y-67362564D01*
X71743000Y-67159516D01*
X71743000Y-66952484D01*
X71783389Y-66749436D01*
X71862615Y-66558167D01*
X71913745Y-66481646D01*
X71977635Y-66386027D01*
X72124027Y-66239635D01*
X72296165Y-66124616D01*
X72296167Y-66124615D01*
X72487436Y-66045389D01*
X72690484Y-66005000D01*
X72897516Y-66005000D01*
X73100564Y-66045389D01*
G37*
G36*
X66600564Y-66045389D02*
G01*
X66791833Y-66124615D01*
X66791835Y-66124616D01*
X66963973Y-66239635D01*
X67110365Y-66386027D01*
X67174256Y-66481646D01*
X67225385Y-66558167D01*
X67304611Y-66749436D01*
X67345000Y-66952484D01*
X67345000Y-67159516D01*
X67304611Y-67362564D01*
X67254815Y-67482782D01*
X67225384Y-67553835D01*
X67110365Y-67725973D01*
X66963973Y-67872365D01*
X66791835Y-67987384D01*
X66791834Y-67987385D01*
X66791833Y-67987385D01*
X66600564Y-68066611D01*
X66397516Y-68107000D01*
X66190484Y-68107000D01*
X65987436Y-68066611D01*
X65796167Y-67987385D01*
X65796166Y-67987385D01*
X65796165Y-67987384D01*
X65624027Y-67872365D01*
X65477635Y-67725973D01*
X65362616Y-67553835D01*
X65333185Y-67482782D01*
X65283389Y-67362564D01*
X65243000Y-67159516D01*
X65243000Y-66952484D01*
X65283389Y-66749436D01*
X65362615Y-66558167D01*
X65413745Y-66481646D01*
X65477635Y-66386027D01*
X65624027Y-66239635D01*
X65796165Y-66124616D01*
X65796167Y-66124615D01*
X65987436Y-66045389D01*
X66190484Y-66005000D01*
X66397516Y-66005000D01*
X66600564Y-66045389D01*
G37*
G36*
X45579512Y-66159927D02*
G01*
X45728812Y-66189624D01*
X45892784Y-66257544D01*
X46040354Y-66356147D01*
X46165853Y-66481646D01*
X46264456Y-66629216D01*
X46332376Y-66793188D01*
X46367000Y-66967259D01*
X46367000Y-67144741D01*
X46332376Y-67318812D01*
X46264456Y-67482784D01*
X46165853Y-67630354D01*
X46040354Y-67755853D01*
X45892784Y-67854456D01*
X45728812Y-67922376D01*
X45579512Y-67952073D01*
X45554742Y-67957000D01*
X45377258Y-67957000D01*
X45352488Y-67952073D01*
X45203188Y-67922376D01*
X45039216Y-67854456D01*
X44891646Y-67755853D01*
X44766147Y-67630354D01*
X44667544Y-67482784D01*
X44599624Y-67318812D01*
X44565000Y-67144741D01*
X44565000Y-66967259D01*
X44599624Y-66793188D01*
X44667544Y-66629216D01*
X44766147Y-66481646D01*
X44891646Y-66356147D01*
X45039216Y-66257544D01*
X45203188Y-66189624D01*
X45352488Y-66159927D01*
X45377258Y-66155000D01*
X45554742Y-66155000D01*
X45579512Y-66159927D01*
G37*
G36*
X33617000Y-67907000D02*
G01*
X31915000Y-67907000D01*
X31915000Y-66205000D01*
X33617000Y-66205000D01*
X33617000Y-67907000D01*
G37*
G36*
X40634228Y-66237703D02*
G01*
X40789100Y-66301853D01*
X40928481Y-66394985D01*
X41047015Y-66513519D01*
X41140147Y-66652900D01*
X41204297Y-66807772D01*
X41237000Y-66972184D01*
X41237000Y-67139816D01*
X41204297Y-67304228D01*
X41140147Y-67459100D01*
X41047015Y-67598481D01*
X40928481Y-67717015D01*
X40789100Y-67810147D01*
X40634228Y-67874297D01*
X40469816Y-67907000D01*
X40302184Y-67907000D01*
X40137772Y-67874297D01*
X39982900Y-67810147D01*
X39843519Y-67717015D01*
X39724985Y-67598481D01*
X39631853Y-67459100D01*
X39567703Y-67304228D01*
X39535000Y-67139816D01*
X39535000Y-66972184D01*
X39567703Y-66807772D01*
X39631853Y-66652900D01*
X39724985Y-66513519D01*
X39843519Y-66394985D01*
X39982900Y-66301853D01*
X40137772Y-66237703D01*
X40302184Y-66205000D01*
X40469816Y-66205000D01*
X40634228Y-66237703D01*
G37*
G36*
X51397000Y-67907000D02*
G01*
X49695000Y-67907000D01*
X49695000Y-66205000D01*
X51397000Y-66205000D01*
X51397000Y-67907000D01*
G37*
G36*
X58414228Y-66237703D02*
G01*
X58569100Y-66301853D01*
X58708481Y-66394985D01*
X58827015Y-66513519D01*
X58920147Y-66652900D01*
X58984297Y-66807772D01*
X59017000Y-66972184D01*
X59017000Y-67139816D01*
X58984297Y-67304228D01*
X58920147Y-67459100D01*
X58827015Y-67598481D01*
X58708481Y-67717015D01*
X58569100Y-67810147D01*
X58414228Y-67874297D01*
X58249816Y-67907000D01*
X58082184Y-67907000D01*
X57917772Y-67874297D01*
X57762900Y-67810147D01*
X57623519Y-67717015D01*
X57504985Y-67598481D01*
X57411853Y-67459100D01*
X57347703Y-67304228D01*
X57315000Y-67139816D01*
X57315000Y-66972184D01*
X57347703Y-66807772D01*
X57411853Y-66652900D01*
X57504985Y-66513519D01*
X57623519Y-66394985D01*
X57762900Y-66301853D01*
X57917772Y-66237703D01*
X58082184Y-66205000D01*
X58249816Y-66205000D01*
X58414228Y-66237703D01*
G37*
G36*
X99580000Y-67322000D02*
G01*
X97778000Y-67322000D01*
X97778000Y-65520000D01*
X99580000Y-65520000D01*
X99580000Y-67322000D01*
G37*
G36*
X91960000Y-67322000D02*
G01*
X90158000Y-67322000D01*
X90158000Y-65520000D01*
X91960000Y-65520000D01*
X91960000Y-67322000D01*
G37*
G36*
X66600564Y-60385389D02*
G01*
X66791833Y-60464615D01*
X66791835Y-60464616D01*
X66963973Y-60579635D01*
X67110365Y-60726027D01*
X67225385Y-60898167D01*
X67304611Y-61089436D01*
X67345000Y-61292484D01*
X67345000Y-61499516D01*
X67304611Y-61702564D01*
X67238985Y-61861000D01*
X67225384Y-61893835D01*
X67110365Y-62065973D01*
X66963973Y-62212365D01*
X66791835Y-62327384D01*
X66791834Y-62327385D01*
X66791833Y-62327385D01*
X66600564Y-62406611D01*
X66397516Y-62447000D01*
X66190484Y-62447000D01*
X65987436Y-62406611D01*
X65796167Y-62327385D01*
X65796166Y-62327385D01*
X65796165Y-62327384D01*
X65624027Y-62212365D01*
X65477635Y-62065973D01*
X65362616Y-61893835D01*
X65349015Y-61861000D01*
X65283389Y-61702564D01*
X65243000Y-61499516D01*
X65243000Y-61292484D01*
X65283389Y-61089436D01*
X65362615Y-60898167D01*
X65477635Y-60726027D01*
X65624027Y-60579635D01*
X65796165Y-60464616D01*
X65796167Y-60464615D01*
X65987436Y-60385389D01*
X66190484Y-60345000D01*
X66397516Y-60345000D01*
X66600564Y-60385389D01*
G37*
G36*
X73100564Y-60385389D02*
G01*
X73291833Y-60464615D01*
X73291835Y-60464616D01*
X73463973Y-60579635D01*
X73610365Y-60726027D01*
X73725385Y-60898167D01*
X73804611Y-61089436D01*
X73845000Y-61292484D01*
X73845000Y-61499516D01*
X73804611Y-61702564D01*
X73738985Y-61861000D01*
X73725384Y-61893835D01*
X73610365Y-62065973D01*
X73463973Y-62212365D01*
X73291835Y-62327384D01*
X73291834Y-62327385D01*
X73291833Y-62327385D01*
X73100564Y-62406611D01*
X72897516Y-62447000D01*
X72690484Y-62447000D01*
X72487436Y-62406611D01*
X72296167Y-62327385D01*
X72296166Y-62327385D01*
X72296165Y-62327384D01*
X72124027Y-62212365D01*
X71977635Y-62065973D01*
X71862616Y-61893835D01*
X71849015Y-61861000D01*
X71783389Y-61702564D01*
X71743000Y-61499516D01*
X71743000Y-61292484D01*
X71783389Y-61089436D01*
X71862615Y-60898167D01*
X71977635Y-60726027D01*
X72124027Y-60579635D01*
X72296165Y-60464616D01*
X72296167Y-60464615D01*
X72487436Y-60385389D01*
X72690484Y-60345000D01*
X72897516Y-60345000D01*
X73100564Y-60385389D01*
G37*
G36*
X108089000Y-61861000D02*
G01*
X106287000Y-61861000D01*
X106287000Y-60059000D01*
X108089000Y-60059000D01*
X108089000Y-61861000D01*
G37*
G36*
X85991000Y-60591000D02*
G01*
X84189000Y-60591000D01*
X84189000Y-58789000D01*
X85991000Y-58789000D01*
X85991000Y-60591000D01*
G37*
G36*
X34429000Y-59829000D02*
G01*
X32627000Y-59829000D01*
X32627000Y-58027000D01*
X34429000Y-58027000D01*
X34429000Y-59829000D01*
G37*
G36*
X99580000Y-59702000D02*
G01*
X97778000Y-59702000D01*
X97778000Y-57900000D01*
X99580000Y-57900000D01*
X99580000Y-59702000D01*
G37*
G36*
X91960000Y-59702000D02*
G01*
X90158000Y-59702000D01*
X90158000Y-57900000D01*
X91960000Y-57900000D01*
X91960000Y-59702000D01*
G37*
G36*
X119519000Y-59321000D02*
G01*
X117717000Y-59321000D01*
X117717000Y-57519000D01*
X119519000Y-57519000D01*
X119519000Y-59321000D01*
G37*
G36*
X108089000Y-59321000D02*
G01*
X106287000Y-59321000D01*
X106287000Y-57519000D01*
X108089000Y-57519000D01*
X108089000Y-59321000D01*
G37*
G36*
X66600564Y-55885389D02*
G01*
X66791833Y-55964615D01*
X66791835Y-55964616D01*
X66963973Y-56079635D01*
X67110365Y-56226027D01*
X67225385Y-56398167D01*
X67304611Y-56589436D01*
X67345000Y-56792484D01*
X67345000Y-56999516D01*
X67304611Y-57202564D01*
X67268808Y-57289000D01*
X67225384Y-57393835D01*
X67110365Y-57565973D01*
X66963973Y-57712365D01*
X66791835Y-57827384D01*
X66791834Y-57827385D01*
X66791833Y-57827385D01*
X66600564Y-57906611D01*
X66397516Y-57947000D01*
X66190484Y-57947000D01*
X65987436Y-57906611D01*
X65796167Y-57827385D01*
X65796166Y-57827385D01*
X65796165Y-57827384D01*
X65624027Y-57712365D01*
X65477635Y-57565973D01*
X65362616Y-57393835D01*
X65319192Y-57289000D01*
X65283389Y-57202564D01*
X65243000Y-56999516D01*
X65243000Y-56792484D01*
X65283389Y-56589436D01*
X65362615Y-56398167D01*
X65477635Y-56226027D01*
X65624027Y-56079635D01*
X65796165Y-55964616D01*
X65796167Y-55964615D01*
X65987436Y-55885389D01*
X66190484Y-55845000D01*
X66397516Y-55845000D01*
X66600564Y-55885389D01*
G37*
G36*
X73100564Y-55885389D02*
G01*
X73291833Y-55964615D01*
X73291835Y-55964616D01*
X73463973Y-56079635D01*
X73610365Y-56226027D01*
X73725385Y-56398167D01*
X73804611Y-56589436D01*
X73845000Y-56792484D01*
X73845000Y-56999516D01*
X73804611Y-57202564D01*
X73768808Y-57289000D01*
X73725384Y-57393835D01*
X73610365Y-57565973D01*
X73463973Y-57712365D01*
X73291835Y-57827384D01*
X73291834Y-57827385D01*
X73291833Y-57827385D01*
X73100564Y-57906611D01*
X72897516Y-57947000D01*
X72690484Y-57947000D01*
X72487436Y-57906611D01*
X72296167Y-57827385D01*
X72296166Y-57827385D01*
X72296165Y-57827384D01*
X72124027Y-57712365D01*
X71977635Y-57565973D01*
X71862616Y-57393835D01*
X71819192Y-57289000D01*
X71783389Y-57202564D01*
X71743000Y-56999516D01*
X71743000Y-56792484D01*
X71783389Y-56589436D01*
X71862615Y-56398167D01*
X71977635Y-56226027D01*
X72124027Y-56079635D01*
X72296165Y-55964616D01*
X72296167Y-55964615D01*
X72487436Y-55885389D01*
X72690484Y-55845000D01*
X72897516Y-55845000D01*
X73100564Y-55885389D01*
G37*
G36*
X39509000Y-57289000D02*
G01*
X37707000Y-57289000D01*
X37707000Y-55487000D01*
X39509000Y-55487000D01*
X39509000Y-57289000D01*
G37*
G36*
X33641512Y-55491927D02*
G01*
X33790812Y-55521624D01*
X33954784Y-55589544D01*
X34102354Y-55688147D01*
X34227853Y-55813646D01*
X34326456Y-55961216D01*
X34394376Y-56125188D01*
X34429000Y-56299259D01*
X34429000Y-56476741D01*
X34394376Y-56650812D01*
X34326456Y-56814784D01*
X34227853Y-56962354D01*
X34102354Y-57087853D01*
X33954784Y-57186456D01*
X33790812Y-57254376D01*
X33641512Y-57284073D01*
X33616742Y-57289000D01*
X33439258Y-57289000D01*
X33414488Y-57284073D01*
X33265188Y-57254376D01*
X33101216Y-57186456D01*
X32953646Y-57087853D01*
X32828147Y-56962354D01*
X32729544Y-56814784D01*
X32661624Y-56650812D01*
X32627000Y-56476741D01*
X32627000Y-56299259D01*
X32661624Y-56125188D01*
X32729544Y-55961216D01*
X32828147Y-55813646D01*
X32953646Y-55688147D01*
X33101216Y-55589544D01*
X33265188Y-55521624D01*
X33414488Y-55491927D01*
X33439258Y-55487000D01*
X33616742Y-55487000D01*
X33641512Y-55491927D01*
G37*
G36*
X41261512Y-55491927D02*
G01*
X41410812Y-55521624D01*
X41574784Y-55589544D01*
X41722354Y-55688147D01*
X41847853Y-55813646D01*
X41946456Y-55961216D01*
X42014376Y-56125188D01*
X42049000Y-56299259D01*
X42049000Y-56476741D01*
X42014376Y-56650812D01*
X41946456Y-56814784D01*
X41847853Y-56962354D01*
X41722354Y-57087853D01*
X41574784Y-57186456D01*
X41410812Y-57254376D01*
X41261512Y-57284073D01*
X41236742Y-57289000D01*
X41059258Y-57289000D01*
X41034488Y-57284073D01*
X40885188Y-57254376D01*
X40721216Y-57186456D01*
X40573646Y-57087853D01*
X40448147Y-56962354D01*
X40349544Y-56814784D01*
X40281624Y-56650812D01*
X40247000Y-56476741D01*
X40247000Y-56299259D01*
X40281624Y-56125188D01*
X40349544Y-55961216D01*
X40448147Y-55813646D01*
X40573646Y-55688147D01*
X40721216Y-55589544D01*
X40885188Y-55521624D01*
X41034488Y-55491927D01*
X41059258Y-55487000D01*
X41236742Y-55487000D01*
X41261512Y-55491927D01*
G37*
M02*
