M48
; DRILL file {KiCad (5.1.5)-3} date 02/26/20 16:32:26
; FORMAT={-:-/ absolute / inch / decimal}
; #@! TF.CreationDate,2020-02-26T16:32:26+01:00
; #@! TF.GenerationSoftware,Kicad,Pcbnew,(5.1.5)-3
; #@! TF.FileFunction,Plated,1,2,PTH
FMAT,2
INCH
T1C0.0157
T2C0.0394
T3C0.0433
%
G90
G05
T1
X3.75Y-2.4
X3.75Y-3.1
X3.8Y-2.95
X3.9Y-2.45
X3.9266Y-2.9469
X3.95Y-2.25
X4.0Y-1.8
X4.0766Y-2.9469
X4.0848Y-2.376
X4.2Y-2.325
X4.225Y-2.098
X4.2266Y-2.9469
X4.2348Y-2.376
X4.325Y-2.275
X4.35Y-1.9
X4.3848Y-2.376
X4.4Y-2.95
X4.5018Y-1.9187
X4.525Y-1.775
X4.525Y-1.975
X4.525Y-2.15
X4.525Y-2.425
X4.5266Y-2.9469
X4.575Y-2.325
X4.6Y-2.4
X4.698Y-2.525
X4.7Y-2.05
X4.7Y-2.95
X4.775Y-2.45
X4.831Y-2.225
X4.85Y-2.95
X4.875Y-1.875
X4.9987Y-2.9394
X5.0Y-2.325
X5.0035Y-2.75
X5.025Y-2.825
X5.075Y-2.45
X5.075Y-3.0
X5.1035Y-2.95
X5.125Y-2.25
X5.2Y-2.9
X5.225Y-2.725
X5.325Y-2.275
X5.325Y-2.8
X5.35Y-2.95
X5.55Y-2.375
X5.575Y-2.8
X5.6Y-2.95
X5.625Y-2.3
X5.65Y-3.1
X5.7Y-1.825
X5.75Y-2.025
X5.9Y-2.45
X5.9Y-2.75
X5.95Y-2.25
X5.95Y-2.75
X6.025Y-2.65
X6.125Y-3.05
X6.15Y-3.225
X6.25Y-2.65
X6.25Y-2.725
X6.25Y-2.95
X6.275Y-2.525
X6.325Y-2.7
X6.375Y-2.5356
X6.375Y-2.975
X6.377Y-2.625
X6.3848Y-2.8697
X6.3848Y-3.0197
X6.3848Y-3.1697
X6.4937Y-2.9507
X6.5Y-2.7
X6.525Y-2.575
X6.543Y-2.4269
X6.6Y-2.7
X6.6Y-2.75
X6.625Y-2.3285
X6.625Y-2.625
X6.65Y-2.7
X6.65Y-2.9
X6.6549Y-2.475
X6.675Y-3.05
X6.7Y-2.7
X6.7201Y-2.8709
X6.7201Y-3.0209
X6.7201Y-3.1709
X6.7234Y-2.4673
X6.7279Y-2.6037
X6.775Y-2.375
X6.775Y-2.7
X6.8Y-3.05
X6.8035Y-2.775
X6.825Y-2.35
X6.9252Y-3.075
X6.975Y-3.025
X7.0Y-2.725
X7.0Y-2.9
X7.052Y-2.875
X7.052Y-3.025
X7.052Y-3.175
X7.1Y-2.7035
X7.2Y-2.35
X7.2Y-2.675
T2
X6.475Y-2.075
X6.4Y-1.65
X5.875Y-2.075
X7.2Y-1.65
X5.2Y-2.075
X3.55Y-1.6
X3.55Y-1.7
X5.625Y-1.675
X4.0719Y-1.597
X4.1719Y-1.597
X4.2719Y-1.597
X4.3719Y-1.597
X4.4719Y-1.597
X4.5719Y-1.597
X4.6719Y-1.597
X4.7719Y-1.597
X3.75Y-1.6
X3.85Y-1.6
X3.95Y-3.2
X4.05Y-3.2
X4.15Y-3.2
X4.25Y-3.2
X4.35Y-3.2
X4.45Y-3.2
X4.55Y-3.2
X4.65Y-3.2
X4.75Y-3.2
T3
X6.6246Y-1.6689
X6.6246Y-1.8461
X6.8805Y-1.6689
X6.8805Y-1.8461
X5.8272Y-1.6713
X5.8272Y-1.8484
X6.0831Y-1.6713
X6.0831Y-1.8484
X5.0327Y-1.6703
X5.0327Y-1.8474
X5.2886Y-1.6703
X5.2886Y-1.8474
T0
M30
