M48
; DRILL file {KiCad (5.1.5)-3} date 01/30/20 19:41:36
; FORMAT={-:-/ absolute / inch / decimal}
; #@! TF.CreationDate,2020-01-30T19:41:36+01:00
; #@! TF.GenerationSoftware,Kicad,Pcbnew,(5.1.5)-3
; #@! TF.FileFunction,Plated,1,2,PTH
FMAT,2
INCH
T1C0.0157
T2C0.0315
T3C0.0394
T4C0.0433
%
G90
G05
T1
X1.625Y-3.975
X1.7595Y-3.9388
X1.76Y-3.78
X1.775Y-3.975
X1.785Y-3.565
X1.802Y-4.021
X1.82Y-3.698
X1.82Y-3.838
X1.86Y-3.64
X1.8607Y-3.88
X1.92Y-3.66
X1.92Y-3.8
X1.92Y-3.94
X1.96Y-3.94
X2.0Y-3.698
X2.0Y-3.838
X2.0451Y-3.9317
X2.06Y-3.6285
X2.1Y-3.6633
X2.1Y-3.8
X2.1055Y-4.52
X2.1155Y-3.9691
X2.15Y-2.45
X2.1785Y-4.5548
X2.22Y-3.52
X2.22Y-3.6633
X2.2206Y-4.14
X2.225Y-4.475
X2.24Y-4.04
X2.32Y-3.94
X2.5165Y-3.96
X2.545Y-3.93
X2.595Y-3.775
X2.6Y-4.09
X2.635Y-4.018
X2.64Y-3.562
X2.655Y-4.48
X2.6867Y-4.126
X2.69Y-4.26
X2.72Y-4.08
X2.72Y-4.21
X2.72Y-4.35
X2.75Y-3.635
X2.7586Y-3.896
X2.8116Y-4.1685
X2.8159Y-3.9219
X2.82Y-3.562
X2.82Y-4.022
X2.82Y-4.302
X2.9Y-4.06
X2.9Y-4.21
X2.9Y-4.34
X2.94Y-3.61
X2.9524Y-3.9774
X2.9701Y-3.9265
X2.9916Y-4.1685
X3.0Y-3.562
X3.0Y-4.022
X3.0Y-4.302
X3.07Y-4.06
X3.08Y-4.2
X3.125Y-3.575
X3.14Y-4.14
X3.175Y-2.5
X3.3Y-3.525
X3.3675Y-4.4825
X3.425Y-4.025
X3.7Y-3.25
X3.75Y-3.25
X3.8285Y-3.6602
X3.9199Y-3.6019
X3.935Y-3.455
X3.95Y-3.6415
X3.96Y-3.72
X3.98Y-3.41
X4.01Y-3.96
X4.0185Y-3.73
X4.02Y-3.67
X4.05Y-2.925
X4.058Y-3.85
X4.0807Y-3.3724
X4.0866Y-3.88
X4.0969Y-3.602
X4.13Y-3.64
X4.15Y-3.175
X4.1959Y-2.9791
X4.1983Y-3.8108
X4.24Y-3.6
X4.28Y-3.71
X4.285Y-3.635
X4.3Y-2.95
X4.35Y-3.3
X4.35Y-3.59
X4.382Y-3.6743
X4.425Y-4.0
X4.425Y-4.075
X4.4302Y-3.7087
X4.445Y-2.375
X4.4481Y-2.7985
X4.45Y-3.025
X4.4884Y-3.5988
X4.498Y-3.175
X4.5042Y-3.5254
X4.505Y-3.885
X4.56Y-3.705
X4.5746Y-3.6684
X4.59Y-3.8
X4.6Y-2.75
X4.6Y-3.275
X4.605Y-3.625
X4.71Y-3.68
X4.7351Y-3.5987
T2
X1.99Y-2.64
X1.99Y-2.74
X1.99Y-2.84
X1.99Y-2.94
X1.99Y-3.04
X1.99Y-3.14
X1.99Y-3.24
X1.99Y-3.34
X2.29Y-2.64
X2.29Y-2.74
X2.29Y-2.84
X2.29Y-2.94
X2.29Y-3.04
X2.29Y-3.14
X2.29Y-3.24
X2.29Y-3.34
X1.29Y-2.64
X1.29Y-2.74
X1.29Y-2.84
X1.29Y-2.94
X1.29Y-3.04
X1.29Y-3.14
X1.29Y-3.24
X1.29Y-3.34
X1.59Y-2.64
X1.59Y-2.74
X1.59Y-2.84
X1.59Y-2.94
X1.59Y-3.04
X1.59Y-3.14
X1.59Y-3.24
X1.59Y-3.34
T3
X3.49Y-4.25
X3.585Y-2.315
X3.74Y-3.78
X4.8Y-3.18
X4.69Y-2.84
X3.585Y-2.92
X3.36Y-2.71
X3.505Y-4.52
X2.775Y-4.52
X4.06Y-3.18
X4.22Y-2.83
X4.71Y-4.14
X1.79Y-2.64
X1.79Y-2.74
X1.79Y-2.84
X1.79Y-2.94
X1.79Y-3.04
X1.79Y-3.14
X1.79Y-3.24
X1.79Y-3.34
X3.065Y-4.52
X4.06Y-3.08
X4.22Y-2.4
X4.67Y-2.3
X2.43Y-3.535
X2.43Y-3.635
X2.43Y-3.735
X2.43Y-3.835
X2.43Y-3.935
X2.43Y-4.035
X2.43Y-4.135
X2.43Y-4.235
X2.43Y-4.335
X3.22Y-3.41
X4.8Y-3.08
X1.32Y-3.6
X1.62Y-3.6
X4.82Y-3.75
X3.35Y-2.35
X4.22Y-2.3
X3.74Y-3.68
X3.885Y-2.315
X1.32Y-2.22
X1.32Y-2.32
X3.53Y-3.405
X2.335Y-4.52
X1.8075Y-4.52
X4.82Y-3.89
X3.885Y-2.615
X3.74Y-3.88
X3.585Y-2.615
X3.35Y-3.14
X1.48Y-4.44
X3.885Y-2.92
X3.27Y-4.26
X4.22Y-2.73
X1.52Y-2.22
X1.62Y-2.22
T4
X2.61Y-3.03
X2.61Y-3.2072
X2.8659Y-3.03
X2.8659Y-3.2072
X2.61Y-2.24
X2.61Y-2.4172
X2.8659Y-2.24
X2.8659Y-2.4172
X2.61Y-2.64
X2.61Y-2.8172
X2.8659Y-2.64
X2.8659Y-2.8172
T0
M30
