G04 #@! TF.GenerationSoftware,KiCad,Pcbnew,(5.1.5)-3*
G04 #@! TF.CreationDate,2020-01-30T19:41:33+01:00*
G04 #@! TF.ProjectId,TestingBoard,54657374-696e-4674-926f-6172642e6b69,rev?*
G04 #@! TF.SameCoordinates,Original*
G04 #@! TF.FileFunction,Legend,Bot*
G04 #@! TF.FilePolarity,Positive*
%FSLAX46Y46*%
G04 Gerber Fmt 4.6, Leading zero omitted, Abs format (unit mm)*
G04 Created by KiCad (PCBNEW (5.1.5)-3) date 2020-01-30 19:41:33*
%MOMM*%
%LPD*%
G04 APERTURE LIST*
%ADD10C,0.300000*%
%ADD11C,0.600000*%
G04 APERTURE END LIST*
D10*
X122637857Y-111857142D02*
X121495000Y-111857142D01*
X119637857Y-112428571D02*
X119637857Y-110928571D01*
X119066428Y-110928571D01*
X118923571Y-111000000D01*
X118852142Y-111071428D01*
X118780714Y-111214285D01*
X118780714Y-111428571D01*
X118852142Y-111571428D01*
X118923571Y-111642857D01*
X119066428Y-111714285D01*
X119637857Y-111714285D01*
X118137857Y-112428571D02*
X118137857Y-111428571D01*
X118137857Y-111714285D02*
X118066428Y-111571428D01*
X117995000Y-111500000D01*
X117852142Y-111428571D01*
X117709285Y-111428571D01*
X116995000Y-112428571D02*
X117137857Y-112357142D01*
X117209285Y-112285714D01*
X117280714Y-112142857D01*
X117280714Y-111714285D01*
X117209285Y-111571428D01*
X117137857Y-111500000D01*
X116995000Y-111428571D01*
X116780714Y-111428571D01*
X116637857Y-111500000D01*
X116566428Y-111571428D01*
X116495000Y-111714285D01*
X116495000Y-112142857D01*
X116566428Y-112285714D01*
X116637857Y-112357142D01*
X116780714Y-112428571D01*
X116995000Y-112428571D01*
X115637857Y-112428571D02*
X115780714Y-112357142D01*
X115852142Y-112285714D01*
X115923571Y-112142857D01*
X115923571Y-111714285D01*
X115852142Y-111571428D01*
X115780714Y-111500000D01*
X115637857Y-111428571D01*
X115423571Y-111428571D01*
X115280714Y-111500000D01*
X115209285Y-111571428D01*
X115137857Y-111714285D01*
X115137857Y-112142857D01*
X115209285Y-112285714D01*
X115280714Y-112357142D01*
X115423571Y-112428571D01*
X115637857Y-112428571D01*
X114709285Y-111428571D02*
X114137857Y-111428571D01*
X114495000Y-112428571D02*
X114495000Y-111142857D01*
X114423571Y-111000000D01*
X114280714Y-110928571D01*
X114137857Y-110928571D01*
X112280714Y-112428571D02*
X112423571Y-112357142D01*
X112495000Y-112285714D01*
X112566428Y-112142857D01*
X112566428Y-111714285D01*
X112495000Y-111571428D01*
X112423571Y-111500000D01*
X112280714Y-111428571D01*
X112066428Y-111428571D01*
X111923571Y-111500000D01*
X111852142Y-111571428D01*
X111780714Y-111714285D01*
X111780714Y-112142857D01*
X111852142Y-112285714D01*
X111923571Y-112357142D01*
X112066428Y-112428571D01*
X112280714Y-112428571D01*
X111352142Y-111428571D02*
X110780714Y-111428571D01*
X111137857Y-112428571D02*
X111137857Y-111142857D01*
X111066428Y-111000000D01*
X110923571Y-110928571D01*
X110780714Y-110928571D01*
X108280714Y-112285714D02*
X108352142Y-112357142D01*
X108566428Y-112428571D01*
X108709285Y-112428571D01*
X108923571Y-112357142D01*
X109066428Y-112214285D01*
X109137857Y-112071428D01*
X109209285Y-111785714D01*
X109209285Y-111571428D01*
X109137857Y-111285714D01*
X109066428Y-111142857D01*
X108923571Y-111000000D01*
X108709285Y-110928571D01*
X108566428Y-110928571D01*
X108352142Y-111000000D01*
X108280714Y-111071428D01*
X107423571Y-112428571D02*
X107566428Y-112357142D01*
X107637857Y-112285714D01*
X107709285Y-112142857D01*
X107709285Y-111714285D01*
X107637857Y-111571428D01*
X107566428Y-111500000D01*
X107423571Y-111428571D01*
X107209285Y-111428571D01*
X107066428Y-111500000D01*
X106995000Y-111571428D01*
X106923571Y-111714285D01*
X106923571Y-112142857D01*
X106995000Y-112285714D01*
X107066428Y-112357142D01*
X107209285Y-112428571D01*
X107423571Y-112428571D01*
X106280714Y-111428571D02*
X106280714Y-112428571D01*
X106280714Y-111571428D02*
X106209285Y-111500000D01*
X106066428Y-111428571D01*
X105852142Y-111428571D01*
X105709285Y-111500000D01*
X105637857Y-111642857D01*
X105637857Y-112428571D01*
X104280714Y-112357142D02*
X104423571Y-112428571D01*
X104709285Y-112428571D01*
X104852142Y-112357142D01*
X104923571Y-112285714D01*
X104995000Y-112142857D01*
X104995000Y-111714285D01*
X104923571Y-111571428D01*
X104852142Y-111500000D01*
X104709285Y-111428571D01*
X104423571Y-111428571D01*
X104280714Y-111500000D01*
X103066428Y-112357142D02*
X103209285Y-112428571D01*
X103495000Y-112428571D01*
X103637857Y-112357142D01*
X103709285Y-112214285D01*
X103709285Y-111642857D01*
X103637857Y-111500000D01*
X103495000Y-111428571D01*
X103209285Y-111428571D01*
X103066428Y-111500000D01*
X102995000Y-111642857D01*
X102995000Y-111785714D01*
X103709285Y-111928571D01*
X102352142Y-111428571D02*
X102352142Y-112928571D01*
X102352142Y-111500000D02*
X102209285Y-111428571D01*
X101923571Y-111428571D01*
X101780714Y-111500000D01*
X101709285Y-111571428D01*
X101637857Y-111714285D01*
X101637857Y-112142857D01*
X101709285Y-112285714D01*
X101780714Y-112357142D01*
X101923571Y-112428571D01*
X102209285Y-112428571D01*
X102352142Y-112357142D01*
X101209285Y-111428571D02*
X100637857Y-111428571D01*
X100995000Y-110928571D02*
X100995000Y-112214285D01*
X100923571Y-112357142D01*
X100780714Y-112428571D01*
X100637857Y-112428571D01*
X100209285Y-112357142D02*
X100066428Y-112428571D01*
X99780714Y-112428571D01*
X99637857Y-112357142D01*
X99566428Y-112214285D01*
X99566428Y-112142857D01*
X99637857Y-112000000D01*
X99780714Y-111928571D01*
X99995000Y-111928571D01*
X100137857Y-111857142D01*
X100209285Y-111714285D01*
X100209285Y-111642857D01*
X100137857Y-111500000D01*
X99995000Y-111428571D01*
X99780714Y-111428571D01*
X99637857Y-111500000D01*
X97995000Y-111428571D02*
X97423571Y-111428571D01*
X97780714Y-112428571D02*
X97780714Y-111142857D01*
X97709285Y-111000000D01*
X97566428Y-110928571D01*
X97423571Y-110928571D01*
X96709285Y-112428571D02*
X96852142Y-112357142D01*
X96923571Y-112285714D01*
X96995000Y-112142857D01*
X96995000Y-111714285D01*
X96923571Y-111571428D01*
X96852142Y-111500000D01*
X96709285Y-111428571D01*
X96495000Y-111428571D01*
X96352142Y-111500000D01*
X96280714Y-111571428D01*
X96209285Y-111714285D01*
X96209285Y-112142857D01*
X96280714Y-112285714D01*
X96352142Y-112357142D01*
X96495000Y-112428571D01*
X96709285Y-112428571D01*
X95566428Y-112428571D02*
X95566428Y-111428571D01*
X95566428Y-111714285D02*
X95495000Y-111571428D01*
X95423571Y-111500000D01*
X95280714Y-111428571D01*
X95137857Y-111428571D01*
X92637857Y-112285714D02*
X92709285Y-112357142D01*
X92923571Y-112428571D01*
X93066428Y-112428571D01*
X93280714Y-112357142D01*
X93423571Y-112214285D01*
X93495000Y-112071428D01*
X93566428Y-111785714D01*
X93566428Y-111571428D01*
X93495000Y-111285714D01*
X93423571Y-111142857D01*
X93280714Y-111000000D01*
X93066428Y-110928571D01*
X92923571Y-110928571D01*
X92709285Y-111000000D01*
X92637857Y-111071428D01*
X91995000Y-112428571D02*
X91995000Y-110928571D01*
X91495000Y-112000000D01*
X90995000Y-110928571D01*
X90995000Y-112428571D01*
X89995000Y-110928571D02*
X89709285Y-110928571D01*
X89566428Y-111000000D01*
X89423571Y-111142857D01*
X89352142Y-111428571D01*
X89352142Y-111928571D01*
X89423571Y-112214285D01*
X89566428Y-112357142D01*
X89709285Y-112428571D01*
X89995000Y-112428571D01*
X90137857Y-112357142D01*
X90280714Y-112214285D01*
X90352142Y-111928571D01*
X90352142Y-111428571D01*
X90280714Y-111142857D01*
X90137857Y-111000000D01*
X89995000Y-110928571D01*
X88780714Y-112357142D02*
X88566428Y-112428571D01*
X88209285Y-112428571D01*
X88066428Y-112357142D01*
X87995000Y-112285714D01*
X87923571Y-112142857D01*
X87923571Y-112000000D01*
X87995000Y-111857142D01*
X88066428Y-111785714D01*
X88209285Y-111714285D01*
X88495000Y-111642857D01*
X88637857Y-111571428D01*
X88709285Y-111500000D01*
X88780714Y-111357142D01*
X88780714Y-111214285D01*
X88709285Y-111071428D01*
X88637857Y-111000000D01*
X88495000Y-110928571D01*
X88137857Y-110928571D01*
X87923571Y-111000000D01*
X85423571Y-112428571D02*
X86137857Y-112428571D01*
X86137857Y-110928571D01*
X84709285Y-112428571D02*
X84852142Y-112357142D01*
X84923571Y-112285714D01*
X84995000Y-112142857D01*
X84995000Y-111714285D01*
X84923571Y-111571428D01*
X84852142Y-111500000D01*
X84709285Y-111428571D01*
X84495000Y-111428571D01*
X84352142Y-111500000D01*
X84280714Y-111571428D01*
X84209285Y-111714285D01*
X84209285Y-112142857D01*
X84280714Y-112285714D01*
X84352142Y-112357142D01*
X84495000Y-112428571D01*
X84709285Y-112428571D01*
X82923571Y-111428571D02*
X82923571Y-112642857D01*
X82995000Y-112785714D01*
X83066428Y-112857142D01*
X83209285Y-112928571D01*
X83423571Y-112928571D01*
X83566428Y-112857142D01*
X82923571Y-112357142D02*
X83066428Y-112428571D01*
X83352142Y-112428571D01*
X83495000Y-112357142D01*
X83566428Y-112285714D01*
X83637857Y-112142857D01*
X83637857Y-111714285D01*
X83566428Y-111571428D01*
X83495000Y-111500000D01*
X83352142Y-111428571D01*
X83066428Y-111428571D01*
X82923571Y-111500000D01*
X82209285Y-112428571D02*
X82209285Y-111428571D01*
X82209285Y-110928571D02*
X82280714Y-111000000D01*
X82209285Y-111071428D01*
X82137857Y-111000000D01*
X82209285Y-110928571D01*
X82209285Y-111071428D01*
X80852142Y-112357142D02*
X80995000Y-112428571D01*
X81280714Y-112428571D01*
X81423571Y-112357142D01*
X81495000Y-112285714D01*
X81566428Y-112142857D01*
X81566428Y-111714285D01*
X81495000Y-111571428D01*
X81423571Y-111500000D01*
X81280714Y-111428571D01*
X80995000Y-111428571D01*
X80852142Y-111500000D01*
X122637857Y-114407142D02*
X121495000Y-114407142D01*
X118852142Y-114978571D02*
X119709285Y-114978571D01*
X119280714Y-114978571D02*
X119280714Y-113478571D01*
X119423571Y-113692857D01*
X119566428Y-113835714D01*
X119709285Y-113907142D01*
X117995000Y-114121428D02*
X118137857Y-114050000D01*
X118209285Y-113978571D01*
X118280714Y-113835714D01*
X118280714Y-113764285D01*
X118209285Y-113621428D01*
X118137857Y-113550000D01*
X117995000Y-113478571D01*
X117709285Y-113478571D01*
X117566428Y-113550000D01*
X117495000Y-113621428D01*
X117423571Y-113764285D01*
X117423571Y-113835714D01*
X117495000Y-113978571D01*
X117566428Y-114050000D01*
X117709285Y-114121428D01*
X117995000Y-114121428D01*
X118137857Y-114192857D01*
X118209285Y-114264285D01*
X118280714Y-114407142D01*
X118280714Y-114692857D01*
X118209285Y-114835714D01*
X118137857Y-114907142D01*
X117995000Y-114978571D01*
X117709285Y-114978571D01*
X117566428Y-114907142D01*
X117495000Y-114835714D01*
X117423571Y-114692857D01*
X117423571Y-114407142D01*
X117495000Y-114264285D01*
X117566428Y-114192857D01*
X117709285Y-114121428D01*
X116923571Y-114978571D02*
X116137857Y-113978571D01*
X116923571Y-113978571D02*
X116137857Y-114978571D01*
X113923571Y-114192857D02*
X113709285Y-114264285D01*
X113637857Y-114335714D01*
X113566428Y-114478571D01*
X113566428Y-114692857D01*
X113637857Y-114835714D01*
X113709285Y-114907142D01*
X113852142Y-114978571D01*
X114423571Y-114978571D01*
X114423571Y-113478571D01*
X113923571Y-113478571D01*
X113780714Y-113550000D01*
X113709285Y-113621428D01*
X113637857Y-113764285D01*
X113637857Y-113907142D01*
X113709285Y-114050000D01*
X113780714Y-114121428D01*
X113923571Y-114192857D01*
X114423571Y-114192857D01*
X112923571Y-114978571D02*
X112923571Y-113978571D01*
X112923571Y-114264285D02*
X112852142Y-114121428D01*
X112780714Y-114050000D01*
X112637857Y-113978571D01*
X112495000Y-113978571D01*
X111423571Y-114907142D02*
X111566428Y-114978571D01*
X111852142Y-114978571D01*
X111995000Y-114907142D01*
X112066428Y-114764285D01*
X112066428Y-114192857D01*
X111995000Y-114050000D01*
X111852142Y-113978571D01*
X111566428Y-113978571D01*
X111423571Y-114050000D01*
X111352142Y-114192857D01*
X111352142Y-114335714D01*
X112066428Y-114478571D01*
X110066428Y-114978571D02*
X110066428Y-114192857D01*
X110137857Y-114050000D01*
X110280714Y-113978571D01*
X110566428Y-113978571D01*
X110709285Y-114050000D01*
X110066428Y-114907142D02*
X110209285Y-114978571D01*
X110566428Y-114978571D01*
X110709285Y-114907142D01*
X110780714Y-114764285D01*
X110780714Y-114621428D01*
X110709285Y-114478571D01*
X110566428Y-114407142D01*
X110209285Y-114407142D01*
X110066428Y-114335714D01*
X109352142Y-114978571D02*
X109352142Y-113478571D01*
X109209285Y-114407142D02*
X108780714Y-114978571D01*
X108780714Y-113978571D02*
X109352142Y-114550000D01*
X107923571Y-114978571D02*
X108066428Y-114907142D01*
X108137857Y-114835714D01*
X108209285Y-114692857D01*
X108209285Y-114264285D01*
X108137857Y-114121428D01*
X108066428Y-114050000D01*
X107923571Y-113978571D01*
X107709285Y-113978571D01*
X107566428Y-114050000D01*
X107495000Y-114121428D01*
X107423571Y-114264285D01*
X107423571Y-114692857D01*
X107495000Y-114835714D01*
X107566428Y-114907142D01*
X107709285Y-114978571D01*
X107923571Y-114978571D01*
X106137857Y-113978571D02*
X106137857Y-114978571D01*
X106780714Y-113978571D02*
X106780714Y-114764285D01*
X106709285Y-114907142D01*
X106566428Y-114978571D01*
X106352142Y-114978571D01*
X106209285Y-114907142D01*
X106137857Y-114835714D01*
X105637857Y-113978571D02*
X105066428Y-113978571D01*
X105423571Y-113478571D02*
X105423571Y-114764285D01*
X105352142Y-114907142D01*
X105209285Y-114978571D01*
X105066428Y-114978571D01*
X103137857Y-113478571D02*
X102995000Y-113478571D01*
X102852142Y-113550000D01*
X102780714Y-113621428D01*
X102709285Y-113764285D01*
X102637857Y-114050000D01*
X102637857Y-114407142D01*
X102709285Y-114692857D01*
X102780714Y-114835714D01*
X102852142Y-114907142D01*
X102995000Y-114978571D01*
X103137857Y-114978571D01*
X103280714Y-114907142D01*
X103352142Y-114835714D01*
X103423571Y-114692857D01*
X103495000Y-114407142D01*
X103495000Y-114050000D01*
X103423571Y-113764285D01*
X103352142Y-113621428D01*
X103280714Y-113550000D01*
X103137857Y-113478571D01*
X101352142Y-113478571D02*
X101637857Y-113478571D01*
X101780714Y-113550000D01*
X101852142Y-113621428D01*
X101995000Y-113835714D01*
X102066428Y-114121428D01*
X102066428Y-114692857D01*
X101995000Y-114835714D01*
X101923571Y-114907142D01*
X101780714Y-114978571D01*
X101495000Y-114978571D01*
X101352142Y-114907142D01*
X101280714Y-114835714D01*
X101209285Y-114692857D01*
X101209285Y-114335714D01*
X101280714Y-114192857D01*
X101352142Y-114121428D01*
X101495000Y-114050000D01*
X101780714Y-114050000D01*
X101923571Y-114121428D01*
X101995000Y-114192857D01*
X102066428Y-114335714D01*
X100280714Y-113478571D02*
X100137857Y-113478571D01*
X99995000Y-113550000D01*
X99923571Y-113621428D01*
X99852142Y-113764285D01*
X99780714Y-114050000D01*
X99780714Y-114407142D01*
X99852142Y-114692857D01*
X99923571Y-114835714D01*
X99995000Y-114907142D01*
X100137857Y-114978571D01*
X100280714Y-114978571D01*
X100423571Y-114907142D01*
X100495000Y-114835714D01*
X100566428Y-114692857D01*
X100637857Y-114407142D01*
X100637857Y-114050000D01*
X100566428Y-113764285D01*
X100495000Y-113621428D01*
X100423571Y-113550000D01*
X100280714Y-113478571D01*
X99280714Y-113478571D02*
X98352142Y-113478571D01*
X98852142Y-114050000D01*
X98637857Y-114050000D01*
X98495000Y-114121428D01*
X98423571Y-114192857D01*
X98352142Y-114335714D01*
X98352142Y-114692857D01*
X98423571Y-114835714D01*
X98495000Y-114907142D01*
X98637857Y-114978571D01*
X99066428Y-114978571D01*
X99209285Y-114907142D01*
X99280714Y-114835714D01*
X122637857Y-116957142D02*
X121495000Y-116957142D01*
X118852142Y-117528571D02*
X119709285Y-117528571D01*
X119280714Y-117528571D02*
X119280714Y-116028571D01*
X119423571Y-116242857D01*
X119566428Y-116385714D01*
X119709285Y-116457142D01*
X117995000Y-116671428D02*
X118137857Y-116600000D01*
X118209285Y-116528571D01*
X118280714Y-116385714D01*
X118280714Y-116314285D01*
X118209285Y-116171428D01*
X118137857Y-116100000D01*
X117995000Y-116028571D01*
X117709285Y-116028571D01*
X117566428Y-116100000D01*
X117495000Y-116171428D01*
X117423571Y-116314285D01*
X117423571Y-116385714D01*
X117495000Y-116528571D01*
X117566428Y-116600000D01*
X117709285Y-116671428D01*
X117995000Y-116671428D01*
X118137857Y-116742857D01*
X118209285Y-116814285D01*
X118280714Y-116957142D01*
X118280714Y-117242857D01*
X118209285Y-117385714D01*
X118137857Y-117457142D01*
X117995000Y-117528571D01*
X117709285Y-117528571D01*
X117566428Y-117457142D01*
X117495000Y-117385714D01*
X117423571Y-117242857D01*
X117423571Y-116957142D01*
X117495000Y-116814285D01*
X117566428Y-116742857D01*
X117709285Y-116671428D01*
X116923571Y-117528571D02*
X116137857Y-116528571D01*
X116923571Y-116528571D02*
X116137857Y-117528571D01*
X113923571Y-116742857D02*
X113709285Y-116814285D01*
X113637857Y-116885714D01*
X113566428Y-117028571D01*
X113566428Y-117242857D01*
X113637857Y-117385714D01*
X113709285Y-117457142D01*
X113852142Y-117528571D01*
X114423571Y-117528571D01*
X114423571Y-116028571D01*
X113923571Y-116028571D01*
X113780714Y-116100000D01*
X113709285Y-116171428D01*
X113637857Y-116314285D01*
X113637857Y-116457142D01*
X113709285Y-116600000D01*
X113780714Y-116671428D01*
X113923571Y-116742857D01*
X114423571Y-116742857D01*
X112923571Y-117528571D02*
X112923571Y-116528571D01*
X112923571Y-116814285D02*
X112852142Y-116671428D01*
X112780714Y-116600000D01*
X112637857Y-116528571D01*
X112495000Y-116528571D01*
X111423571Y-117457142D02*
X111566428Y-117528571D01*
X111852142Y-117528571D01*
X111995000Y-117457142D01*
X112066428Y-117314285D01*
X112066428Y-116742857D01*
X111995000Y-116600000D01*
X111852142Y-116528571D01*
X111566428Y-116528571D01*
X111423571Y-116600000D01*
X111352142Y-116742857D01*
X111352142Y-116885714D01*
X112066428Y-117028571D01*
X110066428Y-117528571D02*
X110066428Y-116742857D01*
X110137857Y-116600000D01*
X110280714Y-116528571D01*
X110566428Y-116528571D01*
X110709285Y-116600000D01*
X110066428Y-117457142D02*
X110209285Y-117528571D01*
X110566428Y-117528571D01*
X110709285Y-117457142D01*
X110780714Y-117314285D01*
X110780714Y-117171428D01*
X110709285Y-117028571D01*
X110566428Y-116957142D01*
X110209285Y-116957142D01*
X110066428Y-116885714D01*
X109352142Y-117528571D02*
X109352142Y-116028571D01*
X109209285Y-116957142D02*
X108780714Y-117528571D01*
X108780714Y-116528571D02*
X109352142Y-117100000D01*
X107923571Y-117528571D02*
X108066428Y-117457142D01*
X108137857Y-117385714D01*
X108209285Y-117242857D01*
X108209285Y-116814285D01*
X108137857Y-116671428D01*
X108066428Y-116600000D01*
X107923571Y-116528571D01*
X107709285Y-116528571D01*
X107566428Y-116600000D01*
X107495000Y-116671428D01*
X107423571Y-116814285D01*
X107423571Y-117242857D01*
X107495000Y-117385714D01*
X107566428Y-117457142D01*
X107709285Y-117528571D01*
X107923571Y-117528571D01*
X106137857Y-116528571D02*
X106137857Y-117528571D01*
X106780714Y-116528571D02*
X106780714Y-117314285D01*
X106709285Y-117457142D01*
X106566428Y-117528571D01*
X106352142Y-117528571D01*
X106209285Y-117457142D01*
X106137857Y-117385714D01*
X105637857Y-116528571D02*
X105066428Y-116528571D01*
X105423571Y-116028571D02*
X105423571Y-117314285D01*
X105352142Y-117457142D01*
X105209285Y-117528571D01*
X105066428Y-117528571D01*
X103495000Y-117457142D02*
X103280714Y-117528571D01*
X102923571Y-117528571D01*
X102780714Y-117457142D01*
X102709285Y-117385714D01*
X102637857Y-117242857D01*
X102637857Y-117100000D01*
X102709285Y-116957142D01*
X102780714Y-116885714D01*
X102923571Y-116814285D01*
X103209285Y-116742857D01*
X103352142Y-116671428D01*
X103423571Y-116600000D01*
X103495000Y-116457142D01*
X103495000Y-116314285D01*
X103423571Y-116171428D01*
X103352142Y-116100000D01*
X103209285Y-116028571D01*
X102852142Y-116028571D01*
X102637857Y-116100000D01*
X101709285Y-116028571D02*
X101423571Y-116028571D01*
X101280714Y-116100000D01*
X101137857Y-116242857D01*
X101066428Y-116528571D01*
X101066428Y-117028571D01*
X101137857Y-117314285D01*
X101280714Y-117457142D01*
X101423571Y-117528571D01*
X101709285Y-117528571D01*
X101852142Y-117457142D01*
X101995000Y-117314285D01*
X102066428Y-117028571D01*
X102066428Y-116528571D01*
X101995000Y-116242857D01*
X101852142Y-116100000D01*
X101709285Y-116028571D01*
X100637857Y-116028571D02*
X99780714Y-116028571D01*
X100209285Y-117528571D02*
X100209285Y-116028571D01*
X99280714Y-116957142D02*
X98137857Y-116957142D01*
X97495000Y-116171428D02*
X97423571Y-116100000D01*
X97280714Y-116028571D01*
X96923571Y-116028571D01*
X96780714Y-116100000D01*
X96709285Y-116171428D01*
X96637857Y-116314285D01*
X96637857Y-116457142D01*
X96709285Y-116671428D01*
X97566428Y-117528571D01*
X96637857Y-117528571D01*
X96137857Y-116028571D02*
X95209285Y-116028571D01*
X95709285Y-116600000D01*
X95495000Y-116600000D01*
X95352142Y-116671428D01*
X95280714Y-116742857D01*
X95209285Y-116885714D01*
X95209285Y-117242857D01*
X95280714Y-117385714D01*
X95352142Y-117457142D01*
X95495000Y-117528571D01*
X95923571Y-117528571D01*
X96066428Y-117457142D01*
X96137857Y-117385714D01*
X94566428Y-116957142D02*
X93423571Y-116957142D01*
X92852142Y-116028571D02*
X91923571Y-116028571D01*
X92423571Y-116600000D01*
X92209285Y-116600000D01*
X92066428Y-116671428D01*
X91995000Y-116742857D01*
X91923571Y-116885714D01*
X91923571Y-117242857D01*
X91995000Y-117385714D01*
X92066428Y-117457142D01*
X92209285Y-117528571D01*
X92637857Y-117528571D01*
X92780714Y-117457142D01*
X92852142Y-117385714D01*
D11*
X115219523Y-108299047D02*
X114648095Y-108489523D01*
X113695714Y-108489523D01*
X113314761Y-108299047D01*
X113124285Y-108108571D01*
X112933809Y-107727619D01*
X112933809Y-107346666D01*
X113124285Y-106965714D01*
X113314761Y-106775238D01*
X113695714Y-106584761D01*
X114457619Y-106394285D01*
X114838571Y-106203809D01*
X115029047Y-106013333D01*
X115219523Y-105632380D01*
X115219523Y-105251428D01*
X115029047Y-104870476D01*
X114838571Y-104680000D01*
X114457619Y-104489523D01*
X113505238Y-104489523D01*
X112933809Y-104680000D01*
X108933809Y-108108571D02*
X109124285Y-108299047D01*
X109695714Y-108489523D01*
X110076666Y-108489523D01*
X110648095Y-108299047D01*
X111029047Y-107918095D01*
X111219523Y-107537142D01*
X111410000Y-106775238D01*
X111410000Y-106203809D01*
X111219523Y-105441904D01*
X111029047Y-105060952D01*
X110648095Y-104680000D01*
X110076666Y-104489523D01*
X109695714Y-104489523D01*
X109124285Y-104680000D01*
X108933809Y-104870476D01*
X107219523Y-108489523D02*
X107219523Y-104489523D01*
X107219523Y-106394285D02*
X104933809Y-106394285D01*
X104933809Y-108489523D02*
X104933809Y-104489523D01*
X103029047Y-108489523D02*
X103029047Y-104489523D01*
X99219523Y-108489523D02*
X101124285Y-108489523D01*
X101124285Y-104489523D01*
X97886190Y-108489523D02*
X97886190Y-104489523D01*
X95600476Y-108489523D02*
X97314761Y-106203809D01*
X95600476Y-104489523D02*
X97886190Y-106775238D01*
M02*
