%TF.GenerationSoftware,KiCad,Pcbnew,(5.1.9)-1*%
%TF.CreationDate,2021-05-23T15:32:32+02:00*%
%TF.ProjectId,Engine_Test,456e6769-6e65-45f5-9465-73742e6b6963,rev?*%
%TF.SameCoordinates,Original*%
%TF.FileFunction,Legend,Top*%
%TF.FilePolarity,Positive*%
%FSLAX46Y46*%
G04 Gerber Fmt 4.6, Leading zero omitted, Abs format (unit mm)*
G04 Created by KiCad (PCBNEW (5.1.9)-1) date 2021-05-23 15:32:32*
%MOMM*%
%LPD*%
G01*
G04 APERTURE LIST*
%ADD10C,0.525000*%
%ADD11C,0.120000*%
%ADD12C,0.150000*%
G04 APERTURE END LIST*
D10*
X189160000Y-98977500D02*
X189860000Y-98977500D01*
X190160000Y-100077500D02*
X189160000Y-100077500D01*
X189160000Y-97977500D01*
X190160000Y-97977500D01*
X191060000Y-100077500D02*
X191060000Y-97977500D01*
X192260000Y-100077500D01*
X192260000Y-97977500D01*
X194360000Y-98077500D02*
X194160000Y-97977500D01*
X193860000Y-97977500D01*
X193560000Y-98077500D01*
X193360000Y-98277500D01*
X193260000Y-98477500D01*
X193160000Y-98877500D01*
X193160000Y-99177500D01*
X193260000Y-99577500D01*
X193360000Y-99777500D01*
X193560000Y-99977500D01*
X193860000Y-100077500D01*
X194060000Y-100077500D01*
X194360000Y-99977500D01*
X194460000Y-99877500D01*
X194460000Y-99177500D01*
X194060000Y-99177500D01*
X195360000Y-100077500D02*
X195360000Y-97977500D01*
X196360000Y-100077500D02*
X196360000Y-97977500D01*
X197560000Y-100077500D01*
X197560000Y-97977500D01*
X198560000Y-98977500D02*
X199260000Y-98977500D01*
X199560000Y-100077500D02*
X198560000Y-100077500D01*
X198560000Y-97977500D01*
X199560000Y-97977500D01*
X190960000Y-101652500D02*
X192160000Y-101652500D01*
X191560000Y-103752500D02*
X191560000Y-101652500D01*
X192860000Y-102652500D02*
X193560000Y-102652500D01*
X193860000Y-103752500D02*
X192860000Y-103752500D01*
X192860000Y-101652500D01*
X193860000Y-101652500D01*
X194660000Y-103652500D02*
X194960000Y-103752500D01*
X195460000Y-103752500D01*
X195660000Y-103652500D01*
X195760000Y-103552500D01*
X195860000Y-103352500D01*
X195860000Y-103152500D01*
X195760000Y-102952500D01*
X195660000Y-102852500D01*
X195460000Y-102752500D01*
X195060000Y-102652500D01*
X194860000Y-102552500D01*
X194760000Y-102452500D01*
X194660000Y-102252500D01*
X194660000Y-102052500D01*
X194760000Y-101852500D01*
X194860000Y-101752500D01*
X195060000Y-101652500D01*
X195560000Y-101652500D01*
X195860000Y-101752500D01*
X196460000Y-101652500D02*
X197660000Y-101652500D01*
X197060000Y-103752500D02*
X197060000Y-101652500D01*
D11*
%TO.C,J2*%
X114755000Y-99545000D02*
X117355000Y-99545000D01*
X117355000Y-107465000D02*
X114755000Y-107465000D01*
X119665000Y-100305000D02*
X119665000Y-101455000D01*
X119665000Y-101455000D02*
X120255000Y-101455000D01*
X120255000Y-101455000D02*
X120255000Y-102155000D01*
X119665000Y-105555000D02*
X119665000Y-106705000D01*
X111855000Y-99545000D02*
X110195000Y-99545000D01*
X110195000Y-99545000D02*
X110195000Y-107465000D01*
X110195000Y-107465000D02*
X111855000Y-107465000D01*
%TO.C,J1*%
X142180000Y-106740000D02*
X142180000Y-105410000D01*
X143510000Y-106740000D02*
X142180000Y-106740000D01*
X144780000Y-106740000D02*
X144780000Y-104080000D01*
X144780000Y-104080000D02*
X147380000Y-104080000D01*
X144780000Y-106740000D02*
X147380000Y-106740000D01*
X147380000Y-106740000D02*
X147380000Y-104080000D01*
%TO.C,U1*%
X206240000Y-99260000D02*
X205940000Y-99260000D01*
X205940000Y-99260000D02*
X205940000Y-99560000D01*
X212860000Y-99260000D02*
X213160000Y-99260000D01*
X213160000Y-99260000D02*
X213160000Y-99560000D01*
X206240000Y-106480000D02*
X205940000Y-106480000D01*
X205940000Y-106480000D02*
X205940000Y-106180000D01*
X212860000Y-106480000D02*
X213160000Y-106480000D01*
X213160000Y-106480000D02*
X213160000Y-106180000D01*
X213160000Y-106180000D02*
X214475000Y-106180000D01*
%TO.C,J3*%
X219215000Y-101475000D02*
X220345000Y-101475000D01*
X219215000Y-102235000D02*
X219215000Y-101475000D01*
X221922530Y-101540000D02*
X222745000Y-101540000D01*
X221105000Y-101540000D02*
X221307470Y-101540000D01*
X221105000Y-101671529D02*
X221105000Y-101540000D01*
X221105000Y-102941529D02*
X221105000Y-102798471D01*
X220908471Y-102995000D02*
X221051529Y-102995000D01*
X219215000Y-102995000D02*
X219781529Y-102995000D01*
X222745000Y-101540000D02*
X222745000Y-108010000D01*
X219215000Y-102995000D02*
X219215000Y-108010000D01*
X220652530Y-108010000D02*
X221307470Y-108010000D01*
X221922530Y-108010000D02*
X222745000Y-108010000D01*
X219215000Y-108010000D02*
X220037470Y-108010000D01*
%TO.C,U5*%
X163635000Y-102235000D02*
X163635000Y-104435000D01*
X163635000Y-102235000D02*
X163635000Y-100035000D01*
X169105000Y-102235000D02*
X169105000Y-104435000D01*
X169105000Y-102235000D02*
X169105000Y-98635000D01*
%TO.C,U4*%
X177605000Y-102235000D02*
X177605000Y-104435000D01*
X177605000Y-102235000D02*
X177605000Y-100035000D01*
X183075000Y-102235000D02*
X183075000Y-104435000D01*
X183075000Y-102235000D02*
X183075000Y-98635000D01*
%TO.C,U3*%
X149665000Y-102235000D02*
X149665000Y-104435000D01*
X149665000Y-102235000D02*
X149665000Y-100035000D01*
X155135000Y-102235000D02*
X155135000Y-104435000D01*
X155135000Y-102235000D02*
X155135000Y-98635000D01*
D12*
%TO.C,U2*%
X138040000Y-99360000D02*
X137465000Y-99360000D01*
X138040000Y-105110000D02*
X137390000Y-105110000D01*
X127390000Y-105110000D02*
X128040000Y-105110000D01*
X127390000Y-99360000D02*
X128040000Y-99360000D01*
X138040000Y-99360000D02*
X138040000Y-105110000D01*
X127390000Y-99360000D02*
X127390000Y-105110000D01*
X137465000Y-99360000D02*
X137465000Y-97760000D01*
D11*
%TO.C,R7*%
X196452258Y-108472500D02*
X195977742Y-108472500D01*
X196452258Y-107427500D02*
X195977742Y-107427500D01*
%TO.C,R6*%
X196452258Y-106567500D02*
X195977742Y-106567500D01*
X196452258Y-105522500D02*
X195977742Y-105522500D01*
%TO.C,R5*%
X125207500Y-99297258D02*
X125207500Y-98822742D01*
X126252500Y-99297258D02*
X126252500Y-98822742D01*
%TO.C,R2*%
X215377500Y-105647258D02*
X215377500Y-105172742D01*
X216422500Y-105647258D02*
X216422500Y-105172742D01*
%TO.C,R1*%
X218327500Y-101997742D02*
X218327500Y-102472258D01*
X217282500Y-101997742D02*
X217282500Y-102472258D01*
%TO.C,JP1*%
X143580000Y-101530000D02*
X143880000Y-101830000D01*
X143280000Y-101830000D02*
X143880000Y-101830000D01*
X143580000Y-101530000D02*
X143280000Y-101830000D01*
X142730000Y-100630000D02*
X142730000Y-100030000D01*
X146180000Y-101330000D02*
X143380000Y-101330000D01*
X146830000Y-100030000D02*
X146830000Y-100630000D01*
X143380000Y-99330000D02*
X146180000Y-99330000D01*
X142730000Y-100030000D02*
G75*
G02*
X143430000Y-99330000I700000J0D01*
G01*
X143430000Y-101330000D02*
G75*
G02*
X142730000Y-100630000I0J700000D01*
G01*
X146830000Y-100630000D02*
G75*
G02*
X146130000Y-101330000I-700000J0D01*
G01*
X146130000Y-99330000D02*
G75*
G02*
X146830000Y-100030000I0J-700000D01*
G01*
%TO.C,J7*%
X137100000Y-85160000D02*
X137100000Y-93790000D01*
X136981905Y-85160000D02*
X136981905Y-93790000D01*
X136863810Y-85160000D02*
X136863810Y-93790000D01*
X136745715Y-85160000D02*
X136745715Y-93790000D01*
X136627620Y-85160000D02*
X136627620Y-93790000D01*
X136509525Y-85160000D02*
X136509525Y-93790000D01*
X136391430Y-85160000D02*
X136391430Y-93790000D01*
X136273335Y-85160000D02*
X136273335Y-93790000D01*
X136155240Y-85160000D02*
X136155240Y-93790000D01*
X136037145Y-85160000D02*
X136037145Y-93790000D01*
X135919050Y-85160000D02*
X135919050Y-93790000D01*
X135800955Y-85160000D02*
X135800955Y-93790000D01*
X135682860Y-85160000D02*
X135682860Y-93790000D01*
X135564765Y-85160000D02*
X135564765Y-93790000D01*
X135446670Y-85160000D02*
X135446670Y-93790000D01*
X135328575Y-85160000D02*
X135328575Y-93790000D01*
X135210480Y-85160000D02*
X135210480Y-93790000D01*
X135092385Y-85160000D02*
X135092385Y-93790000D01*
X134974290Y-85160000D02*
X134974290Y-93790000D01*
X134856195Y-85160000D02*
X134856195Y-93790000D01*
X134738100Y-85160000D02*
X134738100Y-93790000D01*
X136250000Y-93790000D02*
X136250000Y-94140000D01*
X135530000Y-93790000D02*
X135530000Y-94140000D01*
X133710000Y-93790000D02*
X133710000Y-94200000D01*
X132990000Y-93790000D02*
X132990000Y-94200000D01*
X131170000Y-93790000D02*
X131170000Y-94200000D01*
X130450000Y-93790000D02*
X130450000Y-94200000D01*
X128630000Y-93790000D02*
X128630000Y-94200000D01*
X127910000Y-93790000D02*
X127910000Y-94200000D01*
X126090000Y-93790000D02*
X126090000Y-94200000D01*
X125370000Y-93790000D02*
X125370000Y-94200000D01*
X123550000Y-93790000D02*
X123550000Y-94200000D01*
X122830000Y-93790000D02*
X122830000Y-94200000D01*
X121010000Y-93790000D02*
X121010000Y-94200000D01*
X120290000Y-93790000D02*
X120290000Y-94200000D01*
X118470000Y-93790000D02*
X118470000Y-94200000D01*
X117750000Y-93790000D02*
X117750000Y-94200000D01*
X115930000Y-93790000D02*
X115930000Y-94200000D01*
X115210000Y-93790000D02*
X115210000Y-94200000D01*
X113390000Y-93790000D02*
X113390000Y-94200000D01*
X112670000Y-93790000D02*
X112670000Y-94200000D01*
X134620000Y-85160000D02*
X134620000Y-93790000D01*
X132080000Y-85160000D02*
X132080000Y-93790000D01*
X129540000Y-85160000D02*
X129540000Y-93790000D01*
X127000000Y-85160000D02*
X127000000Y-93790000D01*
X124460000Y-85160000D02*
X124460000Y-93790000D01*
X121920000Y-85160000D02*
X121920000Y-93790000D01*
X119380000Y-85160000D02*
X119380000Y-93790000D01*
X116840000Y-85160000D02*
X116840000Y-93790000D01*
X114300000Y-85160000D02*
X114300000Y-93790000D01*
X137220000Y-85160000D02*
X137220000Y-93790000D01*
X137220000Y-93790000D02*
X111700000Y-93790000D01*
X111700000Y-85160000D02*
X111700000Y-93790000D01*
X137220000Y-85160000D02*
X111700000Y-85160000D01*
X137220000Y-96360000D02*
X135890000Y-96360000D01*
X137220000Y-95250000D02*
X137220000Y-96360000D01*
%TO.C,J6*%
X220920000Y-85160000D02*
X220920000Y-93790000D01*
X220801905Y-85160000D02*
X220801905Y-93790000D01*
X220683810Y-85160000D02*
X220683810Y-93790000D01*
X220565715Y-85160000D02*
X220565715Y-93790000D01*
X220447620Y-85160000D02*
X220447620Y-93790000D01*
X220329525Y-85160000D02*
X220329525Y-93790000D01*
X220211430Y-85160000D02*
X220211430Y-93790000D01*
X220093335Y-85160000D02*
X220093335Y-93790000D01*
X219975240Y-85160000D02*
X219975240Y-93790000D01*
X219857145Y-85160000D02*
X219857145Y-93790000D01*
X219739050Y-85160000D02*
X219739050Y-93790000D01*
X219620955Y-85160000D02*
X219620955Y-93790000D01*
X219502860Y-85160000D02*
X219502860Y-93790000D01*
X219384765Y-85160000D02*
X219384765Y-93790000D01*
X219266670Y-85160000D02*
X219266670Y-93790000D01*
X219148575Y-85160000D02*
X219148575Y-93790000D01*
X219030480Y-85160000D02*
X219030480Y-93790000D01*
X218912385Y-85160000D02*
X218912385Y-93790000D01*
X218794290Y-85160000D02*
X218794290Y-93790000D01*
X218676195Y-85160000D02*
X218676195Y-93790000D01*
X218558100Y-85160000D02*
X218558100Y-93790000D01*
X220070000Y-93790000D02*
X220070000Y-94140000D01*
X219350000Y-93790000D02*
X219350000Y-94140000D01*
X217530000Y-93790000D02*
X217530000Y-94200000D01*
X216810000Y-93790000D02*
X216810000Y-94200000D01*
X214990000Y-93790000D02*
X214990000Y-94200000D01*
X214270000Y-93790000D02*
X214270000Y-94200000D01*
X212450000Y-93790000D02*
X212450000Y-94200000D01*
X211730000Y-93790000D02*
X211730000Y-94200000D01*
X209910000Y-93790000D02*
X209910000Y-94200000D01*
X209190000Y-93790000D02*
X209190000Y-94200000D01*
X207370000Y-93790000D02*
X207370000Y-94200000D01*
X206650000Y-93790000D02*
X206650000Y-94200000D01*
X204830000Y-93790000D02*
X204830000Y-94200000D01*
X204110000Y-93790000D02*
X204110000Y-94200000D01*
X202290000Y-93790000D02*
X202290000Y-94200000D01*
X201570000Y-93790000D02*
X201570000Y-94200000D01*
X199750000Y-93790000D02*
X199750000Y-94200000D01*
X199030000Y-93790000D02*
X199030000Y-94200000D01*
X197210000Y-93790000D02*
X197210000Y-94200000D01*
X196490000Y-93790000D02*
X196490000Y-94200000D01*
X218440000Y-85160000D02*
X218440000Y-93790000D01*
X215900000Y-85160000D02*
X215900000Y-93790000D01*
X213360000Y-85160000D02*
X213360000Y-93790000D01*
X210820000Y-85160000D02*
X210820000Y-93790000D01*
X208280000Y-85160000D02*
X208280000Y-93790000D01*
X205740000Y-85160000D02*
X205740000Y-93790000D01*
X203200000Y-85160000D02*
X203200000Y-93790000D01*
X200660000Y-85160000D02*
X200660000Y-93790000D01*
X198120000Y-85160000D02*
X198120000Y-93790000D01*
X221040000Y-85160000D02*
X221040000Y-93790000D01*
X221040000Y-93790000D02*
X195520000Y-93790000D01*
X195520000Y-85160000D02*
X195520000Y-93790000D01*
X221040000Y-85160000D02*
X195520000Y-85160000D01*
X221040000Y-96360000D02*
X219710000Y-96360000D01*
X221040000Y-95250000D02*
X221040000Y-96360000D01*
%TO.C,J5*%
X192980000Y-85160000D02*
X192980000Y-93790000D01*
X192861905Y-85160000D02*
X192861905Y-93790000D01*
X192743810Y-85160000D02*
X192743810Y-93790000D01*
X192625715Y-85160000D02*
X192625715Y-93790000D01*
X192507620Y-85160000D02*
X192507620Y-93790000D01*
X192389525Y-85160000D02*
X192389525Y-93790000D01*
X192271430Y-85160000D02*
X192271430Y-93790000D01*
X192153335Y-85160000D02*
X192153335Y-93790000D01*
X192035240Y-85160000D02*
X192035240Y-93790000D01*
X191917145Y-85160000D02*
X191917145Y-93790000D01*
X191799050Y-85160000D02*
X191799050Y-93790000D01*
X191680955Y-85160000D02*
X191680955Y-93790000D01*
X191562860Y-85160000D02*
X191562860Y-93790000D01*
X191444765Y-85160000D02*
X191444765Y-93790000D01*
X191326670Y-85160000D02*
X191326670Y-93790000D01*
X191208575Y-85160000D02*
X191208575Y-93790000D01*
X191090480Y-85160000D02*
X191090480Y-93790000D01*
X190972385Y-85160000D02*
X190972385Y-93790000D01*
X190854290Y-85160000D02*
X190854290Y-93790000D01*
X190736195Y-85160000D02*
X190736195Y-93790000D01*
X190618100Y-85160000D02*
X190618100Y-93790000D01*
X192130000Y-93790000D02*
X192130000Y-94140000D01*
X191410000Y-93790000D02*
X191410000Y-94140000D01*
X189590000Y-93790000D02*
X189590000Y-94200000D01*
X188870000Y-93790000D02*
X188870000Y-94200000D01*
X187050000Y-93790000D02*
X187050000Y-94200000D01*
X186330000Y-93790000D02*
X186330000Y-94200000D01*
X184510000Y-93790000D02*
X184510000Y-94200000D01*
X183790000Y-93790000D02*
X183790000Y-94200000D01*
X181970000Y-93790000D02*
X181970000Y-94200000D01*
X181250000Y-93790000D02*
X181250000Y-94200000D01*
X179430000Y-93790000D02*
X179430000Y-94200000D01*
X178710000Y-93790000D02*
X178710000Y-94200000D01*
X176890000Y-93790000D02*
X176890000Y-94200000D01*
X176170000Y-93790000D02*
X176170000Y-94200000D01*
X174350000Y-93790000D02*
X174350000Y-94200000D01*
X173630000Y-93790000D02*
X173630000Y-94200000D01*
X171810000Y-93790000D02*
X171810000Y-94200000D01*
X171090000Y-93790000D02*
X171090000Y-94200000D01*
X169270000Y-93790000D02*
X169270000Y-94200000D01*
X168550000Y-93790000D02*
X168550000Y-94200000D01*
X190500000Y-85160000D02*
X190500000Y-93790000D01*
X187960000Y-85160000D02*
X187960000Y-93790000D01*
X185420000Y-85160000D02*
X185420000Y-93790000D01*
X182880000Y-85160000D02*
X182880000Y-93790000D01*
X180340000Y-85160000D02*
X180340000Y-93790000D01*
X177800000Y-85160000D02*
X177800000Y-93790000D01*
X175260000Y-85160000D02*
X175260000Y-93790000D01*
X172720000Y-85160000D02*
X172720000Y-93790000D01*
X170180000Y-85160000D02*
X170180000Y-93790000D01*
X193100000Y-85160000D02*
X193100000Y-93790000D01*
X193100000Y-93790000D02*
X167580000Y-93790000D01*
X167580000Y-85160000D02*
X167580000Y-93790000D01*
X193100000Y-85160000D02*
X167580000Y-85160000D01*
X193100000Y-96360000D02*
X191770000Y-96360000D01*
X193100000Y-95250000D02*
X193100000Y-96360000D01*
%TO.C,J4*%
X165040000Y-85160000D02*
X165040000Y-93790000D01*
X164921905Y-85160000D02*
X164921905Y-93790000D01*
X164803810Y-85160000D02*
X164803810Y-93790000D01*
X164685715Y-85160000D02*
X164685715Y-93790000D01*
X164567620Y-85160000D02*
X164567620Y-93790000D01*
X164449525Y-85160000D02*
X164449525Y-93790000D01*
X164331430Y-85160000D02*
X164331430Y-93790000D01*
X164213335Y-85160000D02*
X164213335Y-93790000D01*
X164095240Y-85160000D02*
X164095240Y-93790000D01*
X163977145Y-85160000D02*
X163977145Y-93790000D01*
X163859050Y-85160000D02*
X163859050Y-93790000D01*
X163740955Y-85160000D02*
X163740955Y-93790000D01*
X163622860Y-85160000D02*
X163622860Y-93790000D01*
X163504765Y-85160000D02*
X163504765Y-93790000D01*
X163386670Y-85160000D02*
X163386670Y-93790000D01*
X163268575Y-85160000D02*
X163268575Y-93790000D01*
X163150480Y-85160000D02*
X163150480Y-93790000D01*
X163032385Y-85160000D02*
X163032385Y-93790000D01*
X162914290Y-85160000D02*
X162914290Y-93790000D01*
X162796195Y-85160000D02*
X162796195Y-93790000D01*
X162678100Y-85160000D02*
X162678100Y-93790000D01*
X164190000Y-93790000D02*
X164190000Y-94140000D01*
X163470000Y-93790000D02*
X163470000Y-94140000D01*
X161650000Y-93790000D02*
X161650000Y-94200000D01*
X160930000Y-93790000D02*
X160930000Y-94200000D01*
X159110000Y-93790000D02*
X159110000Y-94200000D01*
X158390000Y-93790000D02*
X158390000Y-94200000D01*
X156570000Y-93790000D02*
X156570000Y-94200000D01*
X155850000Y-93790000D02*
X155850000Y-94200000D01*
X154030000Y-93790000D02*
X154030000Y-94200000D01*
X153310000Y-93790000D02*
X153310000Y-94200000D01*
X151490000Y-93790000D02*
X151490000Y-94200000D01*
X150770000Y-93790000D02*
X150770000Y-94200000D01*
X148950000Y-93790000D02*
X148950000Y-94200000D01*
X148230000Y-93790000D02*
X148230000Y-94200000D01*
X146410000Y-93790000D02*
X146410000Y-94200000D01*
X145690000Y-93790000D02*
X145690000Y-94200000D01*
X143870000Y-93790000D02*
X143870000Y-94200000D01*
X143150000Y-93790000D02*
X143150000Y-94200000D01*
X141330000Y-93790000D02*
X141330000Y-94200000D01*
X140610000Y-93790000D02*
X140610000Y-94200000D01*
X162560000Y-85160000D02*
X162560000Y-93790000D01*
X160020000Y-85160000D02*
X160020000Y-93790000D01*
X157480000Y-85160000D02*
X157480000Y-93790000D01*
X154940000Y-85160000D02*
X154940000Y-93790000D01*
X152400000Y-85160000D02*
X152400000Y-93790000D01*
X149860000Y-85160000D02*
X149860000Y-93790000D01*
X147320000Y-85160000D02*
X147320000Y-93790000D01*
X144780000Y-85160000D02*
X144780000Y-93790000D01*
X142240000Y-85160000D02*
X142240000Y-93790000D01*
X165160000Y-85160000D02*
X165160000Y-93790000D01*
X165160000Y-93790000D02*
X139640000Y-93790000D01*
X139640000Y-85160000D02*
X139640000Y-93790000D01*
X165160000Y-85160000D02*
X139640000Y-85160000D01*
X165160000Y-96360000D02*
X163830000Y-96360000D01*
X165160000Y-95250000D02*
X165160000Y-96360000D01*
%TO.C,D4*%
X193170000Y-107215000D02*
X190885000Y-107215000D01*
X190885000Y-107215000D02*
X190885000Y-108685000D01*
X190885000Y-108685000D02*
X193170000Y-108685000D01*
%TO.C,D3*%
X193205000Y-105310000D02*
X190920000Y-105310000D01*
X190920000Y-105310000D02*
X190920000Y-106780000D01*
X190920000Y-106780000D02*
X193205000Y-106780000D01*
%TO.C,C12*%
X169670000Y-105550580D02*
X169670000Y-105269420D01*
X170690000Y-105550580D02*
X170690000Y-105269420D01*
%TO.C,C11*%
X183640000Y-105550580D02*
X183640000Y-105269420D01*
X184660000Y-105550580D02*
X184660000Y-105269420D01*
%TO.C,C10*%
X155700000Y-105550580D02*
X155700000Y-105269420D01*
X156720000Y-105550580D02*
X156720000Y-105269420D01*
%TO.C,C9*%
X216410000Y-102094420D02*
X216410000Y-102375580D01*
X215390000Y-102094420D02*
X215390000Y-102375580D01*
%TO.C,C6*%
X201805000Y-100824420D02*
X201805000Y-101105580D01*
X200785000Y-100824420D02*
X200785000Y-101105580D01*
%TO.C,C5*%
X203710000Y-100824420D02*
X203710000Y-101105580D01*
X202690000Y-100824420D02*
X202690000Y-101105580D01*
%TO.C,C4*%
X131939420Y-107440000D02*
X132220580Y-107440000D01*
X131939420Y-108460000D02*
X132220580Y-108460000D01*
%TO.C,C3*%
X123315000Y-99200580D02*
X123315000Y-98919420D01*
X124335000Y-99200580D02*
X124335000Y-98919420D01*
%TO.C,C2*%
X123315000Y-105550580D02*
X123315000Y-105269420D01*
X124335000Y-105550580D02*
X124335000Y-105269420D01*
%TO.C,C1*%
X217295000Y-105550580D02*
X217295000Y-105269420D01*
X218315000Y-105550580D02*
X218315000Y-105269420D01*
%TO.C,J2*%
D12*
X120737380Y-108283333D02*
X121451666Y-108283333D01*
X121594523Y-108330952D01*
X121689761Y-108426190D01*
X121737380Y-108569047D01*
X121737380Y-108664285D01*
X120832619Y-107854761D02*
X120785000Y-107807142D01*
X120737380Y-107711904D01*
X120737380Y-107473809D01*
X120785000Y-107378571D01*
X120832619Y-107330952D01*
X120927857Y-107283333D01*
X121023095Y-107283333D01*
X121165952Y-107330952D01*
X121737380Y-107902380D01*
X121737380Y-107283333D01*
%TO.C,J1*%
X140632380Y-105743333D02*
X141346666Y-105743333D01*
X141489523Y-105790952D01*
X141584761Y-105886190D01*
X141632380Y-106029047D01*
X141632380Y-106124285D01*
X141632380Y-104743333D02*
X141632380Y-105314761D01*
X141632380Y-105029047D02*
X140632380Y-105029047D01*
X140775238Y-105124285D01*
X140870476Y-105219523D01*
X140918095Y-105314761D01*
%TO.C,U1*%
X213233095Y-97877380D02*
X213233095Y-98686904D01*
X213280714Y-98782142D01*
X213328333Y-98829761D01*
X213423571Y-98877380D01*
X213614047Y-98877380D01*
X213709285Y-98829761D01*
X213756904Y-98782142D01*
X213804523Y-98686904D01*
X213804523Y-97877380D01*
X214804523Y-98877380D02*
X214233095Y-98877380D01*
X214518809Y-98877380D02*
X214518809Y-97877380D01*
X214423571Y-98020238D01*
X214328333Y-98115476D01*
X214233095Y-98163095D01*
%TO.C,J3*%
X220646666Y-99992380D02*
X220646666Y-100706666D01*
X220599047Y-100849523D01*
X220503809Y-100944761D01*
X220360952Y-100992380D01*
X220265714Y-100992380D01*
X221027619Y-99992380D02*
X221646666Y-99992380D01*
X221313333Y-100373333D01*
X221456190Y-100373333D01*
X221551428Y-100420952D01*
X221599047Y-100468571D01*
X221646666Y-100563809D01*
X221646666Y-100801904D01*
X221599047Y-100897142D01*
X221551428Y-100944761D01*
X221456190Y-100992380D01*
X221170476Y-100992380D01*
X221075238Y-100944761D01*
X221027619Y-100897142D01*
%TO.C,U5*%
X169632380Y-99821904D02*
X170441904Y-99821904D01*
X170537142Y-99774285D01*
X170584761Y-99726666D01*
X170632380Y-99631428D01*
X170632380Y-99440952D01*
X170584761Y-99345714D01*
X170537142Y-99298095D01*
X170441904Y-99250476D01*
X169632380Y-99250476D01*
X169632380Y-98298095D02*
X169632380Y-98774285D01*
X170108571Y-98821904D01*
X170060952Y-98774285D01*
X170013333Y-98679047D01*
X170013333Y-98440952D01*
X170060952Y-98345714D01*
X170108571Y-98298095D01*
X170203809Y-98250476D01*
X170441904Y-98250476D01*
X170537142Y-98298095D01*
X170584761Y-98345714D01*
X170632380Y-98440952D01*
X170632380Y-98679047D01*
X170584761Y-98774285D01*
X170537142Y-98821904D01*
%TO.C,U4*%
X183602380Y-99821904D02*
X184411904Y-99821904D01*
X184507142Y-99774285D01*
X184554761Y-99726666D01*
X184602380Y-99631428D01*
X184602380Y-99440952D01*
X184554761Y-99345714D01*
X184507142Y-99298095D01*
X184411904Y-99250476D01*
X183602380Y-99250476D01*
X183935714Y-98345714D02*
X184602380Y-98345714D01*
X183554761Y-98583809D02*
X184269047Y-98821904D01*
X184269047Y-98202857D01*
%TO.C,U3*%
X155662380Y-99821904D02*
X156471904Y-99821904D01*
X156567142Y-99774285D01*
X156614761Y-99726666D01*
X156662380Y-99631428D01*
X156662380Y-99440952D01*
X156614761Y-99345714D01*
X156567142Y-99298095D01*
X156471904Y-99250476D01*
X155662380Y-99250476D01*
X155662380Y-98869523D02*
X155662380Y-98250476D01*
X156043333Y-98583809D01*
X156043333Y-98440952D01*
X156090952Y-98345714D01*
X156138571Y-98298095D01*
X156233809Y-98250476D01*
X156471904Y-98250476D01*
X156567142Y-98298095D01*
X156614761Y-98345714D01*
X156662380Y-98440952D01*
X156662380Y-98726666D01*
X156614761Y-98821904D01*
X156567142Y-98869523D01*
%TO.C,U2*%
X125817380Y-106806904D02*
X126626904Y-106806904D01*
X126722142Y-106759285D01*
X126769761Y-106711666D01*
X126817380Y-106616428D01*
X126817380Y-106425952D01*
X126769761Y-106330714D01*
X126722142Y-106283095D01*
X126626904Y-106235476D01*
X125817380Y-106235476D01*
X125912619Y-105806904D02*
X125865000Y-105759285D01*
X125817380Y-105664047D01*
X125817380Y-105425952D01*
X125865000Y-105330714D01*
X125912619Y-105283095D01*
X126007857Y-105235476D01*
X126103095Y-105235476D01*
X126245952Y-105283095D01*
X126817380Y-105854523D01*
X126817380Y-105235476D01*
%TO.C,R7*%
X198588333Y-108402380D02*
X198255000Y-107926190D01*
X198016904Y-108402380D02*
X198016904Y-107402380D01*
X198397857Y-107402380D01*
X198493095Y-107450000D01*
X198540714Y-107497619D01*
X198588333Y-107592857D01*
X198588333Y-107735714D01*
X198540714Y-107830952D01*
X198493095Y-107878571D01*
X198397857Y-107926190D01*
X198016904Y-107926190D01*
X198921666Y-107402380D02*
X199588333Y-107402380D01*
X199159761Y-108402380D01*
%TO.C,R6*%
X198588333Y-106497380D02*
X198255000Y-106021190D01*
X198016904Y-106497380D02*
X198016904Y-105497380D01*
X198397857Y-105497380D01*
X198493095Y-105545000D01*
X198540714Y-105592619D01*
X198588333Y-105687857D01*
X198588333Y-105830714D01*
X198540714Y-105925952D01*
X198493095Y-105973571D01*
X198397857Y-106021190D01*
X198016904Y-106021190D01*
X199445476Y-105497380D02*
X199255000Y-105497380D01*
X199159761Y-105545000D01*
X199112142Y-105592619D01*
X199016904Y-105735476D01*
X198969285Y-105925952D01*
X198969285Y-106306904D01*
X199016904Y-106402142D01*
X199064523Y-106449761D01*
X199159761Y-106497380D01*
X199350238Y-106497380D01*
X199445476Y-106449761D01*
X199493095Y-106402142D01*
X199540714Y-106306904D01*
X199540714Y-106068809D01*
X199493095Y-105973571D01*
X199445476Y-105925952D01*
X199350238Y-105878333D01*
X199159761Y-105878333D01*
X199064523Y-105925952D01*
X199016904Y-105973571D01*
X198969285Y-106068809D01*
%TO.C,R5*%
X126182380Y-101766666D02*
X125706190Y-102100000D01*
X126182380Y-102338095D02*
X125182380Y-102338095D01*
X125182380Y-101957142D01*
X125230000Y-101861904D01*
X125277619Y-101814285D01*
X125372857Y-101766666D01*
X125515714Y-101766666D01*
X125610952Y-101814285D01*
X125658571Y-101861904D01*
X125706190Y-101957142D01*
X125706190Y-102338095D01*
X125182380Y-100861904D02*
X125182380Y-101338095D01*
X125658571Y-101385714D01*
X125610952Y-101338095D01*
X125563333Y-101242857D01*
X125563333Y-101004761D01*
X125610952Y-100909523D01*
X125658571Y-100861904D01*
X125753809Y-100814285D01*
X125991904Y-100814285D01*
X126087142Y-100861904D01*
X126134761Y-100909523D01*
X126182380Y-101004761D01*
X126182380Y-101242857D01*
X126134761Y-101338095D01*
X126087142Y-101385714D01*
%TO.C,R2*%
X216352380Y-108116666D02*
X215876190Y-108450000D01*
X216352380Y-108688095D02*
X215352380Y-108688095D01*
X215352380Y-108307142D01*
X215400000Y-108211904D01*
X215447619Y-108164285D01*
X215542857Y-108116666D01*
X215685714Y-108116666D01*
X215780952Y-108164285D01*
X215828571Y-108211904D01*
X215876190Y-108307142D01*
X215876190Y-108688095D01*
X215447619Y-107735714D02*
X215400000Y-107688095D01*
X215352380Y-107592857D01*
X215352380Y-107354761D01*
X215400000Y-107259523D01*
X215447619Y-107211904D01*
X215542857Y-107164285D01*
X215638095Y-107164285D01*
X215780952Y-107211904D01*
X216352380Y-107783333D01*
X216352380Y-107164285D01*
%TO.C,R1*%
X218257380Y-99861666D02*
X217781190Y-100195000D01*
X218257380Y-100433095D02*
X217257380Y-100433095D01*
X217257380Y-100052142D01*
X217305000Y-99956904D01*
X217352619Y-99909285D01*
X217447857Y-99861666D01*
X217590714Y-99861666D01*
X217685952Y-99909285D01*
X217733571Y-99956904D01*
X217781190Y-100052142D01*
X217781190Y-100433095D01*
X218257380Y-98909285D02*
X218257380Y-99480714D01*
X218257380Y-99195000D02*
X217257380Y-99195000D01*
X217400238Y-99290238D01*
X217495476Y-99385476D01*
X217543095Y-99480714D01*
%TO.C,JP1*%
X140166666Y-99782380D02*
X140166666Y-100496666D01*
X140119047Y-100639523D01*
X140023809Y-100734761D01*
X139880952Y-100782380D01*
X139785714Y-100782380D01*
X140642857Y-100782380D02*
X140642857Y-99782380D01*
X141023809Y-99782380D01*
X141119047Y-99830000D01*
X141166666Y-99877619D01*
X141214285Y-99972857D01*
X141214285Y-100115714D01*
X141166666Y-100210952D01*
X141119047Y-100258571D01*
X141023809Y-100306190D01*
X140642857Y-100306190D01*
X142166666Y-100782380D02*
X141595238Y-100782380D01*
X141880952Y-100782380D02*
X141880952Y-99782380D01*
X141785714Y-99925238D01*
X141690476Y-100020476D01*
X141595238Y-100068095D01*
%TO.C,J7*%
X138112380Y-91203333D02*
X138826666Y-91203333D01*
X138969523Y-91250952D01*
X139064761Y-91346190D01*
X139112380Y-91489047D01*
X139112380Y-91584285D01*
X138112380Y-90822380D02*
X138112380Y-90155714D01*
X139112380Y-90584285D01*
%TO.C,J6*%
X221932380Y-91203333D02*
X222646666Y-91203333D01*
X222789523Y-91250952D01*
X222884761Y-91346190D01*
X222932380Y-91489047D01*
X222932380Y-91584285D01*
X221932380Y-90298571D02*
X221932380Y-90489047D01*
X221980000Y-90584285D01*
X222027619Y-90631904D01*
X222170476Y-90727142D01*
X222360952Y-90774761D01*
X222741904Y-90774761D01*
X222837142Y-90727142D01*
X222884761Y-90679523D01*
X222932380Y-90584285D01*
X222932380Y-90393809D01*
X222884761Y-90298571D01*
X222837142Y-90250952D01*
X222741904Y-90203333D01*
X222503809Y-90203333D01*
X222408571Y-90250952D01*
X222360952Y-90298571D01*
X222313333Y-90393809D01*
X222313333Y-90584285D01*
X222360952Y-90679523D01*
X222408571Y-90727142D01*
X222503809Y-90774761D01*
%TO.C,J5*%
X193992380Y-91203333D02*
X194706666Y-91203333D01*
X194849523Y-91250952D01*
X194944761Y-91346190D01*
X194992380Y-91489047D01*
X194992380Y-91584285D01*
X193992380Y-90250952D02*
X193992380Y-90727142D01*
X194468571Y-90774761D01*
X194420952Y-90727142D01*
X194373333Y-90631904D01*
X194373333Y-90393809D01*
X194420952Y-90298571D01*
X194468571Y-90250952D01*
X194563809Y-90203333D01*
X194801904Y-90203333D01*
X194897142Y-90250952D01*
X194944761Y-90298571D01*
X194992380Y-90393809D01*
X194992380Y-90631904D01*
X194944761Y-90727142D01*
X194897142Y-90774761D01*
%TO.C,J4*%
X166052380Y-91203333D02*
X166766666Y-91203333D01*
X166909523Y-91250952D01*
X167004761Y-91346190D01*
X167052380Y-91489047D01*
X167052380Y-91584285D01*
X166385714Y-90298571D02*
X167052380Y-90298571D01*
X166004761Y-90536666D02*
X166719047Y-90774761D01*
X166719047Y-90155714D01*
%TO.C,D4*%
X189126904Y-108402380D02*
X189126904Y-107402380D01*
X189365000Y-107402380D01*
X189507857Y-107450000D01*
X189603095Y-107545238D01*
X189650714Y-107640476D01*
X189698333Y-107830952D01*
X189698333Y-107973809D01*
X189650714Y-108164285D01*
X189603095Y-108259523D01*
X189507857Y-108354761D01*
X189365000Y-108402380D01*
X189126904Y-108402380D01*
X190555476Y-107735714D02*
X190555476Y-108402380D01*
X190317380Y-107354761D02*
X190079285Y-108069047D01*
X190698333Y-108069047D01*
%TO.C,D3*%
X189126904Y-106497380D02*
X189126904Y-105497380D01*
X189365000Y-105497380D01*
X189507857Y-105545000D01*
X189603095Y-105640238D01*
X189650714Y-105735476D01*
X189698333Y-105925952D01*
X189698333Y-106068809D01*
X189650714Y-106259285D01*
X189603095Y-106354523D01*
X189507857Y-106449761D01*
X189365000Y-106497380D01*
X189126904Y-106497380D01*
X190031666Y-105497380D02*
X190650714Y-105497380D01*
X190317380Y-105878333D01*
X190460238Y-105878333D01*
X190555476Y-105925952D01*
X190603095Y-105973571D01*
X190650714Y-106068809D01*
X190650714Y-106306904D01*
X190603095Y-106402142D01*
X190555476Y-106449761D01*
X190460238Y-106497380D01*
X190174523Y-106497380D01*
X190079285Y-106449761D01*
X190031666Y-106402142D01*
%TO.C,C12*%
X170537142Y-102877857D02*
X170584761Y-102925476D01*
X170632380Y-103068333D01*
X170632380Y-103163571D01*
X170584761Y-103306428D01*
X170489523Y-103401666D01*
X170394285Y-103449285D01*
X170203809Y-103496904D01*
X170060952Y-103496904D01*
X169870476Y-103449285D01*
X169775238Y-103401666D01*
X169680000Y-103306428D01*
X169632380Y-103163571D01*
X169632380Y-103068333D01*
X169680000Y-102925476D01*
X169727619Y-102877857D01*
X170632380Y-101925476D02*
X170632380Y-102496904D01*
X170632380Y-102211190D02*
X169632380Y-102211190D01*
X169775238Y-102306428D01*
X169870476Y-102401666D01*
X169918095Y-102496904D01*
X169727619Y-101544523D02*
X169680000Y-101496904D01*
X169632380Y-101401666D01*
X169632380Y-101163571D01*
X169680000Y-101068333D01*
X169727619Y-101020714D01*
X169822857Y-100973095D01*
X169918095Y-100973095D01*
X170060952Y-101020714D01*
X170632380Y-101592142D01*
X170632380Y-100973095D01*
%TO.C,C11*%
X184507142Y-102877857D02*
X184554761Y-102925476D01*
X184602380Y-103068333D01*
X184602380Y-103163571D01*
X184554761Y-103306428D01*
X184459523Y-103401666D01*
X184364285Y-103449285D01*
X184173809Y-103496904D01*
X184030952Y-103496904D01*
X183840476Y-103449285D01*
X183745238Y-103401666D01*
X183650000Y-103306428D01*
X183602380Y-103163571D01*
X183602380Y-103068333D01*
X183650000Y-102925476D01*
X183697619Y-102877857D01*
X184602380Y-101925476D02*
X184602380Y-102496904D01*
X184602380Y-102211190D02*
X183602380Y-102211190D01*
X183745238Y-102306428D01*
X183840476Y-102401666D01*
X183888095Y-102496904D01*
X184602380Y-100973095D02*
X184602380Y-101544523D01*
X184602380Y-101258809D02*
X183602380Y-101258809D01*
X183745238Y-101354047D01*
X183840476Y-101449285D01*
X183888095Y-101544523D01*
%TO.C,C10*%
X156567142Y-102877857D02*
X156614761Y-102925476D01*
X156662380Y-103068333D01*
X156662380Y-103163571D01*
X156614761Y-103306428D01*
X156519523Y-103401666D01*
X156424285Y-103449285D01*
X156233809Y-103496904D01*
X156090952Y-103496904D01*
X155900476Y-103449285D01*
X155805238Y-103401666D01*
X155710000Y-103306428D01*
X155662380Y-103163571D01*
X155662380Y-103068333D01*
X155710000Y-102925476D01*
X155757619Y-102877857D01*
X156662380Y-101925476D02*
X156662380Y-102496904D01*
X156662380Y-102211190D02*
X155662380Y-102211190D01*
X155805238Y-102306428D01*
X155900476Y-102401666D01*
X155948095Y-102496904D01*
X155662380Y-101306428D02*
X155662380Y-101211190D01*
X155710000Y-101115952D01*
X155757619Y-101068333D01*
X155852857Y-101020714D01*
X156043333Y-100973095D01*
X156281428Y-100973095D01*
X156471904Y-101020714D01*
X156567142Y-101068333D01*
X156614761Y-101115952D01*
X156662380Y-101211190D01*
X156662380Y-101306428D01*
X156614761Y-101401666D01*
X156567142Y-101449285D01*
X156471904Y-101496904D01*
X156281428Y-101544523D01*
X156043333Y-101544523D01*
X155852857Y-101496904D01*
X155757619Y-101449285D01*
X155710000Y-101401666D01*
X155662380Y-101306428D01*
%TO.C,C9*%
X216257142Y-99861666D02*
X216304761Y-99909285D01*
X216352380Y-100052142D01*
X216352380Y-100147380D01*
X216304761Y-100290238D01*
X216209523Y-100385476D01*
X216114285Y-100433095D01*
X215923809Y-100480714D01*
X215780952Y-100480714D01*
X215590476Y-100433095D01*
X215495238Y-100385476D01*
X215400000Y-100290238D01*
X215352380Y-100147380D01*
X215352380Y-100052142D01*
X215400000Y-99909285D01*
X215447619Y-99861666D01*
X216352380Y-99385476D02*
X216352380Y-99195000D01*
X216304761Y-99099761D01*
X216257142Y-99052142D01*
X216114285Y-98956904D01*
X215923809Y-98909285D01*
X215542857Y-98909285D01*
X215447619Y-98956904D01*
X215400000Y-99004523D01*
X215352380Y-99099761D01*
X215352380Y-99290238D01*
X215400000Y-99385476D01*
X215447619Y-99433095D01*
X215542857Y-99480714D01*
X215780952Y-99480714D01*
X215876190Y-99433095D01*
X215923809Y-99385476D01*
X215971428Y-99290238D01*
X215971428Y-99099761D01*
X215923809Y-99004523D01*
X215876190Y-98956904D01*
X215780952Y-98909285D01*
%TO.C,C6*%
X201652142Y-98591666D02*
X201699761Y-98639285D01*
X201747380Y-98782142D01*
X201747380Y-98877380D01*
X201699761Y-99020238D01*
X201604523Y-99115476D01*
X201509285Y-99163095D01*
X201318809Y-99210714D01*
X201175952Y-99210714D01*
X200985476Y-99163095D01*
X200890238Y-99115476D01*
X200795000Y-99020238D01*
X200747380Y-98877380D01*
X200747380Y-98782142D01*
X200795000Y-98639285D01*
X200842619Y-98591666D01*
X200747380Y-97734523D02*
X200747380Y-97925000D01*
X200795000Y-98020238D01*
X200842619Y-98067857D01*
X200985476Y-98163095D01*
X201175952Y-98210714D01*
X201556904Y-98210714D01*
X201652142Y-98163095D01*
X201699761Y-98115476D01*
X201747380Y-98020238D01*
X201747380Y-97829761D01*
X201699761Y-97734523D01*
X201652142Y-97686904D01*
X201556904Y-97639285D01*
X201318809Y-97639285D01*
X201223571Y-97686904D01*
X201175952Y-97734523D01*
X201128333Y-97829761D01*
X201128333Y-98020238D01*
X201175952Y-98115476D01*
X201223571Y-98163095D01*
X201318809Y-98210714D01*
%TO.C,C5*%
X203557142Y-98591666D02*
X203604761Y-98639285D01*
X203652380Y-98782142D01*
X203652380Y-98877380D01*
X203604761Y-99020238D01*
X203509523Y-99115476D01*
X203414285Y-99163095D01*
X203223809Y-99210714D01*
X203080952Y-99210714D01*
X202890476Y-99163095D01*
X202795238Y-99115476D01*
X202700000Y-99020238D01*
X202652380Y-98877380D01*
X202652380Y-98782142D01*
X202700000Y-98639285D01*
X202747619Y-98591666D01*
X202652380Y-97686904D02*
X202652380Y-98163095D01*
X203128571Y-98210714D01*
X203080952Y-98163095D01*
X203033333Y-98067857D01*
X203033333Y-97829761D01*
X203080952Y-97734523D01*
X203128571Y-97686904D01*
X203223809Y-97639285D01*
X203461904Y-97639285D01*
X203557142Y-97686904D01*
X203604761Y-97734523D01*
X203652380Y-97829761D01*
X203652380Y-98067857D01*
X203604761Y-98163095D01*
X203557142Y-98210714D01*
%TO.C,C4*%
X129373333Y-108307142D02*
X129325714Y-108354761D01*
X129182857Y-108402380D01*
X129087619Y-108402380D01*
X128944761Y-108354761D01*
X128849523Y-108259523D01*
X128801904Y-108164285D01*
X128754285Y-107973809D01*
X128754285Y-107830952D01*
X128801904Y-107640476D01*
X128849523Y-107545238D01*
X128944761Y-107450000D01*
X129087619Y-107402380D01*
X129182857Y-107402380D01*
X129325714Y-107450000D01*
X129373333Y-107497619D01*
X130230476Y-107735714D02*
X130230476Y-108402380D01*
X129992380Y-107354761D02*
X129754285Y-108069047D01*
X130373333Y-108069047D01*
%TO.C,C3*%
X124182142Y-101766666D02*
X124229761Y-101814285D01*
X124277380Y-101957142D01*
X124277380Y-102052380D01*
X124229761Y-102195238D01*
X124134523Y-102290476D01*
X124039285Y-102338095D01*
X123848809Y-102385714D01*
X123705952Y-102385714D01*
X123515476Y-102338095D01*
X123420238Y-102290476D01*
X123325000Y-102195238D01*
X123277380Y-102052380D01*
X123277380Y-101957142D01*
X123325000Y-101814285D01*
X123372619Y-101766666D01*
X123277380Y-101433333D02*
X123277380Y-100814285D01*
X123658333Y-101147619D01*
X123658333Y-101004761D01*
X123705952Y-100909523D01*
X123753571Y-100861904D01*
X123848809Y-100814285D01*
X124086904Y-100814285D01*
X124182142Y-100861904D01*
X124229761Y-100909523D01*
X124277380Y-101004761D01*
X124277380Y-101290476D01*
X124229761Y-101385714D01*
X124182142Y-101433333D01*
%TO.C,C2*%
X122752142Y-105576666D02*
X122799761Y-105624285D01*
X122847380Y-105767142D01*
X122847380Y-105862380D01*
X122799761Y-106005238D01*
X122704523Y-106100476D01*
X122609285Y-106148095D01*
X122418809Y-106195714D01*
X122275952Y-106195714D01*
X122085476Y-106148095D01*
X121990238Y-106100476D01*
X121895000Y-106005238D01*
X121847380Y-105862380D01*
X121847380Y-105767142D01*
X121895000Y-105624285D01*
X121942619Y-105576666D01*
X121942619Y-105195714D02*
X121895000Y-105148095D01*
X121847380Y-105052857D01*
X121847380Y-104814761D01*
X121895000Y-104719523D01*
X121942619Y-104671904D01*
X122037857Y-104624285D01*
X122133095Y-104624285D01*
X122275952Y-104671904D01*
X122847380Y-105243333D01*
X122847380Y-104624285D01*
%TO.C,C1*%
X218162142Y-108116666D02*
X218209761Y-108164285D01*
X218257380Y-108307142D01*
X218257380Y-108402380D01*
X218209761Y-108545238D01*
X218114523Y-108640476D01*
X218019285Y-108688095D01*
X217828809Y-108735714D01*
X217685952Y-108735714D01*
X217495476Y-108688095D01*
X217400238Y-108640476D01*
X217305000Y-108545238D01*
X217257380Y-108402380D01*
X217257380Y-108307142D01*
X217305000Y-108164285D01*
X217352619Y-108116666D01*
X218257380Y-107164285D02*
X218257380Y-107735714D01*
X218257380Y-107450000D02*
X217257380Y-107450000D01*
X217400238Y-107545238D01*
X217495476Y-107640476D01*
X217543095Y-107735714D01*
%TD*%
M02*
