%TF.GenerationSoftware,KiCad,Pcbnew,(5.1.9)-1*%
%TF.CreationDate,2021-05-23T15:32:32+02:00*%
%TF.ProjectId,Engine_Test,456e6769-6e65-45f5-9465-73742e6b6963,rev?*%
%TF.SameCoordinates,Original*%
%TF.FileFunction,Copper,L2,Bot*%
%TF.FilePolarity,Positive*%
%FSLAX46Y46*%
G04 Gerber Fmt 4.6, Leading zero omitted, Abs format (unit mm)*
G04 Created by KiCad (PCBNEW (5.1.9)-1) date 2021-05-23 15:32:32*
%MOMM*%
%LPD*%
G01*
G04 APERTURE LIST*
%TA.AperFunction,ComponentPad*%
%ADD10O,1.700000X1.700000*%
%TD*%
%TA.AperFunction,ComponentPad*%
%ADD11R,1.700000X1.700000*%
%TD*%
%TA.AperFunction,ComponentPad*%
%ADD12O,1.000000X1.000000*%
%TD*%
%TA.AperFunction,ComponentPad*%
%ADD13R,1.000000X1.000000*%
%TD*%
%TA.AperFunction,ViaPad*%
%ADD14C,0.800000*%
%TD*%
%TA.AperFunction,Conductor*%
%ADD15C,0.500000*%
%TD*%
%TA.AperFunction,Conductor*%
%ADD16C,0.250000*%
%TD*%
G04 APERTURE END LIST*
D10*
%TO.P,J1,2*%
%TO.N,Net-(J1-Pad2)*%
X146050000Y-105410000D03*
D11*
%TO.P,J1,1*%
%TO.N,GND*%
X143510000Y-105410000D03*
%TD*%
D12*
%TO.P,J3,10*%
%TO.N,/nRST*%
X221615000Y-107315000D03*
%TO.P,J3,9*%
%TO.N,GND*%
X220345000Y-107315000D03*
%TO.P,J3,8*%
%TO.N,N/C*%
X221615000Y-106045000D03*
%TO.P,J3,7*%
X220345000Y-106045000D03*
%TO.P,J3,6*%
X221615000Y-104775000D03*
%TO.P,J3,5*%
%TO.N,GND*%
X220345000Y-104775000D03*
%TO.P,J3,4*%
%TO.N,/CLK*%
X221615000Y-103505000D03*
%TO.P,J3,3*%
%TO.N,GND*%
X220345000Y-103505000D03*
%TO.P,J3,2*%
%TO.N,/DIO*%
X221615000Y-102235000D03*
D13*
%TO.P,J3,1*%
%TO.N,+3V3*%
X220345000Y-102235000D03*
%TD*%
D10*
%TO.P,J7,10*%
%TO.N,GND*%
X113030000Y-95250000D03*
%TO.P,J7,9*%
X115570000Y-95250000D03*
%TO.P,J7,8*%
X118110000Y-95250000D03*
%TO.P,J7,7*%
X120650000Y-95250000D03*
%TO.P,J7,6*%
X123190000Y-95250000D03*
%TO.P,J7,5*%
%TO.N,+5V*%
X125730000Y-95250000D03*
%TO.P,J7,4*%
X128270000Y-95250000D03*
%TO.P,J7,3*%
X130810000Y-95250000D03*
%TO.P,J7,2*%
X133350000Y-95250000D03*
D11*
%TO.P,J7,1*%
X135890000Y-95250000D03*
%TD*%
D10*
%TO.P,J6,10*%
%TO.N,GND*%
X196850000Y-95250000D03*
%TO.P,J6,9*%
%TO.N,/ENGINE_OUT_0*%
X199390000Y-95250000D03*
%TO.P,J6,8*%
%TO.N,/ENGINE_OUT_1*%
X201930000Y-95250000D03*
%TO.P,J6,7*%
%TO.N,/ENGINE_OUT_2*%
X204470000Y-95250000D03*
%TO.P,J6,6*%
%TO.N,/ENGINE_OUT_3*%
X207010000Y-95250000D03*
%TO.P,J6,5*%
%TO.N,/ENGINE_OUT_4*%
X209550000Y-95250000D03*
%TO.P,J6,4*%
%TO.N,/ENGINE_OUT_5*%
X212090000Y-95250000D03*
%TO.P,J6,3*%
%TO.N,/ENGINE_OUT_6*%
X214630000Y-95250000D03*
%TO.P,J6,2*%
%TO.N,/ENGINE_OUT_7*%
X217170000Y-95250000D03*
D11*
%TO.P,J6,1*%
%TO.N,/ENGINE_OUT_8*%
X219710000Y-95250000D03*
%TD*%
D10*
%TO.P,J5,10*%
%TO.N,GND*%
X168910000Y-95250000D03*
%TO.P,J5,9*%
%TO.N,Net-(J5-Pad9)*%
X171450000Y-95250000D03*
%TO.P,J5,8*%
%TO.N,Net-(J5-Pad8)*%
X173990000Y-95250000D03*
%TO.P,J5,7*%
%TO.N,Net-(J5-Pad7)*%
X176530000Y-95250000D03*
%TO.P,J5,6*%
%TO.N,Net-(J5-Pad6)*%
X179070000Y-95250000D03*
%TO.P,J5,5*%
%TO.N,Net-(J5-Pad5)*%
X181610000Y-95250000D03*
%TO.P,J5,4*%
%TO.N,Net-(J5-Pad4)*%
X184150000Y-95250000D03*
%TO.P,J5,3*%
%TO.N,Net-(J5-Pad3)*%
X186690000Y-95250000D03*
%TO.P,J5,2*%
%TO.N,Net-(J5-Pad2)*%
X189230000Y-95250000D03*
D11*
%TO.P,J5,1*%
%TO.N,Net-(J5-Pad1)*%
X191770000Y-95250000D03*
%TD*%
D10*
%TO.P,J4,10*%
%TO.N,GND*%
X140970000Y-95250000D03*
%TO.P,J4,9*%
%TO.N,Net-(J4-Pad9)*%
X143510000Y-95250000D03*
%TO.P,J4,8*%
%TO.N,Net-(J4-Pad8)*%
X146050000Y-95250000D03*
%TO.P,J4,7*%
%TO.N,Net-(J4-Pad7)*%
X148590000Y-95250000D03*
%TO.P,J4,6*%
%TO.N,Net-(J4-Pad6)*%
X151130000Y-95250000D03*
%TO.P,J4,5*%
%TO.N,Net-(J4-Pad5)*%
X153670000Y-95250000D03*
%TO.P,J4,4*%
%TO.N,Net-(J4-Pad4)*%
X156210000Y-95250000D03*
%TO.P,J4,3*%
%TO.N,Net-(J4-Pad3)*%
X158750000Y-95250000D03*
%TO.P,J4,2*%
%TO.N,Net-(J4-Pad2)*%
X161290000Y-95250000D03*
D11*
%TO.P,J4,1*%
%TO.N,Net-(J4-Pad1)*%
X163830000Y-95250000D03*
%TD*%
D14*
%TO.N,GND*%
X213360000Y-107315000D03*
X191135000Y-104775000D03*
%TO.N,+3V3*%
X130175000Y-103505000D03*
X130175000Y-100330000D03*
X131445000Y-103505000D03*
X132715000Y-103505000D03*
X222885000Y-100965000D03*
X200025000Y-100965000D03*
%TO.N,+5V*%
X182245000Y-103505000D03*
X176530000Y-104775000D03*
X162560000Y-104775000D03*
X148590000Y-104775000D03*
X144780000Y-102235000D03*
X168483720Y-103323400D03*
X154395010Y-103496169D03*
%TO.N,Net-(J4-Pad9)*%
X143510000Y-92710000D03*
X184785000Y-92710000D03*
X185420000Y-96520000D03*
X185420000Y-106045000D03*
%TO.N,/ENGINE_OUT_0*%
X210364130Y-92290010D03*
X199746316Y-92290010D03*
%TO.N,/ENGINE_OUT_1*%
X201930000Y-92740021D03*
X210005444Y-93223481D03*
%TO.N,/ENGINE_OUT_2*%
X207645000Y-93345000D03*
X204731980Y-93190032D03*
%TO.N,/ENGINE_OUT_4*%
X209550000Y-100330000D03*
%TO.N,/ENGINE_OUT_5*%
X210820000Y-100863783D03*
%TO.N,/ENGINE_OUT_6*%
X210820077Y-101863794D03*
%TO.N,/ENGINE_OUT_7*%
X210807554Y-102863728D03*
%TO.N,/ENGINE_OUT_8*%
X210729990Y-104140000D03*
%TO.N,/LED1*%
X211455000Y-105410000D03*
X196850000Y-104775000D03*
%TO.N,/OUT_DATA*%
X208915000Y-104775000D03*
X198755000Y-103505000D03*
X181610000Y-100965000D03*
X153035000Y-100965000D03*
%TO.N,/OUT_LATCH*%
X165735000Y-102235000D03*
X179705000Y-102235000D03*
X151765000Y-102235000D03*
X201930000Y-108585000D03*
X179705000Y-108585000D03*
%TO.N,/OUT_CLK*%
X179070000Y-103505000D03*
X165100000Y-103505000D03*
X151130000Y-103505000D03*
X201930000Y-107315000D03*
X179070000Y-106680000D03*
%TO.N,/CLK*%
X205105000Y-107315000D03*
%TO.N,/DIO*%
X203835000Y-107315000D03*
%TO.N,/UART_MCU_RX*%
X139065000Y-97790000D03*
X139065000Y-95885000D03*
X139065000Y-87630000D03*
X215265000Y-87630000D03*
%TO.N,/UART_MCU_TX*%
X217805000Y-86360000D03*
X138430000Y-86360000D03*
X134615735Y-96524265D03*
X138339990Y-95177885D03*
%TO.N,Net-(U3-Pad9)*%
X150495000Y-107315000D03*
X181390010Y-106687141D03*
%TO.N,Net-(U4-Pad9)*%
X167640000Y-106589990D03*
X177800000Y-106589990D03*
%TD*%
D15*
%TO.N,GND*%
X139669999Y-93949999D02*
X140970000Y-95250000D01*
X124490001Y-93949999D02*
X139669999Y-93949999D01*
X123190000Y-95250000D02*
X124490001Y-93949999D01*
X167609999Y-93949999D02*
X168910000Y-95250000D01*
X142270001Y-93949999D02*
X167609999Y-93949999D01*
X140970000Y-95250000D02*
X142270001Y-93949999D01*
X195549999Y-93949999D02*
X196850000Y-95250000D01*
X170210001Y-93949999D02*
X195549999Y-93949999D01*
X168910000Y-95250000D02*
X170210001Y-93949999D01*
D16*
X213360000Y-107315000D02*
X220345000Y-107315000D01*
D15*
X196850000Y-95250000D02*
X196850000Y-102870000D01*
X193675000Y-106045000D02*
X192405000Y-106045000D01*
X196850000Y-102870000D02*
X193675000Y-106045000D01*
D16*
X191135000Y-104775000D02*
X191135000Y-106045000D01*
D15*
X192405000Y-106045000D02*
X191135000Y-106045000D01*
X143510000Y-97790000D02*
X140970000Y-95250000D01*
X143510000Y-105410000D02*
X143510000Y-97790000D01*
X220345000Y-107315000D02*
X209568810Y-107315000D01*
X208298810Y-106045000D02*
X192405000Y-106045000D01*
X209568810Y-107315000D02*
X208298810Y-106045000D01*
D16*
%TO.N,+3V3*%
X130175000Y-103505000D02*
X130175000Y-100330000D01*
D15*
X130175000Y-103505000D02*
X132715000Y-103505000D01*
X222885000Y-92075000D02*
X222885000Y-100965000D01*
X222250000Y-91440000D02*
X222885000Y-92075000D01*
X111125000Y-92710000D02*
X112395000Y-91440000D01*
X111125000Y-102870000D02*
X111125000Y-92710000D01*
X111760000Y-103505000D02*
X111125000Y-102870000D01*
X130175000Y-103505000D02*
X111760000Y-103505000D01*
D16*
X198025001Y-91980001D02*
X197485000Y-91440000D01*
X198025001Y-98965001D02*
X198025001Y-91980001D01*
X200025000Y-100965000D02*
X198025001Y-98965001D01*
D15*
X197485000Y-91440000D02*
X222250000Y-91440000D01*
X112395000Y-91440000D02*
X197485000Y-91440000D01*
%TO.N,+5V*%
X180975000Y-104775000D02*
X182245000Y-103505000D01*
X176530000Y-104775000D02*
X180975000Y-104775000D01*
X147320000Y-104775000D02*
X144780000Y-102235000D01*
X148590000Y-104775000D02*
X147320000Y-104775000D01*
X167032120Y-104775000D02*
X168483720Y-103323400D01*
X169935320Y-104775000D02*
X168483720Y-103323400D01*
X176530000Y-104775000D02*
X169935320Y-104775000D01*
X162560000Y-104775000D02*
X167032120Y-104775000D01*
X148590000Y-104775000D02*
X153116179Y-104775000D01*
X153116179Y-104775000D02*
X154395010Y-103496169D01*
X161281169Y-103496169D02*
X154395010Y-103496169D01*
X162560000Y-104775000D02*
X161281169Y-103496169D01*
D16*
%TO.N,Net-(J4-Pad9)*%
X143510000Y-92710000D02*
X184785000Y-92710000D01*
X185420000Y-96520000D02*
X185420000Y-106045000D01*
%TO.N,/ENGINE_OUT_0*%
X210089131Y-92015011D02*
X210364130Y-92290010D01*
X199746316Y-92290010D02*
X200021315Y-92015011D01*
X200021315Y-92015011D02*
X210089131Y-92015011D01*
%TO.N,/ENGINE_OUT_1*%
X209246985Y-92465022D02*
X210005444Y-93223481D01*
X202204999Y-92465022D02*
X209246985Y-92465022D01*
X201930000Y-92740021D02*
X202204999Y-92465022D01*
%TO.N,/ENGINE_OUT_2*%
X207645000Y-93345000D02*
X204886948Y-93345000D01*
X204886948Y-93345000D02*
X204731980Y-93190032D01*
%TO.N,/ENGINE_OUT_4*%
X209550000Y-100330000D02*
X209550000Y-95250000D01*
%TO.N,/ENGINE_OUT_5*%
X212090000Y-95250000D02*
X212090000Y-99593783D01*
X212090000Y-99593783D02*
X210820000Y-100863783D01*
%TO.N,/ENGINE_OUT_6*%
X214630000Y-95250000D02*
X214630000Y-98625672D01*
X211391878Y-101863794D02*
X210820077Y-101863794D01*
X214630000Y-98625672D02*
X211391878Y-101863794D01*
%TO.N,/ENGINE_OUT_7*%
X217170000Y-95250000D02*
X217170000Y-97790000D01*
X217170000Y-97790000D02*
X212096272Y-102863728D01*
X212096272Y-102863728D02*
X210807554Y-102863728D01*
%TO.N,/ENGINE_OUT_8*%
X219710000Y-95250000D02*
X219710000Y-97790000D01*
X213360000Y-104140000D02*
X210729990Y-104140000D01*
X219710000Y-97790000D02*
X213360000Y-104140000D01*
%TO.N,/LED1*%
X211455000Y-105410000D02*
X211055001Y-105809999D01*
X211055001Y-105809999D02*
X208876997Y-105809999D01*
X208876997Y-105809999D02*
X208292009Y-105225011D01*
X208292009Y-105225011D02*
X197300011Y-105225011D01*
X197300011Y-105225011D02*
X196850000Y-104775000D01*
%TO.N,/OUT_DATA*%
X208915000Y-104775000D02*
X200025000Y-104775000D01*
X200025000Y-104775000D02*
X198755000Y-103505000D01*
X181610000Y-100965000D02*
X153035000Y-100965000D01*
%TO.N,/OUT_LATCH*%
X165735000Y-102235000D02*
X151765000Y-102235000D01*
X179305001Y-101835001D02*
X179705000Y-102235000D01*
X166134999Y-101835001D02*
X179305001Y-101835001D01*
X165735000Y-102235000D02*
X166134999Y-101835001D01*
X201930000Y-108585000D02*
X179705000Y-108585000D01*
%TO.N,/OUT_CLK*%
X152429517Y-102771168D02*
X151695685Y-103505000D01*
X151695685Y-103505000D02*
X151130000Y-103505000D01*
X165100000Y-103505000D02*
X164366168Y-102771168D01*
X164366168Y-102771168D02*
X152429517Y-102771168D01*
X165665685Y-103505000D02*
X165100000Y-103505000D01*
X179070000Y-103505000D02*
X178163398Y-102598398D01*
X166572287Y-102598398D02*
X165665685Y-103505000D01*
X178163398Y-102598398D02*
X166572287Y-102598398D01*
X201930000Y-107315000D02*
X183090871Y-107315000D01*
X183090871Y-107315000D02*
X181738011Y-105962140D01*
X181738011Y-105962140D02*
X179787860Y-105962140D01*
X179787860Y-105962140D02*
X179070000Y-106680000D01*
%TO.N,/CLK*%
X222011001Y-108140001D02*
X205930001Y-108140001D01*
X222440001Y-107711001D02*
X222011001Y-108140001D01*
X222440001Y-104330001D02*
X222440001Y-107711001D01*
X221615000Y-103505000D02*
X222440001Y-104330001D01*
X205930001Y-108140001D02*
X205105000Y-107315000D01*
%TO.N,/DIO*%
X221615000Y-102235000D02*
X222885000Y-103505000D01*
X222890010Y-107897402D02*
X222197401Y-108590011D01*
X222890012Y-104192599D02*
X222890010Y-107897402D01*
X222885000Y-104187587D02*
X222890012Y-104192599D01*
X222885000Y-103505000D02*
X222885000Y-104187587D01*
X205110011Y-108590011D02*
X203835000Y-107315000D01*
X222197401Y-108590011D02*
X205110011Y-108590011D01*
%TO.N,/UART_MCU_RX*%
X139065000Y-97790000D02*
X139065000Y-95885000D01*
X139065000Y-87630000D02*
X215265000Y-87630000D01*
%TO.N,/UART_MCU_TX*%
X217805000Y-86360000D02*
X144145000Y-86360000D01*
X144145000Y-86360000D02*
X138430000Y-86360000D01*
X134615735Y-96524265D02*
X136993610Y-96524265D01*
X136993610Y-96524265D02*
X138339990Y-95177885D01*
%TO.N,Net-(U3-Pad9)*%
X150495000Y-107315000D02*
X150894999Y-107714999D01*
X150894999Y-107714999D02*
X180362152Y-107714999D01*
X180362152Y-107714999D02*
X181390010Y-106687141D01*
%TO.N,Net-(U4-Pad9)*%
X167640000Y-106589990D02*
X168205685Y-106589990D01*
X168205685Y-106589990D02*
X177800000Y-106589990D01*
%TD*%
M02*
