M48
; DRILL file {KiCad (5.1.9)-1} date 05/23/21 15:32:35
; FORMAT={-:-/ absolute / inch / decimal}
; #@! TF.CreationDate,2021-05-23T15:32:35+02:00
; #@! TF.GenerationSoftware,Kicad,Pcbnew,(5.1.9)-1
; #@! TF.FileFunction,Plated,1,2,PTH
FMAT,2
INCH
T1C0.0157
T2C0.0256
T3C0.0394
%
G90
G05
T1
X5.125Y-3.95
X5.125Y-4.075
X5.175Y-4.075
X5.225Y-4.075
X5.2998Y-3.8002
X5.4465Y-3.7472
X5.45Y-3.4
X5.475Y-3.45
X5.475Y-3.775
X5.475Y-3.85
X5.65Y-3.65
X5.7Y-4.025
X5.85Y-4.125
X5.925Y-4.225
X5.95Y-4.075
X5.975Y-4.025
X6.025Y-3.975
X6.0785Y-4.0747
X6.4Y-4.125
X6.5Y-4.075
X6.525Y-4.025
X6.6Y-4.1965
X6.6332Y-4.0679
X6.95Y-4.125
X7.0Y-4.1965
X7.05Y-4.075
X7.05Y-4.2
X7.075Y-4.025
X7.075Y-4.275
X7.1413Y-4.2003
X7.15Y-3.975
X7.175Y-4.075
X7.275Y-3.65
X7.3Y-3.8
X7.3Y-4.175
X7.525Y-4.125
X7.75Y-4.125
X7.825Y-4.075
X7.864Y-3.6335
X7.875Y-3.975
X7.95Y-3.6512
X7.95Y-4.225
X7.95Y-4.275
X8.025Y-4.225
X8.0603Y-3.6689
X8.075Y-4.225
X8.175Y-3.675
X8.225Y-4.125
X8.25Y-3.95
X8.2679Y-3.6702
X8.2821Y-3.6335
X8.2965Y-4.1
X8.2995Y-4.0498
X8.3Y-3.971
X8.3Y-4.0104
X8.325Y-4.15
X8.4Y-4.225
X8.475Y-3.45
X8.575Y-3.4
X8.775Y-3.975
T2
X8.675Y-4.025
X8.675Y-4.075
X8.675Y-4.125
X8.675Y-4.175
X8.675Y-4.225
X8.725Y-4.025
X8.725Y-4.075
X8.725Y-4.125
X8.725Y-4.175
X8.725Y-4.225
T3
X4.45Y-3.75
X4.55Y-3.75
X4.65Y-3.75
X4.75Y-3.75
X4.85Y-3.75
X4.95Y-3.75
X5.05Y-3.75
X5.15Y-3.75
X5.25Y-3.75
X5.35Y-3.75
X5.55Y-3.75
X5.65Y-3.75
X5.65Y-4.15
X5.75Y-3.75
X5.75Y-4.15
X5.85Y-3.75
X5.95Y-3.75
X6.05Y-3.75
X6.15Y-3.75
X6.25Y-3.75
X6.35Y-3.75
X6.45Y-3.75
X6.65Y-3.75
X6.75Y-3.75
X6.85Y-3.75
X6.95Y-3.75
X7.05Y-3.75
X7.15Y-3.75
X7.25Y-3.75
X7.35Y-3.75
X7.45Y-3.75
X7.55Y-3.75
X7.75Y-3.75
X7.85Y-3.75
X7.95Y-3.75
X8.05Y-3.75
X8.15Y-3.75
X8.25Y-3.75
X8.35Y-3.75
X8.45Y-3.75
X8.55Y-3.75
X8.65Y-3.75
T0
M30
