M48
; DRILL file {KiCad (5.1.5)-3} date 08/28/20 18:26:56
; FORMAT={-:-/ absolute / inch / decimal}
; #@! TF.CreationDate,2020-08-28T18:26:56+02:00
; #@! TF.GenerationSoftware,Kicad,Pcbnew,(5.1.5)-3
; #@! TF.FileFunction,Plated,1,2,PTH
FMAT,2
INCH
T1C0.0138
T2C0.0197
T3C0.0394
T4C0.0433
T5C0.1260
%
G90
G05
T1
X0.7035Y-0.866
X0.7035Y-0.909
X0.7035Y-0.9535
X0.725Y-0.6
X0.7375Y-1.3
X0.7375Y-1.325
X0.7375Y-1.35
X0.7375Y-1.4875
X0.7375Y-1.5125
X0.7375Y-1.5375
X0.7375Y-1.8375
X0.7375Y-1.8625
X0.7375Y-1.8875
X0.7375Y-2.1875
X0.7375Y-2.2125
X0.7375Y-2.2375
X0.7375Y-3.25
X0.7375Y-3.275
X0.7375Y-3.3
X0.7375Y-3.6875
X0.7375Y-3.7125
X0.7375Y-3.7375
X0.7375Y-4.0375
X0.7375Y-4.0625
X0.7375Y-4.0875
X0.7375Y-4.25
X0.7375Y-4.275
X0.7375Y-4.3
X0.7375Y-4.6
X0.7375Y-4.625
X0.7375Y-4.65
X0.7375Y-4.95
X0.7375Y-4.975
X0.7375Y-5.0
X0.7375Y-5.3
X0.7375Y-5.325
X0.7375Y-5.35
X0.7375Y-5.65
X0.7375Y-5.675
X0.7375Y-5.7
X0.7375Y-6.0
X0.7375Y-6.025
X0.7375Y-6.05
X0.7375Y-6.35
X0.7375Y-6.375
X0.7375Y-6.4
X0.7375Y-6.7
X0.7375Y-6.725
X0.7375Y-6.75
X0.7375Y-7.05
X0.7375Y-7.075
X0.7375Y-7.1
X0.7375Y-7.4
X0.7375Y-7.425
X0.7375Y-7.45
X0.7375Y-7.75
X0.7375Y-7.775
X0.7375Y-7.8
X0.7375Y-8.1
X0.7375Y-8.125
X0.7375Y-8.15
X0.7492Y-3.575
X0.7492Y-3.625
X0.75Y-0.575
X0.75Y-2.5875
X0.75Y-2.6125
X0.75Y-2.6375
X0.75Y-2.9125
X0.75Y-2.9375
X0.75Y-2.9625
X0.75Y-3.0625
X0.75Y-4.2125
X0.7712Y-3.9547
X0.775Y-0.55
X0.775Y-1.225
X0.775Y-1.4
X0.775Y-1.575
X0.775Y-1.85
X0.775Y-1.925
X0.775Y-3.325
X0.775Y-3.5
X0.775Y-3.675
X0.775Y-3.85
X0.775Y-4.55
X0.775Y-5.25
X0.775Y-5.9625
X0.775Y-6.65
X0.775Y-7.3625
X0.775Y-8.0625
X0.7765Y-1.7757
X0.7787Y-2.275
X0.7875Y-2.8125
X0.7875Y-3.1
X0.7875Y-8.55
X0.7917Y-2.6708
X0.8Y-2.2
X0.8Y-3.5285
X0.8Y-4.35
X0.8092Y-3.1528
X0.8125Y-2.3
X0.8125Y-7.0125
X0.825Y-1.725
X0.825Y-2.075
X0.825Y-2.425
X0.825Y-3.425
X0.825Y-4.1625
X0.825Y-6.5
X0.825Y-8.9875
X0.8261Y-3.1285
X0.8301Y-4.3875
X0.8363Y-3.0697
X0.8375Y-1.25
X0.8497Y-3.3378
X0.85Y-4.275
X0.85Y-7.725
X0.8625Y-5.625
X0.8735Y-3.2996
X0.8736Y-4.8872
X0.875Y-1.375
X0.875Y-1.8965
X0.875Y-2.2465
X0.875Y-3.4715
X0.875Y-3.8215
X0.875Y-4.1875
X0.875Y-7.0125
X0.875Y-7.8875
X0.875Y-8.4375
X0.8756Y-1.5465
X0.8823Y-2.9725
X0.8875Y-2.6375
X0.8889Y-3.65
X0.9Y-1.975
X0.9Y-2.175
X0.9Y-2.325
X0.9Y-2.825
X0.9005Y-1.4296
X0.9071Y-4.0125
X0.9125Y-1.05
X0.9125Y-1.25
X0.9125Y-9.075
X0.9234Y-1.8965
X0.9354Y-3.1058
X0.9375Y-3.325
X0.9493Y-3.8486
X0.95Y-1.15
X0.95Y-1.4
X0.95Y-1.5
X0.95Y-1.575
X0.95Y-1.925
X0.95Y-2.275
X0.95Y-2.475
X0.95Y-3.5
X0.95Y-3.947
X0.9625Y-3.875
X0.9625Y-4.9125
X0.9625Y-5.625
X0.9625Y-6.15
X0.9625Y-6.8375
X0.9625Y-7.0125
X0.9625Y-7.725
X0.9625Y-7.8875
X0.965Y-3.6715
X0.965Y-4.05
X0.965Y-4.125
X0.965Y-4.3
X0.965Y-4.55
X0.965Y-4.65
X0.965Y-4.825
X0.965Y-5.0
X0.965Y-5.25
X0.965Y-5.35
X0.965Y-5.525
X0.965Y-5.7
X0.965Y-5.95
X0.965Y-6.05
X0.965Y-6.225
X0.965Y-6.4
X0.965Y-6.65
X0.965Y-6.75
X0.965Y-6.925
X0.965Y-7.1
X0.965Y-7.35
X0.965Y-7.45
X0.965Y-7.625
X0.965Y-7.8
X0.965Y-8.05
X0.965Y-8.15
X0.965Y-8.325
X0.975Y-1.675
X0.975Y-2.025
X0.975Y-2.375
X0.975Y-2.825
X0.975Y-3.075
X0.9916Y-4.2163
X1.0Y-2.35
X1.0Y-3.775
X1.0Y-3.95
X1.039Y-3.3819
X1.04Y-4.575
X1.04Y-5.275
X1.04Y-5.975
X1.04Y-6.675
X1.04Y-7.375
X1.04Y-8.075
X1.041Y-2.8464
X1.05Y-1.2
X1.05Y-1.3715
X1.05Y-1.725
X1.05Y-1.8965
X1.05Y-2.075
X1.05Y-2.2465
X1.05Y-2.425
X1.05Y-3.4715
X1.0506Y-1.5465
X1.0625Y-4.0
X1.0646Y-4.55
X1.0646Y-5.25
X1.0646Y-5.95
X1.0646Y-6.65
X1.0646Y-7.35
X1.0646Y-8.05
X1.075Y-2.225
X1.075Y-2.4625
X1.075Y-3.85
X1.0875Y-2.8125
X1.0875Y-3.3875
X1.1Y-1.325
X1.1Y-3.85
X1.1208Y-2.6958
X1.125Y-1.225
X1.125Y-1.4
X1.125Y-1.575
X1.125Y-1.75
X1.125Y-1.925
X1.125Y-2.1
X1.125Y-2.275
X1.125Y-2.4389
X1.125Y-3.425
X1.125Y-3.5
X1.125Y-3.675
X1.125Y-3.775
X1.125Y-3.85
X1.1292Y-3.3292
X1.1375Y-3.0375
X1.1398Y-4.6502
X1.1398Y-5.3502
X1.1398Y-6.0502
X1.1398Y-6.7502
X1.1398Y-7.4502
X1.1398Y-8.1502
X1.14Y-3.95
X1.14Y-4.05
X1.14Y-4.3
X1.14Y-4.475
X1.14Y-4.575
X1.14Y-4.825
X1.14Y-5.0
X1.14Y-5.175
X1.14Y-5.275
X1.14Y-5.525
X1.14Y-5.7
X1.14Y-5.875
X1.14Y-5.975
X1.14Y-6.225
X1.14Y-6.4
X1.14Y-6.575
X1.14Y-6.675
X1.14Y-6.925
X1.14Y-7.1
X1.14Y-7.275
X1.14Y-7.375
X1.14Y-7.625
X1.14Y-7.8
X1.14Y-7.975
X1.14Y-8.075
X1.14Y-8.325
X1.15Y-2.2
X1.15Y-3.5
X1.1621Y-2.8463
X1.165Y-4.725
X1.165Y-5.425
X1.165Y-6.125
X1.165Y-7.525
X1.165Y-8.225
X1.1687Y-6.8139
X1.1727Y-3.9
X1.1747Y-2.5965
X1.1747Y-3.0035
X1.175Y-1.7
X1.175Y-2.375
X1.175Y-2.475
X1.175Y-3.5
X1.1764Y-2.731
X1.1845Y-1.653
X1.1875Y-3.3375
X1.2Y-2.8125
X1.2Y-3.025
X1.2Y-5.075
X1.2125Y-2.975
X1.2125Y-9.075
X1.215Y-4.575
X1.215Y-5.2455
X1.215Y-5.275
X1.215Y-5.9455
X1.215Y-5.975
X1.215Y-6.45
X1.215Y-6.6455
X1.215Y-6.675
X1.215Y-7.15
X1.215Y-7.3455
X1.215Y-7.375
X1.215Y-7.85
X1.215Y-8.0455
X1.215Y-8.075
X1.2247Y-2.6535
X1.225Y-1.2
X1.225Y-1.3715
X1.225Y-1.8965
X1.225Y-1.975
X1.225Y-2.2486
X1.225Y-3.5285
X1.2256Y-1.5465
X1.2375Y-3.875
X1.2375Y-3.9875
X1.2375Y-4.2125
X1.2375Y-4.35
X1.2375Y-4.55
X1.2375Y-5.75
X1.2375Y-8.4375
X1.25Y-1.025
X1.25Y-3.625
X1.2618Y-4.1639
X1.2625Y-5.1375
X1.275Y-1.3
X1.275Y-2.3035
X1.275Y-2.775
X1.275Y-3.6
X1.275Y-3.775
X1.275Y-4.1375
X1.2753Y-3.1785
X1.2759Y-1.4295
X1.284Y-2.4215
X1.2875Y-8.4625
X1.2917Y-2.4833
X1.3Y-1.15
X1.3Y-1.4
X1.3Y-1.575
X1.3Y-1.675
X1.3Y-1.85
X1.3Y-1.925
X1.3Y-2.275
X1.3Y-2.975
X1.3Y-3.325
X1.3Y-3.4986
X1.3Y-3.5285
X1.3Y-3.675
X1.3Y-3.85
X1.3108Y-3.9542
X1.311Y-4.1285
X1.3125Y-4.7375
X1.315Y-4.3
X1.315Y-4.65
X1.315Y-4.825
X1.315Y-5.0
X1.315Y-5.25
X1.315Y-5.35
X1.315Y-5.525
X1.315Y-5.7
X1.315Y-5.95
X1.315Y-6.05
X1.315Y-6.225
X1.315Y-6.4
X1.315Y-6.65
X1.315Y-6.75
X1.315Y-6.925
X1.315Y-7.1
X1.315Y-7.35
X1.315Y-7.45
X1.315Y-7.625
X1.315Y-7.8
X1.315Y-8.05
X1.315Y-8.15
X1.315Y-8.325
X1.3169Y-3.1487
X1.325Y-2.125
X1.3375Y-2.7
X1.34Y-3.95
X1.34Y-5.45
X1.34Y-6.85
X1.34Y-7.55
X1.34Y-8.25
X1.3418Y-5.0982
X1.3418Y-5.7982
X1.3418Y-6.4982
X1.3418Y-7.1982
X1.3418Y-7.8982
X1.3485Y-1.7162
X1.3499Y-4.4283
X1.35Y-0.525
X1.35Y-2.075
X1.35Y-3.225
X1.35Y-3.3968
X1.35Y-3.4264
X1.35Y-3.475
X1.3508Y-4.0823
X1.3625Y-4.5125
X1.375Y-6.15
X1.3889Y-3.675
X1.39Y-3.9
X1.39Y-4.025
X1.39Y-4.575
X1.39Y-5.275
X1.39Y-5.575
X1.39Y-5.975
X1.39Y-6.275
X1.39Y-6.45
X1.39Y-6.625
X1.39Y-6.675
X1.39Y-6.975
X1.39Y-7.15
X1.39Y-7.325
X1.39Y-7.375
X1.39Y-7.675
X1.39Y-7.85
X1.39Y-8.025
X1.39Y-8.075
X1.39Y-8.375
X1.4Y-1.2
X1.4Y-1.3715
X1.4Y-1.8965
X1.4Y-2.2486
X1.4Y-3.8125
X1.4Y-5.2375
X1.4006Y-1.5465
X1.4125Y-4.35
X1.4125Y-4.525
X1.4125Y-4.9
X1.4125Y-5.075
X1.4125Y-5.75
X1.4125Y-5.925
X1.425Y-1.975
X1.425Y-2.825
X1.4257Y-5.1014
X1.4315Y-5.1375
X1.4492Y-2.225
X1.4492Y-2.525
X1.4492Y-3.225
X1.45Y-1.25
X1.45Y-2.3035
X1.45Y-2.8
X1.45Y-8.7375
X1.45Y-9.55
X1.45Y-9.925
X1.45Y-10.3
X1.4506Y-1.6035
X1.4663Y-3.6832
X1.475Y-1.225
X1.475Y-1.4
X1.475Y-1.5
X1.475Y-1.575
X1.475Y-1.925
X1.475Y-2.275
X1.475Y-2.625
X1.475Y-2.975
X1.475Y-3.075
X1.475Y-3.25
X1.475Y-3.875
X1.4792Y-3.8458
X1.4809Y-3.4986
X1.4846Y-6.8361
X1.487Y-4.5498
X1.487Y-5.2498
X1.487Y-5.9498
X1.487Y-6.6498
X1.487Y-7.3498
X1.487Y-8.0498
X1.4875Y-4.2
X1.4898Y-4.6502
X1.4898Y-5.3502
X1.4898Y-6.0502
X1.4898Y-7.4502
X1.4898Y-8.1502
X1.49Y-4.05
X1.49Y-4.3
X1.49Y-4.725
X1.49Y-4.825
X1.49Y-5.0
X1.49Y-5.425
X1.49Y-5.525
X1.49Y-5.7
X1.49Y-6.125
X1.49Y-6.225
X1.49Y-6.4
X1.49Y-6.925
X1.49Y-7.1
X1.49Y-7.525
X1.49Y-7.625
X1.49Y-7.8
X1.49Y-8.225
X1.49Y-8.325
X1.4929Y-6.7529
X1.5Y-1.675
X1.5Y-2.025
X1.5Y-2.375
X1.5Y-2.725
X1.5164Y-4.5516
X1.5164Y-5.2516
X1.5164Y-5.9516
X1.5164Y-6.6516
X1.5164Y-7.3516
X1.5164Y-8.0516
X1.5202Y-2.3035
X1.522Y-4.68
X1.522Y-5.38
X1.522Y-6.08
X1.522Y-6.78
X1.522Y-7.48
X1.522Y-8.18
X1.525Y-0.55
X1.525Y-0.6
X1.525Y-0.65
X1.525Y-2.775
X1.525Y-3.1215
X1.525Y-3.425
X1.525Y-3.8625
X1.55Y-1.025
X1.565Y-4.1712
X1.565Y-4.725
X1.565Y-4.875
X1.565Y-5.425
X1.565Y-5.575
X1.565Y-6.275
X1.565Y-6.45
X1.565Y-6.8361
X1.565Y-6.975
X1.565Y-7.15
X1.565Y-7.525
X1.565Y-7.675
X1.565Y-7.85
X1.565Y-8.225
X1.565Y-8.375
X1.5679Y-1.7162
X1.5692Y-4.5792
X1.5692Y-5.2792
X1.5692Y-5.9792
X1.5692Y-6.6792
X1.5692Y-7.3792
X1.5692Y-8.0792
X1.5701Y-2.2535
X1.5747Y-2.4215
X1.575Y-0.525
X1.575Y-1.2
X1.575Y-1.3715
X1.575Y-1.8965
X1.575Y-2.075
X1.575Y-2.5965
X1.575Y-3.65
X1.575Y-4.0
X1.575Y-5.075
X1.5751Y-3.8175
X1.5753Y-2.9465
X1.5756Y-1.5465
X1.5779Y-6.1087
X1.5811Y-0.5762
X1.5875Y-2.6728
X1.5875Y-4.35
X1.6Y-0.6715
X1.6Y-1.4285
X1.6Y-3.225
X1.6Y-3.475
X1.6Y-3.875
X1.6Y-5.75
X1.6008Y-2.9
X1.6125Y-4.3875
X1.6242Y-1.7002
X1.6242Y-2.675
X1.6242Y-3.55
X1.625Y-0.425
X1.6375Y-1.775
X1.64Y-4.3
X1.64Y-5.0
X1.64Y-5.7
X1.64Y-6.4
X1.64Y-7.1
X1.64Y-7.8
X1.6486Y-1.3993
X1.6492Y-3.8455
X1.65Y-0.875
X1.65Y-0.975
X1.65Y-1.15
X1.65Y-1.575
X1.65Y-1.925
X1.65Y-2.1
X1.65Y-2.45
X1.65Y-2.55
X1.65Y-2.625
X1.65Y-2.725
X1.65Y-2.8
X1.65Y-2.975
X1.65Y-3.15
X1.65Y-3.325
X1.65Y-3.425
X1.65Y-3.5
X1.65Y-3.6
X1.653Y-2.2779
X1.6555Y-3.678
X1.6648Y-4.4752
X1.6648Y-5.1752
X1.6648Y-5.8752
X1.6648Y-6.5752
X1.6648Y-7.2752
X1.6648Y-7.9752
X1.665Y-3.95
X1.665Y-4.125
X1.665Y-4.375
X1.665Y-4.575
X1.665Y-4.65
X1.665Y-4.725
X1.665Y-4.9
X1.665Y-5.075
X1.665Y-5.275
X1.665Y-5.35
X1.665Y-5.425
X1.665Y-5.6
X1.665Y-5.775
X1.665Y-5.975
X1.665Y-6.05
X1.665Y-6.3
X1.665Y-6.475
X1.665Y-6.675
X1.665Y-6.75
X1.665Y-6.8361
X1.665Y-7.0
X1.665Y-7.175
X1.665Y-7.375
X1.665Y-7.45
X1.665Y-7.525
X1.665Y-7.7
X1.665Y-7.875
X1.665Y-8.075
X1.665Y-8.15
X1.665Y-8.225
X1.665Y-8.4
X1.6667Y-4.1889
X1.672Y-4.2917
X1.672Y-4.9917
X1.672Y-5.6917
X1.672Y-6.3917
X1.672Y-7.0917
X1.672Y-7.7917
X1.675Y-0.525
X1.675Y-1.4125
X1.675Y-2.2
X1.675Y-3.075
X1.6802Y-6.1218
X1.6875Y-1.7625
X1.7Y-1.05
X1.7Y-1.625
X1.7Y-1.675
X1.7Y-2.0
X1.7Y-2.125
X1.7Y-2.375
X1.7Y-3.05
X1.7Y-3.8
X1.7Y-8.75
X1.725Y-0.4965
X1.725Y-4.2125
X1.7375Y-8.55
X1.74Y-6.4535
X1.74Y-6.625
X1.74Y-7.1535
X1.74Y-7.325
X1.74Y-7.8535
X1.74Y-8.025
X1.7442Y-4.5542
X1.7442Y-5.2542
X1.7442Y-5.9542
X1.7442Y-6.6542
X1.7442Y-7.3542
X1.7442Y-8.0542
X1.7442Y-2.7654
X1.75Y-2.5959
X1.75Y-1.2
X1.75Y-1.3715
X1.75Y-1.8965
X1.75Y-2.2465
X1.75Y-3.5285
X1.75Y-4.525
X1.75Y-5.0625
X1.75Y-5.225
X1.75Y-5.8
X1.75Y-5.925
X1.7503Y-3.1215
X1.7506Y-2.9465
X1.7506Y-1.5465
X1.7625Y-4.35
X1.7625Y-5.75
X1.7638Y-3.6332
X1.7717Y-2.6708
X1.7728Y-3.5853
X1.775Y-0.425
X1.775Y-0.7
X1.775Y-2.3035
X1.775Y-2.875
X1.775Y-8.425
X1.7753Y-1.7258
X1.7758Y-3.2587
X1.7845Y-2.8059
X1.7933Y-5.8271
X1.7967Y-2.7139
X1.7986Y-2.125
X1.7986Y-3.775
X1.7986Y-4.1942
X1.7992Y-3.7407
X1.7992Y-1.625
X1.8Y-1.275
X1.8Y-1.4285
X1.815Y-4.3
X1.815Y-5.0
X1.815Y-5.7
X1.815Y-6.4
X1.815Y-7.1
X1.815Y-7.8
X1.8193Y-3.3291
X1.8236Y-0.8743
X1.825Y-0.525
X1.825Y-0.7
X1.825Y-1.05
X1.825Y-1.225
X1.825Y-1.4
X1.825Y-1.575
X1.825Y-1.85
X1.825Y-1.925
X1.825Y-2.275
X1.825Y-2.45
X1.825Y-2.975
X1.825Y-3.5
X1.825Y-3.85
X1.8279Y-2.6212
X1.8287Y-3.6763
X1.8375Y-2.025
X1.8398Y-4.6502
X1.8398Y-5.3502
X1.8398Y-6.0502
X1.8398Y-6.7502
X1.8398Y-7.4502
X1.8398Y-8.1502
X1.84Y-3.8764
X1.84Y-4.125
X1.84Y-4.375
X1.84Y-4.55
X1.84Y-4.8285
X1.84Y-5.075
X1.84Y-5.25
X1.84Y-5.5285
X1.84Y-5.775
X1.84Y-5.95
X1.84Y-6.475
X1.84Y-6.65
X1.84Y-6.9285
X1.84Y-7.175
X1.84Y-7.35
X1.84Y-7.6285
X1.84Y-7.875
X1.84Y-8.05
X1.84Y-8.3285
X1.8401Y-4.0486
X1.847Y-4.2917
X1.847Y-4.9917
X1.847Y-5.6917
X1.847Y-6.3917
X1.847Y-7.0917
X1.847Y-7.7917
X1.8491Y-6.2439
X1.8499Y-1.6035
X1.85Y-0.8875
X1.85Y-2.375
X1.85Y-3.075
X1.85Y-3.5285
X1.8631Y-3.6029
X1.8661Y-4.7489
X1.8661Y-5.4489
X1.8661Y-6.1489
X1.8661Y-6.8489
X1.8661Y-7.5489
X1.8661Y-8.2489
X1.8747Y-1.7253
X1.8747Y-3.1215
X1.875Y-0.8
X1.875Y-0.975
X1.875Y-2.075
X1.875Y-2.125
X1.875Y-3.775
X1.875Y-8.4663
X1.875Y-9.55
X1.875Y-9.925
X1.875Y-10.3
X1.8753Y-2.7611
X1.8865Y-3.3913
X1.9045Y-2.125
X1.9125Y-10.2125
X1.914Y-8.3976
X1.915Y-4.4
X1.915Y-4.55
X1.915Y-4.9
X1.915Y-5.1
X1.915Y-5.25
X1.915Y-5.6
X1.915Y-5.8
X1.915Y-5.95
X1.915Y-6.3
X1.915Y-6.5
X1.915Y-6.65
X1.915Y-7.0
X1.915Y-7.2
X1.915Y-7.35
X1.915Y-7.7
X1.915Y-7.9
X1.915Y-8.05
X1.925Y-0.6715
X1.925Y-1.2
X1.925Y-1.25
X1.925Y-1.3715
X1.925Y-1.8965
X1.925Y-4.0
X1.925Y-8.425
X1.9253Y-2.9465
X1.9255Y-2.5936
X1.9256Y-1.5465
X1.93Y-3.3139
X1.9336Y-3.4878
X1.9351Y-2.8463
X1.9375Y-4.175
X1.9389Y-4.375
X1.9458Y-1.7042
X1.95Y-0.9035
X1.95Y-3.05
X1.9508Y-1.325
X1.9542Y-1.7708
X1.9625Y-5.775
X1.9625Y-5.825
X1.9625Y-6.3125
X1.9625Y-7.9
X1.9701Y-2.6962
X1.9705Y-3.3943
X1.9742Y-2.4
X1.975Y-0.45
X1.975Y-1.0785
X1.975Y-8.6625
X1.978Y-4.2029
X1.9792Y-1.6708
X1.9831Y-2.8285
X1.9875Y-5.0
X1.9949Y-2.611
X2.0Y-0.525
X2.0Y-0.8
X2.0Y-1.05
X2.0Y-1.4
X2.0Y-1.575
X2.0Y-2.275
X2.0Y-2.45
X2.0Y-2.8
X2.0Y-2.975
X2.0Y-3.15
X2.0Y-3.85
X2.003Y-3.6008
X2.0037Y-1.925
X2.0037Y-3.5163
X2.0125Y-0.9
X2.0146Y-3.3264
X2.015Y-3.95
X2.015Y-4.05
X2.015Y-4.1285
X2.015Y-4.3
X2.015Y-4.475
X2.015Y-4.575
X2.015Y-4.65
X2.015Y-4.825
X2.015Y-5.175
X2.015Y-5.275
X2.015Y-5.35
X2.015Y-5.525
X2.015Y-5.7
X2.015Y-5.875
X2.015Y-5.975
X2.015Y-6.05
X2.015Y-6.225
X2.015Y-6.4
X2.015Y-6.575
X2.015Y-6.675
X2.015Y-6.75
X2.015Y-6.925
X2.015Y-7.1
X2.015Y-7.375
X2.015Y-7.45
X2.015Y-7.625
X2.015Y-7.8
X2.015Y-7.975
X2.015Y-8.075
X2.015Y-8.15
X2.015Y-8.325
X2.0236Y-1.7493
X2.025Y-1.25
X2.025Y-1.5
X2.025Y-2.025
X2.025Y-3.075
X2.047Y-4.35
X2.047Y-6.45
X2.047Y-7.15
X2.047Y-7.85
X2.0497Y-2.4785
X2.05Y-0.6715
X2.05Y-1.0535
X2.05Y-1.7625
X2.05Y-2.175
X2.05Y-3.2125
X2.05Y-3.4205
X2.05Y-3.45
X2.05Y-3.7375
X2.05Y-3.7843
X2.05Y-3.925
X2.05Y-5.025
X2.05Y-5.725
X2.05Y-7.2875
X2.0571Y-0.961
X2.0875Y-2.125
X2.0875Y-8.9875
X2.0889Y-4.4
X2.0893Y-5.9547
X2.09Y-4.0087
X2.09Y-4.225
X2.09Y-4.5545
X2.09Y-5.1
X2.09Y-5.2545
X2.09Y-5.8
X2.09Y-6.5
X2.09Y-6.625
X2.09Y-6.6545
X2.09Y-7.2
X2.09Y-7.325
X2.09Y-7.3545
X2.09Y-7.9
X2.09Y-8.025
X2.09Y-8.0545
X2.0952Y-3.1114
X2.0963Y-2.5936
X2.0963Y-2.7736
X2.1Y-1.2
X2.1Y-1.3715
X2.1Y-1.8965
X2.1Y-2.075
X2.1Y-2.9465
X2.1Y-4.525
X2.1Y-5.225
X2.1003Y-1.7245
X2.1006Y-0.4965
X2.1006Y-1.5465
X2.1014Y-4.8824
X2.1014Y-5.5824
X2.1014Y-6.2824
X2.1014Y-6.9824
X2.1016Y-3.0406
X2.1027Y-3.2896
X2.1125Y-5.925
X2.1139Y-7.675
X2.1139Y-8.375
X2.125Y-1.25
X2.125Y-3.3625
X2.1256Y-0.5535
X2.1258Y-1.85
X2.1258Y-2.025
X2.1278Y-3.2663
X2.1375Y-2.1125
X2.1375Y-9.0
X2.1391Y-3.3365
X2.1446Y-2.7038
X2.1486Y-4.4058
X2.1492Y-2.4
X2.15Y-0.9035
X2.15Y-1.65
X2.15Y-1.6795
X2.15Y-1.7875
X2.15Y-4.3
X2.161Y-3.1558
X2.165Y-7.35
X2.165Y-8.05
X2.1663Y-4.5502
X2.1663Y-5.2502
X2.1663Y-6.6502
X2.1692Y-2.7216
X2.1743Y-3.4216
X2.1748Y-5.9546
X2.175Y-0.525
X2.175Y-0.7
X2.175Y-0.875
X2.175Y-0.975
X2.175Y-1.05
X2.175Y-1.225
X2.175Y-1.4
X2.175Y-1.575
X2.175Y-1.925
X2.175Y-2.275
X2.175Y-2.6212
X2.175Y-3.775
X2.175Y-3.85
X2.175Y-5.625
X2.175Y-8.5875
X2.1753Y-3.5163
X2.1759Y-3.3174
X2.1787Y-2.9742
X2.1844Y-3.6913
X2.1855Y-4.1293
X2.1859Y-3.954
X2.1898Y-7.8002
X2.19Y-4.225
X2.19Y-4.4
X2.19Y-4.65
X2.19Y-4.9
X2.19Y-5.0
X2.19Y-5.1
X2.19Y-5.35
X2.19Y-5.7
X2.19Y-5.8
X2.19Y-6.05
X2.19Y-6.3
X2.19Y-6.4
X2.19Y-6.5
X2.19Y-6.75
X2.19Y-7.1
X2.19Y-7.2
X2.19Y-7.45
X2.19Y-7.7
X2.19Y-7.9
X2.19Y-8.15
X2.19Y-8.4
X2.1902Y-5.5997
X2.1904Y-6.9956
X2.1941Y-7.3553
X2.1941Y-8.0553
X2.1954Y-4.5555
X2.1954Y-5.2555
X2.1954Y-6.6555
X2.2Y-2.025
X2.2Y-3.075
X2.2043Y-5.9559
X2.2102Y-1.5
X2.2125Y-7.725
X2.2139Y-1.3936
X2.2139Y-1.7127
X2.2151Y-3.9499
X2.2247Y-2.4215
X2.225Y-0.5875
X2.225Y-0.775
X2.225Y-0.975
X2.225Y-1.25
X2.225Y-1.8125
X2.225Y-2.0712
X2.225Y-2.7715
X2.225Y-3.1625
X2.2298Y-3.3867
X2.2375Y-4.0875
X2.265Y-6.45
X2.265Y-7.15
X2.265Y-7.85
X2.2653Y-3.5267
X2.2658Y-4.5789
X2.2658Y-5.2789
X2.2658Y-5.9789
X2.2658Y-6.6789
X2.2658Y-7.3789
X2.2658Y-8.0789
X2.2671Y-4.0361
X2.2736Y-3.0257
X2.275Y-0.6715
X2.275Y-1.8965
X2.275Y-2.2465
X2.275Y-3.1094
X2.2753Y-2.9465
X2.2756Y-0.4965
X2.2756Y-1.5465
X2.2777Y-2.5877
X2.2788Y-1.372
X2.2875Y-3.9125
X2.2875Y-4.3625
X2.2875Y-5.0375
X2.2875Y-5.75
X2.3Y-0.425
X2.3Y-1.65
X2.3Y-3.05
X2.3Y-9.55
X2.3Y-9.925
X2.3Y-10.3
X2.3008Y-1.8375
X2.3008Y-3.6
X2.3014Y-3.2621
X2.3067Y-1.7837
X2.3125Y-2.125
X2.3125Y-3.525
X2.3125Y-5.0875
X2.3125Y-8.375
X2.3176Y-1.4016
X2.3241Y-1.8965
X2.325Y-4.225
X2.325Y-6.3625
X2.3266Y-3.551
X2.327Y-2.726
X2.3291Y-2.6677
X2.3375Y-3.875
X2.3468Y-5.0051
X2.3486Y-3.3297
X2.3486Y-3.5014
X2.35Y-0.525
X2.35Y-0.7
X2.35Y-0.8
X2.35Y-1.05
X2.35Y-1.15
X2.35Y-1.4
X2.35Y-1.575
X2.35Y-1.925
X2.35Y-2.125
X2.35Y-2.275
X2.35Y-2.8
X2.35Y-2.975
X2.35Y-3.15
X2.35Y-3.6913
X2.35Y-5.25
X2.35Y-8.7125
X2.3501Y-3.8483
X2.351Y-2.6229
X2.3625Y-9.825
X2.3649Y-4.9249
X2.3649Y-5.6249
X2.3649Y-7.0249
X2.365Y-4.2
X2.365Y-4.3
X2.365Y-4.65
X2.365Y-5.35
X2.365Y-5.7
X2.365Y-6.05
X2.365Y-6.325
X2.365Y-6.4
X2.365Y-6.75
X2.365Y-7.1
X2.365Y-7.45
X2.365Y-7.8
X2.365Y-8.15
X2.365Y-8.425
X2.3654Y-4.0486
X2.3682Y-7.7276
X2.3703Y-5.9469
X2.3703Y-6.6469
X2.3703Y-7.3469
X2.3703Y-8.0469
X2.375Y-2.025
X2.375Y-2.375
X2.375Y-4.5625
X2.3909Y-4.7509
X2.3909Y-5.4509
X2.3909Y-6.8509
X2.3909Y-7.5509
X2.3909Y-8.2509
X2.3911Y-2.9785
X2.3956Y-6.1861
X2.397Y-2.5
X2.3982Y-3.0936
X2.4Y-0.425
X2.4Y-0.975
X2.4Y-1.65
X2.4Y-1.6985
X2.4Y-3.5663
X2.4Y-3.775
X2.4Y-3.85
X2.4Y-8.6125
X2.4012Y-3.2137
X2.4125Y-10.15
X2.419Y-0.5215
X2.4375Y-4.375
X2.4375Y-5.075
X2.4396Y-4.5771
X2.4396Y-5.2771
X2.4397Y-6.6087
X2.4397Y-7.3087
X2.4397Y-8.0087
X2.44Y-4.0
X2.44Y-4.9
X2.44Y-5.6
X2.44Y-5.9775
X2.44Y-6.3
X2.44Y-6.45
X2.44Y-6.675
X2.44Y-7.0
X2.44Y-7.15
X2.44Y-7.375
X2.44Y-7.6837
X2.44Y-7.85
X2.44Y-8.075
X2.44Y-8.4
X2.4497Y-2.4215
X2.45Y-0.725
X2.45Y-1.2
X2.45Y-1.3715
X2.45Y-1.8965
X2.45Y-2.075
X2.45Y-2.2465
X2.45Y-2.5965
X2.45Y-3.3875
X2.45Y-3.5375
X2.45Y-5.9125
X2.45Y-9.5375
X2.4503Y-2.7715
X2.4506Y-3.2773
X2.4506Y-1.5465
X2.4517Y-2.9431
X2.4521Y-3.1113
X2.4542Y-1.7292
X2.4625Y-4.175
X2.4625Y-4.5125
X2.4625Y-5.2125
X2.4625Y-5.75
X2.4625Y-7.2
X2.4639Y-3.6462
X2.475Y-0.925
X2.475Y-5.7875
X2.475Y-8.675
X2.475Y-10.1375
X2.475Y-2.925
X2.4764Y-3.025
X2.4786Y-1.4518
X2.4875Y-5.65
X2.4875Y-7.0125
X2.4935Y-3.4254
X2.496Y-1.8088
X2.4999Y-3.2243
X2.5Y-1.5
X2.5Y-1.9535
X2.5Y-2.325
X2.5031Y-3.2536
X2.515Y-4.575
X2.515Y-5.275
X2.515Y-5.975
X2.515Y-6.675
X2.515Y-7.375
X2.515Y-8.075
X2.5201Y-2.9714
X2.525Y-0.5285
X2.525Y-0.625
X2.525Y-0.7
X2.525Y-0.875
X2.525Y-1.05
X2.525Y-1.225
X2.525Y-1.4
X2.525Y-1.575
X2.525Y-1.675
X2.525Y-1.75
X2.525Y-1.85
X2.525Y-1.925
X2.525Y-2.1
X2.525Y-2.275
X2.525Y-2.45
X2.525Y-2.625
X2.525Y-3.5212
X2.525Y-3.6085
X2.525Y-9.6
X2.525Y-9.6875
X2.525Y-10.3
X2.5257Y-9.9743
X2.526Y-9.224
X2.5264Y-9.0861
X2.5292Y-3.8458
X2.5375Y-8.55
X2.5375Y-9.025
X2.54Y-3.95
X2.54Y-4.125
X2.54Y-4.2
X2.54Y-4.3
X2.54Y-4.65
X2.54Y-4.825
X2.54Y-5.0
X2.54Y-5.175
X2.54Y-5.35
X2.54Y-5.525
X2.54Y-5.7
X2.54Y-5.875
X2.54Y-6.05
X2.54Y-6.225
X2.54Y-6.4
X2.54Y-6.575
X2.54Y-6.75
X2.54Y-6.925
X2.54Y-7.1
X2.54Y-7.275
X2.54Y-7.45
X2.54Y-7.625
X2.54Y-7.8
X2.54Y-7.975
X2.54Y-8.15
X2.54Y-8.325
X2.5407Y-4.4752
X2.55Y-1.325
X2.55Y-1.5
X2.5551Y-4.5468
X2.5551Y-6.6468
X2.5551Y-7.3468
X2.5551Y-8.0468
X2.5625Y-8.4
X2.5693Y-3.2948
X2.5695Y-1.678
X2.572Y-3.101
X2.5737Y-3.0361
X2.575Y-0.975
X2.575Y-2.7715
X2.575Y-3.625
X2.575Y-3.775
X2.575Y-5.2125
X2.575Y-5.9625
X2.575Y-9.6
X2.575Y-3.4413
X2.5798Y-1.4614
X2.5808Y-2.0176
X2.6Y-3.15
X2.6075Y-2.3567
X2.6125Y-8.55
X2.615Y-4.575
X2.615Y-4.925
X2.615Y-5.275
X2.615Y-5.625
X2.615Y-6.325
X2.615Y-6.45
X2.615Y-6.625
X2.615Y-6.675
X2.615Y-7.0361
X2.615Y-7.15
X2.615Y-7.325
X2.615Y-7.375
X2.615Y-7.7309
X2.615Y-7.85
X2.615Y-8.025
X2.615Y-8.075
X2.615Y-8.425
X2.6153Y-2.8237
X2.6212Y-2.5959
X2.622Y-5.9772
X2.625Y-1.2
X2.625Y-1.3715
X2.625Y-1.8965
X2.625Y-2.2465
X2.625Y-2.4125
X2.625Y-5.9125
X2.6256Y-1.5465
X2.6374Y-2.9946
X2.6375Y-2.9375
X2.6375Y-4.2375
X2.6375Y-4.35
X2.6375Y-5.0625
X2.6375Y-5.225
X2.6375Y-5.75
X2.6375Y-8.7625
X2.65Y-0.95
X2.65Y-1.25
X2.65Y-3.375
X2.65Y-4.525
X2.65Y-8.025
X2.65Y-9.425
X2.6508Y-4.475
X2.6508Y-5.175
X2.6508Y-5.8624
X2.6508Y-6.575
X2.6508Y-7.2771
X2.6508Y-7.975
X2.6567Y-3.2583
X2.6625Y-2.125
X2.6625Y-3.1757
X2.6625Y-7.8875
X2.6723Y-1.8269
X2.674Y-4.2057
X2.6741Y-3.2045
X2.6741Y-1.7963
X2.6742Y-1.3
X2.6742Y-1.475
X2.6742Y-3.65
X2.675Y-0.5
X2.675Y-2.025
X2.675Y-2.8125
X2.675Y-4.4
X2.675Y-5.975
X2.675Y-6.3625
X2.675Y-7.3625
X2.675Y-8.0625
X2.675Y-8.7389
X2.6751Y-1.2705
X2.6751Y-1.3295
X2.6875Y-4.5625
X2.6875Y-4.95
X2.6889Y-2.7139
X2.6923Y-2.4838
X2.6958Y-3.3292
X2.6967Y-0.7014
X2.6973Y-3.5216
X2.6997Y-1.7785
X2.7Y-1.05
X2.7Y-1.15
X2.7Y-1.4
X2.7Y-1.575
X2.7Y-2.275
X2.7Y-2.625
X2.7Y-2.7889
X2.7Y-2.975
X2.7Y-3.15
X2.7Y-3.425
X2.7Y-3.675
X2.7Y-3.775
X2.7Y-3.85
X2.7Y-4.3
X2.7Y-5.0
X2.7Y-5.7125
X2.7Y-6.4
X2.7Y-7.1
X2.7Y-7.8
X2.7Y-8.1125
X2.7Y-8.55
X2.7Y-9.9625
X2.7Y-10.1375
X2.7029Y-4.1994
X2.7088Y-1.925
X2.7125Y-2.375
X2.7125Y-3.95
X2.7125Y-4.125
X2.7125Y-7.7
X2.7125Y-8.675
X2.7125Y-8.7625
X2.7125Y-9.025
X2.7125Y-9.1625
X2.7125Y-9.3625
X2.7125Y-9.5375
X2.7125Y-9.7875
X2.7237Y-3.003
X2.725Y-0.9035
X2.7301Y-4.2655
X2.7375Y-8.55
X2.7482Y-7.2317
X2.7497Y-1.7215
X2.7497Y-2.4215
X2.75Y-0.6
X2.75Y-0.6715
X2.75Y-0.975
X2.75Y-2.075
X2.75Y-2.875
X2.75Y-4.3625
X2.75Y-10.2604
X2.75Y-10.3303
X2.7526Y-3.5216
X2.7541Y-4.2484
X2.755Y-3.0409
X2.759Y-6.5398
X2.7659Y-8.0192
X2.775Y-3.3215
X2.775Y-6.125
X2.775Y-6.3125
X2.775Y-10.3303
X2.7837Y-6.5236
X2.7875Y-4.95
X2.7875Y-5.975
X2.796Y-3.532
X2.7961Y-2.7587
X2.7971Y-3.1215
X2.8Y-1.2
X2.8Y-1.3715
X2.8Y-1.8965
X2.8Y-2.2465
X2.8Y-3.8125
X2.8Y-4.175
X2.8Y-7.375
X2.8Y-8.45
X2.8Y-8.725
X2.8Y-8.9
X2.8Y-8.975
X2.8Y-9.325
X2.8Y-9.5
X2.8Y-9.55
X2.8Y-9.825
X2.8Y-10.0
X2.8Y-10.175
X2.8Y-10.3303
X2.8003Y-3.7035
X2.8003Y-2.5965
X2.8006Y-1.5465
X2.8006Y-2.9455
X2.8014Y-4.9125
X2.8014Y-7.6649
X2.8014Y-8.0583
X2.8014Y-4.2517
X2.8016Y-4.2045
X2.8111Y-5.0942
X2.8185Y-0.5035
X2.8208Y-3.0205
X2.8216Y-3.5082
X2.8218Y-3.1053
X2.825Y-1.65
X2.825Y-3.5375
X2.825Y-3.875
X2.825Y-4.3625
X2.825Y-4.4
X2.825Y-4.55
X2.825Y-6.125
X2.825Y-8.1125
X2.8284Y-0.411
X2.8326Y-7.3381
X2.8338Y-2.4929
X2.8375Y-2.3
X2.8375Y-2.8
X2.8433Y-2.521
X2.8465Y-2.3827
X2.8486Y-6.4567
X2.8492Y-1.275
X2.8492Y-1.525
X2.8492Y-1.625
X2.85Y-0.625
X2.85Y-2.125
X2.8502Y-3.3659
X2.8595Y-1.0785
X2.8633Y-3.1787
X2.8663Y-6.1771
X2.8708Y-3.6792
X2.8718Y-1.675
X2.8749Y-2.9673
X2.875Y-0.525
X2.875Y-0.7
X2.875Y-0.875
X2.875Y-1.225
X2.875Y-1.325
X2.875Y-1.4
X2.875Y-1.575
X2.875Y-1.925
X2.875Y-2.2639
X2.875Y-2.6215
X2.8764Y-3.3229
X2.8795Y-0.625
X2.8806Y-2.8989
X2.8875Y-3.875
X2.8875Y-4.575
X2.8875Y-4.9125
X2.8875Y-6.3125
X2.8875Y-6.8375
X2.8875Y-7.0125
X2.8878Y-1.0476
X2.89Y-3.6
X2.89Y-4.125
X2.89Y-4.3
X2.89Y-4.65
X2.89Y-4.825
X2.89Y-5.0
X2.89Y-5.25
X2.89Y-5.35
X2.89Y-5.525
X2.89Y-5.7
X2.89Y-5.95
X2.89Y-6.05
X2.89Y-6.225
X2.89Y-6.4
X2.89Y-6.65
X2.89Y-6.75
X2.89Y-6.925
X2.89Y-7.0951
X2.89Y-7.3451
X2.89Y-7.4451
X2.89Y-7.6201
X2.89Y-7.8
X2.89Y-8.15
X2.89Y-8.325
X2.8904Y-4.0486
X2.8904Y-4.5456
X2.8907Y-8.0498
X2.8933Y-4.2236
X2.9Y-5.6014
X2.9Y-7.7125
X2.9002Y-2.0232
X2.9014Y-1.675
X2.9045Y-1.325
X2.9058Y-2.3719
X2.9125Y-3.425
X2.9125Y-6.4875
X2.9125Y-7.1875
X2.925Y-0.675
X2.925Y-0.975
X2.925Y-1.625
X2.925Y-3.95
X2.925Y-10.3
X2.925Y-9.6861
X2.9253Y-9.0861
X2.9285Y-3.1465
X2.95Y-8.925
X2.95Y-9.525
X2.95Y-10.125
X2.965Y-4.575
X2.965Y-5.275
X2.965Y-5.975
X2.965Y-6.675
X2.965Y-7.3701
X2.965Y-8.075
X2.9708Y-3.6458
X2.9724Y-1.717
X2.9733Y-2.2363
X2.9747Y-1.7465
X2.9747Y-3.2965
X2.975Y-0.4965
X2.975Y-1.2
X2.975Y-1.3715
X2.975Y-1.8965
X2.975Y-2.075
X2.975Y-2.7736
X2.975Y-2.9449
X2.975Y-2.4247
X2.9756Y-1.5465
X2.9786Y-3.1202
X2.9869Y-3.366
X2.9875Y-4.175
X2.9896Y-4.55
X2.9896Y-5.25
X2.9896Y-5.95
X2.9896Y-6.65
X2.9896Y-7.3451
X2.9896Y-8.05
X2.9939Y-8.9311
X2.9939Y-9.5311
X2.9939Y-10.1311
X3.0Y-3.5
X3.0Y-3.8625
X3.0008Y-1.5
X3.0125Y-7.3125
X3.0231Y-2.6784
X3.0236Y-3.5667
X3.0248Y-0.9035
X3.025Y-1.325
X3.025Y-3.2375
X3.025Y-7.8875
X3.025Y-9.95
X3.0458Y-2.2639
X3.05Y-0.525
X3.05Y-0.7
X3.05Y-1.05
X3.05Y-1.15
X3.05Y-1.4
X3.05Y-1.925
X3.05Y-2.1
X3.05Y-2.4409
X3.05Y-2.9
X3.05Y-3.1465
X3.05Y-3.325
X3.05Y-3.675
X3.0502Y-2.9734
X3.0529Y-1.574
X3.0542Y-3.5208
X3.055Y-1.7486
X3.0625Y-0.9
X3.0648Y-4.6502
X3.0648Y-5.3502
X3.0648Y-6.0502
X3.0648Y-6.7502
X3.0648Y-7.4453
X3.0648Y-8.1502
X3.065Y-3.95
X3.065Y-4.05
X3.065Y-4.1285
X3.065Y-4.3
X3.065Y-4.475
X3.065Y-4.575
X3.065Y-4.825
X3.065Y-5.0
X3.065Y-5.175
X3.065Y-5.275
X3.065Y-5.525
X3.065Y-5.7
X3.065Y-5.875
X3.065Y-5.975
X3.065Y-6.225
X3.065Y-6.4
X3.065Y-6.575
X3.065Y-6.675
X3.065Y-6.925
X3.065Y-7.0951
X3.065Y-7.2701
X3.065Y-7.3701
X3.065Y-7.6201
X3.065Y-7.8
X3.065Y-7.975
X3.065Y-8.075
X3.065Y-8.325
X3.075Y-1.325
X3.075Y-3.425
X3.09Y-4.725
X3.09Y-5.425
X3.09Y-6.125
X3.09Y-6.825
X3.09Y-7.5201
X3.09Y-8.225
X3.0945Y-2.3783
X3.0971Y-2.5704
X3.0977Y-3.9038
X3.0994Y-9.686
X3.1Y-0.575
X3.1Y-0.625
X3.1Y-0.9742
X3.1Y-1.0215
X3.1Y-2.025
X3.1Y-3.1
X3.1Y-3.5125
X3.1Y-10.3
X3.1003Y-9.0861
X3.1024Y-2.3311
X3.1055Y-1.6663
X3.1065Y-2.6806
X3.115Y-1.975
X3.125Y-5.075
X3.125Y-8.925
X3.125Y-9.525
X3.125Y-10.125
X3.14Y-4.5455
X3.14Y-4.575
X3.14Y-5.2455
X3.14Y-5.275
X3.14Y-5.9455
X3.14Y-5.975
X3.14Y-6.45
X3.14Y-6.6455
X3.14Y-6.675
X3.14Y-7.1451
X3.14Y-7.3406
X3.14Y-7.3701
X3.14Y-7.85
X3.14Y-8.0455
X3.14Y-8.075
X3.1426Y-4.0163
X3.1454Y-3.2919
X3.1457Y-2.2363
X3.1481Y-2.7736
X3.1488Y-1.6234
X3.15Y-1.2
X3.15Y-1.375
X3.15Y-1.8965
X3.15Y-2.641
X3.15Y-2.9449
X3.15Y-3.125
X3.1506Y-1.5465
X3.1587Y-3.65
X3.1625Y-4.35
X3.1625Y-5.7625
X3.1627Y-2.8307
X3.1689Y-8.9189
X3.1689Y-9.5189
X3.1689Y-10.1189
X3.175Y-1.1035
X3.175Y-2.3485
X3.175Y-2.4535
X3.175Y-3.0
X3.175Y-4.0625
X3.1754Y-2.5236
X3.1756Y-0.5535
X3.1956Y-2.5885
X3.1991Y-3.1835
X3.1991Y-1.8965
X3.1992Y-1.0215
X3.1992Y-1.475
X3.2Y-1.775
X3.2Y-3.525
X3.2Y-8.8375
X3.204Y-1.0785
X3.2226Y-2.1311
X3.2231Y-3.3498
X3.225Y-0.7
X3.225Y-0.875
X3.225Y-0.975
X3.225Y-1.225
X3.225Y-1.575
X3.225Y-1.925
X3.225Y-2.2639
X3.225Y-2.45
X3.225Y-2.625
X3.2269Y-1.3221
X3.2271Y-1.4091
X3.2295Y-1.05
X3.2359Y-3.9496
X3.236Y-4.1285
X3.2367Y-3.1455
X3.2375Y-2.8125
X3.2375Y-2.9
X3.2375Y-2.975
X3.2375Y-3.175
X3.2375Y-4.05
X3.2375Y-6.3125
X3.24Y-3.425
X3.24Y-3.6
X3.24Y-3.7
X3.24Y-4.3
X3.24Y-4.55
X3.24Y-4.65
X3.24Y-4.825
X3.24Y-5.0
X3.24Y-5.25
X3.24Y-5.35
X3.24Y-5.525
X3.24Y-5.7
X3.24Y-5.95
X3.24Y-6.05
X3.24Y-6.225
X3.24Y-6.4
X3.24Y-6.65
X3.24Y-6.75
X3.24Y-6.925
X3.24Y-7.0951
X3.24Y-7.3451
X3.24Y-7.4451
X3.24Y-7.6201
X3.24Y-7.8
X3.24Y-8.05
X3.24Y-8.15
X3.24Y-8.325
X3.2433Y-3.8389
X3.25Y-3.3375
X3.2625Y-2.2875
X3.265Y-4.75
X3.265Y-5.45
X3.265Y-6.15
X3.265Y-6.85
X3.265Y-7.5451
X3.265Y-8.25
X3.2668Y-4.3982
X3.2668Y-5.0982
X3.2668Y-5.7982
X3.2668Y-6.4982
X3.2668Y-7.1933
X3.2668Y-7.8982
X3.2746Y-9.686
X3.2748Y-3.9319
X3.275Y-0.975
X3.275Y-1.6375
X3.275Y-1.9535
X3.275Y-2.675
X3.275Y-10.3
X3.2753Y-1.7477
X3.276Y-9.0847
X3.2762Y-2.0754
X3.2769Y-0.6317
X3.3Y-2.475
X3.3Y-8.925
X3.3Y-9.525
X3.3Y-10.125
X3.315Y-3.7
X3.315Y-4.025
X3.315Y-4.575
X3.315Y-4.875
X3.315Y-5.275
X3.315Y-5.975
X3.315Y-6.275
X3.315Y-6.45
X3.315Y-6.625
X3.315Y-6.675
X3.315Y-6.975
X3.315Y-7.1451
X3.315Y-7.3201
X3.315Y-7.3701
X3.315Y-7.6701
X3.315Y-7.85
X3.315Y-8.025
X3.315Y-8.075
X3.315Y-8.375
X3.325Y-1.2
X3.325Y-1.3913
X3.325Y-1.5478
X3.325Y-3.9125
X3.325Y-5.925
X3.3265Y-2.4881
X3.3288Y-3.3565
X3.3363Y-1.8965
X3.3375Y-3.65
X3.3375Y-4.35
X3.3375Y-5.2375
X3.3375Y-5.575
X3.34Y-1.25
X3.3439Y-8.9311
X3.3439Y-9.5311
X3.3439Y-10.1311
X3.35Y-1.5715
X3.35Y-2.4125
X3.35Y-3.175
X3.35Y-3.5
X3.35Y-4.0478
X3.35Y-4.525
X3.35Y-5.05
X3.35Y-5.75
X3.35Y-9.6575
X3.35Y-10.2715
X3.3585Y-9.0575
X3.3625Y-2.2
X3.3625Y-2.9
X3.3625Y-4.225
X3.3718Y-1.7588
X3.3736Y-2.2465
X3.3736Y-3.6
X3.375Y-5.95
X3.378Y-3.6779
X3.3967Y-2.2659
X3.3968Y-0.5215
X3.4Y-0.7
X3.4Y-1.05
X3.4Y-1.4091
X3.4Y-1.575
X3.4Y-1.925
X3.4Y-2.1
X3.4Y-2.45
X3.4106Y-1.2419
X3.412Y-4.5498
X3.412Y-5.2498
X3.412Y-6.6498
X3.412Y-7.3449
X3.412Y-8.0498
X3.4125Y-2.625
X3.4133Y-4.2163
X3.4148Y-4.6502
X3.4148Y-5.3502
X3.4148Y-6.0502
X3.4148Y-6.7502
X3.4148Y-7.4453
X3.4148Y-8.1502
X3.415Y-2.9
X3.415Y-3.325
X3.415Y-3.425
X3.415Y-3.5
X3.415Y-3.7
X3.415Y-4.0478
X3.415Y-4.3
X3.415Y-4.725
X3.415Y-4.825
X3.415Y-5.0
X3.415Y-5.425
X3.415Y-5.525
X3.415Y-5.7
X3.415Y-6.125
X3.415Y-6.225
X3.415Y-6.4
X3.415Y-6.825
X3.415Y-6.925
X3.415Y-7.0951
X3.415Y-7.5201
X3.415Y-7.6201
X3.415Y-7.8
X3.415Y-8.225
X3.415Y-8.325
X3.4156Y-3.8302
X3.425Y-1.4125
X3.425Y-1.775
X3.425Y-3.15
X3.4375Y-9.4
X3.4414Y-4.5516
X3.4414Y-5.2516
X3.4414Y-5.9516
X3.4414Y-6.6516
X3.4414Y-7.3466
X3.4414Y-8.0516
X3.4444Y-2.3764
X3.447Y-4.68
X3.447Y-5.38
X3.447Y-6.08
X3.447Y-6.7764
X3.447Y-7.475
X3.447Y-8.18
X3.45Y-0.65
X3.45Y-0.975
X3.45Y-1.4125
X3.45Y-2.225
X3.45Y-2.55
X3.45Y-3.875
X3.45Y-3.9625
X3.45Y-8.425
X3.4531Y-3.1094
X3.4541Y-1.6418
X3.4554Y-1.752
X3.4587Y-3.7464
X3.4625Y-1.225
X3.4648Y-2.4125
X3.475Y-2.675
X3.475Y-2.8125
X3.4875Y-1.225
X3.49Y-3.475
X3.49Y-3.7
X3.49Y-4.725
X3.49Y-4.875
X3.49Y-5.425
X3.49Y-6.125
X3.49Y-6.275
X3.49Y-6.45
X3.49Y-6.825
X3.49Y-6.975
X3.49Y-7.1451
X3.49Y-7.5201
X3.49Y-7.6701
X3.49Y-7.85
X3.49Y-8.225
X3.49Y-8.375
X3.4906Y-1.7528
X3.4942Y-4.5792
X3.4942Y-5.2792
X3.4942Y-5.9792
X3.4942Y-6.6792
X3.4942Y-7.3743
X3.4942Y-8.0792
X3.4955Y-2.4102
X3.5Y-0.525
X3.5Y-0.6715
X3.5Y-1.3913
X3.5Y-1.8965
X3.5Y-2.0712
X3.5Y-5.575
X3.5006Y-1.5465
X3.5007Y-1.1965
X3.5125Y-1.225
X3.5125Y-3.35
X3.5125Y-3.65
X3.5125Y-4.35
X3.5125Y-5.75
X3.5139Y-3.1252
X3.522Y-4.0269
X3.5244Y-9.086
X3.5244Y-9.686
X3.525Y-3.45
X3.525Y-4.1625
X3.525Y-5.05
X3.525Y-10.3
X3.5257Y-1.2535
X3.5258Y-1.8361
X3.5259Y-4.1051
X3.5264Y-3.25
X3.5334Y-4.0541
X3.5351Y-2.2976
X3.5375Y-2.5125
X3.5375Y-3.775
X3.5375Y-4.0
X3.5375Y-5.8
X3.5375Y-8.4125
X3.5492Y-1.7193
X3.55Y-1.15
X3.55Y-1.2955
X3.55Y-1.325
X3.55Y-1.9535
X3.55Y-2.6625
X3.55Y-2.7875
X3.55Y-8.925
X3.55Y-9.525
X3.55Y-10.125
X3.5503Y-1.7764
X3.5563Y-3.1799
X3.5605Y-2.4171
X3.5625Y-3.55
X3.565Y-4.3
X3.565Y-5.0
X3.565Y-5.7
X3.565Y-6.4
X3.565Y-7.0951
X3.565Y-7.8
X3.575Y-0.7
X3.575Y-0.875
X3.575Y-1.225
X3.575Y-1.5
X3.575Y-1.575
X3.575Y-1.925
X3.575Y-3.075
X3.5752Y-2.2018
X3.5783Y-2.2703
X3.5788Y-2.6158
X3.584Y-6.8299
X3.5875Y-4.225
X3.5898Y-4.4752
X3.5898Y-5.1752
X3.5898Y-5.8752
X3.5898Y-6.5752
X3.5898Y-7.2703
X3.5898Y-7.9752
X3.59Y-2.905
X3.59Y-3.325
X3.59Y-3.95
X3.59Y-4.125
X3.59Y-4.375
X3.59Y-4.575
X3.59Y-4.65
X3.59Y-4.725
X3.59Y-4.9
X3.59Y-5.075
X3.59Y-5.275
X3.59Y-5.35
X3.59Y-5.425
X3.59Y-5.775
X3.59Y-5.975
X3.59Y-6.05
X3.59Y-6.125
X3.59Y-6.3
X3.59Y-6.475
X3.59Y-6.675
X3.59Y-6.75
X3.59Y-7.0
X3.59Y-7.1701
X3.59Y-7.3701
X3.59Y-7.4451
X3.59Y-7.5201
X3.59Y-7.6951
X3.59Y-7.875
X3.59Y-8.075
X3.59Y-8.15
X3.59Y-8.225
X3.59Y-8.4
X3.5927Y-3.4198
X3.5939Y-8.9311
X3.5939Y-9.5311
X3.5939Y-10.1311
X3.597Y-4.2917
X3.597Y-4.9917
X3.597Y-5.6917
X3.597Y-6.3917
X3.597Y-7.0868
X3.597Y-7.7917
X3.6Y-0.975
X3.6Y-2.8125
X3.6Y-3.15
X3.6Y-3.5375
X3.6019Y-0.6279
X3.625Y-1.375
X3.625Y-1.7215
X3.625Y-1.9758
X3.625Y-2.05
X3.625Y-5.5625
X3.625Y-8.425
X3.625Y-9.358
X3.625Y-9.3875
X3.625Y-10.025
X3.6264Y-3.8591
X3.6479Y-3.3375
X3.665Y-6.4535
X3.665Y-6.625
X3.665Y-7.1486
X3.665Y-7.3201
X3.665Y-7.8535
X3.665Y-8.025
X3.6692Y-4.5542
X3.6692Y-5.2542
X3.6692Y-5.9542
X3.6692Y-6.6542
X3.6692Y-7.3493
X3.6692Y-8.0542
X3.6746Y-3.1413
X3.6749Y-2.9513
X3.675Y-0.6715
X3.675Y-0.8451
X3.675Y-2.2465
X3.675Y-2.625
X3.675Y-4.2
X3.675Y-4.525
X3.675Y-5.225
X3.6756Y-0.4961
X3.6756Y-1.1965
X3.6756Y-1.5465
X3.6875Y-4.3625
X3.6875Y-5.05
X3.6875Y-5.75
X3.6875Y-5.925
X3.6944Y-3.5139
X3.7Y-1.975
X3.7Y-3.975
X3.7Y-4.025
X3.7006Y-1.2765
X3.7008Y-5.8097
X3.7117Y-2.958
X3.7119Y-9.086
X3.7125Y-0.9125
X3.7125Y-2.9875
X3.7125Y-10.3
X3.7128Y-9.6861
X3.7129Y-3.3486
X3.715Y-1.85
X3.7174Y-7.1951
X3.7236Y-4.1625
X3.7242Y-1.525
X3.7242Y-2.4
X3.725Y-0.625
X3.725Y-2.1
X3.725Y-5.425
X3.7375Y-8.925
X3.7375Y-9.525
X3.7375Y-10.125
X3.74Y-4.3038
X3.74Y-5.0
X3.74Y-6.4
X3.74Y-7.0951
X3.74Y-7.8
X3.7424Y-2.8195
X3.7486Y-5.7
X3.75Y-0.5246
X3.75Y-0.7
X3.75Y-0.8736
X3.75Y-1.05
X3.75Y-1.225
X3.75Y-1.425
X3.75Y-1.575
X3.75Y-1.75
X3.75Y-1.925
X3.75Y-2.275
X3.75Y-2.45
X3.75Y-2.55
X3.75Y-2.625
X3.75Y-2.9
X3.7526Y-3.1509
X3.7625Y-3.25
X3.7625Y-3.85
X3.7625Y-3.9441
X3.7648Y-4.6502
X3.7648Y-5.3502
X3.7648Y-6.0502
X3.7648Y-6.7502
X3.7648Y-7.4453
X3.7648Y-8.1502
X3.765Y-3.425
X3.765Y-3.6
X3.765Y-3.7
X3.765Y-4.0389
X3.765Y-4.125
X3.765Y-4.375
X3.765Y-4.55
X3.765Y-4.8285
X3.765Y-5.075
X3.765Y-5.25
X3.765Y-5.5285
X3.765Y-5.775
X3.765Y-5.95
X3.765Y-6.2285
X3.765Y-6.475
X3.765Y-6.65
X3.765Y-6.9285
X3.765Y-7.1701
X3.765Y-7.3451
X3.765Y-7.6236
X3.765Y-7.875
X3.765Y-8.05
X3.765Y-8.3285
X3.7658Y-3.3514
X3.7675Y-2.025
X3.772Y-4.2917
X3.772Y-4.9917
X3.772Y-6.3917
X3.772Y-7.0868
X3.772Y-7.7917
X3.775Y-3.075
X3.7814Y-8.9189
X3.7814Y-10.1189
X3.7875Y-9.525
X3.7911Y-4.7489
X3.7911Y-5.4489
X3.7911Y-6.1489
X3.7911Y-6.8489
X3.7911Y-7.5439
X3.7911Y-8.2489
X3.7952Y-2.3035
X3.8Y-0.625
X3.8Y-1.375
X3.8Y-3.6375
X3.8Y-5.6625
X3.8Y-8.55
X3.8Y-9.975
X3.8043Y-2.8018
X3.809Y-2.4215
X3.8125Y-8.8375
X3.8125Y-8.875
X3.8125Y-9.5875
X3.84Y-0.9035
X3.84Y-3.35
X3.84Y-3.7
X3.84Y-4.4
X3.84Y-4.55
X3.84Y-4.9
X3.84Y-5.1
X3.84Y-5.25
X3.84Y-5.8
X3.84Y-5.95
X3.84Y-6.3
X3.84Y-6.5
X3.84Y-6.65
X3.84Y-7.0
X3.84Y-7.1951
X3.84Y-7.3451
X3.84Y-7.6951
X3.84Y-7.9
X3.84Y-8.05
X3.84Y-8.4
X3.8458Y-5.5837
X3.8477Y-1.5465
X3.8498Y-2.2461
X3.85Y-0.8465
X3.85Y-1.0215
X3.85Y-1.7215
X3.85Y-2.075
X3.85Y-2.625
X3.85Y-2.9462
X3.8501Y-3.1223
X3.8503Y-1.3745
X3.8506Y-1.1965
X3.8519Y-1.0785
X3.8531Y-1.8922
X3.8625Y-3.65
X3.8625Y-4.0
X3.8625Y-4.175
X3.8625Y-4.225
X3.875Y-0.425
X3.875Y-2.9639
X3.875Y-8.55
X3.8764Y-3.775
X3.8808Y-3.3486
X3.8866Y-3.5976
X3.8875Y-3.9
X3.8875Y-4.4
X3.8897Y-2.3361
X3.8898Y-2.1532
X3.8986Y-7.1951
X3.8986Y-8.4208
X3.8992Y-5.3125
X3.8994Y-9.086
X3.8994Y-9.686
X3.9Y-1.5
X3.9Y-3.175
X3.9Y-5.625
X3.9Y-10.3
X3.9006Y-1.2535
X3.9214Y-2.1221
X3.9217Y-2.2659
X3.925Y-0.45
X3.925Y-0.7
X3.925Y-0.875
X3.925Y-1.225
X3.925Y-1.575
X3.925Y-1.75
X3.925Y-1.925
X3.925Y-2.625
X3.925Y-8.925
X3.925Y-9.525
X3.925Y-10.125
X3.9375Y-2.905
X3.9375Y-3.85
X3.94Y-3.3014
X3.94Y-3.5
X3.94Y-3.7
X3.94Y-4.05
X3.94Y-4.1285
X3.94Y-4.3
X3.94Y-4.475
X3.94Y-4.575
X3.94Y-4.65
X3.94Y-4.825
X3.94Y-5.0
X3.94Y-5.175
X3.94Y-5.275
X3.94Y-5.35
X3.94Y-5.525
X3.94Y-5.7
X3.94Y-5.975
X3.94Y-6.05
X3.94Y-6.225
X3.94Y-6.4
X3.94Y-6.575
X3.94Y-6.675
X3.94Y-6.75
X3.94Y-6.925
X3.94Y-7.0951
X3.94Y-7.2701
X3.94Y-7.3701
X3.94Y-7.4451
X3.94Y-7.6201
X3.94Y-7.8
X3.94Y-7.975
X3.94Y-8.075
X3.94Y-8.15
X3.94Y-8.325
X3.9486Y-3.425
X3.95Y-2.8125
X3.95Y-3.775
X3.95Y-3.95
X3.9506Y-1.6035
X3.9625Y-2.125
X3.9666Y-1.1584
X3.9689Y-8.9311
X3.9689Y-9.5311
X3.9689Y-10.1311
X3.972Y-4.35
X3.972Y-6.45
X3.972Y-7.1451
X3.972Y-7.85
X3.9747Y-2.0212
X3.9747Y-2.4215
X3.975Y-0.625
X3.975Y-1.0215
X3.975Y-1.275
X3.975Y-1.375
X3.975Y-2.35
X3.975Y-3.1223
X3.975Y-3.8625
X3.975Y-5.025
X3.975Y-5.7375
X3.975Y-5.8875
X3.975Y-8.875
X3.975Y-9.475
X3.975Y-10.075
X3.9753Y-2.6514
X3.9875Y-3.0375
X3.9875Y-3.35
X4.0Y-7.7125
X4.0114Y-3.7045
X4.0139Y-2.1215
X4.015Y-3.4788
X4.015Y-4.4
X4.015Y-4.5545
X4.015Y-5.1
X4.015Y-5.2545
X4.015Y-5.8
X4.015Y-5.9545
X4.015Y-6.5
X4.015Y-6.625
X4.015Y-6.6545
X4.015Y-7.1951
X4.015Y-7.3201
X4.015Y-7.3496
X4.015Y-7.9
X4.015Y-8.025
X4.015Y-8.0545
X4.0216Y-4.905
X4.025Y-0.8465
X4.025Y-1.975
X4.025Y-2.2384
X4.025Y-2.5965
X4.025Y-2.95
X4.025Y-3.3663
X4.025Y-4.525
X4.025Y-5.225
X4.025Y-5.925
X4.0256Y-1.1965
X4.0264Y-1.8965
X4.0367Y-6.9768
X4.0375Y-3.65
X4.0375Y-4.0
X4.0389Y-6.275
X4.04Y-5.575
X4.04Y-7.6701
X4.04Y-8.375
X4.05Y-2.0875
X4.05Y-2.5
X4.05Y-4.3875
X4.05Y-5.4375
X4.0518Y-3.2613
X4.0574Y-3.3533
X4.0581Y-3.8612
X4.0595Y-5.6279
X4.0625Y-3.0111
X4.0625Y-3.9375
X4.0625Y-3.975
X4.0625Y-5.55
X4.0625Y-6.9625
X4.0736Y-2.1485
X4.0736Y-2.339
X4.075Y-0.425
X4.0769Y-0.6317
X4.09Y-6.65
X4.09Y-7.3451
X4.09Y-8.05
X4.0913Y-4.5502
X4.0913Y-5.2502
X4.1Y-0.7
X4.1Y-0.875
X4.1Y-1.225
X4.1Y-1.575
X4.1Y-1.75
X4.1Y-1.925
X4.1Y-2.275
X4.1Y-2.45
X4.1Y-2.625
X4.1Y-2.8
X4.1Y-2.9
X4.1Y-2.9875
X4.1Y-3.15
X4.1Y-5.6
X4.1006Y-0.5215
X4.1108Y-3.9542
X4.1125Y-4.4
X4.1135Y-7.6853
X4.115Y-4.3
X4.115Y-4.65
X4.115Y-4.9
X4.115Y-5.0
X4.115Y-5.1
X4.115Y-5.35
X4.115Y-5.7
X4.115Y-5.8
X4.115Y-6.05
X4.115Y-6.3
X4.115Y-6.4
X4.115Y-6.5
X4.115Y-6.75
X4.115Y-7.0
X4.115Y-7.0951
X4.115Y-7.1951
X4.115Y-7.4451
X4.115Y-7.8
X4.115Y-7.9
X4.115Y-8.15
X4.115Y-8.4
X4.1153Y-3.3367
X4.1161Y-0.9764
X4.1191Y-5.9553
X4.1191Y-6.6553
X4.1191Y-7.3503
X4.1191Y-8.0553
X4.1204Y-4.5555
X4.1204Y-5.2555
X4.125Y-2.025
X4.125Y-7.7125
X4.14Y-3.95
X4.1469Y-1.3058
X4.1494Y-9.086
X4.1494Y-9.686
X4.15Y-1.65
X4.15Y-2.725
X4.15Y-3.425
X4.15Y-3.8
X4.15Y-4.0375
X4.15Y-4.1625
X4.15Y-5.9125
X4.15Y-10.3
X4.1613Y-1.28
X4.1625Y-3.35
X4.175Y-8.925
X4.175Y-9.525
X4.175Y-10.125
X4.1837Y-1.4285
X4.1875Y-3.5486
X4.19Y-3.9
X4.19Y-6.45
X4.19Y-7.1451
X4.19Y-7.85
X4.1908Y-4.5789
X4.1908Y-5.2789
X4.1908Y-5.9789
X4.1908Y-6.6789
X4.1908Y-7.374
X4.1908Y-8.0789
X4.1956Y-4.0174
X4.1997Y-2.4215
X4.2Y-0.6715
X4.2Y-0.8465
X4.2Y-1.0215
X4.2Y-1.1965
X4.2Y-2.075
X4.2Y-2.2465
X4.2Y-2.95
X4.2Y-3.1215
X4.2003Y-2.5965
X4.2003Y-2.7715
X4.2099Y-1.3715
X4.2111Y-3.4817
X4.2125Y-3.675
X4.2125Y-4.35
X4.2125Y-5.05
X4.2125Y-5.75
X4.2139Y-1.8965
X4.215Y-0.9035
X4.2189Y-8.9311
X4.2189Y-9.5311
X4.2189Y-10.1311
X4.225Y-3.7375
X4.2253Y-1.4285
X4.2375Y-1.775
X4.2375Y-4.2125
X4.2375Y-7.7625
X4.2397Y-5.3111
X4.24Y-3.3472
X4.242Y-3.6742
X4.2486Y-3.7692
X4.2486Y-4.0442
X4.25Y-0.9035
X4.25Y-1.5
X4.2508Y-7.025
X4.261Y-2.2
X4.2625Y-2.675
X4.2663Y-3.8742
X4.275Y-0.7
X4.275Y-0.875
X4.275Y-1.05
X4.275Y-1.225
X4.275Y-1.4
X4.275Y-1.575
X4.275Y-1.925
X4.275Y-2.9
X4.2769Y-0.6279
X4.2806Y-2.339
X4.2831Y-3.2486
X4.2875Y-4.2
X4.2875Y-5.25
X4.2875Y-5.95
X4.2899Y-4.9249
X4.2899Y-5.6249
X4.29Y-3.3219
X4.29Y-3.425
X4.29Y-3.6
X4.29Y-3.7
X4.29Y-3.85
X4.29Y-4.3
X4.29Y-4.65
X4.29Y-5.0
X4.29Y-5.35
X4.29Y-5.7
X4.29Y-6.05
X4.29Y-6.325
X4.29Y-6.4
X4.29Y-6.75
X4.29Y-7.0951
X4.29Y-7.4451
X4.29Y-7.7201
X4.29Y-7.8
X4.29Y-8.15
X4.29Y-8.425
X4.2906Y-3.3514
X4.2953Y-4.5469
X4.2953Y-6.6469
X4.2953Y-7.342
X4.2953Y-8.0469
X4.3003Y-1.4285
X4.3159Y-4.7509
X4.3159Y-5.4509
X4.3159Y-6.1509
X4.3159Y-6.8509
X4.3159Y-7.5459
X4.3159Y-8.2509
X4.3176Y-2.95
X4.3236Y-2.4535
X4.3246Y-9.086
X4.325Y-1.325
X4.325Y-1.7215
X4.325Y-2.05
X4.325Y-10.3
X4.3253Y-9.6861
X4.3366Y-2.819
X4.3398Y-1.0188
X4.347Y-3.0336
X4.35Y-8.925
X4.35Y-9.525
X4.35Y-10.125
X4.3625Y-3.15
X4.3625Y-4.025
X4.3646Y-4.5771
X4.3646Y-5.9775
X4.3647Y-6.6087
X4.3647Y-7.3037
X4.3647Y-8.0087
X4.365Y-3.3512
X4.365Y-3.7
X4.365Y-4.1715
X4.365Y-4.9
X4.365Y-5.2775
X4.365Y-6.3
X4.365Y-6.45
X4.365Y-6.675
X4.365Y-7.0
X4.365Y-7.1451
X4.365Y-7.3701
X4.365Y-7.6951
X4.365Y-7.85
X4.365Y-8.075
X4.365Y-8.4
X4.3706Y-2.8534
X4.375Y-0.6715
X4.375Y-0.8465
X4.375Y-1.975
X4.375Y-2.3
X4.375Y-5.2125
X4.375Y-5.9125
X4.375Y-8.75
X4.375Y-9.35
X4.3756Y-1.1965
X4.3756Y-1.5465
X4.3861Y-1.8965
X4.3875Y-2.9
X4.3875Y-4.35
X4.3875Y-4.5125
X4.3875Y-5.0375
X4.3875Y-5.575
X4.3875Y-5.75
X4.3927Y-8.9225
X4.3939Y-9.5189
X4.3939Y-10.1189
X4.3986Y-2.5837
X4.4Y-2.9502
X4.4Y-0.475
X4.4Y-2.1
X4.4Y-3.65
X4.4Y-4.0125
X4.4Y-5.8
X4.4Y-9.9
X4.4096Y-0.4278
X4.4125Y-3.175
X4.4125Y-5.4375
X4.4125Y-6.7875
X4.415Y-3.6
X4.4242Y-2.0
X4.4242Y-3.0375
X4.425Y-1.775
X4.425Y-2.8625
X4.425Y-2.9
X4.4375Y-3.425
X4.4385Y-2.9923
X4.44Y-4.5712
X4.44Y-5.275
X4.44Y-5.975
X4.44Y-6.675
X4.44Y-7.3701
X4.44Y-8.075
X4.45Y-0.525
X4.45Y-0.625
X4.45Y-0.7
X4.45Y-0.875
X4.45Y-0.975
X4.45Y-1.05
X4.45Y-1.225
X4.45Y-1.4
X4.45Y-1.575
X4.45Y-1.75
X4.45Y-1.925
X4.45Y-2.2
X4.45Y-2.2675
X4.45Y-2.625
X4.45Y-2.725
X4.45Y-2.9
X4.4596Y-2.466
X4.4625Y-2.975
X4.4625Y-4.2
X4.465Y-3.3264
X4.465Y-3.7
X4.465Y-3.85
X4.465Y-3.95
X4.465Y-4.125
X4.465Y-4.3
X4.465Y-4.475
X4.465Y-4.65
X4.465Y-4.825
X4.465Y-5.0
X4.465Y-5.175
X4.465Y-5.35
X4.465Y-5.525
X4.465Y-5.7
X4.465Y-5.875
X4.465Y-6.05
X4.465Y-6.225
X4.465Y-6.4
X4.465Y-6.575
X4.465Y-6.75
X4.465Y-6.925
X4.465Y-7.0951
X4.465Y-7.2701
X4.465Y-7.4451
X4.465Y-7.6201
X4.465Y-7.8
X4.465Y-7.975
X4.465Y-8.15
X4.465Y-8.325
X4.467Y-3.425
X4.4693Y-3.5014
X4.475Y-1.5
X4.475Y-2.025
X4.4801Y-6.6468
X4.4801Y-7.3418
X4.4801Y-8.0468
X4.483Y-4.5463
X4.4875Y-2.975
X4.4875Y-5.2625
X4.4895Y-2.409
X4.4994Y-9.086
X4.4996Y-9.686
X4.5Y-0.45
X4.5Y-0.625
X4.5Y-0.825
X4.5Y-1.175
X4.5Y-2.0
X4.5Y-2.7715
X4.5Y-10.3
X4.5003Y-3.1216
X4.5125Y-2.9875
X4.5125Y-5.9125
X4.525Y-8.925
X4.525Y-9.525
X4.525Y-10.125
X4.54Y-3.4639
X4.54Y-3.7
X4.54Y-4.0275
X4.54Y-4.575
X4.54Y-4.925
X4.54Y-5.275
X4.54Y-5.6309
X4.54Y-5.975
X4.54Y-6.325
X4.54Y-6.45
X4.54Y-6.625
X4.54Y-6.675
X4.54Y-7.025
X4.54Y-7.1451
X4.54Y-7.3201
X4.54Y-7.3701
X4.54Y-7.7201
X4.54Y-7.85
X4.54Y-8.025
X4.54Y-8.075
X4.54Y-8.425
X4.55Y-1.0215
X4.55Y-1.7215
X4.55Y-2.075
X4.55Y-2.5965
X4.55Y-2.95
X4.55Y-5.2125
X4.55Y-5.925
X4.5506Y-1.5465
X4.5537Y-2.239
X4.5625Y-4.35
X4.5625Y-4.525
X4.5625Y-5.05
X4.5625Y-5.75
X4.5689Y-8.7564
X4.5689Y-8.9311
X4.5689Y-9.3436
X4.5689Y-9.5311
X4.5689Y-9.9311
X4.5689Y-10.1311
X4.575Y-2.0
X4.575Y-3.3625
X4.575Y-3.65
X4.575Y-5.825
X4.575Y-1.6213
X4.5758Y-1.15
X4.5758Y-5.175
X4.5758Y-5.8625
X4.5758Y-7.2625
X4.5835Y-1.8518
X4.5875Y-3.8375
X4.5875Y-4.3875
X4.5875Y-4.475
X4.5875Y-6.575
X4.5875Y-7.975
X4.5991Y-1.8965
X4.5992Y-1.7
X4.5997Y-2.4785
X4.6Y-2.275
X4.6Y-4.5625
X4.6Y-5.1
X4.6Y-5.4375
X4.6125Y-2.9875
X4.6125Y-4.0625
X4.6125Y-8.4125
X4.6139Y-7.7942
X4.6167Y-3.5236
X4.6247Y-0.9753
X4.6248Y-3.1518
X4.625Y-0.45
X4.625Y-0.7
X4.625Y-0.875
X4.625Y-1.05
X4.625Y-1.225
X4.625Y-1.575
X4.625Y-1.925
X4.625Y-2.45
X4.625Y-2.625
X4.625Y-2.7955
X4.625Y-2.825
X4.625Y-2.9
X4.625Y-3.425
X4.625Y-4.3
X4.625Y-5.0
X4.625Y-5.7
X4.625Y-6.4
X4.625Y-7.1
X4.625Y-7.375
X4.625Y-9.0
X4.625Y-9.1375
X4.6338Y-3.3276
X4.6375Y-8.825
X4.6375Y-9.425
X4.6375Y-9.6
X4.6375Y-9.75
X4.6375Y-10.025
X4.6375Y-10.2
X4.6409Y-6.7212
X4.65Y-3.8125
X4.6593Y-8.5462
X4.6605Y-6.4837
X4.6625Y-1.05
X4.6665Y-2.3069
X4.675Y-0.625
X4.675Y-1.7215
X4.675Y-1.9535
X4.675Y-2.05
X4.675Y-3.0625
X4.675Y-5.6125
X4.675Y-5.8
X4.675Y-5.8375
X4.675Y-6.3125
X4.675Y-8.65
X4.6801Y-6.5425
X4.6801Y-4.025
X4.6875Y-3.95
X4.7Y-1.05
X4.7Y-3.6
X4.7007Y-2.7965
X4.7125Y-4.1875
X4.7125Y-8.55
X4.7125Y-9.9375
X4.7203Y-2.7558
X4.7217Y-3.1215
X4.7247Y-2.4215
X4.7247Y-2.9495
X4.725Y-0.8465
X4.725Y-1.975
X4.725Y-3.1875
X4.725Y-4.4
X4.725Y-8.75
X4.725Y-8.875
X4.725Y-9.05
X4.725Y-9.3125
X4.725Y-9.475
X4.725Y-9.65
X4.725Y-10.075
X4.725Y-10.25
X4.7253Y-2.5965
X4.7256Y-1.1965
X4.7256Y-1.5465
X4.7264Y-7.1817
X4.7307Y-2.2465
X4.735Y-1.3715
X4.7375Y-3.3875
X4.7375Y-8.45
X4.7475Y-2.6986
X4.75Y-1.8965
X4.75Y-6.7125
X4.75Y-6.7875
X4.75Y-7.375
X4.7514Y-3.675
X4.7565Y-3.3118
X4.7576Y-3.4715
X4.7625Y-3.5236
X4.7625Y-6.675
X4.7625Y-8.6
X4.7684Y-7.8858
X4.7738Y-3.1715
X4.7742Y-3.2729
X4.7742Y-1.825
X4.7742Y-2.175
X4.775Y-0.9035
X4.775Y-2.4785
X4.775Y-4.5625
X4.775Y-4.6125
X4.775Y-9.75
X4.7835Y-3.1144
X4.8Y-0.5535
X4.8Y-0.7
X4.8Y-0.875
X4.8Y-1.575
X4.8Y-1.75
X4.8Y-1.925
X4.8Y-2.1
X4.8Y-2.45
X4.8Y-3.6
X4.8Y-3.675
X4.8Y-8.4125
X4.8025Y-2.2675
X4.8037Y-1.225
X4.8063Y-3.5272
X4.8118Y-3.3283
X4.8125Y-3.95
X4.8125Y-4.2125
X4.8125Y-4.9125
X4.8125Y-5.6
X4.8125Y-6.3125
X4.8125Y-6.675
X4.8125Y-6.8375
X4.8125Y-7.0
X4.8125Y-7.7125
X4.815Y-4.0389
X4.815Y-4.126
X4.815Y-4.3
X4.815Y-4.55
X4.815Y-4.65
X4.815Y-4.825
X4.815Y-5.0
X4.815Y-5.25
X4.815Y-5.35
X4.815Y-5.525
X4.815Y-5.7
X4.815Y-5.95
X4.815Y-6.05
X4.815Y-6.225
X4.815Y-6.4
X4.815Y-6.75
X4.815Y-6.925
X4.815Y-7.1
X4.815Y-7.35
X4.815Y-7.45
X4.815Y-7.625
X4.815Y-7.8
X4.815Y-8.05
X4.815Y-8.15
X4.815Y-8.325
X4.8154Y-6.6456
X4.825Y-0.45
X4.825Y-0.975
X4.825Y-1.325
X4.825Y-2.95
X4.825Y-3.775
X4.8365Y-0.8785
X4.8375Y-7.8875
X4.8375Y-8.4125
X4.8375Y-9.7875
X4.8418Y-6.4918
X4.8418Y-7.1832
X4.8486Y-3.2486
X4.85Y-0.65
X4.85Y-1.65
X4.85Y-2.375
X4.8625Y-3.5125
X4.8625Y-9.225
X4.8671Y-2.466
X4.875Y-0.5215
X4.875Y-3.325
X4.875Y-8.45
X4.8753Y-2.7715
X4.8875Y-3.15
X4.89Y-4.575
X4.89Y-5.275
X4.89Y-5.975
X4.89Y-6.675
X4.89Y-7.375
X4.89Y-8.075
X4.8949Y-3.8282
X4.8991Y-3.4712
X4.9Y-1.0205
X4.9Y-1.05
X4.9Y-2.0725
X4.9Y-2.1375
X4.9Y-3.65
X4.9006Y-1.1965
X4.9006Y-1.5465
X4.9009Y-0.8455
X4.9014Y-1.384
X4.9017Y-1.7113
X4.9125Y-4.175
X4.9138Y-1.7986
X4.9146Y-4.55
X4.9146Y-5.25
X4.9146Y-5.95
X4.9146Y-6.65
X4.9146Y-7.35
X4.9146Y-8.05
X4.925Y-0.6715
X4.925Y-1.625
X4.925Y-2.35
X4.925Y-4.0
X4.925Y-4.05
X4.9256Y-2.4665
X4.9315Y-3.3913
X4.9356Y-3.949
X4.9375Y-3.7375
X4.9375Y-4.9125
X4.938Y-3.8814
X4.95Y-0.9035
X4.95Y-3.175
X4.95Y-8.925
X4.9719Y-3.3253
X4.9728Y-1.2205
X4.975Y-0.7
X4.975Y-0.8
X4.975Y-0.875
X4.975Y-1.4
X4.975Y-1.575
X4.975Y-2.55
X4.975Y-2.625
X4.975Y-2.8285
X4.975Y-2.9
X4.975Y-8.725
X4.975Y-9.1
X4.9752Y-3.6018
X4.9775Y-2.2675
X4.9875Y-2.728
X4.9875Y-8.65
X4.9875Y-8.65
X4.9898Y-4.6502
X4.9898Y-5.3502
X4.9898Y-6.0502
X4.9898Y-6.7502
X4.9898Y-7.4502
X4.9898Y-8.1502
X4.99Y-3.95
X4.99Y-4.05
X4.99Y-4.3
X4.99Y-4.475
X4.99Y-4.575
X4.99Y-4.825
X4.99Y-5.0
X4.99Y-5.175
X4.99Y-5.275
X4.99Y-5.525
X4.99Y-5.7
X4.99Y-5.875
X4.99Y-5.975
X4.99Y-6.225
X4.99Y-6.4
X4.99Y-6.575
X4.99Y-6.675
X4.99Y-6.925
X4.99Y-7.1
X4.99Y-7.275
X4.99Y-7.375
X4.99Y-7.625
X4.99Y-7.8
X4.99Y-7.975
X4.99Y-8.075
X4.99Y-8.325
X4.9918Y-4.1306
X5.0Y-0.5215
X5.0Y-0.625
X5.0Y-1.075
X5.0Y-1.15
X5.0Y-1.925
X5.0Y-2.025
X5.0028Y-3.2486
X5.0125Y-9.6625
X5.015Y-4.725
X5.015Y-5.425
X5.015Y-6.125
X5.015Y-6.825
X5.015Y-7.525
X5.015Y-8.225
X5.0197Y-3.0793
X5.0227Y-3.9111
X5.025Y-0.975
X5.025Y-1.325
X5.025Y-1.65
X5.025Y-1.7215
X5.025Y-2.35
X5.025Y-2.7736
X5.025Y-3.15
X5.025Y-3.5
X5.025Y-9.45
X5.025Y-9.5545
X5.065Y-4.575
X5.065Y-5.2455
X5.065Y-5.275
X5.065Y-5.9455
X5.065Y-5.975
X5.065Y-6.45
X5.065Y-6.6455
X5.065Y-6.675
X5.065Y-7.15
X5.065Y-7.3455
X5.065Y-7.375
X5.065Y-7.85
X5.065Y-8.0455
X5.065Y-8.075
X5.0713Y-3.1848
X5.075Y-0.5535
X5.075Y-0.8465
X5.075Y-1.2
X5.075Y-1.5465
X5.075Y-2.2465
X5.075Y-2.4465
X5.075Y-2.95
X5.075Y-3.3906
X5.075Y-5.05
X5.0753Y-2.5965
X5.0758Y-3.9978
X5.0764Y-1.7655
X5.0808Y-3.5014
X5.0875Y-4.35
X5.0875Y-4.55
X5.0875Y-5.75
X5.1Y-1.7375
X5.1Y-2.1
X5.1012Y-4.025
X5.1035Y-0.6715
X5.1125Y-4.2125
X5.1125Y-4.925
X5.1125Y-7.9
X5.1125Y-8.4125
X5.1156Y-3.8361
X5.116Y-2.7465
X5.118Y-3.124
X5.1242Y-1.4486
X5.1242Y-2.225
X5.1242Y-3.7375
X5.1248Y-4.075
X5.1288Y-3.3235
X5.1315Y-3.861
X5.1337Y-3.5006
X5.15Y-0.525
X5.15Y-0.7
X5.15Y-0.875
X5.15Y-1.575
X5.15Y-1.925
X5.15Y-2.275
X5.15Y-2.4518
X5.15Y-2.625
X5.15Y-2.8
X5.15Y-2.9
X5.15Y-3.1663
X5.15Y-3.25
X5.15Y-3.425
X5.15Y-3.7
X5.15Y-8.725
X5.1512Y-1.2413
X5.1514Y-2.5517
X5.1556Y-3.601
X5.161Y-4.1285
X5.1625Y-8.4125
X5.1637Y-4.05
X5.165Y-4.3
X5.165Y-4.55
X5.165Y-4.65
X5.165Y-4.825
X5.165Y-5.0
X5.165Y-5.25
X5.165Y-5.35
X5.165Y-5.525
X5.165Y-5.7
X5.165Y-5.95
X5.165Y-6.05
X5.165Y-6.225
X5.165Y-6.4
X5.165Y-6.65
X5.165Y-6.75
X5.165Y-6.925
X5.165Y-7.1
X5.165Y-7.35
X5.165Y-7.45
X5.165Y-7.625
X5.165Y-7.8
X5.165Y-8.05
X5.165Y-8.15
X5.165Y-8.325
X5.175Y-1.675
X5.175Y-1.95
X5.175Y-2.3035
X5.175Y-3.075
X5.1875Y-9.6625
X5.19Y-3.95
X5.19Y-4.75
X5.19Y-5.45
X5.19Y-6.15
X5.19Y-6.85
X5.19Y-7.55
X5.19Y-8.25
X5.1918Y-4.3982
X5.1918Y-5.0982
X5.1918Y-5.7982
X5.1918Y-6.4982
X5.1918Y-7.1982
X5.1918Y-7.8982
X5.2Y-0.475
X5.2Y-0.625
X5.2Y-1.025
X5.2Y-1.375
X5.2Y-2.05
X5.2Y-3.225
X5.2Y-3.45
X5.2Y-3.6375
X5.2Y-3.7
X5.2Y-3.8125
X5.2Y-3.9875
X5.2Y-9.85
X5.225Y-9.1139
X5.24Y-4.025
X5.24Y-4.3775
X5.24Y-4.575
X5.24Y-4.875
X5.24Y-5.275
X5.24Y-5.975
X5.24Y-6.275
X5.24Y-6.45
X5.24Y-6.625
X5.24Y-6.675
X5.24Y-6.975
X5.24Y-7.15
X5.24Y-7.325
X5.24Y-7.375
X5.24Y-7.675
X5.24Y-7.85
X5.24Y-8.025
X5.24Y-8.075
X5.24Y-8.375
X5.2468Y-2.4162
X5.25Y-0.8465
X5.25Y-1.0465
X5.25Y-1.2
X5.25Y-1.7215
X5.25Y-1.975
X5.25Y-2.2465
X5.25Y-2.95
X5.25Y-3.025
X5.25Y-3.35
X5.25Y-3.675
X5.25Y-3.9125
X5.25Y-4.525
X5.25Y-5.05
X5.25Y-5.2375
X5.25Y-5.575
X5.25Y-5.9125
X5.25Y-8.925
X5.25Y-9.55
X5.2503Y-2.5965
X5.2503Y-2.7736
X5.2506Y-1.5465
X5.2512Y-3.5361
X5.2625Y-5.75
X5.2638Y-1.275
X5.275Y-0.45
X5.275Y-0.575
X5.275Y-1.35
X5.275Y-1.9285
X5.2758Y-3.075
X5.2875Y-3.8375
X5.2875Y-8.4125
X5.2993Y-3.1514
X5.3Y-0.6
X5.3Y-0.7285
X5.3Y-4.3875
X5.3003Y-2.5965
X5.3035Y-1.7785
X5.3125Y-2.9125
X5.325Y-0.45
X5.325Y-0.7
X5.325Y-0.875
X5.325Y-1.225
X5.325Y-1.575
X5.325Y-1.75
X5.325Y-1.85
X5.325Y-1.925
X5.325Y-2.425
X5.325Y-2.4875
X5.325Y-3.425
X5.325Y-3.6
X5.325Y-8.4375
X5.325Y-8.725
X5.3261Y-2.7907
X5.3264Y-2.2833
X5.3288Y-3.2509
X5.337Y-4.5498
X5.337Y-5.2498
X5.337Y-5.9498
X5.337Y-6.6498
X5.337Y-7.3498
X5.337Y-8.0498
X5.3375Y-4.2
X5.3398Y-4.6502
X5.3398Y-5.3502
X5.3398Y-6.0502
X5.3398Y-6.7502
X5.3398Y-7.4502
X5.3398Y-8.1502
X5.34Y-4.05
X5.34Y-4.3
X5.34Y-4.725
X5.34Y-4.825
X5.34Y-5.0
X5.34Y-5.425
X5.34Y-5.525
X5.34Y-5.7
X5.34Y-6.125
X5.34Y-6.225
X5.34Y-6.4
X5.34Y-6.825
X5.34Y-6.925
X5.34Y-7.1
X5.34Y-7.525
X5.34Y-7.625
X5.34Y-7.8
X5.34Y-8.225
X5.34Y-8.325
X5.341Y-2.6875
X5.35Y-0.975
X5.35Y-1.15
X5.35Y-1.325
X5.35Y-2.025
X5.35Y-2.125
X5.35Y-3.675
X5.35Y-10.05
X5.3664Y-4.5516
X5.3664Y-5.2516
X5.3664Y-5.9516
X5.3664Y-6.6516
X5.3664Y-7.3516
X5.3664Y-8.0516
X5.372Y-4.68
X5.372Y-5.38
X5.372Y-6.08
X5.372Y-6.78
X5.372Y-7.48
X5.372Y-8.18
X5.375Y-0.625
X5.375Y-0.95
X5.375Y-1.05
X5.375Y-1.675
X5.375Y-3.2268
X5.375Y-3.9125
X5.3813Y-2.9458
X5.3962Y-2.7787
X5.4Y-2.125
X5.4Y-2.3625
X5.4Y-9.975
X5.41Y-2.9528
X5.415Y-4.3775
X5.415Y-4.725
X5.415Y-5.425
X5.415Y-6.125
X5.415Y-6.275
X5.415Y-6.45
X5.415Y-6.825
X5.415Y-6.975
X5.415Y-7.15
X5.415Y-7.525
X5.415Y-7.675
X5.415Y-7.85
X5.415Y-8.225
X5.415Y-8.375
X5.4163Y-3.1663
X5.4192Y-4.5792
X5.4192Y-5.2792
X5.4192Y-5.9792
X5.4192Y-6.6792
X5.4192Y-7.3792
X5.4192Y-8.0792
X5.4236Y-2.6929
X5.425Y-0.8465
X5.425Y-1.375
X5.425Y-1.5465
X5.425Y-2.075
X5.425Y-2.175
X5.425Y-3.2125
X5.425Y-5.05
X5.425Y-5.575
X5.425Y-9.1
X5.425Y-10.225
X5.4256Y-1.1965
X5.4375Y-4.0125
X5.4375Y-4.175
X5.4375Y-4.8875
X5.4375Y-5.7625
X5.4375Y-10.0625
X5.4392Y-3.8361
X5.4465Y-1.7785
X5.45Y-0.475
X5.45Y-0.6
X5.45Y-1.625
X5.45Y-2.5375
X5.45Y-4.6875
X5.45Y-7.2
X5.45Y-8.45
X5.4507Y-4.1486
X5.4544Y-1.086
X5.465Y-1.125
X5.4685Y-3.261
X5.475Y-2.95
X5.475Y-3.7
X5.475Y-8.425
X5.4766Y-3.1889
X5.4784Y-2.135
X5.4788Y-1.0337
X5.4801Y-3.5592
X5.4841Y-2.4785
X5.4875Y-3.5125
X5.49Y-5.0
X5.49Y-5.7
X5.4913Y-4.2998
X5.4986Y-6.4
X5.4986Y-7.0974
X5.4986Y-7.7974
X5.5Y-0.525
X5.5Y-0.7
X5.5Y-0.875
X5.5Y-1.225
X5.5Y-1.4
X5.5Y-1.575
X5.5Y-1.75
X5.5Y-1.925
X5.5Y-2.2
X5.5Y-2.275
X5.5Y-2.625
X5.5Y-3.8538
X5.5111Y-3.3692
X5.5125Y-4.2
X5.5148Y-4.4752
X5.5148Y-5.1752
X5.5148Y-5.8752
X5.5148Y-6.5752
X5.5148Y-7.2752
X5.5148Y-7.9752
X5.515Y-3.95
X5.515Y-4.125
X5.515Y-4.375
X5.515Y-4.575
X5.515Y-4.65
X5.515Y-4.725
X5.515Y-4.9
X5.515Y-5.075
X5.515Y-5.275
X5.515Y-5.35
X5.515Y-5.425
X5.515Y-5.6
X5.515Y-5.775
X5.515Y-5.975
X5.515Y-6.05
X5.515Y-6.125
X5.515Y-6.3
X5.515Y-6.475
X5.515Y-6.675
X5.515Y-6.75
X5.515Y-6.825
X5.515Y-7.0
X5.515Y-7.175
X5.515Y-7.375
X5.515Y-7.45
X5.515Y-7.525
X5.515Y-7.7
X5.515Y-7.875
X5.515Y-8.075
X5.515Y-8.15
X5.515Y-8.225
X5.515Y-8.4
X5.522Y-4.9917
X5.522Y-5.6917
X5.525Y-0.625
X5.5267Y-7.7882
X5.5274Y-2.7986
X5.5375Y-6.325
X5.5375Y-7.025
X5.5412Y-4.2912
X5.55Y-0.975
X5.55Y-1.325
X5.55Y-1.475
X5.55Y-1.525
X5.55Y-2.05
X5.55Y-2.1
X5.55Y-2.6375
X5.55Y-3.0
X5.55Y-3.1288
X5.55Y-3.45
X5.55Y-3.8125
X5.5502Y-2.7337
X5.5514Y-2.4328
X5.575Y-3.775
X5.59Y-6.4535
X5.59Y-6.625
X5.59Y-7.1535
X5.59Y-7.325
X5.59Y-7.8535
X5.59Y-8.025
X5.5942Y-4.5542
X5.5942Y-5.2542
X5.5942Y-5.9542
X5.5942Y-6.6542
X5.5942Y-7.3542
X5.5942Y-8.0542
X5.5962Y-2.9491
X5.6Y-0.5
X5.6Y-0.6715
X5.6Y-0.8465
X5.6Y-1.7785
X5.6Y-1.975
X5.6Y-2.1375
X5.6Y-2.2465
X5.6Y-4.525
X5.6Y-5.0535
X5.6Y-5.225
X5.6Y-5.925
X5.6006Y-1.1965
X5.6022Y-1.275
X5.6047Y-2.5863
X5.6125Y-4.225
X5.6125Y-4.35
X5.6125Y-5.75
X5.6125Y-9.45
X5.6125Y-9.7
X5.6244Y-2.4465
X5.625Y-0.95
X5.625Y-4.4
X5.625Y-6.3125
X5.625Y-10.125
X5.6258Y-2.2125
X5.6357Y-4.0259
X5.6375Y-2.8
X5.6375Y-8.65
X5.6441Y-4.1491
X5.65Y-1.325
X5.6519Y-4.9475
X5.6583Y-1.2417
X5.6604Y-3.7942
X5.6612Y-2.9125
X5.6625Y-2.1
X5.6625Y-3.7236
X5.6625Y-8.8625
X5.665Y-4.5371
X5.665Y-4.3
X5.665Y-6.4
X5.665Y-7.1
X5.665Y-7.8
X5.6661Y-3.1466
X5.6663Y-5.0
X5.6694Y-5.6986
X5.675Y-0.525
X5.675Y-0.7
X5.675Y-0.875
X5.675Y-0.975
X5.675Y-1.153
X5.675Y-1.575
X5.675Y-1.75
X5.675Y-1.925
X5.675Y-2.275
X5.675Y-2.375
X5.675Y-2.45
X5.675Y-2.5489
X5.675Y-2.625
X5.675Y-3.8375
X5.675Y-8.725
X5.6792Y-4.0392
X5.6794Y-1.3228
X5.6875Y-1.5
X5.6875Y-2.8125
X5.6875Y-4.5875
X5.6875Y-8.55
X5.6898Y-4.6502
X5.6898Y-5.3502
X5.6898Y-6.0502
X5.6898Y-6.7502
X5.6898Y-7.4502
X5.6898Y-8.1502
X5.69Y-4.125
X5.69Y-4.375
X5.69Y-4.8285
X5.69Y-5.075
X5.69Y-5.25
X5.69Y-5.775
X5.69Y-5.95
X5.69Y-6.2285
X5.69Y-6.475
X5.69Y-6.65
X5.69Y-6.9285
X5.69Y-7.175
X5.69Y-7.35
X5.69Y-7.6285
X5.69Y-7.875
X5.69Y-8.05
X5.69Y-8.3285
X5.6958Y-3.6708
X5.697Y-4.2917
X5.697Y-7.0917
X5.697Y-7.7917
X5.6979Y-5.6909
X5.7Y-2.025
X5.7Y-3.425
X5.7Y-3.475
X5.7Y-3.525
X5.7Y-3.575
X5.7Y-3.625
X5.7Y-5.525
X5.7Y-6.325
X5.7128Y-3.3861
X5.7136Y-3.7611
X5.7161Y-4.7489
X5.7161Y-5.4489
X5.7161Y-6.1489
X5.7161Y-6.8489
X5.7161Y-7.5489
X5.7161Y-8.2489
X5.725Y-0.6242
X5.725Y-0.6715
X5.725Y-1.0215
X5.725Y-1.475
X5.725Y-1.675
X5.725Y-2.8908
X5.725Y-3.0625
X5.725Y-3.2538
X5.7375Y-2.6746
X5.7398Y-2.7753
X5.7449Y-3.7002
X5.75Y-1.7785
X5.75Y-9.6875
X5.7625Y-4.0375
X5.7639Y-5.8
X5.7639Y-5.95
X5.7647Y-2.6209
X5.765Y-4.4
X5.765Y-4.55
X5.765Y-4.9
X5.765Y-5.1
X5.765Y-5.25
X5.765Y-5.6
X5.765Y-6.5
X5.765Y-6.65
X5.765Y-7.0
X5.765Y-7.2
X5.765Y-7.35
X5.765Y-7.7
X5.765Y-7.9
X5.765Y-8.05
X5.765Y-8.4
X5.7683Y-6.2835
X5.7688Y-2.7702
X5.7717Y-2.5921
X5.7718Y-2.9814
X5.7747Y-2.4215
X5.775Y-0.5
X5.775Y-0.8465
X5.775Y-1.2
X5.775Y-2.075
X5.775Y-2.2486
X5.775Y-3.475
X5.775Y-3.9875
X5.775Y-6.3125
X5.7762Y-3.1288
X5.7852Y-2.6814
X5.7894Y-4.1715
X5.796Y-2.8428
X5.8Y-1.8875
X5.8Y-2.1
X5.8003Y-1.4285
X5.8045Y-6.3125
X5.8125Y-2.325
X5.8125Y-8.4375
X5.8125Y-8.6125
X5.8234Y-3.0232
X5.8238Y-1.108
X5.825Y-1.9535
X5.825Y-2.175
X5.825Y-9.45
X5.825Y-9.65
X5.825Y-10.025
X5.825Y-10.125
X5.8252Y-1.0785
X5.8253Y-8.7535
X5.8277Y-1.5715
X5.8375Y-3.8375
X5.8388Y-2.8119
X5.85Y-0.5215
X5.85Y-0.625
X5.85Y-0.7
X5.85Y-0.8
X5.85Y-0.875
X5.85Y-1.5
X5.85Y-1.75
X5.85Y-1.925
X5.85Y-2.275
X5.85Y-2.45
X5.85Y-3.425
X5.85Y-8.725
X5.85Y-9.35
X5.8505Y-3.0644
X5.8526Y-1.2207
X5.8625Y-3.8
X5.8625Y-8.5625
X5.8645Y-2.6486
X5.865Y-3.95
X5.865Y-4.05
X5.865Y-4.1285
X5.865Y-4.3
X5.865Y-4.4732
X5.865Y-4.5861
X5.865Y-4.65
X5.865Y-4.825
X5.865Y-5.0
X5.865Y-5.175
X5.865Y-5.275
X5.865Y-5.35
X5.865Y-5.525
X5.865Y-5.7
X5.865Y-5.875
X5.865Y-5.975
X5.865Y-6.05
X5.865Y-6.225
X5.865Y-6.4
X5.865Y-6.675
X5.865Y-6.75
X5.865Y-6.925
X5.865Y-7.1
X5.865Y-7.275
X5.865Y-7.375
X5.865Y-7.45
X5.865Y-7.625
X5.865Y-7.8
X5.865Y-7.975
X5.865Y-8.075
X5.865Y-8.15
X5.865Y-8.325
X5.8715Y-2.9244
X5.874Y-3.4794
X5.875Y-0.975
X5.875Y-2.55
X5.875Y-2.8
X5.8891Y-3.454
X5.897Y-4.35
X5.897Y-6.45
X5.897Y-7.15
X5.897Y-7.85
X5.9Y-1.325
X5.9Y-1.375
X5.9Y-1.65
X5.9Y-1.6795
X5.9Y-2.05
X5.9Y-2.1
X5.9Y-2.425
X5.9Y-2.725
X5.9Y-3.2538
X5.9Y-3.625
X5.9Y-3.875
X5.9Y-5.0375
X5.9Y-5.725
X5.9Y-6.5875
X5.9042Y-3.0592
X5.9125Y-3.55
X5.917Y-2.8514
X5.9249Y-3.0874
X5.925Y-1.7785
X5.925Y-3.35
X5.925Y-3.6639
X5.925Y-5.6125
X5.925Y-9.7
X5.9389Y-5.1
X5.9395Y-4.5526
X5.94Y-4.0236
X5.94Y-4.4
X5.94Y-5.2545
X5.94Y-5.8
X5.94Y-5.9545
X5.94Y-6.5
X5.94Y-6.625
X5.94Y-6.6545
X5.94Y-7.2
X5.94Y-7.325
X5.94Y-7.3545
X5.94Y-7.9
X5.94Y-8.025
X5.94Y-8.0545
X5.9409Y-3.025
X5.9461Y-3.108
X5.95Y-0.8465
X5.95Y-1.0215
X5.95Y-1.975
X5.95Y-2.3375
X5.95Y-3.8375
X5.95Y-4.525
X5.95Y-5.225
X5.95Y-5.925
X5.95Y-8.6236
X5.95Y-9.2375
X5.9514Y-4.8482
X5.9514Y-5.5626
X5.9514Y-6.2636
X5.9514Y-6.9774
X5.9514Y-7.6529
X5.9519Y-1.1921
X5.9646Y-4.5762
X5.965Y-8.375
X5.975Y-0.6715
X5.975Y-1.2492
X5.975Y-1.8965
X5.975Y-1.9535
X5.975Y-2.6285
X5.975Y-2.6581
X5.975Y-3.5125
X5.975Y-3.8125
X5.975Y-4.725
X5.975Y-7.725
X5.9766Y-2.1712
X5.9958Y-3.2458
X5.9986Y-6.3122
X5.9992Y-2.339
X5.9992Y-0.5785
X5.9992Y-1.125
X6.0Y-1.425
X6.0Y-9.1375
X6.0028Y-2.793
X6.0163Y-5.9498
X6.0163Y-6.6498
X6.0165Y-2.9111
X6.0236Y-4.5485
X6.0236Y-7.3466
X6.0236Y-8.05
X6.0246Y-3.9823
X6.025Y-0.525
X6.025Y-0.7
X6.025Y-0.875
X6.025Y-1.05
X6.025Y-1.15
X6.025Y-1.225
X6.025Y-1.575
X6.025Y-1.675
X6.025Y-1.75
X6.025Y-1.925
X6.025Y-2.275
X6.025Y-2.625
X6.025Y-3.3875
X6.025Y-3.825
X6.025Y-8.725
X6.0262Y-5.2557
X6.0264Y-3.6639
X6.0346Y-4.1298
X6.0375Y-4.225
X6.0375Y-7.725
X6.0375Y-8.45
X6.0375Y-9.65
X6.039Y-5.5976
X6.04Y-4.3
X6.04Y-4.4
X6.04Y-4.65
X6.04Y-4.9
X6.04Y-5.0
X6.04Y-5.1
X6.04Y-5.35
X6.04Y-5.7
X6.04Y-5.8
X6.04Y-6.05
X6.04Y-6.4
X6.04Y-6.5
X6.04Y-6.75
X6.04Y-7.0
X6.04Y-7.1
X6.04Y-7.2
X6.04Y-7.45
X6.04Y-7.8
X6.04Y-7.9
X6.04Y-8.15
X6.04Y-8.4
X6.0404Y-7.6956
X6.0453Y-5.9555
X6.0453Y-6.6555
X6.05Y-1.4125
X6.05Y-2.025
X6.05Y-5.625
X6.05Y-9.125
X6.05Y-9.55
X6.05Y-10.125
X6.0509Y-7.3578
X6.0517Y-4.5576
X6.0522Y-8.0574
X6.0609Y-3.9356
X6.0625Y-4.925
X6.0625Y-5.2625
X6.0625Y-6.3
X6.0669Y-2.7633
X6.0736Y-3.1236
X6.0747Y-2.4215
X6.075Y-0.975
X6.075Y-3.075
X6.075Y-3.25
X6.075Y-3.45
X6.075Y-4.075
X6.0755Y-2.3213
X6.0786Y-3.9625
X6.0875Y-3.825
X6.1Y-8.7535
X6.1125Y-9.2625
X6.115Y-6.45
X6.115Y-7.15
X6.115Y-7.85
X6.1158Y-4.5789
X6.1158Y-5.2789
X6.1158Y-5.9789
X6.1158Y-6.6789
X6.1158Y-7.3789
X6.1158Y-8.0789
X6.1163Y-2.9645
X6.1188Y-4.0337
X6.1213Y-3.6477
X6.1226Y-2.8284
X6.125Y-0.8465
X6.125Y-1.375
X6.125Y-1.7785
X6.125Y-2.075
X6.125Y-2.2486
X6.125Y-3.2
X6.125Y-3.9
X6.125Y-5.05
X6.1253Y-2.5965
X6.1256Y-1.1965
X6.1264Y-3.158
X6.1288Y-3.4758
X6.1302Y-3.4344
X6.1302Y-1.5287
X6.1375Y-3.525
X6.1375Y-5.75
X6.1389Y-6.3067
X6.1465Y-3.3847
X6.1465Y-3.6631
X6.1498Y-1.633
X6.15Y-2.3272
X6.15Y-3.575
X6.15Y-4.225
X6.15Y-4.35
X6.15Y-6.3375
X6.1511Y-1.6035
X6.1514Y-5.0942
X6.1594Y-2.5088
X6.1625Y-8.8625
X6.1672Y-2.6723
X6.1728Y-2.8639
X6.1736Y-3.0059
X6.1741Y-1.8965
X6.1742Y-2.15
X6.175Y-0.975
X6.175Y-1.2514
X6.175Y-1.325
X6.175Y-2.375
X6.175Y-3.7236
X6.19Y-1.0785
X6.2Y-0.875
X6.2Y-1.15
X6.2Y-1.225
X6.2Y-1.575
X6.2Y-1.85
X6.2Y-1.925
X6.2Y-2.275
X6.2Y-2.8
X6.2037Y-2.6215
X6.2038Y-3.1508
X6.2042Y-2.4458
X6.2106Y-5.2606
X6.2125Y-3.8375
X6.2125Y-4.2
X6.2125Y-4.5625
X6.2149Y-4.9249
X6.2149Y-7.0249
X6.215Y-4.05
X6.215Y-4.3
X6.215Y-4.65
X6.215Y-5.0
X6.215Y-5.35
X6.215Y-5.625
X6.215Y-5.7
X6.215Y-6.05
X6.215Y-6.325
X6.215Y-6.4
X6.215Y-6.75
X6.215Y-7.1
X6.215Y-7.45
X6.215Y-7.725
X6.215Y-7.8
X6.215Y-8.15
X6.215Y-8.425
X6.2203Y-6.6469
X6.2203Y-7.3469
X6.2203Y-8.0469
X6.2222Y-2.1281
X6.225Y-2.3035
X6.225Y-2.9111
X6.225Y-5.9625
X6.2258Y-3.7712
X6.2409Y-4.7509
X6.2409Y-5.4509
X6.2409Y-6.1509
X6.2409Y-6.8509
X6.2409Y-7.5509
X6.2409Y-8.2509
X6.2416Y-0.8084
X6.25Y-1.0215
X6.25Y-1.3
X6.25Y-1.3813
X6.25Y-1.7215
X6.25Y-1.7785
X6.25Y-2.4625
X6.25Y-3.225
X6.2625Y-3.525
X6.275Y-3.1785
X6.275Y-4.0375
X6.2831Y-3.7
X6.2875Y-4.375
X6.2889Y-4.1715
X6.2896Y-4.5771
X6.2896Y-5.9771
X6.2897Y-6.6087
X6.2897Y-7.3087
X6.2897Y-8.0087
X6.29Y-4.9
X6.29Y-5.6
X6.29Y-6.3
X6.29Y-6.45
X6.29Y-6.675
X6.29Y-7.0
X6.29Y-7.15
X6.29Y-7.375
X6.29Y-7.7
X6.29Y-7.85
X6.29Y-8.075
X6.29Y-8.4
X6.2963Y-3.1215
X6.2963Y-1.1972
X6.2997Y-2.4215
X6.3Y-0.8465
X6.3Y-1.375
X6.3Y-1.5465
X6.3Y-1.975
X6.3Y-2.2486
X6.3Y-2.7715
X6.3Y-2.95
X6.3Y-4.0
X6.3Y-5.05
X6.3Y-5.2875
X6.301Y-2.5929
X6.3014Y-3.7892
X6.3089Y-5.2125
X6.3125Y-4.5125
X6.3125Y-5.75
X6.3125Y-5.9125
X6.325Y-0.975
X6.3264Y-1.0825
X6.3264Y-1.2838
X6.3315Y-1.4477
X6.3375Y-8.6
X6.3441Y-4.1545
X6.3441Y-4.2375
X6.3492Y-1.525
X6.35Y-1.3375
X6.3506Y-1.6035
X6.3514Y-3.2101
X6.365Y-4.575
X6.365Y-5.275
X6.365Y-5.975
X6.365Y-6.675
X6.365Y-7.375
X6.365Y-8.075
X6.375Y-0.875
X6.375Y-0.975
X6.375Y-1.225
X6.375Y-1.4
X6.375Y-1.5
X6.375Y-1.575
X6.375Y-1.75
X6.375Y-1.925
X6.375Y-2.1
X6.375Y-2.275
X6.375Y-2.45
X6.375Y-2.625
X6.375Y-2.8
X6.375Y-2.875
X6.375Y-3.7875
X6.3861Y-1.0535
X6.3875Y-4.2
X6.39Y-3.95
X6.39Y-4.125
X6.39Y-4.3
X6.39Y-4.475
X6.39Y-4.65
X6.39Y-4.825
X6.39Y-5.0
X6.39Y-5.175
X6.39Y-5.35
X6.39Y-5.525
X6.39Y-5.7
X6.39Y-5.875
X6.39Y-6.05
X6.39Y-6.225
X6.39Y-6.4
X6.39Y-6.575
X6.39Y-6.75
X6.39Y-6.925
X6.39Y-7.1
X6.39Y-7.275
X6.39Y-7.45
X6.39Y-7.625
X6.39Y-7.8
X6.39Y-7.975
X6.39Y-8.15
X6.39Y-8.325
X6.3986Y-3.5563
X6.4Y-2.025
X6.4Y-2.55
X6.4Y-2.825
X6.4Y-3.475
X6.402Y-1.252
X6.4051Y-6.6468
X6.4051Y-7.3468
X6.4051Y-8.0468
X6.4125Y-9.35
X6.422Y-1.9839
X6.425Y-2.3
X6.425Y-2.6375
X6.425Y-4.1625
X6.425Y-4.55
X6.425Y-5.2125
X6.425Y-5.9125
X6.4341Y-3.4119
X6.4389Y-2.85
X6.4398Y-2.425
X6.45Y-2.125
X6.4625Y-3.8125
X6.465Y-4.925
X6.465Y-5.225
X6.465Y-5.275
X6.465Y-5.625
X6.465Y-5.975
X6.465Y-6.325
X6.465Y-6.45
X6.465Y-6.625
X6.465Y-6.675
X6.465Y-7.025
X6.465Y-7.15
X6.465Y-7.325
X6.465Y-7.375
X6.465Y-7.725
X6.465Y-7.85
X6.465Y-8.025
X6.465Y-8.075
X6.465Y-8.425
X6.468Y-4.578
X6.4689Y-1.0215
X6.4695Y-1.7215
X6.475Y-0.85
X6.475Y-1.2063
X6.475Y-1.2875
X6.475Y-1.55
X6.475Y-2.075
X6.475Y-4.3625
X6.475Y-5.05
X6.475Y-5.925
X6.4814Y-1.981
X6.4875Y-1.8875
X6.4875Y-2.125
X6.4875Y-2.2625
X6.4875Y-2.6375
X6.4875Y-4.525
X6.4875Y-5.75
X6.4915Y-2.3431
X6.4991Y-2.225
X6.5Y-2.4125
X6.5Y-2.4375
X6.5Y-2.4625
X6.5Y-2.7625
X6.5Y-2.7875
X6.5Y-3.0875
X6.5Y-3.1125
X6.5Y-3.1375
X6.5Y-3.7875
X6.5Y-3.8125
X6.5Y-3.8375
X6.5Y-4.1625
X6.5Y-4.1875
X6.5Y-4.4
X6.5Y-4.425
X6.5Y-4.45
X6.5Y-4.75
X6.5Y-4.775
X6.5Y-4.8
X6.5Y-5.1
X6.5Y-5.125
X6.5Y-5.15
X6.5Y-5.45
X6.5Y-5.475
X6.5Y-5.5
X6.5Y-5.8
X6.5Y-5.825
X6.5Y-5.85
X6.5Y-6.15
X6.5Y-6.175
X6.5Y-6.2
X6.5Y-6.4875
X6.5Y-6.5125
X6.5Y-6.5375
X6.5Y-6.85
X6.5Y-6.875
X6.5Y-6.9
X6.5Y-7.2
X6.5Y-7.225
X6.5Y-7.25
X6.5Y-7.5625
X6.5Y-7.5875
X6.5Y-7.925
X6.5Y-7.95
X6.5Y-8.275
X6.5Y-8.3
X6.5Y-8.6625
X6.5Y-8.6875
X6.5Y-8.7125
X6.5008Y-2.025
X6.5008Y-2.7375
X6.5008Y-7.6125
X6.5008Y-7.975
X6.5008Y-8.325
X6.5375Y-0.9125
X6.5375Y-0.95
X6.5375Y-0.9875
X6.5375Y-1.3125
X6.5375Y-1.35
X6.5375Y-1.3875
X6.5375Y-1.675
X6.5375Y-1.7125
X6.5375Y-1.75
T2
X6.2805Y-0.5
X6.3082Y-0.4332
X6.3082Y-0.5668
X6.375Y-0.4055
X6.375Y-0.5945
X6.4418Y-0.4332
X6.4418Y-0.5668
X6.4695Y-0.5
X0.7805Y-10.15
X0.8082Y-10.0832
X0.8082Y-10.2168
X0.875Y-10.0555
X0.875Y-10.2445
X0.9418Y-10.0832
X0.9418Y-10.2168
X0.9695Y-10.15
T4
X1.99Y-9.6
X1.99Y-9.7772
X2.2459Y-9.6
X2.2459Y-9.7772
X1.14Y-9.225
X1.14Y-9.4022
X1.3959Y-9.225
X1.3959Y-9.4022
X1.99Y-9.975
X1.99Y-10.1522
X2.2459Y-9.975
X2.2459Y-10.1522
X1.99Y-9.225
X1.99Y-9.4022
X2.2459Y-9.225
X2.2459Y-9.4022
X5.025Y-9.9441
X5.025Y-10.2
X5.2022Y-9.9441
X5.2022Y-10.2
X1.14Y-9.6
X1.14Y-9.7772
X1.3959Y-9.6
X1.3959Y-9.7772
X1.565Y-9.6
X1.565Y-9.7772
X1.8209Y-9.6
X1.8209Y-9.7772
X1.565Y-9.975
X1.565Y-10.1522
X1.8209Y-9.975
X1.8209Y-10.1522
X1.565Y-9.225
X1.565Y-9.4022
X1.8209Y-9.225
X1.8209Y-9.4022
X1.14Y-9.975
X1.14Y-10.1522
X1.3959Y-9.975
X1.3959Y-10.1522
T5
X6.375Y-0.5
X0.875Y-10.15
T3
G00X0.815Y-0.7175
M15
G01X0.815Y-0.7963
M16
G05
G00X1.0394Y-0.6388
M15
G01X0.9606Y-0.6388
M16
G05
G00X1.0394Y-0.875
M15
G01X0.9606Y-0.875
M16
G05
T0
M30
