G04 #@! TF.GenerationSoftware,KiCad,Pcbnew,(5.1.5)-3*
G04 #@! TF.CreationDate,2020-08-28T18:26:53+02:00*
G04 #@! TF.ProjectId,FetsAndCrosses,46657473-416e-4644-9372-6f737365732e,v0.1*
G04 #@! TF.SameCoordinates,Original*
G04 #@! TF.FileFunction,Legend,Bot*
G04 #@! TF.FilePolarity,Positive*
%FSLAX46Y46*%
G04 Gerber Fmt 4.6, Leading zero omitted, Abs format (unit mm)*
G04 Created by KiCad (PCBNEW (5.1.5)-3) date 2020-08-28 18:26:53*
%MOMM*%
%LPD*%
G04 APERTURE LIST*
%ADD10C,0.500000*%
%ADD11C,0.100000*%
%ADD12C,0.400000*%
%ADD13C,0.120000*%
G04 APERTURE END LIST*
D10*
X160718142Y-260556428D02*
X160241952Y-261889761D01*
X159765761Y-260556428D01*
X158622904Y-259889761D02*
X158432428Y-259889761D01*
X158241952Y-259985000D01*
X158146714Y-260080238D01*
X158051476Y-260270714D01*
X157956238Y-260651666D01*
X157956238Y-261127857D01*
X158051476Y-261508809D01*
X158146714Y-261699285D01*
X158241952Y-261794523D01*
X158432428Y-261889761D01*
X158622904Y-261889761D01*
X158813380Y-261794523D01*
X158908619Y-261699285D01*
X159003857Y-261508809D01*
X159099095Y-261127857D01*
X159099095Y-260651666D01*
X159003857Y-260270714D01*
X158908619Y-260080238D01*
X158813380Y-259985000D01*
X158622904Y-259889761D01*
X157099095Y-261699285D02*
X157003857Y-261794523D01*
X157099095Y-261889761D01*
X157194333Y-261794523D01*
X157099095Y-261699285D01*
X157099095Y-261889761D01*
X155099095Y-261889761D02*
X156241952Y-261889761D01*
X155670523Y-261889761D02*
X155670523Y-259889761D01*
X155861000Y-260175476D01*
X156051476Y-260365952D01*
X156241952Y-260461190D01*
D11*
G04 #@! TO.C,G1*
G36*
X23995000Y-12065000D02*
G01*
X23495000Y-11565000D01*
X22995000Y-12065000D01*
X23495000Y-12565000D01*
X23995000Y-12065000D01*
G37*
X23995000Y-12065000D02*
X23495000Y-11565000D01*
X22995000Y-12065000D01*
X23495000Y-12565000D01*
X23995000Y-12065000D01*
D12*
X26995000Y-12065000D02*
X28995000Y-12065000D01*
X18995000Y-13065000D02*
X18995000Y-11065000D01*
D13*
X18995000Y-12065000D02*
X18995000Y-13065000D01*
X19995000Y-12065000D02*
X18995000Y-12065000D01*
D12*
X17995000Y-12065000D02*
X19995000Y-12065000D01*
X23995000Y-12065000D02*
X26495000Y-12065000D01*
X20495000Y-12065000D02*
X21995000Y-12065000D01*
X20495000Y-12065000D02*
G75*
G03X20495000Y-12065000I-1500000J0D01*
G01*
X29495000Y-12065000D02*
G75*
G03X29495000Y-12065000I-1500000J0D01*
G01*
X24494999Y-11065001D02*
G75*
G03X24494999Y-13064999I-999999J-999999D01*
G01*
X23995000Y-12065000D02*
G75*
G03X23995000Y-12065000I-500000J0D01*
G01*
G04 #@! TD*
M02*
